<svg width="20" height="16" viewBox="0 0 20 16" fill="none" xmlns="http://www.w3.org/2000/svg">
<rect width="20" height="14.1176" transform="translate(0 0.941406)" fill="#249F58"/>
<path fill-rule="evenodd" clip-rule="evenodd" d="M10 2.82422L17.1429 8.00069L10 13.1772L2.85718 8.00069" fill="#FFDA2C"/>
<path d="M9.99996 11.2943C11.8409 11.2943 13.3333 9.81946 13.3333 8.00017C13.3333 6.18088 11.8409 4.70605 9.99996 4.70605C8.15901 4.70605 6.66663 6.18088 6.66663 8.00017C6.66663 9.81946 8.15901 11.2943 9.99996 11.2943Z" fill="#1A47B8"/>
<path fill-rule="evenodd" clip-rule="evenodd" d="M8.57141 9.41211V10.3533H9.52379V9.41211H8.57141ZM10.4762 9.41211V10.3533H11.4286V9.41211H10.4762Z" fill="white"/>
<path fill-rule="evenodd" clip-rule="evenodd" d="M7.61902 6.58887C7.61902 6.58887 9.77521 6.96534 11.3295 7.62228L13.3333 8.47122" fill="white"/>
<path d="M7.61902 6.58887C7.61902 6.58887 9.77521 6.96534 11.3295 7.62228L13.3333 8.47122" stroke="white" stroke-width="0.952381"/>
</svg>
