<svg width="20" height="16" viewBox="0 0 20 16" fill="none" xmlns="http://www.w3.org/2000/svg">
<rect width="20" height="14.1176" transform="translate(0 0.941406)" fill="#F93939"/>
<path fill-rule="evenodd" clip-rule="evenodd" d="M13.3353 9.0845L12.2286 9.65862L12.44 8.44167L11.5448 7.57862L12.7829 7.39979L13.3353 6.29297L13.8877 7.40073L15.1258 7.57956L14.2305 8.44073L14.4419 9.65767" fill="white"/>
<path fill-rule="evenodd" clip-rule="evenodd" d="M9.04757 11.2943C10.8885 11.2943 12.3809 9.81947 12.3809 8.00017C12.3809 6.18088 10.8885 4.70605 9.04757 4.70605C7.20661 4.70605 5.71423 6.18088 5.71423 8.00017C5.71423 9.81947 7.20661 11.2943 9.04757 11.2943ZM9.99995 10.3531C11.3142 10.3531 12.3809 9.299 12.3809 8.00017C12.3809 6.70135 11.3142 5.64723 9.99995 5.64723C8.68566 5.64723 7.619 6.70135 7.619 8.00017C7.619 9.299 8.68566 10.3531 9.99995 10.3531Z" fill="white"/>
</svg>
