<svg width="20" height="14" viewBox="0 0 20 14" fill="none" xmlns="http://www.w3.org/2000/svg">
<g clip-path="url(#clip0_1845_30096)">
<rect y="0.250977" width="19.1065" height="13.4869" fill="white"/>
<path d="M19.154 0.295898H0V1.2536H19.154V0.295898Z" fill="#FF4B55"/>
<path d="M19.154 12.7461H0V13.7038H19.154V12.7461Z" fill="#FF4B55"/>
<path d="M19.154 4.2334H0V5.29751H19.154V4.2334Z" fill="#FF4B55"/>
<path d="M19.154 2.21094H0V3.27505H19.154V2.21094Z" fill="#FF4B55"/>
<path d="M19.154 7.42544H0.330257C0.147883 7.42544 0 7.26243 0 7.0614V6.36133H19.154V7.42544Z" fill="#FF4B55"/>
<path d="M19.154 10.5107H0V11.5749H19.154V10.5107Z" fill="#FF4B55"/>
<path d="M19.154 8.48926H0V9.55337H19.154V8.48926Z" fill="#FF4B55"/>
<rect x="-0.0273438" y="0.250977" width="9.54128" height="7.15596" fill="#41479B"/>
<path d="M1.00477 0.918573L1.08396 1.15607L1.3343 1.15797C1.36672 1.15825 1.38014 1.19959 1.35408 1.21884L1.1527 1.36758L1.22824 1.60625C1.23805 1.63713 1.20283 1.66274 1.17645 1.64386L0.972796 1.49832L0.769145 1.6439C0.742761 1.66274 0.707624 1.63717 0.717351 1.60629L0.792894 1.36762L0.591512 1.21888C0.565453 1.19959 0.578868 1.15829 0.61129 1.15801L0.861629 1.15611L0.94082 0.918614C0.951033 0.887813 0.994479 0.887813 1.00477 0.918573Z" fill="#F5F5F5"/>
<path d="M1.00453 2.16073L1.08372 2.39822L1.33406 2.40013C1.36648 2.40041 1.3799 2.44175 1.35384 2.461L1.15245 2.60974L1.228 2.8484C1.23781 2.87929 1.20259 2.9049 1.1762 2.88601L0.972552 2.74048L0.768901 2.88605C0.742517 2.9049 0.70738 2.87933 0.717106 2.84844L0.79265 2.60978L0.591268 2.46104C0.565209 2.44175 0.578623 2.40045 0.611046 2.40017L0.861385 2.39826L0.940576 2.16077C0.950789 2.13001 0.994235 2.13001 1.00453 2.16073Z" fill="#F5F5F5"/>
<path d="M1.00453 3.40292L1.08372 3.64041L1.33406 3.64231C1.36648 3.6426 1.3799 3.68394 1.35384 3.70319L1.15245 3.85192L1.228 4.09059C1.23781 4.12147 1.20259 4.14709 1.1762 4.1282L0.972552 3.98267L0.768901 4.12824C0.742517 4.14709 0.70738 4.12151 0.717106 4.09063L0.79265 3.85196L0.591268 3.70323C0.565209 3.68394 0.578623 3.64264 0.611046 3.64235L0.861385 3.64045L0.940576 3.40296C0.950789 3.3722 0.994235 3.3722 1.00453 3.40292Z" fill="#F5F5F5"/>
<path d="M1.00453 4.64416L1.08372 4.88165L1.33406 4.88356C1.36648 4.88384 1.3799 4.92518 1.35384 4.94443L1.15245 5.09317L1.228 5.33183C1.23781 5.36271 1.20259 5.38833 1.1762 5.36944L0.972552 5.22391L0.768901 5.36948C0.742517 5.38833 0.70738 5.36276 0.717106 5.33187L0.79265 5.09321L0.591268 4.94447C0.565209 4.92518 0.578623 4.88388 0.611046 4.8836L0.861385 4.88169L0.940576 4.6442C0.950789 4.6134 0.994235 4.6134 1.00453 4.64416Z" fill="#F5F5F5"/>
<path d="M1.00453 5.88931L1.08372 6.1268L1.33406 6.1287C1.36648 6.12899 1.3799 6.17033 1.35384 6.18958L1.15245 6.33831L1.228 6.57698C1.23781 6.60786 1.20259 6.63347 1.1762 6.61459L0.972552 6.46905L0.768901 6.61463C0.742517 6.63348 0.70738 6.6079 0.717106 6.57702L0.79265 6.33835L0.591268 6.18962C0.565209 6.17033 0.578623 6.12903 0.611046 6.12874L0.861385 6.12684L0.940576 5.88935C0.950789 5.85851 0.994235 5.85851 1.00453 5.88931Z" fill="#F5F5F5"/>
<path d="M1.96876 1.52792L2.04795 1.76542L2.29829 1.76732C2.33071 1.7676 2.34413 1.80894 2.31807 1.82819L2.11669 1.97693L2.19223 2.2156C2.20204 2.24648 2.16682 2.27209 2.14044 2.25321L1.93679 2.10763L1.73313 2.25321C1.70675 2.27205 1.67161 2.24648 1.68134 2.2156L1.75688 1.97693L1.5555 1.82819C1.52944 1.8089 1.54286 1.7676 1.57528 1.76732L1.82562 1.76542L1.90481 1.52792C1.91498 1.4972 1.95851 1.4972 1.96876 1.52792Z" fill="#F5F5F5"/>
<path d="M1.96876 2.76916L2.04795 3.00666L2.29829 3.00856C2.33071 3.00884 2.34413 3.05018 2.31807 3.06943L2.11669 3.21817L2.19223 3.45684C2.20204 3.48772 2.16682 3.51333 2.14044 3.49445L1.93679 3.34887L1.73313 3.49445C1.70675 3.51329 1.67161 3.48776 1.68134 3.45684L1.75688 3.21817L1.5555 3.06943C1.52944 3.05014 1.54286 3.00884 1.57528 3.00856L1.82562 3.00666L1.90481 2.76916C1.91498 2.7384 1.95851 2.7384 1.96876 2.76916Z" fill="#F5F5F5"/>
<path d="M1.96888 4.01233L2.04807 4.24982L2.29841 4.25173C2.33084 4.25201 2.34425 4.29335 2.31819 4.3126L2.11681 4.46133L2.19235 4.7C2.20216 4.73088 2.16694 4.7565 2.14056 4.73761L1.93691 4.59204L1.73326 4.73761C1.70687 4.75646 1.67174 4.73088 1.68146 4.7L1.75701 4.46133L1.55562 4.3126C1.52956 4.29331 1.54298 4.25201 1.5754 4.25173L1.82574 4.24982L1.90493 4.01233C1.9151 3.98157 1.95863 3.98157 1.96888 4.01233Z" fill="#F5F5F5"/>
<path d="M1.96876 5.25449L2.04795 5.49198L2.29829 5.49388C2.33071 5.49417 2.34413 5.5355 2.31807 5.55475L2.11669 5.70349L2.19223 5.94216C2.20204 5.97304 2.16682 5.99865 2.14044 5.97977L1.93679 5.83419L1.73313 5.97977C1.70675 5.99861 1.67161 5.97304 1.68134 5.94216L1.75688 5.70349L1.5555 5.55475C1.52944 5.53546 1.54286 5.49417 1.57528 5.49388L1.82562 5.49198L1.90481 5.25449C1.91498 5.22377 1.95851 5.22377 1.96876 5.25449Z" fill="#F5F5F5"/>
<path d="M2.93324 0.918578L3.01243 1.15607L3.26277 1.15797C3.29519 1.15826 3.30861 1.1996 3.28255 1.21885L3.08117 1.36758L3.15671 1.60625C3.16652 1.63713 3.1313 1.66275 3.10491 1.64386L2.90126 1.49829L2.69761 1.64386C2.67123 1.66271 2.63609 1.63713 2.64582 1.60625L2.72136 1.36758L2.51998 1.21885C2.49392 1.19956 2.50733 1.15826 2.53976 1.15797L2.7901 1.15607L2.86929 0.918578C2.8795 0.887818 2.92299 0.887818 2.93324 0.918578Z" fill="#F5F5F5"/>
<path d="M2.93324 2.16074L3.01243 2.39823L3.26277 2.40013C3.29519 2.40042 3.30861 2.44175 3.28255 2.461L3.08117 2.60974L3.15671 2.84841C3.16652 2.87929 3.1313 2.9049 3.10491 2.88602L2.90126 2.74044L2.69761 2.88602C2.67123 2.90486 2.63609 2.87929 2.64582 2.84841L2.72136 2.60974L2.51998 2.461C2.49392 2.44171 2.50733 2.40042 2.53976 2.40013L2.7901 2.39823L2.86929 2.16074C2.8795 2.13002 2.92299 2.13002 2.93324 2.16074Z" fill="#F5F5F5"/>
<path d="M2.93324 3.40292L3.01243 3.64042L3.26277 3.64232C3.29519 3.6426 3.30861 3.68394 3.28255 3.70319L3.08117 3.85193L3.15671 4.0906C3.16652 4.12148 3.1313 4.14709 3.10491 4.12821L2.90126 3.98263L2.69761 4.12821C2.67123 4.14705 2.63609 4.12148 2.64582 4.0906L2.72136 3.85193L2.51998 3.70319C2.49392 3.6839 2.50733 3.6426 2.53976 3.64232L2.7901 3.64042L2.86929 3.40292C2.8795 3.3722 2.92299 3.3722 2.93324 3.40292Z" fill="#F5F5F5"/>
<path d="M2.93324 4.64416L3.01243 4.88166L3.26277 4.88356C3.29519 4.88384 3.30861 4.92518 3.28255 4.94443L3.08117 5.09317L3.15671 5.33184C3.16652 5.36272 3.1313 5.38833 3.10491 5.36945L2.90126 5.22387L2.69761 5.36945C2.67123 5.38829 2.63609 5.36272 2.64582 5.33184L2.72136 5.09317L2.51998 4.94443C2.49392 4.92514 2.50733 4.88384 2.53976 4.88356L2.7901 4.88166L2.86929 4.64416C2.8795 4.6134 2.92299 4.6134 2.93324 4.64416Z" fill="#F5F5F5"/>
<path d="M2.93324 5.88931L3.01243 6.1268L3.26277 6.12871C3.29519 6.12899 3.30861 6.17033 3.28255 6.18958L3.08117 6.33832L3.15671 6.57698C3.16652 6.60787 3.1313 6.63348 3.10491 6.61459L2.90126 6.46902L2.69761 6.61459C2.67123 6.63344 2.63609 6.60787 2.64582 6.57698L2.72136 6.33832L2.51998 6.18958C2.49392 6.17029 2.50733 6.12899 2.53976 6.12871L2.7901 6.1268L2.86929 5.88931C2.8795 5.85851 2.92299 5.85851 2.93324 5.88931Z" fill="#F5F5F5"/>
<path d="M3.89723 1.52792L3.97642 1.76542L4.22676 1.76732C4.25918 1.7676 4.2726 1.80894 4.24654 1.82819L4.04515 1.97693L4.1207 2.2156C4.13051 2.24648 4.09529 2.27209 4.0689 2.25321L3.86525 2.10763L3.6616 2.25321C3.63522 2.27205 3.60008 2.24648 3.60981 2.2156L3.68535 1.97693L3.48397 1.82819C3.45791 1.8089 3.47132 1.7676 3.50375 1.76732L3.75409 1.76542L3.83328 1.52792C3.84345 1.4972 3.88698 1.4972 3.89723 1.52792Z" fill="#F5F5F5"/>
<path d="M3.89723 2.76916L3.97642 3.00666L4.22676 3.00856C4.25918 3.00884 4.2726 3.05018 4.24654 3.06943L4.04515 3.21817L4.1207 3.45684C4.13051 3.48772 4.09529 3.51333 4.0689 3.49445L3.86525 3.34887L3.6616 3.49445C3.63522 3.51329 3.60008 3.48776 3.60981 3.45684L3.68535 3.21817L3.48397 3.06943C3.45791 3.05014 3.47132 3.00884 3.50375 3.00856L3.75409 3.00666L3.83328 2.76916C3.84345 2.7384 3.88698 2.7384 3.89723 2.76916Z" fill="#F5F5F5"/>
<path d="M3.89735 4.01233L3.97654 4.24982L4.22688 4.25173C4.2593 4.25201 4.27272 4.29335 4.24666 4.3126L4.04528 4.46133L4.12082 4.7C4.13063 4.73088 4.09541 4.7565 4.06903 4.73761L3.86537 4.59204L3.66172 4.73761C3.63534 4.75646 3.6002 4.73088 3.60993 4.7L3.68547 4.46133L3.48409 4.3126C3.45803 4.29331 3.47145 4.25201 3.50387 4.25173L3.75421 4.24982L3.8334 4.01233C3.84357 3.98157 3.8871 3.98157 3.89735 4.01233Z" fill="#F5F5F5"/>
<path d="M3.89723 5.25449L3.97642 5.49198L4.22676 5.49388C4.25918 5.49417 4.2726 5.5355 4.24654 5.55475L4.04515 5.70349L4.1207 5.94216C4.13051 5.97304 4.09529 5.99865 4.0689 5.97977L3.86525 5.83419L3.6616 5.97977C3.63522 5.99861 3.60008 5.97304 3.60981 5.94216L3.68535 5.70349L3.48397 5.55475C3.45791 5.53546 3.47132 5.49417 3.50375 5.49388L3.75409 5.49198L3.83328 5.25449C3.84345 5.22377 3.88698 5.22377 3.89723 5.25449Z" fill="#F5F5F5"/>
<path d="M4.86126 0.918578L4.94045 1.15607L5.19079 1.15797C5.22321 1.15826 5.23662 1.1996 5.21057 1.21885L5.00918 1.36758L5.08473 1.60625C5.09454 1.63713 5.05932 1.66275 5.03293 1.64386L4.82924 1.49829L4.62559 1.64386C4.59921 1.66271 4.56407 1.63713 4.5738 1.60625L4.64934 1.36758L4.44796 1.21885C4.4219 1.19956 4.43531 1.15826 4.46773 1.15797L4.71807 1.15607L4.79727 0.918578C4.80752 0.887818 4.851 0.887818 4.86126 0.918578Z" fill="#F5F5F5"/>
<path d="M4.86126 2.16074L4.94045 2.39823L5.19079 2.40013C5.22321 2.40042 5.23662 2.44175 5.21057 2.461L5.00918 2.60974L5.08473 2.84841C5.09454 2.87929 5.05932 2.9049 5.03293 2.88602L4.82924 2.74044L4.62559 2.88602C4.59921 2.90486 4.56407 2.87929 4.5738 2.84841L4.64934 2.60974L4.44796 2.461C4.4219 2.44171 4.43531 2.40042 4.46773 2.40013L4.71807 2.39823L4.79727 2.16074C4.80752 2.13002 4.851 2.13002 4.86126 2.16074Z" fill="#F5F5F5"/>
<path d="M4.86126 3.40292L4.94045 3.64042L5.19079 3.64232C5.22321 3.6426 5.23662 3.68394 5.21057 3.70319L5.00918 3.85193L5.08473 4.0906C5.09454 4.12148 5.05932 4.14709 5.03293 4.12821L4.82924 3.98263L4.62559 4.12821C4.59921 4.14705 4.56407 4.12148 4.5738 4.0906L4.64934 3.85193L4.44796 3.70319C4.4219 3.6839 4.43531 3.6426 4.46773 3.64232L4.71807 3.64042L4.79727 3.40292C4.80752 3.3722 4.851 3.3722 4.86126 3.40292Z" fill="#F5F5F5"/>
<path d="M4.86126 4.64416L4.94045 4.88166L5.19079 4.88356C5.22321 4.88384 5.23662 4.92518 5.21057 4.94443L5.00918 5.09317L5.08473 5.33184C5.09454 5.36272 5.05932 5.38833 5.03293 5.36945L4.82924 5.22387L4.62559 5.36945C4.59921 5.38829 4.56407 5.36272 4.5738 5.33184L4.64934 5.09317L4.44796 4.94443C4.4219 4.92514 4.43531 4.88384 4.46773 4.88356L4.71807 4.88166L4.79727 4.64416C4.80752 4.6134 4.851 4.6134 4.86126 4.64416Z" fill="#F5F5F5"/>
<path d="M4.86126 5.88931L4.94045 6.1268L5.19079 6.12871C5.22321 6.12899 5.23662 6.17033 5.21057 6.18958L5.00918 6.33832L5.08473 6.57698C5.09454 6.60787 5.05932 6.63348 5.03293 6.61459L4.82924 6.46902L4.62559 6.61459C4.59921 6.63344 4.56407 6.60787 4.5738 6.57698L4.64934 6.33832L4.44796 6.18958C4.4219 6.17029 4.43531 6.12899 4.46773 6.12871L4.71807 6.1268L4.79727 5.88931C4.80752 5.85851 4.851 5.85851 4.86126 5.88931Z" fill="#F5F5F5"/>
<path d="M5.82545 1.52792L5.90464 1.76542L6.15498 1.76732C6.1874 1.7676 6.20082 1.80894 6.17476 1.82819L5.97338 1.97693L6.04892 2.2156C6.05873 2.24648 6.02351 2.27209 5.99713 2.25321L5.79348 2.10763L5.58982 2.25321C5.56344 2.27205 5.5283 2.24648 5.53803 2.2156L5.61357 1.97693L5.41219 1.82819C5.38613 1.8089 5.39955 1.7676 5.43197 1.76732L5.68231 1.76542L5.7615 1.52792C5.77175 1.4972 5.8152 1.4972 5.82545 1.52792Z" fill="#F5F5F5"/>
<path d="M5.82545 2.76916L5.90464 3.00666L6.15498 3.00856C6.1874 3.00884 6.20082 3.05018 6.17476 3.06943L5.97338 3.21817L6.04892 3.45684C6.05873 3.48772 6.02351 3.51333 5.99713 3.49445L5.79348 3.34887L5.58982 3.49445C5.56344 3.51329 5.5283 3.48776 5.53803 3.45684L5.61357 3.21817L5.41219 3.06943C5.38613 3.05014 5.39955 3.00884 5.43197 3.00856L5.68231 3.00666L5.7615 2.76916C5.77175 2.7384 5.8152 2.7384 5.82545 2.76916Z" fill="#F5F5F5"/>
<path d="M5.82557 4.01233L5.90476 4.24982L6.1551 4.25173C6.18753 4.25201 6.20094 4.29335 6.17488 4.3126L5.9735 4.46133L6.04904 4.7C6.05885 4.73088 6.02363 4.7565 5.99725 4.73761L5.7936 4.59204L5.58995 4.73761C5.56356 4.75646 5.52842 4.73088 5.53815 4.7L5.61369 4.46133L5.41231 4.3126C5.38625 4.29331 5.39967 4.25201 5.43209 4.25173L5.68243 4.24982L5.76162 4.01233C5.77187 3.98157 5.81532 3.98157 5.82557 4.01233Z" fill="#F5F5F5"/>
<path d="M5.82545 5.25449L5.90464 5.49198L6.15498 5.49388C6.1874 5.49417 6.20082 5.5355 6.17476 5.55475L5.97338 5.70349L6.04892 5.94216C6.05873 5.97304 6.02351 5.99865 5.99713 5.97977L5.79348 5.83419L5.58982 5.97977C5.56344 5.99861 5.5283 5.97304 5.53803 5.94216L5.61357 5.70349L5.41219 5.55475C5.38613 5.53546 5.39955 5.49417 5.43197 5.49388L5.68231 5.49198L5.7615 5.25449C5.77175 5.22377 5.8152 5.22377 5.82545 5.25449Z" fill="#F5F5F5"/>
<path d="M6.79042 0.918578L6.86961 1.15607L7.11995 1.15797C7.15237 1.15826 7.16579 1.1996 7.13973 1.21885L6.93834 1.36758L7.01389 1.60625C7.0237 1.63713 6.98848 1.66275 6.96209 1.64386L6.75844 1.49829L6.55479 1.64386C6.52841 1.66271 6.49327 1.63713 6.503 1.60625L6.57854 1.36758L6.37716 1.21885C6.3511 1.19956 6.36451 1.15826 6.39693 1.15797L6.64727 1.15607L6.72646 0.918578C6.73664 0.887818 6.78016 0.887818 6.79042 0.918578Z" fill="#F5F5F5"/>
<path d="M6.79042 2.16074L6.86961 2.39823L7.11995 2.40013C7.15237 2.40042 7.16579 2.44175 7.13973 2.461L6.93834 2.60974L7.01389 2.84841C7.0237 2.87929 6.98848 2.9049 6.96209 2.88602L6.75844 2.74044L6.55479 2.88602C6.52841 2.90486 6.49327 2.87929 6.503 2.84841L6.57854 2.60974L6.37716 2.461C6.3511 2.44171 6.36451 2.40042 6.39693 2.40013L6.64727 2.39823L6.72646 2.16074C6.73664 2.13002 6.78016 2.13002 6.79042 2.16074Z" fill="#F5F5F5"/>
<path d="M6.79042 3.40292L6.86961 3.64042L7.11995 3.64232C7.15237 3.6426 7.16579 3.68394 7.13973 3.70319L6.93834 3.85193L7.01389 4.0906C7.0237 4.12148 6.98848 4.14709 6.96209 4.12821L6.75844 3.98263L6.55479 4.12821C6.52841 4.14705 6.49327 4.12148 6.503 4.0906L6.57854 3.85193L6.37716 3.70319C6.3511 3.6839 6.36451 3.6426 6.39693 3.64232L6.64727 3.64042L6.72646 3.40292C6.73664 3.3722 6.78016 3.3722 6.79042 3.40292Z" fill="#F5F5F5"/>
<path d="M6.79042 4.64416L6.86961 4.88166L7.11995 4.88356C7.15237 4.88384 7.16579 4.92518 7.13973 4.94443L6.93834 5.09317L7.01389 5.33184C7.0237 5.36272 6.98848 5.38833 6.96209 5.36945L6.75844 5.22387L6.55479 5.36945C6.52841 5.38829 6.49327 5.36272 6.503 5.33184L6.57854 5.09317L6.37716 4.94443C6.3511 4.92514 6.36451 4.88384 6.39693 4.88356L6.64727 4.88166L6.72646 4.64416C6.73664 4.6134 6.78016 4.6134 6.79042 4.64416Z" fill="#F5F5F5"/>
<path d="M6.79042 5.88931L6.86961 6.1268L7.11995 6.12871C7.15237 6.12899 7.16579 6.17033 7.13973 6.18958L6.93834 6.33832L7.01389 6.57698C7.0237 6.60787 6.98848 6.63348 6.96209 6.61459L6.75844 6.46902L6.55479 6.61459C6.52841 6.63344 6.49327 6.60787 6.503 6.57698L6.57854 6.33832L6.37716 6.18958C6.3511 6.17029 6.36451 6.12899 6.39693 6.12871L6.64727 6.1268L6.72646 5.88931C6.73664 5.85851 6.78016 5.85851 6.79042 5.88931Z" fill="#F5F5F5"/>
<path d="M7.75416 1.52792L7.83335 1.76542L8.08369 1.76732C8.11611 1.7676 8.12953 1.80894 8.10347 1.82819L7.90209 1.97693L7.97763 2.2156C7.98744 2.24648 7.95222 2.27209 7.92584 2.25321L7.72219 2.10763L7.51853 2.25321C7.49215 2.27205 7.45701 2.24648 7.46674 2.2156L7.54228 1.97693L7.3409 1.82819C7.31484 1.8089 7.32826 1.7676 7.36068 1.76732L7.61102 1.76542L7.69021 1.52792C7.70042 1.4972 7.74395 1.4972 7.75416 1.52792Z" fill="#F5F5F5"/>
<path d="M7.75416 2.76916L7.83335 3.00666L8.08369 3.00856C8.11611 3.00884 8.12953 3.05018 8.10347 3.06943L7.90209 3.21817L7.97763 3.45684C7.98744 3.48772 7.95222 3.51333 7.92584 3.49445L7.72219 3.34887L7.51853 3.49445C7.49215 3.51329 7.45701 3.48776 7.46674 3.45684L7.54228 3.21817L7.3409 3.06943C7.31484 3.05014 7.32826 3.00884 7.36068 3.00856L7.61102 3.00666L7.69021 2.76916C7.70042 2.7384 7.74395 2.7384 7.75416 2.76916Z" fill="#F5F5F5"/>
<path d="M7.75428 4.01233L7.83348 4.24982L8.08381 4.25173C8.11624 4.25201 8.12965 4.29335 8.10359 4.3126L7.90221 4.46133L7.97775 4.7C7.98756 4.73088 7.95234 4.7565 7.92596 4.73761L7.72231 4.59204L7.51866 4.73761C7.49227 4.75646 7.45714 4.73088 7.46686 4.7L7.54241 4.46133L7.34102 4.3126C7.31496 4.29331 7.32838 4.25201 7.3608 4.25173L7.61114 4.24982L7.69033 4.01233C7.70054 3.98157 7.74407 3.98157 7.75428 4.01233Z" fill="#F5F5F5"/>
<path d="M7.75416 5.25449L7.83335 5.49198L8.08369 5.49388C8.11611 5.49417 8.12953 5.5355 8.10347 5.55475L7.90209 5.70349L7.97763 5.94216C7.98744 5.97304 7.95222 5.99865 7.92584 5.97977L7.72219 5.83419L7.51853 5.97977C7.49215 5.99861 7.45701 5.97304 7.46674 5.94216L7.54228 5.70349L7.3409 5.55475C7.31484 5.53546 7.32826 5.49417 7.36068 5.49388L7.61102 5.49198L7.69021 5.25449C7.70042 5.22377 7.74395 5.22377 7.75416 5.25449Z" fill="#F5F5F5"/>
<path d="M8.71864 0.918578L8.79783 1.15607L9.04817 1.15797C9.08059 1.15826 9.09401 1.1996 9.06795 1.21885L8.86657 1.36758L8.94211 1.60625C8.95192 1.63713 8.9167 1.66275 8.89031 1.64386L8.68666 1.49829L8.48301 1.64386C8.45663 1.66271 8.42149 1.63713 8.43122 1.60625L8.50676 1.36758L8.30538 1.21885C8.27932 1.19956 8.29273 1.15826 8.32516 1.15797L8.5755 1.15607L8.65469 0.918578C8.6649 0.887818 8.70835 0.887818 8.71864 0.918578Z" fill="#F5F5F5"/>
<path d="M8.71864 2.16074L8.79783 2.39823L9.04817 2.40013C9.08059 2.40042 9.09401 2.44175 9.06795 2.461L8.86657 2.60974L8.94211 2.84841C8.95192 2.87929 8.9167 2.9049 8.89031 2.88602L8.68666 2.74044L8.48301 2.88602C8.45663 2.90486 8.42149 2.87929 8.43122 2.84841L8.50676 2.60974L8.30538 2.461C8.27932 2.44171 8.29273 2.40042 8.32516 2.40013L8.5755 2.39823L8.65469 2.16074C8.6649 2.13002 8.70835 2.13002 8.71864 2.16074Z" fill="#F5F5F5"/>
<path d="M8.71864 3.40292L8.79783 3.64042L9.04817 3.64232C9.08059 3.6426 9.09401 3.68394 9.06795 3.70319L8.86657 3.85193L8.94211 4.0906C8.95192 4.12148 8.9167 4.14709 8.89031 4.12821L8.68666 3.98263L8.48301 4.12821C8.45663 4.14705 8.42149 4.12148 8.43122 4.0906L8.50676 3.85193L8.30538 3.70319C8.27932 3.6839 8.29273 3.6426 8.32516 3.64232L8.5755 3.64042L8.65469 3.40292C8.6649 3.3722 8.70835 3.3722 8.71864 3.40292Z" fill="#F5F5F5"/>
<path d="M8.71864 4.64416L8.79783 4.88166L9.04817 4.88356C9.08059 4.88384 9.09401 4.92518 9.06795 4.94443L8.86657 5.09317L8.94211 5.33184C8.95192 5.36272 8.9167 5.38833 8.89031 5.36945L8.68666 5.22387L8.48301 5.36945C8.45663 5.38829 8.42149 5.36272 8.43122 5.33184L8.50676 5.09317L8.30538 4.94443C8.27932 4.92514 8.29273 4.88384 8.32516 4.88356L8.5755 4.88166L8.65469 4.64416C8.6649 4.6134 8.70835 4.6134 8.71864 4.64416Z" fill="#F5F5F5"/>
<path d="M8.71864 5.88931L8.79783 6.1268L9.04817 6.12871C9.08059 6.12899 9.09401 6.17033 9.06795 6.18958L8.86657 6.33832L8.94211 6.57698C8.95192 6.60787 8.9167 6.63348 8.89031 6.61459L8.68666 6.46902L8.48301 6.61459C8.45663 6.63344 8.42149 6.60787 8.43122 6.57698L8.50676 6.33832L8.30538 6.18958C8.27932 6.17029 8.29273 6.12899 8.32516 6.12871L8.5755 6.1268L8.65469 5.88931C8.6649 5.85851 8.70835 5.85851 8.71864 5.88931Z" fill="#F5F5F5"/>
</g>
<defs>
<clipPath id="clip0_1845_30096">
<rect width="19.0476" height="13.4078" fill="white" transform="translate(0 0.295898)"/>
</clipPath>
</defs>
</svg>
