<svg width="33" height="33" viewBox="0 0 33 33" xmlns="http://www.w3.org/2000/svg">
<path fill-rule="evenodd" clip-rule="evenodd" d="M2.41195 16.1841C2.41195 23.7902 8.57795 29.9562 16.1841 29.9562C23.7902 29.9562 29.9562 23.7902 29.9562 16.1841C29.9562 8.57795 23.7902 2.41195 16.1841 2.41195C8.57795 2.41195 2.41195 8.57795 2.41195 16.1841ZM0 16.1841C0 25.1223 7.24586 32.3682 16.1841 32.3682C25.1223 32.3682 32.3682 25.1223 32.3682 16.1841C32.3682 7.24586 25.1223 0 16.1841 0C7.24586 0 0 7.24586 0 16.1841ZM11.0735 17.2856C10.7701 16.9822 10.6177 16.5838 10.6177 16.1855C10.6177 15.7966 10.7624 15.4076 11.0549 15.1042L17.0637 8.88067C17.6596 8.26298 18.646 8.24587 19.2637 8.84333C19.8814 9.44078 19.8985 10.4225 19.3026 11.0433L14.3549 16.1669L19.4971 21.3091C20.1054 21.9174 20.1054 22.9007 19.4971 23.5091C18.8887 24.1174 17.9054 24.1174 17.2971 23.5091L11.0735 17.2856Z"/>
</svg>
