<svg width="33" height="33" viewBox="0 0 33 33" xmlns="http://www.w3.org/2000/svg">
<path fill-rule="evenodd" clip-rule="evenodd" d="M29.9562 16.1841C29.9562 23.7902 23.7902 29.9562 16.1841 29.9562C8.57795 29.9562 2.41195 23.7902 2.41195 16.1841C2.41195 8.57795 8.57795 2.41195 16.1841 2.41195C23.7902 2.41195 29.9562 8.57795 29.9562 16.1841ZM32.3682 16.1841C32.3682 25.1223 25.1223 32.3682 16.1841 32.3682C7.24586 32.3682 0 25.1223 0 16.1841C0 7.24586 7.24586 0 16.1841 0C25.1223 0 32.3682 7.24586 32.3682 16.1841ZM21.2946 17.2856C21.598 16.9822 21.7505 16.5838 21.7505 16.1855C21.7505 15.7966 21.6058 15.4076 21.3133 15.1042L15.3045 8.88067C14.7086 8.26298 13.7221 8.24587 13.1044 8.84333C12.4868 9.44078 12.4696 10.4225 13.0656 11.0433L18.0133 16.1669L12.8711 21.3091C12.2627 21.9174 12.2627 22.9007 12.8711 23.5091C13.4794 24.1174 14.4627 24.1174 15.0711 23.5091L21.2946 17.2856Z"/>
</svg>
