<svg width="18" height="11" viewBox="0 0 18 11" xmlns="http://www.w3.org/2000/svg">
<path fill-rule="evenodd" clip-rule="evenodd" d="M12.795 0.449655C12.4911 0.160376 12.0102 0.172256 11.7209 0.476188C11.4316 0.780121 11.4435 1.26101 11.7475 1.55029L15.0538 4.69722H0.999981C0.580385 4.69722 0.240234 5.03737 0.240234 5.45696C0.240234 5.87655 0.580385 6.2167 0.999981 6.2167H15.1441L11.7475 9.44957C11.4435 9.73885 11.4316 10.2197 11.7209 10.5237C12.0102 10.8276 12.4911 10.8395 12.795 10.5502L17.523 6.05025C17.6737 5.90684 17.759 5.70793 17.759 5.49993C17.759 5.49759 17.759 5.49525 17.7589 5.49291C17.7595 5.481 17.7598 5.46901 17.7598 5.45696C17.7598 5.1613 17.5909 4.90509 17.3443 4.77953L12.795 0.449655Z"/>
</svg>
