<svg width="15" height="15" viewBox="0 0 15 15" fill="none" xmlns="http://www.w3.org/2000/svg">
<path fill-rule="evenodd" clip-rule="evenodd" d="M5.75195 0.413241C5.75195 0.185015 5.93697 0 6.16519 0C6.39342 0 6.57843 0.185014 6.57843 0.41324V1.06665H8.23291V0.413241C8.23291 0.185015 8.41792 0 8.64615 0C8.87438 0 9.05939 0.185014 9.05939 0.41324V1.06665H10.7095V0.413241C10.7095 0.185015 10.8945 0 11.1227 0C11.3509 0 11.536 0.185014 11.536 0.41324V1.06665H13.0319C14.0127 1.06665 14.8078 1.86174 14.8078 2.84254V13.0654C14.8078 14.0462 14.0127 14.8413 13.0319 14.8413H1.77589C0.795094 14.8413 0 14.0462 0 13.0654V2.84254C0 1.86174 0.795093 1.06665 1.77589 1.06665H3.27124V0.413241C3.27124 0.185015 3.45625 0 3.68448 0C3.91271 0 4.09772 0.185014 4.09772 0.41324V1.06665H5.75195V0.413241ZM10.7095 2.0392V2.0662C10.7095 2.29443 10.8945 2.47944 11.1227 2.47944C11.3509 2.47944 11.536 2.29443 11.536 2.0662V2.0392H13.0319C13.4756 2.0392 13.8352 2.39887 13.8352 2.84254V3.82227H0.972554V2.84254C0.972554 2.39887 1.33222 2.0392 1.77589 2.0392H3.27124V2.0662C3.27124 2.29443 3.45625 2.47944 3.68448 2.47944C3.91271 2.47944 4.09772 2.29443 4.09772 2.0662V2.0392H5.75195V2.0662C5.75195 2.29443 5.93697 2.47944 6.16519 2.47944C6.39342 2.47944 6.57843 2.29443 6.57843 2.0662V2.0392H8.23291V2.0662C8.23291 2.29443 8.41792 2.47944 8.64615 2.47944C8.87438 2.47944 9.05939 2.29443 9.05939 2.0662V2.0392H10.7095ZM0.972554 13.0654V4.64875H13.8352V13.0654C13.8352 13.5091 13.4756 13.8688 13.0319 13.8688H1.77589C1.33222 13.8688 0.972554 13.5091 0.972554 13.0654ZM10.0705 6.89572C9.96755 6.99455 9.96693 7.15544 10.0692 7.25507L10.6835 7.85368C10.7796 7.94732 10.9324 7.95351 11.0359 7.87186C11.047 7.86418 11.0575 7.85551 11.0675 7.84584L12.4151 6.53269C12.5111 6.43918 12.5105 6.28816 12.4138 6.19538C12.3172 6.10261 12.161 6.1032 12.065 6.19672L10.8942 7.33756L10.4422 6.89714C10.3399 6.79751 10.1736 6.79688 10.0705 6.89572ZM4.00126 9.83312H2.83282C2.29148 9.83312 1.85265 10.272 1.85265 10.8133V11.9494C1.85265 12.4908 2.29148 12.9296 2.83282 12.9296H4.00126C4.54259 12.9296 4.98142 12.4908 4.98142 11.9494V10.8133C4.98142 10.272 4.54259 9.83312 4.00126 9.83312ZM2.5686 10.8133C2.5686 10.6674 2.6869 10.5491 2.83282 10.5491H4.00126C4.14718 10.5491 4.26547 10.6674 4.26547 10.8133V11.9494C4.26547 12.0953 4.14718 12.2136 4.00126 12.2136H2.83282C2.6869 12.2136 2.5686 12.0953 2.5686 11.9494V10.8133ZM2.83282 5.79357H4.00126C4.54259 5.79357 4.98142 6.2324 4.98142 6.77373V7.90987C4.98142 8.4512 4.54259 8.89004 4.00126 8.89004H2.83282C2.29148 8.89004 1.85265 8.4512 1.85265 7.90987V6.77374C1.85265 6.2324 2.29148 5.79357 2.83282 5.79357ZM2.83282 6.50952C2.6869 6.50952 2.5686 6.62781 2.5686 6.77374V7.90987C2.5686 8.05579 2.6869 8.17409 2.83282 8.17409H4.00126C4.14718 8.17409 4.26547 8.05579 4.26547 7.90987V6.77373C4.26547 6.62781 4.14718 6.50952 4.00126 6.50952H2.83282ZM7.98832 9.83312H6.81988C6.27854 9.83312 5.83971 10.272 5.83971 10.8133V11.9494C5.83971 12.4908 6.27855 12.9296 6.81988 12.9296H7.98832C8.52965 12.9296 8.96848 12.4908 8.96848 11.9494V10.8133C8.96848 10.272 8.52965 9.83312 7.98832 9.83312ZM6.55566 10.8133C6.55566 10.6674 6.67396 10.5491 6.81988 10.5491H7.98832C8.13424 10.5491 8.25253 10.6674 8.25253 10.8133V11.9494C8.25253 12.0953 8.13424 12.2136 7.98832 12.2136H6.81988C6.67396 12.2136 6.55566 12.0953 6.55566 11.9494V10.8133ZM6.81988 5.79357H7.98832C8.52965 5.79357 8.96848 6.2324 8.96848 6.77373V7.90987C8.96848 8.4512 8.52965 8.89004 7.98832 8.89004H6.81988C6.27855 8.89004 5.83971 8.4512 5.83971 7.90987V6.77374C5.83971 6.2324 6.27854 5.79357 6.81988 5.79357ZM6.81988 6.50952C6.67396 6.50952 6.55566 6.62781 6.55566 6.77374V7.90987C6.55566 8.05579 6.67396 8.17409 6.81988 8.17409H7.98832C8.13424 8.17409 8.25253 8.05579 8.25253 7.90987V6.77373C8.25253 6.62781 8.13424 6.50952 7.98832 6.50952H6.81988ZM11.971 9.83312H10.8025C10.2612 9.83312 9.82238 10.272 9.82238 10.8133V11.9494C9.82238 12.4908 10.2612 12.9296 10.8025 12.9296H11.971C12.5123 12.9296 12.9511 12.4908 12.9511 11.9494V10.8133C12.9511 10.272 12.5123 9.83312 11.971 9.83312ZM10.5383 10.8133C10.5383 10.6674 10.6566 10.5491 10.8025 10.5491H11.971C12.1169 10.5491 12.2352 10.6674 12.2352 10.8133V11.9494C12.2352 12.0953 12.1169 12.2136 11.971 12.2136H10.8025C10.6566 12.2136 10.5383 12.0953 10.5383 11.9494V10.8133Z" fill="#3E7BFA"/>
</svg>
