<svg width="20" height="20" viewBox="0 0 20 20" fill="none" xmlns="http://www.w3.org/2000/svg">
<g clip-path="url(#clip0_581_11824)">
<path d="M2.27527 7.58436C2.73996 7.55483 3.31562 7.1341 3.65424 6.57596L3.7351 6.44298C4.29425 5.52172 5.2937 4.95917 6.37219 4.95917H10.5034C11.3848 4.95917 12.2233 5.3359 12.8088 5.99464L13.2152 6.45137C14.2397 7.60377 14.7829 8.01831 15.5598 8.11556L17.2735 8.26248C18.2795 8.3873 19.0117 9.21687 19.0117 10.2011V11.5167C19.0117 12.5938 18.1385 13.4675 17.061 13.4675H16.5589C16.2404 14.3687 15.3815 15.0143 14.371 15.0143C13.3605 15.0143 12.5016 14.3687 12.1831 13.4675H6.50362C6.18509 14.3687 5.32622 15.0143 4.31571 15.0143C3.29843 15.0143 2.43499 14.3599 2.12163 13.4492C1.1754 13.3259 0.448143 12.5774 0.448143 11.5918V9.53121C0.448143 8.50012 1.25063 7.64879 2.27527 7.58436ZM14.371 13.4673C14.7979 13.4673 15.1435 13.1222 15.1444 12.6955C15.1444 12.695 15.1443 12.6945 15.1443 12.694C15.1443 12.2665 14.7984 11.9205 14.3708 11.9205C14.0359 11.9205 13.7514 12.1339 13.6439 12.4319C13.6144 12.5138 13.5975 12.6017 13.5975 12.6938C13.5975 13.1214 13.9434 13.4673 14.371 13.4673ZM4.31571 13.4673C4.74267 13.4673 5.08824 13.1222 5.08911 12.6955C5.08911 12.695 5.08904 12.6945 5.08904 12.694C5.08904 12.2665 4.74308 11.9205 4.31555 11.9205C3.98063 11.9205 3.69613 12.1339 3.5886 12.4319C3.5591 12.5138 3.54222 12.6017 3.54222 12.6938C3.54222 13.1214 3.88818 13.4673 4.31571 13.4673ZM1.99511 11.5918C1.99511 11.7077 2.04983 11.8035 2.14905 11.8612C2.15585 11.8435 2.16321 11.8261 2.17043 11.8086C2.1736 11.8009 2.17658 11.7932 2.17983 11.7855C2.19286 11.7549 2.20657 11.7246 2.22088 11.6947C2.22549 11.6851 2.23044 11.6755 2.2352 11.666C2.24543 11.6453 2.25589 11.6247 2.2667 11.6044C2.273 11.5926 2.27942 11.5809 2.28592 11.5692C2.29619 11.5506 2.30676 11.5323 2.31753 11.5142C2.32418 11.5029 2.33071 11.4916 2.33755 11.4805C2.35356 11.4545 2.36995 11.4288 2.38695 11.4034C2.39405 11.3929 2.40149 11.3825 2.40874 11.372C2.42097 11.3544 2.43329 11.3369 2.44598 11.3197C2.455 11.3074 2.46426 11.2953 2.47351 11.2833C2.48458 11.2689 2.49579 11.2546 2.5072 11.2404C2.51702 11.2282 2.52684 11.216 2.53688 11.204C2.54927 11.1893 2.56196 11.1748 2.57473 11.1604C2.58942 11.1437 2.60426 11.1272 2.61941 11.111C2.63425 11.0951 2.64917 11.0793 2.66446 11.0638C2.67602 11.0521 2.68792 11.0407 2.69974 11.0292C2.71164 11.0176 2.72361 11.0062 2.73577 10.9948C2.74819 10.9833 2.76073 10.9718 2.77339 10.9605C2.78574 10.9495 2.79827 10.9387 2.81085 10.928C2.8235 10.9172 2.836 10.9063 2.84888 10.8958C2.87173 10.8772 2.89492 10.8589 2.91849 10.8411C2.93186 10.8311 2.94553 10.8214 2.95913 10.8116C2.97238 10.802 2.98568 10.7925 2.99916 10.7831C3.0134 10.7733 3.02783 10.7637 3.04229 10.7542C3.05574 10.7453 3.06933 10.7367 3.08297 10.7281C3.09747 10.719 3.1119 10.7099 3.12663 10.7011C3.1429 10.6913 3.15945 10.682 3.17599 10.6727C3.19865 10.6599 3.2215 10.6475 3.24461 10.6355C3.26074 10.627 3.27683 10.6186 3.29318 10.6106C3.30821 10.6032 3.3234 10.5961 3.33862 10.5891C3.35406 10.5819 3.36962 10.5748 3.38526 10.568C3.40052 10.5613 3.41578 10.5547 3.43118 10.5483C3.44856 10.5412 3.46608 10.5344 3.48368 10.5276C3.50068 10.5211 3.51764 10.5146 3.53478 10.5085C3.56073 10.4992 3.58686 10.4903 3.61319 10.4819C3.62784 10.4773 3.64268 10.4731 3.65745 10.4687C3.67562 10.4633 3.69382 10.4581 3.71218 10.4532C3.72755 10.449 3.74292 10.445 3.7584 10.4412C3.77748 10.4365 3.7967 10.4322 3.81596 10.4279C3.83039 10.4248 3.84478 10.4214 3.85932 10.4185C3.89078 10.4123 3.92247 10.4066 3.95442 10.4016C3.96764 10.3995 3.98101 10.3979 3.9943 10.3961C4.01572 10.3931 4.03717 10.3903 4.05877 10.3879C4.07414 10.3862 4.08955 10.3848 4.105 10.3834C4.12539 10.3815 4.14586 10.38 4.16637 10.3787C4.18159 10.3777 4.19681 10.3767 4.21211 10.376C4.23779 10.3749 4.26362 10.3743 4.28953 10.374C4.29833 10.3739 4.30702 10.3734 4.31586 10.3734C4.32575 10.3734 4.3355 10.374 4.34535 10.3741C4.37032 10.3744 4.39521 10.3749 4.41994 10.376C4.43615 10.3767 4.4522 10.3779 4.46829 10.3789C4.48785 10.3802 4.50741 10.3816 4.52686 10.3834C4.54348 10.3849 4.56002 10.3865 4.57649 10.3883C4.59587 10.3905 4.61513 10.393 4.63439 10.3957C4.6501 10.3978 4.66589 10.3998 4.68149 10.4023C4.71057 10.4069 4.73942 10.4121 4.76812 10.4177C4.78557 10.4212 4.80283 10.4251 4.82013 10.4289C4.83932 10.4332 4.8585 10.4374 4.8775 10.4422C4.89382 10.4462 4.90994 10.4506 4.92611 10.455C4.94325 10.4597 4.96036 10.4645 4.97736 10.4695C4.9936 10.4744 5.0098 10.4793 5.02589 10.4844C5.04319 10.4899 5.06033 10.4959 5.07744 10.5018C5.09259 10.5071 5.10784 10.5122 5.12284 10.5177C5.15184 10.5285 5.18055 10.5398 5.20895 10.5517C5.22425 10.558 5.23924 10.5649 5.25438 10.5716C5.27017 10.5786 5.28592 10.5856 5.30148 10.5929C5.31715 10.6003 5.33268 10.6079 5.34816 10.6156C5.36297 10.6229 5.3777 10.6305 5.39231 10.6382C5.40757 10.6462 5.42286 10.6542 5.43793 10.6625C5.45319 10.671 5.46822 10.6798 5.48329 10.6886C5.50667 10.7022 5.52975 10.7162 5.5526 10.7306C5.56884 10.7409 5.58511 10.7511 5.60109 10.7617C5.61552 10.7714 5.62964 10.7813 5.64384 10.7913C5.65702 10.8005 5.67021 10.8097 5.68316 10.8192C5.69736 10.8296 5.71141 10.8401 5.72535 10.8508C5.73807 10.8606 5.75061 10.8705 5.76311 10.8805C5.77667 10.8913 5.79031 10.9021 5.80364 10.9133C5.81727 10.9247 5.8306 10.9365 5.84398 10.9482C5.86543 10.967 5.88654 10.9862 5.90727 11.0058C5.91955 11.0173 5.93186 11.0288 5.94387 11.0407C5.95633 11.0529 5.96849 11.0655 5.98069 11.0781C5.99172 11.0894 6.00271 11.1009 6.01351 11.1125C6.02552 11.1254 6.03742 11.1383 6.04913 11.1515C6.05978 11.1635 6.0702 11.1757 6.08063 11.1878C6.09188 11.201 6.10321 11.214 6.11416 11.2274C6.12923 11.2459 6.14381 11.2647 6.15831 11.2836C6.17225 11.3018 6.18585 11.3203 6.19926 11.3389C6.20892 11.3523 6.21863 11.3657 6.228 11.3794C6.23789 11.3938 6.24752 11.4083 6.25712 11.423C6.26595 11.4364 6.27464 11.45 6.28321 11.4637C6.29247 11.4784 6.30168 11.4932 6.31059 11.5082C6.31924 11.5228 6.32755 11.5375 6.3359 11.5523C6.34598 11.5701 6.35603 11.588 6.36566 11.6061C6.37809 11.6294 6.39025 11.653 6.40188 11.6768C6.40921 11.6918 6.41608 11.7071 6.42311 11.7223C6.43028 11.7378 6.43742 11.7533 6.44425 11.7691C6.45113 11.7848 6.45774 11.8007 6.46423 11.8166C6.47069 11.8324 6.47692 11.8483 6.483 11.8643C6.48905 11.8801 6.49517 11.8959 6.50087 11.9119C6.50189 11.9148 6.50306 11.9176 6.50408 11.9205H12.1825C12.1842 11.9156 12.1861 11.9108 12.1879 11.906C12.1916 11.8958 12.1955 11.8857 12.1993 11.8755C12.2078 11.8532 12.2165 11.831 12.2255 11.809C12.2302 11.7976 12.2349 11.7863 12.2398 11.775C12.2493 11.7532 12.2591 11.7316 12.2692 11.7101C12.2738 11.7002 12.2782 11.6902 12.283 11.6804C12.2974 11.6508 12.3123 11.6216 12.3279 11.5927C12.3331 11.5831 12.3386 11.5738 12.3439 11.5643C12.355 11.5444 12.3663 11.5246 12.378 11.505C12.3854 11.4926 12.393 11.4804 12.4007 11.4681C12.411 11.4516 12.4214 11.4352 12.4322 11.419C12.4404 11.4065 12.4487 11.394 12.4572 11.3816C12.4685 11.3651 12.4802 11.3488 12.492 11.3326C12.5001 11.3215 12.5079 11.3102 12.5162 11.2992C12.5348 11.2745 12.5539 11.2503 12.5734 11.2264C12.5834 11.2142 12.5937 11.2023 12.6039 11.1903C12.6153 11.177 12.6267 11.1636 12.6384 11.1506C12.6496 11.138 12.661 11.1256 12.6724 11.1133C12.6838 11.1011 12.6953 11.0892 12.7068 11.0772C12.7187 11.065 12.7305 11.0528 12.7426 11.0409C12.7549 11.0287 12.7676 11.0169 12.7802 11.005C12.8007 10.9857 12.8216 10.9667 12.8428 10.9481C12.8562 10.9364 12.8694 10.9247 12.883 10.9133C12.8964 10.902 12.9102 10.8911 12.924 10.8802C12.9363 10.8703 12.9486 10.8606 12.961 10.851C12.9752 10.8402 12.9895 10.8295 13.0039 10.819C13.0166 10.8097 13.0294 10.8007 13.0423 10.7917C13.0567 10.7816 13.0712 10.7714 13.0859 10.7616C13.1009 10.7516 13.1163 10.742 13.1316 10.7323C13.1556 10.717 13.18 10.7022 13.2047 10.6878C13.2193 10.6794 13.2338 10.6709 13.2485 10.6627C13.2638 10.6542 13.2793 10.6461 13.2948 10.638C13.3092 10.6304 13.3237 10.623 13.3383 10.6157C13.3539 10.6079 13.3695 10.6002 13.3853 10.5928C13.4008 10.5855 13.4165 10.5786 13.4323 10.5716C13.4474 10.5649 13.4624 10.558 13.4777 10.5516C13.5062 10.5397 13.535 10.5284 13.564 10.5176C13.5787 10.5122 13.5936 10.5072 13.6084 10.5021C13.626 10.496 13.6435 10.4899 13.6612 10.4842C13.677 10.4792 13.6929 10.4744 13.7088 10.4697C13.7262 10.4645 13.7437 10.4595 13.7614 10.4547C13.7771 10.4505 13.7928 10.4462 13.8087 10.4422C13.8287 10.4373 13.8489 10.4328 13.8691 10.4283C13.8829 10.4252 13.8967 10.4219 13.9107 10.4191C13.9421 10.4127 13.9738 10.4072 14.0058 10.4021C14.0207 10.3998 14.0357 10.3979 14.0507 10.3958C14.0708 10.393 14.0908 10.3904 14.1109 10.3882C14.1269 10.3864 14.1429 10.3848 14.159 10.3834C14.1791 10.3816 14.1992 10.3801 14.2194 10.3788C14.235 10.3778 14.2506 10.3767 14.2664 10.376C14.2916 10.3748 14.317 10.3743 14.3425 10.374C14.352 10.3739 14.3614 10.3733 14.3709 10.3733C14.3808 10.3733 14.3906 10.3739 14.4004 10.3741C14.4254 10.3744 14.4503 10.3749 14.475 10.376C14.4912 10.3767 14.5073 10.3778 14.5234 10.3789C14.543 10.3802 14.5625 10.3816 14.5819 10.3833C14.5986 10.3848 14.6151 10.3865 14.6316 10.3883C14.651 10.3905 14.6702 10.393 14.6894 10.3957C14.7052 10.3978 14.7209 10.3998 14.7366 10.4023C14.7656 10.4069 14.7944 10.4121 14.823 10.4177C14.8405 10.4212 14.8578 10.4251 14.8752 10.4289C14.8944 10.4332 14.9135 10.4374 14.9325 10.4422C14.9489 10.4462 14.965 10.4506 14.9812 10.455C14.9983 10.4597 15.0154 10.4645 15.0324 10.4695C15.0486 10.4744 15.0648 10.4793 15.081 10.4844C15.0983 10.49 15.1153 10.4959 15.1324 10.5018C15.1476 10.5071 15.1629 10.5122 15.178 10.5177C15.2069 10.5285 15.2356 10.5398 15.264 10.5517C15.2794 10.558 15.2944 10.565 15.3095 10.5716C15.3253 10.5786 15.341 10.5856 15.3566 10.5929C15.3723 10.6002 15.3878 10.6079 15.4034 10.6156C15.4181 10.623 15.4328 10.6305 15.4474 10.6381C15.4627 10.6462 15.478 10.6542 15.4931 10.6625C15.5083 10.671 15.5233 10.6798 15.5383 10.6885C15.5618 10.7022 15.585 10.7163 15.6079 10.7308C15.6241 10.741 15.6403 10.7511 15.6562 10.7617C15.6706 10.7714 15.6847 10.7814 15.6989 10.7913C15.7121 10.8005 15.7253 10.8097 15.7382 10.8192C15.7524 10.8296 15.7665 10.8401 15.7805 10.8508C15.7932 10.8606 15.8057 10.8705 15.8182 10.8805C15.8318 10.8913 15.8454 10.9021 15.8588 10.9133C15.8724 10.9247 15.8856 10.9364 15.8989 10.9481C15.9205 10.967 15.9416 10.9862 15.9624 11.0059C15.9747 11.0174 15.9869 11.0289 15.9989 11.0406C16.0114 11.0529 16.0236 11.0655 16.0358 11.0781C16.0468 11.0895 16.0578 11.1009 16.0686 11.1125C16.0806 11.1253 16.0925 11.1383 16.1042 11.1515C16.1149 11.1635 16.1253 11.1757 16.1357 11.1879C16.1469 11.201 16.1583 11.2141 16.1692 11.2274C16.1843 11.246 16.199 11.2649 16.2136 11.2839C16.2274 11.3021 16.241 11.3204 16.2543 11.339C16.264 11.3524 16.2737 11.3658 16.283 11.3794C16.2929 11.3938 16.3026 11.4084 16.3122 11.423C16.321 11.4365 16.3297 11.45 16.3383 11.4637C16.3475 11.4785 16.3567 11.4933 16.3656 11.5083C16.3743 11.5228 16.3826 11.5376 16.3909 11.5523C16.4011 11.5702 16.4111 11.5881 16.4208 11.6063C16.4332 11.6296 16.4453 11.653 16.4569 11.6768C16.4643 11.6919 16.4712 11.7072 16.4782 11.7224C16.4853 11.7379 16.4925 11.7534 16.4993 11.7691C16.5062 11.7848 16.5128 11.8007 16.5193 11.8167C16.5257 11.8325 16.532 11.8484 16.538 11.8643C16.5441 11.8802 16.5502 11.896 16.5559 11.9119C16.5569 11.9148 16.5581 11.9176 16.5591 11.9205H17.061C17.284 11.9205 17.4648 11.7396 17.4648 11.5167V10.2011C17.4648 9.99708 17.3136 9.82584 17.1115 9.80065L15.3974 9.65369C14.0978 9.49163 13.321 8.89868 12.0594 7.47948L11.6528 7.02268C11.3605 6.6938 10.9428 6.50613 10.5034 6.50613H6.37223C5.83434 6.50613 5.33626 6.78648 5.0572 7.24623L4.97638 7.37909C4.39657 8.33473 3.40018 9.06297 2.37282 9.12823C2.16147 9.14152 1.99507 9.31805 1.99507 9.53121V11.5918H1.99511Z" fill="#232323"/>
</g>
<defs>
<clipPath id="clip0_581_11824">
<rect width="18.5636" height="18.5636" fill="white" transform="matrix(-1 0 0 1 19.0117 0.705078)"/>
</clipPath>
</defs>
</svg>
