<svg width="16" height="17" viewBox="0 0 16 17" fill="none" xmlns="http://www.w3.org/2000/svg">
<path fill-rule="evenodd" clip-rule="evenodd" d="M5.12568 8.6115C7.42004 8.60598 9.28027 6.73839 9.27521 4.44541C9.27015 2.13863 7.40394 0.279316 5.10222 0.287134C2.80694 0.294952 0.952687 2.16254 0.960965 4.4592C0.969243 6.75678 2.83499 8.61747 5.12568 8.6115ZM5.44989 6.91406C5.45081 7.28611 5.44392 7.29301 5.07417 7.29163H4.91413C4.78352 7.29209 4.71868 7.23138 4.71178 7.09664C4.70994 7.05968 4.71031 7.02029 4.71069 6.98049C4.71181 6.86083 4.71296 6.73751 4.65429 6.66573C4.60684 6.60746 4.50762 6.59333 4.40618 6.57888C4.35228 6.5712 4.29776 6.56344 4.25006 6.54892C4.0914 6.50063 3.93504 6.44314 3.77959 6.3852C3.65773 6.34013 3.62231 6.24723 3.65589 6.12582C3.68141 6.03337 3.70781 5.94109 3.73422 5.84877C3.75063 5.79139 3.76706 5.73398 3.78327 5.67652C3.81868 5.54959 3.88353 5.53119 4.01184 5.57396C4.29512 5.6687 4.58301 5.75654 4.8755 5.81126C5.00886 5.8361 5.16752 5.7993 5.29859 5.74918C5.63477 5.62041 5.68535 5.24928 5.39655 5.03636C5.30411 4.96819 5.19821 4.91806 5.09258 4.86806C5.05212 4.8489 5.01169 4.82976 4.97207 4.80963C4.88322 4.76447 4.79171 4.72304 4.70024 4.68164C4.50671 4.59403 4.31336 4.50651 4.14566 4.38378C3.45262 3.87607 3.5331 2.87306 4.28225 2.44859C4.36595 2.40076 4.45333 2.35155 4.5453 2.32856C4.72696 2.28303 4.77386 2.16944 4.77248 1.99652C4.77215 1.94856 4.77084 1.90624 4.76968 1.86893C4.76134 1.60001 4.76105 1.59077 5.19236 1.59642C5.45357 1.6001 5.47703 1.6254 5.48209 1.88293C5.48236 1.89906 5.48288 1.91524 5.48341 1.93142C5.48463 1.9692 5.48586 2.007 5.48392 2.04435C5.47795 2.15472 5.52669 2.20577 5.63707 2.22968C5.82097 2.2697 6.0025 2.32232 6.1835 2.37479C6.19804 2.37901 6.21257 2.38322 6.2271 2.38742C6.38024 2.43157 6.42945 2.53137 6.37702 2.68451C6.35407 2.75152 6.33414 2.81943 6.31421 2.88738C6.29939 2.93789 6.28457 2.98842 6.26849 3.03862C6.20272 3.24465 6.17881 3.25569 5.9852 3.17107C5.69363 3.04368 5.39149 2.98481 5.07371 3.02206C4.86492 3.0469 4.7173 3.15451 4.68741 3.31041C4.65016 3.50678 4.76237 3.63279 4.91597 3.71511C5.01838 3.77013 5.12499 3.8175 5.23165 3.86489C5.33092 3.909 5.43024 3.95313 5.52623 4.00346C5.57258 4.02766 5.61981 4.05122 5.66719 4.07485C5.84214 4.16212 6.01911 4.25039 6.16133 4.37596C6.88887 5.01888 6.65341 6.1502 5.73548 6.48867C5.44805 6.5949 5.44805 6.5949 5.44989 6.89797V6.91406ZM4.05079 16.3697C4.05676 16.5849 4.12989 16.7302 4.32488 16.8148H6.68132C6.88137 16.7224 6.96277 16.567 6.9453 16.348C6.93797 16.256 6.93991 16.1634 6.94179 16.0731C6.94263 16.033 6.94346 15.9933 6.94346 15.9544H8.67722C8.67722 15.9953 8.67806 16.0364 8.67891 16.0775C8.68079 16.1685 8.68266 16.2596 8.67538 16.3499C8.65744 16.5697 8.74022 16.7242 8.94165 16.8148H11.3307C11.5257 16.7049 11.5961 16.5343 11.5763 16.3177C11.5737 16.2906 11.5745 16.2634 11.5752 16.2361C11.5758 16.2149 11.5764 16.1936 11.5754 16.1724C11.5391 15.4241 11.8412 14.8313 12.3968 14.3457C13.0208 13.7998 13.5037 13.1473 13.8247 12.3797C13.8454 12.3303 13.8606 12.2738 13.8757 12.2177C13.9058 12.1057 13.9356 11.9951 14.0082 11.9451C14.0873 11.8909 14.2078 11.8974 14.3289 11.9039C14.3846 11.9069 14.4404 11.9098 14.4925 11.9069C14.8332 11.8876 15.1064 11.6227 15.1115 11.2815C15.1202 10.7168 15.1211 10.152 15.111 9.58729C15.105 9.24606 14.8323 8.98208 14.4911 8.96323C14.3568 8.95587 14.222 8.95495 14.0878 8.96185C13.9967 8.96691 13.9539 8.93334 13.924 8.84872C13.5961 7.91745 13.0319 7.15221 12.2845 6.51481C12.2828 6.5133 12.281 6.51178 12.2792 6.51024C12.2371 6.47407 12.1832 6.42779 12.1788 6.38236C12.1728 6.32103 12.1651 6.25918 12.1574 6.19719C12.1323 5.99654 12.1071 5.79433 12.1401 5.60286C12.1843 5.34818 12.2979 5.10233 12.4088 4.86251C12.4192 4.8399 12.4296 4.81734 12.44 4.79484C12.515 4.63066 12.5559 4.48258 12.4519 4.32438C12.3466 4.16388 12.1903 4.12985 12.0128 4.16066C11.9836 4.16573 11.9543 4.17048 11.925 4.17523C11.8321 4.19031 11.7392 4.20539 11.649 4.23056C10.8074 4.4674 10.1769 4.88636 9.9258 5.8167C9.19643 8.51852 6.31112 10.0665 3.63919 9.23594C3.07445 9.06026 2.55892 8.79031 2.07926 8.43344C2.07245 8.44676 2.06593 8.45913 2.05973 8.4709C2.04665 8.4957 2.03498 8.51783 2.025 8.5406C1.64191 9.42817 1.51912 10.3516 1.69756 11.3008C1.91876 12.4758 2.46235 13.4945 3.26852 14.3742C3.78635 14.939 4.03101 15.6132 4.05079 16.3697ZM11.1877 8.54428C11.1817 8.24121 11.4172 7.99885 11.7198 7.99655C12.0247 7.99425 12.2657 8.22925 12.2666 8.53048C12.268 8.83216 12.0289 9.07084 11.7253 9.07084C11.4287 9.07038 11.1937 8.84044 11.1877 8.54428Z" fill="#3E7BFA"/>
</svg>
