<svg width="13" height="10" viewBox="0 0 13 10" fill="none" xmlns="http://www.w3.org/2000/svg">
<path fill-rule="evenodd" clip-rule="evenodd" d="M6.79022 7.28282H6.79095H6.79168C8.53055 7.28282 10.2728 7.28282 12.0151 7.28622C12.1136 7.28622 12.1509 7.26584 12.1679 7.16054C12.2184 6.81751 12.2724 6.47569 12.3265 6.13364C12.3634 5.89989 12.4004 5.66603 12.4363 5.43162C12.4886 5.0868 12.5417 4.7424 12.5948 4.39827C12.6934 3.75932 12.7919 3.12131 12.8846 2.48329C12.8982 2.38479 12.8744 2.2659 12.8269 2.18098C12.708 1.9602 12.4363 1.92963 12.2121 2.09946L12.2118 2.09969C11.4816 2.64648 10.7514 3.19328 10.0246 3.74007C9.65097 4.0186 9.34527 3.96764 9.08372 3.57703C8.89348 3.29059 8.70153 3.00519 8.5096 2.71983C8.0984 2.10845 7.68735 1.49729 7.29366 0.876653C7.03212 0.465653 6.55998 0.455463 6.28824 0.883446C5.89529 1.50524 5.48503 2.11444 5.0746 2.72391C4.88191 3.01005 4.68918 3.29624 4.49818 3.58382C4.24343 3.96765 3.93093 4.0186 3.56409 3.74346C2.8338 3.1932 2.10012 2.64293 1.36983 2.09607C1.19999 1.97039 1.02336 1.9568 0.87391 2.0587C0.710869 2.1674 0.673505 2.32364 0.704075 2.51386C0.791147 3.05122 0.872754 3.5904 0.954231 4.12874C0.983999 4.32542 1.01375 4.52199 1.04374 4.71831C1.0522 4.77271 1.06066 4.82708 1.06911 4.88144C1.1863 5.63507 1.3031 6.38614 1.41398 7.14016C1.43097 7.25904 1.47512 7.28622 1.59061 7.28622C3.32608 7.28282 5.05815 7.28282 6.79022 7.28282ZM12.1497 9.23055V8.18097H1.4331V8.32703V9.29169C1.4331 9.73666 1.65049 9.95405 2.09545 9.95405H11.4873H11.5892C11.8711 9.94726 12.0919 9.76044 12.1361 9.48191C12.1463 9.40039 12.1497 9.31547 12.1497 9.23055Z" fill="#F9690E"/>
</svg>
