<svg width="12" height="10" viewBox="0 0 12 10" fill="none" xmlns="http://www.w3.org/2000/svg">
<path fill-rule="evenodd" clip-rule="evenodd" d="M3.94808 2.05487C3.94808 0.965097 4.83465 0.0785217 5.9244 0.0785217C7.01415 0.0785217 7.90072 0.965119 7.90072 2.05487C7.90072 2.79403 7.49277 3.43963 6.89024 3.77858C6.60446 3.93933 6.27499 4.0312 5.9244 4.0312C5.57381 4.0312 5.24434 3.93933 4.95856 3.77858C4.35605 3.43963 3.94808 2.79406 3.94808 2.05487ZM6.93429 4.43673H4.92159C4.01545 4.43673 3.27825 5.17394 3.27825 6.08008V9.40746C3.27825 9.58896 3.42539 9.73613 3.60692 9.73613H8.24897C8.43049 9.73613 8.57763 9.58898 8.57763 9.40746V6.08008C8.57763 5.17394 7.84043 4.43673 6.93429 4.43673ZM9.09254 5.29247H9.97292C10.8791 5.29247 11.6163 6.02968 11.6162 6.93579V8.7497C11.6162 9.29338 11.1739 9.73571 10.6302 9.73571H9.17476C9.21124 9.63285 9.2313 9.52226 9.2313 9.40704V6.07966C9.2313 5.80331 9.18227 5.53816 9.09254 5.29247ZM2.75769 5.29361C2.66795 5.5393 2.61892 5.80442 2.61892 6.0808V9.40818C2.61892 9.5234 2.63898 9.63397 2.67547 9.73687H1.21996C0.676257 9.73687 0.233948 9.29454 0.233948 8.75086V6.93696C0.233948 6.03081 0.971152 5.29361 1.87729 5.29361H2.75769ZM2.45859 1.92009C1.64359 1.92009 0.980555 2.58312 0.980555 3.39813C0.980555 4.21313 1.64359 4.87616 2.45859 4.87616C2.66532 4.87616 2.86219 4.83334 3.04102 4.75636C3.35021 4.62324 3.60515 4.3876 3.7629 4.09244C3.87363 3.88528 3.93662 3.64895 3.93662 3.39813C3.93662 2.58315 3.27359 1.92009 2.45859 1.92009ZM7.92034 3.39824C7.92034 2.58324 8.58337 1.92021 9.39837 1.92021C10.2134 1.92021 10.8764 2.58324 10.8764 3.39824C10.8764 4.21324 10.2134 4.87627 9.39837 4.87627C9.19163 4.87627 8.99477 4.83345 8.81594 4.75647C8.50675 4.62338 8.25181 4.38774 8.09405 4.09255C7.98333 3.88542 7.92034 3.64909 7.92034 3.39824Z" fill="#444D56" fill-opacity="0.7"/>
</svg>
