<svg width="17" height="14" viewBox="0 0 17 14" fill="none" xmlns="http://www.w3.org/2000/svg">
<path d="M16.2164 1.52028C15.6082 1.82434 15.0001 1.92569 14.2907 2.02704C15.0001 1.62164 15.5069 1.01352 15.7096 0.202704C15.1015 0.608113 14.392 0.810818 13.5812 1.01352C12.9731 0.405409 12.0609 0 11.1487 0C9.02035 0 7.39871 2.02704 7.90547 4.05409C5.16896 3.95274 2.73651 2.63516 1.01352 0.608114C0.101352 2.1284 0.608113 4.05409 2.02704 5.06761C1.52028 5.06761 1.01352 4.86491 0.506761 4.6622C0.506761 6.18249 1.62164 7.60142 3.14192 8.00682C2.63516 8.10818 2.1284 8.20953 1.62164 8.10818C2.02704 9.42576 3.24327 10.4393 4.76355 10.4393C3.54733 11.3514 1.72299 11.8582 0 11.6555C1.52028 12.5677 3.24327 13.1758 5.06761 13.1758C11.2501 13.1758 14.6961 8.00682 14.4934 3.24327C15.2028 2.83786 15.8109 2.22975 16.2164 1.52028Z" fill="white"/>
</svg>
