<svg width="17" height="17" viewBox="0 0 17 17" fill="none" xmlns="http://www.w3.org/2000/svg">
<path d="M3.64869 16.2164H0.202701V5.37167H3.64869V16.2164ZM1.92569 3.85138C0.810819 3.85138 0 3.04057 0 1.92569C0 0.810817 0.912171 0 1.92569 0C3.04057 0 3.85139 0.810817 3.85139 1.92569C3.85139 3.04057 3.04057 3.85138 1.92569 3.85138ZM16.2164 16.2164H12.7704V10.3379C12.7704 8.61494 12.0609 8.10818 11.0474 8.10818C10.0339 8.10818 9.02034 8.91899 9.02034 10.4393V16.2164H5.57437V5.37167H8.81764V6.89195C9.1217 6.18248 10.3379 5.06761 12.0609 5.06761C13.9866 5.06761 16.0137 6.18248 16.0137 9.52711V16.2164H16.2164Z" fill="white"/>
</svg>
