<svg width="17" height="17" viewBox="0 0 17 17" fill="none" xmlns="http://www.w3.org/2000/svg">
<path d="M8.41223 1.52028C10.642 1.52028 10.946 1.52028 11.8582 1.52028C12.669 1.52028 13.0744 1.72299 13.3785 1.82434C13.7839 2.02704 14.088 2.1284 14.392 2.43245C14.6961 2.73651 14.8988 3.04057 15.0001 3.44598C15.1015 3.75003 15.2028 4.15544 15.3042 4.96626C15.3042 5.87843 15.3042 6.08113 15.3042 8.41223C15.3042 10.7433 15.3042 10.946 15.3042 11.8582C15.3042 12.669 15.1015 13.0744 15.0001 13.3785C14.7974 13.7839 14.6961 14.088 14.392 14.392C14.088 14.6961 13.7839 14.8988 13.3785 15.0001C13.0744 15.1015 12.669 15.2028 11.8582 15.3042C10.946 15.3042 10.7433 15.3042 8.41223 15.3042C6.08113 15.3042 5.87843 15.3042 4.96626 15.3042C4.15544 15.3042 3.75003 15.1015 3.44598 15.0001C3.04057 14.7974 2.73651 14.6961 2.43245 14.392C2.1284 14.088 1.92569 13.7839 1.82434 13.3785C1.72299 13.0744 1.62164 12.669 1.52028 11.8582C1.52028 10.946 1.52028 10.7433 1.52028 8.41223C1.52028 6.08113 1.52028 5.87843 1.52028 4.96626C1.52028 4.15544 1.72299 3.75003 1.82434 3.44598C2.02704 3.04057 2.1284 2.73651 2.43245 2.43245C2.73651 2.1284 3.04057 1.92569 3.44598 1.82434C3.75003 1.72299 4.15544 1.62164 4.96626 1.52028C5.87843 1.52028 6.18249 1.52028 8.41223 1.52028ZM8.41223 0C6.08113 0 5.87843 0 4.96626 0C4.05409 0 3.44598 0.202705 2.93921 0.405409C2.43245 0.608114 1.92569 0.912171 1.41893 1.41893C0.912171 1.92569 0.709466 2.3311 0.405409 2.93921C0.202705 3.44598 0.101352 4.05409 0 4.96626C0 5.87843 0 6.18249 0 8.41223C0 10.7433 0 10.946 0 11.8582C0 12.7704 0.202705 13.3785 0.405409 13.8853C0.608114 14.392 0.912171 14.8988 1.41893 15.4055C1.92569 15.9123 2.3311 16.115 2.93921 16.4191C3.44598 16.6218 4.05409 16.7231 4.96626 16.8245C5.87843 16.8245 6.18249 16.8245 8.41223 16.8245C10.642 16.8245 10.946 16.8245 11.8582 16.8245C12.7704 16.8245 13.3785 16.6218 13.8853 16.4191C14.392 16.2164 14.8988 15.9123 15.4055 15.4055C15.9123 14.8988 16.115 14.4934 16.4191 13.8853C16.6218 13.3785 16.7231 12.7704 16.8245 11.8582C16.8245 10.946 16.8245 10.642 16.8245 8.41223C16.8245 6.18249 16.8245 5.87843 16.8245 4.96626C16.8245 4.05409 16.6218 3.44598 16.4191 2.93921C16.2164 2.43245 15.9123 1.92569 15.4055 1.41893C14.8988 0.912171 14.4934 0.709466 13.8853 0.405409C13.3785 0.202705 12.7704 0.101352 11.8582 0C10.946 0 10.7433 0 8.41223 0Z" fill="white"/>
<path d="M8.41223 4.05409C5.97978 4.05409 4.05409 5.97978 4.05409 8.41223C4.05409 10.8447 5.97978 12.7704 8.41223 12.7704C10.8447 12.7704 12.7704 10.8447 12.7704 8.41223C12.7704 5.97978 10.8447 4.05409 8.41223 4.05409ZM8.41223 11.2501C6.89195 11.2501 5.57437 10.0339 5.57437 8.41223C5.57437 6.89195 6.7906 5.57437 8.41223 5.57437C9.93252 5.57437 11.2501 6.7906 11.2501 8.41223C11.2501 9.93252 9.93252 11.2501 8.41223 11.2501Z" fill="white"/>
<path d="M12.8717 4.96626C13.4315 4.96626 13.8853 4.51249 13.8853 3.95274C13.8853 3.39298 13.4315 2.93921 12.8717 2.93921C12.312 2.93921 11.8582 3.39298 11.8582 3.95274C11.8582 4.51249 12.312 4.96626 12.8717 4.96626Z" fill="white"/>
</svg>
