<svg width="21" height="16" viewBox="0 0 21 16" fill="none" xmlns="http://www.w3.org/2000/svg">
<path d="M20.8931 2.63354C20.878 2.5785 20.858 2.52347 20.843 2.46343C20.803 2.32335 20.768 2.17825 20.6979 2.03817C20.3177 1.26769 19.6673 0.877441 18.7717 0.877441C16.7305 0.877441 14.6842 0.877441 12.6429 0.877441H9.00563H6.99937C5.37336 0.877441 3.74234 0.877441 2.11632 0.877441C0.89556 0.882445 0.00500313 1.74799 0.00500313 2.94373C0 6.06569 0 9.23767 0 12.3046V13.6454C0 14.1207 0.140088 14.546 0.410256 14.9012C0.825516 15.4415 1.40588 15.7117 2.13634 15.7117C5.87867 15.7117 9.62101 15.7117 13.3634 15.7117H18.7667H18.7917C18.8268 15.7117 18.8618 15.7117 18.8968 15.7117C19.6123 15.6767 20.1526 15.3915 20.5028 14.8662C20.6329 14.6711 20.7129 14.4509 20.788 14.2358C20.818 14.1507 20.853 14.0607 20.8831 13.9756L20.8981 13.9356V2.66856L20.8931 2.63354ZM19.247 3.67919V12.895L14.6592 8.33711L19.247 3.67919ZM9.2758 8.94749C7.61976 7.30146 5.94372 5.63542 4.3227 4.01941L2.82677 2.53348H18.0763L16.9956 3.60915C15.3396 5.25518 13.4634 7.12135 11.6373 8.93748C10.9168 9.65293 9.99124 9.65293 9.2758 8.94749ZM7.45466 9.4428L7.55472 9.54286C7.74484 9.73798 7.92996 9.9231 8.11007 10.1082C8.55535 10.5585 9.03064 10.8437 9.56098 10.9888C10.7767 11.314 11.8524 11.0288 12.768 10.1432C12.9631 9.95812 13.1432 9.768 13.3383 9.56287L13.3483 9.55287C13.3834 9.51784 13.4184 9.48282 13.4534 9.4428L17.9562 14.0407H2.94684L7.45466 9.4428ZM6.15885 8.3271L1.66604 12.905V3.76425L6.15885 8.3271Z" fill="#232323"/>
</svg>
