<svg width="13" height="13" viewBox="0 0 13 13" fill="none" xmlns="http://www.w3.org/2000/svg">
<path fill-rule="evenodd" clip-rule="evenodd" d="M0.589355 6.3858C0.589355 3.07858 3.26486 0.403076 6.57208 0.403076C9.87399 0.403076 12.5548 3.07858 12.5548 6.3858C12.5548 9.69302 9.8793 12.3685 6.57208 12.3685C3.26486 12.3685 0.589355 9.69302 0.589355 6.3858ZM9.02994 5.63199C9.02994 5.12237 8.61587 4.7083 8.10625 4.7083C7.59663 4.7083 7.18256 5.12237 7.18256 5.63199C7.18256 6.14161 7.59663 6.55567 8.10625 6.55567C8.61587 6.55567 9.02994 6.14161 9.02994 5.63199ZM6.87467 4.70299C6.87467 4.02881 6.32789 3.47672 5.6484 3.47672C4.97421 3.47672 4.42212 4.02881 4.42212 4.70299C4.42212 5.37718 4.9689 5.92927 5.6484 5.92927C6.32258 5.92927 6.87467 5.38249 6.87467 4.70299ZM9.02463 8.39243C9.02463 8.5623 9.16265 8.70033 9.33252 8.70033C9.5024 8.70033 9.64042 8.5623 9.64042 8.38712C9.64042 7.54306 8.95031 6.85295 8.10625 6.85295C7.76119 6.85295 7.43207 6.96974 7.16664 7.17677C6.77381 6.78925 6.23764 6.55037 5.6484 6.55037C4.46459 6.55037 3.49844 7.51652 3.49844 8.70033C3.49844 8.8702 3.63646 9.00822 3.80633 9.00822C3.9762 9.00822 4.11423 8.8702 4.11423 8.70033C4.11423 7.85627 4.80434 7.16616 5.6484 7.16616C6.49245 7.16616 7.18256 7.85627 7.18256 8.70033C7.18256 8.8702 7.32059 9.00822 7.49046 9.00822C7.66033 9.00822 7.79835 8.8702 7.79835 8.70033C7.79835 8.32873 7.69749 7.97836 7.53293 7.67047C7.69218 7.54306 7.8886 7.46874 8.10094 7.46874C8.61056 7.46874 9.02463 7.88281 9.02463 8.39243ZM6.24947 4.84934C6.32763 4.51836 6.12267 4.1867 5.7917 4.10854C5.46072 4.03039 5.12905 4.23534 5.0509 4.56632C4.97275 4.8973 5.1777 5.22897 5.50868 5.30712C5.83966 5.38527 6.17132 5.18032 6.24947 4.84934ZM8.10591 5.93438C8.27578 5.93438 8.41348 5.79668 8.41348 5.62681C8.41348 5.45695 8.27578 5.31924 8.10591 5.31924C7.93604 5.31924 7.79834 5.45695 7.79834 5.62681C7.79834 5.79668 7.93604 5.93438 8.10591 5.93438Z" fill="#3E7BFA"/>
</svg>
