<svg width="12" height="11" viewBox="0 0 12 11" fill="none" xmlns="http://www.w3.org/2000/svg">
<path fill-rule="evenodd" clip-rule="evenodd" d="M9.05264 4.48351C9.05264 4.1929 8.82711 3.95609 8.54922 3.95609C8.27133 3.95609 8.04579 4.1929 8.04579 4.48351C8.04579 4.77411 8.27133 5.01092 8.54922 5.01092C8.82711 5.01092 9.05264 4.77411 9.05264 4.48351ZM10.0595 4.48352C10.0595 5.35587 9.38187 6.06577 8.5492 6.06577C7.71654 6.06577 7.03893 5.35587 7.03893 4.48352C7.03893 3.61117 7.71654 2.90127 8.5492 2.90127C9.38187 2.90127 10.0595 3.61117 10.0595 4.48352ZM5.52865 2.90127C5.52865 2.31953 5.07707 1.84643 4.5218 1.84643C3.96652 1.84643 3.51495 2.31953 3.51495 2.90127C3.51495 3.48301 3.96652 3.9561 4.5218 3.9561C5.07707 3.9561 5.52865 3.48301 5.52865 2.90127ZM6.53548 2.90126C6.53548 4.06474 5.63234 5.01093 4.52178 5.01093C3.41123 5.01093 2.50808 4.06474 2.50808 2.90126C2.50808 1.73778 3.41123 0.791595 4.52178 0.791595C5.63234 0.791595 6.53548 1.73778 6.53548 2.90126ZM7.0087 7.14484C7.44617 6.79042 7.98484 6.59317 8.54918 6.59317C9.93712 6.59317 11.0663 7.77616 11.0663 9.23025C11.0663 9.52138 10.8413 9.75766 10.5629 9.75766C10.2845 9.75766 10.0595 9.52138 10.0595 9.23025C10.0595 8.3579 9.38184 7.648 8.54918 7.648C8.20534 7.648 7.87861 7.77141 7.61482 7.99029C7.88868 8.5156 8.04575 9.11791 8.04575 9.75766C8.04575 10.0488 7.82072 10.2851 7.54233 10.2851C7.26393 10.2851 7.0389 10.0488 7.0389 9.75766C7.0389 8.30358 5.90972 7.12058 4.52178 7.12058C3.13383 7.12058 2.00465 8.30358 2.00465 9.75766C2.00465 10.0488 1.77962 10.2851 1.50123 10.2851C1.22283 10.2851 0.997803 10.0488 0.997803 9.75766C0.997803 7.72184 2.57906 6.06575 4.52178 6.06575C5.49188 6.06575 6.37086 6.47872 7.0087 7.14484Z" fill="#3E7BFA"/>
</svg>
