<svg width="8" height="10" viewBox="0 0 8 10" xmlns="http://www.w3.org/2000/svg">
<path fill-rule="evenodd" clip-rule="evenodd" d="M0.918701 4.21416C0.918701 2.35295 2.4323 0.839355 4.2935 0.839355C6.15471 0.839355 7.66831 2.35295 7.66831 4.21416C7.66831 6.55346 4.62198 9.62678 4.49262 9.75671C4.4375 9.81127 4.3655 9.83883 4.2935 9.83883C4.22151 9.83883 4.14951 9.81127 4.09439 9.75671C3.96502 9.62678 0.918701 6.55346 0.918701 4.21416ZM5.9803 4.21599C5.9803 5.14776 5.22495 5.9031 4.29319 5.9031C3.36142 5.9031 2.60607 5.14776 2.60607 4.21599C2.60607 3.28423 3.36142 2.52888 4.29319 2.52888C5.22495 2.52888 5.9803 3.28423 5.9803 4.21599Z"/>
</svg>
