<svg width="13" height="13" viewBox="0 0 13 13" fill="none" xmlns="http://www.w3.org/2000/svg">
<path fill-rule="evenodd" clip-rule="evenodd" d="M6.45156 0.576904C3.2452 0.576904 0.645935 3.17617 0.645935 6.38253C0.645935 9.58889 3.2452 12.1882 6.45156 12.1882C9.65792 12.1882 12.2572 9.58889 12.2572 6.38253C12.2572 3.17617 9.65792 0.576904 6.45156 0.576904ZM8.54802 8.60276C8.42584 8.71939 8.30365 8.84158 8.17592 8.97487C8.15051 8.93361 8.12511 8.89239 8.09973 8.8512C7.65364 8.12705 7.21252 7.41098 6.77637 6.67005C6.74304 6.69227 6.72083 6.70893 6.70417 6.72559L5.37126 7.99185C5.33794 8.02517 5.31017 8.08071 5.31017 8.12514C5.29906 8.29916 5.29289 8.47318 5.28672 8.6472C5.28364 8.73421 5.28055 8.82122 5.27685 8.90822C5.27685 8.93478 5.27528 8.95977 5.27381 8.9832C5.27251 9.00385 5.2713 9.02329 5.2713 9.04151L3.72735 7.49756C3.74281 7.49756 3.75947 7.49637 3.77733 7.49509C3.79795 7.49361 3.82017 7.49201 3.84398 7.49201C3.93178 7.48835 4.01897 7.4853 4.10597 7.48225C4.2831 7.47604 4.45938 7.46986 4.63817 7.45869C4.6826 7.45869 4.73258 7.44758 4.76035 7.41981C5.01982 7.15061 5.27741 6.87761 5.53752 6.60194C5.7228 6.40557 5.90936 6.20784 6.09881 6.00915C5.5494 5.66828 4.99999 5.3303 4.44849 4.99104C4.23623 4.86046 4.02365 4.72969 3.81065 4.5985C3.94394 4.46521 4.07723 4.33192 4.21053 4.20418C4.23274 4.18197 4.28828 4.18197 4.3216 4.19307C5.23796 4.42077 6.14876 4.65403 7.05956 4.88728L7.05961 4.88729C7.1207 4.90396 7.16513 4.89285 7.20956 4.84286C7.37617 4.66514 7.54417 4.48742 7.71218 4.3097C7.88018 4.13198 8.04818 3.95426 8.21479 3.77654C8.3703 3.60993 8.56468 3.54884 8.78683 3.60993C9.20892 3.72656 9.3311 4.25416 9.00343 4.56518C8.86181 4.70124 8.71881 4.83591 8.5758 4.97059C8.43279 5.10527 8.28977 5.23995 8.14815 5.37603C8.13597 5.3882 8.1238 5.40059 8.11158 5.41303C8.06249 5.46302 8.01268 5.51372 7.95932 5.55375C7.89267 5.60373 7.89267 5.65927 7.90933 5.73147C8.03572 6.23392 8.16039 6.73808 8.28525 7.24301C8.38535 7.6478 8.48557 8.05308 8.58689 8.45837C8.60356 8.51946 8.59245 8.55833 8.54802 8.60276Z" fill="#3E7BFA"/>
</svg>
