<svg width="0" height="0" class="hidden">
  <symbol xmlns="http://www.w3.org/2000/svg" viewBox="0 0 33 33" id="arrow-circl-left">
    <path fill-rule="evenodd" clip-rule="evenodd" d="M2.41195 16.1841C2.41195 23.7902 8.57795 29.9562 16.1841 29.9562C23.7902 29.9562 29.9562 23.7902 29.9562 16.1841C29.9562 8.57795 23.7902 2.41195 16.1841 2.41195C8.57795 2.41195 2.41195 8.57795 2.41195 16.1841ZM0 16.1841C0 25.1223 7.24586 32.3682 16.1841 32.3682C25.1223 32.3682 32.3682 25.1223 32.3682 16.1841C32.3682 7.24586 25.1223 0 16.1841 0C7.24586 0 0 7.24586 0 16.1841ZM11.0735 17.2856C10.7701 16.9822 10.6177 16.5838 10.6177 16.1855C10.6177 15.7966 10.7624 15.4076 11.0549 15.1042L17.0637 8.88067C17.6596 8.26298 18.646 8.24587 19.2637 8.84333C19.8814 9.44078 19.8985 10.4225 19.3026 11.0433L14.3549 16.1669L19.4971 21.3091C20.1054 21.9174 20.1054 22.9007 19.4971 23.5091C18.8887 24.1174 17.9054 24.1174 17.2971 23.5091L11.0735 17.2856Z"></path>
  </symbol>
  <symbol xmlns="http://www.w3.org/2000/svg" viewBox="0 0 33 33" id="arrow-circl-right">
    <path fill-rule="evenodd" clip-rule="evenodd" d="M29.9562 16.1841C29.9562 23.7902 23.7902 29.9562 16.1841 29.9562C8.57795 29.9562 2.41195 23.7902 2.41195 16.1841C2.41195 8.57795 8.57795 2.41195 16.1841 2.41195C23.7902 2.41195 29.9562 8.57795 29.9562 16.1841ZM32.3682 16.1841C32.3682 25.1223 25.1223 32.3682 16.1841 32.3682C7.24586 32.3682 0 25.1223 0 16.1841C0 7.24586 7.24586 0 16.1841 0C25.1223 0 32.3682 7.24586 32.3682 16.1841ZM21.2946 17.2856C21.598 16.9822 21.7505 16.5838 21.7505 16.1855C21.7505 15.7966 21.6058 15.4076 21.3133 15.1042L15.3045 8.88067C14.7086 8.26298 13.7221 8.24587 13.1044 8.84333C12.4868 9.44078 12.4696 10.4225 13.0656 11.0433L18.0133 16.1669L12.8711 21.3091C12.2627 21.9174 12.2627 22.9007 12.8711 23.5091C13.4794 24.1174 14.4627 24.1174 15.0711 23.5091L21.2946 17.2856Z"></path>
  </symbol>
  <symbol xmlns="http://www.w3.org/2000/svg" viewBox="0 0 18 11" id="arrow-right">
    <path fill-rule="evenodd" clip-rule="evenodd" d="M12.795 0.449655C12.4911 0.160376 12.0102 0.172256 11.7209 0.476188C11.4316 0.780121 11.4435 1.26101 11.7475 1.55029L15.0538 4.69722H0.999981C0.580385 4.69722 0.240234 5.03737 0.240234 5.45696C0.240234 5.87655 0.580385 6.2167 0.999981 6.2167H15.1441L11.7475 9.44957C11.4435 9.73885 11.4316 10.2197 11.7209 10.5237C12.0102 10.8276 12.4911 10.8395 12.795 10.5502L17.523 6.05025C17.6737 5.90684 17.759 5.70793 17.759 5.49993C17.759 5.49759 17.759 5.49525 17.7589 5.49291C17.7595 5.481 17.7598 5.46901 17.7598 5.45696C17.7598 5.1613 17.5909 4.90509 17.3443 4.77953L12.795 0.449655Z"></path>
  </symbol>
  <symbol xmlns="http://www.w3.org/2000/svg" viewBox="0 0 8 10" id="pin">
    <path fill-rule="evenodd" clip-rule="evenodd" d="M0.918701 4.21416C0.918701 2.35295 2.4323 0.839355 4.2935 0.839355C6.15471 0.839355 7.66831 2.35295 7.66831 4.21416C7.66831 6.55346 4.62198 9.62678 4.49262 9.75671C4.4375 9.81127 4.3655 9.83883 4.2935 9.83883C4.22151 9.83883 4.14951 9.81127 4.09439 9.75671C3.96502 9.62678 0.918701 6.55346 0.918701 4.21416ZM5.9803 4.21599C5.9803 5.14776 5.22495 5.9031 4.29319 5.9031C3.36142 5.9031 2.60607 5.14776 2.60607 4.21599C2.60607 3.28423 3.36142 2.52888 4.29319 2.52888C5.22495 2.52888 5.9803 3.28423 5.9803 4.21599Z"></path>
  </symbol>
  <symbol xmlns="http://www.w3.org/2000/svg" viewBox="0 0 12 11" id="star">
    <path d="M5.44075 0.836582C5.55417 0.515736 6.00792 0.515736 6.12134 0.836582L7.1905 3.86099C7.24111 4.00414 7.37589 4.10032 7.52772 4.10161L10.852 4.12997C11.2031 4.13297 11.3437 4.58474 11.0562 4.78638L8.41802 6.63687C8.28745 6.72846 8.23246 6.89489 8.28279 7.04623L9.27643 10.0347C9.38516 10.3617 9.01751 10.6406 8.73193 10.4477L5.98305 8.59122C5.861 8.50878 5.7011 8.50879 5.57904 8.59122L2.83017 10.4477C2.54458 10.6406 2.17694 10.3617 2.28567 10.0347L3.27931 7.04624C3.32963 6.89489 3.27465 6.72846 3.14408 6.63687L0.505887 4.78638C0.218417 4.58474 0.358948 4.13297 0.710071 4.12997L4.03438 4.10161C4.18621 4.10032 4.32099 4.00414 4.37159 3.86099L5.44075 0.836582Z"></path>
  </symbol>
  <symbol xmlns="http://www.w3.org/2000/svg" viewBox="0 0 11 11" id="chevron-bottom">
    <path fill-rule="evenodd" clip-rule="evenodd" d="M8.70965 2.75732L9.61824 3.66591L5.30912 7.97503L1 3.66591L1.90859 2.75732L5.30912 6.15785L8.70965 2.75732Z"></path>
  </symbol>
  <symbol xmlns="http://www.w3.org/2000/svg" viewBox="0 0 17 14" id="icon-twitter">
    <path d="M16.2164 1.52028C15.6082 1.82434 15.0001 1.92569 14.2907 2.02704C15.0001 1.62164 15.5069 1.01352 15.7096 0.202704C15.1015 0.608113 14.392 0.810818 13.5812 1.01352C12.9731 0.405409 12.0609 0 11.1487 0C9.02035 0 7.39871 2.02704 7.90547 4.05409C5.16896 3.95274 2.73651 2.63516 1.01352 0.608114C0.101352 2.1284 0.608113 4.05409 2.02704 5.06761C1.52028 5.06761 1.01352 4.86491 0.506761 4.6622C0.506761 6.18249 1.62164 7.60142 3.14192 8.00682C2.63516 8.10818 2.1284 8.20953 1.62164 8.10818C2.02704 9.42576 3.24327 10.4393 4.76355 10.4393C3.54733 11.3514 1.72299 11.8582 0 11.6555C1.52028 12.5677 3.24327 13.1758 5.06761 13.1758C11.2501 13.1758 14.6961 8.00682 14.4934 3.24327C15.2028 2.83786 15.8109 2.22975 16.2164 1.52028Z"></path>
  </symbol>
  <symbol xmlns="http://www.w3.org/2000/svg" viewBox="0 0 17 17" id="icon-linkedin">
    <path d="M3.64869 16.2164H0.202701V5.37167H3.64869V16.2164ZM1.92569 3.85138C0.810819 3.85138 0 3.04057 0 1.92569C0 0.810817 0.912171 0 1.92569 0C3.04057 0 3.85139 0.810817 3.85139 1.92569C3.85139 3.04057 3.04057 3.85138 1.92569 3.85138ZM16.2164 16.2164H12.7704V10.3379C12.7704 8.61494 12.0609 8.10818 11.0474 8.10818C10.0339 8.10818 9.02034 8.91899 9.02034 10.4393V16.2164H5.57437V5.37167H8.81764V6.89195C9.1217 6.18248 10.3379 5.06761 12.0609 5.06761C13.9866 5.06761 16.0137 6.18248 16.0137 9.52711V16.2164H16.2164Z"></path>
  </symbol>
  <symbol xmlns="http://www.w3.org/2000/svg" viewBox="0 0 17 17" id="icon-instagram">
    <path d="M8.41223 1.52028C10.642 1.52028 10.946 1.52028 11.8582 1.52028C12.669 1.52028 13.0744 1.72299 13.3785 1.82434C13.7839 2.02704 14.088 2.1284 14.392 2.43245C14.6961 2.73651 14.8988 3.04057 15.0001 3.44598C15.1015 3.75003 15.2028 4.15544 15.3042 4.96626C15.3042 5.87843 15.3042 6.08113 15.3042 8.41223C15.3042 10.7433 15.3042 10.946 15.3042 11.8582C15.3042 12.669 15.1015 13.0744 15.0001 13.3785C14.7974 13.7839 14.6961 14.088 14.392 14.392C14.088 14.6961 13.7839 14.8988 13.3785 15.0001C13.0744 15.1015 12.669 15.2028 11.8582 15.3042C10.946 15.3042 10.7433 15.3042 8.41223 15.3042C6.08113 15.3042 5.87843 15.3042 4.96626 15.3042C4.15544 15.3042 3.75003 15.1015 3.44598 15.0001C3.04057 14.7974 2.73651 14.6961 2.43245 14.392C2.1284 14.088 1.92569 13.7839 1.82434 13.3785C1.72299 13.0744 1.62164 12.669 1.52028 11.8582C1.52028 10.946 1.52028 10.7433 1.52028 8.41223C1.52028 6.08113 1.52028 5.87843 1.52028 4.96626C1.52028 4.15544 1.72299 3.75003 1.82434 3.44598C2.02704 3.04057 2.1284 2.73651 2.43245 2.43245C2.73651 2.1284 3.04057 1.92569 3.44598 1.82434C3.75003 1.72299 4.15544 1.62164 4.96626 1.52028C5.87843 1.52028 6.18249 1.52028 8.41223 1.52028ZM8.41223 0C6.08113 0 5.87843 0 4.96626 0C4.05409 0 3.44598 0.202705 2.93921 0.405409C2.43245 0.608114 1.92569 0.912171 1.41893 1.41893C0.912171 1.92569 0.709466 2.3311 0.405409 2.93921C0.202705 3.44598 0.101352 4.05409 0 4.96626C0 5.87843 0 6.18249 0 8.41223C0 10.7433 0 10.946 0 11.8582C0 12.7704 0.202705 13.3785 0.405409 13.8853C0.608114 14.392 0.912171 14.8988 1.41893 15.4055C1.92569 15.9123 2.3311 16.115 2.93921 16.4191C3.44598 16.6218 4.05409 16.7231 4.96626 16.8245C5.87843 16.8245 6.18249 16.8245 8.41223 16.8245C10.642 16.8245 10.946 16.8245 11.8582 16.8245C12.7704 16.8245 13.3785 16.6218 13.8853 16.4191C14.392 16.2164 14.8988 15.9123 15.4055 15.4055C15.9123 14.8988 16.115 14.4934 16.4191 13.8853C16.6218 13.3785 16.7231 12.7704 16.8245 11.8582C16.8245 10.946 16.8245 10.642 16.8245 8.41223C16.8245 6.18249 16.8245 5.87843 16.8245 4.96626C16.8245 4.05409 16.6218 3.44598 16.4191 2.93921C16.2164 2.43245 15.9123 1.92569 15.4055 1.41893C14.8988 0.912171 14.4934 0.709466 13.8853 0.405409C13.3785 0.202705 12.7704 0.101352 11.8582 0C10.946 0 10.7433 0 8.41223 0Z"></path>
    <path d="M8.41223 4.05409C5.97978 4.05409 4.05409 5.97978 4.05409 8.41223C4.05409 10.8447 5.97978 12.7704 8.41223 12.7704C10.8447 12.7704 12.7704 10.8447 12.7704 8.41223C12.7704 5.97978 10.8447 4.05409 8.41223 4.05409ZM8.41223 11.2501C6.89195 11.2501 5.57437 10.0339 5.57437 8.41223C5.57437 6.89195 6.7906 5.57437 8.41223 5.57437C9.93252 5.57437 11.2501 6.7906 11.2501 8.41223C11.2501 9.93252 9.93252 11.2501 8.41223 11.2501Z"></path>
    <path d="M12.8717 4.96626C13.4315 4.96626 13.8853 4.51249 13.8853 3.95274C13.8853 3.39298 13.4315 2.93921 12.8717 2.93921C12.312 2.93921 11.8582 3.39298 11.8582 3.95274C11.8582 4.51249 12.312 4.96626 12.8717 4.96626Z"></path>
  </symbol>
  <symbol xmlns="http://www.w3.org/2000/svg" viewBox="0 0 17 17" id="icon-facebook">
    <path d="M16.2164 8.10818C16.2164 3.64868 12.5677 0 8.10818 0C3.64868 0 0 3.64868 0 8.10818C0 12.1623 2.93921 15.5069 6.7906 16.115V10.4393H4.76355V8.10818H6.7906V6.28384C6.7906 4.25679 8.00682 3.14192 9.83116 3.14192C10.7433 3.14192 11.6555 3.34462 11.6555 3.34462V5.37167H10.642C9.62846 5.37167 9.3244 5.97978 9.3244 6.58789V8.10818H11.5542L11.1487 10.4393H9.22305V16.2164C13.2771 15.6082 16.2164 12.1623 16.2164 8.10818Z"></path>
  </symbol>
  <symbol xmlns="http://www.w3.org/2000/svg" viewBox="0 0 12 10" id="group-people">
    <path d="M3.94808 2.05487C3.94808 0.965097 4.83465 0.0785217 5.9244 0.0785217C7.01415 0.0785217 7.90072 0.965119 7.90072 2.05487C7.90072 2.79403 7.49277 3.43963 6.89024 3.77858C6.60446 3.93933 6.27499 4.0312 5.9244 4.0312C5.57381 4.0312 5.24434 3.93933 4.95856 3.77858C4.35605 3.43963 3.94808 2.79406 3.94808 2.05487ZM6.93429 4.43673H4.92159C4.01545 4.43673 3.27825 5.17394 3.27825 6.08008V9.40746C3.27825 9.58896 3.42539 9.73613 3.60692 9.73613H8.24897C8.43049 9.73613 8.57763 9.58898 8.57763 9.40746V6.08008C8.57763 5.17394 7.84043 4.43673 6.93429 4.43673ZM9.09254 5.29247H9.97292C10.8791 5.29247 11.6163 6.02968 11.6162 6.93579V8.7497C11.6162 9.29338 11.1739 9.73571 10.6302 9.73571H9.17476C9.21124 9.63285 9.2313 9.52226 9.2313 9.40704V6.07966C9.2313 5.80331 9.18227 5.53816 9.09254 5.29247ZM2.75769 5.29361C2.66795 5.5393 2.61892 5.80442 2.61892 6.0808V9.40818C2.61892 9.5234 2.63898 9.63397 2.67547 9.73687H1.21996C0.676257 9.73687 0.233948 9.29454 0.233948 8.75086V6.93696C0.233948 6.03081 0.971152 5.29361 1.87729 5.29361H2.75769ZM2.45859 1.92009C1.64359 1.92009 0.980555 2.58312 0.980555 3.39813C0.980555 4.21313 1.64359 4.87616 2.45859 4.87616C2.66532 4.87616 2.86219 4.83334 3.04102 4.75636C3.35021 4.62324 3.60515 4.3876 3.7629 4.09244C3.87363 3.88528 3.93662 3.64895 3.93662 3.39813C3.93662 2.58315 3.27359 1.92009 2.45859 1.92009ZM7.92034 3.39824C7.92034 2.58324 8.58337 1.92021 9.39837 1.92021C10.2134 1.92021 10.8764 2.58324 10.8764 3.39824C10.8764 4.21324 10.2134 4.87627 9.39837 4.87627C9.19163 4.87627 8.99477 4.83345 8.81594 4.75647C8.50675 4.62338 8.25181 4.38774 8.09405 4.09255C7.98333 3.88542 7.92034 3.64909 7.92034 3.39824Z"></path>
  </symbol>
  <symbol xmlns="http://www.w3.org/2000/svg" viewBox="0 0 15 12" id="vip">
    <path d="M7.96502 8.06891H7.96575H7.96648C9.96668 8.06891 11.9708 8.06891 13.9749 8.07281C14.0882 8.07281 14.1312 8.04937 14.1507 7.92825C14.2087 7.53369 14.2709 7.14051 14.3331 6.74707C14.3756 6.47819 14.4181 6.20918 14.4594 5.93953C14.5196 5.54291 14.5807 5.14678 14.6418 4.75095C14.7552 4.01597 14.8685 3.28206 14.9751 2.54816C14.9907 2.43485 14.9634 2.2981 14.9087 2.20042C14.7719 1.94646 14.4594 1.9113 14.2015 2.10665C13.3615 2.7357 12.5214 3.36474 11.6853 3.99379C11.2555 4.31417 10.9039 4.25556 10.6031 3.80625C10.3842 3.47677 10.1634 3.14848 9.94266 2.82024C9.46967 2.11699 8.99685 1.41399 8.544 0.700093C8.24316 0.227332 7.70007 0.215611 7.3875 0.707907C6.9355 1.42313 6.46359 2.12388 5.99149 2.82493C5.76984 3.15407 5.54815 3.48327 5.32845 3.81406C5.03542 4.25556 4.67596 4.31417 4.25399 3.99769C3.41397 3.36474 2.57003 2.73179 1.73 2.10275C1.53464 1.95818 1.33147 1.94255 1.15956 2.05977C0.97202 2.1848 0.929042 2.36452 0.964206 2.58332C1.06436 3.20143 1.15823 3.82164 1.25195 4.44087C1.28619 4.6671 1.32042 4.89321 1.35492 5.11904C1.36464 5.18161 1.37437 5.24416 1.3841 5.3067C1.5189 6.17356 1.65324 7.03748 1.78079 7.90481C1.80033 8.04156 1.85112 8.07281 1.98396 8.07281C3.98025 8.06891 5.97264 8.06891 7.96502 8.06891ZM14.1306 10.3107V9.10338H1.80365V9.27138V10.381C1.80365 10.8928 2.05371 11.1429 2.56554 11.1429H13.3687H13.4859C13.8102 11.1351 14.0642 10.9202 14.115 10.5998C14.1267 10.506 14.1306 10.4084 14.1306 10.3107Z"></path>
  </symbol>
  <symbol xmlns="http://www.w3.org/2000/svg" viewBox="0 0 12 11" id="people">
    <path d="M9.05264 4.48351C9.05264 4.1929 8.82711 3.95609 8.54922 3.95609C8.27133 3.95609 8.04579 4.1929 8.04579 4.48351C8.04579 4.77411 8.27133 5.01092 8.54922 5.01092C8.82711 5.01092 9.05264 4.77411 9.05264 4.48351ZM10.0595 4.48352C10.0595 5.35587 9.38187 6.06577 8.5492 6.06577C7.71654 6.06577 7.03893 5.35587 7.03893 4.48352C7.03893 3.61117 7.71654 2.90127 8.5492 2.90127C9.38187 2.90127 10.0595 3.61117 10.0595 4.48352ZM5.52865 2.90127C5.52865 2.31953 5.07707 1.84643 4.5218 1.84643C3.96652 1.84643 3.51495 2.31953 3.51495 2.90127C3.51495 3.48301 3.96652 3.9561 4.5218 3.9561C5.07707 3.9561 5.52865 3.48301 5.52865 2.90127ZM6.53548 2.90126C6.53548 4.06474 5.63234 5.01093 4.52178 5.01093C3.41123 5.01093 2.50808 4.06474 2.50808 2.90126C2.50808 1.73778 3.41123 0.791595 4.52178 0.791595C5.63234 0.791595 6.53548 1.73778 6.53548 2.90126ZM7.0087 7.14484C7.44617 6.79042 7.98484 6.59317 8.54918 6.59317C9.93712 6.59317 11.0663 7.77616 11.0663 9.23025C11.0663 9.52138 10.8413 9.75766 10.5629 9.75766C10.2845 9.75766 10.0595 9.52138 10.0595 9.23025C10.0595 8.3579 9.38184 7.648 8.54918 7.648C8.20534 7.648 7.87861 7.77141 7.61482 7.99029C7.88868 8.5156 8.04575 9.11791 8.04575 9.75766C8.04575 10.0488 7.82072 10.2851 7.54233 10.2851C7.26393 10.2851 7.0389 10.0488 7.0389 9.75766C7.0389 8.30358 5.90972 7.12058 4.52178 7.12058C3.13383 7.12058 2.00465 8.30358 2.00465 9.75766C2.00465 10.0488 1.77962 10.2851 1.50123 10.2851C1.22283 10.2851 0.997803 10.0488 0.997803 9.75766C0.997803 7.72184 2.57906 6.06575 4.52178 6.06575C5.49188 6.06575 6.37086 6.47872 7.0087 7.14484Z"></path>
  </symbol>
    <symbol xmlns="http://www.w3.org/2000/svg" viewBox="0 0 13 13" id="passenger">
        <path d="M0.589355 6.3858C0.589355 3.07858 3.26486 0.403076 6.57208 0.403076C9.87399 0.403076 12.5548 3.07858 12.5548 6.3858C12.5548 9.69302 9.8793 12.3685 6.57208 12.3685C3.26486 12.3685 0.589355 9.69302 0.589355 6.3858ZM9.02994 5.63199C9.02994 5.12237 8.61587 4.7083 8.10625 4.7083C7.59663 4.7083 7.18256 5.12237 7.18256 5.63199C7.18256 6.14161 7.59663 6.55567 8.10625 6.55567C8.61587 6.55567 9.02994 6.14161 9.02994 5.63199ZM6.87467 4.70299C6.87467 4.02881 6.32789 3.47672 5.6484 3.47672C4.97421 3.47672 4.42212 4.02881 4.42212 4.70299C4.42212 5.37718 4.9689 5.92927 5.6484 5.92927C6.32258 5.92927 6.87467 5.38249 6.87467 4.70299ZM9.02463 8.39243C9.02463 8.5623 9.16265 8.70033 9.33252 8.70033C9.5024 8.70033 9.64042 8.5623 9.64042 8.38712C9.64042 7.54306 8.95031 6.85295 8.10625 6.85295C7.76119 6.85295 7.43207 6.96974 7.16664 7.17677C6.77381 6.78925 6.23764 6.55037 5.6484 6.55037C4.46459 6.55037 3.49844 7.51652 3.49844 8.70033C3.49844 8.8702 3.63646 9.00822 3.80633 9.00822C3.9762 9.00822 4.11423 8.8702 4.11423 8.70033C4.11423 7.85627 4.80434 7.16616 5.6484 7.16616C6.49245 7.16616 7.18256 7.85627 7.18256 8.70033C7.18256 8.8702 7.32059 9.00822 7.49046 9.00822C7.66033 9.00822 7.79835 8.8702 7.79835 8.70033C7.79835 8.32873 7.69749 7.97836 7.53293 7.67047C7.69218 7.54306 7.8886 7.46874 8.10094 7.46874C8.61056 7.46874 9.02463 7.88281 9.02463 8.39243ZM6.24947 4.84934C6.32763 4.51836 6.12267 4.1867 5.7917 4.10854C5.46072 4.03039 5.12905 4.23534 5.0509 4.56632C4.97275 4.8973 5.1777 5.22897 5.50868 5.30712C5.83966 5.38527 6.17132 5.18032 6.24947 4.84934ZM8.10591 5.93438C8.27578 5.93438 8.41348 5.79668 8.41348 5.62681C8.41348 5.45695 8.27578 5.31924 8.10591 5.31924C7.93604 5.31924 7.79834 5.45695 7.79834 5.62681C7.79834 5.79668 7.93604 5.93438 8.10591 5.93438Z"></path>
    </symbol>
    <symbol xmlns="http://www.w3.org/2000/svg" viewBox="0 0 13 13" id="plan">
        <path d="M6.45156 0.576904C3.2452 0.576904 0.645935 3.17617 0.645935 6.38253C0.645935 9.58889 3.2452 12.1882 6.45156 12.1882C9.65792 12.1882 12.2572 9.58889 12.2572 6.38253C12.2572 3.17617 9.65792 0.576904 6.45156 0.576904ZM8.54802 8.60276C8.42584 8.71939 8.30365 8.84158 8.17592 8.97487C8.15051 8.93361 8.12511 8.89239 8.09973 8.8512C7.65364 8.12705 7.21252 7.41098 6.77637 6.67005C6.74304 6.69227 6.72083 6.70893 6.70417 6.72559L5.37126 7.99185C5.33794 8.02517 5.31017 8.08071 5.31017 8.12514C5.29906 8.29916 5.29289 8.47318 5.28672 8.6472C5.28364 8.73421 5.28055 8.82122 5.27685 8.90822C5.27685 8.93478 5.27528 8.95977 5.27381 8.9832C5.27251 9.00385 5.2713 9.02329 5.2713 9.04151L3.72735 7.49756C3.74281 7.49756 3.75947 7.49637 3.77733 7.49509C3.79795 7.49361 3.82017 7.49201 3.84398 7.49201C3.93178 7.48835 4.01897 7.4853 4.10597 7.48225C4.2831 7.47604 4.45938 7.46986 4.63817 7.45869C4.6826 7.45869 4.73258 7.44758 4.76035 7.41981C5.01982 7.15061 5.27741 6.87761 5.53752 6.60194C5.7228 6.40557 5.90936 6.20784 6.09881 6.00915C5.5494 5.66828 4.99999 5.3303 4.44849 4.99104C4.23623 4.86046 4.02365 4.72969 3.81065 4.5985C3.94394 4.46521 4.07723 4.33192 4.21053 4.20418C4.23274 4.18197 4.28828 4.18197 4.3216 4.19307C5.23796 4.42077 6.14876 4.65403 7.05956 4.88728L7.05961 4.88729C7.1207 4.90396 7.16513 4.89285 7.20956 4.84286C7.37617 4.66514 7.54417 4.48742 7.71218 4.3097C7.88018 4.13198 8.04818 3.95426 8.21479 3.77654C8.3703 3.60993 8.56468 3.54884 8.78683 3.60993C9.20892 3.72656 9.3311 4.25416 9.00343 4.56518C8.86181 4.70124 8.71881 4.83591 8.5758 4.97059C8.43279 5.10527 8.28977 5.23995 8.14815 5.37603C8.13597 5.3882 8.1238 5.40059 8.11158 5.41303C8.06249 5.46302 8.01268 5.51372 7.95932 5.55375C7.89267 5.60373 7.89267 5.65927 7.90933 5.73147C8.03572 6.23392 8.16039 6.73808 8.28525 7.24301C8.38535 7.6478 8.48557 8.05308 8.58689 8.45837C8.60356 8.51946 8.59245 8.55833 8.54802 8.60276Z"></path>
    </symbol>
    <symbol fill="none" xmlns="http://www.w3.org/2000/svg" viewBox="0 0 20 20" id="car-distance">
        <g clip-path="url(#clip0_581_11824)">
            <path d="M2.27527 7.58436C2.73996 7.55483 3.31562 7.1341 3.65424 6.57596L3.7351 6.44298C4.29425 5.52172 5.2937 4.95917 6.37219 4.95917H10.5034C11.3848 4.95917 12.2233 5.3359 12.8088 5.99464L13.2152 6.45137C14.2397 7.60377 14.7829 8.01831 15.5598 8.11556L17.2735 8.26248C18.2795 8.3873 19.0117 9.21687 19.0117 10.2011V11.5167C19.0117 12.5938 18.1385 13.4675 17.061 13.4675H16.5589C16.2404 14.3687 15.3815 15.0143 14.371 15.0143C13.3605 15.0143 12.5016 14.3687 12.1831 13.4675H6.50362C6.18509 14.3687 5.32622 15.0143 4.31571 15.0143C3.29843 15.0143 2.43499 14.3599 2.12163 13.4492C1.1754 13.3259 0.448143 12.5774 0.448143 11.5918V9.53121C0.448143 8.50012 1.25063 7.64879 2.27527 7.58436ZM14.371 13.4673C14.7979 13.4673 15.1435 13.1222 15.1444 12.6955C15.1444 12.695 15.1443 12.6945 15.1443 12.694C15.1443 12.2665 14.7984 11.9205 14.3708 11.9205C14.0359 11.9205 13.7514 12.1339 13.6439 12.4319C13.6144 12.5138 13.5975 12.6017 13.5975 12.6938C13.5975 13.1214 13.9434 13.4673 14.371 13.4673ZM4.31571 13.4673C4.74267 13.4673 5.08824 13.1222 5.08911 12.6955C5.08911 12.695 5.08904 12.6945 5.08904 12.694C5.08904 12.2665 4.74308 11.9205 4.31555 11.9205C3.98063 11.9205 3.69613 12.1339 3.5886 12.4319C3.5591 12.5138 3.54222 12.6017 3.54222 12.6938C3.54222 13.1214 3.88818 13.4673 4.31571 13.4673ZM1.99511 11.5918C1.99511 11.7077 2.04983 11.8035 2.14905 11.8612C2.15585 11.8435 2.16321 11.8261 2.17043 11.8086C2.1736 11.8009 2.17658 11.7932 2.17983 11.7855C2.19286 11.7549 2.20657 11.7246 2.22088 11.6947C2.22549 11.6851 2.23044 11.6755 2.2352 11.666C2.24543 11.6453 2.25589 11.6247 2.2667 11.6044C2.273 11.5926 2.27942 11.5809 2.28592 11.5692C2.29619 11.5506 2.30676 11.5323 2.31753 11.5142C2.32418 11.5029 2.33071 11.4916 2.33755 11.4805C2.35356 11.4545 2.36995 11.4288 2.38695 11.4034C2.39405 11.3929 2.40149 11.3825 2.40874 11.372C2.42097 11.3544 2.43329 11.3369 2.44598 11.3197C2.455 11.3074 2.46426 11.2953 2.47351 11.2833C2.48458 11.2689 2.49579 11.2546 2.5072 11.2404C2.51702 11.2282 2.52684 11.216 2.53688 11.204C2.54927 11.1893 2.56196 11.1748 2.57473 11.1604C2.58942 11.1437 2.60426 11.1272 2.61941 11.111C2.63425 11.0951 2.64917 11.0793 2.66446 11.0638C2.67602 11.0521 2.68792 11.0407 2.69974 11.0292C2.71164 11.0176 2.72361 11.0062 2.73577 10.9948C2.74819 10.9833 2.76073 10.9718 2.77339 10.9605C2.78574 10.9495 2.79827 10.9387 2.81085 10.928C2.8235 10.9172 2.836 10.9063 2.84888 10.8958C2.87173 10.8772 2.89492 10.8589 2.91849 10.8411C2.93186 10.8311 2.94553 10.8214 2.95913 10.8116C2.97238 10.802 2.98568 10.7925 2.99916 10.7831C3.0134 10.7733 3.02783 10.7637 3.04229 10.7542C3.05574 10.7453 3.06933 10.7367 3.08297 10.7281C3.09747 10.719 3.1119 10.7099 3.12663 10.7011C3.1429 10.6913 3.15945 10.682 3.17599 10.6727C3.19865 10.6599 3.2215 10.6475 3.24461 10.6355C3.26074 10.627 3.27683 10.6186 3.29318 10.6106C3.30821 10.6032 3.3234 10.5961 3.33862 10.5891C3.35406 10.5819 3.36962 10.5748 3.38526 10.568C3.40052 10.5613 3.41578 10.5547 3.43118 10.5483C3.44856 10.5412 3.46608 10.5344 3.48368 10.5276C3.50068 10.5211 3.51764 10.5146 3.53478 10.5085C3.56073 10.4992 3.58686 10.4903 3.61319 10.4819C3.62784 10.4773 3.64268 10.4731 3.65745 10.4687C3.67562 10.4633 3.69382 10.4581 3.71218 10.4532C3.72755 10.449 3.74292 10.445 3.7584 10.4412C3.77748 10.4365 3.7967 10.4322 3.81596 10.4279C3.83039 10.4248 3.84478 10.4214 3.85932 10.4185C3.89078 10.4123 3.92247 10.4066 3.95442 10.4016C3.96764 10.3995 3.98101 10.3979 3.9943 10.3961C4.01572 10.3931 4.03717 10.3903 4.05877 10.3879C4.07414 10.3862 4.08955 10.3848 4.105 10.3834C4.12539 10.3815 4.14586 10.38 4.16637 10.3787C4.18159 10.3777 4.19681 10.3767 4.21211 10.376C4.23779 10.3749 4.26362 10.3743 4.28953 10.374C4.29833 10.3739 4.30702 10.3734 4.31586 10.3734C4.32575 10.3734 4.3355 10.374 4.34535 10.3741C4.37032 10.3744 4.39521 10.3749 4.41994 10.376C4.43615 10.3767 4.4522 10.3779 4.46829 10.3789C4.48785 10.3802 4.50741 10.3816 4.52686 10.3834C4.54348 10.3849 4.56002 10.3865 4.57649 10.3883C4.59587 10.3905 4.61513 10.393 4.63439 10.3957C4.6501 10.3978 4.66589 10.3998 4.68149 10.4023C4.71057 10.4069 4.73942 10.4121 4.76812 10.4177C4.78557 10.4212 4.80283 10.4251 4.82013 10.4289C4.83932 10.4332 4.8585 10.4374 4.8775 10.4422C4.89382 10.4462 4.90994 10.4506 4.92611 10.455C4.94325 10.4597 4.96036 10.4645 4.97736 10.4695C4.9936 10.4744 5.0098 10.4793 5.02589 10.4844C5.04319 10.4899 5.06033 10.4959 5.07744 10.5018C5.09259 10.5071 5.10784 10.5122 5.12284 10.5177C5.15184 10.5285 5.18055 10.5398 5.20895 10.5517C5.22425 10.558 5.23924 10.5649 5.25438 10.5716C5.27017 10.5786 5.28592 10.5856 5.30148 10.5929C5.31715 10.6003 5.33268 10.6079 5.34816 10.6156C5.36297 10.6229 5.3777 10.6305 5.39231 10.6382C5.40757 10.6462 5.42286 10.6542 5.43793 10.6625C5.45319 10.671 5.46822 10.6798 5.48329 10.6886C5.50667 10.7022 5.52975 10.7162 5.5526 10.7306C5.56884 10.7409 5.58511 10.7511 5.60109 10.7617C5.61552 10.7714 5.62964 10.7813 5.64384 10.7913C5.65702 10.8005 5.67021 10.8097 5.68316 10.8192C5.69736 10.8296 5.71141 10.8401 5.72535 10.8508C5.73807 10.8606 5.75061 10.8705 5.76311 10.8805C5.77667 10.8913 5.79031 10.9021 5.80364 10.9133C5.81727 10.9247 5.8306 10.9365 5.84398 10.9482C5.86543 10.967 5.88654 10.9862 5.90727 11.0058C5.91955 11.0173 5.93186 11.0288 5.94387 11.0407C5.95633 11.0529 5.96849 11.0655 5.98069 11.0781C5.99172 11.0894 6.00271 11.1009 6.01351 11.1125C6.02552 11.1254 6.03742 11.1383 6.04913 11.1515C6.05978 11.1635 6.0702 11.1757 6.08063 11.1878C6.09188 11.201 6.10321 11.214 6.11416 11.2274C6.12923 11.2459 6.14381 11.2647 6.15831 11.2836C6.17225 11.3018 6.18585 11.3203 6.19926 11.3389C6.20892 11.3523 6.21863 11.3657 6.228 11.3794C6.23789 11.3938 6.24752 11.4083 6.25712 11.423C6.26595 11.4364 6.27464 11.45 6.28321 11.4637C6.29247 11.4784 6.30168 11.4932 6.31059 11.5082C6.31924 11.5228 6.32755 11.5375 6.3359 11.5523C6.34598 11.5701 6.35603 11.588 6.36566 11.6061C6.37809 11.6294 6.39025 11.653 6.40188 11.6768C6.40921 11.6918 6.41608 11.7071 6.42311 11.7223C6.43028 11.7378 6.43742 11.7533 6.44425 11.7691C6.45113 11.7848 6.45774 11.8007 6.46423 11.8166C6.47069 11.8324 6.47692 11.8483 6.483 11.8643C6.48905 11.8801 6.49517 11.8959 6.50087 11.9119C6.50189 11.9148 6.50306 11.9176 6.50408 11.9205H12.1825C12.1842 11.9156 12.1861 11.9108 12.1879 11.906C12.1916 11.8958 12.1955 11.8857 12.1993 11.8755C12.2078 11.8532 12.2165 11.831 12.2255 11.809C12.2302 11.7976 12.2349 11.7863 12.2398 11.775C12.2493 11.7532 12.2591 11.7316 12.2692 11.7101C12.2738 11.7002 12.2782 11.6902 12.283 11.6804C12.2974 11.6508 12.3123 11.6216 12.3279 11.5927C12.3331 11.5831 12.3386 11.5738 12.3439 11.5643C12.355 11.5444 12.3663 11.5246 12.378 11.505C12.3854 11.4926 12.393 11.4804 12.4007 11.4681C12.411 11.4516 12.4214 11.4352 12.4322 11.419C12.4404 11.4065 12.4487 11.394 12.4572 11.3816C12.4685 11.3651 12.4802 11.3488 12.492 11.3326C12.5001 11.3215 12.5079 11.3102 12.5162 11.2992C12.5348 11.2745 12.5539 11.2503 12.5734 11.2264C12.5834 11.2142 12.5937 11.2023 12.6039 11.1903C12.6153 11.177 12.6267 11.1636 12.6384 11.1506C12.6496 11.138 12.661 11.1256 12.6724 11.1133C12.6838 11.1011 12.6953 11.0892 12.7068 11.0772C12.7187 11.065 12.7305 11.0528 12.7426 11.0409C12.7549 11.0287 12.7676 11.0169 12.7802 11.005C12.8007 10.9857 12.8216 10.9667 12.8428 10.9481C12.8562 10.9364 12.8694 10.9247 12.883 10.9133C12.8964 10.902 12.9102 10.8911 12.924 10.8802C12.9363 10.8703 12.9486 10.8606 12.961 10.851C12.9752 10.8402 12.9895 10.8295 13.0039 10.819C13.0166 10.8097 13.0294 10.8007 13.0423 10.7917C13.0567 10.7816 13.0712 10.7714 13.0859 10.7616C13.1009 10.7516 13.1163 10.742 13.1316 10.7323C13.1556 10.717 13.18 10.7022 13.2047 10.6878C13.2193 10.6794 13.2338 10.6709 13.2485 10.6627C13.2638 10.6542 13.2793 10.6461 13.2948 10.638C13.3092 10.6304 13.3237 10.623 13.3383 10.6157C13.3539 10.6079 13.3695 10.6002 13.3853 10.5928C13.4008 10.5855 13.4165 10.5786 13.4323 10.5716C13.4474 10.5649 13.4624 10.558 13.4777 10.5516C13.5062 10.5397 13.535 10.5284 13.564 10.5176C13.5787 10.5122 13.5936 10.5072 13.6084 10.5021C13.626 10.496 13.6435 10.4899 13.6612 10.4842C13.677 10.4792 13.6929 10.4744 13.7088 10.4697C13.7262 10.4645 13.7437 10.4595 13.7614 10.4547C13.7771 10.4505 13.7928 10.4462 13.8087 10.4422C13.8287 10.4373 13.8489 10.4328 13.8691 10.4283C13.8829 10.4252 13.8967 10.4219 13.9107 10.4191C13.9421 10.4127 13.9738 10.4072 14.0058 10.4021C14.0207 10.3998 14.0357 10.3979 14.0507 10.3958C14.0708 10.393 14.0908 10.3904 14.1109 10.3882C14.1269 10.3864 14.1429 10.3848 14.159 10.3834C14.1791 10.3816 14.1992 10.3801 14.2194 10.3788C14.235 10.3778 14.2506 10.3767 14.2664 10.376C14.2916 10.3748 14.317 10.3743 14.3425 10.374C14.352 10.3739 14.3614 10.3733 14.3709 10.3733C14.3808 10.3733 14.3906 10.3739 14.4004 10.3741C14.4254 10.3744 14.4503 10.3749 14.475 10.376C14.4912 10.3767 14.5073 10.3778 14.5234 10.3789C14.543 10.3802 14.5625 10.3816 14.5819 10.3833C14.5986 10.3848 14.6151 10.3865 14.6316 10.3883C14.651 10.3905 14.6702 10.393 14.6894 10.3957C14.7052 10.3978 14.7209 10.3998 14.7366 10.4023C14.7656 10.4069 14.7944 10.4121 14.823 10.4177C14.8405 10.4212 14.8578 10.4251 14.8752 10.4289C14.8944 10.4332 14.9135 10.4374 14.9325 10.4422C14.9489 10.4462 14.965 10.4506 14.9812 10.455C14.9983 10.4597 15.0154 10.4645 15.0324 10.4695C15.0486 10.4744 15.0648 10.4793 15.081 10.4844C15.0983 10.49 15.1153 10.4959 15.1324 10.5018C15.1476 10.5071 15.1629 10.5122 15.178 10.5177C15.2069 10.5285 15.2356 10.5398 15.264 10.5517C15.2794 10.558 15.2944 10.565 15.3095 10.5716C15.3253 10.5786 15.341 10.5856 15.3566 10.5929C15.3723 10.6002 15.3878 10.6079 15.4034 10.6156C15.4181 10.623 15.4328 10.6305 15.4474 10.6381C15.4627 10.6462 15.478 10.6542 15.4931 10.6625C15.5083 10.671 15.5233 10.6798 15.5383 10.6885C15.5618 10.7022 15.585 10.7163 15.6079 10.7308C15.6241 10.741 15.6403 10.7511 15.6562 10.7617C15.6706 10.7714 15.6847 10.7814 15.6989 10.7913C15.7121 10.8005 15.7253 10.8097 15.7382 10.8192C15.7524 10.8296 15.7665 10.8401 15.7805 10.8508C15.7932 10.8606 15.8057 10.8705 15.8182 10.8805C15.8318 10.8913 15.8454 10.9021 15.8588 10.9133C15.8724 10.9247 15.8856 10.9364 15.8989 10.9481C15.9205 10.967 15.9416 10.9862 15.9624 11.0059C15.9747 11.0174 15.9869 11.0289 15.9989 11.0406C16.0114 11.0529 16.0236 11.0655 16.0358 11.0781C16.0468 11.0895 16.0578 11.1009 16.0686 11.1125C16.0806 11.1253 16.0925 11.1383 16.1042 11.1515C16.1149 11.1635 16.1253 11.1757 16.1357 11.1879C16.1469 11.201 16.1583 11.2141 16.1692 11.2274C16.1843 11.246 16.199 11.2649 16.2136 11.2839C16.2274 11.3021 16.241 11.3204 16.2543 11.339C16.264 11.3524 16.2737 11.3658 16.283 11.3794C16.2929 11.3938 16.3026 11.4084 16.3122 11.423C16.321 11.4365 16.3297 11.45 16.3383 11.4637C16.3475 11.4785 16.3567 11.4933 16.3656 11.5083C16.3743 11.5228 16.3826 11.5376 16.3909 11.5523C16.4011 11.5702 16.4111 11.5881 16.4208 11.6063C16.4332 11.6296 16.4453 11.653 16.4569 11.6768C16.4643 11.6919 16.4712 11.7072 16.4782 11.7224C16.4853 11.7379 16.4925 11.7534 16.4993 11.7691C16.5062 11.7848 16.5128 11.8007 16.5193 11.8167C16.5257 11.8325 16.532 11.8484 16.538 11.8643C16.5441 11.8802 16.5502 11.896 16.5559 11.9119C16.5569 11.9148 16.5581 11.9176 16.5591 11.9205H17.061C17.284 11.9205 17.4648 11.7396 17.4648 11.5167V10.2011C17.4648 9.99708 17.3136 9.82584 17.1115 9.80065L15.3974 9.65369C14.0978 9.49163 13.321 8.89868 12.0594 7.47948L11.6528 7.02268C11.3605 6.6938 10.9428 6.50613 10.5034 6.50613H6.37223C5.83434 6.50613 5.33626 6.78648 5.0572 7.24623L4.97638 7.37909C4.39657 8.33473 3.40018 9.06297 2.37282 9.12823C2.16147 9.14152 1.99507 9.31805 1.99507 9.53121V11.5918H1.99511Z" fill="#232323"></path>
        </g>
        <defs>
            <clipPath id="clip0_581_11824">
                <rect width="18.5636" height="18.5636" fill="white" transform="matrix(-1 0 0 1 19.0117 0.705078)"></rect>
            </clipPath>
        </defs>
    </symbol>
    <symbol fill="none" xmlns="http://www.w3.org/2000/svg" viewBox="0 0 20 20" id="time-distance">
        <path d="M3.71392 9.971L3.71392 9.971C3.7292 6.47615 6.57569 3.63974 10.0588 3.64355C13.5564 3.64737 16.4085 6.5054 16.4009 9.99189C16.3933 13.4858 13.535 16.3377 10.0491 16.3263C6.54606 16.3148 3.69867 13.452 3.71392 9.971Z" stroke="#232323" stroke-width="1.36913"></path>
        <rect x="9.12695" y="10.5781" width="0.687503" height="4.34862" rx="0.343751" transform="rotate(-60.3634 9.12695 10.5781)" fill="#232323" stroke="#232323" stroke-width="0.644294"></rect>
        <rect x="9.12695" y="6.53125" width="0.687503" height="4.138" rx="0.343751" fill="#232323" stroke="#232323" stroke-width="0.644294"></rect>
    </symbol>
    <symbol xmlns="http://www.w3.org/2000/svg" viewBox="0 0 14 9" id="bag-small">
        <path d="M9.5876 0.769474C9.5876 0.593518 9.5228 0.443998 9.39308 0.320824C9.26351 0.197649 9.10596 0.136108 8.92077 0.136108H4.91925C4.73403 0.136108 4.57658 0.197649 4.44686 0.320824C4.31717 0.443929 4.25235 0.593494 4.25235 0.769474V1.8251H3.36312L3.30756 8.69298H10.4214L10.4769 1.8251H9.5876V0.769474ZM8.69844 1.8251H5.14155V0.980604H8.69844V1.8251ZM1.0991 2.26163C0.793433 2.55196 0.640625 2.89946 0.640625 3.30406V7.21806C0.640625 7.62283 0.793433 7.97033 1.0991 8.26056C1.40478 8.55093 1.77067 8.69599 2.19676 8.69599H2.64133V1.82611H2.19676C1.77057 1.82611 1.40471 1.97131 1.0991 2.26163ZM11.5325 1.72656C11.9585 1.72656 12.3244 1.87178 12.6301 2.16209C12.9357 2.45241 13.0886 2.79991 13.0886 3.20452V7.21634C13.0886 7.62108 12.9357 7.96858 12.6301 8.25884C12.3244 8.54923 11.9586 8.69427 11.5325 8.69427H11.0878V1.72656H11.5325Z"></path>
    </symbol>
    <symbol xmlns="http://www.w3.org/2000/svg" viewBox="0 0 13 12" id="bag-big">
        <path d="M9.01052 1.57984C9.01052 1.39458 8.94572 1.23714 8.81601 1.10745C8.68643 0.977761 8.52888 0.912964 8.34369 0.912964H4.34217C4.15695 0.912964 3.9995 0.977761 3.86978 1.10745C3.74009 1.23707 3.67527 1.39455 3.67527 1.57984V2.69132H2.78604V11.5835H9.89985V2.69132H9.01052V1.57984ZM8.12136 2.69132H4.56447V1.80214H8.12136V2.69132ZM0.577551 3.14963C0.271887 3.45532 0.11908 3.8212 0.11908 4.24722V10.0271C0.11908 10.4532 0.271887 10.8191 0.577551 11.1247C0.88324 11.4305 1.24913 11.5832 1.67521 11.5832H2.11979V2.69106H1.67521C1.24903 2.69106 0.883167 2.84394 0.577551 3.14963ZM11.011 2.69104C11.437 2.69104 11.8029 2.84394 12.1086 3.14961C12.4142 3.4553 12.5671 3.82118 12.5671 4.24719V10.027C12.5671 10.4532 12.4142 10.8191 12.1086 11.1247C11.8029 11.4305 11.437 11.5832 11.011 11.5832H10.5663V2.69104H11.011Z"></path>
    </symbol>
    <symbol xmlns="http://www.w3.org/2000/svg" viewBox="0 0 16 17" id="cheapest">
        <path d="M5.12568 8.6115C7.42004 8.60598 9.28027 6.73839 9.27521 4.44541C9.27015 2.13863 7.40394 0.279316 5.10222 0.287134C2.80694 0.294952 0.952687 2.16254 0.960965 4.4592C0.969243 6.75678 2.83499 8.61747 5.12568 8.6115ZM5.44989 6.91406C5.45081 7.28611 5.44392 7.29301 5.07417 7.29163H4.91413C4.78352 7.29209 4.71868 7.23138 4.71178 7.09664C4.70994 7.05968 4.71031 7.02029 4.71069 6.98049C4.71181 6.86083 4.71296 6.73751 4.65429 6.66573C4.60684 6.60746 4.50762 6.59333 4.40618 6.57888C4.35228 6.5712 4.29776 6.56344 4.25006 6.54892C4.0914 6.50063 3.93504 6.44314 3.77959 6.3852C3.65773 6.34013 3.62231 6.24723 3.65589 6.12582C3.68141 6.03337 3.70781 5.94109 3.73422 5.84877C3.75063 5.79139 3.76706 5.73398 3.78327 5.67652C3.81868 5.54959 3.88353 5.53119 4.01184 5.57396C4.29512 5.6687 4.58301 5.75654 4.8755 5.81126C5.00886 5.8361 5.16752 5.7993 5.29859 5.74918C5.63477 5.62041 5.68535 5.24928 5.39655 5.03636C5.30411 4.96819 5.19821 4.91806 5.09258 4.86806C5.05212 4.8489 5.01169 4.82976 4.97207 4.80963C4.88322 4.76447 4.79171 4.72304 4.70024 4.68164C4.50671 4.59403 4.31336 4.50651 4.14566 4.38378C3.45262 3.87607 3.5331 2.87306 4.28225 2.44859C4.36595 2.40076 4.45333 2.35155 4.5453 2.32856C4.72696 2.28303 4.77386 2.16944 4.77248 1.99652C4.77215 1.94856 4.77084 1.90624 4.76968 1.86893C4.76134 1.60001 4.76105 1.59077 5.19236 1.59642C5.45357 1.6001 5.47703 1.6254 5.48209 1.88293C5.48236 1.89906 5.48288 1.91524 5.48341 1.93142C5.48463 1.9692 5.48586 2.007 5.48392 2.04435C5.47795 2.15472 5.52669 2.20577 5.63707 2.22968C5.82097 2.2697 6.0025 2.32232 6.1835 2.37479C6.19804 2.37901 6.21257 2.38322 6.2271 2.38742C6.38024 2.43157 6.42945 2.53137 6.37702 2.68451C6.35407 2.75152 6.33414 2.81943 6.31421 2.88738C6.29939 2.93789 6.28457 2.98842 6.26849 3.03862C6.20272 3.24465 6.17881 3.25569 5.9852 3.17107C5.69363 3.04368 5.39149 2.98481 5.07371 3.02206C4.86492 3.0469 4.7173 3.15451 4.68741 3.31041C4.65016 3.50678 4.76237 3.63279 4.91597 3.71511C5.01838 3.77013 5.12499 3.8175 5.23165 3.86489C5.33092 3.909 5.43024 3.95313 5.52623 4.00346C5.57258 4.02766 5.61981 4.05122 5.66719 4.07485C5.84214 4.16212 6.01911 4.25039 6.16133 4.37596C6.88887 5.01888 6.65341 6.1502 5.73548 6.48867C5.44805 6.5949 5.44805 6.5949 5.44989 6.89797V6.91406ZM4.05079 16.3697C4.05676 16.5849 4.12989 16.7302 4.32488 16.8148H6.68132C6.88137 16.7224 6.96277 16.567 6.9453 16.348C6.93797 16.256 6.93991 16.1634 6.94179 16.0731C6.94263 16.033 6.94346 15.9933 6.94346 15.9544H8.67722C8.67722 15.9953 8.67806 16.0364 8.67891 16.0775C8.68079 16.1685 8.68266 16.2596 8.67538 16.3499C8.65744 16.5697 8.74022 16.7242 8.94165 16.8148H11.3307C11.5257 16.7049 11.5961 16.5343 11.5763 16.3177C11.5737 16.2906 11.5745 16.2634 11.5752 16.2361C11.5758 16.2149 11.5764 16.1936 11.5754 16.1724C11.5391 15.4241 11.8412 14.8313 12.3968 14.3457C13.0208 13.7998 13.5037 13.1473 13.8247 12.3797C13.8454 12.3303 13.8606 12.2738 13.8757 12.2177C13.9058 12.1057 13.9356 11.9951 14.0082 11.9451C14.0873 11.8909 14.2078 11.8974 14.3289 11.9039C14.3846 11.9069 14.4404 11.9098 14.4925 11.9069C14.8332 11.8876 15.1064 11.6227 15.1115 11.2815C15.1202 10.7168 15.1211 10.152 15.111 9.58729C15.105 9.24606 14.8323 8.98208 14.4911 8.96323C14.3568 8.95587 14.222 8.95495 14.0878 8.96185C13.9967 8.96691 13.9539 8.93334 13.924 8.84872C13.5961 7.91745 13.0319 7.15221 12.2845 6.51481C12.2828 6.5133 12.281 6.51178 12.2792 6.51024C12.2371 6.47407 12.1832 6.42779 12.1788 6.38236C12.1728 6.32103 12.1651 6.25918 12.1574 6.19719C12.1323 5.99654 12.1071 5.79433 12.1401 5.60286C12.1843 5.34818 12.2979 5.10233 12.4088 4.86251C12.4192 4.8399 12.4296 4.81734 12.44 4.79484C12.515 4.63066 12.5559 4.48258 12.4519 4.32438C12.3466 4.16388 12.1903 4.12985 12.0128 4.16066C11.9836 4.16573 11.9543 4.17048 11.925 4.17523C11.8321 4.19031 11.7392 4.20539 11.649 4.23056C10.8074 4.4674 10.1769 4.88636 9.9258 5.8167C9.19643 8.51852 6.31112 10.0665 3.63919 9.23594C3.07445 9.06026 2.55892 8.79031 2.07926 8.43344C2.07245 8.44676 2.06593 8.45913 2.05973 8.4709C2.04665 8.4957 2.03498 8.51783 2.025 8.5406C1.64191 9.42817 1.51912 10.3516 1.69756 11.3008C1.91876 12.4758 2.46235 13.4945 3.26852 14.3742C3.78635 14.939 4.03101 15.6132 4.05079 16.3697ZM11.1877 8.54428C11.1817 8.24121 11.4172 7.99885 11.7198 7.99655C12.0247 7.99425 12.2657 8.22925 12.2666 8.53048C12.268 8.83216 12.0289 9.07084 11.7253 9.07084C11.4287 9.07038 11.1937 8.84044 11.1877 8.54428Z"></path>
    </symbol>
    <symbol xmlns="http://www.w3.org/2000/svg" viewBox="0 0 32 32" id="icon-play">
        <path d="M16 0c-8.837 0-16 7.163-16 16s7.163 16 16 16 16-7.163 16-16-7.163-16-16-16zM16 29c-7.18 0-13-5.82-13-13s5.82-13 13-13 13 5.82 13 13-5.82 13-13 13zM12 9l12 7-12 7z"></path>
    </symbol>
    <symbol xmlns="http://www.w3.org/2000/svg" viewBox="0 0 13 10" id="crown">
      <path d="M6.79022 7.28282H6.79095H6.79168C8.53055 7.28282 10.2728 7.28282 12.0151 7.28622C12.1136 7.28622 12.1509 7.26584 12.1679 7.16054C12.2184 6.81751 12.2724 6.47569 12.3265 6.13364C12.3634 5.89989 12.4004 5.66603 12.4363 5.43162C12.4886 5.0868 12.5417 4.7424 12.5948 4.39827C12.6934 3.75932 12.7919 3.12131 12.8846 2.48329C12.8982 2.38479 12.8744 2.2659 12.8269 2.18098C12.708 1.9602 12.4363 1.92963 12.2121 2.09946L12.2118 2.09969C11.4816 2.64648 10.7514 3.19328 10.0246 3.74007C9.65097 4.0186 9.34527 3.96764 9.08372 3.57703C8.89348 3.29059 8.70153 3.00519 8.5096 2.71983C8.0984 2.10845 7.68735 1.49729 7.29366 0.876653C7.03212 0.465653 6.55998 0.455463 6.28824 0.883446C5.89529 1.50524 5.48503 2.11444 5.0746 2.72391C4.88191 3.01005 4.68918 3.29624 4.49818 3.58382C4.24343 3.96765 3.93093 4.0186 3.56409 3.74346C2.8338 3.1932 2.10012 2.64293 1.36983 2.09607C1.19999 1.97039 1.02336 1.9568 0.87391 2.0587C0.710869 2.1674 0.673505 2.32364 0.704075 2.51386C0.791147 3.05122 0.872754 3.5904 0.954231 4.12874C0.983999 4.32542 1.01375 4.52199 1.04374 4.71831C1.0522 4.77271 1.06066 4.82708 1.06911 4.88144C1.1863 5.63507 1.3031 6.38614 1.41398 7.14016C1.43097 7.25904 1.47512 7.28622 1.59061 7.28622C3.32608 7.28282 5.05815 7.28282 6.79022 7.28282ZM12.1497 9.23055V8.18097H1.4331V8.32703V9.29169C1.4331 9.73666 1.65049 9.95405 2.09545 9.95405H11.4873H11.5892C11.8711 9.94726 12.0919 9.76044 12.1361 9.48191C12.1463 9.40039 12.1497 9.31547 12.1497 9.23055Z"></path>
    </symbol>
    <symbol xmlns="http://www.w3.org/2000/svg" viewBox="0 0 15 15" id="calendar">
        <path d="M5.75195 0.413241C5.75195 0.185015 5.93697 0 6.16519 0C6.39342 0 6.57843 0.185014 6.57843 0.41324V1.06665H8.23291V0.413241C8.23291 0.185015 8.41792 0 8.64615 0C8.87438 0 9.05939 0.185014 9.05939 0.41324V1.06665H10.7095V0.413241C10.7095 0.185015 10.8945 0 11.1227 0C11.3509 0 11.536 0.185014 11.536 0.41324V1.06665H13.0319C14.0127 1.06665 14.8078 1.86174 14.8078 2.84254V13.0654C14.8078 14.0462 14.0127 14.8413 13.0319 14.8413H1.77589C0.795094 14.8413 0 14.0462 0 13.0654V2.84254C0 1.86174 0.795093 1.06665 1.77589 1.06665H3.27124V0.413241C3.27124 0.185015 3.45625 0 3.68448 0C3.91271 0 4.09772 0.185014 4.09772 0.41324V1.06665H5.75195V0.413241ZM10.7095 2.0392V2.0662C10.7095 2.29443 10.8945 2.47944 11.1227 2.47944C11.3509 2.47944 11.536 2.29443 11.536 2.0662V2.0392H13.0319C13.4756 2.0392 13.8352 2.39887 13.8352 2.84254V3.82227H0.972554V2.84254C0.972554 2.39887 1.33222 2.0392 1.77589 2.0392H3.27124V2.0662C3.27124 2.29443 3.45625 2.47944 3.68448 2.47944C3.91271 2.47944 4.09772 2.29443 4.09772 2.0662V2.0392H5.75195V2.0662C5.75195 2.29443 5.93697 2.47944 6.16519 2.47944C6.39342 2.47944 6.57843 2.29443 6.57843 2.0662V2.0392H8.23291V2.0662C8.23291 2.29443 8.41792 2.47944 8.64615 2.47944C8.87438 2.47944 9.05939 2.29443 9.05939 2.0662V2.0392H10.7095ZM0.972554 13.0654V4.64875H13.8352V13.0654C13.8352 13.5091 13.4756 13.8688 13.0319 13.8688H1.77589C1.33222 13.8688 0.972554 13.5091 0.972554 13.0654ZM10.0705 6.89572C9.96755 6.99455 9.96693 7.15544 10.0692 7.25507L10.6835 7.85368C10.7796 7.94732 10.9324 7.95351 11.0359 7.87186C11.047 7.86418 11.0575 7.85551 11.0675 7.84584L12.4151 6.53269C12.5111 6.43918 12.5105 6.28816 12.4138 6.19538C12.3172 6.10261 12.161 6.1032 12.065 6.19672L10.8942 7.33756L10.4422 6.89714C10.3399 6.79751 10.1736 6.79688 10.0705 6.89572ZM4.00126 9.83312H2.83282C2.29148 9.83312 1.85265 10.272 1.85265 10.8133V11.9494C1.85265 12.4908 2.29148 12.9296 2.83282 12.9296H4.00126C4.54259 12.9296 4.98142 12.4908 4.98142 11.9494V10.8133C4.98142 10.272 4.54259 9.83312 4.00126 9.83312ZM2.5686 10.8133C2.5686 10.6674 2.6869 10.5491 2.83282 10.5491H4.00126C4.14718 10.5491 4.26547 10.6674 4.26547 10.8133V11.9494C4.26547 12.0953 4.14718 12.2136 4.00126 12.2136H2.83282C2.6869 12.2136 2.5686 12.0953 2.5686 11.9494V10.8133ZM2.83282 5.79357H4.00126C4.54259 5.79357 4.98142 6.2324 4.98142 6.77373V7.90987C4.98142 8.4512 4.54259 8.89004 4.00126 8.89004H2.83282C2.29148 8.89004 1.85265 8.4512 1.85265 7.90987V6.77374C1.85265 6.2324 2.29148 5.79357 2.83282 5.79357ZM2.83282 6.50952C2.6869 6.50952 2.5686 6.62781 2.5686 6.77374V7.90987C2.5686 8.05579 2.6869 8.17409 2.83282 8.17409H4.00126C4.14718 8.17409 4.26547 8.05579 4.26547 7.90987V6.77373C4.26547 6.62781 4.14718 6.50952 4.00126 6.50952H2.83282ZM7.98832 9.83312H6.81988C6.27854 9.83312 5.83971 10.272 5.83971 10.8133V11.9494C5.83971 12.4908 6.27855 12.9296 6.81988 12.9296H7.98832C8.52965 12.9296 8.96848 12.4908 8.96848 11.9494V10.8133C8.96848 10.272 8.52965 9.83312 7.98832 9.83312ZM6.55566 10.8133C6.55566 10.6674 6.67396 10.5491 6.81988 10.5491H7.98832C8.13424 10.5491 8.25253 10.6674 8.25253 10.8133V11.9494C8.25253 12.0953 8.13424 12.2136 7.98832 12.2136H6.81988C6.67396 12.2136 6.55566 12.0953 6.55566 11.9494V10.8133ZM6.81988 5.79357H7.98832C8.52965 5.79357 8.96848 6.2324 8.96848 6.77373V7.90987C8.96848 8.4512 8.52965 8.89004 7.98832 8.89004H6.81988C6.27855 8.89004 5.83971 8.4512 5.83971 7.90987V6.77374C5.83971 6.2324 6.27854 5.79357 6.81988 5.79357ZM6.81988 6.50952C6.67396 6.50952 6.55566 6.62781 6.55566 6.77374V7.90987C6.55566 8.05579 6.67396 8.17409 6.81988 8.17409H7.98832C8.13424 8.17409 8.25253 8.05579 8.25253 7.90987V6.77373C8.25253 6.62781 8.13424 6.50952 7.98832 6.50952H6.81988ZM11.971 9.83312H10.8025C10.2612 9.83312 9.82238 10.272 9.82238 10.8133V11.9494C9.82238 12.4908 10.2612 12.9296 10.8025 12.9296H11.971C12.5123 12.9296 12.9511 12.4908 12.9511 11.9494V10.8133C12.9511 10.272 12.5123 9.83312 11.971 9.83312ZM10.5383 10.8133C10.5383 10.6674 10.6566 10.5491 10.8025 10.5491H11.971C12.1169 10.5491 12.2352 10.6674 12.2352 10.8133V11.9494C12.2352 12.0953 12.1169 12.2136 11.971 12.2136H10.8025C10.6566 12.2136 10.5383 12.0953 10.5383 11.9494V10.8133Z"></path>
    </symbol>
    <symbol xmlns="http://www.w3.org/2000/svg" viewBox="0 0 15 15" id="chat">
        <g clip-path="url(#clip0_1701_14941)">
            <g clip-path="url(#clip1_1701_14941)">
                <path d="M8.09398 0.311768C8.3807 0.359553 8.66741 0.397781 8.95412 0.455124C11.7161 0.980764 14.0194 3.3557 14.5068 6.12248C15.1519 9.79241 12.8295 13.0944 9.47976 14.0788C7.96974 14.5232 6.47883 14.4563 5.01182 13.8828C4.90669 13.8398 4.84457 13.8637 4.75856 13.9211C3.53047 14.7382 2.2546 14.8194 0.940497 14.1457C0.625113 13.9832 0.519985 13.6535 0.696791 13.362C1.35623 12.2677 1.45658 11.1208 1.06952 9.90709C0.892712 9.34322 0.730241 8.76024 0.629891 8.17726C0.414857 6.91572 0.615556 5.68763 1.14597 4.53123C2.16381 2.30442 3.89842 0.942536 6.30203 0.431231C6.56485 0.373889 6.82767 0.349996 7.09527 0.311768C7.42499 0.311768 7.75949 0.311768 8.09398 0.311768ZM1.96788 13.4002C1.95833 13.3954 1.98222 13.405 2.00133 13.4145C2.03478 13.4241 2.06823 13.4337 2.10646 13.4432C2.94271 13.6152 3.69294 13.4289 4.33327 12.8602C4.57219 12.65 4.80634 12.607 5.09783 12.7408C6.18256 13.2425 7.31986 13.3907 8.49538 13.1947C11.6206 12.6691 14.0242 9.71117 13.4268 6.29929C12.9012 3.29836 10.0245 1.09545 6.99492 1.43473C4.95448 1.65932 3.41101 2.68671 2.3884 4.45955C1.75285 5.55861 1.49003 6.75803 1.69551 8.01957C1.79586 8.63122 1.99178 9.23332 2.16381 9.83064C2.3645 10.5474 2.4553 11.269 2.32628 12.0049C2.24504 12.4684 2.09691 12.9224 1.96788 13.4002Z" fill="white" stroke="white" stroke-width="0.477513"></path>
                <path d="M4.41277 8.22381C3.9302 8.22859 3.54797 7.84636 3.54797 7.36858C3.54797 6.89079 3.93498 6.50378 4.40799 6.50378C4.87622 6.50378 5.26323 6.88601 5.268 7.35424C5.27278 7.83681 4.89533 8.21904 4.41277 8.22381Z" fill="white" stroke="white" stroke-width="0.238756"></path>
                <path d="M7.57892 8.22457C7.09635 8.22457 6.7189 7.84234 6.72368 7.36456C6.72846 6.89633 7.10591 6.5141 7.57414 6.50932C8.04237 6.50454 8.43893 6.89633 8.44371 7.36934C8.44849 7.83757 8.0567 8.22457 7.57892 8.22457Z" fill="white" stroke="white" stroke-width="0.238756"></path>
                <path d="M10.7497 8.2247C10.2719 8.2247 9.88491 7.83769 9.88969 7.36469C9.89447 6.89168 10.291 6.49989 10.7593 6.50945C11.2275 6.51423 11.6049 6.89646 11.6049 7.36946C11.6097 7.84725 11.2323 8.2247 10.7497 8.2247Z" fill="white" stroke="white" stroke-width="0.238756"></path>
            </g>
        </g>
        <defs>
            <clipPath id="clip0_1701_14941">
                <rect width="15" height="15"></rect>
            </clipPath>
            <clipPath id="clip1_1701_14941">
                <rect width="15" height="15" transform="translate(0 0.000244141)"></rect>
            </clipPath>
        </defs>
    </symbol>
    <symbol fill="none" xmlns="http://www.w3.org/2000/svg" viewBox="0 0 15 15" id="trash">
        <g clip-path="url(#clip0_1786_13466)">
            <path d="M2.02654 3.41346C1.68594 3.41346 1.36663 3.41346 1.04732 3.41346C0.723752 3.41346 0.493848 3.21505 0.498105 2.94661C0.498105 2.67428 0.728009 2.48364 1.05584 2.48364C5.44104 2.48364 9.83051 2.48364 14.2157 2.48364C14.5435 2.48364 14.7735 2.67428 14.7777 2.94272C14.782 3.21894 14.5478 3.41346 14.2157 3.41346C13.9007 3.41346 13.5814 3.41346 13.2493 3.41346C13.2493 3.48349 13.2493 3.54185 13.2493 3.59631C13.2493 6.69701 13.2493 9.8016 13.2493 12.9023C13.2493 13.7193 12.7043 14.3651 11.8613 14.5519C11.7123 14.583 11.5548 14.5985 11.4058 14.5985C8.90238 14.6024 6.40324 14.6024 3.89984 14.5985C2.80992 14.5985 2.03506 13.8866 2.0308 12.8906C2.0308 9.79382 2.0308 6.69701 2.0308 3.6002C2.02654 3.54574 2.02654 3.48738 2.02654 3.41346ZM3.04834 3.42124C3.04834 3.47571 3.04834 3.5185 3.04834 3.5613C3.04834 6.67756 3.04834 9.79382 3.04834 12.9101C3.04834 13.3769 3.37191 13.6687 3.88706 13.6687C6.37769 13.6687 8.86832 13.6687 11.3589 13.6687C11.9167 13.6687 12.2232 13.3847 12.2232 12.8751C12.2232 9.77826 12.2232 6.68145 12.2232 3.58464C12.2232 3.53407 12.2232 3.4796 12.2232 3.42124C9.16209 3.42124 6.11798 3.42124 3.04834 3.42124Z" fill="#EB3800" stroke="#EB3800" stroke-width="0.3"></path>
            <path d="M7.63387 1.54992C6.97396 1.54992 6.3183 1.54992 5.65839 1.54992C5.32205 1.54992 5.08789 1.35929 5.08789 1.08307C5.08789 0.806843 5.31779 0.616211 5.65839 0.616211C6.98247 0.616211 8.30229 0.616211 9.62637 0.616211C9.95845 0.616211 10.1926 0.814624 10.1884 1.09085C10.1841 1.35929 9.95419 1.54992 9.62637 1.54992C8.9622 1.54992 8.29803 1.54992 7.63387 1.54992Z" fill="#EB3800" stroke="#EB3800" stroke-width="0.3"></path>
            <path d="M5.43652 8.53252C5.43652 7.60659 5.43652 6.67677 5.43652 5.75084C5.43652 5.51352 5.60682 5.32678 5.85376 5.28399C6.0794 5.24508 6.32208 5.3579 6.41149 5.56021C6.44129 5.63024 6.45832 5.71194 6.45832 5.78585C6.46258 7.62215 6.46258 9.45456 6.45832 11.2909C6.45832 11.5904 6.24545 11.8005 5.95168 11.8005C5.6494 11.8044 5.44078 11.5904 5.44078 11.2831C5.43652 10.3649 5.43652 9.45067 5.43652 8.53252Z" fill="#EB3800" stroke="#EB3800" stroke-width="0.3"></path>
            <path d="M9.83883 8.54441C9.83883 9.47034 9.83883 10.4002 9.83883 11.3261C9.83883 11.5556 9.68556 11.7307 9.45565 11.7852C9.24704 11.8357 9.01288 11.754 8.90644 11.579C8.85535 11.4973 8.82555 11.3961 8.82555 11.3027C8.82129 9.45866 8.82129 7.61459 8.82129 5.77051C8.82129 5.48261 9.03842 5.27642 9.32793 5.27642C9.6217 5.27253 9.83883 5.48261 9.83883 5.77829C9.83883 6.70033 9.83883 7.62237 9.83883 8.54441Z" fill="#EB3800" stroke="#EB3800" stroke-width="0.3"></path>
        </g>
        <defs>
            <clipPath id="clip0_1786_13466">
                <rect width="15" height="15" fill="white"></rect>
            </clipPath>
        </defs>
    </symbol>
    <symbol xmlns="http://www.w3.org/2000/svg" viewBox="0 0 15 15" id="trash">
        <path d="M5.65825 1.54992H7.63372H9.62622C9.95405 1.54992 10.184 1.35929 10.1882 1.09085C10.1925 0.814624 9.9583 0.616211 9.62622 0.616211H5.65825C5.31765 0.616211 5.08774 0.806843 5.08774 1.08307C5.08774 1.35929 5.3219 1.54992 5.65825 1.54992ZM1.04732 3.41358H2.02654V3.41359C2.02654 3.4875 2.02654 3.54586 2.0308 3.60032V12.8907C2.03506 13.8867 2.80992 14.5987 3.89984 14.5987C6.40324 14.6025 8.90238 14.6025 11.4058 14.5987C11.5548 14.5987 11.7123 14.5831 11.8613 14.552C12.7043 14.3652 13.2493 13.7194 13.2493 12.9024V3.59643V3.41358H14.2157C14.5478 3.41358 14.782 3.21906 14.7777 2.94283C14.7735 2.67439 14.5435 2.48376 14.2157 2.48376H1.05584C0.728009 2.48376 0.498105 2.67439 0.498105 2.94673C0.493848 3.21517 0.723752 3.41358 1.04732 3.41358ZM3.04834 3.56142V3.42136H12.2232V3.58476V12.8752C12.2232 13.3848 11.9167 13.6688 11.3589 13.6688H3.88706C3.37191 13.6688 3.04834 13.377 3.04834 12.9102V3.56142ZM5.43653 8.53259V5.75091C5.43653 5.51359 5.60683 5.32685 5.85376 5.28405C6.07941 5.24515 6.32208 5.35797 6.41149 5.56028C6.44129 5.6303 6.45832 5.712 6.45832 5.78592C6.46258 7.62222 6.46258 9.45463 6.45832 11.2909C6.45832 11.5905 6.24545 11.8006 5.95168 11.8006C5.6494 11.8045 5.44078 11.5905 5.44078 11.2831C5.43653 10.365 5.43653 9.45074 5.43653 8.53259ZM9.83891 11.3262V8.5445V5.77838C9.83891 5.48271 9.62178 5.27262 9.32801 5.27651C9.0385 5.27651 8.82137 5.48271 8.82137 5.7706C8.82137 7.61468 8.82137 9.45876 8.82563 11.3028C8.82563 11.3962 8.85543 11.4974 8.90652 11.5791C9.01296 11.7541 9.24712 11.8358 9.45573 11.7853C9.68564 11.7308 9.83891 11.5557 9.83891 11.3262Z"></path>
        <path d="M10.1882 1.09085L10.3382 1.09323L10.3382 1.09316L10.1882 1.09085ZM2.02654 3.41358H2.17654V3.26358H2.02654V3.41358ZM2.0308 3.60032L2.18126 3.60032L2.18034 3.58863L2.0308 3.60032ZM2.0308 12.8907L1.8808 12.8907L1.8808 12.8914L2.0308 12.8907ZM3.89984 14.5987L3.90007 14.4487H3.89984V14.5987ZM11.4058 14.5987L11.4058 14.4487L11.4055 14.4487L11.4058 14.5987ZM11.8613 14.552L11.892 14.6988L11.8938 14.6984L11.8613 14.552ZM13.2493 3.41358V3.26358H13.0993V3.41358H13.2493ZM14.7777 2.94283L14.9277 2.94052L14.9277 2.94046L14.7777 2.94283ZM0.498105 2.94673L0.648105 2.9491V2.94673H0.498105ZM3.04834 3.42136V3.27136H2.89834V3.42136H3.04834ZM12.2232 3.42136H12.3732V3.27136H12.2232V3.42136ZM5.85376 5.28405L5.82828 5.13623L5.82815 5.13626L5.85376 5.28405ZM6.41149 5.56028L6.54953 5.50153L6.54869 5.49964L6.41149 5.56028ZM6.45832 5.78592H6.30832L6.30832 5.78627L6.45832 5.78592ZM6.45832 11.2909L6.30832 11.2906V11.2909H6.45832ZM5.95168 11.8006L5.95168 11.6506L5.94975 11.6506L5.95168 11.8006ZM5.44078 11.2831L5.59079 11.2831L5.59078 11.2824L5.44078 11.2831ZM9.32801 5.27651V5.42653L9.33 5.4265L9.32801 5.27651ZM8.82563 11.3028L8.97563 11.3028L8.97563 11.3025L8.82563 11.3028ZM8.90652 11.5791L9.0347 11.5011L9.0337 11.4995L8.90652 11.5791ZM9.45573 11.7853L9.42115 11.6393L9.42039 11.6395L9.45573 11.7853ZM7.63372 1.39992H5.65825V1.69992H7.63372V1.39992ZM9.62622 1.39992H7.63372V1.69992H9.62622V1.39992ZM10.0382 1.08847C10.0357 1.25084 9.89862 1.39992 9.62622 1.39992V1.69992C10.0095 1.69992 10.3323 1.46774 10.3382 1.09323L10.0382 1.08847ZM9.62622 0.766211C9.90171 0.766211 10.0408 0.920866 10.0382 1.08854L10.3382 1.09316C10.3441 0.708383 10.0149 0.466211 9.62622 0.466211V0.766211ZM5.65825 0.766211H9.62622V0.466211H5.65825V0.766211ZM5.23774 1.08307C5.23774 0.990055 5.27495 0.915792 5.34048 0.861963C5.40829 0.80626 5.51497 0.766211 5.65825 0.766211V0.466211C5.46093 0.466211 5.28235 0.521478 5.15006 0.630147C5.01549 0.74069 4.93774 0.899855 4.93774 1.08307H5.23774ZM5.65825 1.39992C5.51746 1.39992 5.41048 1.36006 5.34178 1.30392C5.27529 1.2496 5.23774 1.17518 5.23774 1.08307H4.93774C4.93774 1.26718 5.01727 1.42618 5.15196 1.53623C5.28442 1.64447 5.46269 1.69992 5.65825 1.69992V1.39992ZM2.02654 3.26358H1.04732V3.56358H2.02654V3.26358ZM2.17654 3.41359V3.41358H1.87654V3.41359H2.17654ZM2.18034 3.58863C2.17663 3.54118 2.17654 3.48913 2.17654 3.41359H1.87654C1.87654 3.48587 1.87645 3.55054 1.88126 3.61201L2.18034 3.58863ZM2.1808 12.8907V3.60032H1.8808V12.8907H2.1808ZM3.89984 14.4487C2.88039 14.4487 2.18465 13.7918 2.1808 12.8901L1.8808 12.8914C1.88546 13.9816 2.73945 14.7487 3.89984 14.7487V14.4487ZM11.4055 14.4487C8.9023 14.4525 6.40331 14.4525 3.90007 14.4487L3.8996 14.7487C6.40316 14.7525 8.90246 14.7525 11.406 14.7487L11.4055 14.4487ZM11.8307 14.4051C11.6921 14.4341 11.5448 14.4487 11.4058 14.4487V14.7487C11.5647 14.7487 11.7326 14.7321 11.892 14.6988L11.8307 14.4051ZM13.0993 12.9024C13.0993 13.6431 12.6092 14.2327 11.8289 14.4055L11.8938 14.6984C12.7995 14.4978 13.3993 13.7957 13.3993 12.9024H13.0993ZM13.0993 3.59643V12.9024H13.3993V3.59643H13.0993ZM13.0993 3.41358V3.59643H13.3993V3.41358H13.0993ZM14.2157 3.26358H13.2493V3.56358H14.2157V3.26358ZM14.6277 2.94515C14.6291 3.03677 14.5924 3.11175 14.5267 3.16669C14.4589 3.22333 14.3533 3.26358 14.2157 3.26358V3.56358C14.4102 3.56358 14.5878 3.50657 14.719 3.3969C14.8523 3.28552 14.9305 3.12512 14.9277 2.94052L14.6277 2.94515ZM14.2157 2.63376C14.4881 2.63376 14.6252 2.78284 14.6277 2.94521L14.9277 2.94046C14.9217 2.56595 14.599 2.33376 14.2157 2.33376V2.63376ZM1.05584 2.63376H14.2157V2.33376H1.05584V2.63376ZM0.648105 2.94673C0.648105 2.85614 0.684973 2.78237 0.749824 2.72855C0.816617 2.67312 0.920208 2.63376 1.05584 2.63376V2.33376C0.863636 2.33376 0.688362 2.38971 0.558247 2.49769C0.426189 2.60727 0.348105 2.76498 0.348105 2.94673H0.648105ZM1.04732 3.26358C0.781817 3.26358 0.645532 3.11018 0.648086 2.9491L0.348124 2.94435C0.342164 3.32015 0.665687 3.56358 1.04732 3.56358V3.26358ZM2.89834 3.42136V3.56142H3.19834V3.42136H2.89834ZM12.2232 3.27136H3.04834V3.57136H12.2232V3.27136ZM12.3732 3.58476V3.42136H12.0732V3.58476H12.3732ZM12.3732 12.8752V3.58476H12.0732V12.8752H12.3732ZM11.3589 13.8188C11.6616 13.8188 11.9191 13.7417 12.1018 13.5735C12.2865 13.4035 12.3732 13.1606 12.3732 12.8752H12.0732C12.0732 13.0994 12.0067 13.2533 11.8986 13.3528C11.7887 13.454 11.614 13.5188 11.3589 13.5188V13.8188ZM3.88706 13.8188H11.3589V13.5188H3.88706V13.8188ZM2.89834 12.9102C2.89834 13.1801 2.99301 13.4124 3.17394 13.5759C3.35315 13.7378 3.60188 13.8188 3.88706 13.8188V13.5188C3.65709 13.5188 3.48646 13.4539 3.37509 13.3533C3.26545 13.2542 3.19834 13.1072 3.19834 12.9102H2.89834ZM2.89834 3.56142V12.9102H3.19834V3.56142H2.89834ZM5.28653 5.75091V8.53259H5.58653V5.75091H5.28653ZM5.82815 5.13626C5.51789 5.19003 5.28653 5.43227 5.28653 5.75091H5.58653C5.58653 5.59491 5.69577 5.46367 5.87938 5.43185L5.82815 5.13626ZM6.54869 5.49964C6.42752 5.22547 6.1116 5.08739 5.82828 5.13623L5.87925 5.43187C6.04722 5.40291 6.21665 5.49048 6.27429 5.62091L6.54869 5.49964ZM6.60832 5.78592C6.60832 5.69107 6.58692 5.58944 6.54951 5.50154L6.27347 5.61901C6.29567 5.67117 6.30832 5.73294 6.30832 5.78592H6.60832ZM6.60832 11.2913C6.61258 9.45474 6.61258 7.6221 6.60832 5.78557L6.30832 5.78627C6.31258 7.62234 6.31258 9.45451 6.30832 11.2906L6.60832 11.2913ZM5.95168 11.9506C6.32834 11.9506 6.60832 11.6733 6.60832 11.2909H6.30832C6.30832 11.5077 6.16256 11.6506 5.95168 11.6506V11.9506ZM5.29078 11.2831C5.29078 11.4713 5.35518 11.641 5.47595 11.7638C5.59709 11.8869 5.76536 11.953 5.95361 11.9506L5.94975 11.6506C5.83572 11.6521 5.74855 11.6131 5.68981 11.5534C5.6307 11.4933 5.59078 11.4023 5.59078 11.2831H5.29078ZM5.28653 8.53259C5.28653 9.45068 5.28653 10.3653 5.29079 11.2838L5.59078 11.2824C5.58653 10.3647 5.58653 9.45079 5.58653 8.53259H5.28653ZM9.68891 8.5445V11.3262H9.98891V8.5445H9.68891ZM9.68891 5.77838V8.5445H9.98891V5.77838H9.68891ZM9.33 5.4265C9.54145 5.4237 9.68891 5.56762 9.68891 5.77838H9.98891C9.98891 5.3978 9.70211 5.12155 9.32602 5.12653L9.33 5.4265ZM8.97137 5.7706C8.97137 5.57018 9.11664 5.42651 9.32801 5.42651V5.12651C8.96036 5.12651 8.67137 5.39524 8.67137 5.7706H8.97137ZM8.97563 11.3025C8.97137 9.45861 8.97137 7.61471 8.97137 5.7706H8.67137C8.67137 7.61465 8.67137 9.4589 8.67563 11.3032L8.97563 11.3025ZM9.0337 11.4995C8.99686 11.4406 8.97563 11.3669 8.97563 11.3028H8.67563C8.67563 11.4255 8.71399 11.5541 8.77934 11.6586L9.0337 11.4995ZM9.42039 11.6395C9.26505 11.6771 9.10206 11.6119 9.03469 11.5011L8.77835 11.657C8.92385 11.8963 9.22918 11.9945 9.49108 11.931L9.42039 11.6395ZM9.68891 11.3262C9.68891 11.4779 9.59178 11.5989 9.42116 11.6393L9.49031 11.9312C9.7795 11.8627 9.98891 11.6335 9.98891 11.3262H9.68891Z"></path>
    </symbol>
    <symbol xmlns="http://www.w3.org/2000/svg" viewBox="0 0 24 14" id="icon-bus">
      <path fill-rule="evenodd" clip-rule="evenodd" d="M22.1975 1.21975L23.5305 3.21926C23.5921 3.31164 23.625 3.4202 23.625 3.53126V8.96877H20.472C19.953 8.48669 19.2708 8.21876 18.5625 8.21876C17.8542 8.21876 17.172 8.48669 16.653 8.96877H6.97195C6.45297 8.48669 5.77084 8.21876 5.0625 8.21876C4.35416 8.21876 3.67203 8.48669 3.15305 8.96877H0V1.84375C0.000347365 1.54549 0.118985 1.25954 0.329889 1.04864C0.540792 0.837737 0.826738 0.719099 1.125 0.718751H21.2615C21.4467 0.718546 21.6291 0.764187 21.7925 0.851603C21.9558 0.93902 22.0949 1.0655 22.1975 1.21975ZM9.02275 4.86651C9.12824 4.76102 9.1875 4.61794 9.1875 4.46876V2.125C9.1875 1.97582 9.12824 1.83275 9.02275 1.72726C8.91726 1.62177 8.77419 1.5625 8.625 1.5625H2.8125C2.66332 1.5625 2.52024 1.62177 2.41475 1.72726C2.30926 1.83275 2.25 1.97582 2.25 2.125V4.46876C2.25 4.61794 2.30926 4.76102 2.41475 4.86651C2.52024 4.972 2.66332 5.03126 2.8125 5.03126H8.625C8.77419 5.03126 8.91726 4.972 9.02275 4.86651ZM17.2727 4.86651C17.3782 4.76102 17.4375 4.61794 17.4375 4.46876V2.125C17.4375 1.97582 17.3782 1.83275 17.2727 1.72726C17.1673 1.62177 17.0242 1.5625 16.875 1.5625H10.875C10.7258 1.5625 10.5827 1.62177 10.4773 1.72726C10.3718 1.83275 10.3125 1.97582 10.3125 2.125V4.46876C10.3125 4.61794 10.3718 4.76102 10.4773 4.86651C10.5827 4.972 10.7258 5.03126 10.875 5.03126H16.875C17.0242 5.03126 17.1673 4.972 17.2727 4.86651ZM20.625 7.09376C20.625 7.09376 22.6288 7.08172 22.6875 7.06095V3.53126C22.6875 3.4202 22.6546 3.31164 22.593 3.21926L21.301 1.5625H20.625C20.4758 1.5625 20.3327 1.62177 20.2273 1.72726C20.1218 1.83275 20.0625 1.97582 20.0625 2.125V6.53126C20.0625 6.68045 20.1218 6.82352 20.2273 6.92901C20.3327 7.0345 20.4758 7.09376 20.625 7.09376ZM3.81245 9.16046C4.18246 8.91323 4.61747 8.78127 5.06248 8.78127C5.65901 8.78195 6.23091 9.01922 6.65272 9.44103C7.07453 9.86284 7.3118 10.4347 7.31248 11.0313C7.31248 11.4763 7.18052 11.9113 6.93329 12.2813C6.68606 12.6513 6.33465 12.9397 5.92352 13.11C5.51239 13.2803 5.05999 13.3248 4.62353 13.238C4.18707 13.1512 3.78616 12.9369 3.47149 12.6223C3.15682 12.3076 2.94253 11.9067 2.85572 11.4702C2.7689 11.0338 2.81346 10.5814 2.98375 10.1702C3.15405 9.75909 3.44244 9.40769 3.81245 9.16046ZM4.43747 11.9667C4.62247 12.0903 4.83998 12.1563 5.06248 12.1563C5.36085 12.1563 5.647 12.0377 5.85798 11.8268C6.06896 11.6158 6.18748 11.3296 6.18748 11.0313C6.18748 10.8088 6.1215 10.5913 5.99789 10.4062C5.87427 10.2212 5.69857 10.077 5.493 9.9919C5.28743 9.90675 5.06123 9.88447 4.84301 9.92788C4.62478 9.97129 4.42432 10.0784 4.26699 10.2358C4.10965 10.3931 4.00251 10.5936 3.9591 10.8118C3.91569 11.03 3.93797 11.2562 4.02312 11.4618C4.10827 11.6673 4.25246 11.843 4.43747 11.9667ZM21.375 11.0313C21.3754 11.4889 21.2635 11.9396 21.0489 12.3438H22.5C22.7983 12.3434 23.0842 12.2248 23.2951 12.0139C23.506 11.803 23.6247 11.517 23.625 11.2188V10.0938H21.2138C21.3206 10.3948 21.3752 10.7119 21.375 11.0313ZM0 10.0938H2.41125C2.28148 10.4598 2.22912 10.8488 2.2575 11.2361C2.28588 11.6234 2.39437 12.0006 2.57611 12.3438H1.125C0.826738 12.3434 0.540792 12.2248 0.329889 12.0139C0.118985 11.803 0.000347365 11.517 0 11.2188V10.0938ZM15.9113 10.0938H7.71378C7.84355 10.4598 7.89591 10.8488 7.86753 11.2361C7.83915 11.6234 7.73066 12.0006 7.54892 12.3438H16.0761C15.8944 12.0006 15.7859 11.6234 15.7575 11.2361C15.7292 10.8488 15.7815 10.4598 15.9113 10.0938ZM17.3124 9.16046C17.6824 8.91323 18.1175 8.78127 18.5625 8.78127C19.159 8.78195 19.7309 9.01922 20.1527 9.44103C20.5745 9.86284 20.8118 10.4347 20.8125 11.0313C20.8125 11.4763 20.6805 11.9113 20.4333 12.2813C20.186 12.6513 19.8346 12.9397 19.4235 13.11C19.0124 13.2803 18.56 13.3248 18.1235 13.238C17.6871 13.1512 17.2861 12.9369 16.9715 12.6223C16.6568 12.3076 16.4425 11.9067 16.3557 11.4702C16.2689 11.0338 16.3134 10.5814 16.4837 10.1702C16.654 9.75909 16.9424 9.40769 17.3124 9.16046ZM17.9375 11.9667C18.1225 12.0903 18.34 12.1563 18.5625 12.1563C18.8608 12.1563 19.147 12.0377 19.358 11.8268C19.5689 11.6158 19.6875 11.3296 19.6875 11.0313C19.6875 10.8088 19.6215 10.5913 19.4979 10.4062C19.3743 10.2212 19.1986 10.077 18.993 9.9919C18.7874 9.90675 18.5612 9.88447 18.343 9.92788C18.1248 9.97129 17.9243 10.0784 17.767 10.2358C17.6096 10.3931 17.5025 10.5936 17.4591 10.8118C17.4157 11.03 17.438 11.2562 17.5231 11.4618C17.6083 11.6673 17.7524 11.843 17.9375 11.9667Z"></path>
    </symbol>
    <symbol xmlns="http://www.w3.org/2000/svg" viewBox="0 0 24 12" id="icon-train">
      <path fill-rule="evenodd" clip-rule="evenodd" d="M9.18746 3.9375H20.0884C19.6223 2.93051 18.8779 2.07778 17.9431 1.47981C17.0084 0.881843 15.9221 0.563569 14.8125 0.5625H8.75621C9.03405 0.871314 9.18769 1.27209 9.18746 1.6875V3.9375ZM9.60938 9.14062C9.92004 9.14062 10.1719 8.88879 10.1719 8.57812C10.1719 8.26746 9.92004 8.01562 9.60938 8.01562C9.29871 8.01562 9.04688 8.26746 9.04688 8.57812C9.04688 8.88879 9.29871 9.14062 9.60938 9.14062ZM23.0625 10.3125H0.5625C0.413316 10.3125 0.270242 10.3718 0.164752 10.4773C0.0592632 10.5827 0 10.7258 0 10.875C0 11.0242 0.0592632 11.1673 0.164752 11.2727C0.270242 11.3782 0.413316 11.4375 0.5625 11.4375H23.0625C23.2117 11.4375 23.3548 11.3782 23.4602 11.2727C23.5657 11.1673 23.625 11.0242 23.625 10.875C23.625 10.7258 23.5657 10.5827 23.4602 10.4773C23.3548 10.3718 23.2117 10.3125 23.0625 10.3125ZM15.3281 8.57812C15.3281 8.88879 15.0763 9.14062 14.7656 9.14062C14.455 9.14062 14.2031 8.88879 14.2031 8.57812C14.2031 8.26746 14.455 8.01562 14.7656 8.01562C15.0763 8.01562 15.3281 8.26746 15.3281 8.57812ZM2.91562 0.5625C2.63778 0.871314 2.48415 1.27209 2.48438 1.6875V3.9375H0V0.5625H2.91562ZM4.17188 7.5H4.21552L5.41477 9.02273C5.52025 9.12822 5.66332 9.18749 5.8125 9.1875H8.0362C7.93696 8.93178 7.90154 8.65573 7.93303 8.38324C7.96451 8.11075 8.06195 7.85004 8.2169 7.6237C8.37185 7.39735 8.57964 7.21219 8.82227 7.08425C9.06491 6.9563 9.33507 6.88944 9.60938 6.88944C9.88368 6.88944 10.1538 6.9563 10.3965 7.08425C10.6391 7.21219 10.8469 7.39735 11.0019 7.6237C11.1568 7.85004 11.2542 8.11075 11.2857 8.38324C11.3172 8.65573 11.2818 8.93178 11.1825 9.1875H13.1925C13.0932 8.93178 13.0578 8.65573 13.0893 8.38324C13.1208 8.11075 13.2182 7.85004 13.3731 7.6237C13.5281 7.39735 13.7359 7.21219 13.9785 7.08425C14.2212 6.9563 14.4913 6.88944 14.7656 6.88944C15.0399 6.88944 15.3101 6.9563 15.5527 7.08425C15.7954 7.21219 16.0032 7.39735 16.1581 7.6237C16.313 7.85004 16.4105 8.11075 16.442 8.38324C16.4735 8.65573 16.438 8.93178 16.3388 9.1875H18.9609C19.1856 9.18822 19.4081 9.14372 19.6152 9.05667C19.8223 8.96962 20.0098 8.84179 20.1665 8.68078C20.4866 8.35397 20.6576 7.35966 20.6481 6.90234L20.6369 6.375H8.625V1.6875C8.62465 1.38924 8.50601 1.10329 8.29511 0.892389C8.08421 0.681486 7.79826 0.562847 7.5 0.5625H4.17188C3.87361 0.562847 3.58767 0.681486 3.37676 0.892389C3.16586 1.10329 3.04722 1.38924 3.04688 1.6875V6.375C3.04722 6.67326 3.16586 6.95921 3.37676 7.17011C3.58767 7.38101 3.87361 7.49965 4.17188 7.5ZM6.42188 1.6875H7.5L7.5007 6.375H6.42188V1.6875ZM4.17188 1.6875H5.29688V6.375H4.17188V1.6875ZM20.5977 5.8125H9.1875V4.45312H20.298C20.4524 4.89249 20.5531 5.34894 20.5977 5.8125ZM2.48438 4.45312H0V5.8125H2.48438V4.45312ZM4.23783 8.4375H0.5625C0.413316 8.4375 0.270242 8.37824 0.164752 8.27275C0.0592632 8.16726 0 8.02418 0 7.875V6.375H2.48438C2.48487 6.7803 2.631 7.17193 2.89614 7.47848C3.16127 7.78504 3.52774 7.9861 3.92873 8.04502L4.23783 8.4375Z"></path>
    </symbol>
    <symbol xmlns="http://www.w3.org/2000/svg" viewBox="0 0 21 16" id="icon-mail">
      <path d="M20.8931 2.63354C20.878 2.5785 20.858 2.52347 20.843 2.46343C20.803 2.32335 20.768 2.17825 20.6979 2.03817C20.3177 1.26769 19.6673 0.877441 18.7717 0.877441C16.7305 0.877441 14.6842 0.877441 12.6429 0.877441H9.00563H6.99937C5.37336 0.877441 3.74234 0.877441 2.11632 0.877441C0.89556 0.882445 0.00500313 1.74799 0.00500313 2.94373C0 6.06569 0 9.23767 0 12.3046V13.6454C0 14.1207 0.140088 14.546 0.410256 14.9012C0.825516 15.4415 1.40588 15.7117 2.13634 15.7117C5.87867 15.7117 9.62101 15.7117 13.3634 15.7117H18.7667H18.7917C18.8268 15.7117 18.8618 15.7117 18.8968 15.7117C19.6123 15.6767 20.1526 15.3915 20.5028 14.8662C20.6329 14.6711 20.7129 14.4509 20.788 14.2358C20.818 14.1507 20.853 14.0607 20.8831 13.9756L20.8981 13.9356V2.66856L20.8931 2.63354ZM19.247 3.67919V12.895L14.6592 8.33711L19.247 3.67919ZM9.2758 8.94749C7.61976 7.30146 5.94372 5.63542 4.3227 4.01941L2.82677 2.53348H18.0763L16.9956 3.60915C15.3396 5.25518 13.4634 7.12135 11.6373 8.93748C10.9168 9.65293 9.99124 9.65293 9.2758 8.94749ZM7.45466 9.4428L7.55472 9.54286C7.74484 9.73798 7.92996 9.9231 8.11007 10.1082C8.55535 10.5585 9.03064 10.8437 9.56098 10.9888C10.7767 11.314 11.8524 11.0288 12.768 10.1432C12.9631 9.95812 13.1432 9.768 13.3383 9.56287L13.3483 9.55287C13.3834 9.51784 13.4184 9.48282 13.4534 9.4428L17.9562 14.0407H2.94684L7.45466 9.4428ZM6.15885 8.3271L1.66604 12.905V3.76425L6.15885 8.3271Z"></path>
    </symbol>
  <symbol xmlns="http://www.w3.org/2000/svg" viewBox="0 0 24 14" id="icon-taxi">
    <path d="M12.1414 0.106174C12.2372 0.175202 12.3088 0.272613 12.3462 0.384609L12.7806 1.6875H7.84462L8.27892 0.384375C8.31629 0.272422 8.38794 0.175062 8.48371 0.106079C8.57948 0.0370957 8.69452 -1.53079e-05 8.81255 4.7368e-09H11.8126C11.9306 4.7368e-09 12.0457 0.0371463 12.1414 0.106174ZM23.1606 6.75856L18.8331 5.99225L15.3721 2.57454C15.162 2.36593 14.8776 2.24919 14.5815 2.24993H5.86228C5.52794 2.24922 5.20098 2.34815 4.92312 2.53409C4.64525 2.72003 4.4291 2.98455 4.30223 3.29388L3.18605 5.99993H1.125C0.826738 6.00028 0.540792 6.11892 0.329889 6.32982C0.118985 6.54073 0.000347365 6.82667 0 7.12494V10.4999C0.000347365 10.7982 0.118985 11.0842 0.329889 11.2951C0.540792 11.506 0.826738 11.6246 1.125 11.6249H2.49117C2.40797 11.191 2.42164 10.744 2.53122 10.316C2.6408 9.88796 2.84357 9.48941 3.12506 9.14883C3.40654 8.80825 3.75977 8.53405 4.15952 8.34583C4.55927 8.1576 4.99566 8.06 5.4375 8.06C5.87934 8.06 6.31573 8.1576 6.71548 8.34583C7.11523 8.53405 7.46846 8.80825 7.74994 9.14883C8.03143 9.48941 8.2342 9.88796 8.34378 10.316C8.45336 10.744 8.46703 11.191 8.38383 11.6249H15.9912C15.908 11.191 15.9216 10.744 16.0312 10.316C16.1408 9.88796 16.3436 9.48941 16.6251 9.14883C16.9065 8.80825 17.2598 8.53405 17.6595 8.34583C18.0593 8.1576 18.4957 8.06 18.9375 8.06C19.3793 8.06 19.8157 8.1576 20.2155 8.34583C20.6152 8.53405 20.9685 8.80825 21.2499 9.14883C21.5314 9.48941 21.7342 9.88796 21.8438 10.316C21.9534 10.744 21.967 11.191 21.8838 11.6249H21.9375C22.3849 11.6244 22.8138 11.4465 23.1302 11.1301C23.4466 10.8138 23.6245 10.3848 23.625 9.93744V7.31244C23.625 7.18027 23.5785 7.05232 23.4935 6.95104C23.4086 6.84976 23.2908 6.78161 23.1606 6.75856ZM6.23438 5.43743C6.23438 5.58662 6.17511 5.72969 6.06962 5.83518C5.96413 5.94067 5.82106 5.99993 5.67188 5.99993H4.35628C4.31006 5.99994 4.26456 5.98855 4.22379 5.96678C4.18302 5.94501 4.14824 5.91353 4.12253 5.87512C4.09683 5.83671 4.08098 5.79255 4.0764 5.74656C4.07182 5.70057 4.07864 5.65416 4.09627 5.61143L4.87528 3.72293C4.91776 3.61995 4.98986 3.5319 5.08244 3.46995C5.17502 3.40799 5.28391 3.37492 5.39531 3.37493H5.67188C5.82106 3.37493 5.96413 3.43419 6.06962 3.53968C6.17511 3.64517 6.23438 3.78825 6.23438 3.93743V5.43743ZM11.0625 5.43743C11.0625 5.58662 11.0032 5.72969 10.8977 5.83518C10.7923 5.94067 10.6492 5.99993 10.5 5.99993H7.73438C7.58519 5.99993 7.44212 5.94067 7.33663 5.83518C7.23114 5.72969 7.17188 5.58662 7.17188 5.43743V3.93743C7.17188 3.78825 7.23114 3.64517 7.33663 3.53968C7.44212 3.43419 7.58519 3.37493 7.73438 3.37493H10.5C10.6492 3.37493 10.7923 3.43419 10.8977 3.53968C11.0032 3.64517 11.0625 3.78825 11.0625 3.93743V5.43743ZM13.3125 8.06244H12.5625C12.4133 8.06244 12.2702 8.00317 12.1648 7.89769C12.0593 7.7922 12 7.64912 12 7.49994C12 7.35075 12.0593 7.20768 12.1648 7.10219C12.2702 6.9967 12.4133 6.93744 12.5625 6.93744H13.3125C13.4617 6.93744 13.6048 6.9967 13.7102 7.10219C13.8157 7.20768 13.875 7.35075 13.875 7.49994C13.875 7.64912 13.8157 7.7922 13.7102 7.89769C13.6048 8.00317 13.4617 8.06244 13.3125 8.06244ZM17.2474 5.99993H12.5625C12.4133 5.99993 12.2702 5.94067 12.1648 5.83518C12.0593 5.72969 12 5.58662 12 5.43743V3.93743C12 3.78825 12.0593 3.64517 12.1648 3.53968C12.2702 3.43419 12.4133 3.37493 12.5625 3.37493H15.0165C15.1632 3.37494 15.304 3.43223 15.409 3.53459L17.4437 5.5174C17.4837 5.55645 17.5112 5.60653 17.5226 5.66125C17.534 5.71598 17.5288 5.77287 17.5078 5.82465C17.4867 5.87643 17.4507 5.92076 17.4043 5.95199C17.358 5.98321 17.3033 5.9999 17.2474 5.99993ZM4.08327 9.03579C4.48412 8.76796 4.95538 8.625 5.43747 8.625C6.08371 8.62573 6.70328 8.88277 7.16024 9.33974C7.6172 9.7967 7.87424 10.4163 7.87497 11.0625C7.87497 11.5446 7.73201 12.0159 7.46418 12.4167C7.19634 12.8176 6.81566 13.13 6.37026 13.3145C5.92487 13.499 5.43477 13.5472 4.96194 13.4532C4.48911 13.3591 4.05479 13.127 3.7139 12.7861C3.37301 12.4452 3.14087 12.0109 3.04681 11.538C2.95276 11.0652 3.00103 10.5751 3.18552 10.1297C3.37001 9.68432 3.68243 9.30363 4.08327 9.03579ZM4.70829 12.1538C4.92413 12.298 5.17789 12.375 5.43747 12.375C5.78545 12.3746 6.11906 12.2362 6.36511 11.9901C6.61117 11.7441 6.74958 11.4105 6.74997 11.0625C6.74997 10.8029 6.673 10.5492 6.52878 10.3333C6.38456 10.1175 6.17957 9.94925 5.93975 9.84991C5.69992 9.75057 5.43602 9.72458 5.18142 9.77522C4.92682 9.82587 4.69295 9.95087 4.5094 10.1344C4.32584 10.318 4.20084 10.5518 4.1502 10.8065C4.09955 11.0611 4.12554 11.325 4.22488 11.5648C4.32422 11.8046 4.49245 12.0096 4.70829 12.1538ZM17.5833 9.03579C17.9841 8.76796 18.4554 8.625 18.9375 8.625C19.5837 8.62573 20.2033 8.88277 20.6602 9.33974C21.1172 9.7967 21.3743 10.4163 21.375 11.0625C21.375 11.5446 21.232 12.0159 20.9642 12.4167C20.6964 12.8176 20.3157 13.13 19.8703 13.3145C19.4249 13.499 18.9348 13.5472 18.4619 13.4532C17.9891 13.3591 17.5548 13.127 17.2139 12.7861C16.873 12.4452 16.6409 12.0109 16.5468 11.538C16.4528 11.0652 16.501 10.5751 16.6855 10.1297C16.87 9.68432 17.1824 9.30363 17.5833 9.03579ZM18.2083 12.1538C18.4241 12.298 18.6779 12.375 18.9375 12.375C19.2855 12.3746 19.6191 12.2362 19.8651 11.9901C20.1112 11.7441 20.2496 11.4105 20.25 11.0625C20.25 10.8029 20.173 10.5492 20.0288 10.3333C19.8846 10.1175 19.6796 9.94925 19.4398 9.84991C19.1999 9.75057 18.936 9.72458 18.6814 9.77522C18.4268 9.82587 18.193 9.95087 18.0094 10.1344C17.8258 10.318 17.7008 10.5518 17.6502 10.8065C17.5996 11.0611 17.6255 11.325 17.7249 11.5648C17.8242 11.8046 17.9924 12.0096 18.2083 12.1538Z"></path>
  </symbol>
</svg>
