<svg width="12" height="11" viewBox="0 0 12 11" xmlns="http://www.w3.org/2000/svg">
<path d="M5.44075 0.836582C5.55417 0.515736 6.00792 0.515736 6.12134 0.836582L7.1905 3.86099C7.24111 4.00414 7.37589 4.10032 7.52772 4.10161L10.852 4.12997C11.2031 4.13297 11.3437 4.58474 11.0562 4.78638L8.41802 6.63687C8.28745 6.72846 8.23246 6.89489 8.28279 7.04623L9.27643 10.0347C9.38516 10.3617 9.01751 10.6406 8.73193 10.4477L5.98305 8.59122C5.861 8.50878 5.7011 8.50879 5.57904 8.59122L2.83017 10.4477C2.54458 10.6406 2.17694 10.3617 2.28567 10.0347L3.27931 7.04624C3.32963 6.89489 3.27465 6.72846 3.14408 6.63687L0.505887 4.78638C0.218417 4.58474 0.358948 4.13297 0.710071 4.12997L4.03438 4.10161C4.18621 4.10032 4.32099 4.00414 4.37159 3.86099L5.44075 0.836582Z"/>
</svg>
