<svg width="15" height="12" viewBox="0 0 15 12" fill="none" xmlns="http://www.w3.org/2000/svg">
<path fill-rule="evenodd" clip-rule="evenodd" d="M7.96502 8.06891H7.96575H7.96648C9.96668 8.06891 11.9708 8.06891 13.9749 8.07281C14.0882 8.07281 14.1312 8.04937 14.1507 7.92825C14.2087 7.53369 14.2709 7.14051 14.3331 6.74707C14.3756 6.47819 14.4181 6.20918 14.4594 5.93953C14.5196 5.54291 14.5807 5.14678 14.6418 4.75095C14.7552 4.01597 14.8685 3.28206 14.9751 2.54816C14.9907 2.43485 14.9634 2.2981 14.9087 2.20042C14.7719 1.94646 14.4594 1.9113 14.2015 2.10665C13.3615 2.7357 12.5214 3.36474 11.6853 3.99379C11.2555 4.31417 10.9039 4.25556 10.6031 3.80625C10.3842 3.47677 10.1634 3.14848 9.94266 2.82024C9.46967 2.11699 8.99685 1.41399 8.544 0.700093C8.24316 0.227332 7.70007 0.215611 7.3875 0.707907C6.9355 1.42313 6.46359 2.12388 5.99149 2.82493C5.76984 3.15407 5.54815 3.48327 5.32845 3.81406C5.03542 4.25556 4.67596 4.31417 4.25399 3.99769C3.41397 3.36474 2.57003 2.73179 1.73 2.10275C1.53464 1.95818 1.33147 1.94255 1.15956 2.05977C0.97202 2.1848 0.929042 2.36452 0.964206 2.58332C1.06436 3.20143 1.15823 3.82164 1.25195 4.44087C1.28619 4.6671 1.32042 4.89321 1.35492 5.11904C1.36464 5.18161 1.37437 5.24416 1.3841 5.3067C1.5189 6.17356 1.65324 7.03748 1.78079 7.90481C1.80033 8.04156 1.85112 8.07281 1.98396 8.07281C3.98025 8.06891 5.97264 8.06891 7.96502 8.06891ZM14.1306 10.3107V9.10338H1.80365V9.27138V10.381C1.80365 10.8928 2.05371 11.1429 2.56554 11.1429H13.3687H13.4859C13.8102 11.1351 14.0642 10.9202 14.115 10.5998C14.1267 10.506 14.1306 10.4084 14.1306 10.3107Z" fill="#F9690E"/>
</svg>
