<svg width="54" height="54" viewBox="0 0 54 54" fill="none" xmlns="http://www.w3.org/2000/svg">
<rect x="0.0883789" width="53.823" height="53.823" rx="16.0016" fill="#DBE8FF"/>
<g clip-path="url(#clip0_1654_12386)">
<g clip-path="url(#clip1_1654_12386)">
<mask id="mask0_1654_12386" style="mask-type:alpha" maskUnits="userSpaceOnUse" x="14" y="22" width="25" height="19">
<path d="M17.021 22.859C17.188 22.7579 18.8057 22.8443 19.7187 22.8565H19.9708L30.7466 23.0352C31.9255 23.0352 34.7725 22.0972 34.6229 22.6783C34.5889 22.8107 35.3972 22.6659 35.7783 22.6783H36.0172L37.1855 23.0352L38.3533 24.6356L38.4675 32.7764L35.2483 37.4625L29.8579 40.3462H23.8478L21.5851 37.9311L14.4907 33.4463V29.3598L14.682 24.4587L15.9656 23.2589C16.0849 23.2513 16.8539 22.9601 17.021 22.859Z" fill="#D9D9D9"/>
</mask>
<g mask="url(#mask0_1654_12386)">
<path d="M27.0989 14.355C27.7275 14.4692 28.3561 14.5454 28.9695 14.7054C30.469 15.1015 31.7489 15.8937 32.8319 17.0059C33.9982 18.2094 34.7707 19.6339 35.1039 21.2869C35.2251 21.8811 35.2705 22.4905 35.3462 23.0847C35.6416 23.1837 35.9824 23.2599 36.2778 23.4046C37.2168 23.854 37.6788 24.6615 37.7015 25.667C37.7318 27.4647 37.7394 29.2701 37.6712 31.0602C37.6258 32.2638 36.7927 33.1246 35.6113 33.3607C35.3765 33.4064 35.2932 33.4902 35.2781 33.734C35.2402 34.5795 35.0812 35.4022 34.7177 36.1716C34.1648 37.3447 33.2106 38.0455 31.9837 38.335C31.1582 38.533 30.31 38.6168 29.4239 38.7616C29.4239 38.7996 29.4315 38.8987 29.4239 38.9977C29.3936 39.5385 29.0074 39.9423 28.4621 39.9499C27.4397 39.9575 26.4249 39.9575 25.4025 39.9499C24.8572 39.9423 24.4634 39.5538 24.4407 39.0053C24.4256 38.4569 24.4256 37.9084 24.4407 37.3523C24.4558 36.8419 24.8042 36.4534 25.3192 36.4382C26.387 36.4154 27.4549 36.4154 28.5227 36.4382C28.9998 36.4458 29.3255 36.7962 29.3936 37.2761C29.4088 37.4056 29.4164 37.5427 29.4239 37.7027C30.1813 37.6722 30.9234 37.6189 31.658 37.4133C32.1806 37.2685 32.6729 37.0628 33.097 36.7048C33.824 36.0954 34.1042 35.2651 34.2405 34.3586C34.286 34.0615 34.3011 33.7644 34.3314 33.4369C34.0361 33.4369 33.7634 33.4369 33.4908 33.4369C33.1197 33.4293 32.9455 33.2617 32.9228 32.8884C32.9152 32.8123 32.9228 32.7361 32.9228 32.6599C32.9228 29.7195 32.9228 26.7792 32.9228 23.8312C32.9228 23.7474 32.9228 23.6636 32.9228 23.5798C32.9455 23.237 33.1121 23.0694 33.4605 23.0542C33.7256 23.0466 33.9906 23.0466 34.2557 23.0466C34.2708 23.0466 34.286 23.0313 34.3314 23.0085C34.2405 20.289 33.1424 18.0723 30.8553 16.5869C28.0835 14.8044 25.1753 14.7968 22.3808 16.5869C20.0633 18.0647 18.9576 20.2966 18.8592 23.0847C19.147 23.0847 19.3969 23.0847 19.6544 23.0847C20.0936 23.0923 20.2678 23.2522 20.2678 23.6864C20.2678 26.7563 20.2678 29.8186 20.2678 32.8884C20.2678 33.2922 20.0861 33.4826 19.6922 33.475C18.9652 33.4521 18.2306 33.475 17.5187 33.3531C16.4054 33.155 15.6481 32.2562 15.5194 31.1135C15.4891 30.8469 15.4739 30.5803 15.4739 30.3137C15.4664 28.9045 15.4512 27.4952 15.4815 26.086C15.4891 25.6289 15.5572 25.149 15.7087 24.7148C16.0192 23.8159 16.7311 23.3589 17.6247 23.1532C17.7156 23.1304 17.7989 23.1151 17.8216 23.0694C17.958 22.2772 18.0488 21.4697 18.2533 20.6927C18.6471 19.1769 19.4499 17.8895 20.5708 16.8002C21.737 15.6728 23.1229 14.9263 24.7058 14.5682C25.1602 14.4692 25.6373 14.4235 26.0992 14.355C26.4434 14.3036 26.6492 14.3239 27.0989 14.355ZM19.2757 32.5304C19.2757 29.6586 19.2757 26.8553 19.2757 23.9988C18.7759 24.0292 18.2836 24.014 17.8065 24.0902C17.0113 24.2273 16.5418 24.7529 16.4585 25.568C16.413 25.9869 16.4206 26.4135 16.4206 26.8401C16.413 28.0741 16.413 29.3006 16.4206 30.5346C16.4282 31.5706 16.8447 32.2105 17.7005 32.3933C18.2003 32.4999 18.738 32.4847 19.2757 32.5304ZM33.9225 24.0673C33.9225 26.8934 33.9225 29.6891 33.9225 32.4999C34.3163 32.4999 34.6874 32.5304 35.0585 32.4923C36.1414 32.4009 36.7246 31.7763 36.7473 30.6793C36.7776 29.2625 36.7776 27.8456 36.7852 26.4288C36.7852 26.2231 36.7927 26.0098 36.7776 25.8041C36.7019 24.7453 36.1263 24.1511 35.0887 24.0673C34.7101 24.0368 34.3238 24.0673 33.9225 24.0673ZM25.4252 38.9748C26.44 38.9748 27.4397 38.9748 28.447 38.9748C28.447 38.4492 28.447 37.9389 28.447 37.4209C27.4321 37.4209 26.4325 37.4209 25.4252 37.4209C25.4252 37.9389 25.4252 38.4416 25.4252 38.9748Z" fill="#3E7BFA" stroke="#3E7BFA" stroke-width="0.636477"/>
</g>
<mask id="mask1_1654_12386" style="mask-type:alpha" maskUnits="userSpaceOnUse" x="17" y="13" width="19" height="23">
<path d="M34.879 24.6496C34.879 30.4259 31.0347 34.7487 26.6965 34.7487C22.3584 34.7487 18.514 30.4259 18.514 24.6496C18.514 18.8733 22.3584 14.5504 26.6965 14.5504C31.0347 14.5504 34.879 18.8733 34.879 24.6496Z" stroke="#6C7A89" stroke-width="2.156"/>
</mask>
<g mask="url(#mask1_1654_12386)">
<rect x="17.0142" y="13.1824" width="19.1583" height="9.97819" fill="#3E7BFA"/>
</g>
</g>
</g>
<defs>
<clipPath id="clip0_1654_12386">
<rect width="27.2862" height="27.0536" fill="white" transform="translate(13.3501 13.3845)"/>
</clipPath>
<clipPath id="clip1_1654_12386">
<rect width="27.2862" height="27.0536" fill="white" transform="translate(13.3501 13.3845)"/>
</clipPath>
</defs>
</svg>
