<svg width="59" height="25" viewBox="0 0 59 25" fill="none" xmlns="http://www.w3.org/2000/svg">
<path d="M11.2919 3.21379C11.9844 2.35061 12.4526 1.18993 12.3307 0C11.3212 0.0487677 10.0825 0.668118 9.37048 1.53131C8.72675 2.27258 8.16104 3.48202 8.30734 4.61831C9.43876 4.72072 10.575 4.0526 11.2919 3.21379Z" fill="#F2F2F5"/>
<path d="M12.3159 4.84243C10.6676 4.74489 9.26304 5.77877 8.47788 5.77877C7.68784 5.77877 6.48328 4.8912 5.18118 4.91558C3.48406 4.93997 1.90886 5.90069 1.04567 7.42712C-0.724596 10.48 0.577503 15.0105 2.299 17.5025C3.13781 18.7315 4.14243 20.0872 5.47378 20.0385C6.72712 19.9897 7.21967 19.224 8.7461 19.224C10.2725 19.224 10.7163 20.0385 12.0428 20.0141C13.4229 19.9897 14.2812 18.7803 15.12 17.5513C16.0808 16.1468 16.4709 14.7959 16.5002 14.7179C16.4758 14.6935 13.8423 13.684 13.8179 10.6555C13.7936 8.11962 15.8857 6.91506 15.9832 6.83703C14.7982 5.09114 12.9548 4.8912 12.3159 4.84243Z" fill="#F2F2F5"/>
<path d="M26.6711 1.41016C30.2555 1.41016 32.7525 3.88268 32.7525 7.47686C32.7525 11.0857 30.2068 13.5728 26.5833 13.5728H22.6136V19.8834H19.7461V1.41016H26.6711ZM22.6136 11.1686H25.9055C28.4024 11.1686 29.8215 9.82259 29.8215 7.49637C29.8215 5.16527 28.4024 3.83391 25.9152 3.83391H22.6136V11.1686Z" fill="#F2F2F5"/>
<path d="M33.5043 16.059C33.5043 13.7036 35.3087 12.2552 38.5127 12.0747L42.1996 11.8553V10.8165C42.1996 9.31934 41.1901 8.42201 39.4978 8.42201C37.8982 8.42201 36.8985 9.18767 36.6547 10.3922H34.0407C34.1919 7.95872 36.2694 6.16895 39.5954 6.16895C42.8579 6.16895 44.9452 7.89532 44.9452 10.5971V19.8776H42.2971V17.6635H42.2337C41.4534 19.1607 39.7514 20.1068 37.9812 20.1068C35.3477 20.1165 33.5043 18.4779 33.5043 16.059ZM42.1996 14.8399V13.7767L38.8834 13.9815C37.2301 14.0986 36.2987 14.8252 36.2987 15.981C36.2987 17.1612 37.274 17.9268 38.7566 17.9268C40.6878 17.9268 42.1996 16.5955 42.1996 14.8399Z" fill="#F2F2F5"/>
<path d="M47.4515 24.8429V22.6045C47.6563 22.6532 48.1147 22.6532 48.3488 22.6532C49.6314 22.6532 50.319 22.1168 50.7433 20.7318C50.7433 20.7074 50.9871 19.9125 50.9871 19.8979L46.1201 6.41357H49.1145L52.5184 17.3717H52.5672L55.9712 6.41357H58.8924L53.8498 20.5855C52.6989 23.8529 51.3675 24.9014 48.5731 24.9014C48.3488 24.9063 47.6563 24.8819 47.4515 24.8429Z" fill="#F2F2F5"/>
</svg>
