<svg width="121" height="25" viewBox="0 0 121 25" fill="none" xmlns="http://www.w3.org/2000/svg">
<g clip-path="url(#clip0_1490_12581)">
<g clip-path="url(#clip1_1490_12581)">
<path d="M73.1593 9.33385H70.294L69.7474 10.6484H68.2839L71.0346 4.51392H72.4452L75.2047 10.6484H73.7059L73.1593 9.33385ZM72.7097 8.25594L71.7311 5.90732L70.7525 8.25594H72.7097Z" fill="#232323"/>
<path d="M78.9405 10.4205C78.8054 10.5198 78.6379 10.5958 78.438 10.6484C78.2441 10.6951 78.0383 10.7185 77.8209 10.7185C77.2566 10.7185 76.8188 10.5754 76.5073 10.2891C76.2016 10.0028 76.0488 9.58215 76.0488 9.02713V7.09039H75.3171V6.03877H76.0488V4.89075H77.4241V6.03877H78.6055V7.09039H77.4241V9.0096C77.4241 9.20824 77.4741 9.36306 77.574 9.47407C77.6798 9.57923 77.8268 9.63181 78.0148 9.63181C78.2323 9.63181 78.4174 9.57339 78.5703 9.45654L78.9405 10.4205Z" fill="#232323"/>
<path d="M81.9995 10.7185C81.4999 10.7185 81.0503 10.6162 80.6506 10.4118C80.2568 10.2014 79.9483 9.91224 79.7249 9.54418C79.5016 9.17611 79.3899 8.75838 79.3899 8.29099C79.3899 7.82361 79.5016 7.40588 79.7249 7.03781C79.9483 6.66974 80.2568 6.38347 80.6506 6.17898C81.0503 5.96866 81.4999 5.8635 81.9995 5.8635C82.4991 5.8635 82.9458 5.96866 83.3396 6.17898C83.7334 6.38347 84.042 6.66974 84.2653 7.03781C84.4887 7.40588 84.6003 7.82361 84.6003 8.29099C84.6003 8.75838 84.4887 9.17611 84.2653 9.54418C84.042 9.91224 83.7334 10.2014 83.3396 10.4118C82.9458 10.6162 82.4991 10.7185 81.9995 10.7185ZM81.9995 9.59676C82.3522 9.59676 82.6402 9.47991 82.8635 9.24622C83.0927 9.00668 83.2074 8.68827 83.2074 8.29099C83.2074 7.89371 83.0927 7.57823 82.8635 7.34453C82.6402 7.105 82.3522 6.98523 81.9995 6.98523C81.6469 6.98523 81.3559 7.105 81.1267 7.34453C80.8975 7.57823 80.7829 7.89371 80.7829 8.29099C80.7829 8.68827 80.8975 9.00668 81.1267 9.24622C81.3559 9.47991 81.6469 9.59676 81.9995 9.59676Z" fill="#232323"/>
<path d="M90.3245 7.45846C90.6772 7.56946 90.9534 7.75642 91.1532 8.01932C91.3531 8.27639 91.453 8.5948 91.453 8.97455C91.453 9.51204 91.2414 9.92685 90.8182 10.219C90.4009 10.5052 89.7896 10.6484 88.9844 10.6484H85.7929V4.51392H88.8081C89.5604 4.51392 90.1364 4.65705 90.5361 4.94333C90.9416 5.2296 91.1444 5.61812 91.1444 6.10888C91.1444 6.40684 91.0709 6.67266 90.924 6.90636C90.7829 7.14005 90.5831 7.32408 90.3245 7.45846ZM87.2124 5.58307V7.02905H88.6318C88.9844 7.02905 89.2519 6.9677 89.4341 6.84501C89.6163 6.72232 89.7074 6.54121 89.7074 6.30167C89.7074 6.06214 89.6163 5.88395 89.4341 5.7671C89.2519 5.64441 88.9844 5.58307 88.6318 5.58307H87.2124ZM88.8786 9.57923C89.2548 9.57923 89.5369 9.51789 89.725 9.3952C89.919 9.27251 90.0159 9.08263 90.0159 8.82557C90.0159 8.31728 89.6368 8.06314 88.8786 8.06314H87.2124V9.57923H88.8786Z" fill="#232323"/>
<path d="M70.3734 15.6862H68.3985V14.5294H73.7765V15.6862H71.8016V20.6638H70.3734V15.6862Z" fill="#232323"/>
<path d="M75.8346 16.5713C75.9992 16.3434 76.2196 16.1711 76.4958 16.0542C76.7779 15.9374 77.1012 15.8789 77.4656 15.8789V17.1409C77.3128 17.1292 77.2099 17.1234 77.157 17.1234C76.7632 17.1234 76.4547 17.2344 76.2313 17.4564C76.008 17.6726 75.8963 17.9997 75.8963 18.4379V20.6638H74.521V15.9491H75.8346V16.5713Z" fill="#232323"/>
<path d="M80.347 15.8789C81.0817 15.8789 81.646 16.0542 82.0397 16.4048C82.4335 16.7495 82.6304 17.2723 82.6304 17.9734V20.6638H81.3433V20.0767C81.0846 20.5149 80.6027 20.7339 79.8974 20.7339C79.533 20.7339 79.2156 20.6726 78.9452 20.5499C78.6807 20.4272 78.478 20.2578 78.3369 20.0416C78.1958 19.8255 78.1253 19.5801 78.1253 19.3055C78.1253 18.8673 78.2899 18.5226 78.619 18.2714C78.954 18.0202 79.4683 17.8946 80.1619 17.8946H81.2551C81.2551 17.5966 81.164 17.3687 80.9818 17.211C80.7996 17.0474 80.5263 16.9656 80.1619 16.9656C79.9091 16.9656 79.6594 17.0065 79.4125 17.0883C79.1715 17.1643 78.9658 17.2694 78.7954 17.4038L78.3016 16.4486C78.5603 16.2675 78.8688 16.1272 79.2274 16.0279C79.5918 15.9286 79.965 15.8789 80.347 15.8789ZM80.2412 19.8138C80.4763 19.8138 80.685 19.7612 80.8672 19.656C81.0494 19.545 81.1787 19.3844 81.2551 19.174V18.692H80.3118C79.7475 18.692 79.4654 18.8761 79.4654 19.2441C79.4654 19.4194 79.533 19.5596 79.6682 19.6648C79.8092 19.7641 80.0002 19.8138 80.2412 19.8138Z" fill="#232323"/>
<path d="M86.9344 15.8789C87.5222 15.8789 87.9953 16.0542 88.3539 16.4048C88.7183 16.7553 88.9005 17.2753 88.9005 17.9647V20.6638H87.5251V18.175C87.5251 17.8011 87.4428 17.5236 87.2783 17.3425C87.1137 17.1555 86.8757 17.062 86.5642 17.062C86.2174 17.062 85.9411 17.1701 85.7354 17.3863C85.5297 17.5966 85.4269 17.9121 85.4269 18.3327V20.6638H84.0515V15.9491H85.3651V16.5012C85.5473 16.3025 85.7736 16.1506 86.044 16.0455C86.3144 15.9345 86.6112 15.8789 86.9344 15.8789Z" fill="#232323"/>
<path d="M91.9192 20.7339C91.5254 20.7339 91.1404 20.6872 90.7643 20.5937C90.3881 20.4944 90.0884 20.3717 89.865 20.2257L90.3235 19.2441C90.5351 19.3785 90.7907 19.4895 91.0905 19.5772C91.3902 19.6589 91.6841 19.6998 91.9721 19.6998C92.554 19.6998 92.8449 19.5567 92.8449 19.2704C92.8449 19.1361 92.7656 19.0397 92.6069 18.9812C92.4482 18.9228 92.2043 18.8732 91.8751 18.8323C91.4872 18.7738 91.1669 18.7066 90.9142 18.6307C90.6614 18.5547 90.441 18.4204 90.2529 18.2276C90.0707 18.0348 89.9796 17.7602 89.9796 17.4038C89.9796 17.1058 90.0649 16.8429 90.2353 16.6151C90.4116 16.3814 90.6644 16.2003 90.9935 16.0717C91.3285 15.9432 91.7223 15.8789 92.1749 15.8789C92.5099 15.8789 92.842 15.9169 93.1711 15.9929C93.5061 16.063 93.7824 16.1623 93.9999 16.2908L93.5414 17.2636C93.1241 17.0299 92.6686 16.913 92.1749 16.913C91.881 16.913 91.6606 16.9539 91.5137 17.0357C91.3667 17.1175 91.2933 17.2227 91.2933 17.3512C91.2933 17.4973 91.3726 17.5995 91.5313 17.6579C91.69 17.7164 91.9427 17.7719 92.2895 17.8245C92.6774 17.8887 92.9948 17.9588 93.2417 18.0348C93.4885 18.1049 93.703 18.2363 93.8852 18.4291C94.0674 18.6219 94.1586 18.8907 94.1586 19.2354C94.1586 19.5275 94.0704 19.7875 93.8941 20.0153C93.7177 20.2432 93.4591 20.4214 93.1182 20.5499C92.7832 20.6726 92.3835 20.7339 91.9192 20.7339Z" fill="#232323"/>
<path d="M96.691 16.0542H97.9077V17.1058H96.7263V20.6638H95.351V17.1058H94.6192V16.0542H95.351V15.8439C95.351 15.3064 95.5096 14.8799 95.827 14.5644C96.1503 14.2489 96.6029 14.0912 97.1847 14.0912C97.3905 14.0912 97.5844 14.1146 97.7666 14.1613C97.9547 14.2022 98.1105 14.2635 98.2339 14.3453L97.8724 15.3356C97.7137 15.2246 97.5286 15.1691 97.317 15.1691C96.8997 15.1691 96.691 15.397 96.691 15.8527V16.0542Z" fill="#232323"/>
<path d="M103.355 18.324C103.355 18.3415 103.346 18.4642 103.329 18.692H99.7404C99.8051 18.9842 99.9579 19.2149 100.199 19.3844C100.44 19.5538 100.74 19.6385 101.098 19.6385C101.345 19.6385 101.562 19.6034 101.751 19.5333C101.944 19.4574 102.124 19.3405 102.288 19.1828L103.02 19.9715C102.573 20.4798 101.921 20.7339 101.063 20.7339C100.528 20.7339 100.055 20.6317 99.6434 20.4272C99.232 20.2169 98.9146 19.9277 98.6913 19.5596C98.4679 19.1916 98.3563 18.7738 98.3563 18.3064C98.3563 17.8449 98.465 17.4301 98.6825 17.062C98.9058 16.6881 99.2085 16.3989 99.5906 16.1944C99.9785 15.9841 100.41 15.8789 100.887 15.8789C101.351 15.8789 101.771 15.9783 102.147 16.1769C102.523 16.3755 102.817 16.6618 103.029 17.0357C103.246 17.4038 103.355 17.8332 103.355 18.324ZM100.895 16.913C100.584 16.913 100.322 17.0007 100.111 17.176C99.8991 17.3512 99.7698 17.5908 99.7228 17.8946H102.059C102.012 17.5966 101.883 17.36 101.671 17.1847C101.46 17.0036 101.201 16.913 100.895 16.913Z" fill="#232323"/>
<path d="M105.761 16.5713C105.925 16.3434 106.146 16.1711 106.422 16.0542C106.704 15.9374 107.027 15.8789 107.392 15.8789V17.1409C107.239 17.1292 107.136 17.1234 107.083 17.1234C106.689 17.1234 106.381 17.2344 106.157 17.4564C105.934 17.6726 105.822 17.9997 105.822 18.4379V20.6638H104.447V15.9491H105.761V16.5713Z" fill="#232323"/>
<g clip-path="url(#clip2_1490_12581)">
<path d="M52.9475 2.94764L50.3038 2.35986C47.456 2.46331 45.0378 4.10909 43.5044 6.39908C43.1234 6.80818 43.3473 7.35364 43.6616 7.72041C44.614 9.01353 45.6331 10.2549 46.5141 11.5998C47.0856 10.1421 47.819 8.58562 49.3143 7.85678C51.9002 6.72354 55.3576 7.79094 56.5624 10.3913C57.8292 12.8458 56.6339 16.175 54.0718 17.2706C51.8431 18.1406 49.0714 17.5199 47.6047 15.5967C44.3045 11.4587 41.2281 7.15144 38.0088 2.94764C36.8325 2.75485 35.6563 2.54325 34.4752 2.35986C34.2419 3.58715 33.9943 4.81443 33.7466 6.03701C36.6039 10.0292 39.5232 13.9791 42.4567 17.9149C44.4569 20.5998 48.4996 23.4109 51.2691 22.4076H52.1922C57.5068 22.417 61.5009 18.2029 61.5914 12.9599C62.0152 7.87676 58.3002 3.31442 52.9475 2.94764Z" fill="#598CFF"/>
<path fill-rule="evenodd" clip-rule="evenodd" d="M62.0945 12.4426C62.0905 12.6368 62.0805 12.8309 62.0644 13.0246C62.059 13.336 62.0371 13.6454 61.9996 13.9517C61.8853 14.7889 61.6708 15.5945 61.3683 16.3558C59.8478 20.0806 56.0365 22.8925 51.8923 22.8851H50.9681C45.5569 22.5165 41.2822 18.0267 41.2822 12.5422C41.2822 11.0818 41.5853 9.69205 42.1322 8.43179C43.9294 10.8414 45.7317 13.2463 47.6063 15.5967C49.073 17.5199 51.8446 18.1406 54.0734 17.2707C56.6354 16.1751 57.8308 12.8459 56.564 10.3913C55.3592 7.79097 51.9018 6.72356 49.3159 7.8568C47.8206 8.58565 47.0872 10.1421 46.5157 11.5998C45.924 10.6966 45.2701 9.8401 44.6159 8.98324C44.2959 8.56422 43.9759 8.14512 43.6631 7.72044C43.3488 7.35366 43.125 6.8082 43.506 6.39911C44.0026 5.6574 44.6047 4.96601 45.2886 4.36664C46.8913 3.11956 48.8702 2.33007 51.0274 2.19531H52.3498C57.7562 2.53304 62.0429 6.98345 62.0945 12.4426Z" fill="#598CFF"/>
<path d="M24.6855 2.25684L23.0365 2.59127C19.0304 2.80761 16.1492 6.06468 14.8043 9.7377C13.4119 13.9751 14.6216 18.0306 18.371 20.6925C19.8442 21.8259 21.1879 22.3542 23.0365 22.4483L24.6855 22.8872C27.8789 22.859 30.887 20.8132 32.346 18.0855C31.6616 16.3689 30.0602 15.0662 29.1287 13.4342C28.5822 14.7511 27.9455 16.1384 26.6814 16.9238C23.9156 18.6404 19.7242 17.079 18.8166 13.9657C17.985 11.4731 19.3868 8.44908 21.934 7.60255C24.2293 6.70898 26.9047 7.82359 28.2924 9.7377C31.4763 13.8293 34.6032 17.9679 37.6589 22.1582C37.9155 21.0719 38.1341 19.9761 38.3242 18.8756C39.5312 18.885 40.7335 18.9273 41.9358 18.9649C39.6595 15.8327 37.3452 12.7288 35.0499 9.61072C32.6406 6.30453 29.4488 2.25684 24.6855 2.25684Z" fill="#232323"/>
<path fill-rule="evenodd" clip-rule="evenodd" d="M33.561 16.6282C34.1012 15.3744 34.4004 13.9931 34.4004 12.5422C34.4004 7.03765 30.0944 2.53509 24.6552 2.19531H23.3328C17.8936 2.53509 13.5877 7.03765 13.5877 12.5422C13.5877 18.0433 17.8884 22.5438 23.3229 22.8884H24.6651C26.0198 22.8025 27.304 22.4584 28.4687 21.9049C30.1083 21.0432 31.4909 19.6815 32.3439 18.0867C31.9524 17.1047 31.2608 16.2581 30.5662 15.4079C30.0466 14.7718 29.5253 14.1338 29.1267 13.4354C28.5802 14.7522 27.9434 16.1396 26.6793 16.925C23.9136 18.6416 19.7222 17.0802 18.8145 13.9668C17.9829 11.4743 19.3848 8.45026 21.9319 7.60373C24.2272 6.71017 26.9027 7.82477 28.2903 9.73888C30.0658 12.0204 31.8235 14.3166 33.561 16.6282Z" fill="#232323"/>
</g>
</g>
</g>
<defs>
<clipPath id="clip0_1490_12581">
<rect width="121" height="25" fill="white"/>
</clipPath>
<clipPath id="clip1_1490_12581">
<rect width="95" height="25.0825" fill="white" transform="translate(13)"/>
</clipPath>
<clipPath id="clip2_1490_12581">
<rect width="48.5071" height="25.0825" fill="white" transform="matrix(-1 0 0 1 62.0957 0)"/>
</clipPath>
</defs>
</svg>
