<svg width="141" height="24" viewBox="0 0 141 24" fill="none" xmlns="http://www.w3.org/2000/svg">
<path d="M55.4546 2.48066C55.4546 1.28946 56.4005 0.343506 57.5917 0.343506C58.7829 0.343506 59.7289 1.28946 59.7289 2.48066C59.7289 3.67186 58.7829 4.61781 57.5917 4.61781C56.4005 4.61781 55.4546 3.67186 55.4546 2.48066Z" fill="#273B7D"/>
<path d="M89.0591 16.708C89.0591 15.5168 90.005 14.5708 91.1962 14.5708C92.3874 14.5708 93.3334 15.5168 93.3334 16.708C93.3334 17.8992 92.3874 18.8451 91.1962 18.8451C90.005 18.8101 89.0591 17.8641 89.0591 16.708Z" fill="#499FDD"/>
<path d="M20.485 15.7622C18.6629 15.7622 17.3663 14.2904 17.3663 12.223C17.3663 10.1555 18.6278 8.68369 20.485 8.68369C22.3423 8.68369 23.6038 10.1555 23.6038 12.223C23.6038 14.3605 22.3423 15.7622 20.485 15.7622ZM20.485 5.56494C16.5954 5.56494 13.792 8.36831 13.792 12.223C13.792 16.0776 16.5954 18.881 20.485 18.881C24.3747 18.881 27.2131 16.0776 27.2131 12.223C27.2131 8.36831 24.3747 5.56494 20.485 5.56494Z" fill="#273B7D"/>
<path d="M51.3219 12.5735C51.1817 12.2931 51.0065 12.0478 50.7962 11.8726L50.6911 11.7324L50.8313 11.6273C51.0065 11.4521 51.1817 11.2068 51.3569 10.9615L54.791 5.8804H50.621L48.0629 9.8752C47.9228 10.0855 47.6074 10.1906 47.1869 10.1906H46.5912V2.65652C46.5912 1.1497 45.645 0.939453 44.6288 0.939453H42.8767V18.7058H46.5561V13.3794H46.9066C47.3271 13.3794 47.6074 13.4145 47.7476 13.6598L49.78 17.4794C50.3407 18.5306 50.9014 18.7058 51.9877 18.7058H54.8261L52.7236 15.2366L51.3219 12.5735Z" fill="#273B7D"/>
<path d="M69.193 5.56494C67.3358 5.56494 66.1093 6.40595 65.4435 7.10679L65.2332 7.31705L65.1632 7.00166C64.9529 6.23073 64.2871 5.84527 63.3059 5.84527H61.6589V18.6707H65.3033V12.7486C65.3033 12.1529 65.3734 11.6623 65.5486 11.2067C65.9691 9.80503 67.0905 8.96402 68.5272 8.96402C69.6836 8.96402 70.1041 9.55975 70.1041 11.1366V16.7434C70.1041 18.075 70.7349 18.7058 72.0665 18.7058H73.8186V10.5409C73.7835 7.282 72.2066 5.56494 69.193 5.56494Z" fill="#273B7D"/>
<path d="M57.6271 5.84546H55.875V15.7624V18.6709H57.7322C57.7673 18.6709 57.7673 18.6709 57.8023 18.6709H58.6784H59.5194V7.77278C59.5544 6.47622 58.9237 5.84546 57.6271 5.84546Z" fill="#273B7D"/>
<path d="M34.8514 15.7622C33.0292 15.7622 31.7327 14.2904 31.7327 12.223C31.7327 10.1555 32.9942 8.68369 34.8514 8.68369C36.7087 8.68369 37.9702 10.1555 37.9702 12.223C38.0052 14.3605 36.7437 15.7622 34.8514 15.7622ZM34.8514 5.56494C30.9618 5.56494 28.1584 8.36831 28.1584 12.223C28.1584 16.0776 30.9618 18.881 34.8514 18.881C38.7411 18.881 41.5795 16.0776 41.5795 12.223C41.5795 8.36831 38.7411 5.56494 34.8514 5.56494Z" fill="#273B7D"/>
<path d="M113.312 15.7622C111.49 15.7622 110.193 14.2904 110.193 12.223C110.193 10.1555 111.455 8.68369 113.312 8.68369C115.169 8.68369 116.431 10.1555 116.431 12.223C116.431 14.3605 115.169 15.7622 113.312 15.7622ZM113.312 5.56494C109.423 5.56494 106.619 8.36831 106.619 12.223C106.619 16.0776 109.423 18.881 113.312 18.881C117.202 18.881 120.04 16.0776 120.04 12.223C120.04 8.36831 117.202 5.56494 113.312 5.56494Z" fill="#499FDD"/>
<path d="M81.4937 15.2024C79.4963 15.2024 78.7955 13.4503 78.7955 11.8384C78.7955 11.1025 78.9707 8.75463 81.3185 8.75463C82.4749 8.75463 84.0168 9.10506 84.0168 11.9435C84.0168 14.6417 82.6501 15.2024 81.4937 15.2024ZM85.909 5.81109C85.2082 5.81109 84.6825 6.09144 84.4022 6.58203L84.2971 6.79228L84.1219 6.6521C83.5262 6.12647 82.4749 5.53076 80.7578 5.53076C77.3237 5.53076 75.046 8.08883 75.046 11.9084C75.046 15.728 77.4288 18.3912 80.8279 18.3912C81.9843 18.3912 82.9304 18.1109 83.6313 17.5502L83.9116 17.34V17.6904C83.9116 19.4074 82.7903 20.3536 80.7929 20.3536C79.8117 20.3536 78.9356 20.1083 78.3399 19.898C77.569 19.6528 77.1134 19.863 76.7981 20.6339L76.5177 21.3698L76.0972 22.4211L76.3425 22.5613C77.6391 23.2271 79.3211 23.6476 80.8279 23.6476C83.9467 23.6476 87.591 22.0356 87.591 17.5502V5.77605L85.909 5.81109Z" fill="#273B7D"/>
<path d="M6.85337 15.622H3.87479V12.0477C3.87479 11.2768 4.15513 10.8913 4.82093 10.7862H6.85337C8.2901 10.7862 9.23624 11.6973 9.23624 13.1691C9.23624 14.7109 8.32514 15.622 6.85337 15.622ZM3.87479 6.02045V5.07431C3.87479 4.26834 4.22521 3.84784 4.99614 3.8128H6.53799C7.83455 3.8128 8.64052 4.58373 8.64052 5.91533C8.64052 6.89651 8.11489 8.08794 6.60808 8.08794H3.87479V6.02045ZM10.673 9.55971L10.1473 9.24434L10.6029 8.85887C11.1636 8.40332 12.0747 7.31701 12.0747 5.49482C12.0747 2.69145 9.90204 0.904297 6.53799 0.904297H2.7184H2.29789C1.31671 0.939339 0.510742 1.74532 0.510742 2.76154V18.6356H2.26285H6.64312C10.3576 18.6356 12.7755 16.6032 12.7755 13.4494C12.7405 11.7674 11.9695 10.2956 10.673 9.55971Z" fill="#273B7D"/>
<path d="M136.37 5.6001C134.863 5.6001 133.392 6.30095 132.445 7.49238L132.165 7.8428L131.955 7.45734C131.289 6.23086 130.098 5.6001 128.486 5.6001C126.769 5.6001 125.647 6.54624 125.122 7.10692L124.771 7.49238L124.631 7.00178C124.421 6.30094 123.79 5.91549 122.844 5.91549H121.302V18.7059H124.806V13.0641C124.806 12.5735 124.876 12.0829 124.981 11.5573C125.332 10.1906 126.243 8.71886 127.785 8.85902C128.731 8.96415 129.186 9.70003 129.186 11.1017V18.6708H132.691V13.029C132.691 12.3983 132.761 11.9427 132.901 11.4872C133.181 10.1906 134.127 8.85902 135.634 8.85902C136.721 8.85902 137.106 9.45474 137.106 11.1017V16.8136C137.106 18.1101 137.667 18.6708 138.963 18.6708H140.61V10.506C140.645 7.24708 139.209 5.6001 136.37 5.6001Z" fill="#499FDD"/>
<path d="M104.585 14.2195C104.585 14.2195 103.078 15.8314 101.081 15.8314C99.2937 15.8314 97.4715 14.7101 97.4715 12.2571C97.4715 10.1196 98.8732 8.64779 100.906 8.64779C101.571 8.64779 102.307 8.89308 102.412 9.27855V9.34864C102.693 10.2597 103.499 10.2948 103.674 10.2948H105.601V8.61275C105.601 6.40509 102.798 5.59912 100.906 5.59912C96.8758 5.59912 93.9323 8.40249 93.9323 12.2922C93.9323 16.1819 96.8408 18.9852 100.836 18.9852C104.305 18.9852 106.197 16.7075 106.197 16.6724L106.302 16.5323L104.795 14.0092L104.585 14.2195Z" fill="#499FDD"/>
</svg>
