<svg width="27" height="49" viewBox="0 0 27 49" fill="none" xmlns="http://www.w3.org/2000/svg">
<mask id="mask0_1754_13264" style="mask-type:luminance" maskUnits="userSpaceOnUse" x="0" y="0" width="27" height="49">
<path d="M26.0001 48.093L26.1724 0.0932617L0.172529 -6.84232e-05L0.000226956 47.9996L26.0001 48.093Z" fill="white"/>
</mask>
<g mask="url(#mask0_1754_13264)">
<path d="M2.48562 40.268C2.71751 42.4025 3.16758 43.4405 3.87716 44.366C4.13666 44.2534 4.50867 44.4004 4.78769 44.5107L7.3206 46.264C7.56287 46.4673 7.76839 46.7635 7.75115 47.0793C7.84416 47.116 8.03017 47.1895 8.12317 47.2263L8.05778 44.9425L18.3262 44.8061L18.3916 47.0899C18.5214 47.0336 18.6511 46.9774 18.7809 46.9211C18.7981 46.6053 19.0014 46.3631 19.2046 46.1208L21.6848 44.1976C21.981 43.9921 22.2038 43.9726 22.5195 43.9898C23.2027 43.077 23.5139 42.0172 23.8206 39.8804C24.3167 34.2702 23.0539 25.4921 23.0448 23.3381C23.0141 11.7136 22.9844 4.71293 22.1945 2.35793C22.0625 1.87567 21.6709 1.50594 21.1496 1.19246C21.0199 1.24872 20.8902 1.30498 20.7971 1.26824C19.9429 1.25329 19.4021 0.717061 18.4743 0.888121C17.7693 1.03967 17.581 0.427665 17.5052 0.0751622C16.9105 -0.0523043 16.372 -0.0500217 15.7404 -0.0844839C15.667 0.101525 15.5372 0.157784 15.3145 0.177298L9.48384 0.239156C9.26108 0.25867 9.20482 0.128921 9.01881 0.0554305C8.70306 0.0381994 8.25755 0.077227 7.77529 0.209259C7.72132 0.618022 7.50085 1.17605 6.77633 1.10484C5.7728 0.923398 5.32957 1.50094 4.43856 1.57899C4.25255 1.5055 4.06654 1.43201 4.01028 1.30226C3.32479 1.67656 2.91831 2.1611 2.73458 2.62612C2.00196 5.02472 2.21765 12.0989 2.60086 23.6476C2.60999 25.8016 1.68201 34.6819 2.48562 40.268Z" fill="#3E7BFA"/>
<path d="M8.09465 44.8493L8.16004 47.1331C11.1534 47.9932 15.4982 47.8819 18.4285 46.9967L18.3999 44.6199L8.09465 44.8493Z" fill="url(#paint0_linear_1754_13264)"/>
<path d="M3.07824 39.8568C3.52022 43.3646 4.37677 43.9181 6.31491 45.544C9.0166 47.6866 17.3538 47.5399 20.0739 45.2814C22.0351 43.5833 22.7941 43.023 23.1134 39.4934C23.6291 34.106 22.442 25.6804 22.4329 23.5263C22.4045 12.4403 22.3943 5.66242 21.5677 3.40042C20.702 0.692912 12.4211 0.969423 12.4211 0.969423C12.4211 0.969423 4.12064 1.02318 3.37079 3.73754C2.67492 6.04313 2.87109 12.8945 3.21528 23.9977C3.26115 26.0588 2.38715 34.5303 3.07824 39.8568Z" fill="#3E7BFA"/>
<path d="M16.9925 28.0433C18.7182 27.7574 19.979 27.2878 20.405 27.0261L20.2902 26.228C20.2902 26.228 18.9192 26.9766 16.8409 27.3383C14.9854 27.6804 10.9001 27.6792 9.04226 27.4828C6.90545 27.1761 5.54713 26.532 5.54713 26.532L5.43917 27.3495C5.9042 27.5332 7.11325 28.0109 8.87805 28.1705C10.7359 28.3669 15.0807 28.2557 16.9925 28.0433Z" fill="url(#paint1_linear_1754_13264)"/>
<path d="M21.0832 33.7454C20.4345 34.0267 19.2667 34.533 17.4675 35.0049C14.8702 35.5915 11.3796 35.7177 8.68481 35.1906C6.80749 34.7715 5.69144 34.3306 4.94741 34.0366C4.66839 33.9264 4.48239 33.8529 4.33312 33.6864C4.33312 33.6864 4.20565 34.2811 4.26191 34.4109C4.31817 34.5406 4.50418 34.6141 4.8762 34.7611C5.52723 35.0183 6.73628 35.496 8.6136 35.9152C11.3084 36.4423 14.7623 36.409 17.3963 35.7294C19.1955 35.2575 20.3633 34.7512 21.012 34.4699C21.4013 34.3011 21.5678 34.1518 21.6045 34.0588C21.678 33.8728 21.546 33.3906 21.546 33.3906C21.5092 33.4836 21.3795 33.5398 21.0832 33.7454Z" fill="url(#paint2_linear_1754_13264)"/>
<path d="M16.9923 28.0433C15.0437 28.3486 10.6989 28.4599 8.78483 28.1338C7.05678 27.8811 5.81098 27.4964 5.34596 27.3127L4.33308 33.6864C4.38934 33.8162 4.57534 33.8897 4.94736 34.0366C5.59839 34.2939 6.80745 34.7715 8.68476 35.1907C11.3796 35.7178 14.8334 35.6846 17.4674 35.0049C19.2667 34.533 20.4344 34.0267 21.0832 33.7454C21.3427 33.6329 21.6022 33.5204 21.6389 33.4274L20.368 27.119C19.9788 27.2878 18.718 27.7574 16.9923 28.0433Z" fill="url(#paint3_linear_1754_13264)"/>
<path d="M5.60583 9.7819C5.71835 10.0414 5.70112 10.3572 5.81364 10.6167C5.81364 10.6167 5.94339 10.5604 6.07314 10.5041C6.81489 10.2596 8.85413 9.45245 12.5307 9.39972C15.8915 9.32976 18.1971 10.0256 19.0709 10.2633C19.2569 10.3368 19.3499 10.3736 19.3499 10.3736C19.4602 10.0946 19.4406 9.87181 19.5509 9.5928C20.0412 6.99096 19.7336 4.50393 19.7336 4.50393C19.7336 4.50393 18.2455 3.916 16.1454 3.51637C14.5471 3.20746 10.425 3.29922 8.79228 3.62182C6.67726 4.07646 5.21327 4.78832 5.21327 4.78832C5.21327 4.78832 5.01916 7.18463 5.60583 9.7819ZM5.71732 5.41755C5.71732 5.41755 7.05156 4.76196 9.03683 4.36358C10.5766 4.00422 14.3462 3.98824 15.8515 4.26041C17.8585 4.62329 19.2169 5.26748 19.2169 5.26748C19.2169 5.26748 19.4855 7.309 19.1054 9.63183C17.8228 9.34015 15.5367 8.86703 12.4917 8.95422C9.22387 9.06092 7.01584 9.47881 5.92159 9.79913C5.57719 7.4051 5.71732 5.41755 5.71732 5.41755Z" fill="url(#paint4_linear_1754_13264)"/>
<path d="M19.1423 9.53863C19.4294 7.17906 19.2538 5.17428 19.2538 5.17428C19.2538 5.17428 17.8955 4.53009 15.8884 4.16721C14.3831 3.89504 10.5768 4.00403 9.07375 4.27038C7.18148 4.7055 5.71749 5.41736 5.71749 5.41736C5.71749 5.41736 5.57736 7.40491 5.95851 9.70594C7.05277 9.38561 9.29754 8.87471 12.5286 8.86102C15.6667 8.81057 17.9895 9.19069 19.1423 9.53863Z" fill="url(#paint5_linear_1754_13264)"/>
<path d="M21.7852 19.7223L20.3534 19.2641L20.7528 25.8733L22.2901 33.6846C22.2901 33.6846 22.3372 31.6603 22.1765 28.8012C22.0204 27.0192 21.8425 24.4759 21.7989 22.9534C21.792 21.3379 21.7875 20.2608 21.7852 19.7223Z" fill="url(#paint6_linear_1754_13264)"/>
<path d="M3.718 20.0033L5.2015 19.5142L5.0624 26.1256L3.8141 33.9116C3.8141 33.9116 3.63847 31.9068 3.70055 29.0282C3.76719 27.2267 3.90504 24.7006 3.89819 23.0851C3.8546 21.5626 3.72028 20.5418 3.718 20.0033Z" fill="url(#paint7_linear_1754_13264)"/>
<path d="M21.913 19.1274L20.4249 18.5395L20.123 13.0441C20.123 13.0441 20.2873 12.3564 20.8212 11.2771C21.4286 10.0118 21.7984 9.62022 21.7984 9.62022C21.7984 9.62022 21.9968 17.0101 21.913 19.1274Z" fill="url(#paint8_linear_1754_13264)"/>
<path d="M3.62288 19.4279L5.17988 18.7527L5.19379 13.2746C5.19379 13.2746 5.04225 12.5696 4.49917 11.4949C3.80683 10.2536 3.5083 9.92065 3.5083 9.92065C3.5083 9.92065 3.44726 17.4231 3.62288 19.4279Z" fill="url(#paint9_linear_1754_13264)"/>
<path d="M21.6848 44.1976L19.2047 46.1208C18.9084 46.3263 18.7982 46.6053 18.7809 46.9211C19.5227 46.6765 20.0784 46.3585 20.5412 46.0037C21.3737 45.2574 22.0029 44.7533 22.5759 44.1195C22.2406 43.8796 21.8881 43.9553 21.6848 44.1976Z" fill="#FFEE53"/>
<path d="M7.2276 46.2273L4.69469 44.4739C4.45242 44.2706 4.13667 44.2534 3.78417 44.3292C4.28822 44.9584 4.95876 45.4384 5.83482 46.2146C6.31936 46.6211 6.87738 46.8415 7.62142 47.1355C7.6754 46.7267 7.56287 46.4672 7.2276 46.2273Z" fill="#FFEE53"/>
<path d="M18.3813 0.851467C19.309 0.680407 19.8498 1.21663 20.7041 1.23158C20.8338 1.17532 21.0199 1.24881 21.0566 1.15581C20.107 0.565605 18.7315 0.237182 17.3755 0.131513C17.581 0.427757 17.7693 1.03976 18.3813 0.851467Z" fill="#93091A"/>
<path d="M6.906 1.04849C7.59378 1.2127 7.75799 0.524925 7.77522 0.209167C6.40195 0.419255 4.99194 0.722348 4.01021 1.30217C4.15947 1.46867 4.34548 1.54215 4.56823 1.52264C5.4225 1.53759 5.86573 0.960049 6.906 1.04849Z" fill="#93091A"/>
<path d="M4.94767 34.0366C5.5987 34.2939 6.80776 34.7715 8.68508 35.1907C9.27985 35.3182 10.0044 35.3894 10.7289 35.4606C12.5213 33.3732 14.6789 29.8172 15.5263 28.2166C13.4285 28.3555 10.2904 28.4059 8.87815 28.1705C7.1501 27.9179 5.90429 27.5332 5.43927 27.3495L4.42639 33.7232C4.42639 33.7232 4.66866 33.9264 4.94767 34.0366Z" fill="url(#paint10_linear_1754_13264)"/>
<path d="M12.9392 26.872C18.3243 26.8492 20.0845 25.9318 20.0845 25.9318C20.0845 25.9318 19.7507 12.8973 19.3741 11.6733C19.0733 10.8018 15.6735 10.4262 13.5562 10.3424L11.8109 10.4055C9.67636 10.6374 6.29831 11.0231 6.06061 11.8969C5.54618 13.1989 5.69397 26.1599 5.69397 26.1599C5.69397 26.1599 7.57357 27.1176 12.9392 26.872Z" fill="#3E7BFA"/>
<path d="M11.4759 1.45638C6.33308 1.68245 3.99988 3.23363 3.99988 3.23363L5.04472 4.39909C8.24943 2.5471 12.4473 2.80785 12.4473 2.80785C12.4473 2.80785 16.5866 2.40034 19.8808 4.13193L20.897 2.92059C20.897 2.92059 18.5696 1.46345 13.3142 1.43002C13.1282 1.35653 12.4599 1.41507 12.4599 1.41507C12.0512 1.36109 11.8284 1.38061 11.4759 1.45638Z" fill="#2764E2"/>
<path d="M3.81183 33.3728C3.81183 33.3728 2.99431 33.2649 2.97251 32.5036C2.95072 31.7424 3.72465 30.3278 3.8027 31.2188C3.84401 32.2028 3.88532 33.1868 3.81183 33.3728Z" fill="url(#paint11_linear_1754_13264)"/>
<path d="M0.853234 31.8813C1.05876 32.1775 2.71332 32.6162 2.71332 32.6162C2.99233 32.7264 3.10257 32.4474 3.2128 32.1684L0.814205 31.4358C0.740715 31.6218 0.796975 31.7515 0.853234 31.8813Z" fill="#3E7BFA"/>
<path d="M3.21243 32.1683C3.28592 31.9823 3.22966 31.8526 3.22966 31.8526L0.850579 31.3427C0.850579 31.3427 0.813834 31.4357 0.777088 31.5287L3.21243 32.1683Z" fill="url(#paint12_linear_1754_13264)"/>
<path d="M22.1951 33.1094C22.1951 33.1094 23.1228 32.9383 23.101 32.1771C23.0792 31.4158 22.1446 29.9713 22.1859 30.9553C22.1342 31.9026 22.0826 32.8499 22.1951 33.1094Z" fill="url(#paint13_linear_1754_13264)"/>
<path d="M23.2499 32.3434C23.2499 32.3434 24.9561 31.8348 25.0664 31.5558C25.1399 31.3698 25.1766 31.2768 25.1203 31.147L22.7091 31.8072C22.7849 32.1597 22.8974 32.4192 23.2499 32.3434Z" fill="#3E7BFA"/>
<path d="M25.1575 31.0542C25.0645 31.0175 25.1012 30.9244 25.1575 31.0542L22.6899 31.5846C22.6899 31.5846 22.6532 31.6776 22.6727 31.9004L25.1575 31.0542Z" fill="url(#paint14_linear_1754_13264)"/>
<path d="M23.0277 23.6539C23.1207 23.6906 23.2872 23.5413 23.2309 23.4116L23.2046 21.5733C23.2413 21.4803 23.0921 21.3138 22.9623 21.3701L23.0277 23.6539Z" fill="#595959"/>
<path d="M23.0253 14.4061C23.1183 14.4428 23.2848 14.2935 23.2285 14.1638L23.2021 12.3255C23.2389 12.2325 23.0896 12.066 22.9599 12.1223L23.0253 14.4061Z" fill="#595959"/>
<path d="M2.58369 23.9634C2.49068 23.9266 2.39768 23.8899 2.34142 23.7601L2.31506 21.9218C2.3518 21.8288 2.38855 21.7358 2.5183 21.6796L2.58369 23.9634Z" fill="#595959"/>
<path d="M2.35859 14.7351C2.26559 14.6983 2.17258 14.6616 2.11632 14.5319L2.08996 12.6936C2.12671 12.6006 2.16345 12.5076 2.2932 12.4513L2.35859 14.7351Z" fill="#595959"/>
<path d="M9.48403 0.239164L15.3146 0.177306C15.4444 0.121047 15.6109 -0.0282165 15.7406 -0.0844757C13.8828 -0.280867 12.4533 -0.200527 12.4533 -0.200527C12.4533 -0.200527 10.9675 -0.249937 9.14875 -0.000820875C9.20501 0.128929 9.39102 0.202419 9.48403 0.239164Z" fill="url(#paint15_linear_1754_13264)"/>
<path d="M5.95869 9.7061C7.05294 9.38578 9.29771 8.87488 12.5288 8.86118C13.197 8.80264 13.8286 8.8371 14.4601 8.87156C16.3133 7.99093 17.4719 5.33055 17.6729 4.54977C17.2079 4.36605 16.5201 4.20184 15.8886 4.16737C14.3833 3.89521 10.5769 4.00419 9.07393 4.27054C7.18166 4.70567 5.71767 5.41752 5.71767 5.41752C5.71767 5.41752 5.57754 7.40507 5.95869 9.7061Z" fill="url(#paint16_linear_1754_13264)"/>
</g>
<defs>
<linearGradient id="paint0_linear_1754_13264" x1="18.2906" y1="46.1302" x2="8.00379" y2="46.3118" gradientUnits="userSpaceOnUse">
<stop stop-color="#525956"/>
<stop offset="1" stop-color="#2C2E2E"/>
</linearGradient>
<linearGradient id="paint1_linear_1754_13264" x1="20.3418" y1="27.1816" x2="5.28465" y2="27.4472" gradientUnits="userSpaceOnUse">
<stop/>
<stop offset="1" stop-color="#1B1C1C"/>
</linearGradient>
<linearGradient id="paint2_linear_1754_13264" x1="21.6499" y1="34.7551" x2="4.20797" y2="35.0629" gradientUnits="userSpaceOnUse">
<stop/>
<stop offset="1" stop-color="#1B1C1C"/>
</linearGradient>
<linearGradient id="paint3_linear_1754_13264" x1="21.528" y1="31.2177" x2="4.22314" y2="31.523" gradientUnits="userSpaceOnUse">
<stop stop-color="#363B39"/>
<stop offset="1" stop-color="#1B1C1C"/>
</linearGradient>
<linearGradient id="paint4_linear_1754_13264" x1="16.4312" y1="12.5724" x2="8.83372" y2="2.14396" gradientUnits="userSpaceOnUse">
<stop/>
<stop offset="1" stop-color="#1B1C1C"/>
</linearGradient>
<linearGradient id="paint5_linear_1754_13264" x1="19.2533" y1="6.72024" x2="5.64229" y2="6.96026" gradientUnits="userSpaceOnUse">
<stop stop-color="#363B39"/>
<stop offset="1" stop-color="#1B1C1C"/>
</linearGradient>
<linearGradient id="paint6_linear_1754_13264" x1="22.1111" y1="26.4637" x2="20.4069" y2="26.4939" gradientUnits="userSpaceOnUse">
<stop stop-color="#363B39"/>
<stop offset="1" stop-color="#1B1C1C"/>
</linearGradient>
<linearGradient id="paint7_linear_1754_13264" x1="5.18819" y1="26.7042" x2="3.48258" y2="26.7344" gradientUnits="userSpaceOnUse">
<stop stop-color="#363B39"/>
<stop offset="1" stop-color="#1B1C1C"/>
</linearGradient>
<linearGradient id="paint8_linear_1754_13264" x1="21.7757" y1="14.3786" x2="20.0137" y2="14.4096" gradientUnits="userSpaceOnUse">
<stop stop-color="#363B39"/>
<stop offset="1" stop-color="#1B1C1C"/>
</linearGradient>
<linearGradient id="paint9_linear_1754_13264" x1="5.15674" y1="14.6499" x2="3.39515" y2="14.6806" gradientUnits="userSpaceOnUse">
<stop stop-color="#363B39"/>
<stop offset="1" stop-color="#1B1C1C"/>
</linearGradient>
<linearGradient id="paint10_linear_1754_13264" x1="13.0714" y1="33.0914" x2="8.16948" y2="29.7345" gradientUnits="userSpaceOnUse">
<stop stop-color="#363B39"/>
<stop offset="1"/>
</linearGradient>
<linearGradient id="paint11_linear_1754_13264" x1="4.11438" y1="33.2382" x2="2.19137" y2="29.6711" gradientUnits="userSpaceOnUse">
<stop stop-color="#363B39"/>
<stop offset="1" stop-color="#1B1C1C"/>
</linearGradient>
<linearGradient id="paint12_linear_1754_13264" x1="3.14562" y1="31.7393" x2="0.686132" y2="31.7824" gradientUnits="userSpaceOnUse">
<stop stop-color="#363B39"/>
<stop offset="1" stop-color="#1B1C1C"/>
</linearGradient>
<linearGradient id="paint13_linear_1754_13264" x1="22.7239" y1="32.6194" x2="21.0391" y2="29.0877" gradientUnits="userSpaceOnUse">
<stop stop-color="#363B39"/>
<stop offset="1" stop-color="#1B1C1C"/>
</linearGradient>
<linearGradient id="paint14_linear_1754_13264" x1="25.0906" y1="31.4262" x2="22.6311" y2="31.4698" gradientUnits="userSpaceOnUse">
<stop stop-color="#363B39"/>
<stop offset="1" stop-color="#1B1C1C"/>
</linearGradient>
<linearGradient id="paint15_linear_1754_13264" x1="15.6395" y1="-0.0458489" x2="9.02308" y2="0.0712413" gradientUnits="userSpaceOnUse">
<stop stop-color="#363B39"/>
<stop offset="1" stop-color="#1B1C1C"/>
</linearGradient>
<linearGradient id="paint16_linear_1754_13264" x1="16.0568" y1="13.3783" x2="12.3715" y2="7.93949" gradientUnits="userSpaceOnUse">
<stop stop-color="#363B39"/>
<stop offset="1"/>
</linearGradient>
</defs>
</svg>
