<svg width="64" height="54" viewBox="0 0 64 54" fill="none" xmlns="http://www.w3.org/2000/svg">
<rect x="13.9353" y="11.6365" width="35.6079" height="32.9931" rx="3.55938" stroke="#3E7BFA" stroke-width="1.87062"/>
<rect x="14.3105" y="17.6738" width="35.561" height="1.7163" fill="#3E7BFA"/>
<rect width="1.34276" height="3.5713" rx="0.671381" transform="matrix(0.714508 -0.699628 0.709133 0.705074 38.4648 26.6426)" fill="#3E7BFA" stroke="#3E7BFA" stroke-width="0.291891"/>
<rect width="1.26066" height="6.15009" rx="0.630332" transform="matrix(-0.714508 -0.699628 -0.709133 0.705074 45.418 24.7773)" fill="#3E7BFA" stroke="#3E7BFA" stroke-width="0.291891"/>
<rect x="18.6018" y="33.7932" width="6.1083" height="6.02651" rx="1.57473" stroke="#3E7BFA" stroke-width="1.81204"/>
<rect x="18.6018" y="23.5686" width="6.1083" height="6.02651" rx="1.57473" stroke="#3E7BFA" stroke-width="1.81204"/>
<rect x="28.6877" y="33.7932" width="6.1083" height="6.02651" rx="1.57473" stroke="#3E7BFA" stroke-width="1.81204"/>
<rect x="28.6877" y="23.5686" width="6.1083" height="6.02651" rx="1.57473" stroke="#3E7BFA" stroke-width="1.81204"/>
<rect x="38.7678" y="33.7932" width="6.1083" height="6.02651" rx="1.57473" stroke="#3E7BFA" stroke-width="1.81204"/>
<rect x="27.7559" y="8" width="2.02395" height="6.27808" rx="1.01197" fill="#3E7BFA"/>
<rect x="21.2773" y="8" width="2.02395" height="6.27808" rx="1.01197" fill="#3E7BFA"/>
<rect x="34.2324" y="8" width="2.02395" height="6.27808" rx="1.01197" fill="#3E7BFA"/>
<rect x="40.7109" y="8.00024" width="2.02395" height="6.27808" rx="1.01197" fill="#3E7BFA"/>
</svg>
