<svg width="18" height="13" viewBox="0 0 18 13" fill="none" xmlns="http://www.w3.org/2000/svg">
<path d="M5.90604 9.46876C4.65953 8.22009 3.4128 6.97206 2.16398 5.72626L5.90604 9.46876ZM5.90604 9.46876C5.90677 9.46954 5.91272 9.47619 5.9304 9.50091C5.93437 9.50646 5.93959 9.51388 5.94574 9.52264C5.96365 9.54809 5.9895 9.58485 6.01589 9.62009L6.34191 10.0555L6.68075 9.63C6.71152 9.59135 6.739 9.55495 6.75905 9.52839C6.76548 9.51987 6.77115 9.51236 6.77591 9.50611C6.79866 9.47631 6.80614 9.46821 6.80947 9.46488L6.80956 9.46479C8.09554 8.17804 9.38206 6.89143 10.6686 5.60478C12.2764 3.99687 13.8843 2.38889 15.4913 0.78048C15.6687 0.603063 15.841 0.499948 16.0095 0.452627C16.1752 0.406112 16.3648 0.405591 16.5933 0.476966L16.5933 0.476986C17.1926 0.664139 17.4419 1.48556 17.0467 1.97504L17.0465 1.97528C16.9846 2.05209 16.9225 2.12307 16.8592 2.18642L16.8591 2.1865C15.5258 3.52051 14.1922 4.85433 12.8586 6.18816C10.9525 8.09452 9.0464 10.0009 7.14117 11.9079L7.14116 11.9079C6.95828 12.091 6.7818 12.2005 6.61209 12.2504C6.44809 12.2986 6.26415 12.2991 6.04469 12.2211C5.89793 12.1689 5.74003 12.0653 5.61409 11.9407C4.51717 10.854 3.42591 9.76273 2.33376 8.67054C1.80828 8.14505 1.2826 7.61936 0.755994 7.09387L0.755785 7.09366C0.587216 6.92569 0.480869 6.7233 0.420066 6.47517V6.47473V6.47405V6.47338V6.47271V6.47203V6.47136V6.47069V6.47001V6.46934V6.46867V6.46799V6.46732V6.46665V6.46597V6.4653V6.46463V6.46395V6.46328V6.4626V6.46193V6.46126V6.46059V6.45991V6.45924V6.45856V6.45789V6.45722V6.45654V6.45587V6.4552V6.45452V6.45385V6.45318V6.4525V6.45183V6.45116V6.45048V6.44981V6.44914V6.44846V6.44779V6.44712V6.44644V6.44577V6.4451V6.44442V6.44375V6.44308V6.4424V6.44173V6.44106V6.44038V6.43971V6.43904V6.43836V6.43769V6.43702V6.43634V6.43567V6.435V6.43432V6.43365V6.43298V6.4323V6.43163V6.43095V6.43028V6.42961V6.42894V6.42826V6.42759V6.42691V6.42624V6.42557V6.42489V6.42422V6.42355V6.42287V6.4222V6.42153V6.42085V6.42018V6.41951V6.41883V6.41816V6.41749V6.41681V6.41614V6.41547V6.41479V6.41412V6.41345V6.41277V6.4121V6.41143V6.41075V6.41008V6.40941V6.40873V6.40806V6.40739V6.40671V6.40604V6.40537V6.40469V6.40402V6.40335V6.40267V6.402V6.40133V6.40065V6.39998V6.3993V6.39863V6.39796V6.39728V6.39661V6.39594V6.39526V6.39459V6.39392V6.39324V6.39257V6.3919V6.39122V6.39055V6.38988V6.3892V6.38853V6.38786V6.38718V6.38651V6.38584V6.38516V6.38449V6.38382V6.38314V6.38247V6.3818V6.38112V6.38045V6.37978V6.3791V6.37843V6.37776V6.37708V6.37641V6.37574V6.37506V6.37439V6.37372V6.37304V6.37237V6.3717V6.37102V6.37035V6.36968V6.369V6.36833V6.36765V6.36698V6.36631V6.36563V6.36496V6.36429V6.36361V6.36294V6.36227V6.36159V6.36092V6.36025V6.35957V6.3589V6.35823V6.35755V6.35688V6.35621V6.35553V6.35486V6.35419V6.35351V6.35284V6.35217V6.35149V6.35082V6.35015V6.34947V6.3488V6.34813V6.34745V6.34678V6.34611V6.34543V6.34476V6.34409V6.34341V6.34274V6.34207V6.34139V6.34072V6.34005V6.33937V6.3387V6.33803V6.33735V6.33668V6.336V6.33533V6.33466V6.33398V6.33331V6.33264V6.33196V6.33129V6.33062V6.32994V6.32927V6.3286V6.32792V6.32725V6.32658V6.3259V6.32523V6.32456V6.32388V6.32321V6.32254V6.32186V6.32119V6.32052V6.31984V6.31917V6.3185V6.31782V6.31715V6.31648V6.3158V6.31513V6.31446V6.31378V6.31311V6.31244V6.31176V6.31109V6.31042V6.30974V6.30907V6.3084V6.30772V6.30705V6.30638V6.3057V6.30503V6.30436V6.30368V6.30301V6.30233V6.30166V6.30099V6.30031V6.29964V6.29897V6.29829V6.29762V6.29695V6.29627V6.2956V6.29493V6.29425V6.29358V6.29291V6.29223V6.29156V6.29089V6.29021V6.28954V6.28887V6.28819V6.28752V6.28685V6.28617V6.2855V6.28483V6.28415V6.28348V6.28281V6.28213V6.28146V6.28079V6.28011V6.27944V6.27877V6.27809V6.27742V6.27675V6.27607V6.2754V6.27472V6.27405V6.27338V6.27271V6.27203V6.27136V6.27068V6.27001V6.26934V6.26866V6.26799V6.26732V6.26664V6.26597V6.2653V6.26462V6.26395V6.26328V6.2626V6.26193V6.26126V6.26058V6.25991V6.25924V6.25856V6.25789V6.25722V6.25654V6.25587V6.2552V6.25452V6.25385V6.25318V6.2525V6.25183V6.25116V6.25048V6.24981V6.24914V6.24846V6.24779V6.24712V6.24644V6.24577V6.2451V6.24442V6.24375V6.24307V6.2424V6.24173V6.24106V6.24038V6.23971V6.23903V6.23836V6.23769V6.23701V6.23634V6.23567V6.23499V6.23432V6.23365V6.23297V6.2323V6.23163V6.23095V6.23028V6.22961V6.22893V6.22857C0.486279 5.96553 0.577816 5.77747 0.731459 5.6404L5.90604 9.46876ZM1.43533 5.37173C1.20161 5.36008 0.95583 5.44042 0.731537 5.64033L1.43533 5.37173ZM1.43533 5.37173C1.67079 5.38348 1.9276 5.4906 2.16391 5.7262L1.43533 5.37173Z" fill="#32D97F" stroke="#32D97F" stroke-width="0.840132"/>
</svg>
