<svg width="600" height="599" viewBox="0 0 600 599" fill="none" xmlns="http://www.w3.org/2000/svg">
<path fill-rule="evenodd" clip-rule="evenodd" d="M0 553.281V362.656C0.344749 361.45 0.64724 360.264 0.946322 359.092C1.46055 357.077 1.96471 355.101 2.65625 353.125C9.6875 332.031 29.375 317.187 51.5625 317.187C111.25 316.875 170.781 316.875 230.469 317.187C258.437 317.344 281.562 340.312 281.719 368.281C282.031 427.969 282.031 487.812 281.719 547.656C281.562 575.625 258.437 598.594 230.469 598.75C170.833 599.062 111.354 598.906 51.7185 598.75L51.5625 598.75C27.6562 598.594 7.03125 581.719 1.40625 558.281C1.17187 557.422 0.937496 556.601 0.703119 555.781C0.468746 554.961 0.234373 554.141 0 553.281ZM122.628 475.085C122.946 475.145 123.392 475.229 124.062 475.312C124.062 486.25 124.062 496.875 123.75 507.344C123.906 519.375 130.781 527.344 141.25 527.344C151.719 527.5 158.906 519.531 158.906 507.656V474.844H188.75C189.246 474.844 189.741 474.848 190.236 474.852C192.705 474.874 195.157 474.896 197.5 474.375C206.406 472.5 212.344 464.219 211.406 455.469C210.469 446.719 203.281 440 193.906 439.844C186.358 439.74 178.81 439.774 171.036 439.808H171.035H171.035L171.031 439.808C167.058 439.826 163.027 439.844 158.906 439.844C158.906 435.85 158.924 431.909 158.941 428.004V428.003V428.002C158.976 420.295 159.01 412.726 158.906 405.156C158.75 391.406 145.156 383.125 133.437 389.375C127.031 392.812 123.906 398.437 123.906 405.625C123.906 411.172 123.867 416.719 123.828 422.266C123.789 427.812 123.75 433.359 123.75 438.906C123.75 438.906 123.437 439.062 122.812 439.844H91.4062C79.5312 439.844 71.5625 446.875 71.4062 457.187C71.25 467.812 79.375 475 91.5625 475H122.031C122.176 475 122.354 475.033 122.628 475.085ZM45.625 2.01877e-05H236.25C237.934 0.512715 239.619 0.956705 241.287 1.39645L241.288 1.39657L241.292 1.39756C243.181 1.89557 245.05 2.38814 246.875 2.96876C267.656 10.4688 281.719 29.5313 281.875 51.5625C282.031 110.938 282.187 170.469 281.875 229.844C281.719 258.594 258.594 281.563 230 281.719C170.625 282.031 111.406 281.875 52.1875 281.719C27.5 281.719 6.875 264.688 1.25 240.625C0.9375 239.219 0.46875 237.656 0 236.25V45.625C0.195107 44.8837 0.380468 44.1423 0.56582 43.4009L0.566424 43.3984C1.12306 41.1719 1.6797 38.9453 2.5 36.7188C9.0625 17.9688 22.0312 6.25002 41.25 1.25C42.6562 0.937528 44.2187 0.468795 45.625 2.01877e-05ZM167.816 142.789L167.807 142.78C167.336 142.269 166.824 141.712 166.25 141.094C169.204 138.194 172.12 135.368 175 132.578C180.499 127.249 185.864 122.051 191.094 116.719C196.094 111.563 197.812 105.313 195.312 98.4375C192.969 91.875 187.969 87.9688 181.094 86.875C174.844 85.9375 169.687 88.4375 165.312 92.8125C161.409 96.7951 157.507 100.737 153.521 104.763L153.51 104.773L153.503 104.781C149.676 108.646 145.772 112.589 141.719 116.719C140.583 115.583 139.531 114.574 138.52 113.603L138.519 113.602C137.583 112.703 136.682 111.838 135.781 110.938C133.219 108.438 130.706 105.888 128.194 103.338C124.425 99.5125 120.656 95.6875 116.719 92.0313C109.219 85 98.9062 85.1563 92.0312 91.875C85 98.9062 84.8437 109.531 92.1875 117.031C95.3262 120.17 98.4892 123.284 101.696 126.442L101.701 126.447L101.711 126.457L101.711 126.457C106.64 131.31 111.672 136.265 116.875 141.563C108.75 149.688 100.937 157.5 93.125 165.156C88.5937 169.688 85.9375 175 87.0312 181.406C88.125 187.969 91.875 192.812 98.2812 195.156C105 197.813 111.406 196.25 116.562 191.25C121.88 186.035 127.13 180.619 132.532 175.047L132.538 175.041L132.54 175.039C135.39 172.099 138.283 169.115 141.25 166.094C145.54 170.384 149.628 174.512 153.637 178.561L153.656 178.58L153.665 178.59L153.666 178.59L153.666 178.59C157.532 182.495 161.325 186.326 165.156 190.156C169.687 194.688 174.844 197.188 181.406 196.094C188.125 194.844 192.812 191.094 195.156 184.688C197.656 177.813 196.094 171.563 191.094 166.406C186.17 161.248 181.07 156.177 175.992 151.129C174.302 149.449 172.615 147.771 170.937 146.094C169.932 145.088 169.006 144.083 167.818 142.792L167.816 142.789ZM362.655 0.000185148C361.248 0.46896 359.686 0.937693 358.28 1.25017C334.061 7.03143 317.186 27.5002 317.186 52.1877C317.03 111.406 317.03 170.625 317.186 229.844C317.342 258.438 340.311 281.563 368.905 281.719C428.28 282.031 487.811 282.031 547.186 281.719C575.623 281.563 598.748 258.594 598.905 230.469C599.217 170.781 599.217 111.25 598.905 51.5627C598.748 29.5315 584.686 10.469 563.905 2.96897C562.08 2.38827 560.211 1.89566 558.321 1.3976L558.318 1.39674C556.649 0.956952 554.964 0.512922 553.28 0.000185148H362.655ZM457.967 194.219H407.186C395.311 194.219 387.342 187.188 387.342 176.875C387.342 166.406 395.311 159.219 407.03 159.219H509.217C520.936 159.219 528.905 166.563 528.905 176.875C528.748 187.031 520.936 194.219 509.53 194.219H457.967ZM457.342 88.9064H509.842C520.78 88.9064 528.592 96.2502 528.592 106.25C528.748 116.563 520.78 123.906 509.53 123.906H406.092C394.842 123.906 386.873 116.563 387.03 106.25C387.03 96.0939 394.998 88.9064 406.405 88.7502C423.436 88.9064 440.467 88.9064 457.342 88.9064ZM372.341 317.031H457.654C467.341 317.031 477.029 317.014 486.716 316.996C506.091 316.961 525.466 316.927 544.841 317.031C576.247 317.031 599.06 339.843 599.06 371.25C599.164 409.797 599.129 448.275 599.094 486.73C599.077 505.949 599.06 525.162 599.06 544.375C599.06 576.25 576.404 598.906 544.529 598.906H372.029C339.841 598.906 317.185 576.25 317.185 544.062V372.187C317.185 339.531 339.685 317.031 372.341 317.031ZM508.747 439.843H457.966C453.718 439.843 449.46 439.834 445.193 439.824C432.351 439.795 419.421 439.765 406.404 440C394.997 440 387.185 447.187 387.029 457.343C387.029 467.656 394.997 475 406.716 475H508.904C520.622 475 528.591 467.812 528.591 457.343C528.591 446.875 520.622 439.843 508.747 439.843Z" fill="#1B2D84"/>
</svg>
