<svg width="55" height="56" viewBox="0 0 55 56" fill="none" xmlns="http://www.w3.org/2000/svg">
<rect y="0.545898" width="55" height="55" rx="11.0192" fill="#45466D"/>
<path d="M45.9312 38.4064C45.6963 38.9671 45.5452 39.5843 45.2084 40.0741C44.5001 41.1082 43.4296 41.4996 42.1989 41.4978C38.8817 41.496 35.5645 41.4978 32.2473 41.4978C25.4399 41.4978 18.6325 41.496 11.8252 41.4996C10.5981 41.4996 9.55486 41.1137 8.77927 40.125C8.27313 39.4787 8.04555 38.7323 8.04555 37.9239C8.03827 31.6336 8.03463 25.3433 8.04373 19.0548C8.04737 17.3525 9.04872 16.0617 10.6909 15.6102C11.0532 15.5101 11.4447 15.4846 11.8234 15.4846C21.937 15.4791 32.0488 15.4882 42.1624 15.4736C44.1815 15.47 45.6544 16.7681 45.8893 18.5141C45.8929 18.5341 45.9166 18.5523 45.9312 18.5724C45.9312 25.1831 45.9312 31.7938 45.9312 38.4064ZM26.9583 39.3058C30.9546 39.3058 34.9509 39.3058 38.9454 39.3058C40.1051 39.3058 41.2649 39.313 42.4228 39.3003C43.1674 39.2912 43.6681 38.8105 43.7373 38.0695C43.7519 37.9112 43.75 37.7491 43.75 37.5889C43.75 32.0505 43.75 26.514 43.75 20.9756C43.75 20.3347 43.761 19.6921 43.7464 19.0512C43.73 18.3484 43.3586 17.8496 42.7505 17.7094C42.5612 17.6657 42.3591 17.6711 42.1624 17.6711C32.0488 17.6693 21.9352 17.6693 11.8234 17.6693C11.6759 17.6693 11.5266 17.6675 11.3791 17.6821C10.8402 17.7349 10.3687 18.1445 10.2631 18.667C10.2249 18.8582 10.2176 19.0585 10.2176 19.2551C10.2157 25.4088 10.2157 31.5644 10.2157 37.7182C10.2157 38.8342 10.6928 39.3039 11.8215 39.3039C16.8702 39.3058 21.9152 39.3058 26.9583 39.3058Z" fill="#598CFF"/>
<g clip-path="url(#clip0_5_83268)">
<path d="M28.0021 29.9211C27.982 30.1054 27.8618 30.3939 27.7336 30.5902C27.4692 30.9909 27.0645 31.1632 26.5877 31.1752C26.4755 31.1792 26.3633 31.1752 26.2952 31.1752C26.1389 31.4317 26.0268 31.6841 25.8545 31.8884C24.981 32.9221 23.2982 32.5976 22.8535 31.3155C22.8174 31.2073 22.7693 31.1712 22.6531 31.1712C20.9623 31.1752 19.2675 31.1752 17.5766 31.1712C17.4684 31.1712 17.4204 31.1953 17.3843 31.3074C17.1439 32.0206 16.4668 32.5014 15.7135 32.5055C14.9562 32.5055 14.2871 32.0327 14.0387 31.3155C13.9986 31.2033 13.9506 31.1752 13.8344 31.1712C13.009 31.1672 12.42 30.5782 12.4 29.7528C12.396 29.4804 12.4 29.2039 12.4 28.9315C12.404 28.2063 12.8006 27.6814 13.4978 27.4891C14.211 27.2927 14.9242 27.0964 15.6414 26.9081C15.7536 26.876 15.8377 26.824 15.9098 26.7278C16.3305 26.1669 16.7633 25.6139 17.184 25.053C17.5646 24.5522 18.0614 24.2997 18.6905 24.2957C20.2251 24.2957 21.7596 24.2917 23.2942 24.2957C23.9914 24.2957 24.5202 24.5962 24.8889 25.1892C25.2134 25.7181 25.5419 26.239 25.8785 26.7598C25.9226 26.832 25.9987 26.8961 26.0788 26.9321C26.4154 27.0964 26.76 27.2487 27.1006 27.4009C27.5774 27.6133 27.8939 27.9578 27.99 28.4787C28.0341 28.9515 28.0501 29.4483 28.0021 29.9211ZM26.2992 30.5342C26.3793 30.5342 26.4635 30.5342 26.5516 30.5342C27.0605 30.5301 27.369 30.2216 27.369 29.7168C27.369 29.4083 27.365 29.0958 27.369 28.7872C27.373 28.4146 27.2047 28.1582 26.8682 28.0059C26.4835 27.8296 26.1029 27.6533 25.7182 27.4851C25.566 27.4169 25.4578 27.3208 25.3737 27.1805C25.0411 26.6396 24.6925 26.1108 24.368 25.5658C24.1035 25.1251 23.7309 24.9288 23.2221 24.9328C21.7436 24.9408 20.2651 24.9408 18.7867 24.9328C18.3018 24.9288 17.9292 25.1091 17.6407 25.5017C17.208 26.0907 16.7553 26.6637 16.3145 27.2487C16.2264 27.3649 16.1262 27.437 15.982 27.473C15.7376 27.5331 15.4931 27.6053 15.2487 27.6734C14.6998 27.8256 14.1509 27.9699 13.606 28.1261C13.2734 28.2223 13.0531 28.4747 13.0451 28.7872C13.033 29.1358 13.029 29.4884 13.0451 29.837C13.0691 30.2938 13.4938 30.6103 13.9385 30.5181C14.1148 29.4604 14.9362 28.9715 15.6895 28.9555C16.0942 28.9475 16.4588 29.0717 16.7793 29.3201C17.18 29.6246 17.4003 30.0333 17.4725 30.5301C19.2354 30.5301 20.9903 30.5301 22.7453 30.5301C22.9296 29.4403 23.767 28.9635 24.5122 28.9595C25.4017 28.9475 26.0268 29.5004 26.2992 30.5342ZM15.7135 31.8564C16.3386 31.8524 16.8514 31.3355 16.8434 30.7225C16.8354 30.0974 16.3225 29.5886 15.7055 29.5926C15.0845 29.5966 14.5676 30.1135 14.5756 30.7305C14.5796 31.3515 15.0925 31.8604 15.7135 31.8564ZM24.5002 31.8524C25.1253 31.8684 25.6501 31.3595 25.6581 30.7305C25.6662 30.1215 25.1613 29.6046 24.5443 29.5886C23.9232 29.5725 23.3984 30.0814 23.3863 30.7145C23.3743 31.3235 23.8792 31.8363 24.5002 31.8524Z" fill="#598CFF" stroke="#598CFF" stroke-width="1.13488"/>
</g>
<path d="M35.0935 23.5401C33.4895 23.5401 31.8873 23.5419 30.2833 23.5382C29.7299 23.5364 29.404 23.3198 29.2874 22.8937C29.1545 22.4022 29.4331 21.9379 29.932 21.8359C30.0867 21.805 30.2487 21.7904 30.409 21.7904C33.5532 21.7886 36.6993 21.7886 39.8435 21.7904C39.9655 21.7904 40.0893 21.7977 40.2113 21.8177C40.6846 21.8942 40.985 22.2219 40.9905 22.6571C40.996 23.1013 40.6737 23.4581 40.1967 23.5273C40.0747 23.5437 39.9509 23.5401 39.8271 23.5401C38.2504 23.5401 36.6719 23.5401 35.0935 23.5401Z" fill="#598CFF"/>
<path d="M35.1281 33.6059C36.7066 33.6059 38.2851 33.604 39.8636 33.6077C40.0347 33.6077 40.2095 33.6222 40.3752 33.6641C40.7502 33.7624 40.996 34.1065 40.9905 34.487C40.9851 34.8821 40.712 35.2208 40.3205 35.3081C40.2131 35.3318 40.1021 35.3537 39.991 35.3537C36.7466 35.3555 33.5041 35.3573 30.2597 35.3555C29.8355 35.3555 29.475 35.2153 29.3057 34.7947C29.0708 34.2103 29.4878 33.6332 30.1687 33.6113C30.7349 33.5931 31.3029 33.6077 31.871 33.6059C32.9579 33.6059 34.043 33.6059 35.1281 33.6059Z" fill="#598CFF"/>
<path d="M37.0873 31.9732C36.1279 31.9732 35.1666 31.9787 34.2071 31.9714C33.599 31.9659 33.2185 31.6273 33.2094 31.1157C33.2021 30.6933 33.4643 30.3583 33.8812 30.2691C34.0123 30.2418 34.1488 30.2218 34.2817 30.2218C36.1661 30.2181 38.0486 30.2181 39.933 30.2236C40.115 30.2236 40.3044 30.2509 40.4737 30.311C40.7923 30.4257 41.0072 30.7935 40.9908 31.1339C40.9726 31.5017 40.7268 31.8203 40.3663 31.9113C40.2024 31.9532 40.0277 31.9696 39.8565 31.9696C38.9353 31.975 38.0104 31.9732 37.0873 31.9732Z" fill="#598CFF"/>
<path d="M37.0907 28.5793C36.1039 28.5793 35.1172 28.5811 34.1304 28.5775C33.7389 28.5757 33.4294 28.4154 33.2747 28.0459C33.1418 27.7272 33.1891 27.4159 33.4167 27.1465C33.637 26.8861 33.9374 26.8442 34.256 26.8442C35.2173 26.8461 36.1804 26.8442 37.1417 26.8442C38.0793 26.8442 39.017 26.8461 39.9528 26.8442C40.2714 26.8442 40.5718 26.8898 40.7848 27.1574C41.0033 27.4305 41.0579 27.74 40.9141 28.0586C40.7575 28.4082 40.4625 28.5738 40.0875 28.5757C39.199 28.5811 38.3124 28.5793 37.4239 28.5793C37.3128 28.5811 37.2018 28.5811 37.0907 28.5793Z" fill="#598CFF"/>
<defs>
<clipPath id="clip0_5_83268">
<rect width="16.6909" height="16.6909" fill="white" transform="translate(11.8723 19.3076)"/>
</clipPath>
</defs>
</svg>
