<svg width="54" height="54" viewBox="0 0 54 54" fill="none" xmlns="http://www.w3.org/2000/svg">
<rect x="0.0883789" width="53.823" height="53.823" rx="16.0016" fill="#DBE8FF"/>
<g clip-path="url(#clip0_1654_12533)">
<path d="M13.3306 27.742C13.3306 27.1906 13.3306 26.6392 13.3306 26.0877C13.3439 25.9912 13.364 25.8947 13.3774 25.7982C13.4642 25.1917 13.511 24.5782 13.638 23.9785C14.3532 20.5942 16.0376 17.8233 18.7111 15.7348C22.0397 13.1362 25.7827 12.2746 29.8666 13.15C33.135 13.853 35.7885 15.6176 37.8204 18.3471C40.0128 21.2903 40.9285 24.6402 40.5876 28.3279C40.3069 31.3125 39.184 33.9524 37.2523 36.2063C35.1335 38.674 32.5 40.2111 29.3452 40.79C28.8306 40.8865 28.3092 40.9348 27.7946 41.0106C27.2598 41.0106 26.7251 41.0106 26.1904 41.0106C26.1236 40.9968 26.0567 40.9693 25.9832 40.9624C23.8444 40.8038 21.8459 40.1766 20.0212 39.0255C16.4787 36.7853 14.2997 33.5664 13.5378 29.3411C13.4509 28.8104 13.3974 28.2727 13.3306 27.742ZM26.9992 15.011C20.6361 15.0041 15.4694 20.3323 15.4561 26.9011C15.4427 33.4561 20.6027 38.7911 26.9791 38.8118C33.3422 38.8325 38.5423 33.4768 38.5356 26.908C38.5356 20.3391 33.3689 15.0179 26.9992 15.011Z" fill="#3E7BFA"/>
<path d="M27.6167 18.7761V21.3689H26.2456V18.7761H27.6167ZM27.4497 33.1287V35.4929H26.0786V33.1287H27.4497ZM28.4165 30.2458C28.4165 29.9119 28.355 29.6277 28.2319 29.3933C28.1147 29.1589 27.9214 28.9509 27.6519 28.7693C27.3882 28.5876 27.0308 28.4119 26.5796 28.2419C25.8179 27.949 25.147 27.6384 24.5669 27.3103C23.9927 26.9763 23.5444 26.5632 23.2222 26.071C22.8999 25.573 22.7388 24.9431 22.7388 24.1814C22.7388 23.4548 22.9116 22.825 23.2573 22.2917C23.603 21.7585 24.0806 21.3484 24.6899 21.0613C25.3052 20.7683 26.02 20.6218 26.8345 20.6218C27.4556 20.6218 28.0181 20.7156 28.522 20.9031C29.0259 21.0847 29.4595 21.3542 29.8228 21.7117C30.186 22.0632 30.4644 22.4939 30.6577 23.0037C30.8511 23.5134 30.9478 24.0964 30.9478 24.7527H28.4253C28.4253 24.4011 28.3872 24.0906 28.311 23.821C28.2349 23.5515 28.1235 23.3259 27.9771 23.1443C27.8364 22.9626 27.6665 22.8279 27.4673 22.74C27.2681 22.6462 27.0483 22.5994 26.8081 22.5994C26.4507 22.5994 26.1577 22.6697 25.9292 22.8103C25.7007 22.9509 25.5337 23.1414 25.4282 23.3816C25.3286 23.616 25.2788 23.8855 25.2788 24.1902C25.2788 24.489 25.3315 24.7498 25.437 24.9724C25.5483 25.1951 25.7388 25.4001 26.0083 25.5876C26.2778 25.7693 26.647 25.9568 27.1157 26.1501C27.8774 26.4431 28.5454 26.7595 29.1196 27.0994C29.6938 27.4392 30.1421 27.8552 30.4644 28.3474C30.7866 28.8396 30.9478 29.4666 30.9478 30.2283C30.9478 30.9841 30.772 31.6287 30.4204 32.1619C30.0688 32.6892 29.5767 33.0935 28.9438 33.3748C28.311 33.6501 27.5786 33.7878 26.7466 33.7878C26.2075 33.7878 25.6714 33.7175 25.1382 33.5769C24.605 33.4304 24.1216 33.196 23.688 32.8738C23.2544 32.5515 22.9087 32.1238 22.6509 31.5906C22.3931 31.0515 22.2642 30.3894 22.2642 29.6042H24.7954C24.7954 30.032 24.8511 30.3894 24.9624 30.6765C25.0737 30.9578 25.2202 31.1833 25.4019 31.3533C25.5894 31.5173 25.8003 31.6345 26.0347 31.7048C26.269 31.7751 26.5063 31.8103 26.7466 31.8103C27.1216 31.8103 27.4292 31.7429 27.6694 31.6082C27.9155 31.4734 28.1001 31.2888 28.2231 31.0544C28.3521 30.8142 28.4165 30.5447 28.4165 30.2458Z" fill="#3E7BFA"/>
</g>
<defs>
<clipPath id="clip0_1654_12533">
<rect width="27.3305" height="28.1846" fill="white" transform="translate(13.3306 12.8191)"/>
</clipPath>
</defs>
</svg>
