<svg width="45" height="45" viewBox="0 0 45 45" fill="none" xmlns="http://www.w3.org/2000/svg">
<rect x="0.181641" y="0.0800781" width="44.0794" height="44.0794" rx="13.1048" fill="#DBE8FF"/>
<g clip-path="url(#clip0_1320_12012)">
<path d="M22.0561 36.5509C21.6381 36.3855 21.4664 36.0698 21.4963 35.6188C21.5112 35.3858 21.4963 35.1528 21.4963 34.8822C18.3018 34.6567 15.5477 33.4466 13.2862 31.1691C11.0172 28.8916 9.80812 26.1105 9.56928 22.8483C9.30059 22.8483 9.02443 22.8483 8.74827 22.8483C8.25567 22.8483 7.92727 22.5627 7.9198 22.1267C7.91234 21.6833 8.24074 21.3901 8.75574 21.3826C9.02443 21.3826 9.29312 21.3826 9.57674 21.3826C9.81558 18.158 11.0322 15.3845 13.2937 13.122C15.5477 10.8595 18.2869 9.64937 21.5037 9.40885C21.5037 9.14577 21.5187 8.88269 21.5037 8.6121C21.4739 8.16111 21.6455 7.85293 22.0635 7.68005C22.1755 7.68005 22.2874 7.68005 22.3994 7.68005C22.8173 7.84542 22.989 8.16111 22.9592 8.6121C22.9442 8.88269 22.9592 9.14577 22.9592 9.41636C26.176 9.66441 28.9077 10.8896 31.1468 13.1671C33.3934 15.4371 34.5876 18.2106 34.819 21.4352C35.0727 21.4352 35.3116 21.4503 35.5504 21.4277C35.9982 21.3901 36.3266 21.5405 36.5282 21.9463C36.5282 22.0816 36.5282 22.2094 36.5282 22.3447C36.3416 22.7732 36.0057 22.9235 35.5654 22.8934C35.319 22.8784 35.0727 22.8934 34.8115 22.8934C34.5727 26.1255 33.3636 28.8841 31.117 31.154C28.8704 33.4165 26.1387 34.6417 22.9442 34.8822C22.9442 35.1378 22.9293 35.3858 22.9442 35.6263C22.9741 36.0773 22.8024 36.3855 22.3845 36.5584C22.2725 36.5509 22.168 36.5509 22.0561 36.5509ZM22.9442 33.4165C26.0566 33.1384 28.639 31.8606 30.6617 29.5004C32.2813 27.6138 33.162 25.4114 33.3486 22.8934C33.0128 22.8934 32.7217 22.9009 32.4381 22.8934C31.9902 22.8709 31.6768 22.5552 31.6842 22.1493C31.6917 21.7359 32.0052 21.4427 32.4605 21.4352C32.7441 21.4277 33.0352 21.4352 33.3636 21.4352C33.1247 18.4286 31.9455 15.9031 29.7884 13.8736C27.8703 12.0772 25.5938 11.1001 22.9592 10.8896C22.9592 11.2053 22.9592 11.4759 22.9592 11.754C22.9517 12.2426 22.6531 12.5808 22.2277 12.5733C21.8023 12.5658 21.5112 12.235 21.5112 11.739C21.5112 11.4608 21.5112 11.1827 21.5112 10.9046C18.9362 11.0099 15.8612 12.235 13.6669 14.8733C12.0995 16.7525 11.2337 18.9172 11.0471 21.3901C11.383 21.3901 11.6666 21.3901 11.9577 21.3901C12.4428 21.3976 12.7787 21.6983 12.7712 22.1267C12.7712 22.5552 12.4353 22.8483 11.9502 22.8558C11.6591 22.8558 11.3606 22.8558 11.062 22.8558C11.3307 28.8089 16.4657 33.2737 21.5037 33.3714C21.5037 33.0707 21.5037 32.7701 21.5037 32.4769C21.5112 32.0109 21.8023 31.6727 22.2203 31.6727C22.6457 31.6652 22.9517 32.0034 22.9517 32.492C22.9442 32.7776 22.9442 33.0783 22.9442 33.4165Z" fill="#3E7BFA"/>
<path d="M24.9445 21.8789C25.1386 21.9615 25.3252 22.0367 25.5118 22.1194C27.3404 22.9387 28.6913 24.2541 29.5049 26.1031C30.2139 27.7117 29.1391 29.5306 27.3926 29.681C27.2657 29.6885 27.1314 29.696 27.0045 29.696C23.8101 29.696 20.6156 29.696 17.4286 29.696C16.2568 29.696 15.3089 29.0872 14.9059 28.08C14.6446 27.4335 14.6446 26.7721 14.9282 26.1332C15.794 24.1564 17.2495 22.7884 19.2348 21.9916C19.302 21.9615 19.3766 21.939 19.4438 21.9089C19.4587 21.9014 19.4736 21.8864 19.5035 21.8563C18.4735 20.8792 17.9734 19.684 18.1152 18.2559C18.2272 17.1435 18.7347 16.2189 19.5856 15.4974C21.2052 14.1219 23.6309 14.2346 25.1461 15.7454C26.6463 17.2637 26.9299 20.0148 24.9445 21.8789ZM22.2128 28.2378C23.7653 28.2378 25.3252 28.2378 26.8776 28.2378C27.0269 28.2378 27.1762 28.2303 27.3255 28.2077C28.0718 28.095 28.4749 27.3659 28.1763 26.6669C27.8628 25.9453 27.4374 25.2989 26.8702 24.7577C25.2207 23.1867 23.2428 22.608 21.0336 22.9988C18.8616 23.3822 17.2495 24.5848 16.3016 26.6293C15.9582 27.3659 16.3762 28.1025 17.1674 28.2153C17.3017 28.2303 17.4435 28.2378 17.5853 28.2378C19.1228 28.2378 20.6678 28.2378 22.2128 28.2378ZM22.183 16.001C20.6529 16.0386 19.496 17.2713 19.5408 18.8272C19.5781 20.2703 20.847 21.473 22.2725 21.4279C23.7877 21.3828 24.9371 20.1501 24.9072 18.6092C24.8699 17.166 23.6235 15.9634 22.183 16.001Z" fill="#3E7BFA"/>
</g>
<defs>
<clipPath id="clip0_1320_12012">
<rect width="28.6009" height="28.8633" fill="white" transform="translate(7.92188 7.68774)"/>
</clipPath>
</defs>
</svg>
