<svg width="15" height="15" viewBox="0 0 15 15" fill="none" xmlns="http://www.w3.org/2000/svg">
<g clip-path="url(#clip0_453_80265)">
<path d="M0.00195312 12.7783C0.0861247 12.3405 0.369213 12.0351 0.673438 11.7335C2.17305 10.2462 3.66511 8.75127 5.16095 7.26015C5.20021 7.22104 5.25456 7.19697 5.30778 7.16199C5.23909 7.09054 5.20474 7.05293 5.16888 7.0172C3.60435 5.455 2.03943 3.89317 0.475277 2.33059C-0.03164 1.82478 -0.0656106 1.03427 0.393747 0.488218C0.851218 -0.0552065 1.645 -0.159755 2.22703 0.249788C2.2995 0.300934 2.36555 0.36261 2.42896 0.425414C3.97878 1.96242 5.52784 3.50018 7.07652 5.03831C7.12294 5.08457 7.16295 5.1376 7.21655 5.20002C7.27166 5.14775 7.31205 5.11127 7.35055 5.07291C8.89206 3.5344 10.4321 1.99439 11.9751 0.457004C12.7349 -0.300029 13.982 -0.00631714 14.2775 1.00268C14.4262 1.51038 14.319 1.97145 13.9386 2.35203C12.3948 3.89505 10.8499 5.43657 9.30461 6.97809C9.26498 7.01796 9.21855 7.05105 9.15967 7.09994C9.2227 7.1635 9.27026 7.21239 9.31858 7.26052C10.8842 8.81483 12.4495 10.3695 14.0171 11.9219C14.313 12.2149 14.4746 12.5601 14.467 12.9783C14.4542 13.6914 13.8804 14.2573 13.1656 14.2739C12.6824 14.2852 12.2831 14.1261 11.9381 13.779C10.4128 12.2442 8.87771 10.7189 7.34753 9.1894C7.30789 9.14991 7.27959 9.09876 7.24637 9.05288C7.22599 9.04912 7.20561 9.04574 7.18522 9.04198C7.15465 9.09011 7.132 9.14577 7.09275 9.18526C5.53614 10.7418 3.97802 12.2973 2.4199 13.8523C1.94205 14.3295 1.12638 14.4164 0.558693 14.0528C0.266169 13.8662 0.115188 13.5879 0.0325267 13.2638C0.0246002 13.2329 0.0121443 13.2032 0.00195312 13.1731C0.00195312 13.0415 0.00195312 12.9099 0.00195312 12.7783Z" fill="#EC0505"/>
</g>
<defs>
<clipPath id="clip0_453_80265">
<rect width="14.4647" height="14.2768" fill="white"/>
</clipPath>
</defs>
</svg>
