<svg width="64" height="54" viewBox="0 0 64 54" fill="none" xmlns="http://www.w3.org/2000/svg">
<path fill-rule="evenodd" clip-rule="evenodd" d="M12.0258 27.0982C12.0087 27.4351 12 27.7742 12 28.1153C12 38.9971 20.8214 47.8185 31.7032 47.8185C42.585 47.8185 51.4064 38.9971 51.4064 28.1153C51.4064 17.7453 43.3951 9.24639 33.224 8.46997V10.7777C42.1234 11.5481 49.1064 19.0162 49.1064 28.1153C49.1064 37.7269 41.3147 45.5185 31.7032 45.5185C22.0917 45.5185 14.3 37.7269 14.3 28.1153C14.3 27.7739 14.3098 27.4348 14.3292 27.0982H12.0258Z" fill="#3E7BFA"/>
<circle cx="33.2766" cy="9.52078" r="1.04813" fill="#3E7BFA"/>
<circle cx="13.0755" cy="27.0989" r="1.04813" fill="#3E7BFA"/>
<path d="M42.1411 27.7831V29.0517L37.9579 38.7773H35.466L39.6493 29.618H34.2881V27.7831H42.1411Z" fill="#3E7BFA"/>
<path d="M20.391 20.1648V22H12.7936V20.4443L16.3431 16.6833C16.6754 16.3007 16.9397 15.9634 17.1361 15.6713C17.3375 15.3793 17.4835 15.115 17.5741 14.8784C17.6647 14.6367 17.71 14.4152 17.71 14.2138C17.71 13.8865 17.6572 13.6096 17.5514 13.3831C17.4507 13.1565 17.3022 12.9828 17.1059 12.862C16.9095 12.7411 16.6704 12.6807 16.3884 12.6807C16.0863 12.6807 15.827 12.7588 15.6106 12.9148C15.3941 13.0709 15.2279 13.2874 15.1121 13.5643C14.9963 13.8362 14.9384 14.1458 14.9384 14.4932H12.5671C12.5671 13.8236 12.7282 13.2144 13.0504 12.6656C13.3726 12.1118 13.8232 11.6713 14.4022 11.344C14.9812 11.0117 15.6584 10.8456 16.4337 10.8456C17.2292 10.8456 17.8963 10.9714 18.435 11.2232C18.9737 11.4749 19.3816 11.8349 19.6585 12.3031C19.9354 12.7713 20.0738 13.3352 20.0738 13.9948C20.0738 14.3674 20.0134 14.7273 19.8926 15.0747C19.7768 15.4221 19.6081 15.767 19.3866 16.1094C19.1651 16.4517 18.8982 16.8016 18.5861 17.1591C18.2739 17.5115 17.9215 17.8841 17.5288 18.2768L15.8673 20.1648H20.391ZM29.4837 17.801V19.6286H21.5692L21.4408 18.1937L25.9418 11.0042H27.8072L25.7832 14.3573L23.7366 17.801H29.4837ZM28.3056 11.0042V22H25.9494V11.0042H28.3056Z" fill="#3E7BFA"/>
<rect x="37.5605" y="17.4609" width="1.65588" height="20.334" rx="0.827942" transform="rotate(44.5212 37.5605 17.4609)" fill="#3E7BFA"/>
</svg>
