<svg width="466" height="472" viewBox="0 0 466 472" fill="none" xmlns="http://www.w3.org/2000/svg">
<g clip-path="url(#clip0_894_10723)">
<g opacity="0.7">
<path d="M249.5 2.00011C258.973 3.56555 268.378 4.81767 277.852 6.6962C369.112 23.916 445.215 101.718 461.32 192.357C482.635 312.583 405.9 420.754 295.22 453.002C245.326 467.561 196.065 465.369 147.592 446.584C144.119 445.175 142.066 445.958 139.224 447.836C98.6466 474.605 56.4901 477.266 13.0704 455.194C2.64962 449.871 -0.823953 439.07 5.01797 429.521C26.8068 393.672 30.1225 356.102 17.3334 316.34C11.4915 297.867 6.1232 278.769 2.80751 259.671C-4.29753 218.343 2.33384 178.112 19.8596 140.228C53.4902 67.2786 110.804 22.6636 190.223 5.91348C198.907 4.03495 207.591 3.25223 216.432 1.99989C228.5 1.9998 238.069 1.00008 249.5 2.00011ZM47.0167 430.773C46.7009 430.616 47.4903 430.93 48.1219 431.243C49.2271 431.556 50.3324 431.869 51.5955 432.182C79.2262 437.817 104.015 431.712 125.172 413.084C133.067 406.196 140.803 404.787 150.435 409.17C186.276 425.607 223.853 430.46 262.694 424.042C365.954 406.822 445.373 309.921 425.637 198.149C408.269 99.8397 313.219 27.673 213.117 38.7876C145.698 46.1452 94.6994 79.8021 60.911 137.88C39.9116 173.885 31.2277 213.177 38.0169 254.505C41.3326 274.542 47.8061 294.267 53.4902 313.835C60.1215 337.316 63.1214 360.954 58.8584 385.062C56.1743 400.247 51.2797 415.119 47.0167 430.773Z" fill="#D4E3FE"/>
<path d="M127.803 261.223C111.857 261.38 99.2253 248.856 99.2253 233.202C99.2253 217.547 112.014 204.867 127.646 204.867C143.119 204.867 155.908 217.391 156.066 232.732C156.224 248.543 143.75 261.067 127.803 261.223Z" fill="#D4E3FE"/>
<path d="M232.422 261.258C216.475 261.258 204.002 248.735 204.16 233.08C204.318 217.739 216.791 205.216 232.264 205.059C247.738 204.902 260.842 217.739 261 233.237C261.158 248.578 248.211 261.258 232.422 261.258Z" fill="#D4E3FE"/>
<path d="M337.254 261.212C321.465 261.212 308.676 248.532 308.833 233.034C308.991 217.536 322.096 204.7 337.569 205.013C353.043 205.169 365.516 217.693 365.516 233.191C365.674 248.845 353.201 261.212 337.254 261.212Z" fill="#D4E3FE"/>
</g>
</g>
<defs>
<clipPath id="clip0_894_10723">
<rect width="466" height="472" fill="white"/>
</clipPath>
</defs>
</svg>
