<svg width="414" height="417" viewBox="0 0 414 417" fill="none" xmlns="http://www.w3.org/2000/svg">
<path opacity="0.5" d="M222.131 0C230.567 1.39477 239.004 2.51059 247.44 4.18432C328.712 19.5268 396.486 88.8471 410.828 169.605C429.81 276.723 361.474 373.102 262.907 401.835C218.475 414.806 174.605 412.853 131.438 396.116C128.345 394.861 126.517 395.558 123.986 397.232C87.8496 421.082 50.3071 423.454 11.6398 403.787C2.35962 399.045 -0.73377 389.421 4.46875 380.913C23.8727 348.973 26.8255 315.498 15.4362 280.071C10.2337 263.612 5.45301 246.596 2.50023 229.58C-3.82716 192.758 2.0784 156.912 17.686 123.159C47.6356 58.1621 98.6765 18.411 169.403 3.48694C177.136 1.81321 184.87 1.11582 192.744 0C202.446 0 212.288 0 222.131 0ZM41.8706 382.029C41.5894 381.889 42.2925 382.168 42.8549 382.447C43.8392 382.726 44.8234 383.005 45.9483 383.284C70.5548 388.305 92.6303 382.866 111.472 366.268C118.502 360.131 125.392 358.876 133.969 362.781C165.887 377.426 199.352 381.75 233.942 376.031C325.9 360.689 396.626 274.352 379.05 174.765C363.583 87.1734 278.937 22.8743 189.791 32.7772C129.751 39.3326 84.3344 69.3203 54.2442 121.066C35.5433 153.146 27.8098 188.155 33.8559 224.977C36.8087 242.83 42.5737 260.404 47.6356 277.839C53.5411 298.761 56.2127 319.822 52.4163 341.301C50.0259 354.831 45.6671 368.081 41.8706 382.029Z" fill="#F8F8F8"/>
</svg>
