<svg width="800" height="783" viewBox="0 0 800 783" fill="none" xmlns="http://www.w3.org/2000/svg">
<g clip-path="url(#clip0_1786_13118)">
<path d="M517.358 1006.05L566.929 969.579C607.655 919.246 615.434 853.151 598.923 792.554C597.571 779.896 584.846 775.553 573.845 775.438C537.381 772.368 500.812 771.215 464.525 766.146C481.074 797.788 496.906 833.683 487.126 870.224C468.026 931.508 398.058 974.73 335.337 956.387C274.199 941.289 234.763 870.905 254.155 810.593C272.454 759.375 324.502 721.203 379.483 724.909C499.933 730.41 619.956 742.283 740.331 750.157C761.205 732.898 782.402 715.921 803.185 698.44C785.553 676.044 768.134 653.404 750.797 630.834C639.464 619.932 527.936 610.724 416.437 601.973C340.389 595.984 231.684 623.094 207.609 685.574L193.83 701.387C114.342 792.285 127.23 923.877 216.083 1004.03C297.21 1087.49 431.153 1092.24 517.358 1006.05Z" fill="url(#paint0_linear_1786_13118)"/>
<path fill-rule="evenodd" clip-rule="evenodd" d="M218.377 1021.17C214.784 1017.94 211.3 1014.59 207.933 1011.13C201.998 1005.78 196.42 1000.11 191.205 994.158C180.012 981.079 170.455 967.021 162.556 952.27C119.421 870.024 127.371 760.813 190.114 689.064L203.827 673.326C290.932 586.101 432.026 580.162 526.406 662.4C551.521 684.284 570.903 710.298 584.422 738.546C516.151 733.211 447.886 728.032 379.482 724.908C324.501 721.202 272.453 759.374 254.154 810.592C234.762 870.905 274.198 941.288 335.335 956.386C398.056 974.73 468.025 931.507 487.125 870.223C496.905 833.682 481.073 797.787 464.524 766.145C488.894 769.55 513.391 771.188 537.897 772.826C549.882 773.628 561.868 774.429 573.844 775.437C584.845 775.552 597.57 779.895 598.922 792.554C604.245 812.088 607.151 832.664 607.281 853.267C604.873 899.497 588.933 945.324 559.02 984.37L539.162 1007.16C452.925 1094.37 313.034 1101.29 218.377 1021.17Z" fill="url(#paint1_linear_1786_13118)"/>
<path d="M951.062 532.279L969.921 499.019C1025.99 427.153 1012.96 328.971 969.843 250.871C917.723 163.497 829.894 123.42 728.134 147.743C686.646 155.986 657.5 171.084 628.29 201.34L596.125 223.006C548.946 278.132 539.244 360.329 564.398 426.211C604.145 440.223 650.461 432.32 692.44 440.829C677.942 411.727 663.577 380.021 668.932 346.593C680.68 273.483 770.104 225.093 837.216 256.218C892.512 279.339 923.614 348.686 900.16 405.009C881.274 457.722 822.164 486.842 768.521 481.917C650.604 475.12 532.729 466.64 415.028 456.164C429.888 476.846 445.478 497.018 461.574 516.772C443.396 537.307 424.723 557.268 406.13 577.299C493.993 585.262 581.939 592.15 669.843 599.576C762.686 607.868 879.966 613.873 951.062 532.279Z" fill="url(#paint2_linear_1786_13118)"/>
<path fill-rule="evenodd" clip-rule="evenodd" d="M571.378 468.927C584.885 496.963 604.178 522.782 629.13 544.523C723.807 627.02 865.492 620.784 952.529 532.773L972.396 509.972C1047.56 411.852 1034.49 270.914 940.19 188.367C937.798 186.281 935.369 184.238 932.904 182.239C838.36 105.861 701.355 113.851 616.399 199.738L596.495 222.581C577.567 247.296 564.236 274.727 556.39 303.256C546.928 344.071 549.768 387.9 564.396 426.212C587.134 434.228 612.022 435.071 637.018 435.918C655.716 436.552 674.474 437.188 692.438 440.83C677.94 411.728 663.575 380.021 668.93 346.594C680.678 273.484 770.102 225.093 837.214 256.218C892.51 279.339 923.612 348.687 900.158 405.009C881.272 457.722 822.162 486.843 768.519 481.918C702.785 478.129 637.064 473.817 571.378 468.927Z" fill="url(#paint3_linear_1786_13118)"/>
</g>
<defs>
<linearGradient id="paint0_linear_1786_13118" x1="606.011" y1="924.727" x2="257.52" y2="621.071" gradientUnits="userSpaceOnUse">
<stop stop-color="#ECEEF5"/>
<stop offset="1" stop-color="#ECEEF5" stop-opacity="0.4"/>
</linearGradient>
<linearGradient id="paint1_linear_1786_13118" x1="549.099" y1="995.756" x2="193.139" y2="685.592" gradientUnits="userSpaceOnUse">
<stop stop-color="#ECEEF5"/>
<stop offset="1" stop-color="#ECEEF5" stop-opacity="0.4"/>
</linearGradient>
<linearGradient id="paint2_linear_1786_13118" x1="900.246" y1="590.598" x2="545.309" y2="281.326" gradientUnits="userSpaceOnUse">
<stop stop-color="#ECEEF5"/>
<stop offset="1" stop-color="#ECEEF5" stop-opacity="0.4"/>
</linearGradient>
<linearGradient id="paint3_linear_1786_13118" x1="962.462" y1="521.372" x2="606.447" y2="211.16" gradientUnits="userSpaceOnUse">
<stop stop-color="#ECEEF5"/>
<stop offset="1" stop-color="#ECEEF5" stop-opacity="0.4"/>
</linearGradient>
<clipPath id="clip0_1786_13118">
<rect width="1102.09" height="572.371" fill="white" transform="matrix(0.656943 -0.75394 -0.75394 -0.656943 431.534 1206.93)"/>
</clipPath>
</defs>
</svg>
