<svg width="48" height="45" viewBox="0 0 48 45" fill="none" xmlns="http://www.w3.org/2000/svg">
<path d="M26.1822 5V10.5063H23.4741V5H26.1822ZM25.8572 34.4813V39.3016H23.1672V34.4813H25.8572ZM29.4679 28.7764C29.4679 28.0543 29.3054 27.4044 28.9804 26.8267C28.6555 26.2489 28.1199 25.7194 27.3737 25.2379C26.6275 24.7565 25.6285 24.3112 24.3768 23.902C22.8603 23.4326 21.5484 22.8609 20.4412 22.1869C19.3459 21.5129 18.4974 20.6764 17.8956 19.6775C17.3059 18.6785 17.011 17.4689 17.011 16.0487C17.011 14.5683 17.3299 13.2926 17.9678 12.2214C18.6057 11.1502 19.5084 10.3258 20.6758 9.74806C21.8433 9.17035 23.2154 8.8815 24.792 8.8815C26.0197 8.8815 27.1149 9.06805 28.0778 9.44115C29.0406 9.80222 29.853 10.3438 30.515 11.066C31.189 11.7881 31.7005 12.6727 32.0495 13.7198C32.4106 14.7669 32.5911 15.9765 32.5911 17.3486H29.2693C29.2693 16.5422 29.173 15.802 28.9804 15.128C28.7879 14.454 28.499 13.8703 28.1139 13.3768C27.7287 12.8713 27.2594 12.4862 26.7057 12.2214C26.1521 11.9446 25.5142 11.8062 24.792 11.8062C23.781 11.8062 22.9446 11.9807 22.2826 12.3297C21.6327 12.6787 21.1513 13.1722 20.8383 13.8101C20.5254 14.4359 20.3689 15.1641 20.3689 15.9946C20.3689 16.7648 20.5254 17.4388 20.8383 18.0166C21.1513 18.5943 21.6808 19.1178 22.427 19.5872C23.1853 20.0446 24.2264 20.4959 25.5503 20.9412C27.1029 21.4347 28.4208 22.0184 29.504 22.6924C30.5872 23.3544 31.4116 24.1728 31.9773 25.1477C32.543 26.1105 32.8258 27.3081 32.8258 28.7403C32.8258 30.2929 32.4768 31.6048 31.7787 32.676C31.0807 33.7351 30.0998 34.5415 28.836 35.0951C27.5723 35.6488 26.0919 35.9256 24.3949 35.9256C23.3718 35.9256 22.3608 35.7872 21.3619 35.5104C20.3629 35.2336 19.4602 34.7822 18.6539 34.1564C17.8475 33.5185 17.2036 32.682 16.7221 31.6469C16.2407 30.5998 16 29.318 16 27.8015H19.3579C19.3579 28.8246 19.5024 29.6731 19.7912 30.3471C20.0921 31.009 20.4893 31.5386 20.9828 31.9358C21.4762 32.3209 22.0178 32.5977 22.6076 32.7662C23.2094 32.9227 23.8051 33.0009 24.3949 33.0009C25.4781 33.0009 26.3928 32.8324 27.139 32.4954C27.8972 32.1464 28.475 31.6529 28.8721 31.0151C29.2693 30.3772 29.4679 29.631 29.4679 28.7764Z" fill="#3E7BFA"/>
</svg>
