<svg width="55" height="54" viewBox="0 0 55 54" fill="none" xmlns="http://www.w3.org/2000/svg">
<rect x="0.588379" width="53.823" height="53.823" rx="16.0016" fill="#DBE8FF"/>
<path d="M41.6984 31.648C41.8893 32.1157 42.042 32.5548 42.2424 32.9749C42.2901 33.0703 42.4428 33.1562 42.5573 33.1658C43.0249 33.1849 43.483 33.1658 43.9506 33.1753C44.3991 33.1849 44.5805 33.3567 44.5805 33.8053C44.59 34.8458 44.59 35.8768 44.5805 36.9173C44.5805 37.3469 44.3991 37.5187 43.9697 37.5187C43.5021 37.5187 43.044 37.5282 42.5764 37.5187C42.3569 37.5091 42.271 37.5951 42.2042 37.7955C42.0992 38.1201 41.9656 38.4446 41.8034 38.7501C41.6984 38.9506 41.708 39.0842 41.8797 39.2369C42.2138 39.5424 42.5287 39.867 42.8436 40.1915C43.1681 40.5256 43.1681 40.7547 42.8436 41.0793C42.1183 41.8143 41.3835 42.5494 40.6487 43.2748C40.3337 43.5803 40.1047 43.5803 39.7898 43.2844C39.4462 42.9503 39.1122 42.6162 38.7782 42.2725C38.6541 42.1389 38.5492 42.1198 38.3774 42.2057C38.0338 42.368 37.6807 42.5207 37.3276 42.6448C37.1463 42.7116 37.0891 42.7976 37.0986 42.9789C37.1081 43.4562 37.1081 43.9335 37.0986 44.4108C37.0891 44.8213 36.9173 45.0122 36.5165 45.0122C35.4572 45.0217 34.3979 45.0217 33.3386 45.0122C32.9569 45.0122 32.766 44.8213 32.7565 44.4394C32.7469 43.9908 32.7374 43.5326 32.7565 43.0839C32.7755 42.8071 32.6706 42.6925 32.4129 42.6066C32.0884 42.5016 31.783 42.3298 31.4586 42.2248C31.3536 42.1866 31.1818 42.2153 31.1055 42.2821C30.7619 42.5971 30.447 42.9312 30.113 43.2558C29.7694 43.5994 29.5404 43.5994 29.2064 43.2653C28.4811 42.5398 27.7558 41.8239 27.0305 41.0888C26.6965 40.7547 26.6965 40.5161 27.0401 40.1724C27.355 39.8479 27.6699 39.5233 28.0039 39.2179C28.1471 39.0842 28.1757 38.9792 28.0803 38.7883C27.9181 38.4637 27.7749 38.1201 27.6604 37.7669C27.5936 37.5855 27.5172 37.4996 27.3073 37.5091C26.8397 37.5282 26.3816 37.5187 25.914 37.5091C25.475 37.5091 25.3032 37.3469 25.3032 36.9173C25.3032 35.8673 25.3032 34.8172 25.3032 33.7767C25.3032 33.3471 25.475 33.1753 25.914 33.1658C26.3625 33.1562 26.8206 33.1562 27.2691 33.1658C27.4886 33.1753 27.6127 33.118 27.6795 32.8889C27.7654 32.593 27.8799 32.2971 28.0326 32.0298C28.1948 31.7434 28.1471 31.5716 27.9085 31.3711C27.584 31.0943 27.2977 30.7793 26.9924 30.4643C26.7252 30.1875 26.7156 29.9297 26.9924 29.6529C27.7463 28.8892 28.5002 28.1351 29.2636 27.381C29.5213 27.1232 29.779 27.1232 30.0462 27.381C30.3993 27.7151 30.7428 28.0587 31.0769 28.4215C31.22 28.5742 31.325 28.5742 31.5063 28.4883C31.8403 28.326 32.1839 28.1924 32.5274 28.0683C32.7087 28.0015 32.766 27.9155 32.7565 27.7342C32.7469 27.2855 32.7469 26.8273 32.7565 26.3787C32.7565 25.8727 32.9187 25.7104 33.4149 25.7104C34.4361 25.7104 35.4667 25.7104 36.4878 25.7104C36.9459 25.7104 37.0986 25.8727 37.1081 26.3405C37.1081 26.8082 37.1177 27.2664 37.1081 27.7342C37.0986 27.9251 37.1749 28.0015 37.3467 28.0683C37.6998 28.2019 38.0529 28.3451 38.3965 28.5074C38.5683 28.5933 38.6637 28.5742 38.7973 28.4406C39.1218 28.0969 39.4653 27.7628 39.8089 27.4287C40.1047 27.1423 40.3528 27.1328 40.6487 27.4192C41.4026 28.1637 42.1565 28.9083 42.9009 29.672C43.1872 29.9679 43.1872 30.2066 42.8913 30.5025C42.4714 30.8843 42.0706 31.2757 41.6984 31.648ZM28.0135 40.5734C28.5956 41.1557 29.13 41.6902 29.6931 42.2534C30.0176 41.9193 30.3802 41.5757 30.7142 41.2129C30.9719 40.9457 31.22 40.9361 31.5445 41.0984C32.0884 41.3561 32.6515 41.5852 33.2145 41.7952C33.6535 41.9575 33.7394 42.0339 33.7394 42.5112C33.7394 42.998 33.7394 43.4753 33.7394 43.9717C34.541 43.9717 35.3045 43.9717 36.087 43.9717C36.087 43.4658 36.0966 42.9789 36.087 42.4921C36.0775 42.1102 36.2397 41.9193 36.6024 41.7952C37.175 41.5948 37.7285 41.3657 38.282 41.1079C38.6923 40.917 38.8259 40.9075 39.1599 41.2511C39.5035 41.5948 39.828 41.9575 40.1238 42.263C40.7155 41.6711 41.2594 41.127 41.8225 40.5734C41.498 40.2488 41.164 39.9052 40.8014 39.571C40.5151 39.3133 40.5055 39.0556 40.6773 38.7119C40.935 38.1774 41.164 37.6332 41.3644 37.07C41.5266 36.6214 41.6221 36.5164 42.0992 36.5164C42.5859 36.5164 43.0631 36.5164 43.5498 36.5164C43.5498 35.705 43.5498 34.9508 43.5498 34.1681C43.0249 34.1681 42.5287 34.1585 42.0324 34.1681C41.6793 34.1776 41.498 34.0058 41.3835 33.6812C41.1735 33.099 40.9445 32.5262 40.6773 31.9725C40.5151 31.6289 40.5246 31.3711 40.8014 31.1134C41.164 30.7793 41.5076 30.4166 41.832 30.1015C41.2594 29.5193 40.725 28.9847 40.1524 28.4119C39.8184 28.7556 39.4749 29.1088 39.1313 29.4715C38.8832 29.7388 38.6351 29.7484 38.301 29.5861C37.7571 29.3188 37.194 29.0897 36.631 28.8797C36.192 28.7174 36.0966 28.6219 36.087 28.1351C36.087 27.6674 36.087 27.1901 36.087 26.7128C35.2854 26.7128 34.5315 26.7128 33.7394 26.7128C33.7394 27.2282 33.7299 27.7342 33.7394 28.2306C33.7489 28.5838 33.5867 28.7556 33.2527 28.8797C32.6706 29.0801 32.098 29.3188 31.5445 29.5861C31.2009 29.7579 30.9528 29.7388 30.6856 29.462C30.3516 29.0992 29.9889 28.746 29.674 28.431C29.0919 29.0133 28.5575 29.5479 27.9753 30.1302C28.3189 30.4643 28.6911 30.8175 29.0632 31.1611C29.3114 31.3902 29.3209 31.6289 29.1778 31.9344C28.9105 32.5071 28.6624 33.0799 28.4525 33.6717C28.3284 34.0249 28.1471 34.1776 27.7845 34.1681C27.2882 34.149 26.792 34.1681 26.2957 34.1681C26.2957 34.9699 26.2957 35.7336 26.2957 36.5164C26.8015 36.5164 27.2882 36.5259 27.7749 36.5164C28.1376 36.5068 28.3284 36.6596 28.4525 37.0128C28.6624 37.6046 28.9105 38.1869 29.1778 38.7501C29.3304 39.0651 29.3209 39.3133 29.0632 39.552C28.7197 39.8861 28.357 40.2393 28.0135 40.5734Z" fill="#3E7BFA" stroke="#3E7BFA" stroke-width="0.4"/>
<path d="M23.9488 13.8829C24.3019 13.5297 24.6741 13.1478 25.0559 12.766C25.4185 12.4032 25.6284 12.4032 25.9911 12.766C26.7068 13.4819 27.4226 14.1979 28.1383 14.9138C28.4819 15.2575 28.4819 15.4866 28.1478 15.8302C27.8234 16.1643 27.4894 16.4793 27.1649 16.823C27.0981 16.8993 27.0408 17.0616 27.079 17.138C27.2508 17.5771 27.4512 18.0162 27.6516 18.484C28.1669 18.484 28.7109 18.484 29.2549 18.484C29.7129 18.484 29.8752 18.6462 29.8752 19.1044C29.8752 20.1449 29.8752 21.1759 29.8752 22.2164C29.8752 22.646 29.7034 22.8273 29.2739 22.8369C28.7968 22.8464 28.3196 22.8464 27.8425 22.8369C27.6516 22.8273 27.5753 22.9037 27.5085 23.0755C27.3748 23.4287 27.2126 23.7724 27.0886 24.1351C27.0504 24.2401 27.079 24.4119 27.1554 24.4883C27.4703 24.832 27.8043 25.147 28.1288 25.4811C28.4723 25.8247 28.4723 26.0634 28.1383 26.3975C27.413 27.123 26.6973 27.8485 25.9625 28.5739C25.6284 28.908 25.3899 28.8985 25.0463 28.5644C24.7218 28.2494 24.3974 27.9344 24.092 27.6003C23.9584 27.4571 23.8439 27.4284 23.6625 27.5239C23.3763 27.6766 23.09 27.8198 22.775 27.8962C22.4506 27.9821 22.3742 28.1444 22.3933 28.4498C22.4219 28.8603 22.4028 29.2803 22.3933 29.7004C22.3838 30.1395 22.212 30.3017 21.7825 30.3017C20.7328 30.3017 19.683 30.3017 18.6428 30.3017C18.2229 30.3017 18.0607 30.1299 18.0607 29.7194C18.0512 29.2708 18.0512 28.8126 18.0607 28.3639C18.0702 28.1253 18.013 28.0012 17.7649 27.9344C17.4595 27.8485 17.1445 27.7339 16.8773 27.5716C16.6101 27.4093 16.4574 27.4857 16.2761 27.6862C15.9803 28.0107 15.6654 28.3162 15.3409 28.6217C15.0641 28.889 14.8065 28.889 14.5297 28.6217C13.7758 27.8771 13.0219 27.123 12.2775 26.3784C11.9817 26.0825 11.9817 25.8438 12.2775 25.5479C12.6688 25.147 13.0696 24.7651 13.4513 24.3929C13.2605 23.906 13.0982 23.4669 12.8978 23.0278C12.8597 22.9419 12.707 22.8655 12.602 22.8655C12.1535 22.8464 11.6954 22.8655 11.2469 22.856C10.7697 22.8369 10.5884 22.665 10.5884 22.1782C10.5884 21.1663 10.5884 20.1545 10.5884 19.1426C10.5884 18.6653 10.7602 18.4935 11.2278 18.4935C11.6954 18.4935 12.1535 18.484 12.6211 18.4935C12.8024 18.4935 12.8883 18.4362 12.9551 18.2549C13.0792 17.8921 13.2223 17.5389 13.3941 17.2048C13.48 17.033 13.4513 16.928 13.3177 16.8039C12.9837 16.4793 12.6593 16.1548 12.3348 15.8207C12.0103 15.4866 12.0008 15.2575 12.3252 14.9329C13.0505 14.1979 13.7853 13.4628 14.5202 12.7373C14.8446 12.4223 15.0737 12.4223 15.4077 12.7469C15.7322 13.0619 16.0566 13.3769 16.362 13.711C16.5052 13.8638 16.6197 13.9019 16.8201 13.7969C17.1445 13.6251 17.4881 13.4915 17.8412 13.3769C18.0225 13.3196 18.0798 13.2337 18.0798 13.0524C18.0702 12.5751 18.0702 12.0978 18.0798 11.6205C18.0798 11.1909 18.2611 11.0191 18.6905 11.0095C19.7212 11 20.7614 11 21.7921 11C22.2311 11 22.4124 11.1909 22.4219 11.6396C22.4315 12.1073 22.4124 12.5655 22.4315 13.0333C22.4315 13.1383 22.5078 13.291 22.5937 13.3292C23.0232 13.5297 23.4717 13.6919 23.9488 13.8829ZM19.0723 12.0214C19.0723 12.5464 19.0723 13.0524 19.0723 13.5583C19.0723 13.8924 18.9196 14.0738 18.6047 14.1883C18.0034 14.4079 17.4118 14.6561 16.8296 14.9234C16.5147 15.0665 16.2666 15.0474 16.028 14.7897C15.6844 14.427 15.3313 14.0738 15.0069 13.7301C14.4343 14.3029 13.8903 14.847 13.3177 15.4197C13.6517 15.7443 14.0048 16.0975 14.3675 16.4411C14.6347 16.6893 14.6347 16.9471 14.482 17.2716C14.2243 17.8157 13.9953 18.379 13.7853 18.9422C13.6327 19.3622 13.5181 19.4767 13.0696 19.4767C12.5829 19.4767 12.0962 19.4767 11.6 19.4767C11.6 20.2786 11.6 21.0327 11.6 21.825C12.1153 21.825 12.6115 21.8346 13.1078 21.825C13.48 21.8155 13.6517 21.9873 13.7758 22.3309C13.9762 22.8846 14.1957 23.4383 14.4438 23.9728C14.6538 24.431 14.6633 24.5456 14.3007 24.9083C13.9667 25.2424 13.6231 25.5765 13.3464 25.8438C13.919 26.4166 14.4629 26.9607 15.026 27.5239C15.3313 27.2089 15.6749 26.8652 16.0089 26.512C16.257 26.2448 16.5052 26.2161 16.8392 26.3784C17.3927 26.6457 17.9653 26.8939 18.5474 27.0943C18.91 27.2184 19.0723 27.4189 19.0627 27.7912C19.0532 28.278 19.0627 28.7649 19.0627 29.2612C19.8548 29.2612 20.6183 29.2612 21.4104 29.2612C21.4104 28.7553 21.4199 28.2685 21.4104 27.7912C21.4008 27.4093 21.544 27.2184 21.9161 27.0943C22.4887 26.9034 23.0518 26.6648 23.5862 26.3975C23.9298 26.2257 24.1779 26.2352 24.4451 26.512C24.7886 26.8748 25.1417 27.228 25.428 27.5239C26.0006 26.9511 26.5446 26.407 27.1076 25.8438C26.7927 25.5384 26.4492 25.1852 26.0961 24.8511C25.8289 24.6029 25.8002 24.3547 25.9625 24.0206C26.2297 23.4669 26.4682 22.8942 26.6687 22.3119C26.7927 21.9682 26.9645 21.7964 27.3367 21.8059C27.8329 21.825 28.3292 21.8059 28.835 21.8059C28.835 20.9945 28.835 20.2309 28.835 19.4576C28.3196 19.4576 27.8234 19.4481 27.3367 19.4576C26.9931 19.4576 26.8023 19.3049 26.6877 18.9708C26.4873 18.3885 26.2392 17.8253 25.9815 17.2621C25.7907 16.8421 25.7811 16.718 26.1247 16.3839C26.4682 16.0498 26.8309 15.7157 27.1649 15.4006C26.5732 14.8088 26.0388 14.2742 25.4662 13.7015C25.1704 13.9974 24.8554 14.322 24.5405 14.6465C24.1111 15.0761 24.0156 15.0665 23.4908 14.8088C23.0232 14.5797 22.546 14.3697 22.0497 14.2074C21.4485 14.0069 21.4104 13.9879 21.4104 13.3674C21.4104 12.9092 21.4104 12.451 21.4104 11.9928C20.6087 12.0214 19.8644 12.0214 19.0723 12.0214Z" fill="#3E7BFA" stroke="#3E7BFA" stroke-width="0.4"/>
<path d="M38.3026 20.8993C36.5943 18.3792 34.3135 16.6609 31.4315 15.735C31.3265 15.7063 31.2215 15.6777 31.1261 15.63C30.8971 15.5059 30.8112 15.3054 30.878 15.0572C30.9448 14.809 31.1261 14.6754 31.3838 14.704C31.6033 14.7327 31.8228 14.809 32.0327 14.8758C34.8957 15.8782 37.2147 17.606 38.9515 20.0974C39.1042 20.317 39.2283 20.3934 39.5146 20.3647C40.7265 20.2215 41.8049 21.0616 41.9481 22.2166C42.1008 23.4289 41.3182 24.5172 40.1635 24.7081C38.9611 24.899 37.854 24.1544 37.6155 22.9516C37.4723 22.1593 37.7395 21.472 38.3026 20.8993ZM39.8199 21.3479C39.1424 21.3289 38.5984 21.8348 38.5889 22.503C38.5793 23.1617 39.0756 23.6962 39.7245 23.7153C40.4021 23.7344 40.946 23.2285 40.9556 22.5603C40.9747 21.9016 40.4689 21.367 39.8199 21.3479Z" fill="#3E7BFA" stroke="#3E7BFA" stroke-width="0.4"/>
<path d="M16.8765 35.1039C18.5561 37.5763 20.7796 39.2755 23.5853 40.2109C23.7285 40.2587 23.8812 40.2969 24.0243 40.3637C24.2724 40.4878 24.3679 40.6978 24.282 40.9555C24.2056 41.2037 24.0148 41.3278 23.7571 41.2896C23.5949 41.2705 23.4326 41.2133 23.2799 41.156C20.3502 40.1823 17.993 38.4259 16.2275 35.9058C16.0844 35.6958 15.9699 35.5907 15.674 35.6289C14.4716 35.7817 13.3836 34.9512 13.231 33.7961C13.0687 32.5838 13.8417 31.4956 14.9964 31.2951C16.1989 31.0851 17.3059 31.8297 17.554 33.0325C17.7067 33.8248 17.449 34.5121 16.8765 35.1039ZM16.5902 33.462C16.5902 32.7938 16.0557 32.2783 15.3782 32.2879C14.7292 32.2974 14.2139 32.8224 14.2139 33.4811C14.2139 34.1302 14.7388 34.6553 15.3877 34.6648C16.0653 34.6648 16.5902 34.1398 16.5902 33.462Z" fill="#3E7BFA" stroke="#3E7BFA" stroke-width="0.4"/>
<path d="M39.2558 35.3517C39.2463 37.7668 37.309 39.6855 34.9041 39.6664C32.4993 39.6474 30.5715 37.6905 30.6002 35.304C30.6193 32.9175 32.5947 30.9893 34.99 31.0179C37.3377 31.037 39.2654 33.0034 39.2558 35.3517ZM38.2538 35.3708C38.2729 33.5475 36.7937 32.0393 34.9709 32.0202C33.1387 32.0011 31.6117 33.4998 31.6022 35.3326C31.5927 37.1463 33.0528 38.645 34.8564 38.6737C36.7364 38.7023 38.2347 37.2418 38.2538 35.3708Z" fill="#3E7BFA" stroke="#3E7BFA" stroke-width="0.4"/>
<path d="M20.255 16.3365C22.6026 16.3269 24.559 18.2647 24.5781 20.6226C24.5972 23.0186 22.6503 24.985 20.2645 24.9946C17.8692 25.0041 15.9224 23.0663 15.9224 20.6703C15.9129 18.2552 17.831 16.346 20.255 16.3365ZM20.255 17.3388C18.4132 17.3292 16.934 18.7897 16.9244 20.6321C16.9149 22.4649 18.3845 23.9732 20.1977 23.9922C22.0491 24.0113 23.576 22.5031 23.576 20.6512C23.576 18.8279 22.0873 17.3483 20.255 17.3388Z" fill="#3E7BFA" stroke="#3E7BFA" stroke-width="0.4"/>
</svg>
