<svg width="65" height="65" viewBox="0 0 65 65" fill="none" xmlns="http://www.w3.org/2000/svg">
<rect width="65" height="65" rx="19.6877" fill="#DBE8FF"/>
<g clip-path="url(#clip0_1630_10983)">
<mask id="mask0_1630_10983" style="mask-type:alpha" maskUnits="userSpaceOnUse" x="15" y="16" width="37" height="37">
<path d="M34.5854 20.3919L34.5854 16.5569L38.8405 17.2619L47.5271 22.499L51.2535 29.423L50.7751 41.7604L42.9446 50.3966L34.5854 52.5116L28.4167 51.9828L19.8561 48.0802L16.7843 42.692L15.5254 35.6672V33.9299H18.8683H19.8561L34.5854 20.3919Z" fill="#D9D9D9"/>
</mask>
<g mask="url(#mask0_1630_10983)">
<circle cx="33.2208" cy="34.8675" r="16.2053" stroke="#3E7BFA" stroke-width="2.08132"/>
</g>
<circle cx="34.5471" cy="18.7339" r="1.03541" fill="#3E7BFA"/>
<ellipse cx="17.0413" cy="33.9915" rx="1.03541" ry="1.05494" fill="#3E7BFA"/>
<path d="M41.8945 34.1218V35.1462L38.1735 43.7449H36.1643L39.8853 35.6089H35.0936V34.1218H41.8945Z" fill="#3E7BFA"/>
<path d="M23.2175 27.9844V29.4717H16.6337V28.2025L19.7471 24.8643C20.06 24.5162 20.3068 24.2099 20.4874 23.9455C20.6681 23.6767 20.7981 23.4365 20.8775 23.225C20.9612 23.0091 21.003 22.8042 21.003 22.6103C21.003 22.3194 20.9546 22.0704 20.8576 21.8633C20.7607 21.6518 20.6175 21.4887 20.428 21.3741C20.2429 21.2596 20.0137 21.2023 19.7405 21.2023C19.4496 21.2023 19.1985 21.2728 18.9869 21.4138C18.7798 21.5548 18.6212 21.7509 18.511 22.0021C18.4052 22.2533 18.3523 22.5375 18.3523 22.8548H16.442C16.442 22.2819 16.5786 21.7575 16.8518 21.2816C17.125 20.8012 17.5106 20.4201 18.0086 20.138C18.5066 19.8516 19.0971 19.7084 19.7802 19.7084C20.4544 19.7084 21.0229 19.8185 21.4856 20.0389C21.9527 20.2548 22.3053 20.5677 22.5432 20.9775C22.7856 21.383 22.9068 21.8677 22.9068 22.4318C22.9068 22.7491 22.8561 23.0597 22.7548 23.3638C22.6534 23.6635 22.508 23.9631 22.3185 24.2628C22.1334 24.5581 21.9087 24.8577 21.6442 25.1618C21.3798 25.4659 21.0868 25.781 20.7651 26.1071L19.0927 27.9844H23.2175ZM31.1498 25.8757V27.3696H24.2156L24.1231 26.2128L28.1355 19.8472H29.6492L28.0099 22.5904L26.0136 25.8757H31.1498ZM30.0591 19.8472V29.4717H28.1553V19.8472H30.0591Z" fill="#3E7BFA"/>
<rect x="38.5137" y="24.8499" width="2.07389" height="17.7981" rx="1.03694" transform="rotate(44.5212 38.5137 24.8499)" fill="#3E7BFA"/>
</g>
<defs>
<clipPath id="clip0_1630_10983">
<rect width="41.2576" height="38.1632" fill="white" transform="translate(12.377 13.4087)"/>
</clipPath>
</defs>
</svg>
