<svg width="121" height="25" viewBox="0 0 121 25" fill="none" xmlns="http://www.w3.org/2000/svg">
<g clip-path="url(#clip0_823_10766)">
<path d="M19.7963 20.7659H16.3482V12.1844H14V9.3932H16.3482V7.40372C16.3482 5.04801 17.3886 3.35547 20.8268 3.35547C21.5501 3.35547 22.6994 3.50394 22.6994 3.50394V6.09719H21.4906C20.2719 6.09719 19.7963 6.46342 19.7963 7.4928V9.3932H22.6499L22.3923 12.1844H19.7963V20.7659ZM27.7031 9.16555C27.6535 9.16555 27.604 9.16555 27.5545 9.16555C24.3541 9.16555 22.8976 11.5707 22.8976 14.9756C22.8976 19.2713 24.7901 20.9837 27.5842 20.9837C29.1794 20.9837 30.2297 20.3106 30.8638 19.0635V20.756H34.1434V9.3932H30.8638V11.1451C30.3288 10.0168 29.2587 9.17545 27.7031 9.16555ZM28.5354 11.8578C29.873 11.8578 30.6854 12.7882 30.6854 14.3818V16.005C30.6854 17.074 30.0216 18.331 28.5354 18.331C26.2565 18.331 26.3159 15.8664 26.3159 15.0449C26.3159 12.2834 27.5247 11.8578 28.5354 11.8578ZM35.4513 15.0845C35.4513 13.6988 35.3819 9.17545 41.2872 9.17545C43.6553 9.17545 44.6461 9.92769 44.6461 9.92769L43.8535 12.3923C43.8535 12.3923 42.8627 11.8479 41.5746 11.8479C39.9298 11.8479 38.8795 12.7981 38.8795 14.4807V15.6883C38.8795 17.3016 39.8902 18.3805 41.5845 18.3805C42.7537 18.3805 43.8337 17.8361 43.8337 17.8361L44.6263 20.2512C44.6263 20.2512 43.7247 21.0035 41.3071 21.0035C35.6891 20.9936 35.4513 16.9354 35.4513 15.0845ZM63.8681 9.16555C67.0684 9.16555 68.5448 11.5707 68.5448 14.9756C68.5448 19.2713 66.6523 20.9837 63.8582 20.9837C62.263 20.9837 61.0839 20.3106 60.4497 19.0635V20.756H57.2098V3.7019L60.6479 3.40496V10.9868C61.1532 9.66044 62.7782 9.16555 63.8681 9.16555ZM62.8971 11.8578C61.5595 11.8578 60.6479 12.7882 60.6479 14.3818V16.005C60.6479 17.074 61.2721 18.331 62.8971 18.331C65.176 18.331 65.1165 15.8664 65.1165 15.0449C65.1264 12.2834 63.9077 11.8578 62.8971 11.8578ZM50.6109 9.17545C46.9845 9.17545 45.0722 11.1451 45.0722 14.6589V15.3122C45.0722 19.8652 47.7573 21.0332 50.9676 21.0332C54.0788 21.0332 55.4956 20.1621 55.4956 20.1621L54.8516 17.846C54.8516 17.846 53.1969 18.5488 51.3837 18.5488C49.5111 18.5488 48.6986 18.0737 48.4905 16.2723H55.7632V14.4114C55.7533 10.6106 53.6131 9.17545 50.6109 9.17545ZM50.6901 11.5015C51.9485 11.5015 52.761 12.2735 52.7114 14.0551H48.4806C48.5599 12.1745 49.4417 11.5015 50.6901 11.5015ZM75.4013 9.16555C71.6758 9.16555 69.7239 11.2639 69.7239 15.0152C69.7239 20.172 73.1026 20.9936 75.4112 20.9936C78.7899 20.9936 81.039 19.1723 81.039 15.0548C81.039 10.7789 78.5025 9.16555 75.4013 9.16555ZM75.3517 11.8677C76.9866 11.8677 77.6405 13.095 77.6405 14.4807V15.6784C77.6405 17.361 76.729 18.3409 75.3517 18.3409C74.0537 18.3409 73.1521 17.4303 73.1521 15.6784V14.4807C73.1422 12.61 74.2222 11.8677 75.3517 11.8677ZM87.8856 9.16555C84.1601 9.16555 82.2082 11.2639 82.2082 15.0152C82.2082 20.172 85.5869 20.9936 87.8955 20.9936C91.2742 20.9936 93.5234 19.1723 93.5234 15.0548C93.5234 10.7789 90.9869 9.16555 87.8856 9.16555ZM87.8361 11.8677C89.4709 11.8677 90.1249 13.095 90.1249 14.4807V15.6784C90.1249 17.361 89.2133 18.3409 87.8361 18.3409C86.5381 18.3409 85.6365 17.4303 85.6365 15.6784V14.4807C85.6265 12.61 86.7065 11.8677 87.8361 11.8677ZM94.8214 20.7659V3.7019L98.2694 3.40496V14.8371L101.688 9.3932H105.324L101.757 15.035L105.463 20.7659H101.817L98.2694 15.2033V20.7659H94.8214Z" fill="#1877F2"/>
</g>
<defs>
<clipPath id="clip0_823_10766">
<rect width="93" height="19.2149" fill="white" transform="translate(14 2.58667)"/>
</clipPath>
</defs>
</svg>
