<svg width="56" height="56" viewBox="0 0 56 56" fill="none" xmlns="http://www.w3.org/2000/svg">
<rect x="0.68335" y="0.602051" width="55" height="55" rx="16.0638" fill="#DBE8FF"/>
<path d="M26.619 42.5132V39.1699C25.3984 39.1486 24.2309 39.0425 23.1165 38.8514C22.0126 38.6604 21.1104 38.411 20.4099 38.1032V35.524C21.1423 35.8636 22.0816 36.1608 23.2279 36.4156C24.3742 36.6703 25.5046 36.8083 26.619 36.8295V29.8244C25.218 29.4316 24.0558 28.9859 23.1324 28.487C22.2196 27.9775 21.535 27.3566 21.0786 26.6243C20.6222 25.8919 20.394 25.0057 20.394 23.9655C20.394 22.8829 20.6487 21.9595 21.1582 21.1953C21.6783 20.4205 22.4053 19.8155 23.3394 19.3803C24.2734 18.9452 25.3666 18.6957 26.619 18.632V15.8778H28.5614V18.6002C29.6971 18.632 30.7319 18.7594 31.6659 18.9823C32.5999 19.1946 33.465 19.4705 34.261 19.8102L33.4331 22.0232C32.7114 21.7366 31.9313 21.4925 31.0928 21.2908C30.2543 21.0892 29.4105 20.9512 28.5614 20.8769V27.8343C29.9836 28.2482 31.1724 28.6887 32.1276 29.1557C33.0935 29.6227 33.8205 30.2012 34.3088 30.8911C34.797 31.581 35.0411 32.4725 35.0411 33.5657C35.0411 35.1154 34.4733 36.3678 33.3376 37.323C32.2019 38.2677 30.6098 38.8408 28.5614 39.0425V42.5132H26.619ZM28.5614 36.6862C29.8669 36.5589 30.838 36.2457 31.4749 35.7469C32.1223 35.2374 32.446 34.5688 32.446 33.7409C32.446 33.1465 32.3187 32.6583 32.0639 32.2762C31.8198 31.8941 31.4165 31.565 30.854 31.2891C30.2914 31.0025 29.5272 30.7318 28.5614 30.4771V36.6862ZM26.619 27.1656V20.9406C25.823 20.9936 25.1543 21.1422 24.613 21.3863C24.0717 21.6305 23.6631 21.9489 23.3871 22.3416C23.1218 22.7343 22.9891 23.2013 22.9891 23.7426C22.9891 24.3688 23.1059 24.8942 23.3394 25.3188C23.5835 25.7327 23.9709 26.0883 24.5016 26.3855C25.0429 26.672 25.7487 26.9321 26.619 27.1656Z" fill="#3E7BFA"/>
</svg>
