<svg width="64" height="54" viewBox="0 0 64 54" fill="none" xmlns="http://www.w3.org/2000/svg">
<circle cx="32.3816" cy="27.3816" r="19.2816" stroke="#3E7BFA" stroke-width="2.2"/>
<path d="M31.5221 37.5116V35.0168C30.521 35.0006 29.5965 34.9118 28.7487 34.7503C27.909 34.5808 27.1824 34.3628 26.5688 34.0963V31.5167C27.1904 31.8074 27.9575 32.0698 28.8698 32.3039C29.7822 32.538 30.6663 32.6713 31.5221 32.7036V28.162C30.3514 27.7663 29.3987 27.3546 28.6639 26.9266C27.9373 26.4987 27.4044 26.0022 27.0653 25.437C26.7262 24.8637 26.5566 24.1775 26.5566 23.3781C26.5566 22.5546 26.7625 21.8481 27.1743 21.2587C27.5941 20.6612 28.1755 20.1889 28.9183 19.8417C29.6692 19.4946 30.5371 19.2887 31.5221 19.2241V17.25H33.0965V19.1878C33.9928 19.212 34.8203 19.3129 35.5793 19.4905C36.3463 19.6601 37.077 19.8983 37.7714 20.2051L36.8873 22.4577C36.2817 22.2155 35.652 22.0177 34.998 21.8643C34.344 21.7109 33.7102 21.6059 33.0965 21.5494V25.982C34.0816 26.3049 34.9576 26.6521 35.7246 27.0235C36.4997 27.3949 37.1053 27.8632 37.5413 28.4284C37.9853 28.9855 38.2074 29.7162 38.2074 30.6205C38.2074 31.8074 37.7714 32.7883 36.8994 33.5634C36.0274 34.3305 34.7598 34.7907 33.0965 34.9441V37.5116H31.5221ZM33.0965 32.6067C33.8717 32.5098 34.4489 32.3079 34.8284 32.0011C35.2079 31.6862 35.3976 31.2785 35.3976 30.7779C35.3976 30.4388 35.3169 30.1522 35.1554 29.918C35.002 29.6839 34.7557 29.474 34.4166 29.2883C34.0856 29.1026 33.6456 28.9209 33.0965 28.7433V32.6067ZM31.5221 25.3886V21.5978C31.0538 21.6463 30.6582 21.7432 30.3353 21.8885C30.0123 22.0338 29.7701 22.2236 29.6086 22.4577C29.4471 22.6919 29.3664 22.9704 29.3664 23.2934C29.3664 23.6486 29.439 23.9514 29.5844 24.2017C29.7297 24.452 29.9598 24.67 30.2747 24.8557C30.5977 25.0414 31.0135 25.219 31.5221 25.3886Z" fill="#3E7BFA"/>
</svg>
