<svg width="13" height="13" viewBox="0 0 13 13" fill="none" xmlns="http://www.w3.org/2000/svg">
<g clip-path="url(#clip0_1421_33884)">
<rect x="0.209961" y="0.31543" width="12.4205" height="12.4205" rx="6.21026" fill="white"/>
<path fill-rule="evenodd" clip-rule="evenodd" d="M0.209961 0.31543H3.5221V3.62757H0.209961V0.31543ZM5.17817 0.31543H8.4903V3.62757H5.17817V0.31543ZM0.209961 5.28364H3.5221V8.59577H0.209961V5.28364ZM5.17817 5.28364H8.4903V8.59577H5.17817V5.28364ZM8.4903 0.31543H17.5987V1.9715H8.4903V0.31543ZM8.4903 3.62757H17.5987V5.28364H8.4903V3.62757Z" fill="#1A47B8"/>
<path fill-rule="evenodd" clip-rule="evenodd" d="M0.209961 6.93994H17.5987V8.59601H0.209961V6.93994ZM3.5221 6.93994H5.17817V8.59601H3.5221V6.93994ZM0.209961 10.2521H17.5987V11.9081H0.209961V10.2521Z" fill="#1A47B8"/>
</g>
<defs>
<clipPath id="clip0_1421_33884">
<rect x="0.209961" y="0.31543" width="12.4205" height="12.4205" rx="6.21026" fill="white"/>
</clipPath>
</defs>
</svg>
