<svg width="56" height="56" viewBox="0 0 56 56" fill="none" xmlns="http://www.w3.org/2000/svg">
<rect x="0.471741" y="0.602051" width="55" height="55" rx="16.0638" fill="#DBE8FF"/>
<rect x="16.037" y="17.8193" width="23.4328" height="21.7013" rx="2.28381" stroke="#3E7BFA" stroke-width="1.38519"/>
<rect x="16.21" y="21.7441" width="23.5482" height="1.38519" fill="#3E7BFA"/>
<rect width="0.90491" height="2.40676" rx="0.452455" transform="matrix(0.714508 -0.699628 0.709133 0.705074 32.5336 27.9282)" fill="#3E7BFA" stroke="#3E7BFA" stroke-width="0.193292"/>
<rect width="0.849398" height="4.14375" rx="0.424699" transform="matrix(-0.714508 -0.699628 -0.709133 0.705074 37.2179 26.6709)" fill="#3E7BFA" stroke="#3E7BFA" stroke-width="0.193292"/>
<rect x="19.0527" y="32.4181" width="4.0439" height="3.98976" rx="1.0428" stroke="#3E7BFA" stroke-width="1.19994"/>
<rect x="19.0527" y="25.6471" width="4.0439" height="3.98976" rx="1.0428" stroke="#3E7BFA" stroke-width="1.19994"/>
<rect x="25.7349" y="32.4181" width="4.0439" height="3.98976" rx="1.0428" stroke="#3E7BFA" stroke-width="1.19994"/>
<rect x="25.7349" y="25.6471" width="4.0439" height="3.98976" rx="1.0428" stroke="#3E7BFA" stroke-width="1.19994"/>
<rect x="32.4063" y="32.4181" width="4.0439" height="3.98976" rx="1.0428" stroke="#3E7BFA" stroke-width="1.19994"/>
<rect x="24.9835" y="15.3379" width="1.38519" height="4.15556" rx="0.692594" fill="#3E7BFA"/>
<rect x="20.8286" y="15.3379" width="1.38519" height="4.15556" rx="0.692594" fill="#3E7BFA"/>
<rect x="29.1396" y="15.3379" width="1.38519" height="4.15556" rx="0.692594" fill="#3E7BFA"/>
<rect x="33.2927" y="15.3379" width="1.38519" height="4.15556" rx="0.692594" fill="#3E7BFA"/>
</svg>
