<svg width="73" height="25" viewBox="0 0 73 25" fill="none" xmlns="http://www.w3.org/2000/svg">
<g clip-path="url(#clip0_1421_33775)">
<path d="M31.2366 12.6497C31.2366 15.9407 28.6241 18.3658 25.4181 18.3658C22.212 18.3658 19.5996 15.9407 19.5996 12.6497C19.5996 9.33549 22.212 6.93359 25.4181 6.93359C28.6241 6.93359 31.2366 9.33549 31.2366 12.6497ZM28.6895 12.6497C28.6895 10.5931 27.1754 9.18602 25.4181 9.18602C23.6608 9.18602 22.1467 10.5931 22.1467 12.6497C22.1467 14.6856 23.6608 16.1134 25.4181 16.1134C27.1754 16.1134 28.6895 14.6831 28.6895 12.6497Z" fill="#EA4335"/>
<path d="M43.7903 12.6497C43.7903 15.9407 41.1778 18.3658 37.9718 18.3658C34.7658 18.3658 32.1533 15.9407 32.1533 12.6497C32.1533 9.33807 34.7658 6.93359 37.9718 6.93359C41.1778 6.93359 43.7903 9.33549 43.7903 12.6497ZM41.2432 12.6497C41.2432 10.5931 39.7291 9.18602 37.9718 9.18602C36.2145 9.18602 34.7004 10.5931 34.7004 12.6497C34.7004 14.6856 36.2145 16.1134 37.9718 16.1134C39.7291 16.1134 41.2432 14.6831 41.2432 12.6497Z" fill="#FBBC05"/>
<path d="M55.8155 7.27893V17.5411C55.8155 21.7625 53.2893 23.4866 50.3029 23.4866C47.4918 23.4866 45.7998 21.6336 45.1618 20.1183L47.3793 19.2085C47.7742 20.1389 48.7418 21.2367 50.3003 21.2367C52.2119 21.2367 53.3966 20.0745 53.3966 17.8865V17.0643H53.3076C52.7376 17.7576 51.6392 18.3632 50.2533 18.3632C47.3532 18.3632 44.6963 15.8737 44.6963 12.6703C44.6963 9.44373 47.3532 6.93359 50.2533 6.93359C51.6366 6.93359 52.7349 7.53922 53.3076 8.21186H53.3966V7.28151H55.8155V7.27893ZM53.577 12.6703C53.577 10.6576 52.2146 9.18602 50.4808 9.18602C48.7235 9.18602 47.2512 10.6576 47.2512 12.6703C47.2512 14.6625 48.7235 16.1134 50.4808 16.1134C52.2146 16.1134 53.577 14.6625 53.577 12.6703Z" fill="#4285F4"/>
<path d="M59.8066 1.26367V18.0151H57.3223V1.26367H59.8066Z" fill="#34A853"/>
<path d="M69.4893 14.5312L71.4662 15.83C70.8282 16.7604 69.2905 18.3634 66.6336 18.3634C63.3387 18.3634 60.8779 15.8532 60.8779 12.6473C60.8779 9.24801 63.3596 6.93115 66.3486 6.93115C69.3585 6.93115 70.8308 9.29182 71.312 10.5675L71.5761 11.2169L63.8225 14.3817C64.4161 15.5285 65.3392 16.1135 66.6336 16.1135C67.9307 16.1135 68.8303 15.4847 69.4893 14.5312ZM63.4041 12.4746L68.5871 10.3536C68.302 9.63973 67.4443 9.14234 66.4349 9.14234C65.1405 9.14234 63.3387 10.2686 63.4041 12.4746Z" fill="#EA4335"/>
<path d="M10.1978 11.1631V8.73804H18.4901C18.5712 9.1607 18.613 9.66066 18.613 10.2019C18.613 12.0213 18.1083 14.2712 16.4818 15.8742C14.8997 17.4978 12.8782 18.3637 10.2004 18.3637C5.23709 18.3637 1.06348 14.3794 1.06348 9.48799C1.06348 4.59657 5.23709 0.612305 10.2004 0.612305C12.9462 0.612305 14.9023 1.67409 16.3719 3.05802L14.6356 4.76924C13.5817 3.79508 12.1539 3.0374 10.1978 3.0374C6.57337 3.0374 3.73867 5.91607 3.73867 9.48799C3.73867 13.0599 6.57337 15.9386 10.1978 15.9386C12.5487 15.9386 13.8877 15.0082 14.7454 14.1629C15.441 13.4774 15.8986 12.4981 16.0791 11.1606L10.1978 11.1631Z" fill="#4285F4"/>
</g>
<defs>
<clipPath id="clip0_1421_33775">
<rect width="71.1292" height="23.7097" fill="white" transform="translate(0.967773 0.490723)"/>
</clipPath>
</defs>
</svg>
