<svg width="60" height="24" viewBox="0 0 60 24" fill="none" xmlns="http://www.w3.org/2000/svg">
<path d="M27.9388 11.4515V18.3731H25.7422V1.28076H31.5655C33.0413 1.28076 34.2998 1.77271 35.3294 2.7566C36.382 3.7405 36.9083 4.94177 36.9083 6.3604C36.9083 7.81337 36.382 9.01463 35.3294 9.98709C34.3112 10.9595 33.0528 11.4401 31.5655 11.4401H27.9388V11.4515ZM27.9388 3.38584V9.34641H31.6112C32.4807 9.34641 33.2129 9.04896 33.785 8.46548C34.3684 7.88201 34.6659 7.17269 34.6659 6.37185C34.6659 5.58244 34.3684 4.88456 33.785 4.30109C33.2129 3.69474 32.4922 3.39728 31.6112 3.39728H27.9388V3.38584Z" fill="#F2F2F5"/>
<path d="M42.6526 6.29199C44.2771 6.29199 45.5585 6.72674 46.4966 7.59622C47.4348 8.46571 47.9038 9.65554 47.9038 11.1657V18.3733H45.8102V16.7487H45.7187C44.8149 18.0873 43.6021 18.7508 42.092 18.7508C40.7992 18.7508 39.7238 18.3733 38.8543 17.6068C37.9848 16.8403 37.55 15.8907 37.55 14.7466C37.55 13.5339 38.0077 12.5729 38.9229 11.8636C39.8382 11.1428 41.0623 10.7882 42.5839 10.7882C43.8882 10.7882 44.9636 11.0284 45.7987 11.5089V11.0055C45.7987 10.239 45.5013 9.59834 44.8949 9.06063C44.2886 8.52292 43.5793 8.25978 42.767 8.25978C41.5428 8.25978 40.5704 8.77461 39.8611 9.81571L37.9276 8.603C38.9916 7.05851 40.5704 6.29199 42.6526 6.29199ZM39.8153 14.7809C39.8153 15.353 40.0555 15.8335 40.5475 16.211C41.028 16.5886 41.6 16.7831 42.2522 16.7831C43.1788 16.7831 44.0026 16.4398 44.7233 15.7534C45.4441 15.067 45.8102 14.2661 45.8102 13.3394C45.1237 12.8017 44.1742 12.5271 42.95 12.5271C42.0577 12.5271 41.314 12.7445 40.7191 13.1678C40.1127 13.614 39.8153 14.1517 39.8153 14.7809Z" fill="#F2F2F5"/>
<path d="M59.849 6.66943L52.5269 23.5101H50.2617L52.9846 17.6181L48.1566 6.66943H50.5477L54.0257 15.0669H54.0714L57.4579 6.66943H59.849Z" fill="#F2F2F5"/>
<path d="M19.2052 10.0561C19.2052 9.33988 19.1411 8.65459 19.0221 7.99561H9.8147V11.771L15.1174 11.7722C14.9024 13.0283 14.2102 14.0992 13.1496 14.8131V17.2625H16.3061C18.1492 15.5567 19.2052 13.0352 19.2052 10.0561Z" fill="#4285F4"/>
<path d="M13.1489 14.8132C12.2703 15.4058 11.1388 15.7524 9.81511 15.7524C7.25812 15.7524 5.08898 14.0295 4.31216 11.707H1.05615V14.2331C2.66928 17.4342 5.98478 19.6308 9.81511 19.6308C12.4625 19.6308 14.6865 18.7602 16.3054 17.2615L13.1489 14.8132Z" fill="#34A853"/>
<path d="M4.00653 9.83286C4.00653 9.18074 4.11522 8.55036 4.31314 7.95773V5.43164H1.05713C0.390146 6.75532 0.0148926 8.24947 0.0148926 9.83286C0.0148926 11.4162 0.39129 12.9104 1.05713 14.2341L4.31314 11.708C4.11522 11.1154 4.00653 10.485 4.00653 9.83286Z" fill="#FABB05"/>
<path d="M9.81511 3.91256C11.2601 3.91256 12.554 4.41022 13.5756 5.38268L16.3729 2.58773C14.6739 1.00549 12.459 0.0341797 9.81511 0.0341797C5.98592 0.0341797 2.66928 2.23078 1.05615 5.43187L4.31216 7.95797C5.08898 5.63552 7.25812 3.91256 9.81511 3.91256Z" fill="#E94235"/>
</svg>
