<svg width="56" height="56" viewBox="0 0 56 56" fill="none" xmlns="http://www.w3.org/2000/svg">
<rect x="0.68335" y="0.928955" width="55" height="55" rx="16.0638" fill="#DBE8FF"/>
<g clip-path="url(#clip0_453_18654)">
<g clip-path="url(#clip1_453_18654)">
<mask id="mask0_453_18654" style="mask-type:alpha" maskUnits="userSpaceOnUse" x="15" y="23" width="25" height="19">
<path d="M17.922 24.1179C18.0897 24.0163 19.7137 24.1031 20.6302 24.1154H20.8833L31.701 24.2948C32.8845 24.2948 35.7426 23.3531 35.5925 23.9365C35.5583 24.0694 36.3698 23.924 36.7524 23.9365H36.9921L38.1649 24.2948L39.3374 25.9014L39.452 34.0739L36.2202 38.7782L30.8089 41.6731H24.7755L22.5039 39.2486L15.382 34.7463V30.644L15.5739 25.7238L16.8626 24.5194C16.9824 24.5117 17.7543 24.2194 17.922 24.1179Z" fill="#D9D9D9"/>
</mask>
<g mask="url(#mask0_453_18654)">
<path d="M28.2862 15.5987C28.9286 15.7154 29.5709 15.7933 30.1977 15.9567C31.73 16.3615 33.0379 17.1711 34.1446 18.3075C35.3364 19.5374 36.1257 20.9931 36.4662 22.6822C36.5901 23.2894 36.6365 23.9121 36.7139 24.5193C37.0157 24.6205 37.364 24.6983 37.6658 24.8462C38.6254 25.3055 39.0975 26.1306 39.1207 27.1581C39.1516 28.9952 39.1594 30.84 39.0897 32.6693C39.0433 33.8991 38.192 34.7788 36.9848 35.0201C36.7449 35.0668 36.6597 35.1524 36.6442 35.4015C36.6056 36.2655 36.443 37.1062 36.0716 37.8924C35.5066 39.0912 34.5315 39.8073 33.2778 40.1031C32.4343 40.3055 31.5675 40.3911 30.6621 40.539C30.6621 40.5779 30.6698 40.6791 30.6621 40.7803C30.6311 41.333 30.2364 41.7455 29.6792 41.7533C28.6345 41.7611 27.5975 41.7611 26.5527 41.7533C25.9955 41.7455 25.5931 41.3486 25.5699 40.7881C25.5544 40.2276 25.5544 39.6672 25.5699 39.0989C25.5854 38.5774 25.9413 38.1804 26.4676 38.1648C27.5588 38.1415 28.65 38.1415 29.7411 38.1648C30.2287 38.1726 30.5615 38.5307 30.6311 39.0211C30.6466 39.1534 30.6543 39.2935 30.6621 39.457C31.436 39.4259 32.1944 39.3714 32.9451 39.1612C33.479 39.0133 33.9821 38.8031 34.4154 38.4373C35.1584 37.8146 35.4447 36.9661 35.584 36.0398C35.6304 35.7362 35.6459 35.4326 35.6769 35.0979C35.3751 35.0979 35.0965 35.0979 34.8179 35.0979C34.4387 35.0901 34.2607 34.9189 34.2374 34.5374C34.2297 34.4596 34.2374 34.3818 34.2374 34.3039C34.2374 31.2992 34.2374 28.2946 34.2374 25.2821C34.2374 25.1965 34.2374 25.1109 34.2374 25.0252C34.2607 24.675 34.4309 24.5037 34.7869 24.4881C35.0578 24.4804 35.3286 24.4804 35.5995 24.4804C35.615 24.4804 35.6304 24.4648 35.6769 24.4414C35.584 21.6625 34.4619 19.3973 32.1247 17.8794C29.2923 16.0579 26.3206 16.0502 23.4649 17.8794C21.0968 19.3895 19.9669 21.6703 19.8663 24.5193C20.1604 24.5193 20.4158 24.5193 20.6789 24.5193C21.1277 24.5271 21.3057 24.6905 21.3057 25.1342C21.3057 28.2712 21.3057 31.4004 21.3057 34.5374C21.3057 34.95 21.12 35.1446 20.7176 35.1368C19.9747 35.1135 19.224 35.1368 18.4965 35.0123C17.3589 34.8099 16.585 33.8914 16.4535 32.7237C16.4225 32.4513 16.407 32.1789 16.407 31.9064C16.3993 30.4663 16.3838 29.0263 16.4148 27.5862C16.4225 27.1192 16.4921 26.6288 16.6469 26.1851C16.9642 25.2666 17.6917 24.7995 18.6049 24.5893C18.6977 24.566 18.7829 24.5504 18.8061 24.5037C18.9454 23.6942 19.0382 22.869 19.2472 22.0751C19.6496 20.526 20.4699 19.2105 21.6153 18.0974C22.8071 16.9453 24.2233 16.1825 25.8407 15.8166C26.3051 15.7154 26.7926 15.6687 27.2647 15.5987C27.6164 15.5462 27.8267 15.5669 28.2862 15.5987ZM20.2919 34.1716C20.2919 31.237 20.2919 28.3724 20.2919 25.4534C19.7812 25.4845 19.2782 25.4689 18.7906 25.5468C17.978 25.6869 17.4982 26.224 17.4131 27.0569C17.3666 27.485 17.3744 27.9209 17.3744 28.3569C17.3666 29.6179 17.3666 30.8711 17.3744 32.1322C17.3821 33.1908 17.8078 33.8447 18.6823 34.0315C19.193 34.1405 19.7425 34.1249 20.2919 34.1716ZM35.259 25.5234C35.259 28.4113 35.259 31.2681 35.259 34.1405C35.6614 34.1405 36.0406 34.1716 36.4198 34.1327C37.5265 34.0393 38.1224 33.401 38.1456 32.28C38.1765 30.8322 38.1765 29.3844 38.1843 27.9365C38.1843 27.7263 38.192 27.5084 38.1765 27.2982C38.0992 26.2162 37.511 25.6091 36.4508 25.5234C36.0638 25.4923 35.6691 25.5234 35.259 25.5234ZM26.5759 40.757C27.6129 40.757 28.6345 40.757 29.6638 40.757C29.6638 40.2199 29.6638 39.6983 29.6638 39.169C28.6267 39.169 27.6052 39.169 26.5759 39.169C26.5759 39.6983 26.5759 40.2121 26.5759 40.757Z" fill="#3E7BFA" stroke="#3E7BFA" stroke-width="0.638952"/>
</g>
<mask id="mask1_453_18654" style="mask-type:alpha" maskUnits="userSpaceOnUse" x="18" y="14" width="19" height="24">
<path d="M35.8502 25.9152C35.8502 31.714 31.9909 36.0537 27.6359 36.0537C23.2808 36.0537 19.4215 31.714 19.4215 25.9152C19.4215 20.1165 23.2808 15.7768 27.6359 15.7768C31.9909 15.7768 35.8502 20.1165 35.8502 25.9152Z" stroke="#6C7A89" stroke-width="2.16438"/>
</mask>
<g mask="url(#mask1_453_18654)">
<rect x="17.9172" y="14.4036" width="19.2328" height="10.017" fill="#3E7BFA"/>
</g>
</g>
</g>
<defs>
<clipPath id="clip0_453_18654">
<rect width="27.8829" height="27.6452" fill="white" transform="translate(14.24 14.6064)"/>
</clipPath>
<clipPath id="clip1_453_18654">
<rect width="27.8829" height="27.6452" fill="white" transform="translate(14.2399 14.6064)"/>
</clipPath>
</defs>
</svg>
