<svg width="535" height="228" viewBox="0 0 535 228" fill="none" xmlns="http://www.w3.org/2000/svg">
<path fill-rule="evenodd" clip-rule="evenodd" d="M426.577 0L412.055 0C405.157 0.3632 398.26 1.4528 391.725 3.2688C376.477 6.1744 362.681 13.0752 350.701 22.8816C349.975 23.2448 349.612 23.608 348.886 24.3344C345.981 26.8768 343.44 29.4192 340.899 31.9616C340.173 32.688 339.81 33.0512 339.446 33.7776C338.72 34.504 337.994 35.2304 337.268 35.9568C336.179 37.0464 335.453 38.136 334.727 39.2256C334.364 39.952 333.638 40.3152 333.275 41.0416C331.823 42.8576 330.733 44.6736 329.644 46.4896C327.466 48.6688 327.103 51.2112 327.466 54.1168C327.829 56.6592 329.644 59.2016 331.096 61.3808C336.179 68.6448 341.625 75.5457 347.07 82.4465C347.07 82.4465 347.07 82.8097 347.433 82.8097C349.612 85.7153 351.79 88.6209 353.968 91.8897C354.694 92.6161 355.057 93.7057 355.783 94.4321C357.962 97.7009 360.503 100.97 362.681 104.238C368.853 88.2577 377.203 71.1872 393.54 63.1968C412.781 54.8432 436.742 57.3856 454.168 69.008C462.518 74.4561 469.053 81.7201 473.41 91.1633C487.205 118.04 474.136 154.723 445.818 167.072C421.131 176.515 390.636 169.978 374.662 148.549C369.579 142.375 364.86 136.2 360.14 130.026C358.688 127.846 356.873 126.03 355.42 123.851C352.153 119.493 348.886 115.498 345.618 111.139C343.803 108.597 341.988 106.054 340.173 103.875C337.268 99.8801 334.364 96.2481 331.46 92.2529C329.644 89.7105 327.466 87.1681 325.651 84.2625C322.383 79.9041 319.479 75.9089 316.212 71.5505C300.238 49.7584 284.627 29.056 268.653 8.35361C255.583 6.1744 242.877 3.9952 229.807 1.816C227.266 15.2544 224.362 28.6928 221.82 42.1312C253.405 86.0785 285.353 129.662 317.664 172.883C324.925 182.69 335.09 192.859 345.981 201.576C363.77 216.467 386.642 225.911 411.329 227.727H421.494C467.601 227.727 510.44 195.765 526.414 153.997C529.318 146.733 531.134 138.742 532.586 130.752C532.949 126.757 533.312 123.125 533.675 119.13C534.038 116.95 534.038 114.408 534.038 111.866C532.949 52.3008 485.753 3.632 426.577 0Z" fill="white"/>
<path fill-rule="evenodd" clip-rule="evenodd" d="M198.222 35.9568C189.509 26.5136 178.981 18.8864 167.726 12.712C157.924 7.26401 147.033 3.2688 135.415 1.4528C130.696 0.726401 126.339 0.3632 121.983 0L107.461 0C47.1957 3.632 0 53.3904 0 114.045C0 114.408 0 114.408 0 114.771C0 115.498 0 116.587 0 117.314C1.81522 176.515 48.2848 224.095 107.098 227.727H121.62C121.62 227.727 121.62 227.727 121.983 227.727C136.504 227.727 150.3 223.731 163.007 217.194C163.37 217.194 163.733 216.831 163.733 216.831C164.096 216.831 164.096 216.467 164.459 216.467C165.911 215.741 167.363 215.015 168.452 213.925C169.178 213.562 169.904 213.199 170.631 212.835C172.446 211.746 174.624 210.293 176.439 208.84C176.802 208.477 177.165 208.477 177.165 208.114C178.617 207.024 180.433 205.571 181.885 204.482C182.611 203.755 183.337 203.392 183.7 202.666C184.789 201.576 185.878 200.487 186.967 199.76C187.694 199.034 188.42 198.307 189.146 197.581C190.235 196.491 190.961 195.402 192.05 194.312C192.776 193.586 193.502 192.859 193.865 192.133C194.954 191.043 195.681 189.954 196.407 188.864C197.133 188.138 197.496 187.411 198.222 186.685C198.948 185.595 200.037 184.143 200.763 183.053C201.126 182.327 201.852 181.6 202.215 180.874C203.304 179.058 204.394 177.242 205.483 175.426C205.483 175.426 205.483 175.063 205.846 175.063V174.699C205.483 173.61 204.757 172.52 204.394 171.431C204.031 171.067 204.031 170.704 203.667 169.978C203.304 169.251 202.941 168.525 202.578 167.799C202.215 167.435 201.852 166.709 201.852 166.346C201.489 165.619 201.126 164.893 200.763 164.167C200.4 163.803 200.037 163.077 199.674 162.714C199.311 161.987 198.948 161.261 198.222 160.535C197.859 160.171 197.496 159.445 197.133 159.082C196.77 158.355 196.044 157.629 195.681 156.903C195.317 156.539 194.954 155.813 194.591 155.45C194.228 154.723 193.502 153.997 193.139 153.271C192.776 152.907 192.413 152.544 192.05 152.181C191.324 151.455 190.598 150.365 189.872 149.639C188.783 148.186 187.694 146.733 186.604 145.28C185.152 143.464 184.063 142.011 182.611 140.195L182.248 139.832C181.159 138.379 179.707 136.563 178.617 135.11C178.254 134.747 178.254 134.384 177.891 134.384C176.802 132.931 175.713 131.115 174.624 129.662C174.624 129.299 174.261 129.299 174.261 128.936C173.172 127.12 172.083 125.667 170.994 123.851C164.822 138.379 157.924 153.634 144.128 162.351C127.065 172.883 104.92 172.157 87.1305 163.077C73.3348 156.176 62.0805 144.554 57.7239 129.662C48.6478 102.059 63.8957 69.008 92.2131 59.5648C107.824 53.3904 125.25 55.9328 140.135 63.9232C148.848 68.6449 156.472 75.1825 162.281 83.1729C162.644 83.8993 163.37 84.6257 163.733 84.9889C172.446 96.2481 181.159 107.507 189.872 118.766C193.139 122.762 196.044 127.12 199.311 131.115C205.483 139.106 211.291 147.096 217.463 154.723C233.437 176.152 249.774 197.581 265.385 219.373C268.289 207.387 270.468 195.402 272.646 183.053C286.078 183.053 299.148 183.779 312.218 184.143C286.804 150.002 261.391 115.861 236.341 81.7201C225.087 66.4656 212.744 50.1216 198.222 35.9568Z" fill="white"/>
</svg>
