<svg width="49" height="49" viewBox="0 0 49 49" fill="none" xmlns="http://www.w3.org/2000/svg">
<path d="M35.5552 27.96C35.9114 27.2388 36.2702 26.5123 36.6227 25.7806C36.6453 25.7347 36.6654 25.6985 36.6828 25.6701C36.6993 25.6968 36.7182 25.7313 36.7393 25.7753L36.7393 25.7753L36.7412 25.7792C37.0308 26.3773 37.3192 26.9617 37.6058 27.5426C38.01 28.3619 38.4108 29.174 38.8065 30.0072C38.9316 30.2723 39.1163 30.5381 39.4055 30.7403C39.6891 30.9385 39.9882 31.0156 40.235 31.0509L40.235 31.0509L40.2431 31.052C41.7174 31.2508 43.1844 31.4651 44.6648 31.6814C44.765 31.6961 44.8653 31.7107 44.9656 31.7254L44.9688 31.7259C44.9894 31.7288 45.0072 31.7324 45.0224 31.7364C44.9963 31.7688 44.9645 31.8043 44.9277 31.8412C43.7852 32.9659 42.6453 34.0793 41.489 35.1827C41.3275 35.3359 41.1538 35.5489 41.0522 35.8394C40.949 36.1342 40.9508 36.42 40.9977 36.6701C41.2447 38.0592 41.4849 39.455 41.7248 40.8491C41.7601 41.054 41.7953 41.2589 41.8306 41.4637L41.8306 41.4637L41.832 41.4714C41.8373 41.5013 41.8406 41.5265 41.8425 41.5473C41.8201 41.5383 41.793 41.526 41.7608 41.5094C40.7946 40.9937 39.8259 40.4846 38.8606 39.9773C38.3788 39.724 37.8977 39.4712 37.4183 39.2182L37.4156 39.2168C37.2268 39.1179 36.978 39.0254 36.6778 39.0254C36.3777 39.0254 36.1289 39.1179 35.9401 39.2168L35.9401 39.2168L35.9333 39.2204C34.4718 39.9999 33.0112 40.77 31.5424 41.531C31.6864 40.7015 31.8237 39.886 31.9604 39.0735C32.009 38.7942 32.0559 38.519 32.1024 38.2458C32.1944 37.7056 32.2849 37.1736 32.3843 36.6357L32.3844 36.6358L32.3863 36.625C32.4269 36.3912 32.4276 36.121 32.3299 35.8396C32.2349 35.566 32.0752 35.3641 31.9297 35.2186L31.9228 35.2117L31.9157 35.2048C30.7293 34.0627 29.5513 32.9113 28.3701 31.7567C28.3643 31.751 28.3589 31.7455 28.354 31.7402C28.3897 31.7313 28.4314 31.7229 28.4794 31.7151C30.0706 31.4764 31.6618 31.2466 33.253 31.0256C33.4723 30.9972 33.7325 30.9261 33.9795 30.7512C34.2312 30.5731 34.3903 30.3433 34.494 30.1265L33.5604 29.6801L34.4927 30.1292C34.841 29.4062 35.1962 28.6869 35.5541 27.9623L35.5552 27.96ZM45.102 31.772C45.102 31.772 45.1018 31.7718 45.1014 31.7714C45.1018 31.7718 45.102 31.772 45.102 31.772ZM28.2995 31.6565C28.2995 31.6565 28.2996 31.6569 28.2998 31.6578L28.2995 31.6565Z" stroke="#3E7BFA" stroke-width="2.06965"/>
<path d="M12.1294 27.8504C12.4856 27.1292 12.8444 26.4027 13.1969 25.671C13.2195 25.6251 13.2396 25.5888 13.2571 25.5605C13.2735 25.5872 13.2924 25.6217 13.3135 25.6657L13.3135 25.6657L13.3154 25.6696C13.605 26.2677 13.8934 26.8521 14.18 27.433C14.5843 28.2523 14.985 29.0644 15.3807 29.8976C15.5058 30.1627 15.6905 30.4285 15.9798 30.6307C16.2634 30.8289 16.5624 30.906 16.8093 30.9412L16.8092 30.9413L16.8173 30.9424C18.2916 31.1411 19.7586 31.3555 21.2391 31.5718C21.3393 31.5865 21.4395 31.6011 21.5398 31.6158L21.5431 31.6162C21.5637 31.6192 21.5814 31.6228 21.5966 31.6268C21.5705 31.6592 21.5387 31.6947 21.5019 31.7316C20.3594 32.8563 19.2195 33.9697 18.0632 35.0731C17.9017 35.2263 17.7281 35.4393 17.6264 35.7298C17.5232 36.0246 17.525 36.3104 17.5719 36.5605C17.8189 37.9496 18.0591 39.3454 18.299 40.7395C18.3343 40.9444 18.3695 41.1493 18.4048 41.3541L18.4048 41.3541L18.4062 41.3618C18.4116 41.3917 18.4148 41.4168 18.4167 41.4377C18.3944 41.4287 18.3672 41.4164 18.335 41.3998C17.3688 40.8841 16.4001 40.375 15.4348 39.8677C14.953 39.6144 14.4719 39.3616 13.9925 39.1086L13.9898 39.1072C13.801 39.0083 13.5522 38.9158 13.252 38.9158C12.9519 38.9158 12.7031 39.0083 12.5143 39.1072L12.5143 39.1072L12.5075 39.1108C11.046 39.8903 9.58541 40.6604 8.1166 41.4214C8.26063 40.5919 8.3979 39.7764 8.53466 38.9638C8.58321 38.6846 8.63009 38.4093 8.6766 38.1362C8.76858 37.596 8.85916 37.064 8.95855 36.5261L8.95861 36.5261L8.96048 36.5154C9.00114 36.2816 9.0018 36.0114 8.9041 35.73C8.80909 35.4564 8.64938 35.2544 8.50394 35.109L8.49699 35.102L8.4899 35.0952C7.30353 33.9531 6.12555 32.8017 4.94429 31.6471C4.93849 31.6414 4.93316 31.6359 4.92826 31.6306C4.96391 31.6217 5.00558 31.6133 5.05362 31.6055C6.64484 31.3668 8.23605 31.137 9.82725 30.916C10.0466 30.8876 10.3067 30.8164 10.5537 30.6416C10.8055 30.4635 10.9645 30.2337 11.0682 30.0169L10.1347 29.5704L11.067 30.0195C11.4152 29.2966 11.7704 28.5773 12.1283 27.8527L12.1294 27.8504ZM21.6762 31.6624C21.6762 31.6624 21.676 31.6622 21.6756 31.6618C21.676 31.6621 21.6762 31.6623 21.6762 31.6624ZM4.87373 31.5469C4.87375 31.5469 4.87386 31.5473 4.87399 31.5482L4.87373 31.5469Z" stroke="#3E7BFA" stroke-width="2.06965"/>
<path d="M23.7857 8.67536C24.1419 7.95413 24.5007 7.22763 24.8531 6.49593C24.8757 6.45002 24.8958 6.4138 24.9133 6.38544C24.9297 6.41214 24.9487 6.44664 24.9698 6.49067L24.9698 6.49067L24.9717 6.49453C25.2613 7.09261 25.5497 7.67706 25.8363 8.25792C26.2405 9.07722 26.6412 9.88938 27.037 10.7225C27.1621 10.9877 27.3467 11.2534 27.636 11.4556C27.9196 11.6538 28.2187 11.7309 28.4655 11.7662L28.4655 11.7662L28.4736 11.7673C29.9478 11.9661 31.4149 12.1805 32.8953 12.3968C32.9955 12.4114 33.0958 12.4261 33.1961 12.4407L33.1993 12.4412C33.2199 12.4441 33.2376 12.4478 33.2528 12.4517C33.2268 12.4842 33.1949 12.5196 33.1582 12.5565C32.0157 13.6813 30.8758 14.7946 29.7194 15.898C29.558 16.0513 29.3843 16.2642 29.2826 16.5547C29.1794 16.8496 29.1813 17.1353 29.2282 17.3854C29.4751 18.7745 29.7154 20.1703 29.9553 21.5644C29.9905 21.7694 30.0258 21.9742 30.0611 22.1791L30.061 22.1791L30.0624 22.1867C30.0678 22.2166 30.0711 22.2418 30.073 22.2626C30.0506 22.2536 30.0235 22.2414 29.9913 22.2247C29.025 21.709 28.0564 21.1999 27.0911 20.6926C26.6092 20.4393 26.1282 20.1865 25.6488 19.9336L25.646 19.9321C25.4572 19.8333 25.2084 19.7407 24.9083 19.7407C24.6082 19.7407 24.3594 19.8333 24.1706 19.9321L24.1706 19.9321L24.1638 19.9357C22.7023 20.7152 21.2417 21.4853 19.7729 22.2463C19.9169 21.4169 20.0541 20.6013 20.1909 19.7888C20.2395 19.5096 20.2863 19.2343 20.3329 18.9611C20.4248 18.4209 20.5154 17.889 20.6148 17.3511L20.6149 17.3511L20.6167 17.3403C20.6574 17.1065 20.6581 16.8363 20.5603 16.5549C20.4653 16.2813 20.3056 16.0794 20.1602 15.9339L20.1532 15.927L20.1461 15.9202C18.9598 14.7781 17.7818 13.6267 16.6005 12.4721C16.5947 12.4663 16.5894 12.4608 16.5845 12.4555C16.6202 12.4467 16.6618 12.4382 16.7099 12.4304C18.3011 12.1918 19.8923 11.9619 21.4835 11.7409C21.7028 11.7125 21.9629 11.6414 22.21 11.4666C22.4617 11.2884 22.6208 11.0587 22.7245 10.8419L21.7909 10.3954L22.7232 10.8445C23.0715 10.1216 23.4267 9.40227 23.7845 8.67767L23.7857 8.67536ZM33.3324 12.4873C33.3324 12.4873 33.3322 12.4871 33.3318 12.4867C33.3322 12.4871 33.3324 12.4873 33.3324 12.4873ZM16.53 12.3719C16.53 12.3719 16.5301 12.3723 16.5302 12.3731L16.53 12.3719Z" stroke="#3E7BFA" stroke-width="2.06965"/>
</svg>
