<svg width="26" height="26" viewBox="0 0 26 26" fill="none" xmlns="http://www.w3.org/2000/svg">
<path d="M0.867188 13.3682C0.867188 20.2717 6.46363 25.8682 13.3672 25.8682C20.2707 25.8682 25.8672 20.2717 25.8672 13.3682C25.8672 6.4646 20.2707 0.868164 13.3672 0.868164C6.46363 0.868164 0.867188 6.4646 0.867188 13.3682Z" fill="#F00073"/>
<path d="M13.3682 8.05627C15.0869 8.05627 15.3213 8.05627 16.0244 8.05627C16.6494 8.05627 16.9619 8.21252 17.1963 8.29065C17.5088 8.4469 17.7432 8.52502 17.9775 8.7594C18.2119 8.99377 18.3682 9.22815 18.4463 9.54065C18.5244 9.77502 18.6025 10.0875 18.6807 10.7125C18.6807 11.4156 18.6807 11.5719 18.6807 13.3688C18.6807 15.1656 18.6807 15.3219 18.6807 16.025C18.6807 16.65 18.5244 16.9625 18.4463 17.1969C18.29 17.5094 18.2119 17.7438 17.9775 17.9781C17.7432 18.2125 17.5088 18.3688 17.1963 18.4469C16.9619 18.525 16.6494 18.6031 16.0244 18.6813C15.3213 18.6813 15.165 18.6813 13.3682 18.6813C11.5713 18.6813 11.415 18.6813 10.7119 18.6813C10.0869 18.6813 9.77441 18.525 9.54004 18.4469C9.22754 18.2906 8.99316 18.2125 8.75879 17.9781C8.52441 17.7438 8.36816 17.5094 8.29004 17.1969C8.21191 16.9625 8.13379 16.65 8.05566 16.025C8.05566 15.3219 8.05566 15.1656 8.05566 13.3688C8.05566 11.5719 8.05566 11.4156 8.05566 10.7125C8.05566 10.0875 8.21191 9.77502 8.29004 9.54065C8.44629 9.22815 8.52441 8.99377 8.75879 8.7594C8.99316 8.52502 9.22754 8.36877 9.54004 8.29065C9.77441 8.21252 10.0869 8.1344 10.7119 8.05627C11.415 8.05627 11.6494 8.05627 13.3682 8.05627ZM13.3682 6.8844C11.5713 6.8844 11.415 6.8844 10.7119 6.8844C10.0088 6.8844 9.54004 7.04065 9.14941 7.1969C8.75879 7.35315 8.36816 7.58752 7.97754 7.97815C7.58691 8.36877 7.43066 8.68127 7.19629 9.15002C7.04004 9.54065 6.96191 10.0094 6.88379 10.7125C6.88379 11.4156 6.88379 11.65 6.88379 13.3688C6.88379 15.1656 6.88379 15.3219 6.88379 16.025C6.88379 16.7281 7.04004 17.1969 7.19629 17.5875C7.35254 17.9781 7.58691 18.3688 7.97754 18.7594C8.36816 19.15 8.68066 19.3063 9.14941 19.5406C9.54004 19.6969 10.0088 19.775 10.7119 19.8531C11.415 19.8531 11.6494 19.8531 13.3682 19.8531C15.0869 19.8531 15.3213 19.8531 16.0244 19.8531C16.7275 19.8531 17.1963 19.6969 17.5869 19.5406C17.9775 19.3844 18.3682 19.15 18.7588 18.7594C19.1494 18.3688 19.3057 18.0563 19.54 17.5875C19.6963 17.1969 19.7744 16.7281 19.8525 16.025C19.8525 15.3219 19.8525 15.0875 19.8525 13.3688C19.8525 11.65 19.8525 11.4156 19.8525 10.7125C19.8525 10.0094 19.6963 9.54065 19.54 9.15002C19.3838 8.7594 19.1494 8.36877 18.7588 7.97815C18.3682 7.58752 18.0557 7.43127 17.5869 7.1969C17.1963 7.04065 16.7275 6.96252 16.0244 6.8844C15.3213 6.8844 15.165 6.8844 13.3682 6.8844Z" fill="white"/>
<path d="M13.3682 10.0094C11.4932 10.0094 10.0088 11.4938 10.0088 13.3688C10.0088 15.2438 11.4932 16.7281 13.3682 16.7281C15.2432 16.7281 16.7275 15.2438 16.7275 13.3688C16.7275 11.4938 15.2432 10.0094 13.3682 10.0094ZM13.3682 15.5563C12.1963 15.5563 11.1807 14.6188 11.1807 13.3688C11.1807 12.1969 12.1182 11.1813 13.3682 11.1813C14.54 11.1813 15.5557 12.1188 15.5557 13.3688C15.5557 14.5406 14.54 15.5563 13.3682 15.5563Z" fill="white"/>
<path d="M16.8057 10.7125C17.2371 10.7125 17.5869 10.3627 17.5869 9.93127C17.5869 9.4998 17.2371 9.15002 16.8057 9.15002C16.3742 9.15002 16.0244 9.4998 16.0244 9.93127C16.0244 10.3627 16.3742 10.7125 16.8057 10.7125Z" fill="white"/>
</svg>
