<svg width="25" height="26" viewBox="0 0 25 26" fill="none" xmlns="http://www.w3.org/2000/svg">
<path d="M0 13.3682C0 20.2717 5.59644 25.8682 12.5 25.8682C19.4036 25.8682 25 20.2717 25 13.3682C25 6.4646 19.4036 0.868164 12.5 0.868164C5.59644 0.868164 0 6.4646 0 13.3682Z" fill="#1877F2"/>
<path d="M18.749 13.3682C18.749 9.93066 15.9365 7.11816 12.499 7.11816C9.06152 7.11816 6.24902 9.93066 6.24902 13.3682C6.24902 16.4932 8.51465 19.0713 11.4834 19.54V15.165H9.9209V13.3682H11.4834V11.9619C11.4834 10.3994 12.4209 9.54004 13.8271 9.54004C14.5303 9.54004 15.2334 9.69629 15.2334 9.69629V11.2588H14.4521C13.6709 11.2588 13.4365 11.7275 13.4365 12.1963V13.3682H15.1553L14.8428 15.165H13.3584V19.6182C16.4834 19.1494 18.749 16.4932 18.749 13.3682Z" fill="white"/>
</svg>
