<svg width="26" height="26" viewBox="0 0 26 26" fill="none" xmlns="http://www.w3.org/2000/svg">
<path d="M0.732422 13.3682C0.732422 20.2717 6.32886 25.8682 13.2324 25.8682C20.136 25.8682 25.7324 20.2717 25.7324 13.3682C25.7324 6.4646 20.136 0.868164 13.2324 0.868164C6.32886 0.868164 0.732422 6.4646 0.732422 13.3682Z" fill="#2867B2"/>
<path d="M9.79395 19.6177H7.13769V11.2583H9.79395V19.6177ZM8.46582 10.0864C7.60645 10.0864 6.98145 9.46143 6.98145 8.60205C6.98145 7.74268 7.68457 7.11768 8.46582 7.11768C9.3252 7.11768 9.9502 7.74268 9.9502 8.60205C9.9502 9.46143 9.3252 10.0864 8.46582 10.0864ZM19.4814 19.6177H16.8252V15.0864C16.8252 13.7583 16.2783 13.3677 15.4971 13.3677C14.7158 13.3677 13.9346 13.9927 13.9346 15.1645V19.6177H11.2783V11.2583H13.7783V12.4302C14.0127 11.8833 14.9502 11.0239 16.2783 11.0239C17.7627 11.0239 19.3252 11.8833 19.3252 14.4614V19.6177H19.4814Z" fill="white"/>
</svg>
