<svg width="80" height="67" viewBox="0 0 80 67" fill="none" xmlns="http://www.w3.org/2000/svg">
<g clip-path="url(#clip0_1576_14170)">
<path d="M11.9204 45.3127C12.4474 43.7782 13.5789 43.1117 15.1444 43.0962C15.3769 43.0962 15.6094 43.0187 15.8264 43.0032C18.4304 42.8017 20.8948 42.1817 23.1888 40.8952C24.1963 40.3217 25.2503 39.8412 26.2888 39.3297C28.0868 38.4308 29.9933 37.8573 32.0238 37.8418C35.1702 37.7953 38.3322 37.7953 41.4787 37.8418C43.8657 37.8883 46.0512 38.6633 48.0661 39.9652C50.1741 41.3292 52.2976 42.6777 54.4211 43.9952C54.7311 44.1812 55.1341 44.3052 55.4906 44.3207C59.2261 44.4757 62.9305 44.8787 66.511 46.0102C67.224 46.2427 67.937 46.5062 68.619 46.8162C70.355 47.6222 71.254 49.0327 71.316 50.9392C71.3625 52.0552 71.347 53.1866 71.316 54.3026C71.2695 55.8836 70.3868 57.2271 68.9918 57.3976C68.3718 57.4751 67.8285 56.9996 67.7355 56.4881C67.6425 55.9766 67.9612 55.7464 68.5967 55.6534C69.2012 55.5604 69.4405 55.0156 69.549 54.4731C69.58 54.3026 69.58 54.1321 69.58 53.9461C69.58 52.8921 69.58 51.8227 69.58 50.6912C68.96 50.6912 68.4175 50.7067 67.8595 50.6912C67.162 50.6757 66.79 50.3502 66.8055 49.8077C66.821 49.2652 67.193 48.9707 67.8905 48.9552C68.123 48.9552 68.34 48.9552 68.5725 48.9552C68.588 48.9087 68.6035 48.8622 68.619 48.8157C68.34 48.6452 68.061 48.4592 67.7665 48.3197C65.395 47.2812 62.884 46.7077 60.311 46.4752C57.5831 46.2272 54.8396 46.0877 52.0961 46.0567C46.3766 45.9947 40.6572 46.0412 34.9222 46.0412C34.7672 46.0412 34.6122 46.0412 34.4572 46.0412C33.7132 46.0257 33.3257 45.7312 33.3102 45.1732C33.3102 44.6307 33.7132 44.3052 34.4417 44.2897C35.0772 44.2897 35.7127 44.2897 36.3637 44.2897C36.5497 44.2897 36.7512 44.2897 36.9837 44.2897C36.9837 42.6932 36.9837 41.1432 36.9837 39.5777C36.9217 39.5467 36.8597 39.5157 36.8132 39.5157C34.7052 39.5777 32.5973 39.5777 30.5048 39.7327C29.2028 39.8257 29.2183 39.9187 28.9238 41.1587C28.6913 42.1507 28.4743 43.1582 28.2263 44.2277C28.5208 44.2587 28.7533 44.2897 28.9858 44.2897C29.5128 44.3052 30.5225 44.2897 30.5225 44.2897C30.9875 44.3362 31.2953 44.6462 31.3108 45.1267C31.3263 45.5917 31.101 45.9864 30.636 46.0329C29.9719 46.075 26.2888 46.0722 24.6148 44.2897C24.1653 43.8092 23.7468 43.0962 23.1888 42.9722C22.6618 42.8482 21.9953 43.3597 21.4063 43.5922C19.6859 44.2897 17.8569 44.4757 16.0279 44.6927C15.5474 44.7547 15.0669 44.8012 14.5864 44.8787C13.9199 44.9872 13.6564 45.3127 13.6409 45.9792C13.6254 46.3202 13.6409 46.6612 13.6409 47.0177C14.3849 47.1727 15.4854 46.7697 15.4544 47.9632C15.4389 49.1102 14.3694 48.6917 13.6564 48.8467C13.6564 49.8077 13.5944 50.7842 13.6719 51.7297C13.7494 52.5201 14.2919 53.0316 15.0669 53.2641C16.1364 53.5741 17.2214 53.8841 18.3684 54.2096C18.5854 52.2411 19.4379 50.6757 21.1738 49.6682C22.3053 49.0017 23.5298 48.8002 24.8008 49.0017C26.3353 49.2807 27.5443 50.0402 28.4278 51.2802C29.3268 52.5201 29.5748 53.9151 29.4043 55.4496C37.8672 55.4496 46.2681 55.4496 54.7156 55.4496C54.7156 55.1086 54.7156 54.7676 54.7156 54.4266C54.7466 51.3732 57.2731 48.9087 60.3265 48.9862C63.442 49.0637 65.891 51.6522 65.7515 54.7366C65.643 57.0616 64.031 59.1386 61.799 59.7896C59.5205 60.4561 57.1181 59.6346 55.7541 57.6816C55.5061 57.3406 55.2736 57.2166 54.8551 57.2166C46.3456 57.2321 37.8362 57.2321 29.3268 57.2166C28.9083 57.2166 28.6758 57.3561 28.4278 57.6816C27.2188 59.3246 25.5603 60.1461 23.5143 59.9756C21.3288 59.7896 19.7634 58.6271 18.8799 56.6276C18.7249 56.2711 18.5234 56.0851 18.1514 55.9921C17.2214 55.7441 16.3069 55.4186 15.3614 55.2171C13.5789 54.8296 12.3854 53.8531 11.9204 52.0397C11.9204 49.7922 11.9204 47.5447 11.9204 45.3127ZM38.7972 44.2587C43.0287 44.2587 47.2136 44.2587 51.3986 44.2587C49.6471 43.0497 47.8956 41.8717 46.0667 40.8332C43.8192 39.5467 41.3547 39.4227 38.7972 39.5777C38.7972 41.1432 38.7972 42.6777 38.7972 44.2587ZM27.7148 54.5041C27.7148 52.4116 26.0718 50.7377 23.9948 50.7222C21.9023 50.6912 20.1818 52.3806 20.1663 54.4731C20.1508 56.5501 21.8868 58.2861 23.9638 58.2706C26.0253 58.2551 27.7148 56.5656 27.7148 54.5041ZM60.2335 50.7067C58.1566 50.7067 56.4671 52.3651 56.4516 54.4421C56.4361 56.5501 58.1256 58.2551 60.218 58.2706C62.264 58.2706 63.9845 56.5811 64.0155 54.5196C64.031 52.4271 62.326 50.7222 60.2335 50.7067ZM26.5833 43.6387C26.8003 42.6777 26.9863 41.8097 27.2188 40.8022C26.3508 41.2362 25.6223 41.6082 25.0488 41.8872C25.5138 42.4452 26.0253 43.0187 26.5833 43.6387Z" fill="#598CFF" stroke="#598CFF" stroke-width="0.25297"/>
<rect x="29.9852" y="44.2925" width="4.85016" height="1.74841" fill="#598CFF" stroke="#598CFF" stroke-width="0.25297"/>
<rect x="64.1637" y="55.6646" width="4.85016" height="1.74841" transform="rotate(-0.095135 64.1637 55.6646)" fill="#598CFF" stroke="#598CFF" stroke-width="0.25297"/>
<ellipse cx="60.2875" cy="54.5372" rx="1.41218" ry="1.41218" fill="#598CFF"/>
<ellipse cx="23.9487" cy="54.5372" rx="1.41218" ry="1.41218" fill="#598CFF"/>
<g clip-path="url(#clip1_1576_14170)">
<path d="M45.6177 48.8953H45.0364C44.4638 48.9162 43.9534 49.2819 43.6451 49.7444C43.5685 49.8271 43.6135 49.9373 43.6767 50.0114C43.8682 50.2726 44.0731 50.5233 44.2503 50.795C44.3652 50.5005 44.5127 50.1861 44.8133 50.0389C45.3333 49.81 46.0285 50.0256 46.2707 50.5509C46.5255 51.0467 46.2851 51.7192 45.7699 51.9405C45.3218 52.1163 44.7645 51.9909 44.4696 51.6024C43.806 50.7665 43.1874 49.8964 42.5401 49.0472C42.3036 49.0083 42.0671 48.9656 41.8296 48.9285C41.7827 49.1764 41.7329 49.4243 41.6831 49.6713C42.2576 50.4777 42.8446 51.2756 43.4344 52.0707C43.8366 52.6131 44.4217 53.0956 45.1389 53.0747H45.3314C46.4 53.0766 47.3585 52.1419 47.3767 51.0828C47.4619 50.056 46.694 48.9694 45.6177 48.8953Z" fill="#598CFF"/>
<path d="M39.9677 48.8953H39.5272C38.7217 48.939 38.0089 49.5308 37.7385 50.2728C37.4585 51.1288 37.7098 52.1747 38.4637 52.7124C38.7599 52.9414 39.1259 53.0563 39.4976 53.0753H39.8588C40.5009 53.0696 41.1058 52.6564 41.3991 52.1054C41.2615 51.7586 40.9395 51.4955 40.7522 51.1658C40.6423 51.4318 40.5143 51.7121 40.2601 51.8707C39.704 52.2175 38.8612 51.9021 38.6787 51.2732C38.5115 50.7696 38.7934 50.1588 39.3055 49.9878C39.7671 49.8073 40.305 50.0324 40.5841 50.4191C41.2243 51.2456 41.853 52.0816 42.4674 52.9281C42.519 52.7086 42.563 52.4873 42.6012 52.265C42.8439 52.2669 43.0856 52.2754 43.3274 52.283C42.8697 51.6503 42.4043 51.0233 41.9428 50.3934C41.4584 49.7256 40.8898 48.9067 39.9677 48.8953Z" fill="#598CFF"/>
</g>
</g>
<rect x="30.1358" y="20.5888" width="24.9171" height="16.8154" rx="1.20896" transform="rotate(4.01055 30.1358 20.5888)" stroke="#598CFF" stroke-width="1.58208"/>
<path d="M47.1983 20.3588C47.1877 20.5099 47.1897 20.6619 47.1602 20.8117C47.1012 21.1113 46.8613 21.2843 46.5528 21.2627C46.2379 21.2406 46.0253 21.0232 46.0159 20.7062C46.0103 20.5159 46.0366 20.3216 46.044 20.126C46.056 19.6839 45.8758 19.4561 45.435 19.4252C43.5274 19.2851 41.6132 19.1509 39.7047 19.0234C39.2828 18.9938 39.0663 19.1938 39.0179 19.6144C38.9907 19.8213 38.9946 20.0367 38.9548 20.2427C38.9035 20.5239 38.6833 20.6857 38.3982 20.691C38.1261 20.6909 37.8655 20.5271 37.8453 20.2725C37.7955 19.6299 37.8216 18.9863 38.2698 18.4609C38.6829 17.9836 39.2075 17.8116 39.812 17.8539C40.9014 17.9303 41.9908 18.0067 43.0802 18.0831C43.8421 18.1365 44.604 18.1899 45.366 18.2433C46.6695 18.3347 47.3023 19.0562 47.1983 20.3588Z" fill="#598CFF" stroke="#598CFF" stroke-width="0.527358"/>
<path d="M30.1975 25.3103L42.2511 29.8562L54.8268 27.4725" stroke="#598CFF" stroke-width="1.58208"/>
<rect x="40.9294" y="28.1543" width="2.97274" height="2.55958" transform="rotate(4.01055 40.9294 28.1543)" fill="#F8F8F8" stroke="#598CFF" stroke-width="1.2305"/>
<mask id="mask0_1576_14170" style="mask-type:alpha" maskUnits="userSpaceOnUse" x="7" y="5" width="48" height="38">
<path d="M16.1533 8.66939C15.9552 8.19843 15.7576 7.76587 15.5855 7.32017C15.3871 6.82362 15.5351 6.39937 15.9424 6.22771C16.3625 6.05589 16.7615 6.22989 16.9854 6.71331C17.1829 7.14588 17.3677 7.57862 17.5655 8.02398C18.4713 7.80747 19.3378 7.51468 20.232 7.3879C26.4272 6.47571 31.4574 8.49656 35.3224 13.4376C35.7779 14.0205 35.6048 14.4834 34.8667 14.8129C30.9723 16.4888 27.0779 18.1646 23.1834 19.8404C23.0561 19.8933 22.929 19.9589 22.7508 20.038C22.817 20.2035 22.8703 20.3692 22.9363 20.5219C24.8629 25.0018 26.7895 29.4817 28.7033 33.9618C28.8747 34.3563 29.068 34.4562 29.4773 34.4381C34.3256 34.2729 39.1418 34.5943 43.891 35.6718C46.5223 36.2648 49.1048 37.0504 51.4022 38.5435C52.1638 39.0456 52.8252 39.7153 53.5115 40.3335C53.7963 40.5858 53.9544 40.9293 53.7676 41.3284C53.5806 41.7148 53.236 41.7832 52.8393 41.7884C48.5399 41.8441 44.2533 41.8997 39.9539 41.9554C29.6917 42.0885 19.4166 42.2217 9.15441 42.3548C9.01365 42.3566 8.84781 42.3971 8.73198 42.3475C8.46178 42.2358 8.102 42.1253 7.97122 41.9094C7.85341 41.7061 7.91174 41.2703 8.07577 41.089C8.65608 40.4415 9.26182 39.781 9.95911 39.2728C11.9623 37.8135 14.2552 36.9903 16.6142 36.3198C20.0057 35.3416 23.4676 34.8488 26.9707 34.573C27.0474 34.572 27.124 34.5582 27.2902 34.5432C25.2977 29.9106 23.3182 25.3034 21.3253 20.6452C20.409 21.041 19.5308 21.4108 18.6399 21.7935C15.509 23.1394 12.3782 24.4854 9.23453 25.8316C8.38185 26.201 7.96924 25.9632 7.8295 25.0563C6.79418 18.2484 9.86248 12.0784 15.8992 8.81346C15.9755 8.77408 16.0389 8.73486 16.1533 8.66939ZM10.489 40.6609C10.5022 40.6864 10.5153 40.7118 10.5284 40.7372C24.0536 40.5619 37.5787 40.3865 51.1807 40.2101C49.669 39.1035 48.0479 38.4462 46.3773 37.9176C43.126 36.8847 39.779 36.365 36.3842 36.1019C30.7218 35.6634 25.0945 35.9539 19.5298 37.1267C16.9133 37.6725 14.3634 38.4223 12.0124 39.7069C11.4786 39.9954 10.9969 40.3472 10.489 40.6609ZM28.0359 16.0533C27.9705 15.939 27.9439 15.8625 27.8919 15.7992C26.9523 14.4036 25.8735 13.125 24.6177 12.0151C23.3232 10.8801 21.916 9.93846 20.1962 9.56402C19.5544 9.41877 18.9007 9.33766 18.2125 9.56414C19.519 12.6059 20.812 15.5967 22.1051 18.6002C24.1034 17.7552 26.0378 16.9111 28.0359 16.0533ZM20.6924 19.2072C19.3858 16.1527 18.0928 13.1619 16.7993 10.1328C15.8862 10.7717 15.3215 11.6365 14.9502 12.614C14.0088 15.0194 14.0539 17.5144 14.4063 20.0182C14.4906 20.593 14.613 21.1546 14.7361 21.7673C16.7471 20.9093 18.6944 20.0778 20.6924 19.2072ZM13.2745 12.6741C10.6109 14.5259 8.42701 20.7996 9.27628 24.1161C10.6125 23.5357 11.949 22.968 13.298 22.3874C12.5646 19.1207 12.3054 15.9117 13.2745 12.6741ZM22.5527 8.7016C25.5166 10.2757 27.6722 12.6794 29.4996 15.4328C30.8613 14.8393 32.1978 14.2716 33.5849 13.6649C30.6103 10.2865 26.9672 8.64436 22.5527 8.7016Z" fill="#3E7BFA" stroke="black" stroke-width="0.459826"/>
</mask>
<g mask="url(#mask0_1576_14170)">
<path d="M31.1738 33.9013L22.5119 34.3674C18.626 33.2778 10.6638 30.9713 9.90247 30.4623C8.9508 29.8261 5.03608 23.5677 4.91129 23.0386C4.81146 22.6154 5.9341 16.9914 6.5079 14.2323L13.799 3.52426L33.24 6.75117L38.0489 13.8234L31.1738 33.9013Z" fill="#598CFF"/>
<rect x="28.8757" y="36.6116" width="5.13584" height="1.73389" fill="#598CFF"/>
<rect x="22.8727" y="24.8438" width="2.01045" height="15.5458" transform="rotate(-23.1769 22.8727 24.8438)" fill="#598CFF"/>
</g>
<rect x="28.422" y="33.3801" width="5.13584" height="1.73389" transform="rotate(67.2897 28.422 33.3801)" fill="#598CFF"/>
<defs>
<clipPath id="clip0_1576_14170">
<rect width="59.4265" height="23.524" fill="white" transform="translate(11.9204 37.7944)"/>
</clipPath>
<clipPath id="clip1_1576_14170">
<rect width="9.75352" height="5.06676" fill="white" transform="matrix(-1 0 0 1 47.3832 48.4519)"/>
</clipPath>
</defs>
</svg>
