<svg width="66" height="55" viewBox="0 0 66 55" fill="none" xmlns="http://www.w3.org/2000/svg">
<path d="M44.5332 38.877C44.576 38.8959 44.5967 38.9313 44.6061 38.9751L44.5332 38.877Z" fill="#598CFF"/>
<path fill-rule="evenodd" clip-rule="evenodd" d="M55.0188 37.0502C55.0444 37.1694 55.0479 37.2914 55.0486 37.4128C55.051 37.8055 55.0531 38.1978 55.0521 38.5891C55.0517 38.748 55.0444 38.9065 55.0097 39.0629C54.9995 39.1081 54.9956 39.1551 54.9921 39.2017L54.9889 39.245C54.9817 39.3425 54.9745 39.4398 54.9476 39.5345C54.9427 39.5524 54.9413 39.5713 54.9395 39.5899C54.9287 39.7014 54.9157 39.8118 54.8904 39.9219C54.871 40.0071 54.8551 40.0937 54.8392 40.18L54.8392 40.1801L54.8312 40.2238C54.7965 40.4135 54.7491 40.6 54.7018 40.7865L54.6786 40.8778C54.5875 41.24 54.4711 41.5952 54.3431 41.9458C54.1376 42.5083 53.8901 43.0514 53.5952 43.5732C53.383 43.948 53.1499 44.3088 52.8963 44.6556C52.687 44.9421 52.465 45.2198 52.2224 45.4796C52.1778 45.5274 52.1339 45.5757 52.0899 45.624C52.0332 45.6863 51.9766 45.7485 51.9188 45.8096C51.8479 45.8839 51.7739 45.9551 51.6992 46.0259C51.6629 46.0602 51.6258 46.0937 51.5887 46.1272L51.5884 46.1275C51.5493 46.1627 51.5103 46.1979 51.472 46.2342C51.1936 46.4982 50.8963 46.7398 50.5909 46.9709C50.1207 47.3264 49.6263 47.6455 49.1119 47.9327C48.8103 48.1013 48.4993 48.2518 48.1813 48.3885C47.8117 48.5474 47.4358 48.6869 47.0515 48.8044C46.7833 48.8864 46.5115 48.9527 46.2387 49.0155C46.0841 49.0509 45.9284 49.0821 45.7727 49.1119C45.7415 49.1177 45.7097 49.1204 45.6779 49.1231C45.6444 49.126 45.6109 49.1289 45.5781 49.1354C45.4221 49.1659 45.265 49.1873 45.1061 49.1943C44.9136 49.2357 44.7184 49.24 44.5231 49.2443C44.4755 49.2453 44.4279 49.2464 44.3803 49.2479C43.9224 49.2634 43.4648 49.2504 43.0069 49.236C42.9318 49.2336 42.8582 49.2228 42.7846 49.212L42.7845 49.212C42.729 49.2038 42.6734 49.1957 42.6173 49.1911C42.5848 49.1885 42.5521 49.1866 42.5195 49.1848C42.4217 49.1792 42.3238 49.1736 42.2281 49.1473C42.2011 49.1399 42.1727 49.1361 42.145 49.1347C42.0576 49.1301 41.9722 49.1133 41.8867 49.0964L41.8867 49.0964C41.8072 49.0807 41.7277 49.065 41.6467 49.0593C41.5671 49.0413 41.4874 49.024 41.4076 49.0067C41.223 48.9666 41.0383 48.9265 40.8557 48.878C40.4675 48.7749 40.086 48.6504 39.7105 48.5081C39.5271 48.4387 39.3458 48.3626 39.1677 48.2812C38.606 48.0242 38.0663 47.7276 37.5561 47.3783C37.2164 47.1458 36.892 46.8948 36.5771 46.6297C36.1616 46.2798 35.7791 45.8965 35.413 45.4964C35.1357 45.1931 34.8776 44.873 34.6353 44.5402C34.238 43.995 33.894 43.4185 33.6034 42.8098C33.3895 42.3624 33.2117 41.9013 33.062 41.429C32.9196 40.9809 32.8432 40.6516 32.7709 40.2621C32.7479 40.1841 32.7357 40.1041 32.7234 40.0241L32.7234 40.0241C32.713 39.9565 32.7026 39.8888 32.6857 39.8224C32.676 39.7848 32.6732 39.7458 32.6704 39.7067L32.6704 39.7066C32.6691 39.6895 32.6679 39.6724 32.6661 39.6555C32.6642 39.6375 32.6629 39.6195 32.6617 39.6015C32.659 39.5633 32.6563 39.5252 32.6475 39.4885C32.6211 39.3775 32.615 39.2649 32.6089 39.152L32.6075 39.127C32.6026 39.0338 32.5967 38.9408 32.5816 38.8483C32.5697 38.775 32.5658 38.7 32.5634 38.6253C32.5497 38.1954 32.5497 37.7658 32.562 37.336C32.5644 37.2423 32.5704 37.1494 32.5851 37.0569C32.5966 36.9853 32.6013 36.9124 32.606 36.8399L32.6082 36.8058L32.6116 36.7535V36.7535C32.6175 36.6591 32.6234 36.565 32.6468 36.4723C32.6566 36.4345 32.6596 36.395 32.6626 36.3556L32.6643 36.3335C32.6714 36.2497 32.6826 36.1669 32.7026 36.0845C32.7145 36.0355 32.7205 35.9853 32.7264 35.9351C32.7348 35.8647 32.7432 35.7942 32.7681 35.7269C32.8656 35.1928 33.0178 34.6739 33.2008 34.1637C33.2797 33.9439 33.3663 33.7272 33.4628 33.5143C33.4773 33.4822 33.4918 33.4499 33.5063 33.4177L33.5063 33.4175C33.553 33.3134 33.5997 33.2093 33.651 33.1076C33.8106 32.7906 33.9799 32.4785 34.17 32.1784C34.2948 31.981 34.4221 31.7853 34.5582 31.5953C34.7212 31.367 34.8934 31.1464 35.0704 30.929C35.3958 30.5304 35.743 30.1517 36.1164 29.7979C36.3335 29.5921 36.5589 29.396 36.7917 29.2081C37.061 28.9907 37.337 28.7831 37.6263 28.5934C37.931 28.3936 38.2427 28.2053 38.5663 28.0373L38.5882 28.0264L38.6089 28.0164C38.6534 27.995 38.6981 27.9736 38.736 27.9402C38.7553 27.923 38.755 27.8862 38.7318 27.8697C38.6423 27.806 38.548 27.75 38.4537 27.694L38.4537 27.694C38.4276 27.6785 38.4016 27.663 38.3756 27.6474C37.9194 27.3725 37.4506 27.12 36.9695 26.8911C36.6494 26.7385 36.325 26.5941 35.9961 26.4605C35.9253 26.4317 35.8538 26.417 35.778 26.4188C35.7311 26.4198 35.6848 26.4258 35.6406 26.4426C35.562 26.4727 35.4867 26.5082 35.4123 26.5485C34.8541 26.8532 34.2783 27.12 33.6826 27.343C33.3505 27.4675 33.0139 27.5801 32.6721 27.6751C32.4655 27.7326 32.2576 27.7845 32.0476 27.8301C31.9953 27.8415 31.9427 27.8513 31.8901 27.8611L31.89 27.8611C31.8051 27.8769 31.7202 27.8928 31.6366 27.9153C31.5568 27.9235 31.4779 27.938 31.3989 27.9524C31.3034 27.9698 31.2078 27.9873 31.1107 27.9938L31.095 27.9949H31.095C31.0534 27.9976 31.0113 28.0003 30.9714 28.01C30.8663 28.0354 30.7596 28.0407 30.6528 28.046L30.6376 28.0468C30.6053 28.0484 30.573 28.0498 30.5407 28.0511H30.5406C30.4238 28.0559 30.3068 28.0607 30.1909 28.0818C30.1545 28.0885 30.1162 28.0885 30.0791 28.0885C29.8641 28.0892 29.6492 28.0896 29.4342 28.0892L29.4241 28.0892H29.424C29.3901 28.0893 29.3555 28.0893 29.3224 28.0836C29.1926 28.0612 29.0618 28.056 28.931 28.0509H28.931C28.8938 28.0494 28.8567 28.0479 28.8196 28.0461L28.8096 28.0456C28.7197 28.0408 28.6298 28.0361 28.5415 28.0138C28.5145 28.0072 28.4861 28.0019 28.4584 28.0015C28.3239 27.9993 28.1924 27.9759 28.0608 27.9524L28.0607 27.9524C28.0084 27.9431 27.9561 27.9338 27.9037 27.9258C27.7105 27.8967 27.5183 27.855 27.3279 27.8087C26.876 27.6986 26.5393 27.6064 26.1182 27.4584C25.6599 27.2971 25.209 27.1165 24.7725 26.903C24.6156 26.8263 24.4603 26.7465 24.305 26.6668L24.3038 26.6662C24.2352 26.631 24.1666 26.5957 24.0978 26.5608C24.0609 26.5421 24.0241 26.523 23.9873 26.5038C23.9578 26.4885 23.9283 26.4732 23.8987 26.458C23.7837 26.3991 23.6644 26.3995 23.5452 26.4405C23.4848 26.4612 23.426 26.4866 23.3671 26.512L23.3376 26.5246C22.8573 26.7315 22.3842 26.9549 21.9221 27.2003C21.1205 27.626 20.354 28.1071 19.6286 28.6537C19.4122 28.8168 19.1973 28.9823 18.99 29.1562C18.7968 29.3182 18.604 29.4809 18.4199 29.6538C18.0994 29.9546 17.7884 30.2642 17.4865 30.5837C17.2747 30.8077 17.0759 31.0434 16.8795 31.2811C16.7067 31.4901 16.5373 31.7015 16.3767 31.9196C16.1109 32.2808 15.8571 32.6496 15.6176 33.0294C15.3381 33.4722 15.086 33.9302 14.8416 34.3927C14.7725 34.523 14.7096 34.6568 14.6467 34.7906L14.6467 34.7906L14.6465 34.791L14.6465 34.791L14.6465 34.791C14.622 34.8431 14.5975 34.8952 14.5727 34.947C14.4033 35.3008 14.2431 35.6588 14.1032 36.0256C13.9769 36.357 13.8577 36.6908 13.7511 37.0295C13.6168 37.4573 13.5085 37.8917 13.4026 38.3269C13.3899 38.3788 13.3802 38.4312 13.3706 38.4837C13.3601 38.5412 13.3496 38.5988 13.3349 38.6558C13.3023 38.7817 13.283 38.9117 13.2658 39.0411C13.2587 39.0947 13.2481 39.1475 13.2375 39.2003C13.2224 39.2755 13.2073 39.3507 13.2024 39.4279C13.1991 39.479 13.1888 39.5292 13.1784 39.5796C13.1661 39.639 13.1538 39.6986 13.1533 39.7599C13.1527 39.8418 13.1379 39.9217 13.123 40.0017L13.123 40.0018C13.1191 40.0228 13.1152 40.0439 13.1115 40.065C13.1053 40.1003 13.1033 40.1363 13.1012 40.1722L13.0993 40.2046L13.0951 40.2698C13.0884 40.3785 13.0817 40.4873 13.0603 40.5948C13.0502 40.6458 13.0484 40.6988 13.0467 40.7515L13.0453 40.7901C13.0423 40.8555 13.04 40.9208 13.0376 40.986C13.0357 41.0422 13.0337 41.0983 13.0312 41.1544C13.0306 41.1697 13.0301 41.1849 13.0297 41.2002C13.0281 41.2505 13.0266 41.3009 13.0183 41.3501C12.9983 41.4707 12.9965 41.592 12.9951 41.7134C12.9927 41.9283 12.9902 42.1432 12.9906 42.3582C12.9914 43.073 12.9925 43.7878 12.9936 44.5027C12.9946 45.2176 12.9957 45.9325 12.9965 46.6472C12.9965 46.731 12.9944 46.8152 12.992 46.8993C12.9864 47.101 12.9187 47.2833 12.8128 47.4523C12.7476 47.5564 12.661 47.6417 12.5617 47.7135C12.5331 47.7342 12.5031 47.7529 12.473 47.7718L12.473 47.7718L12.473 47.7718L12.4729 47.7719L12.4729 47.7719L12.4725 47.7721L12.4724 47.7722C12.4551 47.783 12.4378 47.7939 12.4208 47.8051C12.3724 47.8366 12.318 47.852 12.2616 47.8527C12.1122 47.8545 11.9625 47.8538 11.8131 47.8517C11.7756 47.851 11.7395 47.8391 11.7065 47.8201C11.4618 47.6795 11.29 47.4776 11.1932 47.2125C11.155 47.1069 11.1269 46.9986 11.1248 46.885C11.1241 46.8439 11.1227 46.8028 11.1214 46.7617C11.1193 46.7 11.1172 46.6384 11.1174 46.5768C11.1196 45.9601 11.1222 45.3434 11.1249 44.7267L11.1276 44.11H11.1199L11.1257 43.4029C11.1302 42.8537 11.1346 42.3045 11.1402 41.7554L11.1407 41.7051C11.1424 41.5164 11.1442 41.3278 11.1725 41.1401C11.1807 41.0868 11.1814 41.0322 11.1821 40.9776C11.1824 40.9572 11.1827 40.9367 11.1834 40.9164C11.1854 40.8582 11.1871 40.8001 11.1889 40.742C11.1911 40.6693 11.1933 40.5966 11.196 40.524C11.1965 40.5097 11.1968 40.4953 11.197 40.4809C11.1977 40.4389 11.1984 40.3969 11.2065 40.3564C11.2315 40.2324 11.2382 40.1072 11.245 39.9818C11.2468 39.9487 11.2486 39.9155 11.2507 39.8823C11.2512 39.8744 11.2514 39.8665 11.2517 39.8585C11.2523 39.8382 11.2529 39.8179 11.2577 39.7985C11.2804 39.7061 11.2881 39.6117 11.2958 39.5175C11.3018 39.4441 11.3078 39.3708 11.3208 39.2985C11.3373 39.2063 11.3517 39.1144 11.3611 39.0215C11.3654 38.9798 11.3731 38.9384 11.3809 38.897L11.3885 38.856C11.3904 38.845 11.393 38.8341 11.3955 38.8233C11.3994 38.8068 11.4033 38.7903 11.405 38.7736C11.4151 38.6712 11.4341 38.5706 11.4551 38.4699C11.4712 38.3928 11.4859 38.3155 11.5006 38.2382L11.5006 38.2381L11.514 38.1677C11.5491 37.9843 11.5891 37.8023 11.6308 37.6203C11.7623 37.0467 11.9288 36.4832 12.1192 35.9264C12.3282 35.3163 12.5673 34.7184 12.8465 34.1371C12.8709 34.0861 12.8948 34.0349 12.9187 33.9838L12.9188 33.9837C12.97 33.874 13.0212 33.7645 13.0772 33.6574C13.3195 33.1938 13.5712 32.7359 13.8475 32.2909C14.2325 31.6714 14.6498 31.0749 15.0979 30.4995C15.2761 30.2712 15.4619 30.0493 15.6484 29.8277C15.7638 29.6906 15.8848 29.5588 16.0058 29.4271L16.0058 29.4271L16.0058 29.427C16.068 29.3593 16.1302 29.2916 16.1916 29.2232C16.3539 29.0422 16.5201 28.8648 16.6961 28.6976C17.0075 28.4013 17.3189 28.1057 17.6464 27.8266C18.0237 27.505 18.4104 27.1968 18.8109 26.9051C19.1962 26.6246 19.5924 26.3598 19.9992 26.1116C20.5735 25.7606 21.1644 25.4394 21.7703 25.1466C21.8025 25.1312 21.8339 25.114 21.8653 25.0968L21.8654 25.0968L21.8654 25.0968L21.8655 25.0967C21.8832 25.0871 21.9008 25.0774 21.9186 25.0681C21.9386 25.0576 21.9431 25.013 21.9267 24.9951C21.9239 24.992 21.9215 24.9886 21.9191 24.9851C21.9161 24.9808 21.9132 24.9766 21.9095 24.9731C21.6298 24.7182 21.3771 24.437 21.1246 24.1561L21.0578 24.0817C20.7955 23.79 20.5557 23.479 20.3235 23.1623C19.8407 22.5042 19.4438 21.7969 19.11 21.0532C18.9532 20.7037 18.8284 20.3418 18.7102 19.9775C18.6066 19.6585 18.5292 19.3327 18.4518 19.0068L18.4518 19.0068L18.4518 19.0068L18.4381 18.9494C18.4315 18.8808 18.4167 18.8136 18.4019 18.7464C18.3846 18.6677 18.3673 18.5889 18.3631 18.5079C18.3332 18.3941 18.3215 18.2775 18.3097 18.1608C18.2999 18.0638 18.29 17.9667 18.2698 17.8712C18.2604 17.8265 18.259 17.7799 18.2577 17.7334V17.7334C18.2571 17.7141 18.2566 17.6949 18.2554 17.6759L18.2519 17.6077L18.2519 17.6077C18.2464 17.4999 18.2409 17.3921 18.2218 17.2852C18.2125 17.234 18.2116 17.1809 18.2107 17.1281L18.2099 17.0896C18.2014 16.7719 18.2022 16.4542 18.2092 16.1365C18.2113 16.0433 18.2183 15.9504 18.2302 15.8574C18.2411 15.7731 18.2456 15.6877 18.25 15.6024L18.25 15.6023L18.25 15.6022L18.25 15.6022L18.25 15.6021C18.2514 15.5755 18.2528 15.5488 18.2544 15.5222C18.2556 15.5011 18.2566 15.4799 18.2577 15.4588L18.2577 15.4587C18.2626 15.3585 18.2674 15.2585 18.2926 15.1604C18.2972 15.1425 18.3 15.1235 18.3003 15.105C18.3016 14.9854 18.3212 14.868 18.3408 14.7506C18.3535 14.6745 18.3662 14.5985 18.374 14.5218C18.3793 14.4685 18.3908 14.4162 18.4024 14.3637C18.4129 14.3158 18.4235 14.2678 18.4294 14.2189C18.4405 14.127 18.462 14.0359 18.4834 13.9452L18.49 13.9173C18.6036 13.4356 18.7351 12.959 18.908 12.4944C19.0973 11.986 19.3168 11.492 19.5819 11.0179C19.7737 10.675 19.9774 10.3405 20.2026 10.0186C20.3579 9.79661 20.5216 9.58096 20.6906 9.36918C21.0409 8.92982 21.4242 8.52133 21.8309 8.13457C22.4425 7.55321 23.1041 7.03636 23.8275 6.60297C24.2121 6.37225 24.6091 6.16502 25.02 5.98303C25.5165 5.76353 26.026 5.5826 26.5467 5.43183C26.7529 5.37187 26.9619 5.32313 27.1712 5.27579C27.3056 5.24533 27.4411 5.22053 27.5765 5.19572C27.6797 5.17684 27.7828 5.15796 27.8855 5.13659C27.931 5.12712 27.978 5.12186 28.0243 5.11765L28.0315 5.11699C28.1314 5.10775 28.2307 5.09858 28.3297 5.07803C28.3858 5.06637 28.4439 5.06331 28.5018 5.06025C28.5188 5.05935 28.5358 5.05845 28.5527 5.05734L28.6141 5.05356C28.7054 5.04812 28.7967 5.04269 28.8872 5.02578C28.9419 5.01562 28.9984 5.01351 29.0545 5.01176C29.4844 4.99808 29.9143 4.99317 30.3438 5.01456C30.4545 5.02012 30.5649 5.03128 30.6753 5.04244C30.7879 5.05381 30.9005 5.06518 31.0135 5.07067C31.1324 5.09661 31.253 5.10924 31.374 5.12046C31.4413 5.12652 31.5077 5.13925 31.5743 5.15199C31.627 5.16209 31.6797 5.17219 31.733 5.17901C31.8201 5.19006 31.9066 5.2083 31.9931 5.22651L32.063 5.24108C32.3007 5.28947 32.5374 5.34417 32.7713 5.40798C32.9785 5.46409 33.184 5.5272 33.3877 5.59452C33.7601 5.71795 34.1269 5.8568 34.4845 6.01845C34.5216 6.03524 34.5588 6.05177 34.596 6.0683L34.596 6.06834L34.5963 6.06844C34.6871 6.10881 34.778 6.14917 34.8667 6.19342C35.554 6.53635 36.2076 6.93397 36.818 7.40068C37.3836 7.83337 37.9008 8.31901 38.3791 8.84602C38.4794 8.95682 38.5751 9.07183 38.6687 9.18824C38.9145 9.49435 39.1491 9.80853 39.3623 10.1385C39.7789 10.7837 40.1337 11.4608 40.4174 12.175C40.5692 12.5576 40.7 12.9464 40.8161 13.3405C40.889 13.587 40.9812 13.977 41.0282 14.2105C41.046 14.2992 41.062 14.3883 41.0781 14.4774L41.0945 14.5681C41.1035 14.6171 41.1105 14.6663 41.1175 14.7155C41.1263 14.7772 41.1351 14.8388 41.1478 14.8995C41.1782 15.0446 41.1888 15.1908 41.1995 15.3377L41.2 15.3441L41.201 15.3582C41.2026 15.3816 41.2042 15.4051 41.2095 15.4276C41.2376 15.545 41.2417 15.6647 41.2458 15.7844L41.248 15.8455C41.2684 16.3501 41.268 16.8543 41.2477 17.3589L41.2455 17.4195C41.2414 17.5393 41.2373 17.6592 41.2088 17.7768C41.2034 17.7987 41.2019 17.8215 41.2004 17.8442L41.1993 17.8603L41.195 17.9206C41.1874 18.0308 41.1799 18.1412 41.1502 18.2488C41.1433 18.2742 41.1416 18.3009 41.14 18.3274L41.1397 18.3323C41.1321 18.4544 41.1074 18.574 41.0828 18.6935C41.0735 18.7386 41.0643 18.7836 41.0559 18.8288C41.0166 19.0399 40.9679 19.2488 40.9128 19.4564C40.815 19.8267 40.7042 20.1928 40.5706 20.5518C40.4076 20.9901 40.2217 21.4183 40.0057 21.8327C39.755 22.3138 39.471 22.7745 39.1568 23.217C38.9675 23.4839 38.7644 23.7399 38.5551 23.9913C38.2855 24.3149 37.9916 24.6151 37.6925 24.9106C37.6646 24.9381 37.6381 24.9665 37.6115 24.995L37.6115 24.995L37.5768 25.032C37.5603 25.0495 37.5663 25.0947 37.5863 25.1067L37.6036 25.117L37.6187 25.1261C37.6396 25.1388 37.6606 25.1516 37.6824 25.1628C37.7517 25.1982 37.8212 25.2332 37.8907 25.2682C37.9464 25.2962 38.002 25.3242 38.0576 25.3525C38.5663 25.6102 39.0569 25.8998 39.5425 26.1982C39.9805 26.4671 40.404 26.7578 40.8185 27.0618C40.8406 27.0783 40.8658 27.0916 40.8911 27.1032C40.9079 27.1106 40.9279 27.1179 40.9451 27.1155L40.9535 27.1143C41.0061 27.107 41.0593 27.0996 41.1099 27.085C41.2324 27.0494 41.3573 27.0239 41.4821 26.9985L41.4821 26.9985L41.4822 26.9985L41.4822 26.9985L41.4823 26.9985C41.5678 26.981 41.6532 26.9636 41.7379 26.943C41.8171 26.9348 41.8954 26.9199 41.9737 26.9051L41.9737 26.9051C42.0697 26.8869 42.1656 26.8686 42.2635 26.8627C42.2992 26.8606 42.3348 26.8541 42.3704 26.8475C42.39 26.8439 42.4097 26.8403 42.4293 26.8374L42.4584 26.8331C42.5042 26.8263 42.5499 26.8195 42.5959 26.816C42.7078 26.8076 42.8186 26.7957 42.9294 26.7754C43.0205 26.7585 43.1152 26.7561 43.2085 26.7557C43.4938 26.7544 43.7793 26.7547 44.0647 26.7549L44.3859 26.755C44.4515 26.755 44.5171 26.7561 44.5805 26.7747C44.6609 26.7981 44.7433 26.8026 44.826 26.807L44.8302 26.8073L44.8821 26.81C45.0047 26.8163 45.1273 26.8226 45.2478 26.8518C45.2823 26.8601 45.3184 26.8623 45.3545 26.8644C45.3654 26.8651 45.3762 26.8657 45.387 26.8665C45.4708 26.8728 45.5546 26.8791 45.6363 26.9023C45.663 26.91 45.691 26.9149 45.7187 26.9181C45.9442 26.9426 46.1647 26.9942 46.3847 27.0456L46.3847 27.0456L46.3848 27.0457L46.3848 27.0457L46.3848 27.0457L46.433 27.0569C46.8972 27.1649 47.351 27.308 47.797 27.4763C48.0154 27.559 48.23 27.6506 48.4421 27.748C49.0298 28.0177 49.5852 28.3431 50.1175 28.7088C50.4874 28.963 50.8405 29.2383 51.1831 29.5286C51.5187 29.813 51.8304 30.1219 52.1312 30.442C52.2718 30.5917 52.4054 30.7485 52.5359 30.907C52.8329 31.2681 53.105 31.6479 53.3522 32.0448C53.639 32.5055 53.8855 32.987 54.1025 33.4845C54.2333 33.7843 54.3469 34.0908 54.4518 34.4C54.5479 34.6827 54.6313 34.9695 54.7039 35.2595C54.7603 35.486 54.8161 35.7128 54.8571 35.9422C54.865 35.9859 54.8739 36.0296 54.8827 36.0732C54.9072 36.1943 54.9317 36.3155 54.9364 36.4397C54.9378 36.4769 54.9441 36.5144 54.9532 36.5505C54.9739 36.6326 54.9813 36.716 54.9865 36.8002C54.9918 36.8843 55.0012 36.9674 55.0188 37.0502ZM35.5277 24.2542C35.7286 24.1017 35.9285 23.9471 36.1147 23.777C36.4944 23.4299 36.8591 23.0684 37.1834 22.6679C37.3542 22.4576 37.5183 22.2423 37.6733 22.02C37.8391 21.7822 37.9906 21.5361 38.135 21.2847C38.4149 20.7973 38.6424 20.2864 38.836 19.7594C38.9745 19.3817 39.0779 18.9939 39.167 18.6026L39.1685 18.5961L39.1685 18.596C39.222 18.3615 39.2755 18.127 39.2936 17.8862C39.3297 17.7437 39.3385 17.5978 39.3473 17.452L39.3497 17.4139C39.3518 17.3768 39.3553 17.3392 39.363 17.3028C39.3847 17.2014 39.3879 17.0987 39.3903 16.996C39.3929 16.8837 39.3949 16.7715 39.3968 16.6593L39.3998 16.4914H39.3963L39.3966 16.4053C39.3969 16.3406 39.3972 16.2758 39.396 16.2112L39.3946 16.1303C39.3921 15.9612 39.3895 15.7922 39.356 15.625C39.3493 15.5917 39.3479 15.557 39.3465 15.5224V15.5224C39.346 15.5101 39.3455 15.4977 39.3448 15.4854L39.3435 15.4638C39.3374 15.3591 39.3312 15.2543 39.3027 15.1523C39.2953 15.1257 39.2922 15.0969 39.2911 15.0692C39.2882 14.98 39.27 14.8933 39.2518 14.8067V14.8067V14.8067V14.8066V14.8066C39.2373 14.7379 39.2229 14.6693 39.2161 14.5993C39.1347 14.2543 39.0523 13.9093 38.9429 13.5716C38.6856 12.7764 38.3282 12.0288 37.8773 11.3254C37.5993 10.892 37.2882 10.4832 36.9439 10.101C36.5239 9.63531 36.0673 9.20788 35.5662 8.82884C35.1181 8.48942 34.6441 8.19207 34.1465 7.93155C33.9316 7.81899 33.7103 7.71906 33.4869 7.62298C33.2292 7.51253 32.9676 7.41225 32.7008 7.32774C32.3172 7.20642 31.9182 7.09001 31.3971 7.00761C31.2888 6.97605 31.1773 6.96378 31.0654 6.95571C31.0468 6.95466 31.0279 6.95326 31.01 6.9487C30.888 6.91679 30.7632 6.91028 30.6383 6.90377L30.5931 6.90136C30.5802 6.90063 30.5672 6.90007 30.5542 6.89951C30.5109 6.89765 30.4676 6.89578 30.4255 6.88769C30.294 6.86206 30.161 6.86013 30.0281 6.8582L30.0068 6.85788C29.8669 6.85578 29.7267 6.85508 29.5864 6.85648L29.5097 6.85709C29.3391 6.8582 29.1684 6.85932 28.9998 6.89225C28.9849 6.89511 28.9696 6.89587 28.9543 6.89662L28.944 6.89716C28.917 6.89868 28.8898 6.89994 28.8627 6.90121L28.8627 6.90121C28.7964 6.90429 28.7302 6.90737 28.6642 6.91434C28.6089 6.92021 28.5539 6.92946 28.4989 6.93872C28.4619 6.94496 28.4248 6.9512 28.3876 6.95641C28.3611 6.96014 28.3343 6.96228 28.3076 6.96442C28.269 6.96753 28.2304 6.97062 28.1926 6.9785C28.1388 6.98964 28.0848 6.99919 28.0307 7.00874L28.0307 7.00875L28.0307 7.00875C27.9929 7.01544 27.9551 7.02213 27.9174 7.02935L27.857 7.041C27.7762 7.0565 27.6952 7.07205 27.6158 7.09141C27.3623 7.15347 27.1088 7.21694 26.8598 7.29759C26.4689 7.42417 26.0849 7.56863 25.7111 7.74115C25.5071 7.83512 25.3089 7.93926 25.1112 8.04445C24.9131 8.15 24.722 8.26676 24.5333 8.38808C24.2426 8.57567 23.9618 8.77624 23.6939 8.99574C23.4264 9.21489 23.1669 9.44281 22.9207 9.6858C22.7941 9.81063 22.676 9.94247 22.5575 10.075C22.3579 10.2984 22.1683 10.5291 21.9901 10.7693C21.7061 11.1525 21.4491 11.553 21.2236 11.9737C21.0378 12.3198 20.8761 12.6768 20.7331 13.0425C20.5676 13.465 20.4231 13.9457 20.3179 14.4072C20.2829 14.5618 20.2506 14.7172 20.2229 14.8732C20.2173 14.9047 20.2114 14.9362 20.2054 14.9677L20.2054 14.9677L20.2054 14.9677L20.2054 14.9678C20.1804 15.1012 20.1553 15.2348 20.1524 15.3718C20.1517 15.4086 20.1433 15.4458 20.1349 15.4823C20.1181 15.5559 20.1135 15.6302 20.11 15.7049C20.1081 15.747 20.1064 15.789 20.1047 15.831C20.1031 15.873 20.1014 15.915 20.0995 15.957L20.0957 16.0409C20.0909 16.1528 20.0861 16.2647 20.0732 16.3764C20.057 16.5156 20.0581 16.6569 20.0749 16.7961C20.0875 16.8981 20.0928 17.0005 20.0974 17.1033C20.0991 17.1414 20.1004 17.1795 20.1017 17.2176L20.1017 17.2179C20.1074 17.385 20.1131 17.5522 20.1514 17.7165C20.1561 17.8363 20.1759 17.9538 20.1958 18.0714L20.1958 18.0714C20.2023 18.1102 20.2088 18.1489 20.2148 18.1878C20.2244 18.2499 20.238 18.3112 20.2515 18.3725L20.2515 18.3725L20.2515 18.3725L20.2515 18.3725L20.2515 18.3726L20.2515 18.3726C20.2682 18.448 20.2848 18.5234 20.2941 18.6002C20.4052 19.0732 20.5385 19.5388 20.7166 19.9918C20.9568 20.6023 21.2492 21.1854 21.6051 21.7363C21.7878 22.0189 21.9842 22.2914 22.196 22.5533C22.4193 22.8296 22.6511 23.0982 22.9035 23.3485C23.0494 23.493 23.2009 23.6319 23.3548 23.7683C23.5161 23.911 23.6806 24.0495 23.851 24.1799C24.4239 24.6189 25.0354 24.9944 25.6911 25.2981C26.1158 25.4948 26.553 25.6565 26.999 25.7953C27.2705 25.8797 27.5481 25.94 27.8256 26.0002L27.8257 26.0002L27.9233 26.0215C27.9903 26.0282 28.0563 26.0415 28.1222 26.0549L28.1222 26.0549L28.1223 26.0549L28.1223 26.0549L28.1223 26.0549L28.1224 26.0549C28.212 26.0731 28.3016 26.0912 28.3939 26.0927C28.4125 26.093 28.4314 26.0951 28.4493 26.1C28.561 26.1305 28.6756 26.1364 28.7903 26.1424L28.7904 26.1424L28.7904 26.1424L28.7905 26.1424C28.8158 26.1438 28.841 26.1451 28.8662 26.1467C28.8795 26.1475 28.8928 26.1481 28.9061 26.1488H28.9062C28.9489 26.1509 28.9918 26.153 29.0335 26.161C29.1537 26.1845 29.275 26.1884 29.3964 26.1887C29.6394 26.1898 29.8824 26.1891 30.1254 26.1873L30.1314 26.1873C30.1947 26.187 30.2592 26.1866 30.321 26.1758C30.4283 26.1568 30.5362 26.1506 30.6443 26.1444H30.6443L30.6445 26.1444L30.6447 26.1444L30.6449 26.1444C30.6765 26.1425 30.7081 26.1407 30.7397 26.1386L30.775 26.1365C30.8286 26.1334 30.8823 26.1303 30.9346 26.1197C31.0133 26.1036 31.0925 26.0933 31.1721 26.0829L31.1836 26.0814C31.2311 26.0753 31.2784 26.0661 31.3256 26.0569C31.37 26.0482 31.4145 26.0395 31.4592 26.0334C31.691 26.0015 31.9171 25.944 32.1429 25.8865C32.523 25.7901 32.8958 25.668 33.2611 25.5243C33.6794 25.3598 34.0837 25.1666 34.4747 24.9468C34.8415 24.7409 35.1921 24.5085 35.5277 24.2542ZM53.6342 38.5377C53.6344 38.5221 53.6346 38.5065 53.6351 38.491C53.645 38.1638 53.6436 37.837 53.6365 37.5085C53.6342 37.3997 53.6211 37.2918 53.6081 37.184C53.5943 37.0694 53.5805 36.9549 53.5794 36.8391C53.5791 36.8152 53.5756 36.7909 53.5722 36.7669L53.5706 36.7556C53.5693 36.7458 53.5672 36.7361 53.5651 36.7264L53.5651 36.7263L53.5651 36.7263L53.5651 36.7263L53.5651 36.7262C53.5632 36.7177 53.5614 36.7092 53.5601 36.7006L53.545 36.6048L53.5299 36.507C53.5276 36.4917 53.5257 36.4762 53.5239 36.4606C53.5201 36.4297 53.5164 36.3988 53.5089 36.3689C53.4887 36.2884 53.474 36.2066 53.4593 36.1249L53.4592 36.1248L53.4592 36.1247L53.4592 36.1246L53.4592 36.1245C53.4491 36.0686 53.439 36.0127 53.4272 35.9572C53.3806 35.7381 53.3266 35.521 53.2645 35.3061C53.132 34.8482 52.9668 34.4028 52.7726 33.967C52.6162 33.6164 52.4342 33.2801 52.2375 32.9515C52.0888 32.7033 51.9261 32.4638 51.7571 32.2285C51.5769 31.9778 51.384 31.7373 51.1778 31.5083C50.7455 31.0286 50.2813 30.583 49.7644 30.1931C49.3983 29.9171 49.0196 29.6611 48.6196 29.4374C47.9488 29.0626 47.2472 28.76 46.5066 28.5513C46.0399 28.4199 45.6044 28.3224 45.1107 28.2617C45.083 28.2582 45.055 28.2551 45.028 28.248C44.9436 28.2259 44.8573 28.2209 44.771 28.2159L44.7222 28.213C44.6951 28.2112 44.6679 28.2098 44.6406 28.2083L44.6403 28.2083C44.5649 28.2043 44.4894 28.2003 44.415 28.1895C44.3126 28.1748 44.2106 28.1674 44.1079 28.167C43.8838 28.166 43.6594 28.166 43.4353 28.1677C43.3701 28.1684 43.3042 28.1706 43.24 28.1814C43.1507 28.1966 43.0609 28.2017 42.9709 28.2067L42.9052 28.2105L42.8936 28.2112L42.8679 28.2123L42.8356 28.2134H42.8356C42.7744 28.2154 42.7131 28.2175 42.6541 28.2302C42.5748 28.2474 42.4942 28.256 42.4136 28.2647L42.4136 28.2647L42.4136 28.2647L42.4136 28.2647L42.4135 28.2647C42.3085 28.276 42.2035 28.2873 42.1015 28.3175C41.9628 28.3304 41.8278 28.3623 41.6927 28.3943L41.6927 28.3943C41.6007 28.416 41.5088 28.4378 41.4156 28.4535C41.3354 28.4773 41.255 28.5001 41.1745 28.523C40.9948 28.5741 40.815 28.6252 40.6379 28.686C40.3111 28.7986 39.992 28.9297 39.6768 29.0721C39.3612 29.2144 39.0593 29.3817 38.7613 29.5566C38.4952 29.7127 38.2402 29.8859 37.9909 30.0675C37.7718 30.2267 37.5572 30.3929 37.3559 30.5738C36.9316 30.9553 36.527 31.3558 36.1679 31.8007C35.9979 32.0118 35.8345 32.2275 35.6806 32.4505C35.399 32.8583 35.1528 33.2875 34.9326 33.7314C34.8753 33.8472 34.8241 33.9658 34.7729 34.0843L34.7729 34.0844C34.7575 34.1201 34.7421 34.1558 34.7265 34.1914C34.6139 34.4481 34.5168 34.7111 34.4302 34.9772C34.3145 35.3324 34.2236 35.6943 34.143 36.0589C34.1149 36.1862 34.0908 36.3152 34.075 36.4446C34.0668 36.5118 34.0565 36.5787 34.0461 36.6457L34.0461 36.6458V36.6458V36.6459V36.6459V36.6459C34.0237 36.791 34.0014 36.9361 34.0006 37.0838C34.0006 37.1024 33.9975 37.121 33.9933 37.1392C33.9679 37.2444 33.9649 37.3514 33.9619 37.4584L33.9607 37.5015C33.9505 37.8283 33.9501 38.1554 33.9589 38.4822L33.9603 38.5361C33.9635 38.6674 33.9667 38.7987 33.9957 38.9282C34.0038 38.9643 34.0062 39.0026 34.0066 39.0397C34.0072 39.1605 34.027 39.2788 34.0467 39.3971C34.0608 39.4814 34.0748 39.5657 34.082 39.6509C34.1068 39.7581 34.1284 39.8659 34.1501 39.9737L34.1501 39.9738L34.1501 39.9739L34.1501 39.9739L34.1501 39.974C34.1762 40.1039 34.2022 40.2337 34.2338 40.3623C34.3611 40.8802 34.5287 41.3848 34.7415 41.8733C35.0298 42.5346 35.3801 43.1608 35.8047 43.7453C36.0631 44.1009 36.344 44.4378 36.6427 44.7597C36.8272 44.9582 37.0239 45.1444 37.2269 45.3243C37.458 45.529 37.696 45.724 37.9422 45.9098C38.3005 46.1809 38.6792 46.42 39.0727 46.636C39.7796 47.0242 40.5222 47.3236 41.3027 47.5294C41.5643 47.5985 41.8284 47.6567 42.0948 47.7037C42.1253 47.7092 42.156 47.7133 42.1866 47.7173C42.2206 47.7219 42.2547 47.7264 42.2884 47.7328C42.4535 47.7644 42.6198 47.7872 42.7881 47.7956C42.7972 47.7959 42.8066 47.797 42.8158 47.7991C42.949 47.8313 43.0849 47.8345 43.2207 47.8377L43.2614 47.8387C43.384 47.8421 43.5068 47.8443 43.6352 47.8466L43.6361 47.8467L43.8116 47.8499L43.9749 47.8467C44.1158 47.844 44.2631 47.8411 44.4105 47.8373C44.5318 47.8342 44.6531 47.8296 44.7727 47.8033C44.827 47.7914 44.8842 47.7889 44.9399 47.7872C45.0524 47.7836 45.1626 47.7643 45.2728 47.7451C45.3557 47.7306 45.4385 47.7161 45.5224 47.7083C45.6002 47.6909 45.6782 47.6744 45.7562 47.658L45.757 47.6578C45.8977 47.6281 46.0384 47.5984 46.1781 47.5635C46.6953 47.4344 47.1998 47.2672 47.6879 47.0529C48.3482 46.7633 48.9762 46.4148 49.5582 45.9866C49.9881 45.6707 50.3931 45.3264 50.7718 44.9508C50.8718 44.8516 50.9658 44.7467 51.0599 44.6418L51.0599 44.6418L51.06 44.6418L51.06 44.6417L51.0601 44.6416C51.0969 44.6006 51.1337 44.5595 51.1708 44.5188C51.316 44.3597 51.4513 44.1927 51.5825 44.023C51.9202 43.5865 52.2207 43.125 52.4805 42.6377C52.7841 42.0679 53.0331 41.4749 53.2175 40.8553C53.3722 40.3357 53.4686 39.9205 53.5377 39.409C53.5385 39.403 53.5394 39.3971 53.5404 39.3911C53.5413 39.386 53.5422 39.3809 53.5432 39.3759L53.5485 39.3501L53.5486 39.35L53.5486 39.3499C53.5522 39.3329 53.5557 39.3159 53.5583 39.2989L53.5615 39.2785C53.5689 39.2301 53.5764 39.1815 53.5804 39.1326C53.5835 39.094 53.586 39.0554 53.5885 39.0167L53.5885 39.0165L53.5886 39.0164C53.5957 38.9061 53.6028 38.7959 53.6236 38.6866C53.6326 38.6382 53.6334 38.5881 53.6341 38.5383L53.6342 38.5377ZM43.6987 37.4278L43.6987 37.4279C43.6812 37.5091 43.6638 37.5904 43.6526 37.6729C43.8073 37.8882 43.9614 38.0967 44.1085 38.2959L44.109 38.2966L44.1096 38.2975L44.1099 38.2978C44.2593 38.5001 44.4016 38.6928 44.5302 38.8731L44.5334 38.877C44.5542 38.8862 44.5612 38.9057 44.5681 38.9253C44.5754 38.9459 44.5828 38.9665 44.6063 38.9751L44.6318 38.9973C44.6515 39.0142 44.6711 39.0312 44.6901 39.0488C44.7057 39.0633 44.7209 39.0783 44.736 39.0933L44.736 39.0934C44.7607 39.1179 44.7853 39.1423 44.8118 39.1645C44.95 39.2798 45.1039 39.3584 45.2859 39.3878C45.4268 39.4106 45.5625 39.4099 45.7024 39.3829C45.7859 39.3668 45.8658 39.3458 45.9426 39.311C46.1351 39.2241 46.2866 39.087 46.4062 38.9162C46.504 38.7763 46.5633 38.6206 46.5689 38.4467L46.5689 38.4465C46.5724 38.3344 46.5759 38.2226 46.5615 38.1112C46.5569 38.0743 46.5517 38.0368 46.5408 38.0014C46.477 37.7907 46.3651 37.6101 46.1951 37.4691C46.025 37.3282 45.8315 37.2437 45.6057 37.2472C45.5762 37.2475 45.5468 37.2476 45.5174 37.2477C45.4627 37.2478 45.4081 37.2479 45.3535 37.25C45.3167 37.2514 45.2792 37.2577 45.2434 37.2675C45.1253 37.2998 45.0152 37.351 44.9152 37.4214C44.815 37.4919 44.7301 37.5785 44.6705 37.6869C44.6519 37.7202 44.647 37.7581 44.6659 37.7942L44.6696 37.8011C44.6814 37.8235 44.6934 37.8464 44.7084 37.8664C44.7577 37.9319 44.8075 37.9969 44.8574 38.0619L44.8576 38.0622L44.9289 38.1553C44.9444 38.1757 44.9819 38.1708 44.9987 38.1466C45.0149 38.1232 45.0298 38.0988 45.0446 38.0744C45.0733 38.0271 45.102 37.9799 45.1411 37.9397C45.2224 37.8559 45.3157 37.8008 45.4359 37.8005C45.464 37.8001 45.4921 37.7998 45.5201 37.7991C45.6162 37.797 45.7059 37.8226 45.7873 37.871C45.9602 37.9737 46.0597 38.122 46.0576 38.3293L46.0576 38.3302C46.0573 38.3393 46.0569 38.3482 46.0569 38.3573C46.058 38.4541 46.0285 38.5421 45.9763 38.6213C45.9132 38.7167 45.8332 38.7932 45.7182 38.8244C45.706 38.8277 45.6939 38.8317 45.6818 38.8357C45.6672 38.8405 45.6527 38.8453 45.6379 38.8489C45.5639 38.8668 45.4896 38.8664 45.4163 38.8464C45.268 38.8058 45.1463 38.7286 45.0509 38.6035L44.9625 38.4876C44.7597 38.222 44.5569 37.9564 44.3616 37.6855C44.2851 37.5796 44.2052 37.4761 44.1242 37.3738C44.1014 37.3447 44.0677 37.324 44.0302 37.3162C43.9478 37.2991 43.8651 37.2893 43.7806 37.2956C43.7616 37.297 43.7199 37.3268 43.7164 37.344L43.7096 37.3765L43.6987 37.4278ZM44.4331 38.9399L44.4383 38.9603C44.4075 39.0258 44.344 39.0143 44.297 39.0044C44.1287 38.9701 44.0744 39.0641 44.0533 39.204C44.0386 39.2285 44.019 39.2467 43.9892 39.2495C43.9804 39.2503 43.9688 39.2495 43.9625 39.2446C43.9481 39.2331 43.9352 39.219 43.9239 39.2043L43.6789 38.8766C43.5204 38.6645 43.3619 38.4524 43.2027 38.2411C43.1354 38.1517 43.0663 38.063 42.9912 37.9799C42.8871 37.8645 42.756 37.7986 42.5978 37.7926C42.5698 37.7916 42.5417 37.7909 42.514 37.7933C42.3092 37.8126 42.169 37.9203 42.0869 38.1068C42.0842 38.1133 42.0817 38.1199 42.0795 38.1266L42.0741 38.1431L42.0687 38.1598C41.9982 38.3572 42.0515 38.5262 42.1893 38.6745C42.2963 38.7895 42.4337 38.8467 42.5869 38.8568C42.7454 38.8677 42.8794 38.8049 42.9811 38.6822C43.012 38.6449 43.0391 38.6046 43.0662 38.5644L43.0663 38.5643L43.0663 38.5643L43.0663 38.5642C43.0808 38.5429 43.0952 38.5215 43.1101 38.5006C43.1224 38.4837 43.1406 38.4827 43.1599 38.4943L43.1636 38.4963L43.1667 38.4979C43.1727 38.501 43.1789 38.5042 43.1827 38.509C43.1999 38.5298 43.2174 38.5503 43.2349 38.5708L43.2352 38.5711L43.2352 38.5711C43.2964 38.6426 43.3576 38.7141 43.4036 38.7969C43.4169 38.8211 43.4278 38.8474 43.4348 38.874C43.4394 38.8908 43.4373 38.9112 43.4334 38.9287C43.4295 38.9466 43.4215 38.9641 43.412 38.9799C43.3643 39.0613 43.3044 39.1324 43.2283 39.1889C43.1834 39.2222 43.1378 39.2552 43.0894 39.2836C43.0088 39.3309 42.9239 39.3691 42.8289 39.3796C42.8007 39.3828 42.7727 39.388 42.7446 39.3931L42.7445 39.3931L42.7445 39.3931L42.7438 39.3932C42.7282 39.3961 42.7126 39.399 42.6969 39.4015C42.6902 39.4025 42.6836 39.4036 42.677 39.4045C42.6723 39.4051 42.6677 39.4057 42.663 39.4063C42.6262 39.4108 42.588 39.4126 42.5515 39.4084L42.5183 39.4045C42.4366 39.3951 42.3545 39.3856 42.2749 39.3677C42.1553 39.3407 42.0473 39.285 41.9498 39.2103C41.7665 39.0697 41.6413 38.8894 41.5753 38.6668C41.5459 38.5676 41.5224 38.4687 41.5266 38.3645C41.5282 38.3296 41.528 38.2946 41.5278 38.2596L41.5277 38.2246C41.528 38.1005 41.5634 37.9848 41.6153 37.8743C41.6967 37.7022 41.819 37.5626 41.9698 37.4476C42.0445 37.3904 42.128 37.347 42.2156 37.3151C42.3296 37.2737 42.4463 37.239 42.5705 37.2467C42.596 37.2481 42.6218 37.2478 42.6474 37.2474H42.6475H42.6475C42.6591 37.2472 42.6707 37.247 42.6823 37.247C42.8654 37.2467 43.0305 37.3021 43.1813 37.4041C43.2823 37.4725 43.3741 37.551 43.4534 37.644C43.4612 37.6531 43.4686 37.6626 43.476 37.6721C43.4972 37.6995 43.5183 37.7267 43.5488 37.7449C43.6148 37.8151 43.7182 37.9566 43.8147 38.0886L43.8154 38.0896C43.8412 38.1248 43.8664 38.1594 43.8903 38.1917C43.9936 38.3307 44.094 38.4703 44.1961 38.6123L44.1969 38.6134L44.197 38.6135C44.274 38.7207 44.3521 38.8293 44.4331 38.9399ZM51.8534 37.6417C51.8572 37.6975 51.8639 37.7536 51.8754 37.8083C51.9105 37.9745 51.8607 38.1242 51.7822 38.2648C51.7117 38.3918 51.5998 38.4763 51.4641 38.5268C51.4119 38.546 51.3568 38.5604 51.3021 38.5713C51.266 38.5783 51.2271 38.5811 51.191 38.5755C51.0209 38.5496 50.8677 38.4857 50.7481 38.3564L50.7263 38.3329C50.6571 38.2587 50.5879 38.1845 50.5216 38.1077C50.3687 37.9307 50.2043 37.7652 50.0262 37.6133C49.9978 37.5891 49.9697 37.5643 49.9424 37.539C49.6184 37.2403 49.2639 36.9818 48.8929 36.7459C48.4662 36.4745 48.0159 36.249 47.5464 36.0607C47.112 35.8868 46.6656 35.7521 46.2126 35.6392C46.1042 35.6119 45.9945 35.588 45.8847 35.567C45.8037 35.5515 45.7225 35.5368 45.6413 35.5222L45.641 35.5221L45.6408 35.5221L45.6405 35.522C45.5383 35.5035 45.4361 35.4851 45.3342 35.465C45.2982 35.4578 45.2613 35.4547 45.2245 35.4517C45.2054 35.4501 45.1863 35.4485 45.1673 35.4464C45.1495 35.4444 45.1315 35.4426 45.1135 35.4409C45.0663 35.4363 45.0191 35.4317 44.9731 35.4218C44.8812 35.4022 44.7883 35.3966 44.695 35.3913L44.6722 35.39H44.6722C44.5399 35.3824 44.408 35.3749 44.2764 35.3566C44.195 35.3453 44.1121 35.3445 44.0292 35.3438L44.0288 35.3438C43.9993 35.3436 43.9699 35.3433 43.9404 35.3426C43.8951 35.3414 43.8498 35.3417 43.8046 35.342H43.8045L43.7441 35.3422V35.345L43.6348 35.3449C43.5498 35.3446 43.4647 35.3444 43.3798 35.3454L43.3564 35.3456C43.3081 35.346 43.2592 35.3464 43.2122 35.3549C43.0955 35.3762 42.9777 35.382 42.86 35.3878L42.8275 35.3894C42.8152 35.39 42.8029 35.3906 42.7907 35.3913C42.7823 35.3918 42.7739 35.3922 42.7654 35.3927C42.6813 35.3976 42.5975 35.4026 42.5154 35.4236C42.4884 35.4306 42.4604 35.4366 42.4327 35.4376C42.2769 35.4443 42.1245 35.4752 41.9727 35.506C41.9417 35.5122 41.9107 35.5185 41.8797 35.5246C41.5224 35.5944 41.2121 35.6771 40.9561 35.7525C40.3271 35.9376 39.725 36.1887 39.1461 36.4966C38.7162 36.7252 38.3091 36.9903 37.9312 37.2967C37.7064 37.479 37.4858 37.6677 37.2867 37.8788C37.242 37.9262 37.1982 37.9745 37.1545 38.0229L37.1542 38.0233C37.1291 38.051 37.104 38.0788 37.0787 38.1063L37.0213 38.1688C36.9582 38.2375 36.8952 38.306 36.8312 38.3735C36.7789 38.4282 36.7155 38.4679 36.6471 38.4994C36.6215 38.5113 36.5956 38.5226 36.5686 38.5289C36.5142 38.5422 36.4592 38.5538 36.4038 38.5618C36.3768 38.5657 36.348 38.5632 36.3207 38.5594C36.2945 38.5556 36.2686 38.5498 36.2427 38.5439L36.2109 38.5369C36.0356 38.4991 35.9062 38.4005 35.821 38.2438C35.7761 38.1607 35.7439 38.0737 35.7417 37.9777C35.7413 37.9578 35.7407 37.938 35.74 37.9181C35.7385 37.8726 35.737 37.8271 35.7382 37.7817C35.7421 37.6239 35.748 37.4666 35.7539 37.3088L35.754 37.3055C35.7572 37.2217 35.7628 37.1379 35.7828 37.0555C35.7891 37.0285 35.7943 37.0004 35.7961 36.9727C35.8072 36.7879 35.8453 36.6077 35.8834 36.4276C35.8994 36.3522 35.9154 36.2767 35.9293 36.201C35.9324 36.1838 35.9379 36.167 35.9433 36.1502C35.9465 36.1403 35.9497 36.1304 35.9525 36.1203C36.146 35.4152 36.4125 34.7395 36.76 34.0957C36.9872 33.6753 37.2555 33.2826 37.5486 32.906C37.6035 32.8444 37.6574 32.7821 37.7113 32.7197L37.7114 32.7196C37.8407 32.57 37.97 32.4205 38.1121 32.2822C38.3733 32.0276 38.6524 31.7941 38.9445 31.5757C39.3726 31.2555 39.833 30.9894 40.3152 30.7608C40.7124 30.5725 41.1234 30.4192 41.5431 30.2892L41.5854 30.276L41.5854 30.276C41.7318 30.2305 41.878 30.185 42.028 30.1524L42.067 30.1437L42.1205 30.1317C42.2444 30.1036 42.3681 30.0756 42.4947 30.0612C42.5334 30.0568 42.5719 30.05 42.6103 30.0432L42.6104 30.0431L42.6329 30.0391C42.6435 30.0373 42.6541 30.0345 42.6646 30.0318C42.6814 30.0275 42.6982 30.0232 42.7153 30.0223C42.8264 30.0172 42.9369 30.0048 43.0473 29.9923L43.0474 29.9923L43.0474 29.9923C43.1875 29.9765 43.3275 29.9607 43.4688 29.9599C43.6277 29.9588 43.7865 29.9599 43.9453 29.9613L43.9775 29.9613C44.0231 29.9612 44.069 29.961 44.1133 29.9687C44.2195 29.9869 44.3267 29.9937 44.4339 30.0005C44.5225 30.0061 44.611 30.0117 44.6989 30.0237C44.8097 30.0388 44.9205 30.056 45.0309 30.0732C45.1414 30.0903 45.2518 30.111 45.3616 30.1324C45.5355 30.1664 45.7084 30.2085 45.8788 30.2565C46.1393 30.3298 46.3981 30.4087 46.6512 30.5062C46.8522 30.5837 47.0503 30.6657 47.2442 30.758C47.633 30.9424 48.0086 31.15 48.3645 31.3926C48.8529 31.7254 49.2968 32.1097 49.7032 32.5385C50.11 32.9677 50.4589 33.44 50.7615 33.947C51.0984 34.5116 51.3523 35.1119 51.5409 35.7406C51.5925 35.9125 51.6338 36.0871 51.675 36.2617C51.6896 36.3232 51.7041 36.3847 51.7191 36.4461C51.7267 36.5223 51.7403 36.5978 51.7538 36.6733C51.7733 36.7815 51.7927 36.8897 51.7948 37.0004L51.795 37.0094V37.0095C51.7956 37.0346 51.7961 37.0601 51.8015 37.0842C51.8319 37.2241 51.839 37.3662 51.846 37.5083V37.5083C51.8482 37.5528 51.8504 37.5973 51.8534 37.6417ZM50.2544 36.0926C50.2625 36.0765 50.2709 36.059 50.2723 36.0414C50.2737 36.0235 50.2702 36.0039 50.2653 35.9867C50.1457 35.6021 49.9886 35.2335 49.8018 34.8769C49.5184 34.3352 49.1597 33.8478 48.7484 33.3976C48.5146 33.1416 48.2551 32.913 47.9851 32.697C47.6337 32.4161 47.2533 32.1795 46.8532 31.9747C46.5282 31.8085 46.1895 31.677 45.8413 31.5669C45.471 31.4498 45.2469 31.4042 44.8879 31.3474L44.869 31.3447C44.8474 31.3417 44.8258 31.3386 44.8051 31.3327C44.7242 31.3095 44.6413 31.3045 44.5582 31.2995L44.5278 31.2976C44.4971 31.2957 44.4664 31.2945 44.4356 31.2932C44.3633 31.2902 44.2911 31.2873 44.2203 31.2762C44.0838 31.255 43.9474 31.2541 43.7783 31.2531L43.7665 31.2531C43.6679 31.25 43.549 31.2614 43.4254 31.2732L43.3874 31.2769L43.3261 31.2825C43.3079 31.2841 43.2897 31.2857 43.2715 31.2872C43.2491 31.289 43.2267 31.2909 43.2043 31.2927C43.0403 31.3061 42.8766 31.3194 42.7139 31.3481C42.6746 31.3551 42.6354 31.3616 42.5961 31.3681L42.5957 31.3681C42.5433 31.3768 42.4908 31.3854 42.4383 31.3954C42.3468 31.4128 42.2568 31.4348 42.1668 31.4568L42.1108 31.4705C41.7198 31.5651 41.3411 31.6977 40.9747 31.8639C40.3316 32.156 39.7524 32.5462 39.2299 33.0199C38.8267 33.3853 38.4771 33.7984 38.1717 34.2486C37.9248 34.6126 37.7116 34.9955 37.5419 35.4022C37.4662 35.5831 37.3961 35.7662 37.3354 35.9527C37.3238 35.9881 37.3179 36.0246 37.3242 36.0625C37.3284 36.0874 37.341 36.0972 37.3628 36.0884C37.4243 36.0643 37.4769 36.0257 37.5296 35.9871C37.5444 35.9762 37.5592 35.9654 37.5742 35.9548C38.1882 35.5246 38.8386 35.1606 39.5329 34.8752C40.0515 34.662 40.5438 34.5042 41.1315 34.3664C41.1643 34.3586 41.197 34.3505 41.2298 34.3424L41.2298 34.3424L41.2298 34.3424C41.3332 34.3168 41.4365 34.2913 41.5414 34.2766C41.5974 34.2688 41.6529 34.2572 41.7084 34.2456C41.7993 34.2265 41.8901 34.2075 41.9835 34.2051C42.0112 34.2044 42.0393 34.1981 42.0663 34.1907C42.1438 34.1691 42.2234 34.1639 42.3029 34.1588H42.3029C42.3445 34.1561 42.3861 34.1534 42.4274 34.1483C42.467 34.1436 42.5064 34.1375 42.5458 34.1315L42.546 34.1314L42.5461 34.1314C42.6264 34.1191 42.7068 34.1067 42.7886 34.1055C42.8738 34.1043 42.9589 34.1007 43.0439 34.097L43.0978 34.0947L43.1529 34.0926C43.2556 34.0887 43.358 34.082 43.4604 34.0726C43.6841 34.0519 43.9089 34.0522 44.1322 34.0715C44.2441 34.0813 44.3559 34.088 44.4678 34.0929C44.5184 34.0951 44.5691 34.0966 44.6198 34.0981C44.8025 34.1035 44.9851 34.1089 45.1652 34.1476C45.3241 34.1546 45.4812 34.1767 45.6372 34.2065C45.6657 34.212 45.6951 34.2142 45.7244 34.2164C45.7606 34.2191 45.7968 34.2218 45.8314 34.2307C45.8906 34.2459 45.9507 34.2556 46.0108 34.2653C46.0891 34.2779 46.1672 34.2904 46.2427 34.3152C46.5836 34.3748 46.9146 34.4741 47.2445 34.575C47.4858 34.649 47.7218 34.7367 47.9563 34.8296C48.5139 35.0502 49.044 35.324 49.5518 35.6417C49.7418 35.7606 49.929 35.8836 50.1079 36.0193C50.1447 36.0474 50.1822 36.0758 50.2278 36.0891C50.2313 36.0902 50.2362 36.0915 50.2407 36.0924C50.2451 36.0933 50.2492 36.0938 50.2518 36.0936C50.2532 36.0935 50.2541 36.0932 50.2544 36.0926ZM51.5321 39.6528C51.4564 39.5178 51.341 39.4249 51.1958 39.3709C51.1348 39.3481 51.0735 39.3271 51.009 39.3134C50.9921 39.3099 50.9753 39.3063 50.9585 39.3027C50.9409 39.299 50.9233 39.2952 50.9057 39.2914C50.7029 39.2479 50.5002 39.2044 50.2919 39.1942C50.2547 39.1924 50.2176 39.1865 50.1811 39.1788C50.0983 39.1609 50.0145 39.1556 49.9304 39.1549C49.7624 39.1535 49.5941 39.1535 49.4258 39.1546L49.3965 39.1546C49.3499 39.1545 49.3031 39.1543 49.2582 39.1633C49.1659 39.1815 49.0726 39.1917 48.9793 39.202L48.9792 39.202C48.8686 39.2142 48.7579 39.2264 48.6488 39.2517C48.6081 39.2611 48.5667 39.2705 48.5249 39.2799C48.3562 39.3182 48.1811 39.3578 48.0243 39.4056C47.6119 39.5311 47.2192 39.703 46.843 39.913C46.532 40.0866 46.2402 40.2885 45.9709 40.5207C45.6592 40.7892 45.3706 41.0824 45.1248 41.4144C44.9471 41.655 44.7833 41.9043 44.6427 42.169C44.467 42.5 44.3268 42.8454 44.2205 43.2045C44.1409 43.4731 44.0754 43.7448 44.0435 44.0239C44.0411 44.0446 44.0373 44.065 44.0334 44.0854C44.0303 44.1017 44.0272 44.1179 44.0249 44.1344C44.0235 44.144 44.0221 44.1536 44.0206 44.1632C44.0197 44.1695 44.0187 44.1759 44.0177 44.1822C44.0103 44.2309 44.0028 44.2798 44.0007 44.3286C43.9946 44.4567 43.9907 44.5849 43.9872 44.7017L43.9832 44.8304C43.985 44.8867 43.987 44.9404 43.989 44.9922C43.9935 45.1141 43.9977 45.2255 43.9989 45.3367C44 45.4412 44.0242 45.5404 44.0564 45.6379C44.1059 45.7866 44.1999 45.8988 44.3398 45.9703C44.432 46.0177 44.5284 46.0496 44.6346 46.0482L44.6467 46.048H44.6468C44.7735 46.0467 44.9002 46.0454 45.0242 46.0131C45.0512 46.0061 45.0789 46.0008 45.107 45.998C45.2986 45.9773 45.4857 45.9342 45.6727 45.8911L45.7111 45.8823C46.1585 45.7799 46.5898 45.6305 47.0067 45.4398C47.236 45.335 47.4615 45.2224 47.6838 45.1032C48.2543 44.7971 48.7782 44.4236 49.2603 43.9924C49.5741 43.7118 49.8617 43.4047 50.1215 43.073C50.4388 42.6676 50.7169 42.2367 50.9529 41.7788C51.0857 41.521 51.2036 41.257 51.3105 40.9881C51.4178 40.7195 51.5097 40.4449 51.5889 40.1665L51.5937 40.15C51.6 40.1286 51.6063 40.1072 51.61 40.0852C51.6355 39.9319 51.6075 39.7868 51.5321 39.6528ZM50.0868 40.5655C49.9854 40.8268 49.8736 41.0831 49.7347 41.3271C49.531 41.6848 49.3003 42.0232 49.0359 42.3394C48.7655 42.6627 48.4714 42.9604 48.1467 43.2294C47.9955 43.3545 47.8409 43.4745 47.6814 43.5884C47.3307 43.8388 46.9576 44.0495 46.566 44.228C46.1827 44.4023 45.7858 44.5369 45.3731 44.6225C45.3559 44.626 45.3328 44.6249 45.3195 44.6158C45.3091 44.609 45.3036 44.5944 45.2984 44.5804C45.2969 44.5764 45.2954 44.5725 45.2938 44.5688C45.2903 44.5604 45.29 44.5506 45.2903 44.5411C45.2908 44.5247 45.2907 44.5083 45.2907 44.4919C45.2907 44.452 45.2907 44.4122 45.2967 44.3735C45.303 44.333 45.3091 44.2924 45.3152 44.2519L45.3153 44.2518C45.3438 44.062 45.3724 43.8722 45.4267 43.6873C45.4979 43.4454 45.5793 43.2076 45.6883 42.9797C45.8342 42.6753 46.005 42.3864 46.2185 42.1255C46.3721 41.9379 46.5344 41.7584 46.7161 41.5954C46.9114 41.4201 47.1189 41.263 47.3391 41.1213C47.6389 40.9285 47.9612 40.7822 48.2992 40.67C48.5033 40.6024 48.7119 40.5536 48.9223 40.5122C48.9604 40.5046 48.9995 40.5009 49.0384 40.4972L49.0385 40.4972L49.0611 40.4951C49.0835 40.4929 49.106 40.4916 49.1286 40.4903C49.1715 40.4878 49.2145 40.4853 49.2561 40.4768C49.3946 40.4484 49.5342 40.4481 49.7207 40.4477C49.728 40.448 49.7385 40.4481 49.7512 40.4483C49.7878 40.4489 49.8433 40.4497 49.8985 40.4544C49.9371 40.4576 49.9753 40.4673 50.0134 40.477L50.0349 40.4824C50.0762 40.4919 50.1001 40.5315 50.0868 40.5655ZM43.549 43.9693C43.5508 43.9995 43.5526 44.0298 43.5589 44.059C43.5984 44.2368 43.6011 44.4169 43.6038 44.5869C43.6051 44.6723 43.6064 44.7551 43.6122 44.8339C43.6104 44.897 43.6089 44.9571 43.6073 45.015C43.6037 45.1516 43.6004 45.2762 43.5957 45.4009C43.5912 45.5148 43.5547 45.6207 43.5063 45.7224C43.4611 45.8174 43.3938 45.8939 43.3015 45.9461C43.2528 45.9735 43.2023 45.9987 43.1508 46.0194C43.1168 46.0331 43.0792 46.0415 43.0424 46.0453C42.9211 46.0583 42.7987 46.0562 42.6792 46.0359C42.6329 46.0281 42.5866 46.0206 42.5403 46.0131C42.3749 45.9864 42.2093 45.9596 42.0463 45.9212C41.865 45.8784 41.6833 45.835 41.5049 45.7799C41.2994 45.7164 41.096 45.6495 40.8961 45.5706C40.6616 45.478 40.4291 45.3809 40.204 45.2673C39.7611 45.0436 39.3389 44.7869 38.9438 44.4871C38.6314 44.2497 38.333 43.9951 38.0581 43.7143C37.7965 43.4471 37.5542 43.1634 37.3294 42.8643C37.003 42.4299 36.7274 41.9649 36.4942 41.4744C36.3133 41.0939 36.1723 40.6988 36.0496 40.2969C36.025 40.2166 36.0068 40.1342 35.9914 40.0518C35.9777 39.9778 35.9802 39.9028 36.0019 39.8299C36.0124 39.7941 36.0236 39.7583 36.0356 39.7229C36.0415 39.7054 36.0482 39.6875 36.0576 39.6717C36.1313 39.5487 36.2309 39.4512 36.3613 39.3905C36.4202 39.3632 36.4833 39.3379 36.5468 39.3292C36.601 39.3217 36.6544 39.3094 36.7076 39.2972C36.7818 39.2801 36.8558 39.2631 36.9321 39.259C36.9865 39.256 37.0396 39.2448 37.0927 39.2337C37.1492 39.2219 37.2057 39.21 37.2639 39.2078C37.2837 39.2071 37.3036 39.2065 37.3236 39.2059C37.4066 39.2034 37.4899 39.2009 37.5714 39.1879C37.7572 39.1584 37.9434 39.1591 38.1303 39.1609C38.1365 39.1609 38.1427 39.1609 38.149 39.1609C38.1895 39.1611 38.2303 39.1612 38.2698 39.1682C38.385 39.1889 38.5012 39.1953 38.6175 39.2017C38.641 39.203 38.6646 39.2043 38.6882 39.2057C38.7427 39.2091 38.7963 39.219 38.8497 39.2289C38.8787 39.2343 38.9077 39.2396 38.9368 39.244C39.1219 39.272 39.3025 39.3172 39.4827 39.3653C39.9277 39.4834 40.3463 39.663 40.7429 39.8961C41.0336 40.0669 41.3043 40.264 41.5613 40.4824C41.7398 40.6342 41.9098 40.7931 42.0704 40.9628C42.3538 41.2619 42.6122 41.581 42.8254 41.9341C43.102 42.392 43.317 42.8769 43.4404 43.3994C43.467 43.4734 43.48 43.5504 43.4929 43.6274C43.5032 43.6884 43.5135 43.7495 43.5305 43.809C43.5381 43.8355 43.5404 43.8636 43.5427 43.8917C43.5435 43.9011 43.5443 43.9104 43.5452 43.9198C43.547 43.9362 43.548 43.9527 43.549 43.9693ZM42.2935 44.5947C42.2994 44.5681 42.3057 44.5407 42.3071 44.5134C42.3111 44.4325 42.2978 44.3535 42.2845 44.275C42.2777 44.2344 42.2709 44.1939 42.2665 44.1533C42.2458 43.9573 42.1981 43.7676 42.1406 43.5803C41.934 42.9082 41.5925 42.3152 41.0974 41.8131C41.0189 41.7332 40.9382 41.6553 40.8565 41.5785C40.5897 41.3268 40.2881 41.123 39.9645 40.9533C39.5991 40.7615 39.2134 40.6237 38.807 40.5455C38.7813 40.5406 38.7556 40.5348 38.73 40.529C38.6827 40.5183 38.6355 40.5076 38.5875 40.5024C38.5329 40.4965 38.4782 40.4921 38.4234 40.4876C38.3294 40.48 38.2354 40.4725 38.1419 40.4572C38.0974 40.4501 38.0516 40.451 38.0315 40.4515C38.0268 40.4516 38.0235 40.4516 38.0219 40.4516C37.9887 40.4516 37.9627 40.4514 37.9411 40.4513C37.9075 40.4511 37.8847 40.4509 37.862 40.4516C37.7498 40.4547 37.6397 40.4715 37.5321 40.5031C37.5104 40.5098 37.5033 40.5252 37.5068 40.5476C37.5216 40.6378 37.5585 40.7198 37.5953 40.8016C37.6004 40.813 37.6056 40.8244 37.6106 40.8359C37.8119 41.2903 38.0654 41.7142 38.3659 42.1097C38.4676 42.2437 38.5742 42.3741 38.6864 42.499C39.0434 42.8955 39.4333 43.2567 39.8684 43.5677C40.1731 43.7851 40.4926 43.9783 40.8285 44.1428C41.1644 44.3072 41.5126 44.4412 41.8727 44.5435C41.9615 44.5689 42.0511 44.5897 42.1407 44.6106C42.1689 44.6172 42.1972 44.6238 42.2254 44.6305C42.2338 44.6326 42.2437 44.6273 42.2528 44.627C42.2738 44.6259 42.2889 44.6161 42.2935 44.5947Z" fill="#598CFF"/>
</svg>
