<svg width="23" height="22" viewBox="0 0 23 22" fill="none" xmlns="http://www.w3.org/2000/svg">
<circle cx="11.6086" cy="11.1262" r="10.8743" fill="#3E7BFA"/>
<path d="M11.3639 16.3004V15.0573C10.8155 15.0449 10.3248 14.9934 9.8919 14.9027C9.46309 14.8078 9.07138 14.6821 8.71679 14.5254V12.8926C9.06726 13.0617 9.48576 13.2163 9.9723 13.3565C10.4588 13.4925 10.9227 13.575 11.3639 13.6039V11.6866C10.7124 11.431 10.1908 11.1836 9.79913 10.9444C9.41155 10.7011 9.13117 10.4331 8.95799 10.1404C8.78894 9.84352 8.70442 9.48893 8.70442 9.07661C8.70442 8.65604 8.81574 8.2932 9.0384 7.98808C9.26517 7.67884 9.57854 7.43145 9.97849 7.24591C10.3784 7.06036 10.8402 6.94491 11.3639 6.89956V5.95329H12.2112V6.87482C12.6895 6.89131 13.1348 6.94698 13.5471 7.04181C13.9636 7.13252 14.3717 7.26652 14.7717 7.44382L14.1903 8.89106C13.8522 8.75087 13.5121 8.64161 13.1698 8.56327C12.8317 8.48493 12.5122 8.43339 12.2112 8.40865V10.2332C12.6689 10.4022 13.1039 10.5857 13.5162 10.7836C13.9285 10.9815 14.2645 11.233 14.5243 11.5382C14.7841 11.8433 14.9139 12.2432 14.9139 12.738C14.9139 13.3524 14.6892 13.8678 14.2398 14.2842C13.7945 14.7006 13.1183 14.9501 12.2112 15.0326V16.3004H11.3639ZM12.2112 13.5606C12.4998 13.5111 12.7122 13.4266 12.8482 13.307C12.9843 13.1833 13.0523 13.0246 13.0523 12.8308C13.0523 12.7153 13.0214 12.6122 12.9596 12.5215C12.8977 12.4308 12.8029 12.3463 12.6751 12.268C12.5514 12.1855 12.3967 12.103 12.2112 12.0206V13.5606ZM11.3639 9.88681V8.43339C11.1948 8.45813 11.0505 8.49936 10.9309 8.55708C10.8114 8.61068 10.7207 8.68078 10.6588 8.76737C10.597 8.85395 10.566 8.95703 10.566 9.07661C10.566 9.19618 10.5928 9.30132 10.6464 9.39203C10.7042 9.48274 10.7908 9.56727 10.9062 9.64561C11.0258 9.72395 11.1783 9.80435 11.3639 9.88681Z" fill="white"/>
</svg>
