<svg width="80" height="67" viewBox="0 0 80 67" fill="none" xmlns="http://www.w3.org/2000/svg">
<ellipse cx="46.2542" cy="26.2737" rx="1.00374" ry="1.00856" fill="#598CFF"/>
<rect x="22.9366" y="13.1881" width="25.0145" height="45.1979" rx="4.01162" fill="#F8F8F8" stroke="#598CFF" stroke-width="2.02323"/>
<ellipse cx="35.2805" cy="52.5985" rx="2.27561" ry="2.28597" fill="#598CFF"/>
<g clip-path="url(#clip0_1576_14152)">
<path d="M39.9503 32.7622H39.1086C38.2794 32.7925 37.5403 33.322 37.0938 33.9919C36.9829 34.1116 37.048 34.2711 37.1396 34.3784C37.4169 34.7567 37.7136 35.1198 37.9702 35.5132C38.1366 35.0868 38.3501 34.6315 38.7855 34.4183C39.5384 34.0868 40.5451 34.399 40.8959 35.1597C41.2648 35.8777 40.9167 36.8515 40.1707 37.172C39.5218 37.4265 38.7148 37.2449 38.2877 36.6824C37.3268 35.4719 36.431 34.212 35.4936 32.9823C35.1511 32.9259 34.8086 32.864 34.4648 32.8103C34.3968 33.1694 34.3247 33.5284 34.2526 33.886C35.0846 35.0538 35.9346 36.2092 36.7888 37.3605C37.3711 38.1459 38.2184 38.8446 39.2569 38.8144H39.5357C41.0831 38.8171 42.4711 37.4636 42.4975 35.93C42.6209 34.4431 41.5088 32.8695 39.9503 32.7622Z" fill="#598CFF"/>
<path d="M31.7726 32.7622H31.1347C29.9683 32.8255 28.9361 33.6826 28.5445 34.757C28.1391 35.9965 28.503 37.5111 29.5947 38.2898C30.0236 38.6213 30.5536 38.7878 31.0919 38.8153H31.6149C32.5447 38.8071 33.4206 38.2086 33.8454 37.4107C33.6462 36.9086 33.1798 36.5275 32.9086 36.0501C32.7495 36.4353 32.5641 36.8412 32.196 37.0709C31.3907 37.573 30.1703 37.1163 29.906 36.2056C29.6639 35.4765 30.0721 34.5919 30.8137 34.3443C31.4821 34.0829 32.2611 34.4089 32.6651 34.9688C33.5922 36.1657 34.5027 37.3763 35.3924 38.6021C35.4671 38.2843 35.5307 37.9637 35.5861 37.6418C35.9375 37.6446 36.2876 37.657 36.6377 37.668C35.9749 36.7517 35.301 35.8438 34.6327 34.9317C33.9312 33.9646 33.1079 32.7787 31.7726 32.7622Z" fill="#598CFF"/>
</g>
<circle cx="48.9589" cy="19.8725" r="11.2543" fill="#F8F8F8" stroke="#598CFF" stroke-width="1.98543"/>
<path d="M50.2042 16.4184C50.2042 17.1091 50.2042 17.8011 50.2029 18.4918C50.2029 18.5349 50.2203 18.5416 50.2565 18.5416C50.5969 18.5403 50.936 18.5403 51.2764 18.5416C51.5056 18.5416 51.7053 18.6251 51.8796 18.7705C52.1061 18.959 52.2374 19.2054 52.3151 19.4854C52.3768 19.7089 52.3862 19.9365 52.358 20.164C52.3312 20.3848 52.2508 20.5895 52.1422 20.7834C51.9425 21.1455 51.7455 21.5104 51.5485 21.8739C51.3233 22.2886 51.0982 22.7033 50.873 23.1193C50.6787 23.4788 50.4843 23.8383 50.2886 24.1978C50.0527 24.6313 49.8169 25.0662 49.581 25.4998C49.467 25.7098 49.3571 25.9212 49.2352 26.1258C49.1145 26.3291 48.943 26.4813 48.7232 26.5728C48.6441 26.6065 48.561 26.6334 48.4725 26.628C48.423 26.6253 48.372 26.6253 48.3224 26.628C48.1536 26.6361 48.0048 26.5755 47.8667 26.4907C47.588 26.3184 47.4204 26.0612 47.3266 25.7515C47.2743 25.5792 47.2542 25.4015 47.2542 25.2211C47.2556 23.8976 47.2542 22.5741 47.2556 21.2506C47.2556 21.2007 47.2408 21.1886 47.1926 21.19C46.8588 21.1913 46.5265 21.19 46.1927 21.1913C45.9461 21.1913 45.7343 21.0998 45.5521 20.9382C45.343 20.747 45.217 20.5074 45.1446 20.234C45.0722 19.9621 45.0736 19.6901 45.1299 19.4181C45.1728 19.2175 45.2693 19.0371 45.3671 18.8594C45.5668 18.4972 45.7625 18.1323 45.9609 17.7688C46.1699 17.3837 46.3804 16.9973 46.5881 16.6123C46.7744 16.2676 46.9607 15.9229 47.147 15.5782C47.4244 15.0666 47.7019 14.555 47.9807 14.0434C48.0705 13.8791 48.1562 13.7135 48.2581 13.556C48.3921 13.3486 48.5825 13.2059 48.817 13.1305C48.8653 13.1143 48.9175 13.1103 48.9685 13.1063C49.0167 13.1022 49.0663 13.1076 49.1145 13.1049C49.3062 13.0928 49.4751 13.1601 49.6292 13.2638C49.8879 13.4375 50.0447 13.6852 50.1345 13.9828C50.1948 14.1847 50.2096 14.3907 50.2096 14.5981C50.2096 15.2053 50.2096 15.8125 50.2096 16.4197C50.2082 16.4184 50.2055 16.4184 50.2042 16.4184ZM49.4282 16.6446H49.4268C49.4268 15.9485 49.4282 15.2524 49.4255 14.5563C49.4255 14.4365 49.4094 14.3153 49.3839 14.1982C49.3585 14.0824 49.2968 13.9814 49.1936 13.9128C49.1159 13.8616 49.0449 13.8602 48.9738 13.9208C48.9323 13.9558 48.8947 13.9989 48.8679 14.046C48.7125 14.3261 48.5597 14.6075 48.4069 14.8889C48.1844 15.2982 47.9632 15.7075 47.7408 16.1154C47.4995 16.5611 47.2569 17.0067 47.0157 17.4524C46.8521 17.754 46.6886 18.0569 46.5251 18.3585C46.3737 18.6386 46.2195 18.9186 46.0694 19.1987C45.9984 19.3306 45.9139 19.4558 45.8871 19.608C45.8496 19.8288 45.867 20.0415 45.9823 20.2381C46.0453 20.3471 46.1324 20.4104 46.2705 20.4077C46.6859 20.401 47.1001 20.405 47.5156 20.405C47.6201 20.405 47.722 20.4198 47.8104 20.4818C47.9552 20.5814 48.0329 20.716 48.0329 20.8965C48.0329 22.3075 48.0329 23.7185 48.0329 25.1295C48.0329 25.2682 48.0383 25.4082 48.0825 25.5415C48.1174 25.6479 48.1683 25.7448 48.2648 25.8094C48.3519 25.8687 48.439 25.8646 48.5128 25.7879C48.5556 25.7435 48.5918 25.6923 48.6213 25.6384C48.758 25.3907 48.8921 25.1403 49.0274 24.8912C49.2419 24.4953 49.459 24.1009 49.6734 23.705C49.8705 23.3415 50.0675 22.978 50.2645 22.6144C50.487 22.2038 50.7108 21.7932 50.9333 21.3825C51.1143 21.0486 51.2952 20.7134 51.4761 20.3794C51.6343 20.0873 51.641 19.7924 51.4869 19.4976C51.4279 19.3831 51.3408 19.3145 51.196 19.3158C50.7778 19.3225 50.3597 19.3185 49.9402 19.3185C49.841 19.3185 49.7445 19.3023 49.6587 19.2471C49.4938 19.1421 49.4268 18.9886 49.4268 18.7961C49.4295 18.0812 49.4282 17.3635 49.4282 16.6446Z" fill="#598CFF" stroke="#598CFF" stroke-width="0.397085"/>
<rect x="31.4346" y="16.5024" width="6.80937" height="1.5802" rx="0.790101" fill="#598CFF"/>
<defs>
<clipPath id="clip0_1576_14152">
<rect width="14.1239" height="7.33709" fill="white" transform="matrix(-1 0 0 1 42.5068 32.1196)"/>
</clipPath>
</defs>
</svg>
