<svg width="41" height="40" viewBox="0 0 41 40" fill="none" xmlns="http://www.w3.org/2000/svg">
<path d="M20.4929 28.5338C15.5633 28.527 11.5554 24.5098 11.5512 19.5717C11.5469 14.6209 15.5828 10.5747 20.5073 10.5926C25.4573 10.6113 29.4541 14.6302 29.4516 19.587C29.4499 24.5098 25.4131 28.5406 20.4929 28.5338ZM28.473 19.5827C28.5248 15.2121 24.9748 11.6358 20.5277 11.5797C16.2013 11.5253 12.5858 15.0762 12.5332 19.4315C12.4796 23.8803 15.9804 27.4949 20.3926 27.5458C24.8431 27.5977 28.4195 24.0731 28.473 19.5827Z" fill="#2727C2" stroke="#2727C2" stroke-width="0.796316"/>
<path d="M19.9355 6.29815C19.9355 5.98044 19.927 5.66188 19.9372 5.34417C19.9483 5.01117 20.1547 4.79455 20.4342 4.79965C20.7034 4.80475 20.909 5.01202 20.9141 5.32888C20.9252 5.98554 20.926 6.64304 20.9133 7.30054C20.9073 7.61146 20.6865 7.81873 20.4189 7.81364C20.1504 7.80854 19.9499 7.60041 19.9389 7.2844C19.9262 6.95565 19.9355 6.6269 19.9355 6.29815Z" fill="#2727C2" stroke="#2727C2" stroke-width="0.796316"/>
<path d="M7.19564 19.0703C7.51335 19.0703 7.83021 19.0627 8.14791 19.072C8.48431 19.0822 8.70008 19.2802 8.70178 19.5605C8.70348 19.8408 8.48771 20.0489 8.15301 20.054C7.51844 20.0634 6.88387 20.0634 6.24931 20.0549C5.91376 20.0506 5.69629 19.8459 5.69459 19.5664C5.69289 19.2869 5.90951 19.0831 6.24336 19.0729C6.56022 19.0627 6.87793 19.0703 7.19564 19.0703Z" fill="#2727C2" stroke="#2727C2" stroke-width="0.796316"/>
<path d="M33.6651 19.0703C33.9828 19.0703 34.2997 19.0618 34.6174 19.0728C34.9487 19.0839 35.1653 19.2928 35.1585 19.5732C35.1526 19.8433 34.9461 20.0472 34.6293 20.0523C33.9845 20.0633 33.3389 20.0625 32.6941 20.0531C32.3628 20.048 32.1462 19.8331 32.1522 19.5528C32.1581 19.2733 32.3747 19.0805 32.7137 19.0711C33.0305 19.0626 33.3474 19.0694 33.6651 19.0703Z" fill="#2727C2" stroke="#2727C2" stroke-width="0.796316"/>
<path d="M19.9349 32.8245C19.9349 32.5068 19.9281 32.1882 19.9366 31.8705C19.946 31.5333 20.1422 31.3158 20.4217 31.3133C20.7012 31.3099 20.911 31.5265 20.9161 31.8612C20.9254 32.4975 20.9254 33.1337 20.917 33.7691C20.9127 34.1072 20.7114 34.3239 20.4319 34.3273C20.1524 34.3307 19.9477 34.1132 19.9375 33.7793C19.9273 33.4608 19.9349 33.1422 19.9349 32.8245Z" fill="#2727C2" stroke="#2727C2" stroke-width="0.796316"/>
<path d="M8.00332 11.8887C8.18681 11.9583 8.2913 11.9838 8.38135 12.0348C8.94201 12.3533 9.50352 12.6728 10.0574 13.0024C10.3267 13.1629 10.404 13.4407 10.2723 13.6802C10.1355 13.9291 9.84926 13.9988 9.55789 13.8349C8.99553 13.518 8.43826 13.1926 7.88185 12.8664C7.67032 12.7424 7.53016 12.547 7.63379 12.3126C7.70855 12.1435 7.88439 12.0195 8.00332 11.8887Z" fill="#2727C2" stroke="#2727C2" stroke-width="0.796316"/>
<path d="M8.00101 27.2127C7.90077 27.1184 7.69689 27.0156 7.66036 26.8695C7.62043 26.7098 7.67565 26.4193 7.79203 26.3437C8.40196 25.9453 9.03823 25.586 9.67875 25.2377C9.90046 25.117 10.123 25.2079 10.2555 25.4229C10.3864 25.6344 10.3881 25.8926 10.1782 26.0251C9.54368 26.4236 8.88532 26.7846 8.23461 27.1575C8.19044 27.183 8.13183 27.183 8.00101 27.2127Z" fill="#2727C2" stroke="#2727C2" stroke-width="0.796316"/>
<path d="M14.8596 30.0983C14.778 30.2895 14.7381 30.411 14.6769 30.5197C14.3847 31.0353 14.0882 31.5493 13.7892 32.0615C13.5947 32.3945 13.3195 32.4981 13.0587 32.3444C12.8004 32.1923 12.7562 31.9035 12.9482 31.5671C13.2583 31.0243 13.5709 30.484 13.8844 29.9429C14.0203 29.7084 14.2403 29.6056 14.4748 29.7135C14.6328 29.7874 14.739 29.9726 14.8596 30.0983Z" fill="#2727C2" stroke="#2727C2" stroke-width="0.796316"/>
<path d="M14.8235 9.05818C14.7403 9.15077 14.64 9.35975 14.4956 9.39713C14.3351 9.43875 14.0411 9.38438 13.9655 9.26715C13.5646 8.64533 13.2035 7.99717 12.8535 7.34476C12.7397 7.13324 12.8468 6.92511 13.0438 6.79514C13.2435 6.66347 13.4992 6.65498 13.6189 6.84781C14.0335 7.50956 14.4064 8.19765 14.7938 8.87724C14.8082 8.90272 14.8048 8.93925 14.8235 9.05818Z" fill="#2727C2" stroke="#2727C2" stroke-width="0.796316"/>
<path d="M27.4698 6.71359C27.8792 6.7034 28.1519 7.06273 27.9905 7.37279C27.6524 8.01926 27.2837 8.65213 26.8981 9.2714C26.7587 9.49482 26.4988 9.50926 26.2745 9.36994C26.0605 9.23742 25.9696 9.01486 26.091 8.79229C26.4402 8.15093 26.808 7.51976 27.1877 6.89623C27.248 6.79344 27.4069 6.75182 27.4698 6.71359Z" fill="#2727C2" stroke="#2727C2" stroke-width="0.796316"/>
<path d="M32.8153 11.877C32.9495 12.0061 33.1253 12.114 33.2077 12.2711C33.3267 12.4971 33.2196 12.7137 33.0081 12.8428C32.5842 13.1019 32.1501 13.3449 31.7194 13.5938C31.5453 13.694 31.3762 13.807 31.1928 13.886C30.9464 13.9922 30.7255 13.9242 30.5913 13.6906C30.4596 13.4613 30.4817 13.209 30.7085 13.0688C31.3193 12.6899 31.9488 12.3408 32.5723 11.984C32.625 11.9534 32.6938 11.95 32.755 11.9339C32.7754 11.9143 32.7957 11.8956 32.8153 11.877Z" fill="#2727C2" stroke="#2727C2" stroke-width="0.796316"/>
<path d="M33.248 26.6197C33.2599 27.0309 32.9006 27.3053 32.5922 27.143C31.9466 26.8041 31.3163 26.4354 30.6979 26.0489C30.4745 25.9096 30.46 25.6505 30.5985 25.4237C30.731 25.2071 30.9536 25.1179 31.1744 25.2385C31.815 25.5868 32.4444 25.9563 33.0663 26.3369C33.1682 26.398 33.2098 26.5569 33.248 26.6197Z" fill="#2727C2" stroke="#2727C2" stroke-width="0.796316"/>
<path d="M28.0626 32.0148C27.9657 32.1176 27.8621 32.3215 27.7168 32.3572C27.5571 32.3963 27.2683 32.3402 27.1927 32.223C26.796 31.6113 26.4375 30.9734 26.09 30.332C25.9694 30.1094 26.062 29.8869 26.2778 29.7561C26.5038 29.6184 26.762 29.6337 26.9013 29.858C27.2861 30.4781 27.637 31.1186 27.998 31.754C28.0269 31.8059 28.0286 31.8755 28.0626 32.0148Z" fill="#2727C2" stroke="#2727C2" stroke-width="0.796316"/>
</svg>
