<svg width="44" height="41" viewBox="0 0 44 41" fill="none" xmlns="http://www.w3.org/2000/svg">
<g clip-path="url(#clip0_453_46613)">
<path d="M20.7821 0.850342C12.2896 0.850342 5.37854 7.49385 5.37854 15.6603C5.37854 27.2394 19.3153 39.9715 19.9092 40.5081C20.1556 40.7297 20.4688 40.8413 20.7821 40.8413C21.0953 40.8413 21.4085 40.7297 21.6549 40.5081C22.2488 39.9715 36.1856 27.2394 36.1856 15.6603C36.1856 7.49385 29.2745 0.850342 20.7821 0.850342ZM24.2735 25.6631C24.2735 26.6795 23.4178 27.5127 22.3566 27.5127H19.2075C18.2833 27.5127 17.2906 26.8462 17.2906 25.3632V24.4634H24.2735V25.6631ZM25.6598 20.7309C24.941 21.2974 24.4789 22.0306 24.3249 22.7971H17.2564C17.1366 22.0472 16.7087 21.3474 16.007 20.8142C14.1072 19.3645 13.029 17.1817 13.0803 14.8155C13.1659 10.8498 16.5718 7.56716 20.6622 7.51717C22.7332 7.46719 24.7185 8.25034 26.2075 9.68335C27.6794 11.083 28.4838 12.9659 28.4838 14.9655C28.4838 17.215 27.4586 19.3145 25.6598 20.7309Z" fill="#22348F"/>
</g>
<defs>
<clipPath id="clip0_453_46613">
<rect width="42.3231" height="39.991" fill="white" transform="translate(0.767334 0.850342)"/>
</clipPath>
</defs>
</svg>
