<svg width="49" height="23" viewBox="0 0 49 23" fill="none" xmlns="http://www.w3.org/2000/svg">
<g clip-path="url(#clip0_1050_10612)">
<path d="M18.8141 14.8093C18.4063 14.8093 18.0076 14.9303 17.6684 15.1569C17.3293 15.3835 17.065 15.7055 16.9089 16.0823C16.7528 16.4592 16.712 16.8738 16.7916 17.2738C16.8711 17.6738 17.0675 18.0413 17.3559 18.3297C17.6443 18.6181 18.0118 18.8145 18.4118 18.894C18.8118 18.9736 19.2265 18.9328 19.6033 18.7767C19.9801 18.6206 20.3021 18.3563 20.5287 18.0172C20.7553 17.6781 20.8763 17.2794 20.8763 16.8715C20.8757 16.3248 20.6582 15.8006 20.2716 15.414C19.885 15.0274 19.3608 14.81 18.8141 14.8093V14.8093ZM18.8141 17.9026C18.6102 17.9026 18.4108 17.8421 18.2413 17.7288C18.0717 17.6155 17.9396 17.4545 17.8615 17.2661C17.7835 17.0777 17.7631 16.8704 17.8028 16.6703C17.8426 16.4703 17.9408 16.2866 18.085 16.1424C18.2292 15.9982 18.413 15.9 18.613 15.8602C18.813 15.8204 19.0203 15.8409 19.2087 15.9189C19.3971 15.9969 19.5581 16.1291 19.6714 16.2987C19.7847 16.4682 19.8452 16.6676 19.8452 16.8715C19.8452 17.145 19.7366 17.4072 19.5432 17.6006C19.3498 17.7939 19.0876 17.9026 18.8141 17.9026V17.9026Z" fill="#232323"/>
<path d="M35.7415 9.71127L34.5196 7.8784C34.4256 7.73699 34.298 7.62106 34.1483 7.54093C33.9986 7.46079 33.8314 7.41896 33.6616 7.41914H15.2031C14.9297 7.41946 14.6676 7.52821 14.4743 7.72154C14.2809 7.91487 14.1722 8.17699 14.1719 8.4504V14.9817H17.0622C17.5379 14.5398 18.1632 14.2942 18.8125 14.2942C19.4618 14.2942 20.0871 14.5398 20.5628 14.9817H29.4372C29.9129 14.5398 30.5382 14.2942 31.1875 14.2942C31.8368 14.2942 32.4621 14.5398 32.9378 14.9817H35.8281V9.99727C35.8281 9.89548 35.798 9.79596 35.7415 9.71127V9.71127ZM22.5938 10.8567C22.5938 10.9934 22.5394 11.1246 22.4427 11.2213C22.346 11.318 22.2149 11.3723 22.0781 11.3723H16.75C16.6132 11.3723 16.4821 11.318 16.3854 11.2213C16.2887 11.1246 16.2344 10.9934 16.2344 10.8567V8.70821C16.2344 8.57146 16.2887 8.44031 16.3854 8.34361C16.4821 8.24691 16.6132 8.19258 16.75 8.19258H22.0781C22.2149 8.19258 22.346 8.24691 22.4427 8.34361C22.5394 8.44031 22.5938 8.57146 22.5938 8.70821V10.8567ZM30.1563 10.8567C30.1563 10.9934 30.1019 11.1246 30.0052 11.2213C29.9085 11.318 29.7774 11.3723 29.6406 11.3723H24.1406C24.0039 11.3723 23.8727 11.318 23.776 11.2213C23.6793 11.1246 23.625 10.9934 23.625 10.8567V8.70821C23.625 8.57146 23.6793 8.44031 23.776 8.34361C23.8727 8.24691 24.0039 8.19258 24.1406 8.19258H29.6406C29.7774 8.19258 29.9085 8.24691 30.0052 8.34361C30.1019 8.44031 30.1563 8.57146 30.1563 8.70821V10.8567ZM34.9688 13.2328C34.9149 13.2519 33.0781 13.2629 33.0781 13.2629C32.9414 13.2629 32.8102 13.2086 32.7135 13.1119C32.6168 13.0152 32.5625 12.884 32.5625 12.7473V8.70821C32.5625 8.57146 32.6168 8.44031 32.7135 8.34361C32.8102 8.24691 32.9414 8.19258 33.0781 8.19258H33.6978L34.8821 9.71127C34.9386 9.79596 34.9688 9.89548 34.9688 9.99727V13.2328Z" fill="#232323"/>
<path d="M33.7637 16.87C33.7641 17.2894 33.6615 17.7025 33.4648 18.0729H34.7948C35.0682 18.0726 35.3302 17.9639 35.5235 17.7706C35.7168 17.5773 35.8256 17.3152 35.8259 17.0418V16.0108H33.6159C33.7139 16.2866 33.7638 16.5773 33.7637 16.87V16.87Z" fill="#232323"/>
<path d="M16.3818 16.0108H14.1719V17.0418C14.1722 17.3152 14.2809 17.5773 14.4742 17.7706C14.6675 17.9639 14.9296 18.0726 15.203 18.0729H16.5329C16.3664 17.7584 16.2669 17.4127 16.2409 17.0577C16.2149 16.7027 16.2629 16.3462 16.3818 16.0108V16.0108Z" fill="#232323"/>
<path d="M28.7592 16.0108H21.2449C21.3638 16.3463 21.4118 16.7028 21.3858 17.0579C21.3598 17.4129 21.2603 17.7587 21.0938 18.0733H28.9104C28.7438 17.7587 28.6443 17.4129 28.6183 17.0579C28.5923 16.7028 28.6403 16.3463 28.7592 16.0108Z" fill="#232323"/>
<path d="M31.1862 14.8094C30.7783 14.8094 30.3796 14.9303 30.0405 15.1569C29.7014 15.3835 29.4371 15.7056 29.281 16.0824C29.1249 16.4592 29.0841 16.8738 29.1636 17.2738C29.2432 17.6738 29.4396 18.0413 29.728 18.3297C30.0164 18.6181 30.3839 18.8145 30.7839 18.894C31.1839 18.9736 31.5985 18.9328 31.9753 18.7767C32.3521 18.6206 32.6742 18.3563 32.9008 18.0172C33.1274 17.6781 33.2483 17.2794 33.2483 16.8715C33.2477 16.3248 33.0303 15.8006 32.6437 15.414C32.2571 15.0274 31.7329 14.81 31.1862 14.8094V14.8094ZM31.1862 17.9026C30.9823 17.9026 30.7829 17.8421 30.6133 17.7288C30.4438 17.6155 30.3116 17.4545 30.2336 17.2661C30.1556 17.0777 30.1351 16.8704 30.1749 16.6704C30.2147 16.4704 30.3129 16.2866 30.4571 16.1424C30.6013 15.9982 30.785 15.9 30.985 15.8602C31.185 15.8205 31.3924 15.8409 31.5808 15.9189C31.7692 15.997 31.9302 16.1291 32.0435 16.2987C32.1568 16.4682 32.2173 16.6676 32.2173 16.8715C32.2173 17.145 32.1086 17.4072 31.9153 17.6006C31.7219 17.794 31.4596 17.9026 31.1862 17.9026V17.9026Z" fill="#232323"/>
</g>
<defs>
<clipPath id="clip0_1050_10612">
<rect width="49" height="23" fill="white"/>
</clipPath>
</defs>
</svg>
