<svg width="41" height="41" viewBox="0 0 41 41" fill="none" xmlns="http://www.w3.org/2000/svg">
<path d="M10.1629 5.99511C11.2572 5.99511 12.3524 6.0147 13.4458 5.98485C13.8861 5.97272 14.1361 6.11266 14.3554 6.50541C16.2632 9.92078 18.1924 13.325 20.1217 16.7291C20.1888 16.8476 20.3138 16.9325 20.4118 17.0333C20.5172 16.9278 20.6553 16.8401 20.7215 16.7142C22.5248 13.2951 24.3244 9.87413 26.1109 6.44664C26.2863 6.10986 26.4981 5.98485 26.874 5.98765C29.2725 6.00164 31.671 5.99511 34.0686 5.99511C34.1264 5.99511 34.1852 5.99325 34.243 5.99604C34.7095 6.0119 34.8466 6.24513 34.619 6.65747C33.9109 7.94209 33.1973 9.2239 32.4845 10.5066C30.754 13.6207 29.0244 16.7366 27.2845 19.846C27.1558 20.0764 27.1772 20.2107 27.333 20.4197C29.3565 23.1307 29.822 26.0992 28.5215 29.2226C27.2332 32.3161 24.8338 34.1381 21.5154 34.5756C16.7259 35.2081 12.3524 31.8161 11.7115 27.0396C11.3803 24.5749 12.0063 22.3471 13.5391 20.387C13.6939 20.1883 13.6977 20.0549 13.5792 19.8422C11.1592 15.5126 8.74487 11.1793 6.33051 6.84592C6.29599 6.78528 6.26334 6.72371 6.23069 6.66214C6.00119 6.23207 6.1374 5.99884 6.63557 5.99698C7.81103 5.99231 8.98742 5.99511 10.1629 5.99511ZM20.4304 33.9403C24.8869 33.9319 28.5253 30.2796 28.5085 25.8305C28.4907 21.3657 24.845 17.7311 20.4006 17.7479C15.9628 17.7646 12.344 21.4002 12.3403 25.8436C12.3375 30.2973 15.9851 33.9487 20.4304 33.9403ZM16.2613 18.0193C16.2454 17.9867 16.2165 17.9242 16.1839 17.8645C14.1641 14.2327 12.1434 10.6018 10.1284 6.9672C10.0332 6.79554 9.92966 6.70039 9.72349 6.72091C9.5509 6.7377 9.37458 6.72464 9.20013 6.72464C8.51724 6.72464 7.83529 6.72464 7.08336 6.72464C9.4884 11.0403 11.8589 15.2943 14.2173 19.5269C14.9067 19.0185 15.5775 18.5231 16.2613 18.0193ZM33.7579 6.74237C33.5881 6.73491 33.4771 6.72558 33.3661 6.72558C32.6562 6.72464 31.9462 6.7405 31.2372 6.71718C30.9602 6.70785 30.8286 6.81327 30.7008 7.0437C28.7314 10.6093 26.7527 14.1702 24.7759 17.7329C24.7153 17.8421 24.663 17.955 24.6211 18.038C25.3039 18.5455 25.9644 19.0353 26.6455 19.5409C28.9992 15.3046 31.365 11.0477 33.7579 6.74237ZM30.0664 6.72464C29.0365 6.72464 28.084 6.73304 27.1324 6.71905C26.8796 6.71532 26.7425 6.78901 26.6212 7.02131C24.9261 10.2706 23.2198 13.5143 21.5163 16.759C21.465 16.8569 21.4212 16.9596 21.3913 17.0221C22.258 17.2516 23.0958 17.4736 23.9727 17.7059C25.9756 14.0965 28 10.4488 30.0664 6.72464ZM19.4509 17.0249C19.3987 16.9269 19.3361 16.8066 19.2699 16.6881C17.6224 13.7681 15.9749 10.8481 14.3255 7.92996C14.1025 7.53534 13.9551 6.99332 13.6137 6.80021C13.2592 6.59777 12.7116 6.73117 12.2489 6.72558C11.7908 6.71998 11.3318 6.72464 10.8075 6.72464C12.8786 10.4479 14.9114 14.1011 16.9106 17.6947C17.7931 17.4624 18.6075 17.2469 19.4509 17.0249Z" fill="#2727C2" stroke="#2727C2" stroke-width="0.398158"/>
<path d="M20.4299 19.7603C23.7893 19.7621 26.5078 22.4927 26.5041 25.8596C26.5003 29.2153 23.7567 31.9487 20.4038 31.9393C17.0556 31.9291 14.3399 29.1835 14.3474 25.8157C14.3539 22.475 17.0836 19.7584 20.4299 19.7603ZM20.4234 20.4702C17.4801 20.4711 15.0648 22.8827 15.0554 25.8307C15.0461 28.7889 17.4726 31.2257 20.4262 31.2247C23.3676 31.2238 25.7867 28.8076 25.7941 25.8624C25.8025 22.8995 23.3816 20.4693 20.4234 20.4702Z" fill="#2727C2" stroke="#2727C2" stroke-width="0.398158"/>
<path d="M17.78 29.0538C17.8425 28.4101 17.8957 27.7822 17.9694 27.1572C18.0002 26.8959 17.9507 26.6963 17.7614 26.4976C17.3527 26.0666 16.9702 25.6104 16.5803 25.1617C16.2267 24.7559 16.3097 24.5002 16.8266 24.3855C17.4395 24.2484 18.0543 24.1215 18.6616 23.9629C18.809 23.9246 18.9723 23.8062 19.0534 23.6774C19.3977 23.1373 19.7102 22.5775 20.0404 22.029C20.2811 21.6297 20.5638 21.626 20.8026 22.0206C21.1347 22.5682 21.4454 23.1298 21.7924 23.6672C21.8801 23.8024 22.0564 23.9218 22.2141 23.9629C22.8205 24.1234 23.4371 24.2465 24.0482 24.3883C24.5277 24.5002 24.6163 24.7596 24.2992 25.1272C23.8887 25.6039 23.4567 26.0638 23.0612 26.5517C22.9511 26.687 22.8793 26.9025 22.8886 27.076C22.9222 27.6926 22.9977 28.3065 23.0593 28.9213C23.1097 29.426 22.8821 29.6014 22.4203 29.4036C21.8428 29.1573 21.2737 28.8905 20.6888 28.6629C20.5367 28.6032 20.3222 28.6032 20.1692 28.6629C19.5516 28.9036 18.9508 29.1844 18.3379 29.4372C17.9946 29.5809 17.7688 29.4092 17.78 29.0538ZM23.4623 24.9947C22.9063 24.8697 22.424 24.7437 21.9352 24.657C21.5975 24.5963 21.3764 24.4377 21.215 24.1308C20.9808 23.6849 20.7065 23.2604 20.4257 22.7856C20.1263 23.2884 19.8483 23.7194 19.6094 24.1709C19.4583 24.4573 19.2465 24.5963 18.9377 24.6542C18.4396 24.7475 17.9461 24.8697 17.3891 24.9938C17.794 25.4565 18.1746 25.8614 18.5151 26.297C18.6299 26.4435 18.698 26.6711 18.6915 26.8586C18.6719 27.4118 18.6056 27.9632 18.5525 28.5686C19.0907 28.3373 19.587 28.1404 20.0675 27.9128C20.324 27.7915 20.5451 27.799 20.797 27.9165C21.2775 28.1395 21.77 28.3382 22.299 28.5658C22.2449 27.9548 22.1787 27.4007 22.1563 26.8446C22.1488 26.6683 22.2132 26.451 22.3223 26.3138C22.6675 25.8763 23.0491 25.4667 23.4623 24.9947Z" fill="#2727C2" stroke="#2727C2" stroke-width="0.398158"/>
</svg>
