<svg width="18" height="18" viewBox="0 0 18 18" fill="none" xmlns="http://www.w3.org/2000/svg">
<circle cx="9.04665" cy="8.57119" r="8.57119" fill="#3E7BFA"/>
<path fill-rule="evenodd" clip-rule="evenodd" d="M12.7234 3.97988C13.0806 3.70859 13.5733 3.73806 13.8215 4.06716C14.0698 4.39626 13.9643 4.88001 13.6071 5.1513L11.9475 6.41162L12.0477 9.65442C12.052 9.79653 11.982 9.93754 11.8616 10.029L11.5634 10.2555C11.3226 10.4384 10.9897 10.3533 10.9057 10.0874L10.1705 7.76122L8.74507 8.84375L8.70384 9.56558C8.6964 9.69584 8.62791 9.82076 8.5183 9.904L8.36366 10.0214C8.12661 10.2015 7.7989 10.1223 7.70923 9.86326L7.39285 8.94946L6.60225 8.3958C6.37817 8.23887 6.39118 7.9009 6.62823 7.72088L6.78287 7.60343C6.89248 7.52019 7.0309 7.48797 7.15786 7.51616L7.86143 7.67235L9.28682 6.58983L7.2552 5.24817C7.023 5.09483 7.03181 4.7503 7.27261 4.56742L7.57087 4.34091C7.69124 4.24949 7.84552 4.22015 7.98064 4.26298L11.0639 5.24021L12.7234 3.97988ZM13.4668 4.33658C13.3615 4.19707 13.141 4.1732 12.9682 4.30443L11.3087 5.56475C11.1883 5.65616 11.0341 5.68551 10.8989 5.64268L7.81569 4.66545L7.51743 4.89197L9.54905 6.23363C9.78125 6.38697 9.77244 6.7315 9.53164 6.91437L8.10625 7.99689C7.99664 8.08013 7.85822 8.11235 7.73126 8.08417L7.02769 7.92798L6.87304 8.04542L7.66364 8.59909C7.72835 8.6444 7.77656 8.70831 7.80246 8.78311L8.11884 9.6969L8.27348 9.57946L8.31471 8.85762C8.32215 8.72737 8.39064 8.60245 8.50025 8.5192L9.92566 7.43667C10.1665 7.2538 10.4993 7.33885 10.5833 7.60472L11.3186 9.93093L11.6168 9.70442L11.5167 6.46162C11.5123 6.31951 11.5824 6.17849 11.7027 6.08708L13.3622 4.82675C13.535 4.69552 13.572 4.47609 13.4668 4.33658Z" fill="white" stroke="white" stroke-width="0.158235"/>
<rect x="6.44287" y="9.78125" width="2.84375" height="1.39355" fill="#3E7BFA"/>
<rect x="8.14783" y="10.478" width="2.57266" height="1.39355" fill="#3E7BFA"/>
<mask id="path-5-outside-1_453_46402" maskUnits="userSpaceOnUse" x="3.74414" y="8.58887" width="10" height="6" fill="black">
<rect fill="white" x="3.74414" y="8.58887" width="10" height="6"/>
<path d="M5.33769 10.7545C5.54334 10.7414 5.79808 10.5546 5.94794 10.3068L5.98372 10.2477C6.23116 9.83866 6.67345 9.58887 7.15072 9.58887H8.97893C9.36897 9.58887 9.74004 9.75615 9.99912 10.0486L10.179 10.2514C10.6324 10.7631 10.8727 10.9472 11.2166 10.9904L11.9749 11.0556C12.4201 11.1111 12.7441 11.4794 12.7441 11.9164V12.5006C12.7441 12.9789 12.3577 13.3668 11.8809 13.3668H11.6587C11.5177 13.767 11.1376 14.0536 10.6905 14.0536C10.2433 14.0536 9.86319 13.767 9.72223 13.3668H7.20889C7.06792 13.767 6.68784 14.0536 6.24066 14.0536C5.79048 14.0536 5.40837 13.7631 5.2697 13.3587C4.85096 13.3039 4.52913 12.9716 4.52913 12.5339V11.619C4.52913 11.1612 4.88426 10.7831 5.33769 10.7545ZM10.6905 13.3667C10.8794 13.3667 11.0323 13.2135 11.0327 13.024C11.0327 13.0238 11.0327 13.0236 11.0327 13.0234C11.0327 12.8335 10.8796 12.6799 10.6904 12.6799C10.5422 12.6799 10.4163 12.7747 10.3687 12.907C10.3556 12.9433 10.3482 12.9824 10.3482 13.0233C10.3482 13.2131 10.5013 13.3667 10.6905 13.3667ZM6.24066 13.3667C6.4296 13.3667 6.58253 13.2135 6.58291 13.024C6.58291 13.0238 6.58288 13.0236 6.58288 13.0234C6.58288 12.8335 6.42979 12.6799 6.24059 12.6799C6.09237 12.6799 5.96647 12.7747 5.91889 12.907C5.90583 12.9433 5.89836 12.9824 5.89836 13.0233C5.89836 13.2131 6.05146 13.3667 6.24066 13.3667ZM5.21371 12.5339C5.21371 12.5854 5.23793 12.6279 5.28184 12.6536C5.28485 12.6457 5.2881 12.638 5.2913 12.6302C5.2927 12.6268 5.29402 12.6234 5.29546 12.62C5.30122 12.6064 5.30729 12.5929 5.31363 12.5797C5.31567 12.5754 5.31785 12.5711 5.31996 12.5669C5.32449 12.5577 5.32912 12.5486 5.3339 12.5396C5.33669 12.5343 5.33953 12.5291 5.34241 12.5239C5.34695 12.5157 5.35163 12.5075 5.3564 12.4995C5.35934 12.4945 5.36223 12.4895 5.36525 12.4845C5.37234 12.473 5.37959 12.4616 5.38712 12.4503C5.39026 12.4456 5.39355 12.441 5.39676 12.4364C5.40217 12.4286 5.40762 12.4208 5.41324 12.4131C5.41723 12.4077 5.42133 12.4023 5.42542 12.397C5.43032 12.3906 5.43528 12.3842 5.44033 12.3779C5.44468 12.3725 5.44902 12.3671 5.45347 12.3618C5.45895 12.3552 5.46457 12.3488 5.47021 12.3424C5.47672 12.335 5.48328 12.3277 5.48999 12.3205C5.49656 12.3134 5.50316 12.3064 5.50993 12.2995C5.51504 12.2943 5.5203 12.2892 5.52554 12.2841C5.5308 12.279 5.5361 12.2739 5.54148 12.2689C5.54698 12.2637 5.55253 12.2587 5.55813 12.2536C5.56359 12.2487 5.56914 12.244 5.57471 12.2392C5.58031 12.2344 5.58584 12.2296 5.59154 12.2249C5.60165 12.2166 5.61191 12.2085 5.62234 12.2006C5.62826 12.1962 5.63431 12.1919 5.64032 12.1875C5.64619 12.1833 5.65207 12.179 5.65804 12.1749C5.66434 12.1705 5.67073 12.1662 5.67713 12.162C5.68308 12.1581 5.68909 12.1543 5.69513 12.1504C5.70155 12.1464 5.70793 12.1423 5.71445 12.1384C5.72165 12.1341 5.72897 12.13 5.73629 12.1258C5.74632 12.1202 5.75643 12.1147 5.76666 12.1093C5.7738 12.1056 5.78092 12.1018 5.78816 12.0983C5.79481 12.095 5.80153 12.0919 5.80826 12.0887C5.8151 12.0855 5.82198 12.0824 5.8289 12.0794C5.83565 12.0764 5.84241 12.0735 5.84923 12.0706C5.85691 12.0674 5.86467 12.0644 5.87246 12.0614C5.87998 12.0585 5.88748 12.0556 5.89507 12.0529C5.90655 12.0488 5.91812 12.0448 5.92977 12.0411C5.93625 12.0391 5.94282 12.0372 5.94936 12.0353C5.9574 12.0329 5.96545 12.0305 5.97357 12.0284C5.98038 12.0265 5.98718 12.0248 5.99403 12.0231C6.00247 12.021 6.01098 12.019 6.0195 12.0172C6.02589 12.0157 6.03226 12.0143 6.03869 12.013C6.05261 12.0102 6.06664 12.0077 6.08077 12.0055C6.08662 12.0045 6.09254 12.0038 6.09842 12.003C6.1079 12.0017 6.11739 12.0004 6.12695 11.9994C6.13376 11.9986 6.14058 11.998 6.14741 11.9974C6.15644 11.9965 6.1655 11.9959 6.17457 11.9953C6.18131 11.9949 6.18804 11.9944 6.19481 11.9941C6.20618 11.9936 6.21761 11.9934 6.22907 11.9932C6.23297 11.9932 6.23681 11.9929 6.24072 11.9929C6.2451 11.9929 6.24941 11.9932 6.25378 11.9933C6.26482 11.9934 6.27584 11.9936 6.28679 11.9941C6.29396 11.9944 6.30106 11.9949 6.30818 11.9954C6.31684 11.996 6.32549 11.9966 6.3341 11.9974C6.34146 11.998 6.34878 11.9988 6.35606 11.9996C6.36464 12.0005 6.37316 12.0017 6.38168 12.0028C6.38864 12.0038 6.39562 12.0047 6.40253 12.0058C6.4154 12.0078 6.42816 12.0101 6.44087 12.0126C6.44859 12.0142 6.45623 12.0159 6.46388 12.0176C6.47237 12.0195 6.48086 12.0214 6.48927 12.0235C6.49649 12.0253 6.50363 12.0272 6.51078 12.0292C6.51837 12.0313 6.52594 12.0334 6.53346 12.0356C6.54065 12.0378 6.54782 12.0399 6.55494 12.0422C6.56259 12.0447 6.57018 12.0473 6.57775 12.05C6.58445 12.0523 6.5912 12.0546 6.59784 12.057C6.61068 12.0618 6.62338 12.0668 6.63595 12.0721C6.64272 12.0749 6.64935 12.078 6.65605 12.0809C6.66304 12.0841 6.67001 12.0872 6.67689 12.0904C6.68383 12.0937 6.6907 12.097 6.69755 12.1005C6.7041 12.1037 6.71062 12.1071 6.71709 12.1105C6.72384 12.1141 6.73061 12.1176 6.73728 12.1213C6.74403 12.1251 6.75069 12.129 6.75735 12.1329C6.7677 12.139 6.77791 12.1452 6.78802 12.1516C6.79521 12.1561 6.80241 12.1606 6.80948 12.1654C6.81587 12.1696 6.82212 12.1741 6.8284 12.1785C6.83424 12.1826 6.84007 12.1867 6.8458 12.1909C6.85209 12.1955 6.8583 12.2002 6.86447 12.2049C6.8701 12.2093 6.87565 12.2137 6.88118 12.2181C6.88718 12.2229 6.89322 12.2277 6.89912 12.2327C6.90515 12.2377 6.91105 12.243 6.91697 12.2482C6.92646 12.2565 6.9358 12.265 6.94498 12.2737C6.95041 12.2789 6.95586 12.284 6.96117 12.2892C6.96669 12.2947 6.97207 12.3003 6.97747 12.3058C6.98235 12.3109 6.98721 12.316 6.99199 12.3211C6.99731 12.3268 7.00257 12.3326 7.00776 12.3384C7.01247 12.3438 7.01708 12.3492 7.02169 12.3546C7.02667 12.3604 7.03169 12.3662 7.03654 12.3722C7.0432 12.3804 7.04966 12.3887 7.05607 12.3971C7.06224 12.4052 7.06826 12.4134 7.07419 12.4217C7.07847 12.4276 7.08277 12.4336 7.08691 12.4396C7.09129 12.446 7.09555 12.4525 7.0998 12.459C7.10371 12.465 7.10755 12.471 7.11135 12.4771C7.11544 12.4836 7.11952 12.4902 7.12346 12.4968C7.12729 12.5033 7.13097 12.5099 7.13466 12.5164C7.13912 12.5243 7.14357 12.5322 7.14783 12.5403C7.15333 12.5507 7.15871 12.5611 7.16386 12.5717C7.1671 12.5784 7.17014 12.5851 7.17325 12.5919C7.17643 12.5988 7.17959 12.6057 7.18261 12.6127C7.18565 12.6197 7.18858 12.6267 7.19145 12.6338C7.19431 12.6408 7.19707 12.6479 7.19976 12.655C7.20243 12.662 7.20514 12.669 7.20766 12.6761C7.20812 12.6774 7.20863 12.6786 7.20909 12.6799H9.72196C9.72273 12.6777 9.72358 12.6756 9.72436 12.6735C9.726 12.6689 9.72774 12.6644 9.72943 12.6599C9.73316 12.65 9.73702 12.6402 9.74103 12.6304C9.7431 12.6253 9.74519 12.6203 9.74735 12.6153C9.75152 12.6056 9.75587 12.596 9.76033 12.5865C9.76239 12.5821 9.76434 12.5777 9.76647 12.5733C9.77283 12.5602 9.77944 12.5472 9.78634 12.5343C9.78863 12.5301 9.79107 12.526 9.79341 12.5217C9.79834 12.5129 9.80332 12.5041 9.8085 12.4954C9.81178 12.4899 9.81515 12.4845 9.81853 12.479C9.82309 12.4717 9.82772 12.4644 9.83247 12.4572C9.83613 12.4516 9.83977 12.4461 9.84353 12.4406C9.84856 12.4333 9.85374 12.4261 9.85896 12.4188C9.86253 12.4139 9.86599 12.4089 9.86966 12.404C9.87788 12.3931 9.88632 12.3823 9.89496 12.3717C9.89937 12.3663 9.90395 12.361 9.90848 12.3557C9.91351 12.3498 9.91856 12.3438 9.92372 12.338C9.92869 12.3324 9.93372 12.3269 9.9388 12.3215C9.94381 12.3161 9.94889 12.3108 9.95401 12.3055C9.95926 12.3 9.96449 12.2946 9.96984 12.2893C9.9753 12.2839 9.9809 12.2787 9.98648 12.2734C9.99557 12.2648 10.0048 12.2564 10.0142 12.2481C10.0201 12.2429 10.0259 12.2377 10.032 12.2327C10.0379 12.2277 10.044 12.2228 10.0501 12.218C10.0555 12.2136 10.061 12.2093 10.0665 12.205C10.0728 12.2002 10.0791 12.1955 10.0855 12.1908C10.0911 12.1867 10.0968 12.1827 10.1025 12.1787C10.1089 12.1742 10.1152 12.1697 10.1218 12.1653C10.1284 12.1609 10.1352 12.1566 10.142 12.1523C10.1526 12.1455 10.1634 12.139 10.1744 12.1326C10.1808 12.1288 10.1872 12.125 10.1937 12.1214C10.2005 12.1176 10.2074 12.114 10.2142 12.1104C10.2206 12.1071 10.227 12.1038 10.2335 12.1005C10.2404 12.0971 10.2473 12.0937 10.2543 12.0904C10.2611 12.0871 10.2681 12.0841 10.275 12.0809C10.2817 12.078 10.2884 12.0749 10.2952 12.0721C10.3078 12.0668 10.3205 12.0618 10.3334 12.057C10.3399 12.0546 10.3465 12.0524 10.353 12.0501C10.3608 12.0474 10.3685 12.0447 10.3763 12.0422C10.3833 12.0399 10.3904 12.0378 10.3974 12.0357C10.4051 12.0334 10.4129 12.0312 10.4207 12.0291C10.4277 12.0272 10.4346 12.0253 10.4416 12.0235C10.4505 12.0213 10.4594 12.0193 10.4683 12.0173C10.4745 12.016 10.4806 12.0145 10.4868 12.0132C10.5007 12.0104 10.5147 12.0079 10.5288 12.0057C10.5354 12.0046 10.5421 12.0038 10.5487 12.0029C10.5576 12.0017 10.5665 12.0005 10.5754 11.9995C10.5825 11.9987 10.5895 11.998 10.5967 11.9974C10.6055 11.9966 10.6144 11.9959 10.6234 11.9953C10.6303 11.9949 10.6372 11.9944 10.6442 11.9941C10.6553 11.9936 10.6666 11.9934 10.6779 11.9932C10.6821 11.9932 10.6862 11.9929 10.6904 11.9929C10.6948 11.9929 10.6991 11.9932 10.7035 11.9932C10.7145 11.9934 10.7256 11.9936 10.7365 11.9941C10.7437 11.9944 10.7508 11.9949 10.7579 11.9954C10.7666 11.9959 10.7752 11.9966 10.7838 11.9974C10.7912 11.998 10.7985 11.9987 10.8058 11.9996C10.8144 12.0005 10.8229 12.0017 10.8314 12.0028C10.8384 12.0038 10.8453 12.0047 10.8522 12.0058C10.8651 12.0078 10.8778 12.0101 10.8905 12.0126C10.8983 12.0142 10.9059 12.0159 10.9136 12.0176C10.9221 12.0195 10.9306 12.0214 10.939 12.0235C10.9462 12.0253 10.9533 12.0272 10.9605 12.0292C10.9681 12.0312 10.9756 12.0334 10.9832 12.0356C10.9903 12.0378 10.9975 12.0399 11.0047 12.0422C11.0123 12.0447 11.0199 12.0473 11.0274 12.05C11.0342 12.0523 11.0409 12.0546 11.0476 12.057C11.0604 12.0618 11.0731 12.0668 11.0857 12.0721C11.0924 12.0749 11.0991 12.078 11.1058 12.081C11.1128 12.0841 11.1197 12.0872 11.1266 12.0904C11.1336 12.0937 11.1404 12.097 11.1473 12.1005C11.1539 12.1038 11.1603 12.1071 11.1668 12.1105C11.1736 12.1141 11.1803 12.1176 11.187 12.1213C11.1938 12.1251 11.2004 12.129 11.207 12.1329C11.2174 12.139 11.2277 12.1452 11.2378 12.1516C11.245 12.1562 11.2522 12.1607 11.2592 12.1654C11.2656 12.1696 11.2718 12.1741 11.2781 12.1785C11.284 12.1826 11.2898 12.1867 11.2955 12.1909C11.3018 12.1955 11.308 12.2002 11.3142 12.2049C11.3198 12.2093 11.3254 12.2137 11.3309 12.2181C11.3369 12.2229 11.3429 12.2277 11.3488 12.2327C11.3549 12.2377 11.3607 12.2429 11.3666 12.2481C11.3762 12.2565 11.3855 12.265 11.3947 12.2738C11.4001 12.2789 11.4056 12.284 11.4109 12.2892C11.4164 12.2947 11.4218 12.3003 11.4272 12.3059C11.4321 12.3109 11.4369 12.316 11.4417 12.3211C11.447 12.3268 11.4523 12.3326 11.4575 12.3384C11.4622 12.3438 11.4668 12.3492 11.4714 12.3546C11.4764 12.3604 11.4814 12.3662 11.4862 12.3722C11.4929 12.3804 11.4994 12.3888 11.5059 12.3972C11.512 12.4053 11.518 12.4134 11.5239 12.4217C11.5282 12.4276 11.5325 12.4336 11.5366 12.4396C11.541 12.446 11.5452 12.4525 11.5495 12.459C11.5534 12.465 11.5572 12.471 11.561 12.4771C11.5651 12.4836 11.5692 12.4902 11.5732 12.4969C11.577 12.5033 11.5807 12.5099 11.5844 12.5164C11.5888 12.5244 11.5933 12.5323 11.5976 12.5404C11.6031 12.5507 11.6084 12.5611 11.6136 12.5717C11.6168 12.5784 11.6199 12.5852 11.623 12.5919C11.6261 12.5988 11.6293 12.6057 11.6323 12.6127C11.6354 12.6197 11.6383 12.6267 11.6412 12.6338C11.644 12.6408 11.6468 12.6479 11.6495 12.655C11.6521 12.662 11.6548 12.669 11.6574 12.6761C11.6578 12.6774 11.6583 12.6786 11.6588 12.6799H11.8809C11.9795 12.6799 12.0596 12.5996 12.0596 12.5006V11.9164C12.0596 11.8258 11.9927 11.7498 11.9032 11.7386L11.1447 11.6734C10.5696 11.6014 10.2258 11.3381 9.66749 10.708L9.48757 10.5051C9.35822 10.3591 9.17337 10.2758 8.97893 10.2758H7.15074C6.91271 10.2758 6.69229 10.4002 6.56879 10.6044L6.53303 10.6634C6.27644 11.0877 5.8355 11.4111 5.38086 11.4401C5.28734 11.446 5.2137 11.5243 5.2137 11.619V12.5339H5.21371Z"/>
</mask>
<path d="M5.33769 10.7545C5.54334 10.7414 5.79808 10.5546 5.94794 10.3068L5.98372 10.2477C6.23116 9.83866 6.67345 9.58887 7.15072 9.58887H8.97893C9.36897 9.58887 9.74004 9.75615 9.99912 10.0486L10.179 10.2514C10.6324 10.7631 10.8727 10.9472 11.2166 10.9904L11.9749 11.0556C12.4201 11.1111 12.7441 11.4794 12.7441 11.9164V12.5006C12.7441 12.9789 12.3577 13.3668 11.8809 13.3668H11.6587C11.5177 13.767 11.1376 14.0536 10.6905 14.0536C10.2433 14.0536 9.86319 13.767 9.72223 13.3668H7.20889C7.06792 13.767 6.68784 14.0536 6.24066 14.0536C5.79048 14.0536 5.40837 13.7631 5.2697 13.3587C4.85096 13.3039 4.52913 12.9716 4.52913 12.5339V11.619C4.52913 11.1612 4.88426 10.7831 5.33769 10.7545ZM10.6905 13.3667C10.8794 13.3667 11.0323 13.2135 11.0327 13.024C11.0327 13.0238 11.0327 13.0236 11.0327 13.0234C11.0327 12.8335 10.8796 12.6799 10.6904 12.6799C10.5422 12.6799 10.4163 12.7747 10.3687 12.907C10.3556 12.9433 10.3482 12.9824 10.3482 13.0233C10.3482 13.2131 10.5013 13.3667 10.6905 13.3667ZM6.24066 13.3667C6.4296 13.3667 6.58253 13.2135 6.58291 13.024C6.58291 13.0238 6.58288 13.0236 6.58288 13.0234C6.58288 12.8335 6.42979 12.6799 6.24059 12.6799C6.09237 12.6799 5.96647 12.7747 5.91889 12.907C5.90583 12.9433 5.89836 12.9824 5.89836 13.0233C5.89836 13.2131 6.05146 13.3667 6.24066 13.3667ZM5.21371 12.5339C5.21371 12.5854 5.23793 12.6279 5.28184 12.6536C5.28485 12.6457 5.2881 12.638 5.2913 12.6302C5.2927 12.6268 5.29402 12.6234 5.29546 12.62C5.30122 12.6064 5.30729 12.5929 5.31363 12.5797C5.31567 12.5754 5.31785 12.5711 5.31996 12.5669C5.32449 12.5577 5.32912 12.5486 5.3339 12.5396C5.33669 12.5343 5.33953 12.5291 5.34241 12.5239C5.34695 12.5157 5.35163 12.5075 5.3564 12.4995C5.35934 12.4945 5.36223 12.4895 5.36525 12.4845C5.37234 12.473 5.37959 12.4616 5.38712 12.4503C5.39026 12.4456 5.39355 12.441 5.39676 12.4364C5.40217 12.4286 5.40762 12.4208 5.41324 12.4131C5.41723 12.4077 5.42133 12.4023 5.42542 12.397C5.43032 12.3906 5.43528 12.3842 5.44033 12.3779C5.44468 12.3725 5.44902 12.3671 5.45347 12.3618C5.45895 12.3552 5.46457 12.3488 5.47021 12.3424C5.47672 12.335 5.48328 12.3277 5.48999 12.3205C5.49656 12.3134 5.50316 12.3064 5.50993 12.2995C5.51504 12.2943 5.5203 12.2892 5.52554 12.2841C5.5308 12.279 5.5361 12.2739 5.54148 12.2689C5.54698 12.2637 5.55253 12.2587 5.55813 12.2536C5.56359 12.2487 5.56914 12.244 5.57471 12.2392C5.58031 12.2344 5.58584 12.2296 5.59154 12.2249C5.60165 12.2166 5.61191 12.2085 5.62234 12.2006C5.62826 12.1962 5.63431 12.1919 5.64032 12.1875C5.64619 12.1833 5.65207 12.179 5.65804 12.1749C5.66434 12.1705 5.67073 12.1662 5.67713 12.162C5.68308 12.1581 5.68909 12.1543 5.69513 12.1504C5.70155 12.1464 5.70793 12.1423 5.71445 12.1384C5.72165 12.1341 5.72897 12.13 5.73629 12.1258C5.74632 12.1202 5.75643 12.1147 5.76666 12.1093C5.7738 12.1056 5.78092 12.1018 5.78816 12.0983C5.79481 12.095 5.80153 12.0919 5.80826 12.0887C5.8151 12.0855 5.82198 12.0824 5.8289 12.0794C5.83565 12.0764 5.84241 12.0735 5.84923 12.0706C5.85691 12.0674 5.86467 12.0644 5.87246 12.0614C5.87998 12.0585 5.88748 12.0556 5.89507 12.0529C5.90655 12.0488 5.91812 12.0448 5.92977 12.0411C5.93625 12.0391 5.94282 12.0372 5.94936 12.0353C5.9574 12.0329 5.96545 12.0305 5.97357 12.0284C5.98038 12.0265 5.98718 12.0248 5.99403 12.0231C6.00247 12.021 6.01098 12.019 6.0195 12.0172C6.02589 12.0157 6.03226 12.0143 6.03869 12.013C6.05261 12.0102 6.06664 12.0077 6.08077 12.0055C6.08662 12.0045 6.09254 12.0038 6.09842 12.003C6.1079 12.0017 6.11739 12.0004 6.12695 11.9994C6.13376 11.9986 6.14058 11.998 6.14741 11.9974C6.15644 11.9965 6.1655 11.9959 6.17457 11.9953C6.18131 11.9949 6.18804 11.9944 6.19481 11.9941C6.20618 11.9936 6.21761 11.9934 6.22907 11.9932C6.23297 11.9932 6.23681 11.9929 6.24072 11.9929C6.2451 11.9929 6.24941 11.9932 6.25378 11.9933C6.26482 11.9934 6.27584 11.9936 6.28679 11.9941C6.29396 11.9944 6.30106 11.9949 6.30818 11.9954C6.31684 11.996 6.32549 11.9966 6.3341 11.9974C6.34146 11.998 6.34878 11.9988 6.35606 11.9996C6.36464 12.0005 6.37316 12.0017 6.38168 12.0028C6.38864 12.0038 6.39562 12.0047 6.40253 12.0058C6.4154 12.0078 6.42816 12.0101 6.44087 12.0126C6.44859 12.0142 6.45623 12.0159 6.46388 12.0176C6.47237 12.0195 6.48086 12.0214 6.48927 12.0235C6.49649 12.0253 6.50363 12.0272 6.51078 12.0292C6.51837 12.0313 6.52594 12.0334 6.53346 12.0356C6.54065 12.0378 6.54782 12.0399 6.55494 12.0422C6.56259 12.0447 6.57018 12.0473 6.57775 12.05C6.58445 12.0523 6.5912 12.0546 6.59784 12.057C6.61068 12.0618 6.62338 12.0668 6.63595 12.0721C6.64272 12.0749 6.64935 12.078 6.65605 12.0809C6.66304 12.0841 6.67001 12.0872 6.67689 12.0904C6.68383 12.0937 6.6907 12.097 6.69755 12.1005C6.7041 12.1037 6.71062 12.1071 6.71709 12.1105C6.72384 12.1141 6.73061 12.1176 6.73728 12.1213C6.74403 12.1251 6.75069 12.129 6.75735 12.1329C6.7677 12.139 6.77791 12.1452 6.78802 12.1516C6.79521 12.1561 6.80241 12.1606 6.80948 12.1654C6.81587 12.1696 6.82212 12.1741 6.8284 12.1785C6.83424 12.1826 6.84007 12.1867 6.8458 12.1909C6.85209 12.1955 6.8583 12.2002 6.86447 12.2049C6.8701 12.2093 6.87565 12.2137 6.88118 12.2181C6.88718 12.2229 6.89322 12.2277 6.89912 12.2327C6.90515 12.2377 6.91105 12.243 6.91697 12.2482C6.92646 12.2565 6.9358 12.265 6.94498 12.2737C6.95041 12.2789 6.95586 12.284 6.96117 12.2892C6.96669 12.2947 6.97207 12.3003 6.97747 12.3058C6.98235 12.3109 6.98721 12.316 6.99199 12.3211C6.99731 12.3268 7.00257 12.3326 7.00776 12.3384C7.01247 12.3438 7.01708 12.3492 7.02169 12.3546C7.02667 12.3604 7.03169 12.3662 7.03654 12.3722C7.0432 12.3804 7.04966 12.3887 7.05607 12.3971C7.06224 12.4052 7.06826 12.4134 7.07419 12.4217C7.07847 12.4276 7.08277 12.4336 7.08691 12.4396C7.09129 12.446 7.09555 12.4525 7.0998 12.459C7.10371 12.465 7.10755 12.471 7.11135 12.4771C7.11544 12.4836 7.11952 12.4902 7.12346 12.4968C7.12729 12.5033 7.13097 12.5099 7.13466 12.5164C7.13912 12.5243 7.14357 12.5322 7.14783 12.5403C7.15333 12.5507 7.15871 12.5611 7.16386 12.5717C7.1671 12.5784 7.17014 12.5851 7.17325 12.5919C7.17643 12.5988 7.17959 12.6057 7.18261 12.6127C7.18565 12.6197 7.18858 12.6267 7.19145 12.6338C7.19431 12.6408 7.19707 12.6479 7.19976 12.655C7.20243 12.662 7.20514 12.669 7.20766 12.6761C7.20812 12.6774 7.20863 12.6786 7.20909 12.6799H9.72196C9.72273 12.6777 9.72358 12.6756 9.72436 12.6735C9.726 12.6689 9.72774 12.6644 9.72943 12.6599C9.73316 12.65 9.73702 12.6402 9.74103 12.6304C9.7431 12.6253 9.74519 12.6203 9.74735 12.6153C9.75152 12.6056 9.75587 12.596 9.76033 12.5865C9.76239 12.5821 9.76434 12.5777 9.76647 12.5733C9.77283 12.5602 9.77944 12.5472 9.78634 12.5343C9.78863 12.5301 9.79107 12.526 9.79341 12.5217C9.79834 12.5129 9.80332 12.5041 9.8085 12.4954C9.81178 12.4899 9.81515 12.4845 9.81853 12.479C9.82309 12.4717 9.82772 12.4644 9.83247 12.4572C9.83613 12.4516 9.83977 12.4461 9.84353 12.4406C9.84856 12.4333 9.85374 12.4261 9.85896 12.4188C9.86253 12.4139 9.86599 12.4089 9.86966 12.404C9.87788 12.3931 9.88632 12.3823 9.89496 12.3717C9.89937 12.3663 9.90395 12.361 9.90848 12.3557C9.91351 12.3498 9.91856 12.3438 9.92372 12.338C9.92869 12.3324 9.93372 12.3269 9.9388 12.3215C9.94381 12.3161 9.94889 12.3108 9.95401 12.3055C9.95926 12.3 9.96449 12.2946 9.96984 12.2893C9.9753 12.2839 9.9809 12.2787 9.98648 12.2734C9.99557 12.2648 10.0048 12.2564 10.0142 12.2481C10.0201 12.2429 10.0259 12.2377 10.032 12.2327C10.0379 12.2277 10.044 12.2228 10.0501 12.218C10.0555 12.2136 10.061 12.2093 10.0665 12.205C10.0728 12.2002 10.0791 12.1955 10.0855 12.1908C10.0911 12.1867 10.0968 12.1827 10.1025 12.1787C10.1089 12.1742 10.1152 12.1697 10.1218 12.1653C10.1284 12.1609 10.1352 12.1566 10.142 12.1523C10.1526 12.1455 10.1634 12.139 10.1744 12.1326C10.1808 12.1288 10.1872 12.125 10.1937 12.1214C10.2005 12.1176 10.2074 12.114 10.2142 12.1104C10.2206 12.1071 10.227 12.1038 10.2335 12.1005C10.2404 12.0971 10.2473 12.0937 10.2543 12.0904C10.2611 12.0871 10.2681 12.0841 10.275 12.0809C10.2817 12.078 10.2884 12.0749 10.2952 12.0721C10.3078 12.0668 10.3205 12.0618 10.3334 12.057C10.3399 12.0546 10.3465 12.0524 10.353 12.0501C10.3608 12.0474 10.3685 12.0447 10.3763 12.0422C10.3833 12.0399 10.3904 12.0378 10.3974 12.0357C10.4051 12.0334 10.4129 12.0312 10.4207 12.0291C10.4277 12.0272 10.4346 12.0253 10.4416 12.0235C10.4505 12.0213 10.4594 12.0193 10.4683 12.0173C10.4745 12.016 10.4806 12.0145 10.4868 12.0132C10.5007 12.0104 10.5147 12.0079 10.5288 12.0057C10.5354 12.0046 10.5421 12.0038 10.5487 12.0029C10.5576 12.0017 10.5665 12.0005 10.5754 11.9995C10.5825 11.9987 10.5895 11.998 10.5967 11.9974C10.6055 11.9966 10.6144 11.9959 10.6234 11.9953C10.6303 11.9949 10.6372 11.9944 10.6442 11.9941C10.6553 11.9936 10.6666 11.9934 10.6779 11.9932C10.6821 11.9932 10.6862 11.9929 10.6904 11.9929C10.6948 11.9929 10.6991 11.9932 10.7035 11.9932C10.7145 11.9934 10.7256 11.9936 10.7365 11.9941C10.7437 11.9944 10.7508 11.9949 10.7579 11.9954C10.7666 11.9959 10.7752 11.9966 10.7838 11.9974C10.7912 11.998 10.7985 11.9987 10.8058 11.9996C10.8144 12.0005 10.8229 12.0017 10.8314 12.0028C10.8384 12.0038 10.8453 12.0047 10.8522 12.0058C10.8651 12.0078 10.8778 12.0101 10.8905 12.0126C10.8983 12.0142 10.9059 12.0159 10.9136 12.0176C10.9221 12.0195 10.9306 12.0214 10.939 12.0235C10.9462 12.0253 10.9533 12.0272 10.9605 12.0292C10.9681 12.0312 10.9756 12.0334 10.9832 12.0356C10.9903 12.0378 10.9975 12.0399 11.0047 12.0422C11.0123 12.0447 11.0199 12.0473 11.0274 12.05C11.0342 12.0523 11.0409 12.0546 11.0476 12.057C11.0604 12.0618 11.0731 12.0668 11.0857 12.0721C11.0924 12.0749 11.0991 12.078 11.1058 12.081C11.1128 12.0841 11.1197 12.0872 11.1266 12.0904C11.1336 12.0937 11.1404 12.097 11.1473 12.1005C11.1539 12.1038 11.1603 12.1071 11.1668 12.1105C11.1736 12.1141 11.1803 12.1176 11.187 12.1213C11.1938 12.1251 11.2004 12.129 11.207 12.1329C11.2174 12.139 11.2277 12.1452 11.2378 12.1516C11.245 12.1562 11.2522 12.1607 11.2592 12.1654C11.2656 12.1696 11.2718 12.1741 11.2781 12.1785C11.284 12.1826 11.2898 12.1867 11.2955 12.1909C11.3018 12.1955 11.308 12.2002 11.3142 12.2049C11.3198 12.2093 11.3254 12.2137 11.3309 12.2181C11.3369 12.2229 11.3429 12.2277 11.3488 12.2327C11.3549 12.2377 11.3607 12.2429 11.3666 12.2481C11.3762 12.2565 11.3855 12.265 11.3947 12.2738C11.4001 12.2789 11.4056 12.284 11.4109 12.2892C11.4164 12.2947 11.4218 12.3003 11.4272 12.3059C11.4321 12.3109 11.4369 12.316 11.4417 12.3211C11.447 12.3268 11.4523 12.3326 11.4575 12.3384C11.4622 12.3438 11.4668 12.3492 11.4714 12.3546C11.4764 12.3604 11.4814 12.3662 11.4862 12.3722C11.4929 12.3804 11.4994 12.3888 11.5059 12.3972C11.512 12.4053 11.518 12.4134 11.5239 12.4217C11.5282 12.4276 11.5325 12.4336 11.5366 12.4396C11.541 12.446 11.5452 12.4525 11.5495 12.459C11.5534 12.465 11.5572 12.471 11.561 12.4771C11.5651 12.4836 11.5692 12.4902 11.5732 12.4969C11.577 12.5033 11.5807 12.5099 11.5844 12.5164C11.5888 12.5244 11.5933 12.5323 11.5976 12.5404C11.6031 12.5507 11.6084 12.5611 11.6136 12.5717C11.6168 12.5784 11.6199 12.5852 11.623 12.5919C11.6261 12.5988 11.6293 12.6057 11.6323 12.6127C11.6354 12.6197 11.6383 12.6267 11.6412 12.6338C11.644 12.6408 11.6468 12.6479 11.6495 12.655C11.6521 12.662 11.6548 12.669 11.6574 12.6761C11.6578 12.6774 11.6583 12.6786 11.6588 12.6799H11.8809C11.9795 12.6799 12.0596 12.5996 12.0596 12.5006V11.9164C12.0596 11.8258 11.9927 11.7498 11.9032 11.7386L11.1447 11.6734C10.5696 11.6014 10.2258 11.3381 9.66749 10.708L9.48757 10.5051C9.35822 10.3591 9.17337 10.2758 8.97893 10.2758H7.15074C6.91271 10.2758 6.69229 10.4002 6.56879 10.6044L6.53303 10.6634C6.27644 11.0877 5.8355 11.4111 5.38086 11.4401C5.28734 11.446 5.2137 11.5243 5.2137 11.619V12.5339H5.21371Z" fill="white"/>
<path d="M5.33769 10.7545C5.54334 10.7414 5.79808 10.5546 5.94794 10.3068L5.98372 10.2477C6.23116 9.83866 6.67345 9.58887 7.15072 9.58887H8.97893C9.36897 9.58887 9.74004 9.75615 9.99912 10.0486L10.179 10.2514C10.6324 10.7631 10.8727 10.9472 11.2166 10.9904L11.9749 11.0556C12.4201 11.1111 12.7441 11.4794 12.7441 11.9164V12.5006C12.7441 12.9789 12.3577 13.3668 11.8809 13.3668H11.6587C11.5177 13.767 11.1376 14.0536 10.6905 14.0536C10.2433 14.0536 9.86319 13.767 9.72223 13.3668H7.20889C7.06792 13.767 6.68784 14.0536 6.24066 14.0536C5.79048 14.0536 5.40837 13.7631 5.2697 13.3587C4.85096 13.3039 4.52913 12.9716 4.52913 12.5339V11.619C4.52913 11.1612 4.88426 10.7831 5.33769 10.7545ZM10.6905 13.3667C10.8794 13.3667 11.0323 13.2135 11.0327 13.024C11.0327 13.0238 11.0327 13.0236 11.0327 13.0234C11.0327 12.8335 10.8796 12.6799 10.6904 12.6799C10.5422 12.6799 10.4163 12.7747 10.3687 12.907C10.3556 12.9433 10.3482 12.9824 10.3482 13.0233C10.3482 13.2131 10.5013 13.3667 10.6905 13.3667ZM6.24066 13.3667C6.4296 13.3667 6.58253 13.2135 6.58291 13.024C6.58291 13.0238 6.58288 13.0236 6.58288 13.0234C6.58288 12.8335 6.42979 12.6799 6.24059 12.6799C6.09237 12.6799 5.96647 12.7747 5.91889 12.907C5.90583 12.9433 5.89836 12.9824 5.89836 13.0233C5.89836 13.2131 6.05146 13.3667 6.24066 13.3667ZM5.21371 12.5339C5.21371 12.5854 5.23793 12.6279 5.28184 12.6536C5.28485 12.6457 5.2881 12.638 5.2913 12.6302C5.2927 12.6268 5.29402 12.6234 5.29546 12.62C5.30122 12.6064 5.30729 12.5929 5.31363 12.5797C5.31567 12.5754 5.31785 12.5711 5.31996 12.5669C5.32449 12.5577 5.32912 12.5486 5.3339 12.5396C5.33669 12.5343 5.33953 12.5291 5.34241 12.5239C5.34695 12.5157 5.35163 12.5075 5.3564 12.4995C5.35934 12.4945 5.36223 12.4895 5.36525 12.4845C5.37234 12.473 5.37959 12.4616 5.38712 12.4503C5.39026 12.4456 5.39355 12.441 5.39676 12.4364C5.40217 12.4286 5.40762 12.4208 5.41324 12.4131C5.41723 12.4077 5.42133 12.4023 5.42542 12.397C5.43032 12.3906 5.43528 12.3842 5.44033 12.3779C5.44468 12.3725 5.44902 12.3671 5.45347 12.3618C5.45895 12.3552 5.46457 12.3488 5.47021 12.3424C5.47672 12.335 5.48328 12.3277 5.48999 12.3205C5.49656 12.3134 5.50316 12.3064 5.50993 12.2995C5.51504 12.2943 5.5203 12.2892 5.52554 12.2841C5.5308 12.279 5.5361 12.2739 5.54148 12.2689C5.54698 12.2637 5.55253 12.2587 5.55813 12.2536C5.56359 12.2487 5.56914 12.244 5.57471 12.2392C5.58031 12.2344 5.58584 12.2296 5.59154 12.2249C5.60165 12.2166 5.61191 12.2085 5.62234 12.2006C5.62826 12.1962 5.63431 12.1919 5.64032 12.1875C5.64619 12.1833 5.65207 12.179 5.65804 12.1749C5.66434 12.1705 5.67073 12.1662 5.67713 12.162C5.68308 12.1581 5.68909 12.1543 5.69513 12.1504C5.70155 12.1464 5.70793 12.1423 5.71445 12.1384C5.72165 12.1341 5.72897 12.13 5.73629 12.1258C5.74632 12.1202 5.75643 12.1147 5.76666 12.1093C5.7738 12.1056 5.78092 12.1018 5.78816 12.0983C5.79481 12.095 5.80153 12.0919 5.80826 12.0887C5.8151 12.0855 5.82198 12.0824 5.8289 12.0794C5.83565 12.0764 5.84241 12.0735 5.84923 12.0706C5.85691 12.0674 5.86467 12.0644 5.87246 12.0614C5.87998 12.0585 5.88748 12.0556 5.89507 12.0529C5.90655 12.0488 5.91812 12.0448 5.92977 12.0411C5.93625 12.0391 5.94282 12.0372 5.94936 12.0353C5.9574 12.0329 5.96545 12.0305 5.97357 12.0284C5.98038 12.0265 5.98718 12.0248 5.99403 12.0231C6.00247 12.021 6.01098 12.019 6.0195 12.0172C6.02589 12.0157 6.03226 12.0143 6.03869 12.013C6.05261 12.0102 6.06664 12.0077 6.08077 12.0055C6.08662 12.0045 6.09254 12.0038 6.09842 12.003C6.1079 12.0017 6.11739 12.0004 6.12695 11.9994C6.13376 11.9986 6.14058 11.998 6.14741 11.9974C6.15644 11.9965 6.1655 11.9959 6.17457 11.9953C6.18131 11.9949 6.18804 11.9944 6.19481 11.9941C6.20618 11.9936 6.21761 11.9934 6.22907 11.9932C6.23297 11.9932 6.23681 11.9929 6.24072 11.9929C6.2451 11.9929 6.24941 11.9932 6.25378 11.9933C6.26482 11.9934 6.27584 11.9936 6.28679 11.9941C6.29396 11.9944 6.30106 11.9949 6.30818 11.9954C6.31684 11.996 6.32549 11.9966 6.3341 11.9974C6.34146 11.998 6.34878 11.9988 6.35606 11.9996C6.36464 12.0005 6.37316 12.0017 6.38168 12.0028C6.38864 12.0038 6.39562 12.0047 6.40253 12.0058C6.4154 12.0078 6.42816 12.0101 6.44087 12.0126C6.44859 12.0142 6.45623 12.0159 6.46388 12.0176C6.47237 12.0195 6.48086 12.0214 6.48927 12.0235C6.49649 12.0253 6.50363 12.0272 6.51078 12.0292C6.51837 12.0313 6.52594 12.0334 6.53346 12.0356C6.54065 12.0378 6.54782 12.0399 6.55494 12.0422C6.56259 12.0447 6.57018 12.0473 6.57775 12.05C6.58445 12.0523 6.5912 12.0546 6.59784 12.057C6.61068 12.0618 6.62338 12.0668 6.63595 12.0721C6.64272 12.0749 6.64935 12.078 6.65605 12.0809C6.66304 12.0841 6.67001 12.0872 6.67689 12.0904C6.68383 12.0937 6.6907 12.097 6.69755 12.1005C6.7041 12.1037 6.71062 12.1071 6.71709 12.1105C6.72384 12.1141 6.73061 12.1176 6.73728 12.1213C6.74403 12.1251 6.75069 12.129 6.75735 12.1329C6.7677 12.139 6.77791 12.1452 6.78802 12.1516C6.79521 12.1561 6.80241 12.1606 6.80948 12.1654C6.81587 12.1696 6.82212 12.1741 6.8284 12.1785C6.83424 12.1826 6.84007 12.1867 6.8458 12.1909C6.85209 12.1955 6.8583 12.2002 6.86447 12.2049C6.8701 12.2093 6.87565 12.2137 6.88118 12.2181C6.88718 12.2229 6.89322 12.2277 6.89912 12.2327C6.90515 12.2377 6.91105 12.243 6.91697 12.2482C6.92646 12.2565 6.9358 12.265 6.94498 12.2737C6.95041 12.2789 6.95586 12.284 6.96117 12.2892C6.96669 12.2947 6.97207 12.3003 6.97747 12.3058C6.98235 12.3109 6.98721 12.316 6.99199 12.3211C6.99731 12.3268 7.00257 12.3326 7.00776 12.3384C7.01247 12.3438 7.01708 12.3492 7.02169 12.3546C7.02667 12.3604 7.03169 12.3662 7.03654 12.3722C7.0432 12.3804 7.04966 12.3887 7.05607 12.3971C7.06224 12.4052 7.06826 12.4134 7.07419 12.4217C7.07847 12.4276 7.08277 12.4336 7.08691 12.4396C7.09129 12.446 7.09555 12.4525 7.0998 12.459C7.10371 12.465 7.10755 12.471 7.11135 12.4771C7.11544 12.4836 7.11952 12.4902 7.12346 12.4968C7.12729 12.5033 7.13097 12.5099 7.13466 12.5164C7.13912 12.5243 7.14357 12.5322 7.14783 12.5403C7.15333 12.5507 7.15871 12.5611 7.16386 12.5717C7.1671 12.5784 7.17014 12.5851 7.17325 12.5919C7.17643 12.5988 7.17959 12.6057 7.18261 12.6127C7.18565 12.6197 7.18858 12.6267 7.19145 12.6338C7.19431 12.6408 7.19707 12.6479 7.19976 12.655C7.20243 12.662 7.20514 12.669 7.20766 12.6761C7.20812 12.6774 7.20863 12.6786 7.20909 12.6799H9.72196C9.72273 12.6777 9.72358 12.6756 9.72436 12.6735C9.726 12.6689 9.72774 12.6644 9.72943 12.6599C9.73316 12.65 9.73702 12.6402 9.74103 12.6304C9.7431 12.6253 9.74519 12.6203 9.74735 12.6153C9.75152 12.6056 9.75587 12.596 9.76033 12.5865C9.76239 12.5821 9.76434 12.5777 9.76647 12.5733C9.77283 12.5602 9.77944 12.5472 9.78634 12.5343C9.78863 12.5301 9.79107 12.526 9.79341 12.5217C9.79834 12.5129 9.80332 12.5041 9.8085 12.4954C9.81178 12.4899 9.81515 12.4845 9.81853 12.479C9.82309 12.4717 9.82772 12.4644 9.83247 12.4572C9.83613 12.4516 9.83977 12.4461 9.84353 12.4406C9.84856 12.4333 9.85374 12.4261 9.85896 12.4188C9.86253 12.4139 9.86599 12.4089 9.86966 12.404C9.87788 12.3931 9.88632 12.3823 9.89496 12.3717C9.89937 12.3663 9.90395 12.361 9.90848 12.3557C9.91351 12.3498 9.91856 12.3438 9.92372 12.338C9.92869 12.3324 9.93372 12.3269 9.9388 12.3215C9.94381 12.3161 9.94889 12.3108 9.95401 12.3055C9.95926 12.3 9.96449 12.2946 9.96984 12.2893C9.9753 12.2839 9.9809 12.2787 9.98648 12.2734C9.99557 12.2648 10.0048 12.2564 10.0142 12.2481C10.0201 12.2429 10.0259 12.2377 10.032 12.2327C10.0379 12.2277 10.044 12.2228 10.0501 12.218C10.0555 12.2136 10.061 12.2093 10.0665 12.205C10.0728 12.2002 10.0791 12.1955 10.0855 12.1908C10.0911 12.1867 10.0968 12.1827 10.1025 12.1787C10.1089 12.1742 10.1152 12.1697 10.1218 12.1653C10.1284 12.1609 10.1352 12.1566 10.142 12.1523C10.1526 12.1455 10.1634 12.139 10.1744 12.1326C10.1808 12.1288 10.1872 12.125 10.1937 12.1214C10.2005 12.1176 10.2074 12.114 10.2142 12.1104C10.2206 12.1071 10.227 12.1038 10.2335 12.1005C10.2404 12.0971 10.2473 12.0937 10.2543 12.0904C10.2611 12.0871 10.2681 12.0841 10.275 12.0809C10.2817 12.078 10.2884 12.0749 10.2952 12.0721C10.3078 12.0668 10.3205 12.0618 10.3334 12.057C10.3399 12.0546 10.3465 12.0524 10.353 12.0501C10.3608 12.0474 10.3685 12.0447 10.3763 12.0422C10.3833 12.0399 10.3904 12.0378 10.3974 12.0357C10.4051 12.0334 10.4129 12.0312 10.4207 12.0291C10.4277 12.0272 10.4346 12.0253 10.4416 12.0235C10.4505 12.0213 10.4594 12.0193 10.4683 12.0173C10.4745 12.016 10.4806 12.0145 10.4868 12.0132C10.5007 12.0104 10.5147 12.0079 10.5288 12.0057C10.5354 12.0046 10.5421 12.0038 10.5487 12.0029C10.5576 12.0017 10.5665 12.0005 10.5754 11.9995C10.5825 11.9987 10.5895 11.998 10.5967 11.9974C10.6055 11.9966 10.6144 11.9959 10.6234 11.9953C10.6303 11.9949 10.6372 11.9944 10.6442 11.9941C10.6553 11.9936 10.6666 11.9934 10.6779 11.9932C10.6821 11.9932 10.6862 11.9929 10.6904 11.9929C10.6948 11.9929 10.6991 11.9932 10.7035 11.9932C10.7145 11.9934 10.7256 11.9936 10.7365 11.9941C10.7437 11.9944 10.7508 11.9949 10.7579 11.9954C10.7666 11.9959 10.7752 11.9966 10.7838 11.9974C10.7912 11.998 10.7985 11.9987 10.8058 11.9996C10.8144 12.0005 10.8229 12.0017 10.8314 12.0028C10.8384 12.0038 10.8453 12.0047 10.8522 12.0058C10.8651 12.0078 10.8778 12.0101 10.8905 12.0126C10.8983 12.0142 10.9059 12.0159 10.9136 12.0176C10.9221 12.0195 10.9306 12.0214 10.939 12.0235C10.9462 12.0253 10.9533 12.0272 10.9605 12.0292C10.9681 12.0312 10.9756 12.0334 10.9832 12.0356C10.9903 12.0378 10.9975 12.0399 11.0047 12.0422C11.0123 12.0447 11.0199 12.0473 11.0274 12.05C11.0342 12.0523 11.0409 12.0546 11.0476 12.057C11.0604 12.0618 11.0731 12.0668 11.0857 12.0721C11.0924 12.0749 11.0991 12.078 11.1058 12.081C11.1128 12.0841 11.1197 12.0872 11.1266 12.0904C11.1336 12.0937 11.1404 12.097 11.1473 12.1005C11.1539 12.1038 11.1603 12.1071 11.1668 12.1105C11.1736 12.1141 11.1803 12.1176 11.187 12.1213C11.1938 12.1251 11.2004 12.129 11.207 12.1329C11.2174 12.139 11.2277 12.1452 11.2378 12.1516C11.245 12.1562 11.2522 12.1607 11.2592 12.1654C11.2656 12.1696 11.2718 12.1741 11.2781 12.1785C11.284 12.1826 11.2898 12.1867 11.2955 12.1909C11.3018 12.1955 11.308 12.2002 11.3142 12.2049C11.3198 12.2093 11.3254 12.2137 11.3309 12.2181C11.3369 12.2229 11.3429 12.2277 11.3488 12.2327C11.3549 12.2377 11.3607 12.2429 11.3666 12.2481C11.3762 12.2565 11.3855 12.265 11.3947 12.2738C11.4001 12.2789 11.4056 12.284 11.4109 12.2892C11.4164 12.2947 11.4218 12.3003 11.4272 12.3059C11.4321 12.3109 11.4369 12.316 11.4417 12.3211C11.447 12.3268 11.4523 12.3326 11.4575 12.3384C11.4622 12.3438 11.4668 12.3492 11.4714 12.3546C11.4764 12.3604 11.4814 12.3662 11.4862 12.3722C11.4929 12.3804 11.4994 12.3888 11.5059 12.3972C11.512 12.4053 11.518 12.4134 11.5239 12.4217C11.5282 12.4276 11.5325 12.4336 11.5366 12.4396C11.541 12.446 11.5452 12.4525 11.5495 12.459C11.5534 12.465 11.5572 12.471 11.561 12.4771C11.5651 12.4836 11.5692 12.4902 11.5732 12.4969C11.577 12.5033 11.5807 12.5099 11.5844 12.5164C11.5888 12.5244 11.5933 12.5323 11.5976 12.5404C11.6031 12.5507 11.6084 12.5611 11.6136 12.5717C11.6168 12.5784 11.6199 12.5852 11.623 12.5919C11.6261 12.5988 11.6293 12.6057 11.6323 12.6127C11.6354 12.6197 11.6383 12.6267 11.6412 12.6338C11.644 12.6408 11.6468 12.6479 11.6495 12.655C11.6521 12.662 11.6548 12.669 11.6574 12.6761C11.6578 12.6774 11.6583 12.6786 11.6588 12.6799H11.8809C11.9795 12.6799 12.0596 12.5996 12.0596 12.5006V11.9164C12.0596 11.8258 11.9927 11.7498 11.9032 11.7386L11.1447 11.6734C10.5696 11.6014 10.2258 11.3381 9.66749 10.708L9.48757 10.5051C9.35822 10.3591 9.17337 10.2758 8.97893 10.2758H7.15074C6.91271 10.2758 6.69229 10.4002 6.56879 10.6044L6.53303 10.6634C6.27644 11.0877 5.8355 11.4111 5.38086 11.4401C5.28734 11.446 5.2137 11.5243 5.2137 11.619V12.5339H5.21371Z" stroke="#3E7BFA" stroke-width="0.949413" mask="url(#path-5-outside-1_453_46402)"/>
<path d="M5.33769 10.7545C5.54334 10.7414 5.79808 10.5546 5.94794 10.3068L5.98372 10.2477C6.23116 9.83866 6.67345 9.58887 7.15072 9.58887H8.97893C9.36897 9.58887 9.74004 9.75615 9.99912 10.0486L10.179 10.2514C10.6324 10.7631 10.8727 10.9472 11.2166 10.9904L11.9749 11.0556C12.4201 11.1111 12.7441 11.4794 12.7441 11.9164V12.5006C12.7441 12.9789 12.3577 13.3668 11.8809 13.3668H11.6587C11.5177 13.767 11.1376 14.0536 10.6905 14.0536C10.2433 14.0536 9.86319 13.767 9.72223 13.3668H7.20889C7.06792 13.767 6.68784 14.0536 6.24066 14.0536C5.79048 14.0536 5.40837 13.7631 5.2697 13.3587C4.85096 13.3039 4.52913 12.9716 4.52913 12.5339V11.619C4.52913 11.1612 4.88426 10.7831 5.33769 10.7545ZM10.6905 13.3667C10.8794 13.3667 11.0323 13.2135 11.0327 13.024C11.0327 13.0238 11.0327 13.0236 11.0327 13.0234C11.0327 12.8335 10.8796 12.6799 10.6904 12.6799C10.5422 12.6799 10.4163 12.7747 10.3687 12.907C10.3556 12.9433 10.3482 12.9824 10.3482 13.0233C10.3482 13.2131 10.5013 13.3667 10.6905 13.3667ZM6.24066 13.3667C6.4296 13.3667 6.58253 13.2135 6.58291 13.024C6.58291 13.0238 6.58288 13.0236 6.58288 13.0234C6.58288 12.8335 6.42979 12.6799 6.24059 12.6799C6.09237 12.6799 5.96647 12.7747 5.91889 12.907C5.90583 12.9433 5.89836 12.9824 5.89836 13.0233C5.89836 13.2131 6.05146 13.3667 6.24066 13.3667ZM5.21371 12.5339C5.21371 12.5854 5.23793 12.6279 5.28184 12.6536C5.28485 12.6457 5.2881 12.638 5.2913 12.6302C5.2927 12.6268 5.29402 12.6234 5.29546 12.62C5.30122 12.6064 5.30729 12.5929 5.31363 12.5797C5.31567 12.5754 5.31785 12.5711 5.31996 12.5669C5.32449 12.5577 5.32912 12.5486 5.3339 12.5396C5.33669 12.5343 5.33953 12.5291 5.34241 12.5239C5.34695 12.5157 5.35163 12.5075 5.3564 12.4995C5.35934 12.4945 5.36223 12.4895 5.36525 12.4845C5.37234 12.473 5.37959 12.4616 5.38712 12.4503C5.39026 12.4456 5.39355 12.441 5.39676 12.4364C5.40217 12.4286 5.40762 12.4208 5.41324 12.4131C5.41723 12.4077 5.42133 12.4023 5.42542 12.397C5.43032 12.3906 5.43528 12.3842 5.44033 12.3779C5.44468 12.3725 5.44902 12.3671 5.45347 12.3618C5.45895 12.3552 5.46457 12.3488 5.47021 12.3424C5.47672 12.335 5.48328 12.3277 5.48999 12.3205C5.49656 12.3134 5.50316 12.3064 5.50993 12.2995C5.51504 12.2943 5.5203 12.2892 5.52554 12.2841C5.5308 12.279 5.5361 12.2739 5.54148 12.2689C5.54698 12.2637 5.55253 12.2587 5.55813 12.2536C5.56359 12.2487 5.56914 12.244 5.57471 12.2392C5.58031 12.2344 5.58584 12.2296 5.59154 12.2249C5.60165 12.2166 5.61191 12.2085 5.62234 12.2006C5.62826 12.1962 5.63431 12.1919 5.64032 12.1875C5.64619 12.1833 5.65207 12.179 5.65804 12.1749C5.66434 12.1705 5.67073 12.1662 5.67713 12.162C5.68308 12.1581 5.68909 12.1543 5.69513 12.1504C5.70155 12.1464 5.70793 12.1423 5.71445 12.1384C5.72165 12.1341 5.72897 12.13 5.73629 12.1258C5.74632 12.1202 5.75643 12.1147 5.76666 12.1093C5.7738 12.1056 5.78092 12.1018 5.78816 12.0983C5.79481 12.095 5.80153 12.0919 5.80826 12.0887C5.8151 12.0855 5.82198 12.0824 5.8289 12.0794C5.83565 12.0764 5.84241 12.0735 5.84923 12.0706C5.85691 12.0674 5.86467 12.0644 5.87246 12.0614C5.87998 12.0585 5.88748 12.0556 5.89507 12.0529C5.90655 12.0488 5.91812 12.0448 5.92977 12.0411C5.93625 12.0391 5.94282 12.0372 5.94936 12.0353C5.9574 12.0329 5.96545 12.0305 5.97357 12.0284C5.98038 12.0265 5.98718 12.0248 5.99403 12.0231C6.00247 12.021 6.01098 12.019 6.0195 12.0172C6.02589 12.0157 6.03226 12.0143 6.03869 12.013C6.05261 12.0102 6.06664 12.0077 6.08077 12.0055C6.08662 12.0045 6.09254 12.0038 6.09842 12.003C6.1079 12.0017 6.11739 12.0004 6.12695 11.9994C6.13376 11.9986 6.14058 11.998 6.14741 11.9974C6.15644 11.9965 6.1655 11.9959 6.17457 11.9953C6.18131 11.9949 6.18804 11.9944 6.19481 11.9941C6.20618 11.9936 6.21761 11.9934 6.22907 11.9932C6.23297 11.9932 6.23681 11.9929 6.24072 11.9929C6.2451 11.9929 6.24941 11.9932 6.25378 11.9933C6.26482 11.9934 6.27584 11.9936 6.28679 11.9941C6.29396 11.9944 6.30106 11.9949 6.30818 11.9954C6.31684 11.996 6.32549 11.9966 6.3341 11.9974C6.34146 11.998 6.34878 11.9988 6.35606 11.9996C6.36464 12.0005 6.37316 12.0017 6.38168 12.0028C6.38864 12.0038 6.39562 12.0047 6.40253 12.0058C6.4154 12.0078 6.42816 12.0101 6.44087 12.0126C6.44859 12.0142 6.45623 12.0159 6.46388 12.0176C6.47237 12.0195 6.48086 12.0214 6.48927 12.0235C6.49649 12.0253 6.50363 12.0272 6.51078 12.0292C6.51837 12.0313 6.52594 12.0334 6.53346 12.0356C6.54065 12.0378 6.54782 12.0399 6.55494 12.0422C6.56259 12.0447 6.57018 12.0473 6.57775 12.05C6.58445 12.0523 6.5912 12.0546 6.59784 12.057C6.61068 12.0618 6.62338 12.0668 6.63595 12.0721C6.64272 12.0749 6.64935 12.078 6.65605 12.0809C6.66304 12.0841 6.67001 12.0872 6.67689 12.0904C6.68383 12.0937 6.6907 12.097 6.69755 12.1005C6.7041 12.1037 6.71062 12.1071 6.71709 12.1105C6.72384 12.1141 6.73061 12.1176 6.73728 12.1213C6.74403 12.1251 6.75069 12.129 6.75735 12.1329C6.7677 12.139 6.77791 12.1452 6.78802 12.1516C6.79521 12.1561 6.80241 12.1606 6.80948 12.1654C6.81587 12.1696 6.82212 12.1741 6.8284 12.1785C6.83424 12.1826 6.84007 12.1867 6.8458 12.1909C6.85209 12.1955 6.8583 12.2002 6.86447 12.2049C6.8701 12.2093 6.87565 12.2137 6.88118 12.2181C6.88718 12.2229 6.89322 12.2277 6.89912 12.2327C6.90515 12.2377 6.91105 12.243 6.91697 12.2482C6.92646 12.2565 6.9358 12.265 6.94498 12.2737C6.95041 12.2789 6.95586 12.284 6.96117 12.2892C6.96669 12.2947 6.97207 12.3003 6.97747 12.3058C6.98235 12.3109 6.98721 12.316 6.99199 12.3211C6.99731 12.3268 7.00257 12.3326 7.00776 12.3384C7.01247 12.3438 7.01708 12.3492 7.02169 12.3546C7.02667 12.3604 7.03169 12.3662 7.03654 12.3722C7.0432 12.3804 7.04966 12.3887 7.05607 12.3971C7.06224 12.4052 7.06826 12.4134 7.07419 12.4217C7.07847 12.4276 7.08277 12.4336 7.08691 12.4396C7.09129 12.446 7.09555 12.4525 7.0998 12.459C7.10371 12.465 7.10755 12.471 7.11135 12.4771C7.11544 12.4836 7.11952 12.4902 7.12346 12.4968C7.12729 12.5033 7.13097 12.5099 7.13466 12.5164C7.13912 12.5243 7.14357 12.5322 7.14783 12.5403C7.15333 12.5507 7.15871 12.5611 7.16386 12.5717C7.1671 12.5784 7.17014 12.5851 7.17325 12.5919C7.17643 12.5988 7.17959 12.6057 7.18261 12.6127C7.18565 12.6197 7.18858 12.6267 7.19145 12.6338C7.19431 12.6408 7.19707 12.6479 7.19976 12.655C7.20243 12.662 7.20514 12.669 7.20766 12.6761C7.20812 12.6774 7.20863 12.6786 7.20909 12.6799H9.72196C9.72273 12.6777 9.72358 12.6756 9.72436 12.6735C9.726 12.6689 9.72774 12.6644 9.72943 12.6599C9.73316 12.65 9.73702 12.6402 9.74103 12.6304C9.7431 12.6253 9.74519 12.6203 9.74735 12.6153C9.75152 12.6056 9.75587 12.596 9.76033 12.5865C9.76239 12.5821 9.76434 12.5777 9.76647 12.5733C9.77283 12.5602 9.77944 12.5472 9.78634 12.5343C9.78863 12.5301 9.79107 12.526 9.79341 12.5217C9.79834 12.5129 9.80332 12.5041 9.8085 12.4954C9.81178 12.4899 9.81515 12.4845 9.81853 12.479C9.82309 12.4717 9.82772 12.4644 9.83247 12.4572C9.83613 12.4516 9.83977 12.4461 9.84353 12.4406C9.84856 12.4333 9.85374 12.4261 9.85896 12.4188C9.86253 12.4139 9.86599 12.4089 9.86966 12.404C9.87788 12.3931 9.88632 12.3823 9.89496 12.3717C9.89937 12.3663 9.90395 12.361 9.90848 12.3557C9.91351 12.3498 9.91856 12.3438 9.92372 12.338C9.92869 12.3324 9.93372 12.3269 9.9388 12.3215C9.94381 12.3161 9.94889 12.3108 9.95401 12.3055C9.95926 12.3 9.96449 12.2946 9.96984 12.2893C9.9753 12.2839 9.9809 12.2787 9.98648 12.2734C9.99557 12.2648 10.0048 12.2564 10.0142 12.2481C10.0201 12.2429 10.0259 12.2377 10.032 12.2327C10.0379 12.2277 10.044 12.2228 10.0501 12.218C10.0555 12.2136 10.061 12.2093 10.0665 12.205C10.0728 12.2002 10.0791 12.1955 10.0855 12.1908C10.0911 12.1867 10.0968 12.1827 10.1025 12.1787C10.1089 12.1742 10.1152 12.1697 10.1218 12.1653C10.1284 12.1609 10.1352 12.1566 10.142 12.1523C10.1526 12.1455 10.1634 12.139 10.1744 12.1326C10.1808 12.1288 10.1872 12.125 10.1937 12.1214C10.2005 12.1176 10.2074 12.114 10.2142 12.1104C10.2206 12.1071 10.227 12.1038 10.2335 12.1005C10.2404 12.0971 10.2473 12.0937 10.2543 12.0904C10.2611 12.0871 10.2681 12.0841 10.275 12.0809C10.2817 12.078 10.2884 12.0749 10.2952 12.0721C10.3078 12.0668 10.3205 12.0618 10.3334 12.057C10.3399 12.0546 10.3465 12.0524 10.353 12.0501C10.3608 12.0474 10.3685 12.0447 10.3763 12.0422C10.3833 12.0399 10.3904 12.0378 10.3974 12.0357C10.4051 12.0334 10.4129 12.0312 10.4207 12.0291C10.4277 12.0272 10.4346 12.0253 10.4416 12.0235C10.4505 12.0213 10.4594 12.0193 10.4683 12.0173C10.4745 12.016 10.4806 12.0145 10.4868 12.0132C10.5007 12.0104 10.5147 12.0079 10.5288 12.0057C10.5354 12.0046 10.5421 12.0038 10.5487 12.0029C10.5576 12.0017 10.5665 12.0005 10.5754 11.9995C10.5825 11.9987 10.5895 11.998 10.5967 11.9974C10.6055 11.9966 10.6144 11.9959 10.6234 11.9953C10.6303 11.9949 10.6372 11.9944 10.6442 11.9941C10.6553 11.9936 10.6666 11.9934 10.6779 11.9932C10.6821 11.9932 10.6862 11.9929 10.6904 11.9929C10.6948 11.9929 10.6991 11.9932 10.7035 11.9932C10.7145 11.9934 10.7256 11.9936 10.7365 11.9941C10.7437 11.9944 10.7508 11.9949 10.7579 11.9954C10.7666 11.9959 10.7752 11.9966 10.7838 11.9974C10.7912 11.998 10.7985 11.9987 10.8058 11.9996C10.8144 12.0005 10.8229 12.0017 10.8314 12.0028C10.8384 12.0038 10.8453 12.0047 10.8522 12.0058C10.8651 12.0078 10.8778 12.0101 10.8905 12.0126C10.8983 12.0142 10.9059 12.0159 10.9136 12.0176C10.9221 12.0195 10.9306 12.0214 10.939 12.0235C10.9462 12.0253 10.9533 12.0272 10.9605 12.0292C10.9681 12.0312 10.9756 12.0334 10.9832 12.0356C10.9903 12.0378 10.9975 12.0399 11.0047 12.0422C11.0123 12.0447 11.0199 12.0473 11.0274 12.05C11.0342 12.0523 11.0409 12.0546 11.0476 12.057C11.0604 12.0618 11.0731 12.0668 11.0857 12.0721C11.0924 12.0749 11.0991 12.078 11.1058 12.081C11.1128 12.0841 11.1197 12.0872 11.1266 12.0904C11.1336 12.0937 11.1404 12.097 11.1473 12.1005C11.1539 12.1038 11.1603 12.1071 11.1668 12.1105C11.1736 12.1141 11.1803 12.1176 11.187 12.1213C11.1938 12.1251 11.2004 12.129 11.207 12.1329C11.2174 12.139 11.2277 12.1452 11.2378 12.1516C11.245 12.1562 11.2522 12.1607 11.2592 12.1654C11.2656 12.1696 11.2718 12.1741 11.2781 12.1785C11.284 12.1826 11.2898 12.1867 11.2955 12.1909C11.3018 12.1955 11.308 12.2002 11.3142 12.2049C11.3198 12.2093 11.3254 12.2137 11.3309 12.2181C11.3369 12.2229 11.3429 12.2277 11.3488 12.2327C11.3549 12.2377 11.3607 12.2429 11.3666 12.2481C11.3762 12.2565 11.3855 12.265 11.3947 12.2738C11.4001 12.2789 11.4056 12.284 11.4109 12.2892C11.4164 12.2947 11.4218 12.3003 11.4272 12.3059C11.4321 12.3109 11.4369 12.316 11.4417 12.3211C11.447 12.3268 11.4523 12.3326 11.4575 12.3384C11.4622 12.3438 11.4668 12.3492 11.4714 12.3546C11.4764 12.3604 11.4814 12.3662 11.4862 12.3722C11.4929 12.3804 11.4994 12.3888 11.5059 12.3972C11.512 12.4053 11.518 12.4134 11.5239 12.4217C11.5282 12.4276 11.5325 12.4336 11.5366 12.4396C11.541 12.446 11.5452 12.4525 11.5495 12.459C11.5534 12.465 11.5572 12.471 11.561 12.4771C11.5651 12.4836 11.5692 12.4902 11.5732 12.4969C11.577 12.5033 11.5807 12.5099 11.5844 12.5164C11.5888 12.5244 11.5933 12.5323 11.5976 12.5404C11.6031 12.5507 11.6084 12.5611 11.6136 12.5717C11.6168 12.5784 11.6199 12.5852 11.623 12.5919C11.6261 12.5988 11.6293 12.6057 11.6323 12.6127C11.6354 12.6197 11.6383 12.6267 11.6412 12.6338C11.644 12.6408 11.6468 12.6479 11.6495 12.655C11.6521 12.662 11.6548 12.669 11.6574 12.6761C11.6578 12.6774 11.6583 12.6786 11.6588 12.6799H11.8809C11.9795 12.6799 12.0596 12.5996 12.0596 12.5006V11.9164C12.0596 11.8258 11.9927 11.7498 11.9032 11.7386L11.1447 11.6734C10.5696 11.6014 10.2258 11.3381 9.66749 10.708L9.48757 10.5051C9.35822 10.3591 9.17337 10.2758 8.97893 10.2758H7.15074C6.91271 10.2758 6.69229 10.4002 6.56879 10.6044L6.53303 10.6634C6.27644 11.0877 5.8355 11.4111 5.38086 11.4401C5.28734 11.446 5.2137 11.5243 5.2137 11.619V12.5339H5.21371Z" fill="white"/>
</svg>
