<svg width="49" height="23" viewBox="0 0 49 23" fill="none" xmlns="http://www.w3.org/2000/svg">
<path d="M18.7163 12.6819C18.1984 12.6819 17.6921 12.8355 17.2614 13.1232C16.8308 13.4109 16.4952 13.8199 16.297 14.2984C16.0988 14.7769 16.0469 15.3034 16.148 15.8114C16.249 16.3193 16.4984 16.7859 16.8646 17.1521C17.2309 17.5184 17.6974 17.7678 18.2054 17.8688C18.7134 17.9698 19.2399 17.918 19.7184 17.7198C20.1969 17.5216 20.6058 17.186 20.8936 16.7553C21.1813 16.3247 21.3349 15.8184 21.3349 15.3005C21.3341 14.6062 21.058 13.9406 20.567 13.4497C20.0761 12.9588 19.4105 12.6827 18.7163 12.6819V12.6819ZM18.7163 16.6971C18.4401 16.6971 18.17 16.6152 17.9404 16.4617C17.7107 16.3083 17.5317 16.0901 17.426 15.835C17.3203 15.5798 17.2926 15.2989 17.3465 15.028C17.4004 14.7571 17.5334 14.5083 17.7287 14.313C17.924 14.1176 18.1729 13.9846 18.4438 13.9307C18.7147 13.8769 18.9955 13.9045 19.2507 14.0102C19.5059 14.1159 19.724 14.2949 19.8775 14.5246C20.031 14.7543 20.1129 15.0243 20.1129 15.3005C20.1129 15.6709 19.9657 16.0261 19.7038 16.288C19.4419 16.55 19.0867 16.6971 18.7163 16.6971Z" fill="#232323"/>
<path d="M31.9858 12.6819C31.4679 12.6819 30.9616 12.8355 30.531 13.1232C30.1003 13.4109 29.7647 13.8199 29.5665 14.2984C29.3683 14.7769 29.3165 15.3034 29.4175 15.8114C29.5185 16.3193 29.7679 16.7859 30.1342 17.1521C30.5004 17.5184 30.967 17.7678 31.4749 17.8688C31.9829 17.9698 32.5094 17.918 32.9879 17.7198C33.4664 17.5216 33.8754 17.186 34.1631 16.7553C34.4508 16.3247 34.6044 15.8184 34.6044 15.3005C34.6036 14.6062 34.3275 13.9406 33.8366 13.4497C33.3457 12.9588 32.6801 12.6827 31.9858 12.6819V12.6819ZM31.9858 16.6971C31.7096 16.6971 31.4396 16.6152 31.2099 16.4617C30.9802 16.3083 30.8012 16.0901 30.6955 15.835C30.5898 15.5798 30.5622 15.2989 30.616 15.028C30.6699 14.7571 30.8029 14.5083 30.9983 14.313C31.1936 14.1176 31.4424 13.9846 31.7133 13.9307C31.9843 13.8769 32.2651 13.9045 32.5203 14.0102C32.7755 14.1159 32.9936 14.2949 33.147 14.5246C33.3005 14.7543 33.3824 15.0243 33.3824 15.3005C33.3824 15.6709 33.2353 16.0261 32.9733 16.288C32.7114 16.55 32.3562 16.6971 31.9858 16.6971Z" fill="#232323"/>
<path d="M35.6763 10.9633C33.9429 10.2482 31.2857 9.01588 31.2857 9.01588L29.1694 5.58057C29.0224 5.39887 28.8365 5.25242 28.6254 5.15196C28.4144 5.05149 28.1835 4.99957 27.9498 5.00001H17.4823C17.1254 4.99881 16.7753 5.09763 16.4716 5.28528C16.168 5.47293 15.923 5.7419 15.7645 6.06169L14.2028 9.18516C14.0694 9.45183 14 9.74588 14 10.044V14.254C14 14.6707 14.1656 15.0704 14.4603 15.3651C14.755 15.6598 15.1547 15.8254 15.5714 15.8254H15.6159C15.5392 15.3746 15.5619 14.9124 15.6823 14.4712C15.8026 14.03 16.0179 13.6204 16.3129 13.271C16.6079 12.9216 16.9756 12.6407 17.3904 12.4481C17.8052 12.2555 18.257 12.1557 18.7143 12.1557C19.1716 12.1557 19.6234 12.2555 20.0382 12.4481C20.4529 12.6407 20.8207 12.9216 21.1157 13.271C21.4107 13.6204 21.6259 14.03 21.7463 14.4712C21.8667 14.9124 21.8893 15.3746 21.8127 15.8254H28.8858C28.8098 15.3808 28.8304 14.925 28.9462 14.4891C29.062 14.0531 29.2702 13.6472 29.5568 13.2989C29.8435 12.9505 30.2017 12.668 30.6072 12.4704C31.0127 12.2728 31.456 12.1649 31.9069 12.1538C32.3578 12.1427 32.8059 12.2289 33.2206 12.4064C33.6352 12.5838 34.0069 12.8485 34.3102 13.1823C34.6135 13.5162 34.8414 13.9114 34.9785 14.3412C35.1155 14.7709 35.1584 15.2252 35.1043 15.673C35.3724 15.5453 35.5989 15.3442 35.7574 15.093C35.9159 14.8419 36.0001 14.551 36 14.254V11.4472C36 11.3436 35.9693 11.2422 35.9117 11.1561C35.854 11.0699 35.7721 11.0028 35.6763 10.9633V10.9633ZM16.4619 8.63372C16.4036 8.74871 16.3145 8.84529 16.2046 8.91275C16.0948 8.98021 15.9683 9.01591 15.8394 9.01588H15.1604C15.1604 9.01588 16.2691 6.81859 16.686 6.02297C16.7303 5.93825 16.797 5.86729 16.8788 5.81777C16.9606 5.76826 17.0544 5.74208 17.15 5.74207H17.5789C17.6162 5.74206 17.6528 5.75156 17.6853 5.76969C17.7178 5.78782 17.7452 5.81397 17.7647 5.84564C17.7843 5.87732 17.7954 5.91348 17.7971 5.95067C17.7987 5.98787 17.7908 6.02487 17.7741 6.05815L17.7724 6.06169C17.7724 6.06169 16.8672 7.83491 16.4619 8.63372ZM18.7143 10.9365H18.0159C17.877 10.9365 17.7437 10.8813 17.6455 10.7831C17.5473 10.6849 17.4921 10.5516 17.4921 10.4127C17.4921 10.2738 17.5473 10.1406 17.6455 10.0423C17.7437 9.94409 17.877 9.8889 18.0159 9.8889H18.7143C18.8532 9.8889 18.9864 9.94409 19.0847 10.0423C19.1829 10.1406 19.2381 10.2738 19.2381 10.4127C19.2381 10.5516 19.1829 10.6849 19.0847 10.7831C18.9864 10.8813 18.8532 10.9365 18.7143 10.9365V10.9365ZM23.4286 8.49207C23.4286 8.63095 23.3734 8.76414 23.2752 8.86237C23.1771 8.9606 23.0439 9.01581 22.905 9.01588H18.2167C18.1269 9.01586 18.0387 8.99276 17.9604 8.94882C17.8821 8.90488 17.8165 8.84156 17.7697 8.76494C17.7229 8.68832 17.6967 8.60097 17.6934 8.51127C17.6901 8.42157 17.7099 8.33253 17.7509 8.25269C18.1184 7.5383 18.6506 6.50972 18.9118 6.01978C18.9564 5.93595 19.023 5.86582 19.1044 5.8169C19.1858 5.76799 19.2789 5.74212 19.3739 5.74207H22.9048C23.0437 5.74207 23.1769 5.79726 23.2752 5.89549C23.3734 5.99373 23.4286 6.12696 23.4286 6.26588V8.49207ZM26.3968 10.9365H25.7421C25.6031 10.9365 25.4699 10.8813 25.3717 10.7831C25.2734 10.6849 25.2183 10.5516 25.2183 10.4127C25.2183 10.2738 25.2734 10.1406 25.3717 10.0423C25.4699 9.94409 25.6031 9.8889 25.7421 9.8889H26.3968C26.5357 9.8889 26.669 9.94409 26.7672 10.0423C26.8654 10.1406 26.9206 10.2738 26.9206 10.4127C26.9206 10.5516 26.8654 10.6849 26.7672 10.7831C26.669 10.8813 26.5357 10.9365 26.3968 10.9365ZM25.5238 9.01588C25.3849 9.01588 25.2517 8.9607 25.1534 8.86246C25.0552 8.76423 25 8.631 25 8.49207V6.26588C25 6.12696 25.0552 5.99373 25.1534 5.89549C25.2517 5.79726 25.3849 5.74207 25.5238 5.74207H28.396L30.4127 9.01588H25.5238Z" fill="#232323"/>
</svg>
