<svg width="49" height="43" viewBox="0 0 49 43" fill="none" xmlns="http://www.w3.org/2000/svg">
<path d="M47.4739 34.1099L28.5914 2.90989C26.4164 -0.715421 21.1439 -0.755734 18.9314 2.93427L1.07669 34.0968C-1.16206 37.8505 1.54075 42.6046 5.90763 42.6046H42.6355C47.0314 42.6046 49.6939 37.8074 47.4739 34.1099ZM23.7688 36.9796C22.2182 36.9796 20.9563 35.7177 20.9563 34.1671C20.9563 32.6165 22.2182 31.3546 23.7688 31.3546C25.3185 31.3546 26.5813 32.6165 26.5813 34.1671C26.5813 35.7177 25.3185 36.9796 23.7688 36.9796ZM26.6188 22.9171C26.6188 24.4677 25.3185 25.7296 23.7688 25.7296C22.2182 25.7296 20.975 24.4677 20.975 22.9171V11.6671C20.975 10.1165 22.2182 8.85458 23.7688 8.85458C25.3185 8.85458 26.6188 10.1165 26.6188 11.6671V22.9171Z" fill="#FF5C5C"/>
</svg>
