<svg width="42" height="40" viewBox="0 0 42 40" fill="none" xmlns="http://www.w3.org/2000/svg">
<path d="M40.722 8.13185C40.0355 8.71055 39.324 9.26031 38.6706 9.87208C37.3576 11.0997 36.0031 12.2551 34.3063 12.9475C33.7235 13.1851 33.3314 13.6502 33.0493 14.2082C32.6739 14.9522 32.1512 15.4317 31.253 15.6053C30.0126 15.8451 29.1912 17.9263 29.7803 19.1519C30.2615 20.1523 31.0331 20.9542 31.7073 21.8222C31.8587 22.0186 32.0246 22.2046 32.1574 22.4133C32.286 22.6138 32.4913 22.8287 32.3254 23.085C32.1615 23.3372 31.9022 23.2731 31.6513 23.207C31.3588 23.1284 31.0622 23.0581 30.7635 23.0147C30.4938 22.9755 30.1287 22.8597 29.9566 22.9837C29.131 23.5769 28.3947 23.1863 27.6127 22.9135C26.6709 22.5849 26.0072 22.8329 25.4886 23.6678C25.3164 23.9448 25.1443 24.2527 25.0924 24.5669C24.8228 26.1604 23.7151 26.9148 22.3233 27.4335C20.2532 28.2065 18.1893 28.9423 15.9242 28.9671C14.6568 28.9795 13.9536 29.7793 13.825 31.0855C13.7918 31.4162 13.852 31.7758 13.3998 31.8564C12.9704 31.9329 12.6385 31.7655 12.4228 31.3955C12.1573 30.9471 11.9229 30.48 11.6449 30.0377C11.3131 29.5086 10.8381 29.3102 10.222 29.5148C10.1701 29.5313 10.1121 29.5375 10.0623 29.5602C7.25372 30.8685 5.21056 29.2213 3.11762 27.7787C2.98694 27.6877 2.81478 27.5389 2.80648 27.4067C2.72766 26.0798 1.57022 25.096 1.66564 23.703C1.70505 23.1305 1.39183 22.5911 1.17404 22.0578C1.03713 21.7271 0.900232 21.3944 0.906454 21.0286C0.910603 20.7351 1.02261 20.4726 1.30886 20.3651C1.59719 20.2556 1.75483 20.4891 1.9187 20.6793C3.23171 22.219 3.48477 22.219 4.79156 20.6813C5.12967 20.2825 5.44703 19.865 5.80795 19.4867C6.82434 18.4162 7.72043 18.2239 9.09359 18.7675C9.37569 18.8791 9.64327 19.0238 9.91293 19.1643C11.0807 19.7699 11.7009 19.5405 12.1531 18.2673C12.4581 17.4055 12.4954 16.4982 12.4767 15.5867C12.456 14.5823 12.6655 14.4562 13.6694 14.6753C18.2162 15.6673 22.734 15.9484 27.1708 14.1131C28.0088 13.7659 28.8987 13.5427 29.774 13.2967C31.1327 12.9164 32.3067 12.2282 33.3335 11.2734C33.6363 10.9923 33.9578 10.7215 34.354 10.581C36.3868 9.86381 38.3408 8.96683 40.2885 8.05538C40.3819 8.01198 40.4939 8.00784 40.5955 7.98511C40.637 8.03264 40.6785 8.08225 40.722 8.13185Z" stroke="#2727C2" stroke-width="1.59263"/>
</svg>
