<svg width="41" height="41" viewBox="0 0 41 41" fill="none" xmlns="http://www.w3.org/2000/svg">
<path d="M20.4919 25.8445H17.9373V29.7988H16.0476V25.8445H7.8006V24.2114L15.9193 12.6516H17.9373V24.0948H20.4919V25.8445ZM16.0476 24.0948V18.519C16.0476 18.0913 16.0515 17.7063 16.0593 17.3642C16.067 17.0142 16.0787 16.6915 16.0943 16.396C16.1098 16.0927 16.1215 15.805 16.1293 15.5328C16.1448 15.2606 16.1565 14.9923 16.1643 14.7279H16.0709C15.9232 15.039 15.7521 15.3695 15.5577 15.7194C15.371 16.0616 15.1805 16.3688 14.9861 16.641L9.72529 24.0948H16.0476ZM27.5257 19.3705C28.6845 19.3705 29.6915 19.5688 30.5469 19.9654C31.4023 20.3542 32.0633 20.9219 32.5299 21.6685C33.0043 22.415 33.2415 23.321 33.2415 24.3864C33.2415 25.5528 32.9888 26.5599 32.4833 27.4075C31.9778 28.2474 31.2507 28.8968 30.302 29.3556C29.3532 29.8066 28.2179 30.0321 26.8959 30.0321C26.0093 30.0321 25.185 29.9544 24.4229 29.7988C23.6608 29.6433 23.0193 29.41 22.4982 29.0989V27.2559C23.0659 27.5981 23.7541 27.8703 24.5629 28.0724C25.3717 28.2746 26.1571 28.3757 26.9192 28.3757C27.7824 28.3757 28.5367 28.2396 29.1821 27.9675C29.8354 27.6875 30.3408 27.2676 30.6986 26.7077C31.0641 26.14 31.2468 25.4284 31.2468 24.573C31.2468 23.4376 30.8969 22.5628 30.197 21.9484C29.5049 21.3263 28.4084 21.0152 26.9075 21.0152C26.4254 21.0152 25.8966 21.0541 25.3211 21.1319C24.7456 21.2097 24.2713 21.2952 23.898 21.3885L22.9182 20.747L23.5714 12.7449H32.0517V14.518H25.2278L24.7962 19.6621C25.0917 19.5999 25.4727 19.5377 25.9393 19.4755C26.4059 19.4055 26.9347 19.3705 27.5257 19.3705Z" fill="#2727C2"/>
</svg>
