<svg width="49" height="23" viewBox="0 0 49 23" fill="none" xmlns="http://www.w3.org/2000/svg">
<path d="M31.4381 13.3983C30.9688 13.3983 30.5101 13.5375 30.1199 13.7982C29.7297 14.0589 29.4256 14.4295 29.246 14.863C29.0665 15.2965 29.0195 15.7736 29.111 16.2338C29.2026 16.6941 29.4285 17.1168 29.7604 17.4487C30.0922 17.7805 30.5149 18.0065 30.9752 18.098C31.4354 18.1896 31.9125 18.1426 32.346 17.963C32.7796 17.7834 33.1501 17.4793 33.4108 17.0891C33.6715 16.6989 33.8107 16.2402 33.8107 15.771C33.81 15.1419 33.5598 14.5388 33.115 14.094C32.6702 13.6492 32.0671 13.399 31.4381 13.3983V13.3983ZM31.4381 17.0485C31.1854 17.0485 30.9384 16.9736 30.7283 16.8332C30.5182 16.6928 30.3544 16.4933 30.2577 16.2599C30.161 16.0264 30.1357 15.7695 30.185 15.5217C30.2343 15.2739 30.356 15.0463 30.5347 14.8676C30.7134 14.6889 30.941 14.5672 31.1888 14.5179C31.4366 14.4686 31.6935 14.4939 31.927 14.5906C32.1604 14.6873 32.3599 14.8511 32.5003 15.0612C32.6407 15.2713 32.7156 15.5183 32.7156 15.771C32.7152 16.1097 32.5805 16.4344 32.341 16.6739C32.1015 16.9134 31.7768 17.0481 31.4381 17.0485V17.0485Z" fill="#232323"/>
<path d="M18.2925 13.3983C17.8233 13.3983 17.3646 13.5375 16.9744 13.7982C16.5842 14.0589 16.2801 14.4295 16.1005 14.863C15.9209 15.2965 15.874 15.7736 15.9655 16.2338C16.0571 16.6941 16.283 17.1168 16.6148 17.4487C16.9467 17.7805 17.3694 18.0065 17.8297 18.098C18.2899 18.1896 18.767 18.1426 19.2005 17.963C19.634 17.7834 20.0046 17.4793 20.2653 17.0891C20.526 16.6989 20.6652 16.2402 20.6652 15.771C20.6645 15.1419 20.4143 14.5388 19.9695 14.094C19.5247 13.6492 18.9216 13.399 18.2925 13.3983V13.3983ZM18.2925 17.0485C18.0399 17.0485 17.7929 16.9736 17.5828 16.8332C17.3727 16.6928 17.2089 16.4933 17.1122 16.2599C17.0155 16.0264 16.9902 15.7695 17.0395 15.5217C17.0888 15.2739 17.2105 15.0463 17.3892 14.8676C17.5678 14.6889 17.7955 14.5672 18.0433 14.5179C18.2911 14.4686 18.548 14.4939 18.7814 14.5906C19.0149 14.6873 19.2144 14.8511 19.3548 15.0612C19.4952 15.2713 19.5701 15.5183 19.5701 15.771C19.5697 16.1097 19.435 16.4344 19.1955 16.6739C18.956 16.9134 18.6313 17.0481 18.2925 17.0485V17.0485Z" fill="#232323"/>
<path d="M35.5479 11.5794L31.3348 10.8334L27.9654 7.50607C27.7608 7.30298 27.4841 7.18933 27.1958 7.19005H18.7072C18.3817 7.18936 18.0634 7.28568 17.7929 7.4667C17.5224 7.64772 17.3119 7.90524 17.1884 8.20639L16.1018 10.8409H14.0952C13.8049 10.8412 13.5265 10.9567 13.3212 11.162C13.1158 11.3673 13.0003 11.6457 13 11.9361V15.2218C13.0003 15.5122 13.1158 15.7906 13.3212 15.9959C13.5265 16.2012 13.8049 16.3167 14.0952 16.317H15.4253C15.3443 15.8946 15.3576 15.4595 15.4643 15.0427C15.5709 14.626 15.7683 14.238 16.0424 13.9064C16.3164 13.5749 16.6603 13.3079 17.0495 13.1247C17.4387 12.9414 17.8635 12.8464 18.2937 12.8464C18.7238 12.8464 19.1486 12.9414 19.5378 13.1247C19.927 13.3079 20.2709 13.5749 20.5449 13.9064C20.819 14.238 21.0164 14.626 21.123 15.0427C21.2297 15.4595 21.243 15.8946 21.162 16.317H28.5681C28.4871 15.8946 28.5004 15.4595 28.6071 15.0427C28.7138 14.626 28.9112 14.238 29.1852 13.9064C29.4593 13.5749 29.8032 13.3079 30.1923 13.1247C30.5815 12.9414 31.0064 12.8464 31.4365 12.8464C31.8667 12.8464 32.2915 12.9414 32.6807 13.1247C33.0699 13.3079 33.4137 13.5749 33.6878 13.9064C33.9618 14.238 34.1592 14.626 34.2659 15.0427C34.3726 15.4595 34.3859 15.8946 34.3049 16.317H34.3571C34.7927 16.3166 35.2103 16.1433 35.5183 15.8353C35.8263 15.5273 35.9995 15.1098 36 14.6742V12.1186C36 11.99 35.9547 11.8654 35.872 11.7668C35.7893 11.6682 35.6746 11.6019 35.5479 11.5794ZM19.0694 10.2932C19.0694 10.4385 19.0117 10.5778 18.9091 10.6805C18.8064 10.7832 18.6671 10.8409 18.5218 10.8409H17.241C17.196 10.8409 17.1517 10.8298 17.112 10.8086C17.0724 10.7874 17.0385 10.7567 17.0135 10.7193C16.9884 10.6819 16.973 10.639 16.9686 10.5942C16.9641 10.5494 16.9707 10.5042 16.9879 10.4626L17.7463 8.62409C17.7877 8.52383 17.8579 8.43811 17.948 8.37779C18.0381 8.31748 18.1441 8.28528 18.2526 8.28529H18.5218C18.6671 8.28529 18.8064 8.34299 18.9091 8.44569C19.0117 8.54838 19.0694 8.68767 19.0694 8.83291V10.2932ZM23.7698 10.2932C23.7698 10.4385 23.7121 10.5778 23.6094 10.6805C23.5067 10.7832 23.3675 10.8409 23.2222 10.8409H20.5298C20.3845 10.8409 20.2452 10.7832 20.1425 10.6805C20.0398 10.5778 19.9821 10.4385 19.9821 10.2932V8.83291C19.9821 8.68767 20.0398 8.54838 20.1425 8.44569C20.2452 8.34299 20.3845 8.28529 20.5298 8.28529H23.2222C23.3675 8.28529 23.5067 8.34299 23.6094 8.44569C23.7121 8.54838 23.7698 8.68767 23.7698 8.83291V10.2932ZM25.9603 12.8488H25.2302C25.0849 12.8488 24.9456 12.7911 24.8429 12.6884C24.7402 12.5857 24.6825 12.4464 24.6825 12.3012C24.6825 12.1559 24.7402 12.0166 24.8429 11.9139C24.9456 11.8112 25.0849 11.7536 25.2302 11.7536H25.9603C26.1056 11.7536 26.2448 11.8112 26.3475 11.9139C26.4502 12.0166 26.5079 12.1559 26.5079 12.3012C26.5079 12.4464 26.4502 12.5857 26.3475 12.6884C26.2448 12.7911 26.1056 12.8488 25.9603 12.8488ZM29.7911 10.8409H25.2302C25.0849 10.8409 24.9456 10.7832 24.8429 10.6805C24.7402 10.5778 24.6825 10.4385 24.6825 10.2932V8.83291C24.6825 8.68767 24.7402 8.54838 24.8429 8.44569C24.9456 8.34299 25.0849 8.28529 25.2302 8.28529H27.6192C27.762 8.28531 27.8991 8.34108 28.0014 8.44072L29.9822 10.3711C30.0212 10.4091 30.0479 10.4579 30.059 10.5111C30.0701 10.5644 30.0651 10.6198 30.0446 10.6702C30.0241 10.7206 29.989 10.7638 29.9439 10.7942C29.8987 10.8246 29.8456 10.8408 29.7911 10.8409V10.8409Z" fill="#232323"/>
<path d="M25.0224 5.37437C24.986 5.26536 24.9163 5.17054 24.8231 5.10335C24.7299 5.03616 24.6179 5 24.503 5H21.5828C21.4679 4.99999 21.3559 5.03611 21.2627 5.10326C21.1695 5.1704 21.0997 5.26517 21.0634 5.37414L20.6406 6.64259H25.4452L25.0224 5.37437Z" fill="#232323"/>
</svg>
