<svg width="41" height="41" viewBox="0 0 41 41" fill="none" xmlns="http://www.w3.org/2000/svg">
<mask id="path-1-inside-1_562_13060" fill="white">
<path d="M30.577 11.8278C30.439 11.7239 30.348 11.801 30.2688 11.8438C29.0047 12.5385 27.5694 12.8532 26.3995 13.7908C25.4148 14.5796 24.0757 14.6749 22.9005 15.0966C22.1427 15.3685 21.3431 15.4305 20.5415 15.4102C19.4872 15.3835 18.4393 15.2989 17.4128 15.0324C16.9012 14.8997 16.7813 15.0067 16.7781 15.5419C16.776 15.8394 16.7835 16.1434 16.7321 16.4345C16.5672 17.3636 16.2119 17.5413 15.3824 17.1378C14.5036 16.7107 14.0712 16.7942 13.4247 17.5199C13.1978 17.7746 12.9891 18.0476 12.7515 18.2916C12.425 18.6255 12.1574 18.6063 11.8491 18.2552C11.7935 18.191 11.7507 18.1161 11.6961 18.0497C11.5912 17.9223 11.5002 17.7243 11.2915 17.8463C11.1245 17.9437 11.0999 18.1332 11.1673 18.3034C11.3996 18.8878 11.4895 19.5054 11.6394 20.109C11.7335 20.4869 12.0086 20.8219 12.0654 21.2361C12.0782 21.3303 12.1863 21.4309 12.2762 21.493C13.3016 22.2005 14.3099 22.9679 15.6756 22.3129C15.9871 22.1641 16.2601 22.315 16.4324 22.6126C16.5533 22.8213 16.6593 23.0386 16.7824 23.2462C16.8884 23.425 17.0564 23.4881 17.2587 23.4496C17.4706 23.4089 17.4492 23.242 17.4621 23.0835C17.5156 22.4371 17.8624 22.0539 18.5271 22.0367C19.545 22.01 20.4826 21.7049 21.4224 21.3614C22.2133 21.0724 22.8074 20.6635 23.0247 19.7676C23.2056 19.0226 23.6829 18.8535 24.4097 19.1318C24.582 19.1971 24.7811 19.3555 24.9331 19.2635C25.3784 18.997 25.8076 19.1372 26.2518 19.2196C26.5322 19.271 26.5921 19.134 26.469 18.9017C26.4166 18.8021 26.3417 18.7144 26.2721 18.6234C25.9778 18.2391 25.6652 17.8677 25.3912 17.4696C24.9128 16.7738 25.267 15.6189 26.0281 15.4637C26.4112 15.3856 26.6424 15.2015 26.8062 14.8825C27.0032 14.5004 27.3007 14.235 27.6957 14.0594C28.233 13.8207 28.7125 13.4964 29.1449 13.0929C29.6073 12.6605 30.0943 12.2527 30.577 11.8278ZM13.3219 24.2716C13.4889 24.9802 13.9267 25.281 14.4694 25.4747C14.5443 25.5015 14.6331 25.5678 14.7006 25.4833C14.7573 25.4126 14.723 25.3195 14.6834 25.2446C14.4073 24.7222 13.9374 24.475 13.3219 24.2716ZM15.2893 26.2593C14.89 25.8515 14.1247 25.6877 13.5981 25.8975C14.0316 26.4658 14.7915 26.6285 15.2893 26.2593ZM26.7431 25.8825C26.1544 25.7123 25.6706 25.8322 25.1996 26.0398C25.1011 26.0827 24.9513 26.1437 24.9748 26.2603C25.0005 26.3888 25.1568 26.4284 25.2852 26.4466C25.8515 26.5247 26.2882 26.2775 26.7431 25.8825ZM25.6556 25.5175C26.0345 25.5175 26.8051 24.8828 26.8661 24.5092C26.8833 24.4022 26.9004 24.3166 26.7334 24.3294C26.3663 24.3605 25.6074 24.977 25.5271 25.327C25.5057 25.4223 25.464 25.5357 25.6556 25.5175ZM14.8857 24.018C14.7102 24.6024 14.8472 25.0637 15.1094 25.5025C15.1587 25.586 15.2315 25.6963 15.3363 25.6684C15.4648 25.6342 15.4637 25.4833 15.4562 25.3827C15.423 24.8956 15.3224 24.4311 14.8857 24.018ZM21.174 27.6828C21.6568 27.3039 21.8665 26.8565 21.9661 26.347C21.9811 26.2678 21.9982 26.1651 21.8965 26.1265C21.8034 26.0912 21.7349 26.1683 21.6771 26.2239C21.2779 26.5954 21.112 27.0556 21.174 27.6828ZM25.358 24.0062C24.9577 24.4268 24.8047 24.8742 24.8047 25.3827C24.8047 25.4854 24.7704 25.6385 24.9213 25.6663C25.0262 25.6866 25.0926 25.5753 25.1418 25.494C25.404 25.0551 25.5132 24.5906 25.358 24.0062ZM24.7875 27.716C24.3883 27.1477 23.7803 26.9732 23.2259 27.2793C23.6904 27.6389 24.1485 27.9065 24.7875 27.716ZM23.8574 28.142C23.3864 27.7396 22.9112 27.5672 22.33 27.7374C22.6329 28.294 23.1167 28.4299 23.8574 28.142ZM15.468 27.6957C16.0428 27.8776 16.6165 27.6957 16.9708 27.2354C16.4174 26.9925 15.8758 27.1498 15.468 27.6957ZM17.5231 27.6571C17.1474 27.7042 16.7588 27.7717 16.4677 28.0831C16.4185 28.1356 16.4602 28.1795 16.5105 28.2169C16.7257 28.3786 17.4128 28.2983 17.6804 28.0746C17.7767 27.9932 17.9223 27.9001 17.8816 27.776C17.842 27.6518 17.6697 27.67 17.5231 27.6571ZM16.5983 25.3109C16.426 25.875 16.5897 26.3085 16.853 26.7217C16.9044 26.803 16.9804 26.91 17.0853 26.8651C17.1731 26.8276 17.1945 26.7088 17.2009 26.6061C17.233 26.0869 16.989 25.7016 16.5983 25.3109ZM23.6744 25.3677C23.2227 25.6802 22.9465 26.2914 23.0536 26.681C23.1135 26.8961 23.213 26.9443 23.3575 26.757C23.6722 26.3502 23.7825 25.8943 23.6744 25.3677ZM22.8566 25.7091C22.436 26.1458 22.1095 26.5108 22.1159 27.0524C22.117 27.1316 22.147 27.229 22.1994 27.2847C22.2562 27.3446 22.33 27.2782 22.3739 27.2269C22.7207 26.818 22.9241 26.362 22.8566 25.7091ZM19.0376 27.6721C19.1361 26.8983 18.8792 26.3631 18.2905 26.1083C18.2798 26.7495 18.5602 27.2194 19.0376 27.6721ZM24.0972 26.3192C24.4825 25.9178 24.6387 25.4983 24.6034 25.0112C24.5981 24.9385 24.5895 24.8304 24.4889 24.8036C24.4011 24.78 24.368 24.8657 24.3294 24.9181C24.0329 25.3227 23.8531 25.7519 24.0972 26.3192ZM17.385 25.7509C17.3229 26.3171 17.5124 26.7238 17.7682 27.107C17.8292 27.199 17.9116 27.3371 18.0251 27.2932C18.1524 27.2429 18.1514 27.0781 18.1364 26.9518C18.0796 26.4605 17.8078 26.1009 17.385 25.7509ZM21.4801 27.9954C21.7927 28.6665 22.2208 28.8677 22.9155 28.6965C22.5462 28.2512 22.0924 28.02 21.4801 27.9954ZM16.1391 26.2582C16.3757 25.7712 16.2686 25.3249 15.7838 24.7747C15.5097 25.2114 15.6607 25.8397 16.1391 26.2582ZM24.1999 26.7923C24.6366 27.1519 25.0669 27.1123 25.4982 27.0438C25.5924 27.0288 25.7112 26.9914 25.7273 26.8865C25.7487 26.7441 25.6042 26.7056 25.5089 26.6724C25.0894 26.5247 24.6848 26.6307 24.1999 26.7923ZM15.9668 26.8019C15.4766 26.5782 14.9607 26.5343 14.6792 26.7003C14.5636 26.7677 14.3848 26.8362 14.6139 26.9892C14.9403 27.2076 15.666 27.1081 15.9668 26.8019ZM17.3047 28.7179C18.1182 28.8281 18.5067 28.6312 18.7497 27.9932C18.1631 28.0211 17.7147 28.2448 17.3047 28.7179ZM20.8433 28.4695C20.8636 28.2298 20.5736 28.2844 20.6442 28.1356C20.6902 28.0371 20.8519 27.9322 20.6089 27.9943C20.1658 28.1088 19.5985 27.8477 19.3052 28.4374C19.804 28.3518 20.3178 28.1998 20.8433 28.4695ZM30.6991 11.7207C30.6916 11.7122 30.6841 11.6972 30.6755 11.6961C30.667 11.695 30.6573 11.7089 30.6477 11.7164C30.6562 11.725 30.6648 11.7389 30.6734 11.7389C30.683 11.7389 30.6926 11.7261 30.6991 11.7207Z"/>
</mask>
<path d="M30.577 11.8278C30.439 11.7239 30.348 11.801 30.2688 11.8438C29.0047 12.5385 27.5694 12.8532 26.3995 13.7908C25.4148 14.5796 24.0757 14.6749 22.9005 15.0966C22.1427 15.3685 21.3431 15.4305 20.5415 15.4102C19.4872 15.3835 18.4393 15.2989 17.4128 15.0324C16.9012 14.8997 16.7813 15.0067 16.7781 15.5419C16.776 15.8394 16.7835 16.1434 16.7321 16.4345C16.5672 17.3636 16.2119 17.5413 15.3824 17.1378C14.5036 16.7107 14.0712 16.7942 13.4247 17.5199C13.1978 17.7746 12.9891 18.0476 12.7515 18.2916C12.425 18.6255 12.1574 18.6063 11.8491 18.2552C11.7935 18.191 11.7507 18.1161 11.6961 18.0497C11.5912 17.9223 11.5002 17.7243 11.2915 17.8463C11.1245 17.9437 11.0999 18.1332 11.1673 18.3034C11.3996 18.8878 11.4895 19.5054 11.6394 20.109C11.7335 20.4869 12.0086 20.8219 12.0654 21.2361C12.0782 21.3303 12.1863 21.4309 12.2762 21.493C13.3016 22.2005 14.3099 22.9679 15.6756 22.3129C15.9871 22.1641 16.2601 22.315 16.4324 22.6126C16.5533 22.8213 16.6593 23.0386 16.7824 23.2462C16.8884 23.425 17.0564 23.4881 17.2587 23.4496C17.4706 23.4089 17.4492 23.242 17.4621 23.0835C17.5156 22.4371 17.8624 22.0539 18.5271 22.0367C19.545 22.01 20.4826 21.7049 21.4224 21.3614C22.2133 21.0724 22.8074 20.6635 23.0247 19.7676C23.2056 19.0226 23.6829 18.8535 24.4097 19.1318C24.582 19.1971 24.7811 19.3555 24.9331 19.2635C25.3784 18.997 25.8076 19.1372 26.2518 19.2196C26.5322 19.271 26.5921 19.134 26.469 18.9017C26.4166 18.8021 26.3417 18.7144 26.2721 18.6234C25.9778 18.2391 25.6652 17.8677 25.3912 17.4696C24.9128 16.7738 25.267 15.6189 26.0281 15.4637C26.4112 15.3856 26.6424 15.2015 26.8062 14.8825C27.0032 14.5004 27.3007 14.235 27.6957 14.0594C28.233 13.8207 28.7125 13.4964 29.1449 13.0929C29.6073 12.6605 30.0943 12.2527 30.577 11.8278ZM13.3219 24.2716C13.4889 24.9802 13.9267 25.281 14.4694 25.4747C14.5443 25.5015 14.6331 25.5678 14.7006 25.4833C14.7573 25.4126 14.723 25.3195 14.6834 25.2446C14.4073 24.7222 13.9374 24.475 13.3219 24.2716ZM15.2893 26.2593C14.89 25.8515 14.1247 25.6877 13.5981 25.8975C14.0316 26.4658 14.7915 26.6285 15.2893 26.2593ZM26.7431 25.8825C26.1544 25.7123 25.6706 25.8322 25.1996 26.0398C25.1011 26.0827 24.9513 26.1437 24.9748 26.2603C25.0005 26.3888 25.1568 26.4284 25.2852 26.4466C25.8515 26.5247 26.2882 26.2775 26.7431 25.8825ZM25.6556 25.5175C26.0345 25.5175 26.8051 24.8828 26.8661 24.5092C26.8833 24.4022 26.9004 24.3166 26.7334 24.3294C26.3663 24.3605 25.6074 24.977 25.5271 25.327C25.5057 25.4223 25.464 25.5357 25.6556 25.5175ZM14.8857 24.018C14.7102 24.6024 14.8472 25.0637 15.1094 25.5025C15.1587 25.586 15.2315 25.6963 15.3363 25.6684C15.4648 25.6342 15.4637 25.4833 15.4562 25.3827C15.423 24.8956 15.3224 24.4311 14.8857 24.018ZM21.174 27.6828C21.6568 27.3039 21.8665 26.8565 21.9661 26.347C21.9811 26.2678 21.9982 26.1651 21.8965 26.1265C21.8034 26.0912 21.7349 26.1683 21.6771 26.2239C21.2779 26.5954 21.112 27.0556 21.174 27.6828ZM25.358 24.0062C24.9577 24.4268 24.8047 24.8742 24.8047 25.3827C24.8047 25.4854 24.7704 25.6385 24.9213 25.6663C25.0262 25.6866 25.0926 25.5753 25.1418 25.494C25.404 25.0551 25.5132 24.5906 25.358 24.0062ZM24.7875 27.716C24.3883 27.1477 23.7803 26.9732 23.2259 27.2793C23.6904 27.6389 24.1485 27.9065 24.7875 27.716ZM23.8574 28.142C23.3864 27.7396 22.9112 27.5672 22.33 27.7374C22.6329 28.294 23.1167 28.4299 23.8574 28.142ZM15.468 27.6957C16.0428 27.8776 16.6165 27.6957 16.9708 27.2354C16.4174 26.9925 15.8758 27.1498 15.468 27.6957ZM17.5231 27.6571C17.1474 27.7042 16.7588 27.7717 16.4677 28.0831C16.4185 28.1356 16.4602 28.1795 16.5105 28.2169C16.7257 28.3786 17.4128 28.2983 17.6804 28.0746C17.7767 27.9932 17.9223 27.9001 17.8816 27.776C17.842 27.6518 17.6697 27.67 17.5231 27.6571ZM16.5983 25.3109C16.426 25.875 16.5897 26.3085 16.853 26.7217C16.9044 26.803 16.9804 26.91 17.0853 26.8651C17.1731 26.8276 17.1945 26.7088 17.2009 26.6061C17.233 26.0869 16.989 25.7016 16.5983 25.3109ZM23.6744 25.3677C23.2227 25.6802 22.9465 26.2914 23.0536 26.681C23.1135 26.8961 23.213 26.9443 23.3575 26.757C23.6722 26.3502 23.7825 25.8943 23.6744 25.3677ZM22.8566 25.7091C22.436 26.1458 22.1095 26.5108 22.1159 27.0524C22.117 27.1316 22.147 27.229 22.1994 27.2847C22.2562 27.3446 22.33 27.2782 22.3739 27.2269C22.7207 26.818 22.9241 26.362 22.8566 25.7091ZM19.0376 27.6721C19.1361 26.8983 18.8792 26.3631 18.2905 26.1083C18.2798 26.7495 18.5602 27.2194 19.0376 27.6721ZM24.0972 26.3192C24.4825 25.9178 24.6387 25.4983 24.6034 25.0112C24.5981 24.9385 24.5895 24.8304 24.4889 24.8036C24.4011 24.78 24.368 24.8657 24.3294 24.9181C24.0329 25.3227 23.8531 25.7519 24.0972 26.3192ZM17.385 25.7509C17.3229 26.3171 17.5124 26.7238 17.7682 27.107C17.8292 27.199 17.9116 27.3371 18.0251 27.2932C18.1524 27.2429 18.1514 27.0781 18.1364 26.9518C18.0796 26.4605 17.8078 26.1009 17.385 25.7509ZM21.4801 27.9954C21.7927 28.6665 22.2208 28.8677 22.9155 28.6965C22.5462 28.2512 22.0924 28.02 21.4801 27.9954ZM16.1391 26.2582C16.3757 25.7712 16.2686 25.3249 15.7838 24.7747C15.5097 25.2114 15.6607 25.8397 16.1391 26.2582ZM24.1999 26.7923C24.6366 27.1519 25.0669 27.1123 25.4982 27.0438C25.5924 27.0288 25.7112 26.9914 25.7273 26.8865C25.7487 26.7441 25.6042 26.7056 25.5089 26.6724C25.0894 26.5247 24.6848 26.6307 24.1999 26.7923ZM15.9668 26.8019C15.4766 26.5782 14.9607 26.5343 14.6792 26.7003C14.5636 26.7677 14.3848 26.8362 14.6139 26.9892C14.9403 27.2076 15.666 27.1081 15.9668 26.8019ZM17.3047 28.7179C18.1182 28.8281 18.5067 28.6312 18.7497 27.9932C18.1631 28.0211 17.7147 28.2448 17.3047 28.7179ZM20.8433 28.4695C20.8636 28.2298 20.5736 28.2844 20.6442 28.1356C20.6902 28.0371 20.8519 27.9322 20.6089 27.9943C20.1658 28.1088 19.5985 27.8477 19.3052 28.4374C19.804 28.3518 20.3178 28.1998 20.8433 28.4695ZM30.6991 11.7207C30.6916 11.7122 30.6841 11.6972 30.6755 11.6961C30.667 11.695 30.6573 11.7089 30.6477 11.7164C30.6562 11.725 30.6648 11.7389 30.6734 11.7389C30.683 11.7389 30.6926 11.7261 30.6991 11.7207Z" stroke="#2727C2" stroke-width="2.40824" mask="url(#path-1-inside-1_562_13060)"/>
<path d="M31.5853 12.207C31.5772 12.2128 31.5669 12.2277 31.5577 12.2265C31.5486 12.2265 31.5394 12.2105 31.5302 12.2025C31.5405 12.1944 31.5509 12.1807 31.56 12.1807C31.5692 12.1807 31.5772 12.1967 31.5853 12.207Z" fill="#FEC851"/>
</svg>
