<svg width="49" height="23" viewBox="0 0 49 23" fill="none" xmlns="http://www.w3.org/2000/svg">
<path d="M37.381 17.727H12.619C12.4549 17.727 12.2974 17.7922 12.1813 17.9083C12.0652 18.0244 12 18.1819 12 18.3461C12 18.5102 12.0652 18.6677 12.1813 18.7838C12.2974 18.8999 12.4549 18.9651 12.619 18.9651H37.381C37.5451 18.9651 37.7026 18.8999 37.8187 18.7838C37.9348 18.6677 38 18.5102 38 18.3461C38 18.1819 37.9348 18.0244 37.8187 17.9083C37.7026 17.7922 37.5451 17.727 37.381 17.727V17.727Z" fill="#232323"/>
<path d="M22.5735 16.4378C22.9156 16.4378 23.1929 16.1605 23.1929 15.8184C23.1929 15.4763 22.9156 15.199 22.5735 15.199C22.2314 15.199 21.9541 15.4763 21.9541 15.8184C21.9541 16.1605 22.2314 16.4378 22.5735 16.4378Z" fill="#232323"/>
<path d="M28.2551 16.4378C28.5972 16.4378 28.8745 16.1605 28.8745 15.8184C28.8745 15.4763 28.5972 15.199 28.2551 15.199C27.913 15.199 27.6357 15.4763 27.6357 15.8184C27.6357 16.1605 27.913 16.4378 28.2551 16.4378Z" fill="#232323"/>
<path d="M22.1133 10.7143H34.1101C33.5971 9.60606 32.7779 8.6676 31.7492 8.00953C30.7204 7.35145 29.525 7.00118 28.3038 7H21.6387C21.9445 7.33986 22.1135 7.78092 22.1133 8.2381V10.7143Z" fill="#232323"/>
<path d="M14.7337 8.23789C14.7334 7.7808 14.9025 7.3398 15.2082 7H12V10.7137H14.7337V8.23789Z" fill="#232323"/>
<path d="M16.5877 14.6349H16.6357L17.9555 16.3107C18.0716 16.4268 18.2291 16.4921 18.3933 16.4921H20.8405C20.7313 16.2106 20.6923 15.9068 20.727 15.6069C20.7616 15.3071 20.8688 15.0202 21.0394 14.7711C21.2099 14.522 21.4386 14.3182 21.7056 14.1774C21.9726 14.0366 22.27 13.963 22.5718 13.963C22.8737 13.963 23.171 14.0366 23.4381 14.1774C23.7051 14.3182 23.9338 14.522 24.1043 14.7711C24.2748 15.0202 24.382 15.3071 24.4167 15.6069C24.4513 15.9068 24.4124 16.2106 24.3032 16.4921H26.5151C26.4059 16.2106 26.3669 15.9068 26.4016 15.6069C26.4362 15.3071 26.5434 15.0202 26.714 14.7711C26.8845 14.522 27.1132 14.3182 27.3802 14.1774C27.6472 14.0366 27.9446 13.963 28.2464 13.963C28.5483 13.963 28.8456 14.0366 29.1127 14.1774C29.3797 14.3182 29.6084 14.522 29.7789 14.7711C29.9494 15.0202 30.0567 15.3071 30.0913 15.6069C30.126 15.9068 30.087 16.2106 29.9778 16.4921H32.8635C33.1107 16.4929 33.3556 16.4439 33.5836 16.3481C33.8115 16.2523 34.0178 16.1116 34.1903 15.9344C34.5425 15.5747 34.7307 14.4805 34.7202 13.9772L34.7079 13.3968H21.4885V8.2381C21.4881 7.90985 21.3576 7.59516 21.1254 7.36305C20.8933 7.13095 20.5786 7.00038 20.2504 7H16.5877C16.2595 7.00038 15.9448 7.13095 15.7127 7.36305C15.4806 7.59516 15.35 7.90985 15.3496 8.2381V13.3968C15.35 13.7251 15.4806 14.0398 15.7127 14.2719C15.9448 14.504 16.2595 14.6345 16.5877 14.6349V14.6349ZM19.0639 8.2381H20.2504L20.2512 13.3968H19.0639V8.2381ZM16.5877 8.2381H17.8258V13.3968H16.5877V8.2381Z" fill="#232323"/>
<path d="M22.1133 12.777H34.6706C34.6214 12.2668 34.5107 11.7645 34.3408 11.2809H22.1133V12.777Z" fill="#232323"/>
<path d="M14.7337 11.2809H12V12.7767H14.7337V11.2809Z" fill="#232323"/>
<path d="M12.6189 15.6632H16.6631L16.323 15.2313C15.8817 15.1665 15.4785 14.9453 15.1868 14.608C14.895 14.2706 14.7342 13.8397 14.7337 13.3937H12V15.0443C12 15.2084 12.0652 15.3658 12.1813 15.4819C12.2974 15.598 12.4548 15.6632 12.6189 15.6632Z" fill="#232323"/>
</svg>
