<svg width="25" height="25" viewBox="0 0 25 25" fill="none" xmlns="http://www.w3.org/2000/svg">
<g clip-path="url(#clip0_1595_10826)">
<path d="M0 12.5C0 19.4 5.6 25 12.5 25C19.4 25 25 19.4 25 12.5C25 5.6 19.4 0 12.5 0C5.6 0 0 5.6 0 12.5Z" fill="white"/>
<g clip-path="url(#clip1_1595_10826)">
<path d="M16.9075 5.14618C16.8738 5.14618 16.8401 5.13493 16.8063 5.12369L16.7614 5.11244H16.1654L16.1429 5.12369C16.1204 5.12369 16.0867 5.13493 16.0642 5.13493C15.3108 5.23613 14.6699 5.52849 14.1752 6.01199C13.5455 6.61919 12.9045 7.26012 12.2861 7.87856C12.0275 8.13718 11.7576 8.40705 11.4877 8.67691C11.3978 8.76687 11.3753 8.83433 11.4203 8.91304C11.454 9.003 11.5215 9.03673 11.6339 9.03673H11.6452C12.2074 9.03673 12.7134 9.12669 13.1744 9.3066C13.3543 9.38531 13.4668 9.35157 13.6017 9.21664C14.1976 8.60945 14.7936 8.01349 15.3446 7.46252C15.8618 6.95652 16.6152 6.84408 17.2111 7.19265C17.6384 7.42879 17.9083 7.84483 17.9758 8.31709C18.0432 8.8006 17.8746 9.29535 17.5147 9.65517C16.9413 10.2399 16.3566 10.8246 15.7719 11.4093L15.2996 11.8816C15.2209 11.9603 15.1309 12.039 15.0522 12.1177C14.8273 12.3538 14.58 12.59 14.3438 12.8148C13.939 13.1972 13.4443 13.3096 12.8708 13.1634C12.6009 13.096 12.3873 12.9273 12.1849 12.7586L12.1512 12.7361C11.9713 12.59 11.7576 12.5225 11.544 12.5225C11.2854 12.5225 11.038 12.6237 10.8581 12.8261C10.532 13.1972 10.5545 13.7594 10.9255 14.1192C12.2074 15.3786 14.3551 15.401 15.6257 14.1754C16.469 13.3546 17.3123 12.5112 18.1332 11.6904C18.3918 11.4318 18.6392 11.1732 18.8978 10.9145C19.2913 10.521 19.5612 10.06 19.7186 9.54273C19.7636 9.37406 19.7973 9.2054 19.8311 9.03673C19.8423 8.95802 19.8648 8.86807 19.8761 8.78936V8.24963C19.8536 8.17091 19.8423 8.06972 19.8198 7.97976C19.7861 7.77736 19.7411 7.57496 19.6737 7.38381C19.2014 6.11319 18.2681 5.35982 16.9075 5.14618Z" fill="#3A3A3A"/>
<path d="M19.9997 8.23838C19.9773 8.14843 19.9548 8.04723 19.9435 7.95727C19.9098 7.75487 19.8648 7.54123 19.7861 7.35007C19.2913 6.03448 18.3243 5.25862 16.93 5.03373C16.8963 5.03373 16.8738 5.02249 16.8401 5.01124L16.7726 5H16.1542C16.1317 5 16.1204 5.01124 16.1092 5.01124C16.0867 5.02249 16.0642 5.02249 16.0417 5.02249C15.2659 5.12369 14.6137 5.42729 14.0964 5.92204C13.4668 6.54048 12.8258 7.18141 12.2074 7.79985C11.9488 8.05847 11.6789 8.32834 11.409 8.5982C11.2853 8.71064 11.2629 8.83433 11.3191 8.95802C11.3753 9.09295 11.4765 9.14918 11.6339 9.14918H11.6452C12.1961 9.14918 12.6797 9.23913 13.1294 9.41904C13.3543 9.49775 13.5117 9.46402 13.6804 9.29535C14.2651 8.68816 14.8611 8.10345 15.4233 7.55247C15.8955 7.08021 16.5927 6.97901 17.1549 7.29385C17.5485 7.51874 17.8071 7.90105 17.8633 8.33958C17.9195 8.78936 17.7734 9.23913 17.436 9.57646C16.8513 10.1612 16.2666 10.7459 15.6819 11.3306L15.2209 11.8028C15.1309 11.8816 15.0522 11.9603 14.9735 12.039C14.7486 12.2751 14.5012 12.5112 14.2651 12.7361C13.894 13.0847 13.433 13.1972 12.9045 13.051C12.6459 12.9948 12.4548 12.8373 12.2524 12.6687L12.2186 12.6462C11.7801 12.2976 11.1392 12.3426 10.7794 12.7474C10.4083 13.1747 10.442 13.7931 10.8468 14.1979C11.5215 14.8613 12.421 15.1874 13.3206 15.1874C14.1976 15.1874 15.0635 14.8726 15.7156 14.2541C16.559 13.4333 17.4023 12.59 18.2231 11.7579C18.4818 11.4993 18.7291 11.2406 18.9877 10.982C19.3925 10.5772 19.6849 10.0937 19.8311 9.56522C19.8761 9.39655 19.921 9.21664 19.9435 9.04798C19.9548 8.96927 19.9773 8.87931 19.9885 8.78936L19.9997 8.23838ZM19.9435 8.8006C19.8873 9.05922 19.8536 9.31784 19.7749 9.56522C19.6174 10.0937 19.3363 10.566 18.9428 10.9595C17.8521 12.0502 16.7839 13.1522 15.6707 14.2204C14.4113 15.4348 12.2411 15.5022 10.8918 14.1642C10.4982 13.7819 10.4645 13.1859 10.8243 12.7924C11.1617 12.41 11.7689 12.3651 12.1849 12.6912C12.3985 12.8598 12.6122 13.0397 12.8933 13.1072C13.4218 13.2421 13.9053 13.1522 14.3101 12.7811C14.6362 12.4775 14.951 12.1627 15.2659 11.8478C16.008 11.1057 16.7501 10.3636 17.4922 9.62144C18.2119 8.9018 18.0657 7.74363 17.1999 7.24888C16.6264 6.92279 15.8955 7.02399 15.4008 7.5075C14.8048 8.08096 14.2201 8.66567 13.6467 9.25037C13.5005 9.4078 13.3543 9.44153 13.1632 9.36282C12.6684 9.17166 12.1624 9.09295 11.6339 9.09295C11.5102 9.09295 11.4203 9.05922 11.3641 8.93553C11.3078 8.81184 11.3641 8.72189 11.4428 8.63193C12.3423 7.74363 13.2306 6.84408 14.1302 5.96702C14.6587 5.44978 15.3108 5.17991 16.0417 5.07871C16.0755 5.07871 16.1204 5.05622 16.1542 5.05622C16.3566 5.05622 16.559 5.05622 16.7614 5.05622C16.8063 5.06747 16.8513 5.07871 16.8963 5.08996C18.2681 5.31484 19.2239 6.06822 19.7186 7.37256C19.8198 7.65367 19.8648 7.95727 19.9323 8.24963C19.9435 8.42954 19.9435 8.62069 19.9435 8.8006Z" fill="#C5C5C5"/>
<path d="M16.9075 5.08996C16.8626 5.07871 16.8176 5.06747 16.7726 5.05622C16.5702 5.05622 16.3678 5.05622 16.1654 5.05622C16.1317 5.06747 16.0867 5.07871 16.053 5.07871C15.3221 5.17991 14.6699 5.44978 14.1414 5.96702C13.2306 6.84408 12.3423 7.74363 11.454 8.63193C11.3641 8.72189 11.3078 8.81184 11.3641 8.93553C11.4203 9.04798 11.5102 9.09295 11.6339 9.09295C12.1512 9.09295 12.6684 9.17166 13.1519 9.36282C13.3543 9.44153 13.4892 9.4078 13.6354 9.25037C14.2201 8.66567 14.8048 8.08096 15.3895 7.5075C15.8843 7.02399 16.6152 6.91154 17.1886 7.24888C18.0545 7.74363 18.2006 8.9018 17.481 9.62144C16.7389 10.3636 15.9967 11.1057 15.2546 11.8478C14.9398 12.1514 14.6362 12.4775 14.3101 12.7811C13.9053 13.1522 13.4218 13.2421 12.8933 13.1072C12.6122 13.0397 12.3985 12.8598 12.1849 12.6912C11.7689 12.3538 11.1617 12.3988 10.8243 12.7924C10.4645 13.1859 10.4982 13.7819 10.8918 14.1642C12.2411 15.5022 14.4113 15.4348 15.6707 14.2204C16.7726 13.1522 17.8521 12.0502 18.9428 10.9595C19.3363 10.566 19.6174 10.1049 19.7749 9.56522C19.8536 9.31784 19.8873 9.05922 19.9435 8.8006C19.9435 8.62069 19.9435 8.42954 19.9435 8.24963C19.8761 7.95727 19.8423 7.65367 19.7299 7.37256C19.2351 6.06822 18.2906 5.3036 16.9075 5.08996ZM19.8873 8.24963V8.78936C19.8648 8.86807 19.8536 8.95802 19.8423 9.03673C19.8086 9.2054 19.7749 9.37406 19.7299 9.54273C19.5837 10.06 19.3026 10.521 18.909 10.9145C18.6504 11.1732 18.403 11.4318 18.1444 11.6904C17.3348 12.5112 16.4915 13.3658 15.6369 14.1754C14.3551 15.4123 12.2074 15.3786 10.9255 14.1192C10.5545 13.7594 10.532 13.1972 10.8693 12.8261C11.038 12.6237 11.2966 12.5225 11.5552 12.5225C11.7689 12.5225 11.9825 12.59 12.1624 12.7361L12.1849 12.7586C12.3873 12.9273 12.6009 13.096 12.8708 13.1634C13.4443 13.3096 13.939 13.1972 14.3438 12.8148C14.5912 12.59 14.8273 12.3426 15.0522 12.1177C15.1309 12.039 15.2096 11.9603 15.2883 11.8703L15.7719 11.4093C16.3566 10.8246 16.9413 10.2399 17.526 9.65517C17.8858 9.29535 18.0545 8.81184 17.987 8.31709C17.9195 7.84483 17.6384 7.42879 17.2224 7.19265C16.6152 6.85532 15.8618 6.95652 15.3446 7.46252C14.7824 8.01349 14.1864 8.60945 13.6017 9.2054C13.4668 9.35157 13.3543 9.38531 13.1744 9.3066C12.7134 9.12669 12.2186 9.03673 11.6452 9.03673H11.6339C11.5215 9.03673 11.454 9.003 11.4203 8.91304C11.3753 8.83433 11.3978 8.76687 11.4877 8.67691C11.7576 8.40705 12.0275 8.13718 12.2973 7.87856C12.9045 7.26012 13.5455 6.61919 14.1752 6.01199C14.6699 5.52849 15.3108 5.23613 16.0642 5.13493C16.0979 5.13493 16.1204 5.12369 16.1429 5.11244H16.1654H16.7614L16.8063 5.12369C16.8401 5.13493 16.8738 5.13493 16.9075 5.14618C18.2681 5.35982 19.2014 6.12444 19.6849 7.39505C19.7524 7.58621 19.7973 7.78861 19.8311 7.991C19.8423 8.06972 19.8648 8.17091 19.8873 8.24963Z" fill="#C5C5C5"/>
<path d="M13.3206 15.9408C12.7584 15.9408 12.2749 15.8508 11.8476 15.6822C11.6564 15.6034 11.5327 15.6372 11.3753 15.7946C10.7906 16.4018 10.1946 16.9865 9.64367 17.5375C9.34007 17.8411 8.93528 18.0097 8.51923 18.0097C8.47426 18.0097 8.42928 18.0097 8.3843 18.0097C7.93453 17.9648 7.52973 17.7286 7.27111 17.3576C6.84382 16.7391 6.91129 15.907 7.43977 15.3786C8.23812 14.569 9.04772 13.7594 9.84607 12.961L10.6107 12.1964C10.6332 12.1627 10.6669 12.1402 10.7006 12.1177C11.1167 11.7804 11.5889 11.6792 12.1287 11.8141C12.4098 11.8816 12.6234 12.0615 12.8371 12.2301L12.8708 12.2526C13.2531 12.5675 13.8266 12.5225 14.1527 12.1627C14.49 11.7804 14.4675 11.2294 14.1077 10.8808C13.4443 10.2286 12.6459 9.90255 11.7239 9.8913C10.7569 9.91379 9.99225 10.2061 9.36256 10.8133C8.72163 11.443 8.06946 12.0952 7.45102 12.7249C7.24862 12.9273 7.04622 13.1297 6.84382 13.3208C6.76511 13.4108 6.6864 13.4895 6.59644 13.5682C6.3828 13.7706 6.15791 13.9955 5.96676 14.2316C5.12343 15.2436 4.89854 16.3681 5.32583 17.5712C5.77561 18.8418 6.67516 19.6064 8.02448 19.8313C9.08145 20.0112 10.026 19.7301 10.7794 19.033C11.4315 18.4258 12.0612 17.7961 12.6684 17.1777C12.9383 16.8966 13.2194 16.6267 13.4892 16.3568C13.5904 16.2556 13.6354 16.1882 13.5904 16.087C13.5455 15.9633 13.4668 15.9408 13.3206 15.9408Z" fill="#3A3A3A"/>
<path d="M13.3206 15.8283C12.7696 15.8283 12.3086 15.7384 11.8925 15.5697C11.6564 15.4798 11.4877 15.5135 11.2966 15.7159C10.7119 16.3231 10.1159 16.9078 9.56496 17.4588C9.28385 17.7399 8.90154 17.8973 8.51923 17.8973C8.47426 17.8973 8.42928 17.8973 8.39555 17.8973C7.9795 17.8636 7.60844 17.6387 7.36106 17.2901C6.96751 16.7279 7.03498 15.9633 7.51848 15.4685C8.31683 14.6589 9.13767 13.8493 9.92478 13.051L10.6894 12.2864C10.7119 12.2639 10.7456 12.2414 10.7681 12.2189C11.1617 11.904 11.5889 11.8028 12.0949 11.9378C12.3536 12.0052 12.556 12.1627 12.7584 12.3313L12.7921 12.3538C13.2194 12.6912 13.8603 12.6462 14.2201 12.2414C14.6024 11.8141 14.58 11.1957 14.1639 10.8021C13.478 10.1387 12.6459 9.79011 11.7014 9.79011C10.7344 9.80135 9.92478 10.1162 9.28385 10.7346C8.63168 11.3643 7.99075 12.0165 7.36106 12.6462C7.16991 12.8486 6.96751 13.0397 6.76511 13.2421C6.6864 13.3208 6.60769 13.3996 6.52898 13.4783C6.31534 13.6919 6.0792 13.9055 5.88805 14.1529C4.99974 15.1987 4.7861 16.3568 5.21339 17.6049C5.67441 18.9205 6.60769 19.7076 8.00199 19.9325C8.21564 19.9663 8.41803 19.9888 8.62043 19.9888C9.46376 19.9888 10.2171 19.6852 10.8468 19.1005C11.499 18.4933 12.1287 17.8523 12.7471 17.2339C13.017 16.9528 13.2868 16.6829 13.568 16.413C13.6467 16.3343 13.7704 16.2106 13.6916 16.0195C13.6129 15.8508 13.4668 15.8283 13.3206 15.8283ZM13.523 16.3793C12.6234 17.2789 11.7351 18.2009 10.8131 19.0667C10.0372 19.7976 9.07021 20.0562 8.01324 19.8876C6.65267 19.6627 5.71938 18.8868 5.26961 17.5937C4.84232 16.3568 5.07845 15.2099 5.92178 14.1979C6.19165 13.8718 6.50649 13.5907 6.79884 13.2984C7.64217 12.455 8.46301 11.6117 9.31758 10.7909C9.96976 10.1499 10.7794 9.85757 11.7014 9.83508C12.6234 9.84633 13.4443 10.1724 14.1189 10.8358C14.5012 11.2069 14.5237 11.8028 14.1752 12.1964C13.8378 12.5787 13.2306 12.6237 12.8258 12.2976C12.6009 12.1177 12.3985 11.949 12.1062 11.8703C11.6002 11.7466 11.1392 11.8366 10.7344 12.1627C10.7006 12.1964 10.6782 12.2189 10.6444 12.2414C9.58745 13.2984 8.53048 14.3553 7.47351 15.4235C6.96751 15.9408 6.91129 16.7391 7.31608 17.3126C7.85582 18.0772 8.92403 18.1672 9.60994 17.4925C10.1946 16.919 10.7681 16.3456 11.3416 15.7496C11.5102 15.581 11.6564 15.536 11.8813 15.6259C12.3423 15.8171 12.8258 15.8846 13.3206 15.8846C13.4555 15.8846 13.5792 15.8958 13.6354 16.042C13.7029 16.1882 13.6242 16.2894 13.523 16.3793Z" fill="#C5C5C5"/>
<path d="M13.3206 15.8846C12.8258 15.8846 12.3311 15.8171 11.8701 15.6259C11.6452 15.536 11.499 15.5697 11.3303 15.7496C10.7569 16.3343 10.1834 16.919 9.59869 17.4925C8.92403 18.1672 7.84457 18.0772 7.30484 17.3126C6.91129 16.7279 6.96751 15.9295 7.47351 15.4235C8.51923 14.3553 9.58745 13.3096 10.6444 12.2526C10.6782 12.2189 10.7006 12.1964 10.7344 12.1627C11.1392 11.8366 11.6002 11.7466 12.1062 11.8703C12.3873 11.9378 12.6009 12.1177 12.8258 12.2976C13.2306 12.6237 13.8378 12.5787 14.1752 12.1964C14.5237 11.8028 14.5125 11.2069 14.1189 10.8358C13.4443 10.1837 12.6234 9.84633 11.7014 9.83508C10.7794 9.85757 9.96976 10.1499 9.32883 10.7796C8.47426 11.6004 7.64217 12.4438 6.79884 13.2871C6.50649 13.5795 6.19165 13.8718 5.92178 14.1867C5.07845 15.1874 4.83108 16.3343 5.26961 17.5825C5.71938 18.8756 6.66391 19.6514 8.01324 19.8763C9.07021 20.045 10.026 19.7864 10.8131 19.0555C11.7464 18.1897 12.6234 17.2676 13.523 16.3681C13.6129 16.2781 13.6916 16.1769 13.6354 16.042C13.5792 15.907 13.4555 15.8846 13.3206 15.8846ZM13.4892 16.3343C13.2194 16.6042 12.9383 16.8853 12.6684 17.1552C12.0612 17.7736 11.4203 18.4145 10.7794 19.0105C10.026 19.7076 9.08145 19.9888 8.02448 19.8088C6.67516 19.584 5.76436 18.8306 5.32583 17.5487C4.89854 16.3568 5.12343 15.2324 5.96676 14.2316C6.15791 13.9955 6.3828 13.7706 6.59644 13.5682C6.6864 13.4895 6.76511 13.4108 6.84382 13.3208C7.04622 13.1297 7.24862 12.9273 7.45102 12.7249C8.0807 12.0952 8.72163 11.443 9.37381 10.8246C9.99225 10.2174 10.7681 9.91379 11.7126 9.90255C12.6234 9.91379 13.4218 10.2399 14.0964 10.8921C14.445 11.2294 14.4675 11.7916 14.1302 12.1627C13.8153 12.5225 13.2419 12.5675 12.8596 12.2526L12.8258 12.2301C12.6122 12.0615 12.3985 11.8928 12.1174 11.8141C11.5889 11.6792 11.1054 11.7804 10.6894 12.1177C10.6669 12.1514 10.6332 12.1739 10.6107 12.2076L9.84607 12.961C9.05896 13.7481 8.23812 14.569 7.43977 15.3786C6.91129 15.907 6.84382 16.7391 7.27111 17.3463C7.52973 17.7174 7.93453 17.9535 8.3843 17.9985C8.42928 17.9985 8.47426 17.9985 8.51923 17.9985C8.93528 17.9985 9.34007 17.8298 9.64367 17.5262C10.1946 16.9753 10.7906 16.3906 11.3753 15.7834C11.5327 15.6372 11.6564 15.6034 11.8588 15.6822C12.2749 15.8508 12.7584 15.9408 13.3206 15.9408C13.4555 15.9408 13.5455 15.9633 13.5792 16.0645C13.6242 16.1657 13.5904 16.2331 13.4892 16.3343Z" fill="#C5C5C5"/>
</g>
</g>
<defs>
<clipPath id="clip0_1595_10826">
<rect width="25" height="25" fill="white"/>
</clipPath>
<clipPath id="clip1_1595_10826">
<rect width="15" height="14.9888" fill="white" transform="translate(5 5)"/>
</clipPath>
</defs>
</svg>
