<svg width="41" height="41" viewBox="0 0 41 41" fill="none" xmlns="http://www.w3.org/2000/svg">
<path d="M11.5665 36.7426C10.7443 36.469 10.4551 35.8859 10.4621 35.0426C10.4863 32.3585 10.4707 29.6744 10.4723 26.9911C10.4723 26.8567 10.4505 24.294 10.4724 24.1612C10.5146 23.9087 10.6927 24.3899 10.9365 24.3954C11.1648 24.4009 11.3703 23.9733 11.4071 24.2141C11.4274 24.3469 11.4086 26.8512 11.4086 26.9865C11.4102 29.6908 11.4094 32.396 11.4094 35.1004C11.4094 35.7132 11.5024 35.8054 12.1144 35.8054C14.0638 35.8054 16.0131 35.8054 17.9625 35.8054C18.4737 35.8054 18.5909 35.6913 18.5917 35.1848C18.5932 33.2706 18.5925 31.3565 18.5917 29.4423C18.5917 29.3508 18.5815 29.2594 18.5745 29.1328C18.4471 29.1328 18.3361 29.1328 18.2243 29.1328C17.109 29.1328 15.9936 29.1359 14.8782 29.132C14.0239 29.1289 13.5151 28.6263 13.5127 27.7735C13.5081 26.0259 13.5081 24.2782 13.5127 22.5305C13.5151 21.691 14.0114 21.1861 14.8524 21.1783C15.9678 21.1673 17.0832 21.1751 18.1985 21.1751C18.3119 21.1751 18.4244 21.1751 18.5518 21.1751C18.5682 21.1064 18.5893 21.0587 18.5893 21.011C18.5878 20.3662 18.5901 19.7213 18.5776 19.0765C18.5581 18.0823 18.1829 17.2178 17.5795 16.4425C17.2919 16.0728 17.005 15.7031 16.7158 15.3341C16.3164 14.8237 16.1241 14.2485 16.128 13.5982C16.1358 12.0795 16.1304 10.5608 16.1304 9.04213C16.1304 8.92958 16.1304 8.81624 16.1304 8.68259C15.3832 8.68259 14.6578 8.68259 13.8926 8.68259C13.8879 8.78185 13.8793 8.8905 13.8793 8.99914C13.8785 10.5077 13.8715 12.0162 13.8817 13.5247C13.8864 14.2297 13.6675 14.8386 13.2447 15.4037C12.7413 16.0759 12.2481 16.7598 11.8135 17.4765C11.4563 18.0667 11.411 18.7584 11.4094 19.4392C11.4063 21.0305 11.4094 22.6227 11.4071 24.2141C11.4071 24.3485 11.4352 24.5181 11.3672 24.6088C11.2617 24.7495 11.0827 24.9222 10.9365 24.9214C10.7904 24.9206 10.6364 24.7315 10.5043 24.6064C10.4637 24.5674 10.4723 24.4673 10.4723 24.3954C10.4738 22.6164 10.4668 20.8375 10.4855 19.0593C10.4981 17.8853 10.9217 16.8489 11.6392 15.9266C11.9394 15.5405 12.2371 15.152 12.542 14.7698C12.8124 14.4306 12.9422 14.0507 12.9406 13.6161C12.9359 12.0037 12.9414 10.3912 12.9336 8.77873C12.9328 8.65601 12.8585 8.53408 12.8187 8.41215C12.7741 8.27615 12.6975 8.14249 12.6913 8.00493C12.6741 7.61021 12.6835 7.21471 12.6874 6.81922C12.6881 6.74809 12.6835 6.65117 12.7249 6.60896C13.0117 6.31898 12.9156 5.95241 12.9461 5.61006C12.9867 5.14891 13.3439 4.79796 13.816 4.79014C14.6078 4.77607 15.4003 4.77529 16.1929 4.79014C16.6884 4.79952 17.0402 5.17392 17.0675 5.67337C17.0839 5.9868 17.073 6.28225 17.2504 6.59177C17.3841 6.82469 17.3208 7.1772 17.3208 7.47577C17.3208 7.84235 17.4036 8.22925 17.0957 8.53955C17.0511 8.5841 17.0714 8.69822 17.0714 8.78029C17.0707 10.3928 17.0746 12.0052 17.0683 13.6177C17.0667 14.0531 17.1988 14.4298 17.4654 14.7714C17.8749 15.2966 18.3001 15.8117 18.673 16.3627C19.2975 17.2858 19.5382 18.3238 19.5359 19.4353C19.5273 24.6369 19.5226 29.8378 19.5421 35.0394C19.5453 35.8828 19.267 36.4659 18.4479 36.7426C16.153 36.7426 13.8598 36.7426 11.5665 36.7426ZM18.5729 28.1956C18.5729 26.1509 18.5729 24.1508 18.5729 22.1404C18.5159 22.1311 18.4768 22.1186 18.4369 22.1186C17.2395 22.117 16.0421 22.1186 14.8446 22.1154C14.546 22.1146 14.4452 22.2725 14.4468 22.5484C14.4515 23.4215 14.4483 24.2938 14.4483 25.1669C14.4483 26.029 14.446 26.8919 14.4499 27.754C14.4515 28.0995 14.5492 28.1917 14.8985 28.1948C15.169 28.1972 15.4402 28.1956 15.7106 28.1956C16.6564 28.1956 17.6022 28.1956 18.5729 28.1956ZM13.6331 7.70791C14.5585 7.70791 15.4574 7.70791 16.3625 7.70791C16.3625 7.50157 16.3625 7.31242 16.3625 7.12561C15.4402 7.12561 14.5414 7.12561 13.6331 7.12561C13.6331 7.32492 13.6331 7.5 13.6331 7.70791ZM13.8895 6.14468C14.6523 6.14468 15.3824 6.14468 16.1108 6.14468C16.1108 5.99539 16.1108 5.86721 16.1108 5.73981C15.3589 5.73981 14.6289 5.73981 13.8903 5.73981C13.8864 5.81953 13.8817 5.8805 13.8817 5.94146C13.8801 6.00243 13.8856 6.0634 13.8895 6.14468Z" fill="#2727C2"/>
<path d="M11.4071 24.2141C11.3703 23.9733 11.1648 24.4009 10.9365 24.3954C10.6927 24.3899 10.5146 23.9087 10.4724 24.1612C10.4505 24.294 10.4723 26.8567 10.4723 26.9911C10.4707 29.6744 10.4863 32.3585 10.4621 35.0426C10.4551 35.8859 10.7443 36.469 11.5665 36.7426C13.8598 36.7426 16.153 36.7426 18.4479 36.7426C19.267 36.4659 19.5453 35.8828 19.5421 35.0394C19.5226 29.8378 19.5273 24.6369 19.5359 19.4353C19.5382 18.3238 19.2975 17.2858 18.673 16.3627C18.3001 15.8117 17.8749 15.2966 17.4654 14.7714C17.1988 14.4298 17.0667 14.0531 17.0683 13.6177C17.0746 12.0052 17.0707 10.3928 17.0714 8.78029C17.0714 8.69822 17.0511 8.5841 17.0957 8.53955C17.4036 8.22925 17.3208 7.84235 17.3208 7.47577C17.3208 7.1772 17.3841 6.82469 17.2504 6.59177C17.073 6.28225 17.0839 5.9868 17.0675 5.67337C17.0402 5.17392 16.6884 4.79952 16.1929 4.79014C15.4003 4.77529 14.6078 4.77607 13.816 4.79014C13.3439 4.79796 12.9867 5.14891 12.9461 5.61006C12.9156 5.95241 13.0117 6.31898 12.7249 6.60896C12.6835 6.65117 12.6881 6.74809 12.6874 6.81922C12.6835 7.21471 12.6741 7.61021 12.6913 8.00493C12.6975 8.14249 12.7741 8.27615 12.8187 8.41215C12.8585 8.53408 12.9328 8.65601 12.9336 8.77873C12.9414 10.3912 12.9359 12.0037 12.9406 13.6161C12.9422 14.0507 12.8124 14.4306 12.542 14.7698C12.2371 15.152 11.9394 15.5405 11.6392 15.9266C10.9217 16.8489 10.4981 17.8853 10.4855 19.0593C10.4668 20.8375 10.4738 22.6164 10.4723 24.3954C10.4723 24.4673 10.4637 24.5674 10.5043 24.6064C10.6364 24.7315 10.7904 24.9206 10.9365 24.9214C11.0827 24.9222 11.2617 24.7495 11.3672 24.6088C11.4352 24.5181 11.4071 24.3485 11.4071 24.2141ZM11.4071 24.2141C11.4274 24.3469 11.4086 26.8512 11.4086 26.9865C11.4102 29.6908 11.4094 32.396 11.4094 35.1004C11.4094 35.7132 11.5024 35.8054 12.1144 35.8054C14.0638 35.8054 16.0131 35.8054 17.9625 35.8054C18.4737 35.8054 18.5909 35.6913 18.5917 35.1848C18.5932 33.2706 18.5925 31.3565 18.5917 29.4423C18.5917 29.3508 18.5815 29.2594 18.5745 29.1328C18.4471 29.1328 18.3361 29.1328 18.2243 29.1328C17.109 29.1328 15.9936 29.1359 14.8782 29.132C14.0239 29.1289 13.5151 28.6263 13.5127 27.7735C13.5081 26.0259 13.5081 24.2782 13.5127 22.5305C13.5151 21.691 14.0114 21.1861 14.8524 21.1783C15.9678 21.1673 17.0832 21.1751 18.1985 21.1751C18.3119 21.1751 18.4244 21.1751 18.5518 21.1751C18.5682 21.1064 18.5893 21.0587 18.5893 21.011C18.5878 20.3662 18.5901 19.7213 18.5776 19.0765C18.5581 18.0823 18.1829 17.2178 17.5795 16.4425C17.2919 16.0728 17.005 15.7031 16.7158 15.3341C16.3164 14.8237 16.1241 14.2485 16.128 13.5982C16.1358 12.0795 16.1304 10.5608 16.1304 9.04213C16.1304 8.92958 16.1304 8.81624 16.1304 8.68259C15.3831 8.68259 14.6578 8.68259 13.8926 8.68259C13.8879 8.78185 13.8793 8.8905 13.8793 8.99914C13.8785 10.5077 13.8715 12.0162 13.8817 13.5247C13.8864 14.2297 13.6675 14.8386 13.2447 15.4037C12.7413 16.0759 12.2481 16.7598 11.8135 17.4765C11.4563 18.0667 11.411 18.7584 11.4094 19.4392C11.4063 21.0305 11.4094 22.6227 11.4071 24.2141ZM18.5729 28.1956C18.5729 26.1509 18.5729 24.1508 18.5729 22.1404C18.5159 22.1311 18.4768 22.1186 18.4369 22.1186C17.2395 22.117 16.0421 22.1186 14.8446 22.1154C14.546 22.1146 14.4452 22.2725 14.4468 22.5484C14.4515 23.4215 14.4483 24.2938 14.4483 25.1669C14.4483 26.029 14.446 26.8919 14.4499 27.754C14.4515 28.0995 14.5492 28.1917 14.8985 28.1948C15.169 28.1972 15.4402 28.1956 15.7106 28.1956C16.6564 28.1956 17.6022 28.1956 18.5729 28.1956ZM13.6331 7.70791C14.5585 7.70791 15.4574 7.70791 16.3625 7.70791C16.3625 7.50157 16.3625 7.31242 16.3625 7.12561C15.4402 7.12561 14.5414 7.12561 13.6331 7.12561C13.6331 7.32492 13.6331 7.5 13.6331 7.70791ZM13.8895 6.14468C14.6523 6.14468 15.3824 6.14468 16.1108 6.14468C16.1108 5.99539 16.1108 5.86721 16.1108 5.73981C15.3589 5.73981 14.6289 5.73981 13.8903 5.73981C13.8864 5.81953 13.8817 5.8805 13.8817 5.94146C13.8801 6.00243 13.8856 6.06339 13.8895 6.14468Z" stroke="#2727C2" stroke-width="0.398158"/>
<path d="M23.3884 36.7425C22.892 36.2883 22.9303 35.9569 23.5205 35.6091C24.2904 35.155 25.0618 34.7032 25.8763 34.2241C25.8763 33.9497 25.8763 33.6191 25.8763 33.2877C25.8763 31.9043 25.8716 30.5208 25.8809 29.1381C25.8825 28.9068 25.8278 28.8106 25.5863 28.7317C23.6666 28.1048 22.2167 26.9707 21.6735 24.9354C21.3663 23.7833 21.4734 22.6155 21.7243 21.4736C21.933 20.5232 22.2441 19.5954 22.5114 18.6574C22.6013 18.3424 22.8131 18.2111 23.139 18.2119C25.276 18.2166 27.4121 18.215 29.5491 18.2135C29.825 18.2135 30.0407 18.2971 30.14 18.5746C30.7613 20.316 31.2577 22.0825 31.1522 23.9584C31.0459 25.8405 30.0985 27.2075 28.4868 28.1251C28.0218 28.3901 27.495 28.5449 27.0026 28.7653C26.9221 28.8012 26.8236 28.9146 26.8228 28.9935C26.8126 30.7506 26.815 32.5077 26.815 34.2327C27.6646 34.7306 28.4931 35.2058 29.3099 35.6998C29.764 35.9741 29.739 36.3727 29.2677 36.7425C27.3082 36.7425 25.3479 36.7425 23.3884 36.7425ZM22.4582 23.2455C22.3824 25.08 23.1273 26.4032 24.6601 27.3287C25.7903 28.011 26.8877 28.0462 28.0022 27.3302C28.1859 27.2122 28.3774 27.1044 28.5509 26.9723C29.7718 26.0421 30.3041 24.8041 30.2087 23.2447C30.0829 23.2447 29.9719 23.2447 29.8601 23.2447C28.7346 23.2447 27.6091 23.2455 26.4828 23.244C26.3687 23.244 26.253 23.2393 26.142 23.2166C25.8927 23.1642 25.7598 22.9954 25.7739 22.7484C25.7879 22.5038 25.9341 22.3474 26.1889 22.3185C26.2921 22.3068 26.3968 22.3091 26.5008 22.3091C27.595 22.3084 28.6893 22.3091 29.7843 22.3091C29.8961 22.3091 30.0079 22.3091 30.1462 22.3091C29.9961 21.2508 29.7437 20.2582 29.3904 19.2913C29.3662 19.2257 29.2372 19.1585 29.1567 19.1577C27.2808 19.1499 25.4042 19.1499 23.5283 19.1577C23.4462 19.1577 23.3118 19.2202 23.2891 19.2851C22.946 20.2543 22.6763 21.243 22.5395 22.3091C22.6771 22.3091 22.7889 22.3091 22.8999 22.3091C23.2852 22.3107 26.5108 22.2972 26.8961 22.3089C27.1658 22.3167 27.1855 22.4881 27.2019 22.7484C27.2183 23.0118 27.158 23.1681 26.8961 23.2166C26.7945 23.2354 27.0001 23.2444 26.8961 23.2444C26.4608 23.2468 22.9249 23.2455 22.4582 23.2455ZM25.1079 35.7873C25.9458 35.7873 26.7337 35.7873 27.5434 35.7873C26.8673 35.1831 26.0037 35.0714 25.1079 35.7873Z" fill="#2727C2" stroke="#2727C2" stroke-width="0.398158"/>
</svg>
