<svg width="23" height="23" viewBox="0 0 23 23" fill="none" xmlns="http://www.w3.org/2000/svg">
<circle cx="11.541" cy="11.5527" r="11.1874" fill="#3E7BFA"/>
<path d="M12.7202 5.88672L12.4661 13.6707H10.6183L10.3565 5.88672H12.7202ZM10.2949 16.0805C10.2949 15.752 10.4078 15.48 10.6337 15.2644C10.8647 15.0437 11.1675 14.9333 11.5422 14.9333C11.922 14.9333 12.2249 15.0437 12.4507 15.2644C12.6766 15.48 12.7895 15.752 12.7895 16.0805C12.7895 16.3988 12.6766 16.6683 12.4507 16.889C12.2249 17.1097 11.922 17.22 11.5422 17.22C11.1675 17.22 10.8647 17.1097 10.6337 16.889C10.4078 16.6683 10.2949 16.3988 10.2949 16.0805Z" fill="white"/>
</svg>
