<svg width="56" height="56" viewBox="0 0 56 56" fill="none" xmlns="http://www.w3.org/2000/svg">
<rect x="0.68335" y="0.637207" width="55" height="55" rx="16.0638" fill="#DBE8FF"/>
<g clip-path="url(#clip0_453_19289)">
<path d="M14.2197 28.9858C14.2197 28.4223 14.2197 27.8589 14.2197 27.2954C14.2334 27.1968 14.2539 27.0982 14.2675 26.9995C14.3563 26.3797 14.4041 25.7528 14.5339 25.1401C15.2647 21.6817 16.9859 18.8502 19.7179 16.716C23.1193 14.0606 26.9442 13.1802 31.1173 14.0747C34.4573 14.7931 37.1688 16.5963 39.2451 19.3855C41.4854 22.3931 42.4211 25.8162 42.0728 29.5845C41.7859 32.6344 40.6385 35.332 38.6646 37.6353C36.4994 40.1568 33.8084 41.7275 30.5846 42.3192C30.0587 42.4178 29.5259 42.4671 29 42.5446C28.4536 42.5446 27.9072 42.5446 27.3608 42.5446C27.2925 42.5305 27.2242 42.5023 27.1491 42.4953C24.9634 42.3333 22.9212 41.6923 21.0566 40.5161C17.4367 38.2269 15.2101 34.9376 14.4315 30.6199C14.3427 30.0776 14.288 29.5282 14.2197 28.9858ZM28.1872 15.9764C21.685 15.9694 16.4054 21.414 16.3917 28.1265C16.378 34.8249 21.6509 40.2766 28.1667 40.2977C34.669 40.3188 39.9828 34.846 39.976 28.1335C39.976 21.4211 34.6963 15.9835 28.1872 15.9764Z" fill="#3E7BFA"/>
<path d="M27.1011 24.8656C27.1011 23.7809 27.0942 22.6891 27.1011 21.6044C27.1079 20.7522 27.8387 20.2098 28.5695 20.4915C29.0135 20.6676 29.273 21.0762 29.273 21.6467C29.273 23.5484 29.2799 25.4502 29.2662 27.3519C29.2662 27.5844 29.3345 27.7182 29.5189 27.8591C30.7142 28.7747 31.9094 29.6974 33.0979 30.6201C33.5213 30.9512 33.6784 31.3879 33.5555 31.8457C33.3438 32.6205 32.5037 32.9234 31.8548 32.4374C31.1718 31.9302 30.5024 31.3949 29.8263 30.8737C29.1091 30.3173 28.3919 29.7538 27.668 29.2044C27.2718 28.9086 27.1011 28.5282 27.1011 28.0281C27.1011 26.9857 27.1011 25.9291 27.1011 24.8656Z" fill="#3E7BFA"/>
</g>
<defs>
<clipPath id="clip0_453_19289">
<rect width="27.9282" height="28.801" fill="white" transform="translate(14.2197 13.7366)"/>
</clipPath>
</defs>
</svg>
