<svg width="1044" height="5105" viewBox="0 0 1044 5105" fill="none" xmlns="http://www.w3.org/2000/svg">
<path d="M63.0329 0C63.0329 25.3333 137.452 183.483 196.772 219C343.033 306.57 756.999 112 883.999 297.5C1011 483 968.999 689.5 900.499 725.5C764.505 796.971 591.533 818.5 399.033 767.5C173.533 722 49.8284 848.39 23.9994 884.5C-2.12112 921.018 -24.6349 1132.06 95.0524 1296.99C96.9868 1299.65 99.0313 1302 101.609 1304.05C230.016 1406.19 941.278 1340.15 1004.53 1457.5C1077.03 1592 1039.06 2194.72 946.999 2249C762.999 2357.5 39.0329 2213.5 48.5329 2391C59.3685 2593.45 859.999 3126.5 935.999 3263.5C1083.76 3529.85 438.033 3910.5 274.533 3978C114.598 4044.03 -20.9366 4045.47 4.11668 4186.37C5.23974 4192.68 7.83097 4198.76 11.6897 4203.88C175.614 4421.59 766.217 4342.27 952.999 4449C972.147 4459.94 1080.61 4610.28 987.523 4689.87C977.073 4698.8 968.291 4710.13 965.759 4723.64C946.681 4825.44 965.629 4834.74 935.906 4939.39C934.674 4943.72 933.007 4947.95 930.003 4951.32C846.782 5044.5 203.021 4937.55 67.5 5104.5" stroke="black" stroke-opacity="0.3" stroke-dasharray="5 5"/>
</svg>
