<svg width="124" height="34" viewBox="0 0 124 34" fill="none" xmlns="http://www.w3.org/2000/svg">
<g clip-path="url(#clip0_452_13647)">
<path d="M52.8836 2.90234H49.0818C45.3363 3.03903 41.9979 5.43106 39.9811 8.45682C39.48 8.99735 39.7744 9.71807 40.1878 10.2027C41.4405 11.9113 42.7808 13.5515 43.9395 15.3285C44.6911 13.4024 45.6557 11.3459 47.6224 10.3829C51.0234 8.88552 55.5706 10.2959 57.1552 13.7317C58.8213 16.9749 57.2492 21.3738 53.8795 22.8214C50.9482 23.9708 47.303 23.1507 45.3739 20.6096C41.0333 15.1421 36.9872 9.45091 32.7532 3.89643C31.2061 3.6417 29.6591 3.36211 28.1058 3.1198C27.7989 4.74141 27.4732 6.36302 27.1475 7.97841C30.9055 13.2533 34.7449 18.4723 38.6032 23.6726C41.2338 27.2203 45.0607 30.3765 49.7519 30.2398H51.0109C58.0008 30.2522 64.2704 24.1386 64.3894 17.211C64.9469 10.4947 59.9236 3.38696 52.8836 2.90234Z" fill="#6698FA"/>
<path d="M15.9426 2.90234H13.0613C7.79241 3.18819 3.12982 7.05953 1.36104 11.9127C-0.470245 17.5115 1.17353 24.3532 6.10488 27.8703C8.04241 29.3679 10.4362 30.1198 12.8675 30.2441H15.23C19.4301 30.2068 23.3864 27.5037 25.3052 23.8996C24.4052 21.6314 22.2989 19.9101 21.0739 17.7539C20.3551 19.4938 19.5176 21.3269 17.8551 22.3647C14.2175 24.6328 8.70492 22.5698 7.51115 18.4561C6.41738 15.1626 8.26117 11.167 11.6112 10.0485C14.63 8.86781 18.1489 10.3405 19.9739 12.8697C24.1615 18.2759 28.274 23.7442 32.2929 29.2809C32.6304 27.8455 32.9179 26.3976 33.1679 24.9435C34.7554 24.9559 36.3367 25.0119 37.918 25.0616C34.9242 20.923 31.8804 16.8218 28.8616 12.7019C25.6927 8.33341 21.9739 2.97691 15.9426 2.90234Z" fill="white"/>
</g>
<path d="M70.9581 14L74.5772 5.88033H76.4331L80.0637 14H78.0918L75.1223 6.83149H75.8647L72.8836 14H70.9581ZM72.7676 12.2601L73.2664 10.8333H77.4422L77.9526 12.2601H72.7676ZM83.5058 14.0928C82.7712 14.0928 82.1989 13.9072 81.7891 13.536C81.3792 13.1571 81.1743 12.5965 81.1743 11.8541V6.37911H82.9838V11.8309C82.9838 12.0938 83.0534 12.2987 83.1926 12.4457C83.3318 12.5849 83.5213 12.6545 83.761 12.6545C84.0471 12.6545 84.2907 12.5771 84.4918 12.4225L84.9789 13.6984C84.7933 13.8299 84.5691 13.9304 84.3062 14C84.051 14.0619 83.7842 14.0928 83.5058 14.0928ZM80.2115 9.29059V7.89865H84.5382V9.29059H80.2115ZM89.0036 14.0928C88.3386 14.0928 87.747 13.9536 87.2289 13.6752C86.7185 13.3968 86.3125 13.0179 86.0109 12.5385C85.7171 12.0513 85.5702 11.4984 85.5702 10.8797C85.5702 10.2534 85.7171 9.70044 86.0109 9.221C86.3125 8.73382 86.7185 8.3549 87.2289 8.08424C87.747 7.80585 88.3386 7.66666 89.0036 7.66666C89.6609 7.66666 90.2486 7.80585 90.7667 8.08424C91.2849 8.3549 91.6908 8.72995 91.9847 9.2094C92.2785 9.68884 92.4255 10.2456 92.4255 10.8797C92.4255 11.4984 92.2785 12.0513 91.9847 12.5385C91.6908 13.0179 91.2849 13.3968 90.7667 13.6752C90.2486 13.9536 89.6609 14.0928 89.0036 14.0928ZM89.0036 12.6081C89.3052 12.6081 89.5759 12.5385 89.8156 12.3993C90.0553 12.2601 90.2448 12.0629 90.384 11.8077C90.5231 11.5448 90.5927 11.2354 90.5927 10.8797C90.5927 10.5163 90.5231 10.207 90.384 9.95177C90.2448 9.69658 90.0553 9.49938 89.8156 9.36019C89.5759 9.221 89.3052 9.1514 89.0036 9.1514C88.702 9.1514 88.4314 9.221 88.1916 9.36019C87.9519 9.49938 87.7586 9.69658 87.6117 9.95177C87.4725 10.207 87.4029 10.5163 87.4029 10.8797C87.4029 11.2354 87.4725 11.5448 87.6117 11.8077C87.7586 12.0629 87.9519 12.2601 88.1916 12.3993C88.4314 12.5385 88.702 12.6081 89.0036 12.6081ZM93.9946 14V5.88033H97.9616C98.9824 5.88033 99.7479 6.07366 100.258 6.46031C100.776 6.84696 101.035 7.35734 101.035 7.99145C101.035 8.41676 100.931 8.78795 100.722 9.105C100.514 9.41432 100.227 9.65404 99.8639 9.82417C99.5005 9.9943 99.0829 10.0794 98.6112 10.0794L98.8316 9.60378C99.342 9.60378 99.7943 9.68884 100.189 9.85897C100.583 10.0214 100.889 10.265 101.105 10.5897C101.329 10.9145 101.441 11.3128 101.441 11.7845C101.441 12.4805 101.167 13.0256 100.618 13.42C100.069 13.8067 99.2608 14 98.1936 14H93.9946ZM95.8621 12.5849H98.0544C98.5416 12.5849 98.9089 12.5075 99.1564 12.3529C99.4116 12.1905 99.5391 11.9353 99.5391 11.5873C99.5391 11.247 99.4116 10.9957 99.1564 10.8333C98.9089 10.6632 98.5416 10.5781 98.0544 10.5781H95.7229V9.2094H97.7296C98.1859 9.2094 98.5339 9.13207 98.7736 8.97741C99.021 8.81501 99.1448 8.57142 99.1448 8.24664C99.1448 7.92958 99.021 7.69373 98.7736 7.53906C98.5339 7.37667 98.1859 7.29548 97.7296 7.29548H95.8621V12.5849ZM73.7072 27V20.4115H71.1089V18.8803H78.1846V20.4115H75.5863V27H73.7072ZM79.1641 27V20.7595H80.8925V22.5226L80.6489 22.0122C80.8345 21.5714 81.1322 21.2389 81.542 21.0146C81.9519 20.7827 82.4507 20.6667 83.0384 20.6667V22.337C82.961 22.3293 82.8914 22.3254 82.8296 22.3254C82.7677 22.3177 82.702 22.3138 82.6324 22.3138C82.1375 22.3138 81.7354 22.4569 81.426 22.743C81.1245 23.0214 80.9737 23.4583 80.9737 24.0537V27H79.1641ZM87.7664 27V25.782L87.6504 25.5153V23.3346C87.6504 22.9479 87.5305 22.6463 87.2908 22.4298C87.0588 22.2133 86.6992 22.105 86.212 22.105C85.8795 22.105 85.5508 22.1591 85.2261 22.2674C84.909 22.3679 84.6384 22.5071 84.4141 22.685L83.7645 21.4206C84.1048 21.1809 84.5146 20.9953 84.9941 20.8639C85.4735 20.7324 85.9607 20.6667 86.4556 20.6667C87.4068 20.6667 88.1453 20.8909 88.6711 21.3394C89.197 21.7879 89.4599 22.4878 89.4599 23.4389V27H87.7664ZM85.864 27.0928C85.3769 27.0928 84.9593 27.0116 84.6113 26.8492C84.2633 26.6791 83.9965 26.451 83.8109 26.1648C83.6253 25.8787 83.5325 25.5578 83.5325 25.2021C83.5325 24.8309 83.6215 24.5061 83.7993 24.2277C83.9849 23.9493 84.2749 23.7328 84.6693 23.5781C85.0637 23.4157 85.5779 23.3346 86.212 23.3346H87.8708V24.3901H86.4092C85.9839 24.3901 85.69 24.4597 85.5277 24.5989C85.373 24.7381 85.2957 24.9121 85.2957 25.1209C85.2957 25.3529 85.3846 25.5385 85.5624 25.6777C85.748 25.8091 85.9994 25.8748 86.3164 25.8748C86.618 25.8748 86.8887 25.8052 87.1284 25.6661C87.3681 25.5191 87.5421 25.3065 87.6504 25.0281L87.9288 25.8632C87.7973 26.2654 87.5576 26.5708 87.2096 26.7796C86.8616 26.9884 86.4131 27.0928 85.864 27.0928ZM95.1226 20.6667C95.6175 20.6667 96.0583 20.7672 96.445 20.9682C96.8394 21.1616 97.1487 21.4632 97.3729 21.873C97.5972 22.2751 97.7093 22.7932 97.7093 23.4273V27H95.8998V23.7057C95.8998 23.2031 95.7877 22.8319 95.5634 22.5922C95.3469 22.3525 95.0376 22.2326 94.6355 22.2326C94.3493 22.2326 94.0903 22.2945 93.8583 22.4182C93.634 22.5342 93.4562 22.7159 93.3247 22.9634C93.201 23.2108 93.1391 23.5279 93.1391 23.9145V27H91.3296V20.7595H93.0579V22.4878L92.7331 21.9658C92.9574 21.5482 93.2783 21.2273 93.6959 21.003C94.1135 20.7788 94.5891 20.6667 95.1226 20.6667ZM101.681 27.0928C101.147 27.0928 100.633 27.0309 100.138 26.9072C99.6512 26.7757 99.2645 26.6133 98.9784 26.42L99.5816 25.1209C99.8677 25.2987 100.204 25.4457 100.591 25.5617C100.985 25.6699 101.372 25.7241 101.751 25.7241C102.168 25.7241 102.462 25.6738 102.632 25.5733C102.81 25.4727 102.899 25.3335 102.899 25.1557C102.899 25.0087 102.829 24.9005 102.69 24.8309C102.559 24.7536 102.381 24.6956 102.157 24.6569C101.932 24.6182 101.685 24.5796 101.414 24.5409C101.151 24.5022 100.885 24.452 100.614 24.3901C100.343 24.3205 100.096 24.22 99.8715 24.0885C99.6473 23.9571 99.4656 23.7792 99.3264 23.5549C99.1949 23.3307 99.1292 23.0407 99.1292 22.685C99.1292 22.2906 99.2413 21.9426 99.4656 21.641C99.6976 21.3394 100.03 21.1036 100.463 20.9334C100.896 20.7556 101.414 20.6667 102.017 20.6667C102.443 20.6667 102.876 20.7131 103.317 20.8059C103.757 20.8987 104.125 21.034 104.419 21.2118L103.815 22.4994C103.514 22.3215 103.208 22.2017 102.899 22.1398C102.597 22.0702 102.304 22.0354 102.017 22.0354C101.615 22.0354 101.321 22.0895 101.136 22.1978C100.95 22.3061 100.858 22.4453 100.858 22.6154C100.858 22.77 100.923 22.886 101.055 22.9634C101.194 23.0407 101.376 23.1026 101.6 23.149C101.824 23.1954 102.068 23.2379 102.331 23.2766C102.601 23.3075 102.872 23.3577 103.143 23.4273C103.413 23.4969 103.657 23.5975 103.873 23.7289C104.098 23.8527 104.279 24.0267 104.419 24.2509C104.558 24.4674 104.627 24.7536 104.627 25.1093C104.627 25.4959 104.511 25.84 104.279 26.1416C104.047 26.4355 103.711 26.6675 103.27 26.8376C102.837 27.0077 102.307 27.0928 101.681 27.0928ZM106.196 27V20.6203C106.196 19.9166 106.405 19.3559 106.823 18.9383C107.24 18.513 107.836 18.3004 108.609 18.3004C108.872 18.3004 109.123 18.3274 109.363 18.3816C109.61 18.4357 109.819 18.5207 109.989 18.6367L109.514 19.9475C109.413 19.8779 109.301 19.8238 109.177 19.7851C109.054 19.7464 108.922 19.7271 108.783 19.7271C108.52 19.7271 108.315 19.8044 108.168 19.9591C108.029 20.106 107.959 20.3303 107.959 20.6319V21.2118L108.006 21.989V27H106.196ZM105.233 22.2906V20.8987H109.56V22.2906H105.233ZM113.711 27.0928C113 27.0928 112.374 26.9536 111.832 26.6752C111.299 26.3968 110.885 26.0179 110.591 25.5385C110.297 25.0513 110.15 24.4984 110.15 23.8797C110.15 23.2534 110.293 22.7004 110.579 22.221C110.873 21.7338 111.272 21.3549 111.774 21.0842C112.277 20.8059 112.845 20.6667 113.479 20.6667C114.09 20.6667 114.639 20.7981 115.126 21.061C115.621 21.3162 116.012 21.6874 116.298 22.1746C116.584 22.654 116.727 23.2302 116.727 23.9029C116.727 23.9725 116.723 24.0537 116.716 24.1465C116.708 24.2316 116.7 24.3128 116.692 24.3901H111.623V23.3346H115.741L115.045 23.6477C115.045 23.323 114.98 23.0407 114.848 22.801C114.717 22.5612 114.535 22.3757 114.303 22.2442C114.071 22.105 113.8 22.0354 113.491 22.0354C113.182 22.0354 112.907 22.105 112.667 22.2442C112.435 22.3757 112.254 22.5651 112.122 22.8126C111.991 23.0523 111.925 23.3384 111.925 23.6709V23.9493C111.925 24.2896 111.998 24.5912 112.145 24.8541C112.3 25.1093 112.513 25.3065 112.783 25.4457C113.062 25.5771 113.387 25.6429 113.758 25.6429C114.09 25.6429 114.38 25.5926 114.628 25.4921C114.883 25.3915 115.115 25.2407 115.324 25.0397L116.286 26.0836C116 26.4084 115.641 26.6597 115.208 26.8376C114.775 27.0077 114.276 27.0928 113.711 27.0928ZM118.164 27V20.7595H119.892V22.5226L119.649 22.0122C119.834 21.5714 120.132 21.2389 120.542 21.0146C120.952 20.7827 121.45 20.6667 122.038 20.6667V22.337C121.961 22.3293 121.891 22.3254 121.829 22.3254C121.767 22.3177 121.702 22.3138 121.632 22.3138C121.137 22.3138 120.735 22.4569 120.426 22.743C120.124 23.0214 119.973 23.4583 119.973 24.0537V27H118.164Z" fill="white"/>
<defs>
<clipPath id="clip0_452_13647">
<rect width="63.7974" height="33.1415" fill="white" transform="matrix(-1 0 0 1 64.4336 0)"/>
</clipPath>
</defs>
</svg>
