<svg width="66" height="34" viewBox="0 0 66 34" fill="none" xmlns="http://www.w3.org/2000/svg">
<g clip-path="url(#clip0_453_18550)">
<g clip-path="url(#clip1_453_18550)">
<path d="M52.2942 4.02826L48.8334 3.25879C45.1053 3.39422 41.9396 5.54873 39.9322 8.54658C39.4334 9.08213 39.7264 9.79619 40.1379 10.2763C41.3848 11.9692 42.7189 13.5943 43.8722 15.3548C44.6204 13.4466 45.5804 11.409 47.538 10.4549C50.9232 8.97132 55.4493 10.3687 57.0266 13.7728C58.6849 16.9861 57.1201 21.3444 53.766 22.7787C50.8484 23.9175 47.22 23.1049 45.2999 20.5872C40.9795 15.1702 36.9522 9.5315 32.7378 4.02826C31.198 3.77587 29.6581 3.49886 28.112 3.25879C27.8065 4.86544 27.4823 6.47209 27.1581 8.07258C30.8987 13.2988 34.7203 18.4696 38.5606 23.622C41.179 27.1369 46.4715 30.817 50.097 29.5035H51.3055C58.2629 29.5158 63.4916 23.999 63.61 17.1354C64.1649 10.481 59.3015 4.50841 52.2942 4.02826Z" fill="#598CFF"/>
<path fill-rule="evenodd" clip-rule="evenodd" d="M64.2683 16.461C64.2631 16.714 64.25 16.9669 64.229 17.2192C64.2219 17.6263 64.1934 18.0305 64.1444 18.4309C63.9955 19.5236 63.7161 20.575 63.3223 21.569C61.3348 26.4507 56.342 30.1374 50.9125 30.1278H49.6943C42.6144 29.6411 37.0227 23.7652 37.0227 16.5882C37.0227 14.6763 37.4195 12.8568 38.1356 11.2068C40.4884 14.3612 42.8478 17.5095 45.3017 20.5864C47.2218 23.1041 50.8502 23.9166 53.7678 22.7778C57.1219 21.3435 58.6867 16.9852 57.0284 13.7719C55.4511 10.3678 50.925 8.97046 47.5398 10.454C45.5822 11.4081 44.6222 13.4457 43.874 15.354C43.0995 14.1716 42.2434 13.0504 41.3869 11.9286C40.9681 11.3801 40.5492 10.8314 40.1397 10.2755C39.7282 9.79533 39.4352 9.08127 39.934 8.54572C40.583 7.57655 41.3694 6.67301 42.2626 5.88938C44.3639 4.25283 46.9597 3.21734 49.7894 3.04248H51.5022C58.5851 3.48017 64.2024 9.30984 64.2683 16.461Z" fill="#598CFF"/>
<path d="M15.2968 3.12305L13.1381 3.56086C7.89373 3.84407 4.12186 8.10793 2.36129 12.9163C0.538509 18.4635 2.12205 23.7727 7.03049 27.2573C8.95903 28.7411 10.7181 29.4327 13.1381 29.5559L15.2968 30.1305C19.4774 30.0935 23.4154 27.4154 25.3252 23.8445C24.4294 21.5973 22.3329 19.8919 21.1136 17.7555C20.3981 19.4794 19.5645 21.2956 17.9097 22.3238C14.289 24.571 8.80201 22.5269 7.61378 18.4512C6.52509 15.1881 8.36032 11.2294 11.6948 10.1212C14.6996 8.9514 18.2021 10.4105 20.0186 12.9163C24.1868 18.2727 28.2802 23.6906 32.2804 29.1762C32.6164 27.754 32.9025 26.3195 33.1514 24.8788C34.7315 24.8911 36.3055 24.9465 37.8794 24.9958C34.8995 20.8954 31.8698 16.832 28.865 12.7501C25.7109 8.42192 21.5325 3.12305 15.2968 3.12305Z" fill="#232323"/>
<path fill-rule="evenodd" clip-rule="evenodd" d="M26.9165 21.9355C27.6234 20.2945 28.0149 18.4866 28.0149 16.5876C28.0149 9.38182 22.3783 3.4876 15.2581 3.04248H13.5256C6.40536 3.4876 0.768738 9.38182 0.768738 16.5876C0.768738 23.7895 6.39922 29.6812 13.5139 30.132H15.2697C17.0495 30.0192 18.7365 29.566 20.2656 28.8368C22.4057 27.7085 24.21 25.9291 25.3242 23.846C24.8117 22.5605 23.9063 21.4522 22.9969 20.3392C22.3167 19.5066 21.6343 18.6712 21.1125 17.757C20.3971 19.4809 19.5634 21.2971 17.9086 22.3253C14.288 24.5725 8.80095 22.5285 7.61272 18.4527C6.52403 15.1897 8.35925 11.2309 11.6938 10.1227C14.6985 8.95292 18.201 10.4121 20.0176 12.9178C22.3415 15.9042 24.6422 18.9098 26.9165 21.9355Z" fill="#232323"/>
</g>
</g>
<defs>
<clipPath id="clip0_453_18550">
<rect width="65.045" height="32.8358" fill="white" transform="translate(0 0.168457)"/>
</clipPath>
<clipPath id="clip1_453_18550">
<rect width="63.5011" height="32.8358" fill="white" transform="matrix(-1 0 0 1 64.2715 0.168701)"/>
</clipPath>
</defs>
</svg>
