<svg width="71" height="38" viewBox="0 0 71 38" fill="none" xmlns="http://www.w3.org/2000/svg">
<g clip-path="url(#clip0_149_23424)">
<path d="M58.146 3.65332H53.915C49.7466 3.80544 46.0313 6.46752 43.7868 9.83488C43.2292 10.4364 43.5568 11.2385 44.0169 11.7779C45.411 13.6793 46.9026 15.5048 48.1922 17.4823C49.0286 15.3388 50.1021 13.0501 52.2908 11.9784C56.0758 10.312 61.1364 11.8816 62.8999 15.7053C64.7541 19.3147 63.0045 24.2101 59.2543 25.8212C55.9922 27.1004 51.9353 26.1877 49.7884 23.3596C44.9579 17.2749 40.4549 10.9412 35.7429 4.75964C34.0212 4.47615 32.2995 4.16499 30.5708 3.89533C30.2292 5.70001 29.8668 7.5047 29.5043 9.30247C33.6866 15.1729 37.9595 20.9811 42.2533 26.7685C45.1809 30.7167 49.4399 34.2292 54.6608 34.0771H56.0619C63.8409 34.091 70.8184 27.2871 70.9508 19.5774C71.5712 12.1028 65.9809 4.19265 58.146 3.65332Z" fill="#6698FA"/>
<path d="M17.0353 3.65332H13.8287C7.96502 3.97144 2.77604 8.27985 0.807561 13.6809C-1.23047 19.9119 0.598886 27.5259 6.08697 31.4401C8.24325 33.1068 10.9073 33.9436 13.6131 34.0819H16.2424C20.9166 34.0404 25.3196 31.0321 27.455 27.0211C26.4534 24.4969 24.1093 22.5813 22.746 20.1816C21.9461 22.1179 21.014 24.158 19.1638 25.3129C15.1155 27.8371 8.98056 25.5411 7.65201 20.963C6.43475 17.2978 8.4867 12.851 12.215 11.6062C15.5746 10.2923 19.4907 11.9313 21.5218 14.7459C26.1821 20.7625 30.759 26.8482 35.2315 33.01C35.6071 31.4125 35.9271 29.8011 36.2053 28.1829C37.9721 28.1967 39.7319 28.259 41.4917 28.3143C38.1599 23.7085 34.7725 19.1442 31.4128 14.5592C27.8863 9.69754 23.7476 3.73631 17.0353 3.65332Z" fill="white"/>
</g>
<defs>
<clipPath id="clip0_149_23424">
<rect width="71" height="36.8831" fill="white" transform="matrix(-1 0 0 1 71 0.42334)"/>
</clipPath>
</defs>
</svg>
