<svg width="124" height="34" viewBox="0 0 124 34" fill="none" xmlns="http://www.w3.org/2000/svg">
<g clip-path="url(#clip0_149_17692)">
<path d="M52.6544 3.01562H48.8348C45.0717 3.15295 41.7177 5.55619 39.6914 8.59614C39.188 9.13921 39.4838 9.8633 39.8991 10.3502C41.1576 12.0668 42.5043 13.7147 43.6684 15.5C44.4235 13.5649 45.3926 11.4988 47.3685 10.5312C50.7855 9.02685 55.354 10.4438 56.9461 13.8958C58.6199 17.1542 57.0405 21.5736 53.655 23.0281C50.71 24.1829 47.0476 23.3589 45.1095 20.8058C40.7486 15.3127 36.6835 9.59489 32.4296 4.01437C30.8753 3.75844 29.321 3.47755 27.7604 3.2341C27.4521 4.86331 27.1248 6.49252 26.7976 8.11549C30.5733 13.4151 34.4307 18.6585 38.307 23.8832C40.95 27.4475 44.7948 30.6186 49.5081 30.4812H50.7729C57.7956 30.4937 64.0946 24.3514 64.2142 17.3914C64.7742 10.6436 59.7275 3.50252 52.6544 3.01562Z" fill="#598CFF"/>
<path d="M15.5414 3.01562H12.6466C7.35308 3.30281 2.66864 7.1923 0.891563 12.0682C-0.948307 17.6933 0.703178 24.567 5.65764 28.1007C7.60426 29.6053 10.0093 30.3607 12.452 30.4855H14.8256C19.0454 30.4481 23.0202 27.7323 24.948 24.1113C24.0438 21.8325 21.9276 20.1032 20.6968 17.9368C19.9747 19.6849 19.1333 21.5266 17.4629 22.5692C13.8083 24.848 8.26988 22.7752 7.07051 18.6423C5.97161 15.3334 7.82404 11.319 11.1898 10.1953C14.2228 9.00906 17.7581 10.4887 19.5917 13.0297C23.7989 18.4612 27.9307 23.9552 31.9684 29.5178C32.3075 28.0757 32.5963 26.621 32.8475 25.1601C34.4425 25.1726 36.0312 25.2288 37.6199 25.2787C34.612 21.1208 31.554 17.0003 28.521 12.8611C25.3373 8.47215 21.6011 3.09054 15.5414 3.01562Z" fill="white"/>
</g>
<path d="M77.2604 12.3535H73.4729L72.7503 14.1016H70.8158L74.4518 5.94383H76.3164L79.9641 14.1016H77.9829L77.2604 12.3535ZM76.666 10.92L75.3724 7.7968L74.0789 10.92H76.666ZM84.9023 13.7986C84.7236 13.9306 84.5022 14.0316 84.2381 14.1016C83.9817 14.1637 83.7097 14.1948 83.4223 14.1948C82.6764 14.1948 82.0976 14.0044 81.6859 13.6238C81.2819 13.2431 81.0799 12.6837 81.0799 11.9456V9.37008H80.1126V7.97161H81.0799V6.44495H82.8979V7.97161H84.4595V9.37008H82.8979V11.9223C82.8979 12.1864 82.9639 12.3923 83.096 12.5399C83.2358 12.6798 83.4301 12.7497 83.6787 12.7497C83.9661 12.7497 84.2109 12.672 84.4129 12.5166L84.9023 13.7986ZM88.9459 14.1948C88.2855 14.1948 87.6911 14.0588 87.1628 13.7869C86.6423 13.5072 86.2344 13.1226 85.9392 12.6332C85.6439 12.1437 85.4963 11.5882 85.4963 10.9667C85.4963 10.3451 85.6439 9.78962 85.9392 9.30015C86.2344 8.81069 86.6423 8.43 87.1628 8.15807C87.6911 7.87838 88.2855 7.73853 88.9459 7.73853C89.6063 7.73853 90.1967 7.87838 90.7173 8.15807C91.2378 8.43 91.6457 8.81069 91.9409 9.30015C92.2362 9.78962 92.3838 10.3451 92.3838 10.9667C92.3838 11.5882 92.2362 12.1437 91.9409 12.6332C91.6457 13.1226 91.2378 13.5072 90.7173 13.7869C90.1967 14.0588 89.6063 14.1948 88.9459 14.1948ZM88.9459 12.7031C89.412 12.7031 89.7927 12.5477 90.088 12.2369C90.391 11.9184 90.5425 11.495 90.5425 10.9667C90.5425 10.4384 90.391 10.0188 90.088 9.70804C89.7927 9.3895 89.412 9.23023 88.9459 9.23023C88.4797 9.23023 88.0951 9.3895 87.7921 9.70804C87.4891 10.0188 87.3376 10.4384 87.3376 10.9667C87.3376 11.495 87.4891 11.9184 87.7921 12.2369C88.0951 12.5477 88.4797 12.7031 88.9459 12.7031ZM99.9503 9.85954C100.416 10.0072 100.782 10.2558 101.046 10.6054C101.31 10.9472 101.442 11.3707 101.442 11.8757C101.442 12.5904 101.162 13.1421 100.603 13.5305C100.051 13.9112 99.2433 14.1016 98.1789 14.1016H93.9602V5.94383H97.9459C98.9403 5.94383 99.7017 6.13418 100.23 6.51487C100.766 6.89557 101.034 7.41222 101.034 8.06484C101.034 8.46107 100.937 8.81458 100.743 9.12535C100.556 9.43612 100.292 9.68085 99.9503 9.85954ZM95.8365 7.36561V9.2885H97.7128C98.1789 9.2885 98.5325 9.20692 98.7733 9.04377C99.0141 8.88061 99.1346 8.63977 99.1346 8.32123C99.1346 8.00269 99.0141 7.76572 98.7733 7.61034C98.5325 7.44718 98.1789 7.36561 97.7128 7.36561H95.8365ZM98.0391 12.6798C98.5363 12.6798 98.9093 12.5982 99.1579 12.4351C99.4143 12.2719 99.5425 12.0194 99.5425 11.6776C99.5425 11.0016 99.0413 10.6637 98.0391 10.6637H95.8365V12.6798H98.0391ZM73.5777 20.4821H70.9673V18.9438H78.0762V20.4821H75.4657V27.1016H73.5777V20.4821ZM80.7967 21.6592C81.0142 21.3562 81.3056 21.127 81.6707 20.9716C82.0437 20.8162 82.471 20.7385 82.9527 20.7385V22.4167C82.7507 22.4012 82.6147 22.3934 82.5448 22.3934C82.0242 22.3934 81.6164 22.541 81.3211 22.8362C81.0259 23.1237 80.8783 23.5588 80.8783 24.1415V27.1016H79.0603V20.8318H80.7967V21.6592ZM86.7615 20.7385C87.7327 20.7385 88.4785 20.9716 88.999 21.4378C89.5196 21.8962 89.7799 22.5915 89.7799 23.5238V27.1016H88.0784V26.3208C87.7365 26.9034 87.0995 27.1948 86.1671 27.1948C85.6855 27.1948 85.2659 27.1132 84.9085 26.9501C84.5589 26.7869 84.2909 26.5616 84.1044 26.2741C83.9179 25.9867 83.8247 25.6604 83.8247 25.2952C83.8247 24.7125 84.0423 24.2541 84.4773 23.92C84.9202 23.586 85.6 23.4189 86.5168 23.4189H87.9618C87.9618 23.0227 87.8414 22.7197 87.6006 22.5099C87.3597 22.2924 86.9985 22.1836 86.5168 22.1836C86.1827 22.1836 85.8525 22.238 85.5262 22.3468C85.2076 22.4478 84.9357 22.5876 84.7104 22.7663L84.0578 21.496C84.3996 21.2552 84.8075 21.0687 85.2814 20.9366C85.7631 20.8046 86.2565 20.7385 86.7615 20.7385ZM86.6216 25.9711C86.9324 25.9711 87.2082 25.9012 87.4491 25.7614C87.6899 25.6137 87.8608 25.4001 87.9618 25.1204V24.4794H86.7149C85.969 24.4794 85.5961 24.7242 85.5961 25.2136C85.5961 25.4467 85.6855 25.6332 85.8641 25.773C86.0506 25.9051 86.3031 25.9711 86.6216 25.9711ZM95.4691 20.7385C96.2461 20.7385 96.8715 20.9716 97.3454 21.4378C97.8271 21.9039 98.068 22.5954 98.068 23.5122V27.1016H96.25V23.7919C96.25 23.2946 96.1412 22.9256 95.9236 22.6847C95.7061 22.4361 95.3915 22.3118 94.9797 22.3118C94.5213 22.3118 94.1561 22.4555 93.8842 22.743C93.6123 23.0227 93.4763 23.4422 93.4763 24.0016V27.1016H91.6583V20.8318H93.3947V21.566C93.6356 21.3018 93.9347 21.0998 94.2921 20.96C94.6495 20.8123 95.0418 20.7385 95.4691 20.7385ZM102.058 27.1948C101.538 27.1948 101.029 27.1326 100.532 27.0083C100.034 26.8763 99.6382 26.7131 99.343 26.5189L99.949 25.2136C100.229 25.3923 100.567 25.5399 100.963 25.6565C101.359 25.7652 101.748 25.8196 102.128 25.8196C102.897 25.8196 103.282 25.6293 103.282 25.2486C103.282 25.0699 103.177 24.9417 102.967 24.864C102.758 24.7863 102.435 24.7203 102 24.6659C101.487 24.5882 101.064 24.4989 100.73 24.3979C100.396 24.2969 100.104 24.1182 99.8557 23.8618C99.6149 23.6054 99.4945 23.2402 99.4945 22.7663C99.4945 22.3701 99.6071 22.0205 99.8324 21.7175C100.066 21.4067 100.4 21.1658 100.835 20.9949C101.278 20.824 101.798 20.7385 102.396 20.7385C102.839 20.7385 103.278 20.789 103.713 20.89C104.156 20.9833 104.521 21.1153 104.809 21.2863L104.203 22.5798C103.651 22.2691 103.049 22.1137 102.396 22.1137C102.008 22.1137 101.716 22.1681 101.522 22.2768C101.328 22.3856 101.231 22.5255 101.231 22.6964C101.231 22.8906 101.336 23.0266 101.546 23.1043C101.755 23.182 102.089 23.2558 102.548 23.3257C103.061 23.4112 103.48 23.5044 103.806 23.6054C104.133 23.6986 104.416 23.8734 104.657 24.1298C104.898 24.3862 105.018 24.7436 105.018 25.202C105.018 25.5904 104.902 25.9362 104.669 26.2392C104.436 26.5422 104.094 26.7791 103.643 26.9501C103.2 27.1132 102.672 27.1948 102.058 27.1948ZM108.366 20.9716H109.974V22.3701H108.413V27.1016H106.595V22.3701H105.627V20.9716H106.595V20.6919C106.595 19.9771 106.804 19.41 107.224 18.9904C107.651 18.5709 108.249 18.3611 109.019 18.3611C109.291 18.3611 109.547 18.3922 109.788 18.4544C110.036 18.5088 110.242 18.5903 110.405 18.6991L109.928 20.016C109.718 19.8684 109.473 19.7946 109.193 19.7946C108.642 19.7946 108.366 20.0976 108.366 20.7036V20.9716ZM117.175 23.99C117.175 24.0133 117.163 24.1764 117.14 24.4794H112.397C112.482 24.8679 112.684 25.1748 113.003 25.4001C113.321 25.6254 113.718 25.7381 114.192 25.7381C114.518 25.7381 114.805 25.6914 115.054 25.5982C115.31 25.4972 115.547 25.3418 115.765 25.1321L116.732 26.1809C116.142 26.8568 115.279 27.1948 114.145 27.1948C113.438 27.1948 112.813 27.0588 112.269 26.7869C111.725 26.5072 111.305 26.1226 111.01 25.6332C110.715 25.1437 110.567 24.5882 110.567 23.9667C110.567 23.3529 110.711 22.8013 110.998 22.3118C111.294 21.8146 111.694 21.43 112.199 21.1581C112.712 20.8784 113.283 20.7385 113.912 20.7385C114.526 20.7385 115.081 20.8706 115.578 21.1348C116.076 21.3989 116.464 21.7796 116.744 22.2768C117.031 22.7663 117.175 23.3374 117.175 23.99ZM113.924 22.1137C113.512 22.1137 113.166 22.2302 112.886 22.4633C112.607 22.6964 112.436 23.0149 112.374 23.4189H115.462C115.4 23.0227 115.229 22.708 114.949 22.475C114.669 22.2341 114.328 22.1137 113.924 22.1137ZM120.355 21.6592C120.572 21.3562 120.864 21.127 121.229 20.9716C121.602 20.8162 122.029 20.7385 122.511 20.7385V22.4167C122.309 22.4012 122.173 22.3934 122.103 22.3934C121.582 22.3934 121.175 22.541 120.879 22.8362C120.584 23.1237 120.436 23.5588 120.436 24.1415V27.1016H118.618V20.8318H120.355V21.6592Z" fill="white"/>
<defs>
<clipPath id="clip0_149_17692">
<rect width="64.0965" height="33.2969" fill="white" transform="matrix(-1 0 0 1 64.2585 0.101562)"/>
</clipPath>
</defs>
</svg>
