<svg width="127" height="34" viewBox="0 0 127 34" fill="none" xmlns="http://www.w3.org/2000/svg">
<g clip-path="url(#clip0_453_14320)">
<path d="M80.6383 13.0157H76.8322L76.1061 14.7619H74.1621L77.8159 6.61328H79.6897L83.3552 14.7619H81.3643L80.6383 13.0157ZM80.041 11.5839L78.7411 8.46418L77.4412 11.5839H80.041Z" fill="#232323"/>
<path d="M88.3176 14.4592C88.138 14.5911 87.9155 14.692 87.6501 14.7619C87.3924 14.824 87.1192 14.855 86.8303 14.855C86.0808 14.855 85.4992 14.6649 85.0854 14.2846C84.6794 13.9043 84.4764 13.3456 84.4764 12.6083V10.0357H83.5044V8.63879H84.4764V7.11384H86.3033V8.63879H87.8726V10.0357H86.3033V12.585C86.3033 12.8489 86.3697 13.0546 86.5024 13.202C86.6429 13.3417 86.8381 13.4115 87.088 13.4115C87.3768 13.4115 87.6228 13.3339 87.8258 13.1787L88.3176 14.4592Z" fill="#232323"/>
<path d="M92.3809 14.855C91.7173 14.855 91.1201 14.7192 90.5892 14.4476C90.0661 14.1682 89.6562 13.784 89.3595 13.2951C89.0628 12.8062 88.9145 12.2513 88.9145 11.6305C88.9145 11.0096 89.0628 10.4548 89.3595 9.96585C89.6562 9.47693 90.0661 9.09666 90.5892 8.82504C91.1201 8.54566 91.7173 8.40597 92.3809 8.40597C93.0446 8.40597 93.6379 8.54566 94.161 8.82504C94.6841 9.09666 95.094 9.47693 95.3906 9.96585C95.6873 10.4548 95.8357 11.0096 95.8357 11.6305C95.8357 12.2513 95.6873 12.8062 95.3906 13.2951C95.094 13.784 94.6841 14.1682 94.161 14.4476C93.6379 14.7192 93.0446 14.855 92.3809 14.855ZM92.3809 13.365C92.8494 13.365 93.2319 13.2098 93.5286 12.8993C93.8331 12.5812 93.9853 12.1582 93.9853 11.6305C93.9853 11.1028 93.8331 10.6837 93.5286 10.3733C93.2319 10.0551 92.8494 9.896 92.3809 9.896C91.9125 9.896 91.526 10.0551 91.2216 10.3733C90.9171 10.6837 90.7648 11.1028 90.7648 11.6305C90.7648 12.1582 90.9171 12.5812 91.2216 12.8993C91.526 13.2098 91.9125 13.365 92.3809 13.365Z" fill="#232323"/>
<path d="M103.439 10.5246C103.908 10.6721 104.275 10.9204 104.54 11.2696C104.806 11.6111 104.938 12.034 104.938 12.5385C104.938 13.2524 104.657 13.8034 104.095 14.1915C103.541 14.5717 102.729 14.7619 101.659 14.7619H97.4198V6.61328H101.425C102.424 6.61328 103.189 6.80342 103.72 7.18368C104.259 7.56395 104.528 8.08003 104.528 8.73192C104.528 9.12771 104.431 9.48081 104.236 9.79123C104.048 10.1017 103.783 10.3461 103.439 10.5246ZM99.3053 8.03347V9.95421H101.191C101.659 9.95421 102.014 9.87272 102.256 9.70975C102.498 9.54678 102.62 9.3062 102.62 8.98802C102.62 8.66983 102.498 8.43313 102.256 8.27792C102.014 8.11495 101.659 8.03347 101.191 8.03347H99.3053ZM101.519 13.3417C102.018 13.3417 102.393 13.2602 102.643 13.0972C102.901 12.9343 103.029 12.682 103.029 12.3406C103.029 11.6654 102.526 11.3278 101.519 11.3278H99.3053V13.3417H101.519Z" fill="#232323"/>
<path d="M76.9376 21.4537H74.3144V19.9171H81.458V21.4537H78.8348V28.0657H76.9376V21.4537Z" fill="#232323"/>
<path d="M84.1919 22.6294C84.4105 22.3268 84.7033 22.0978 85.0702 21.9426C85.445 21.7874 85.8744 21.7098 86.3584 21.7098V23.3861C86.1554 23.3706 86.0188 23.3628 85.9485 23.3628C85.4254 23.3628 85.0156 23.5103 84.7189 23.8052C84.4222 24.0923 84.2739 24.5269 84.2739 25.1089V28.0657H82.447V21.8029H84.1919V22.6294Z" fill="#232323"/>
<path d="M90.1859 21.7098C91.1618 21.7098 91.9113 21.9426 92.4344 22.4083C92.9575 22.8661 93.219 23.5607 93.219 24.492V28.0657H91.5092V27.2858C91.1657 27.8678 90.5255 28.1588 89.5886 28.1588C89.1046 28.1588 88.683 28.0773 88.3238 27.9144C87.9725 27.7514 87.7032 27.5263 87.5158 27.2392C87.3284 26.9521 87.2347 26.6261 87.2347 26.2614C87.2347 25.6793 87.4533 25.2215 87.8905 24.8878C88.3355 24.5541 89.0187 24.3872 89.9399 24.3872H91.3921C91.3921 23.9914 91.2711 23.6887 91.0291 23.4792C90.787 23.2619 90.424 23.1533 89.9399 23.1533C89.6042 23.1533 89.2724 23.2076 88.9445 23.3162C88.6244 23.4171 88.3512 23.5568 88.1247 23.7353L87.4689 22.4665C87.8125 22.2259 88.2223 22.0396 88.6986 21.9077C89.1826 21.7758 89.6784 21.7098 90.1859 21.7098ZM90.0453 26.9365C90.3576 26.9365 90.6348 26.8667 90.8768 26.727C91.1188 26.5796 91.2906 26.3661 91.3921 26.0868V25.4465H90.139C89.3895 25.4465 89.0148 25.691 89.0148 26.1799C89.0148 26.4127 89.1046 26.599 89.2841 26.7387C89.4715 26.8706 89.7252 26.9365 90.0453 26.9365Z" fill="#232323"/>
<path d="M98.9361 21.7098C99.7169 21.7098 100.345 21.9426 100.822 22.4083C101.306 22.8739 101.548 23.5646 101.548 24.4803V28.0657H99.7208V24.7597C99.7208 24.263 99.6115 23.8944 99.3929 23.6538C99.1743 23.4055 98.8581 23.2813 98.4443 23.2813C97.9836 23.2813 97.6167 23.4249 97.3434 23.712C97.0702 23.9914 96.9336 24.4105 96.9336 24.9692V28.0657H95.1067V21.8029H96.8516V22.5363C97.0936 22.2724 97.3942 22.0707 97.7533 21.931C98.1125 21.7835 98.5067 21.7098 98.9361 21.7098Z" fill="#232323"/>
<path d="M105.558 28.1588C105.034 28.1588 104.523 28.0968 104.023 27.9726C103.524 27.8407 103.126 27.6777 102.829 27.4837L103.438 26.1799C103.719 26.3584 104.059 26.5058 104.457 26.6222C104.855 26.7309 105.245 26.7852 105.628 26.7852C106.401 26.7852 106.787 26.5951 106.787 26.2148C106.787 26.0363 106.682 25.9083 106.471 25.8307C106.26 25.7531 105.936 25.6871 105.499 25.6328C104.984 25.5552 104.558 25.4659 104.223 25.365C103.887 25.2641 103.594 25.0856 103.344 24.8296C103.102 24.5735 102.981 24.2087 102.981 23.7353C102.981 23.3395 103.094 22.9903 103.321 22.6876C103.555 22.3772 103.891 22.1366 104.328 21.9659C104.773 21.7952 105.296 21.7098 105.897 21.7098C106.342 21.7098 106.783 21.7602 107.221 21.8611C107.666 21.9543 108.032 22.0862 108.321 22.2569L107.712 23.5491C107.158 23.2386 106.553 23.0834 105.897 23.0834C105.507 23.0834 105.214 23.1377 105.019 23.2464C104.824 23.355 104.726 23.4947 104.726 23.6655C104.726 23.8595 104.831 23.9953 105.042 24.0729C105.253 24.1505 105.589 24.2242 106.049 24.2941C106.565 24.3794 106.986 24.4726 107.314 24.5735C107.642 24.6666 107.927 24.8412 108.169 25.0973C108.411 25.3534 108.532 25.7104 108.532 26.1682C108.532 26.5563 108.415 26.9016 108.181 27.2043C107.947 27.5069 107.603 27.7436 107.15 27.9144C106.705 28.0773 106.174 28.1588 105.558 28.1588Z" fill="#232323"/>
<path d="M111.896 21.9426H113.512V23.3395H111.943V28.0657H110.116V23.3395H109.144V21.9426H110.116V21.6632C110.116 20.9493 110.327 20.3827 110.748 19.9637C111.178 19.5446 111.779 19.3351 112.552 19.3351C112.825 19.3351 113.083 19.3661 113.325 19.4282C113.575 19.4825 113.782 19.564 113.946 19.6727L113.465 20.9881C113.255 20.8406 113.009 20.7669 112.728 20.7669C112.173 20.7669 111.896 21.0696 111.896 21.6749V21.9426Z" fill="#232323"/>
<path d="M120.748 24.9576C120.748 24.9809 120.736 25.1439 120.713 25.4465H115.947C116.033 25.8345 116.236 26.1411 116.556 26.3661C116.876 26.5912 117.274 26.7037 117.75 26.7037C118.078 26.7037 118.367 26.6572 118.617 26.564C118.874 26.4632 119.113 26.3079 119.331 26.0984L120.303 27.1461C119.71 27.8212 118.843 28.1588 117.703 28.1588C116.993 28.1588 116.364 28.023 115.818 27.7514C115.271 27.472 114.85 27.0879 114.553 26.599C114.256 26.11 114.108 25.5552 114.108 24.9343C114.108 24.3212 114.253 23.7702 114.541 23.2813C114.838 22.7846 115.24 22.4005 115.748 22.1289C116.263 21.8495 116.837 21.7098 117.469 21.7098C118.086 21.7098 118.644 21.8417 119.144 22.1056C119.643 22.3695 120.034 22.7497 120.315 23.2464C120.604 23.7353 120.748 24.3057 120.748 24.9576ZM117.481 23.0834C117.067 23.0834 116.72 23.1998 116.439 23.4326C116.158 23.6655 115.986 23.9837 115.923 24.3872H119.027C118.964 23.9914 118.792 23.6771 118.511 23.4443C118.23 23.2037 117.887 23.0834 117.481 23.0834Z" fill="#232323"/>
<path d="M123.944 22.6294C124.162 22.3268 124.455 22.0978 124.822 21.9426C125.197 21.7874 125.626 21.7098 126.11 21.7098V23.3861C125.907 23.3706 125.771 23.3628 125.7 23.3628C125.177 23.3628 124.767 23.5103 124.471 23.8052C124.174 24.0923 124.026 24.5269 124.026 25.1089V28.0657H122.199V21.8029H123.944V22.6294Z" fill="#232323"/>
<g clip-path="url(#clip1_453_14320)">
<path d="M53.789 4.53272L50.2774 3.75195C46.4946 3.88937 43.2824 6.07551 41.2455 9.11737C40.7395 9.66078 41.0368 10.3853 41.4543 10.8725C42.7195 12.5902 44.0732 14.2392 45.2434 16.0256C46.0025 14.0893 46.9767 12.0218 48.963 11.0537C52.3979 9.54835 56.9905 10.9662 58.5909 14.4203C60.2736 17.6808 58.6858 22.1031 55.2825 23.5584C52.322 24.7139 48.6404 23.8895 46.6921 21.3348C42.3083 15.8382 38.2218 10.1168 33.9456 4.53272C32.3831 4.27663 30.8206 3.99555 29.2518 3.75195C28.9418 5.38219 28.6129 7.01243 28.284 8.63642C32.0794 13.9394 35.9572 19.1861 39.8539 24.4141C42.5107 27.9807 47.8808 31.7147 51.5595 30.382H52.7858C59.8454 30.3945 65.1508 24.7967 65.271 17.8323C65.834 11.0802 60.8992 5.01992 53.789 4.53272Z" fill="#598CFF"/>
<path fill-rule="evenodd" clip-rule="evenodd" d="M65.9388 17.1536C65.9334 17.4087 65.9202 17.6637 65.899 17.918C65.892 18.3255 65.8637 18.7301 65.8152 19.1308C65.6629 20.2586 65.3736 21.3431 64.9645 22.3672C62.9381 27.3029 57.8831 31.0259 52.3871 31.0161H51.1595C43.9716 30.5266 38.2932 24.5625 38.2932 17.2772C38.2932 15.3374 38.6958 13.4912 39.4223 11.8171C41.8097 15.0179 44.2038 18.2125 46.6939 21.3346C48.6422 23.8893 52.3238 24.7138 55.2843 23.5583C58.6876 22.1029 60.2754 17.6807 58.5927 14.4202C56.9923 10.9661 52.3997 9.54822 48.9648 11.0535C46.9785 12.0217 46.0044 14.0891 45.2453 16.0254C44.4593 14.8257 43.5907 13.688 42.7216 12.5498C42.2967 11.9932 41.8716 11.4365 41.4561 10.8724C41.0386 10.3852 40.7413 9.66065 41.2474 9.11723C41.9076 8.13119 42.7082 7.2121 43.6175 6.41548C45.746 4.76013 48.3736 3.71218 51.2377 3.5332H52.9949C60.1791 3.98212 65.8748 9.89822 65.9388 17.1536Z" fill="#598CFF"/>
<path d="M16.2482 3.61523L14.0578 4.05947C8.73646 4.34684 4.90921 8.6733 3.12279 13.5523C1.27325 19.1809 2.88004 24.568 7.86054 28.1039C9.81739 29.6094 11.6023 30.3112 14.0578 30.4361L16.2482 31.0192C20.4902 30.9817 24.486 28.2642 26.4239 24.6409C25.5149 22.3607 23.3876 20.6303 22.1504 18.4625C21.4244 20.2117 20.5786 22.0546 18.8995 23.0979C15.2256 25.378 9.65807 23.304 8.45239 19.1684C7.34772 15.8575 9.20989 11.8406 12.5933 10.7161C15.6423 9.52916 19.1961 11.0097 21.0394 13.5523C25.2687 18.9873 29.4223 24.4847 33.4812 30.0509C33.822 28.6078 34.1124 27.1522 34.3649 25.6904C35.9683 25.7029 37.5653 25.7591 39.1624 25.8091C36.1387 21.6485 33.0646 17.5254 30.0156 13.3836C26.8152 8.99191 22.5754 3.61523 16.2482 3.61523Z" fill="#232323"/>
<path fill-rule="evenodd" clip-rule="evenodd" d="M28.0377 22.7038C28.7551 21.0386 29.1523 19.2041 29.1523 17.2772C29.1523 9.9654 23.4325 3.98449 16.2074 3.5332H14.451C7.22589 3.98449 1.50611 9.9654 1.50611 17.2772C1.50611 24.5846 7.21885 30.5626 14.4377 31.0204H16.2207C18.0255 30.906 19.7362 30.4465 21.287 29.7074C23.4594 28.5625 25.291 26.7566 26.4219 24.6422C25.9019 23.3377 24.9832 22.2132 24.0605 21.0838C23.3703 20.239 22.6779 19.3914 22.1484 18.4638C21.4225 20.213 20.5766 22.0559 18.8975 23.0991C15.2237 25.3793 9.65612 23.3053 8.45045 19.1697C7.34578 15.8587 9.20794 11.8418 12.5914 10.7174C15.6403 9.53042 19.1942 11.011 21.0374 13.5536C23.3955 16.5838 25.73 19.6336 28.0377 22.7038Z" fill="#232323"/>
</g>
</g>
<defs>
<clipPath id="clip0_453_14320">
<rect width="126.191" height="33.3179" fill="white" transform="translate(0.726562 0.617188)"/>
</clipPath>
<clipPath id="clip1_453_14320">
<rect width="64.4334" height="33.3179" fill="white" transform="matrix(-1 0 0 1 65.9417 0.617188)"/>
</clipPath>
</defs>
</svg>
