<svg width="55" height="54" viewBox="0 0 55 54" fill="none" xmlns="http://www.w3.org/2000/svg">
<rect x="0.588379" width="53.823" height="53.823" rx="16.0016" fill="#DBE8FF"/>
<path d="M27.1756 13C27.7666 13.097 28.3575 13.1746 28.9485 13.291C34.6415 14.358 39.3889 19.1788 40.3935 24.795C41.7232 32.2445 36.9364 38.9472 30.0319 40.9453C26.9195 41.8474 23.8465 41.7116 20.8228 40.5476C20.6061 40.4603 20.478 40.5088 20.3007 40.6252C17.7694 42.2839 15.1397 42.4488 12.4311 41.0811C11.781 40.7513 11.5643 40.082 11.9288 39.4904C13.288 37.2691 13.4948 34.9411 12.697 32.4773C12.3326 31.3328 11.9977 30.1494 11.7909 28.966C11.3476 26.4052 11.7613 23.9124 12.8546 21.565C14.9525 17.0448 18.5278 14.2804 23.4821 13.2425C24.0238 13.1261 24.5655 13.0776 25.1171 13C25.7967 13 26.4862 13 27.1756 13ZM14.5487 39.5679C14.529 39.5582 14.5782 39.5777 14.6176 39.597C14.6866 39.6165 14.7555 39.6358 14.8343 39.6552C16.558 40.0044 18.1043 39.6262 19.4241 38.4719C19.9166 38.0451 20.3992 37.9578 21 38.2294C23.2359 39.2479 25.58 39.5486 28.003 39.1509C34.4445 38.0839 39.3987 32.0796 38.1675 25.1539C37.0841 19.0624 31.1548 14.5908 24.9103 15.2795C20.7046 15.7354 17.5232 17.8208 15.4154 21.4195C14.1055 23.6505 13.5638 26.0851 13.9873 28.6459C14.1941 29.8875 14.5979 31.1097 14.9525 32.3221C15.3662 33.7771 15.5533 35.2418 15.2874 36.7356C15.12 37.6765 14.8146 38.598 14.5487 39.5679Z" fill="#3E7BFA"/>
<path d="M19.8872 25.5309L18.0929 31H16.6474L19.0988 24.4026H20.0186L19.8872 25.5309ZM21.378 31L19.5791 25.5309L19.4341 24.4026H20.363L22.828 31H21.378ZM21.2964 28.5441V29.6089H17.812V28.5441H21.2964ZM26.0224 28.1046H24.3278L24.3187 27.1712H25.7415C25.9922 27.1712 26.1976 27.1394 26.3577 27.076C26.5178 27.0095 26.6372 26.9144 26.7157 26.7905C26.7973 26.6637 26.8381 26.5096 26.8381 26.3284C26.8381 26.1229 26.7988 25.9568 26.7202 25.8299C26.6447 25.7031 26.5254 25.6109 26.3623 25.5535C26.2022 25.4961 25.9953 25.4674 25.7415 25.4674H24.799V31H23.4397V24.4026H25.7415C26.1251 24.4026 26.468 24.4389 26.7701 24.5114C27.0752 24.5839 27.3335 24.6941 27.5449 24.8421C27.7564 24.9902 27.918 25.1774 28.0297 25.404C28.1415 25.6275 28.1974 25.8934 28.1974 26.2015C28.1974 26.4734 28.1355 26.7241 28.0116 26.9537C27.8908 27.1832 27.699 27.3705 27.4362 27.5155C27.1764 27.6605 26.8365 27.7406 26.4167 27.7557L26.0224 28.1046ZM25.9635 31H23.9562L24.4864 29.9397H25.9635C26.2022 29.9397 26.397 29.9019 26.5481 29.8264C26.6991 29.7479 26.8109 29.6422 26.8834 29.5092C26.9559 29.3763 26.9921 29.2238 26.9921 29.0516C26.9921 28.8583 26.9589 28.6906 26.8924 28.5486C26.829 28.4067 26.7263 28.2979 26.5843 28.2224C26.4423 28.1439 26.255 28.1046 26.0224 28.1046H24.7129L24.722 27.1712H26.3532L26.6659 27.5382C27.0676 27.5321 27.3909 27.6031 27.6355 27.7511C27.8832 27.8961 28.063 28.0849 28.1747 28.3175C28.2895 28.5501 28.3469 28.7994 28.3469 29.0652C28.3469 29.4881 28.2548 29.8446 28.0705 30.1345C27.8863 30.4215 27.6159 30.6375 27.2595 30.7825C26.906 30.9275 26.474 31 25.9635 31ZM33.1908 28.8114H34.5456C34.5184 29.2555 34.396 29.6497 34.1786 29.9941C33.9641 30.3384 33.6635 30.6073 33.2768 30.8006C32.8932 30.994 32.431 31.0906 31.8903 31.0906C31.4674 31.0906 31.0883 31.0181 30.753 30.8731C30.4177 30.7251 30.1307 30.5137 29.8921 30.2388C29.6564 29.9639 29.4767 29.6316 29.3529 29.2419C29.229 28.8522 29.1671 28.4157 29.1671 27.9324V27.4747C29.1671 26.9914 29.2305 26.5549 29.3574 26.1652C29.4873 25.7725 29.6715 25.4387 29.9102 25.1638C30.1518 24.889 30.4403 24.6775 30.7756 24.5295C31.1109 24.3815 31.4855 24.3075 31.8994 24.3075C32.4492 24.3075 32.9128 24.4071 33.2904 24.6065C33.6711 24.8059 33.9656 25.0808 34.174 25.4312C34.3855 25.7816 34.5123 26.1803 34.5546 26.6274H33.1953C33.1802 26.3616 33.1273 26.1365 33.0367 25.9523C32.9461 25.765 32.8086 25.6245 32.6244 25.5309C32.4431 25.4342 32.2015 25.3859 31.8994 25.3859C31.6728 25.3859 31.475 25.4282 31.3058 25.5127C31.1366 25.5973 30.9946 25.7257 30.8799 25.8979C30.7651 26.0701 30.679 26.2876 30.6216 26.5504C30.5672 26.8102 30.54 27.1153 30.54 27.4657V27.9324C30.54 28.2737 30.5657 28.5743 30.617 28.8341C30.6684 29.0909 30.7469 29.3084 30.8527 29.4866C30.9614 29.6618 31.1004 29.7947 31.2695 29.8853C31.4417 29.9729 31.6486 30.0167 31.8903 30.0167C32.1743 30.0167 32.4084 29.9714 32.5926 29.8808C32.7769 29.7902 32.9174 29.6558 33.014 29.4775C33.1137 29.2993 33.1726 29.0773 33.1908 28.8114Z" fill="#3E7BFA"/>
</svg>
