<svg width="56" height="56" viewBox="0 0 56 56" fill="none" xmlns="http://www.w3.org/2000/svg">
<rect x="0.471741" y="0.928955" width="55" height="55" rx="16.0638" fill="#DBE8FF"/>
<g clip-path="url(#clip0_453_18919)">
<g clip-path="url(#clip1_453_18919)">
<path d="M29.0837 14.8208C29.6238 14.91 30.1638 14.9814 30.7039 15.0885C35.9066 16.0702 40.2452 20.5057 41.1633 25.6729C42.3784 32.5269 38.0039 38.6937 31.694 40.5321C28.8497 41.3621 26.0413 41.2372 23.2779 40.1662C23.0799 40.0859 22.9629 40.1305 22.8009 40.2376C20.4875 41.7637 18.0842 41.9154 15.6089 40.6571C15.0148 40.3536 14.8168 39.7379 15.1498 39.1935C16.392 37.1498 16.581 35.0079 15.8519 32.7411C15.5189 31.688 15.2128 30.5992 15.0238 29.5104C14.6188 27.1544 14.9968 24.8608 15.996 22.7011C17.9132 18.5423 21.1806 15.9988 25.7082 15.0439C26.2033 14.9368 26.6984 14.8922 27.2024 14.8208C27.8235 14.8208 28.4536 14.8208 29.0837 14.8208ZM17.5442 39.2649C17.5262 39.2559 17.5712 39.2738 17.6072 39.2916C17.6702 39.3095 17.7332 39.3273 17.8052 39.3452C19.3804 39.6665 20.7936 39.3184 21.9997 38.2564C22.4498 37.8637 22.8909 37.7834 23.4399 38.0333C25.4832 38.9704 27.6255 39.247 29.8398 38.8811C35.7266 37.8994 40.2542 32.3752 39.129 26.0031C38.1389 20.3986 32.7202 16.2844 27.0134 16.918C23.1699 17.3375 20.2625 19.2563 18.3363 22.5672C17.1391 24.6198 16.644 26.8599 17.0311 29.2159C17.2201 30.3583 17.5892 31.4827 17.9132 32.5983C18.2913 33.937 18.4623 35.2846 18.2192 36.6589C18.0662 37.5246 17.7872 38.3724 17.5442 39.2649Z" fill="#3E7BFA"/>
<path d="M22.1487 29.5988C21.2396 29.6077 20.5195 28.8938 20.5195 28.0013C20.5195 27.1089 21.2486 26.386 22.1397 26.386C23.0219 26.386 23.751 27.0999 23.76 27.9745C23.769 28.8759 23.0579 29.5899 22.1487 29.5988Z" fill="#3E7BFA"/>
<path d="M28.114 29.5995C27.2049 29.5995 26.4938 28.8855 26.5028 27.9931C26.5118 27.1185 27.2229 26.4045 28.105 26.3956C28.9871 26.3867 29.7342 27.1185 29.7432 28.002C29.7522 28.8766 29.0141 29.5995 28.114 29.5995Z" fill="#3E7BFA"/>
<path d="M34.0925 29.599C33.1923 29.599 32.4632 28.8761 32.4723 27.9926C32.4813 27.1091 33.2284 26.3772 34.1105 26.3951C34.9926 26.404 35.7037 27.118 35.7037 28.0015C35.7127 28.8939 35.0016 29.599 34.0925 29.599Z" fill="#3E7BFA"/>
</g>
</g>
<defs>
<clipPath id="clip0_453_18919">
<rect width="28.255" height="28.0141" fill="white" transform="translate(13.8445 14.4216)"/>
</clipPath>
<clipPath id="clip1_453_18919">
<rect width="28.255" height="28.0141" fill="white" transform="translate(13.8445 14.2373)"/>
</clipPath>
</defs>
</svg>
