<svg width="34" height="34" viewBox="0 0 34 34" fill="none" xmlns="http://www.w3.org/2000/svg">
<path d="M3.54297 24.5662C3.54297 19.7791 3.54297 14.9927 3.54297 10.2057C3.55288 10.1923 3.56774 10.1796 3.57198 10.1642C3.93785 8.80057 4.80759 8.15993 6.29301 8.15993C13.5177 8.15993 20.7431 8.15993 27.9678 8.15993C28.0647 8.15993 28.1624 8.15792 28.2593 8.16193C29.3456 8.20143 30.2493 8.82868 30.5855 9.77726C30.6357 9.91851 30.6739 10.0631 30.7171 10.2057C30.7171 14.9927 30.7171 19.7791 30.7171 24.5662C30.7065 24.5796 30.6909 24.5916 30.6867 24.6064C30.3272 25.966 29.4518 26.6126 27.9671 26.6126C20.7424 26.6126 13.5177 26.6126 6.2923 26.6126C6.20384 26.6126 6.11538 26.616 6.02692 26.6113C4.93497 26.5571 4.15794 26.0637 3.71918 25.1124C3.64063 24.9391 3.601 24.7483 3.54297 24.5662ZM17.136 9.66613C13.4922 9.66613 9.84767 9.66613 6.20384 9.66613C5.47918 9.66613 5.13595 9.99415 5.13595 10.6843C5.13595 15.1527 5.13595 19.6205 5.13595 24.0889C5.13595 24.7771 5.4813 25.1058 6.20596 25.1058C13.4851 25.1058 20.765 25.1058 28.0442 25.1058C28.7851 25.1058 29.1262 24.7804 29.1262 24.0748C29.1262 19.6232 29.1262 15.1722 29.1262 10.7205C29.1262 9.98009 28.7965 9.6668 28.0159 9.66613C24.3883 9.66613 20.7622 9.66613 17.136 9.66613Z" fill="#3E7BFA"/>
<path d="M9.81595 19.2267C8.66031 17.8892 9.00212 16.225 10.0509 15.3347C11.1499 14.4009 12.8236 14.3821 13.9304 15.2925C15.0075 16.1788 15.3988 17.8504 14.2651 19.1685C14.6699 19.5702 15.1066 19.939 15.4597 20.3688C15.9657 20.9853 16.1858 21.719 16.2197 22.4976C16.2445 23.0686 15.9211 23.3799 15.299 23.3812C13.6183 23.3845 11.9383 23.3825 10.2575 23.3825C9.75367 23.3825 9.2491 23.3852 8.74523 23.3819C8.07719 23.3772 7.76298 23.0458 7.81393 22.4112C7.92008 21.0918 8.54992 20.0588 9.7006 19.3091C9.73598 19.2863 9.76924 19.2602 9.81595 19.2267ZM14.476 21.8629C14.1816 20.8327 13.0196 20.0863 11.8654 20.1572C10.7798 20.2242 9.69706 21.0235 9.56614 21.8629C11.198 21.8629 12.8278 21.8629 14.476 21.8629ZM12.026 18.6443C12.7578 18.6403 13.3558 18.07 13.3522 17.3805C13.3487 16.6782 12.7408 16.1193 11.9892 16.1266C11.2596 16.134 10.6659 16.7124 10.6793 17.4026C10.6928 18.0994 11.2886 18.6484 12.026 18.6443Z" fill="#3E7BFA"/>
<path d="M17.1274 11.3893C19.9121 11.3893 22.6975 11.3886 25.4822 11.39C26.013 11.39 26.3173 11.5761 26.422 11.9563C26.5353 12.3694 26.2692 12.7831 25.8276 12.8708C25.725 12.8908 25.6167 12.8949 25.5113 12.8949C19.9234 12.8962 14.3356 12.8949 8.74778 12.8982C8.35007 12.8982 8.03091 12.7891 7.86672 12.4242C7.66645 11.9784 7.97217 11.4743 8.48099 11.4061C8.6112 11.3886 8.74566 11.3907 8.878 11.3907C11.628 11.3886 14.3781 11.3886 17.1274 11.3893Z" fill="#3E7BFA"/>
<path d="M22.6656 16.9296C21.6841 16.9296 20.7018 16.933 19.7203 16.9283C19.2822 16.9263 18.9517 16.6478 18.8965 16.2548C18.847 15.9014 19.1152 15.5379 19.5016 15.4475C19.5943 15.4261 19.6941 15.4247 19.791 15.4247C21.7102 15.4234 23.6295 15.4227 25.5487 15.4241C26.0879 15.4247 26.4531 15.728 26.4566 16.1711C26.4602 16.6203 26.0851 16.9289 25.531 16.9296C24.5756 16.9303 23.6203 16.9296 22.6656 16.9296Z" fill="#3E7BFA"/>
<path d="M22.677 20.1528C21.6862 20.1528 20.6955 20.1595 19.7055 20.1501C19.1138 20.1448 18.7345 19.6226 18.9532 19.1252C19.0884 18.818 19.3467 18.6506 19.6977 18.6493C21.6792 18.6446 23.66 18.6439 25.6415 18.6493C26.1078 18.6506 26.4638 18.9967 26.4567 19.4104C26.4496 19.8301 26.1 20.1488 25.6231 20.1515C24.6401 20.1568 23.6585 20.1535 22.677 20.1528Z" fill="#3E7BFA"/>
<path d="M21.8268 21.877C22.5246 21.877 23.2224 21.875 23.9201 21.8776C24.2464 21.879 24.504 22.0068 24.6554 22.2867C24.7948 22.5451 24.7778 22.8055 24.608 23.0478C24.4558 23.2647 24.2336 23.3772 23.9591 23.3778C22.5373 23.3805 21.1156 23.3865 19.6939 23.3765C19.2289 23.3731 18.8949 23.0424 18.8907 22.6354C18.8864 22.2217 19.236 21.8864 19.708 21.8803C20.4136 21.8696 21.1198 21.877 21.8268 21.877Z" fill="#3E7BFA"/>
</svg>
