<svg width="56" height="56" viewBox="0 0 56 56" fill="none" xmlns="http://www.w3.org/2000/svg">
<rect x="0.89502" y="0.275391" width="55" height="55" rx="16.0638" fill="#DBE8FF"/>
<path d="M25.1754 25.2923C24.1538 25.2923 23.3662 25.0215 22.8123 24.48C22.2708 23.9262 22 23.1323 22 22.0985V20.9538C22 20.3138 22.1046 19.7785 22.3138 19.3477C22.5231 18.9046 22.8615 18.56 23.3292 18.3138V18.2769C22.8985 18.0431 22.5785 17.7231 22.3692 17.3169C22.1723 16.8985 22.0738 16.3692 22.0738 15.7292V15.1938C22.0738 14.16 22.3385 13.3723 22.8677 12.8308C23.4092 12.2769 24.1785 12 25.1754 12C26.1723 12 26.9354 12.2769 27.4646 12.8308C28.0062 13.3723 28.2769 14.16 28.2769 15.1938V15.7292C28.2769 16.96 27.8585 17.8092 27.0215 18.2769V18.3138C27.4892 18.56 27.8277 18.9046 28.0369 19.3477C28.2462 19.7785 28.3508 20.3138 28.3508 20.9538V22.0985C28.3508 23.1323 28.0738 23.9262 27.52 24.48C26.9785 25.0215 26.1969 25.2923 25.1754 25.2923ZM25.1754 17.4462C25.8892 17.4462 26.2462 17.0154 26.2462 16.1538V15.1385C26.2462 14.2769 25.8892 13.8462 25.1754 13.8462C24.4615 13.8462 24.1046 14.2769 24.1046 15.1385V16.1538C24.1046 17.0154 24.4615 17.4462 25.1754 17.4462ZM25.1754 23.4462C25.9385 23.4462 26.32 22.96 26.32 21.9877V20.7508C26.32 19.7785 25.9385 19.2923 25.1754 19.2923C24.4123 19.2923 24.0308 19.7785 24.0308 20.7508V21.9877C24.0308 22.96 24.4123 23.4462 25.1754 23.4462Z" fill="#3E7BFA"/>
<path d="M31.8472 19.3662H29.3734V17.9262H31.8472V15.4338H33.2872V17.9262H35.7611V19.3662H33.2872V21.8954H31.8472V19.3662Z" fill="#3E7BFA"/>
<path d="M45.5873 36.143C45.5529 35.0131 45.0307 34.178 44.0275 33.7007C43.6289 33.5183 43.2166 33.3639 42.8044 33.2235C40.7292 32.5568 38.5853 32.3182 36.4208 32.2269C36.2147 32.2199 35.981 32.1427 35.8024 32.0374C34.5724 31.2584 33.3424 30.4584 32.1193 29.6513C30.9512 28.8793 29.6868 28.4231 28.3057 28.3951C26.4848 28.367 24.6501 28.367 22.8292 28.3951C21.6542 28.4021 20.5479 28.746 19.5103 29.2723C18.9056 29.5741 18.3009 29.8619 17.7168 30.1987C16.3838 30.9637 14.9545 31.3286 13.4428 31.4479C13.3191 31.4549 13.1817 31.5041 13.0512 31.5041C12.1441 31.5111 11.4845 31.9041 11.1821 32.8164C11.1821 34.1358 11.1821 35.4693 11.1821 36.7957C11.4501 37.8694 12.1441 38.4449 13.1748 38.6765C13.7246 38.7958 14.2536 38.9853 14.7896 39.1327C15.0026 39.1888 15.1194 39.3011 15.2088 39.5117C15.7173 40.6977 16.6243 41.3855 17.8955 41.4908C19.0774 41.589 20.0394 41.1048 20.7403 40.1363C20.8846 39.9468 21.022 39.8626 21.2625 39.8626C26.1893 39.8696 31.123 39.8696 36.0498 39.8626C36.2903 39.8626 36.4277 39.9328 36.572 40.1363C37.3622 41.2943 38.7571 41.7785 40.0764 41.3855C40.8323 41.1609 41.4713 40.6416 41.8767 39.9819L44.2611 39.9749V39.9678C45.0582 39.8626 45.5667 39.0695 45.5941 38.1361C45.6079 37.4764 45.6148 36.8027 45.5873 36.143ZM26.7527 29.4197C28.237 29.3285 29.6593 29.3987 30.9649 30.1636C32.0231 30.7812 33.0401 31.476 34.057 32.1918C31.6314 32.1918 29.2058 32.1918 26.7596 32.1918C26.7527 31.2584 26.7527 30.3461 26.7527 29.4197ZM21.0289 30.3601C21.2006 29.6232 21.1938 29.5741 21.9428 29.518C23.1521 29.4267 24.3752 29.4267 25.5983 29.3916C25.6258 29.3916 25.6602 29.4127 25.6945 29.4267C25.6945 30.3531 25.6945 31.2725 25.6945 32.2129C25.5571 32.2129 25.4403 32.2129 25.3372 32.2129C24.9593 32.2129 24.5951 32.2129 24.2241 32.2129C24.2103 32.2129 24.1966 32.2129 24.1897 32.2129H21.9702C21.9634 32.2129 21.9634 32.2129 21.9565 32.2129C21.9565 32.2129 21.8947 32.2129 21.8053 32.2129H21.6404C21.4549 32.2129 21.2213 32.2129 21.0632 32.2129C20.9258 32.2129 20.7952 32.1918 20.6234 32.1778C20.7746 31.5392 20.8983 30.9426 21.0289 30.3601ZM20.0462 30.1496C19.9088 30.7461 19.8057 31.2584 19.6752 31.8269C19.3522 31.462 19.0568 31.1181 18.7888 30.7882C19.1186 30.6198 19.5446 30.4022 20.0462 30.1496ZM18.1566 40.4802C16.9541 40.4872 15.9509 39.4625 15.9578 38.2344C15.9646 36.9992 16.961 35.9956 18.1772 36.0167C19.3797 36.0237 20.3348 37.0132 20.3348 38.2554C20.3348 39.4696 19.3522 40.4731 18.1566 40.4802ZM39.1625 40.4802C37.9531 40.4731 36.9705 39.4625 36.9774 38.2133C36.9843 36.9852 37.9669 36.0026 39.1694 36.0026C40.3787 36.0097 41.3682 37.0203 41.3614 38.2554C41.3407 39.4836 40.3444 40.4802 39.1625 40.4802ZM44.584 37.9256C44.584 38.0379 44.584 38.1361 44.5634 38.2344C44.5016 38.5572 44.3642 38.88 44.0137 38.9362C44.0068 38.9362 44 38.9362 43.9931 38.9362H42.289C42.3302 38.7537 42.3508 38.5713 42.3646 38.3888C42.447 36.5641 41.0247 35.0342 39.2243 34.985C37.4584 34.9359 35.9948 36.3957 35.9742 38.2063C35.9742 38.4098 35.9742 38.6134 35.9742 38.8099C31.0817 38.8099 26.2168 38.8099 21.3106 38.8099C21.4068 37.9045 21.2625 37.0764 20.7471 36.3395C20.2386 35.6026 19.5378 35.1535 18.6445 34.992C17.9092 34.8727 17.2015 34.992 16.5418 35.3851C15.5386 35.9816 15.0439 36.908 14.9133 38.073C14.2468 37.8835 13.6215 37.694 13.0031 37.5115C12.5564 37.3712 12.2403 37.0694 12.1922 36.6062C12.1441 36.0448 12.1854 35.4693 12.1854 34.9008C12.5976 34.8096 13.2161 35.0552 13.2298 34.3815C13.2504 33.6727 12.6114 33.9113 12.1785 33.82C12.1785 33.6095 12.1716 33.406 12.1785 33.2024C12.1854 32.8094 12.3434 32.6129 12.7282 32.5498C13.0099 32.5006 13.2848 32.4796 13.5665 32.4375C14.6178 32.3182 15.6829 32.2129 16.6793 31.7988C17.0228 31.6585 17.4076 31.3567 17.71 31.4339C18.0329 31.5041 18.2734 31.9322 18.5345 32.2129C19.3247 33.0691 20.8846 33.2305 21.6473 33.2516H21.6748C21.7572 33.2516 21.8328 33.2516 21.8947 33.2516H24.4577C24.4714 33.2516 24.492 33.2516 24.5058 33.2516C27.8247 33.2516 31.1436 33.2235 34.4556 33.2586C36.0429 33.2796 37.6371 33.3568 39.2175 33.5042C40.7086 33.6446 42.1653 33.9814 43.5396 34.599C43.7114 34.6833 43.8694 34.7885 44.0343 34.8938C44.0275 34.9219 44.0137 34.9499 44.0069 34.978C43.8694 34.978 43.7457 34.978 43.6083 34.978C43.2029 34.985 42.9899 35.1605 42.983 35.4833C42.9761 35.8061 43.1892 35.9956 43.5946 36.0026C43.9175 36.0097 44.2336 36.0026 44.5909 36.0026C44.584 36.6694 44.584 37.301 44.584 37.9256Z" fill="#3E7BFA" stroke="#3E7BFA" stroke-width="0.34296"/>
<path d="M39.3357 39.0999C39.7815 39.026 40.0842 38.597 40.0119 38.1418C39.9395 37.6865 39.5195 37.3773 39.0738 37.4512C38.628 37.5251 38.3253 37.954 38.3976 38.4093C38.4699 38.8646 38.89 39.1738 39.3357 39.0999Z" fill="#3E7BFA"/>
<path d="M18.1502 39.1115C18.6018 39.1115 18.9679 38.7375 18.9679 38.2763C18.9679 37.8151 18.6018 37.4412 18.1502 37.4412C17.6986 37.4412 17.3325 37.8151 17.3325 38.2763C17.3325 38.7375 17.6986 39.1115 18.1502 39.1115Z" fill="#3E7BFA"/>
</svg>
