<svg width="45" height="45" viewBox="0 0 45 45" fill="none" xmlns="http://www.w3.org/2000/svg">
<rect width="44.1796" height="44.1796" rx="13.1048" fill="#DBE8FF"/>
<path fill-rule="evenodd" clip-rule="evenodd" d="M32.3919 16.4C31.8919 13.6 30.1921 11.2 27.7918 9.59998C25.3919 8 22.2918 7.59998 19.5921 8.40003C18.6921 8.59998 17.7918 9 16.992 9.5C16.7434 9.64905 16.3225 9.97071 15.9373 10.2813C15.5466 10.5961 15.1926 10.8994 15.092 11C12.1921 13.8001 11.1921 18.4 12.6921 22.1C13.492 24 14.6921 25.6 16.2918 26.8001C16.992 27.3001 17.2918 28 17.2918 28.9V31.6C17.2918 32.7 17.8919 33.5 18.8919 33.8001L19.092 34C19.135 34.0429 19.1775 34.1041 19.2205 34.168L19.241 34.1992C19.2913 34.2745 19.3416 34.3499 19.3919 34.4C19.5921 34.7 19.7918 34.9 19.992 35.1C20.492 35.6 21.1921 35.8001 21.7918 35.9H22.6921H22.7918C23.992 35.7 24.8919 35 25.492 33.9L25.5921 33.8001C26.6921 33.4 27.1921 32.6 27.1921 31.5V30.3001V28.7C27.1921 28 27.492 27.4 27.992 26.9C28.0418 26.8501 28.0916 26.8251 28.1414 26.8002C28.1917 26.7752 28.242 26.7501 28.2918 26.7C28.3391 26.6526 28.3865 26.6277 28.4338 26.6039C28.4866 26.5775 28.5393 26.5526 28.5921 26.5C31.8919 23.8001 33.1921 20.4 32.3919 16.4ZM22.592 34.4C21.992 34.5 21.3919 34.3001 20.8919 33.8001H23.7918C23.492 34.2 23.092 34.3001 22.592 34.4ZM25.7918 31.6C25.7918 32 25.3919 32.4 24.992 32.4H19.5921C19.1921 32.4 18.7918 32.1 18.7918 31.7V29.9V29.4H20.7918H25.7918V29.9C25.8919 30.5 25.8919 31 25.7918 31.6ZM28.8919 24.3001C28.5921 24.7 28.1921 25.1 27.7918 25.3001C27.0921 25.8001 26.1921 26.6 25.8919 27.9H25.492H24.992H18.6921C18.492 26.7 17.6921 26 16.8919 25.3001C14.092 23 12.8919 20 13.592 16.4C13.8919 14.9 14.6921 13.4 15.992 12.1C16.492 11.6 17.2918 11 17.6921 10.7C19.5921 9.59998 21.592 9.19996 23.5921 9.5C27.0921 10.1 29.492 12 30.5921 15.3001C31.7918 18.6 31.1921 21.6 28.8919 24.3001ZM28.7918 17.6C28.7503 17.6 28.7092 17.5829 28.6609 17.5627C28.5921 17.5343 28.509 17.5 28.3919 17.5C27.7918 17.5 27.2918 17.2999 27.1917 16.6V16.2999C27.2864 16.1581 27.3811 16.0386 27.4754 15.9203C27.5808 15.7885 27.6863 15.6581 27.7918 15.5C27.992 15.2 27.992 15 27.6917 14.7L26.7918 13.7999C26.5921 13.6003 26.4495 13.4576 26.3313 13.3695C26.2376 13.2994 26.1589 13.2639 26.0794 13.2618C25.9851 13.2594 25.8899 13.3038 25.7659 13.3932C25.6653 13.4659 25.5452 13.5686 25.3919 13.7C24.992 14 24.6917 14.2 24.1917 13.9C23.992 13.7999 23.7918 13.7 23.7918 13.4C23.7918 13.2528 23.7673 13.1056 23.7429 12.9584L23.7415 12.95C23.7283 12.8701 23.7151 12.7903 23.7053 12.7106C23.697 12.6404 23.6917 12.5702 23.6917 12.5C23.6917 12.2 23.492 12.1 23.1917 12.1H21.2918C20.992 12.1 20.7918 12.2999 20.7918 12.5C20.7918 12.6 20.6917 12.7999 20.6917 12.9C20.6917 13.5 20.3919 13.9 19.7918 14.1H19.492C19.2918 13.9 19.092 13.7 18.7918 13.5C18.6917 13.4 18.592 13.4 18.3919 13.2999C18.3718 13.3198 18.3518 13.3358 18.3318 13.3502L18.2922 13.3777C18.2556 13.4022 18.219 13.4266 18.1824 13.4658C18.1521 13.4979 18.1218 13.5399 18.092 13.6C17.6917 13.9 17.3919 14.2 17.092 14.5C16.492 15.1 16.492 15.2 17.092 15.9C17.3919 16.2999 17.592 16.6 17.2918 17.1C17.2918 17.1 17.2918 17.2 17.1917 17.2C17.092 17.2999 16.992 17.4 16.8919 17.4C16.592 17.5 16.1917 17.5 15.8919 17.6C15.592 17.6 15.3919 17.7999 15.3919 18.1V19.9C15.3919 20.2 15.492 20.4 15.7918 20.4H16.092C16.6917 20.4 17.1917 20.6 17.2918 21.2999V21.6C17.2556 21.7446 17.2063 21.8762 17.1487 21.9948C17.1091 22.0761 17.0657 22.1511 17.0198 22.2201C16.948 22.3286 16.8699 22.4219 16.7918 22.5C16.592 22.7999 16.592 23 16.7918 23.2L18.092 24.5C18.2918 24.7 18.592 24.7 18.7918 24.6C18.9036 24.4885 19.0462 24.377 19.2024 24.2655C19.3264 24.177 19.4592 24.0885 19.5921 24H19.8919C20.492 24.1 20.7918 24.5 20.7918 25.2V25.5C20.8919 25.9 20.992 26 21.3919 26H22.6917C23.1907 26 23.4407 26 23.5784 25.8756C23.7166 25.7509 23.7415 25.5009 23.7918 25C23.7918 24.5 23.8919 24.1 24.492 24.1C24.5422 24.1 24.5671 24.075 24.5921 24.0499C24.617 24.0249 24.6419 24 24.6917 24H25.0921C25.3919 24.2 25.6917 24.4 25.8919 24.6C26.0921 24.7999 26.3919 24.7999 26.5921 24.6L27.8919 23.2999C28.0921 23.1 28.0921 22.9 27.8919 22.6C27.8635 22.5718 27.843 22.5436 27.8264 22.5153C27.7839 22.4435 27.7634 22.3717 27.6917 22.2999C27.1917 21.9 27.0921 21.4 27.492 20.7999C27.5305 20.7615 27.5545 20.723 27.5745 20.6903L27.5857 20.6725C27.613 20.6295 27.6375 20.6 27.6917 20.6C27.8919 20.5501 28.0667 20.525 28.2415 20.5001C28.3425 20.4857 28.4436 20.4713 28.5496 20.452C28.6272 20.4379 28.7073 20.4211 28.7918 20.4C29.0921 20.4 29.1917 20.2 29.1917 19.9V18C29.1917 17.8691 29.1492 17.7384 29.0359 17.6635C28.9758 17.6239 28.8958 17.6 28.7918 17.6ZM28.2918 19.4C28.2918 19.5 28.1917 19.6 28.0921 19.6C27.7918 19.7 27.492 19.7 27.1917 19.7C26.992 19.7 26.7918 19.9 26.6917 20.1C26.5921 20.5 26.3919 20.9 26.1917 21.2999C26.1287 21.4268 26.1052 21.5535 26.1477 21.6803C26.1721 21.7535 26.2185 21.8268 26.2918 21.9C26.3914 22.0496 26.491 22.1992 26.5906 22.3364C26.6448 22.4106 26.6985 22.4811 26.7527 22.546C26.7991 22.6019 26.8455 22.6536 26.8919 22.7L26.0921 23.5C25.8919 23.2999 25.5921 23.1 25.2918 22.9C25.0921 22.7 24.7918 22.7 24.5921 22.7999C24.3919 22.8999 24.2171 22.9749 24.0422 23.0498C23.867 23.1249 23.6921 23.1998 23.492 23.2999C23.3665 23.3418 23.2761 23.4011 23.2058 23.4706C23.1082 23.5673 23.0501 23.6836 22.992 23.7999C22.992 23.9467 22.9675 24.1174 22.9431 24.2887L22.9417 24.3001C22.9168 24.4751 22.8919 24.65 22.8919 24.7999H21.7918C21.6917 24.5 21.6917 24.2 21.6917 23.7999C21.6917 23.5 21.492 23.2999 21.1917 23.2C20.9944 23.1506 20.8215 23.0772 20.6609 23.0032L20.5628 22.9573C20.4343 22.8973 20.3132 22.8405 20.1917 22.7999C19.8919 22.7 19.6917 22.7 19.492 22.9C19.3587 22.9888 19.2449 23.0775 19.1336 23.1664L19.0925 23.1993C18.9675 23.2996 18.842 23.3998 18.6917 23.5L17.8919 22.7C18.092 22.4 18.2918 22.2 18.492 21.9C18.5906 21.8014 18.6404 21.6785 18.6536 21.5552C18.6672 21.4285 18.6423 21.3014 18.592 21.2C18.3919 20.9 18.2918 20.5 18.1917 20.1C18.092 19.7999 17.992 19.7 17.6917 19.6C17.3919 19.6 16.992 19.5 16.592 19.4V18.5C16.592 18.4711 16.6004 18.4421 16.615 18.4155C16.6248 18.3976 16.637 18.3807 16.6511 18.3657C16.6892 18.3264 16.7405 18.2999 16.7918 18.2999C17.092 18.2 17.3919 18.2 17.6917 18.2C17.7776 18.2 17.8635 18.1631 17.9417 18.1052C18.0452 18.0282 18.135 17.9141 18.1917 17.7999C18.2473 17.689 18.2952 17.578 18.3396 17.467C18.3836 17.3567 18.4241 17.2463 18.4656 17.136C18.533 16.9574 18.6023 16.7787 18.6917 16.6C18.7337 16.5165 18.7581 16.433 18.7576 16.3495C18.7571 16.233 18.7083 16.1165 18.592 16C18.2942 15.8512 18.1077 15.647 17.9075 15.4286L17.9045 15.4249C17.8367 15.3511 17.7673 15.2755 17.6917 15.2C17.9856 15.0043 18.2791 14.7127 18.4802 14.5129L18.489 14.5037L18.492 14.5C18.7918 14.7 19.092 14.9 19.2918 15.1C19.5921 15.2 19.7918 15.2 19.992 15.1C20.1096 15.0409 20.219 14.9906 20.3245 14.9439C20.3982 14.9113 20.4705 14.8804 20.5427 14.8495C20.7175 14.7747 20.8923 14.6997 21.092 14.6C21.3919 14.5 21.492 14.2999 21.592 14.1C21.592 13.7999 21.6917 13.4 21.6917 13.1H22.7918C22.7918 13.25 22.8167 13.4251 22.8416 13.6C22.867 13.7749 22.8919 13.95 22.8919 14.1C22.8919 14.4 23.092 14.6 23.3919 14.7C23.7918 14.7999 24.0921 15 24.492 15.2C24.5901 15.249 24.6882 15.2741 24.7981 15.2749C24.8504 15.2754 24.905 15.2704 24.9641 15.2599C25.0339 15.2474 25.1091 15.2275 25.1917 15.2C25.492 15 25.7918 14.7999 25.992 14.6L26.7918 15.4C26.5921 15.7 26.3919 16 26.1917 16.2C25.992 16.4 25.992 16.6 26.0921 16.9C26.1917 17.0992 26.2664 17.2737 26.3411 17.448C26.4163 17.6237 26.4915 17.7992 26.5921 18C26.6917 18.2999 26.7918 18.4 27.0921 18.4C27.2371 18.4 27.406 18.4235 27.5867 18.4591C27.7796 18.497 27.9856 18.5485 28.1917 18.6C28.2918 18.7999 28.2918 19.1 28.2918 19.4ZM18.992 19C18.992 17.1 20.492 15.6 22.2918 15.6C24.1921 15.6 25.7918 17.1 25.7918 19C25.7918 20.9 24.2918 22.4 22.3919 22.4C20.492 22.4 18.992 20.9 18.992 19ZM19.992 19C19.992 20.2999 20.992 21.4 22.2918 21.4C23.6921 21.4 24.6921 20.2999 24.6921 19C24.6921 17.7 23.5921 16.6 22.2918 16.6C20.992 16.6 19.992 17.7 19.992 19Z" fill="#3E7BFA"/>
</svg>
