<svg width="45" height="45" viewBox="0 0 45 45" fill="none" xmlns="http://www.w3.org/2000/svg">
<rect x="0.181641" y="0.260254" width="44.0794" height="44.0794" rx="13.1048" fill="#DBE8FF"/>
<path d="M18.0487 31.428C18.5643 32.6588 18.4229 33.3453 17.4914 34.2914C17.2087 34.576 16.9259 34.8691 16.6348 35.1537C15.7533 35.991 14.5141 35.9826 13.6492 35.1286C13.2084 34.7016 7.84689 29.3014 7.42275 28.8661C7.12335 28.5646 8.11863 29.1675 8.37644 28.8995C8.63426 28.64 8.46145 28.1409 8.76916 28.4339C9.18499 28.8442 14.0567 33.7555 14.4642 34.1658C14.9299 34.6263 15.379 34.6263 15.8448 34.1658C16.1358 33.8811 16.4186 33.5881 16.7014 33.3034C17.2253 32.7676 17.2336 32.3992 16.7097 31.8717C15.7699 30.9173 14.8384 29.9461 13.8987 28.9916C12.7676 27.8446 11.6282 26.706 10.4889 25.559C10.3308 25.3999 10.1562 25.2408 9.98155 25.0985C9.73205 24.8975 9.29127 24.8975 9.03345 25.1403C8.60931 25.5338 8.19348 25.9441 7.8026 26.3795C7.49488 26.7143 7.53646 27.1748 7.87745 27.5348C8.30159 27.9786 8.75069 28.3972 9.16652 28.8493C9.29127 28.9916 9.4077 29.2261 9.38275 29.3935C9.3578 29.5777 9.19979 29.787 9.03345 29.8959C8.82554 30.0382 8.55941 29.988 8.37644 29.8038C7.84418 29.2763 7.28697 28.7656 6.8046 28.1963C6.14759 27.426 6.19749 26.2539 6.88777 25.5004C7.28697 25.065 7.7028 24.638 8.14358 24.2361C8.73406 23.7003 9.43265 23.5496 10.1978 23.7924C10.3974 23.8594 10.5138 23.8259 10.6552 23.6752C11.2623 23.0472 11.886 22.4277 12.5181 21.7914C11.9609 21.2137 11.6781 20.5355 11.8361 19.7234C11.9942 18.9196 12.4765 18.3838 13.2417 18.0657C12.8591 17.4126 12.7593 16.7344 13.0337 16.0312C13.3082 15.3195 13.8488 14.8925 14.5723 14.6832C14.3478 13.3185 14.8967 12.3892 16.219 11.9287C16.0776 11.2003 16.1608 10.5138 16.6681 9.93606C17.2503 9.26627 17.9904 9.04022 18.8554 9.20766C18.9718 9.23278 19.1381 9.19929 19.2379 9.12394C19.7868 8.73881 20.3856 8.79742 20.9761 8.90626C22.3234 9.14906 23.6624 9.42535 25.0097 9.66815C25.2592 9.71838 25.5253 9.68489 25.7831 9.72675C27.0306 9.93606 27.7874 11.0161 27.5961 12.2803C27.5878 12.3389 27.5795 12.4059 27.5712 12.4896C28.1533 12.6571 28.6357 12.9752 28.96 13.5111C29.2844 14.0469 29.326 14.6246 29.2012 15.2274C30.482 15.6544 31.0808 16.6256 30.8645 17.9903C32.5778 18.4927 33.1267 20.4769 31.8376 21.8165C32.4946 22.4779 33.1516 23.1393 33.8169 23.7924C33.8585 23.8342 33.9916 23.8342 34.0581 23.8091C34.9979 23.4575 35.8046 23.6417 36.5032 24.3617C36.8192 24.6882 37.1519 25.0064 37.4679 25.3329C38.3245 26.2204 38.3245 27.4846 37.4596 28.3637C35.2391 30.6075 33.0185 32.8429 30.7897 35.07C29.9331 35.9324 28.669 35.9156 27.804 35.07C27.4381 34.71 27.0722 34.3583 26.7229 33.9816C26.0908 33.3118 25.9245 32.5332 26.2655 31.6708C26.332 31.5034 26.2987 31.4113 26.1823 31.2941C25.4255 30.5489 24.6853 29.787 23.9285 29.0419C23.8536 28.9665 23.7372 28.8995 23.6457 28.8995C22.9721 28.8744 22.2984 28.8577 21.6248 28.8493C21.4086 28.8409 21.1757 28.8074 20.9761 28.8661C20.7266 28.933 20.4522 29.0168 20.2692 29.1926C19.5124 29.9293 18.7888 30.6912 18.0487 31.428ZM30.8978 22.7291C30.7481 22.8714 30.6067 23.0305 30.4487 23.1561C30.141 23.3989 29.7335 23.3235 29.5256 23.0054C29.3592 22.7458 29.4008 22.4444 29.6586 22.1849C30.1077 21.7244 30.5735 21.2723 31.0226 20.8118C31.3885 20.4267 31.3802 19.8657 31.0309 19.5141C30.6733 19.1541 30.141 19.1457 29.7418 19.4973C29.5672 19.648 29.4175 19.8239 29.2511 19.9829C28.9268 20.3011 28.5608 20.3262 28.2947 20.0499C28.0369 19.782 28.0618 19.4052 28.3779 19.0787C28.7022 18.7438 29.0432 18.4173 29.3676 18.0824C29.7418 17.6805 29.7501 17.1196 29.3925 16.7596C29.0183 16.3828 28.4694 16.3912 28.0618 16.7847C27.8872 16.9521 27.7209 17.128 27.5545 17.2954C27.2219 17.6219 26.8393 17.6554 26.5732 17.3708C26.3154 17.0945 26.3486 16.7344 26.6647 16.4079C27.014 16.0479 27.3716 15.7046 27.7209 15.3446C28.1201 14.926 28.1201 14.3734 27.7541 13.9967C27.3882 13.6199 26.831 13.6367 26.4152 14.0385C26.2488 14.1976 26.0908 14.3651 25.9328 14.5241C25.5918 14.859 25.2176 14.9009 24.9514 14.633C24.677 14.3651 24.7103 13.9799 25.0429 13.645C25.3922 13.285 25.7498 12.9334 26.0991 12.5817C26.3154 12.3641 26.4235 12.0961 26.3819 11.7864C26.332 11.4263 26.1324 11.1668 25.7997 11.0412C25.4338 10.8989 25.1011 10.9826 24.8267 11.2589C24.2944 11.7864 23.7705 12.3222 23.2382 12.8497C23.0885 12.992 23.0636 13.0925 23.155 13.3018C23.6956 14.4906 23.0885 15.8721 21.8743 16.274C21.6581 16.3409 21.4335 16.3661 21.2006 16.4163C21.1923 16.4665 21.1674 16.5251 21.1591 16.5837C20.9844 17.7475 20.344 18.4006 19.1797 18.568C18.9967 18.5931 18.9801 18.6936 18.9635 18.8359C18.847 19.8741 18.0986 20.636 17.0673 20.7699C16.9758 20.7783 16.8926 20.8034 16.8095 20.8202C16.693 22.6621 14.8883 23.4407 13.6242 22.7626C13.5577 22.7291 13.408 22.7709 13.3498 22.8296C12.9506 23.2147 12.568 23.6082 12.1771 23.9933C11.9359 24.2277 11.6865 24.4622 11.5035 24.638C13.4579 26.6139 15.3624 28.5395 17.2835 30.4819C18.0071 29.7535 18.7472 29.0084 19.4791 28.2549C19.8534 27.8697 20.3108 27.6521 20.8347 27.6437C21.4252 27.6269 22.0157 27.6186 22.6062 27.6772C23.6208 27.7693 24.519 27.6353 25.1926 26.7562C25.4504 26.4213 25.8663 26.4381 26.1241 26.6976C26.3902 26.9655 26.3653 27.3172 26.0742 27.6437C25.808 27.9451 25.5585 28.2716 25.3257 28.5479C25.9078 29.134 26.5815 29.8205 27.2302 30.4819C29.1181 28.573 31.0309 26.639 32.9187 24.7385C32.2368 24.077 31.5798 23.4156 30.8978 22.7291ZM34.8981 24.8389C34.6735 24.9645 34.4324 25.0399 34.2744 25.1989C32.0538 27.4176 29.8416 29.6447 27.6294 31.8717C27.2468 32.2569 27.2551 32.7341 27.6294 33.1192C27.9704 33.4709 28.3113 33.8141 28.6606 34.1574C29.0598 34.5509 29.5256 34.5593 29.9248 34.1574C32.1453 31.9387 34.3575 29.7117 36.5697 27.4762C36.9523 27.0911 36.944 26.6139 36.5697 26.2287C36.2288 25.8687 35.8795 25.5087 35.5052 25.1738C35.3472 25.0399 35.131 24.9645 34.8981 24.8389ZM18.8221 17.3038C19.346 17.287 19.6454 17.1196 19.7951 16.7512C19.9532 16.3661 19.8866 16.0061 19.5955 15.713C18.847 14.9595 18.1069 14.206 17.3501 13.4608C16.9509 13.0757 16.4103 13.0757 16.036 13.4357C15.6701 13.7957 15.6618 14.3567 16.0444 14.7502C16.7845 15.5121 17.533 16.2656 18.2898 17.0024C18.4645 17.1698 18.714 17.2452 18.8221 17.3038ZM21.1258 15.1604C21.5915 15.1018 21.9575 14.8088 22.0406 14.3818C22.1321 13.9464 22.0074 13.7455 21.6082 13.5613C20.3524 12.9669 19.4126 12.0627 18.8803 10.7482C18.8304 10.631 18.7057 10.5138 18.5892 10.4803C18.1984 10.3463 17.7742 10.5138 17.558 10.8487C17.3251 11.2087 17.3584 11.6775 17.6744 11.9957C18.6142 12.9501 19.554 13.9046 20.5187 14.8423C20.6767 14.9846 20.9179 15.0516 21.1258 15.1604ZM16.7513 19.5643C17.1754 19.4806 17.4665 19.3048 17.6162 18.9364C17.7659 18.568 17.6994 18.2164 17.4249 17.9233C16.8677 17.354 16.3022 16.7763 15.7283 16.2154C15.3208 15.8135 14.7636 15.8135 14.3977 16.1902C14.0401 16.5586 14.0401 17.1112 14.4309 17.5131C14.9798 18.0824 15.5287 18.6517 16.1109 19.1876C16.2772 19.3718 16.535 19.4471 16.7513 19.5643ZM15.5038 20.7197C15.4871 20.6611 15.4871 20.4853 15.404 20.3848C15.0713 20.0164 14.747 19.6397 14.3561 19.3383C14.0317 19.0955 13.566 19.2211 13.2832 19.5308C13.0254 19.8071 12.9339 20.2927 13.1668 20.5941C13.4496 20.9541 13.7739 21.3225 14.1482 21.5737C14.7137 21.9672 15.4871 21.4983 15.5038 20.7197ZM21.8826 12.3055C22.4315 11.7529 22.9555 11.2254 23.496 10.6728C22.3567 10.497 21.2339 10.1621 19.9947 10.0951C20.3524 11.1668 21.0759 11.8031 21.8826 12.3055Z" fill="#3E7BFA" stroke="#3E7BFA" stroke-width="0.20984"/>
</svg>
