<svg width="46" height="45" viewBox="0 0 46 45" fill="none" xmlns="http://www.w3.org/2000/svg">
<rect x="0.970703" y="0.441162" width="44.0794" height="44.0794" rx="13.1048" fill="#DBE8FF"/>
<g clip-path="url(#clip0_1320_12072)">
<path d="M9.17993 28.3953C9.44381 27.627 10.0104 27.2932 10.7943 27.2855C10.9107 27.2855 11.0271 27.2467 11.1358 27.2389C12.4396 27.138 13.6737 26.8276 14.8223 26.1834C15.3268 25.8962 15.8546 25.6556 16.3746 25.3995C17.2749 24.9494 18.2295 24.6622 19.2462 24.6544C20.8217 24.6311 22.405 24.6311 23.9805 24.6544C25.1757 24.6777 26.2701 25.0658 27.279 25.7177C28.3346 26.4007 29.3978 27.0759 30.4611 27.7356C30.6163 27.8288 30.8181 27.8908 30.9966 27.8986C32.8671 27.9762 34.722 28.178 36.5149 28.7446C36.8719 28.861 37.2289 28.9929 37.5704 29.1482C38.4396 29.5517 38.8898 30.258 38.9208 31.2126C38.9441 31.7714 38.9363 32.338 38.9208 32.8968C38.8975 33.6885 38.4555 34.3612 37.757 34.4466C37.4466 34.4854 37.1746 34.2473 37.128 33.9911C37.0814 33.735 37.241 33.6198 37.5592 33.5732C37.8619 33.5266 37.9817 33.2538 38.036 32.9822C38.0516 32.8968 38.0516 32.8114 38.0516 32.7183C38.0516 32.1905 38.0516 31.655 38.0516 31.0885C37.7411 31.0885 37.4695 31.0962 37.1901 31.0885C36.8408 31.0807 36.6546 30.9177 36.6623 30.6461C36.6701 30.3744 36.8563 30.227 37.2056 30.2192C37.322 30.2192 37.4307 30.2192 37.5471 30.2192C37.5549 30.1959 37.5626 30.1726 37.5704 30.1494C37.4307 30.064 37.291 29.9708 37.1435 29.901C35.956 29.381 34.6987 29.0938 33.4104 28.9774C32.0444 28.8532 30.6707 28.7834 29.2969 28.7679C26.4331 28.7368 23.5692 28.7601 20.6975 28.7601C20.6199 28.7601 20.5423 28.7601 20.4647 28.7601C20.0922 28.7523 19.8981 28.6049 19.8904 28.3255C19.8904 28.0538 20.0922 27.8908 20.4569 27.8831C20.7752 27.8831 21.0934 27.8831 21.4193 27.8831C21.5125 27.8831 21.6134 27.8831 21.7298 27.8831C21.7298 27.0837 21.7298 26.3076 21.7298 25.5237C21.6987 25.5082 21.6677 25.4926 21.6444 25.4926C20.5889 25.5237 19.5334 25.5237 18.4856 25.6013C17.8337 25.6479 17.8414 25.6944 17.694 26.3153C17.5775 26.812 17.4689 27.3165 17.3447 27.852C17.4922 27.8676 17.6086 27.8831 17.725 27.8831C17.9889 27.8908 18.4945 27.8831 18.4945 27.8831C18.7273 27.9064 18.8814 28.0616 18.8892 28.3022C18.8969 28.535 18.7841 28.7327 18.5513 28.756C18.2188 28.777 16.3746 28.7756 15.5363 27.8831C15.3113 27.6425 15.1017 27.2855 14.8223 27.2234C14.5584 27.1613 14.2247 27.4174 13.9298 27.5338C13.0683 27.8831 12.1525 27.9762 11.2366 28.0849C10.9961 28.1159 10.7555 28.1392 10.5149 28.178C10.1811 28.2323 10.0492 28.3953 10.0414 28.7291C10.0337 28.8998 10.0414 29.0705 10.0414 29.2491C10.414 29.3267 10.965 29.1249 10.9495 29.7225C10.9417 30.2968 10.4062 30.0873 10.0492 30.1649C10.0492 30.6461 10.0181 31.135 10.0569 31.6085C10.0958 32.0043 10.3674 32.2604 10.7555 32.3768C11.291 32.532 11.8343 32.6873 12.4086 32.8502C12.5172 31.8646 12.9441 31.0807 13.8134 30.5762C14.3799 30.2425 14.9931 30.1416 15.6295 30.2425C16.3978 30.3822 17.0032 30.7625 17.4456 31.3834C17.8958 32.0043 18.0199 32.7028 17.9346 33.4711C22.1722 33.4711 26.3787 33.4711 30.6086 33.4711C30.6086 33.3004 30.6086 33.1296 30.6086 32.9589C30.6241 31.4299 31.8892 30.1959 33.4181 30.2347C34.9781 30.2735 36.2044 31.5696 36.1346 33.1141C36.0802 34.2783 35.2731 35.3183 34.1554 35.6443C33.0146 35.978 31.8116 35.5667 31.1286 34.5888C31.0044 34.418 30.888 34.3559 30.6784 34.3559C26.4175 34.3637 22.1566 34.3637 17.8958 34.3559C17.6862 34.3559 17.5698 34.4258 17.4456 34.5888C16.8402 35.4114 16.0098 35.8228 14.9853 35.7374C13.891 35.6443 13.1071 35.0622 12.6647 34.061C12.5871 33.8825 12.4862 33.7893 12.2999 33.7428C11.8343 33.6186 11.3763 33.4556 10.9029 33.3547C10.0104 33.1607 9.41277 32.6717 9.17993 31.7637C9.17993 30.6383 9.17993 29.5129 9.17993 28.3953ZM22.6378 27.8676C24.7566 27.8676 26.8522 27.8676 28.9477 27.8676C28.0707 27.2622 27.1937 26.6723 26.2778 26.1523C25.1525 25.5082 23.9184 25.4461 22.6378 25.5237C22.6378 26.3076 22.6378 27.0759 22.6378 27.8676ZM17.0886 32.9977C17.0886 31.9499 16.2659 31.1117 15.2259 31.104C14.1781 31.0885 13.3166 31.9344 13.3089 32.9822C13.3011 34.0222 14.1704 34.8914 15.2104 34.8837C16.2426 34.8759 17.0886 34.0299 17.0886 32.9977ZM33.3716 31.0962C32.3316 31.0962 31.4856 31.9267 31.4778 32.9667C31.4701 34.0222 32.316 34.8759 33.3638 34.8837C34.3883 34.8837 35.2498 34.0377 35.2653 33.0055C35.2731 31.9577 34.4193 31.104 33.3716 31.0962ZM16.522 27.5571C16.6307 27.0759 16.7238 26.6413 16.8402 26.1368C16.4056 26.3541 16.0408 26.5404 15.7537 26.6801C15.9865 26.9595 16.2426 27.2467 16.522 27.5571Z" fill="#598CFF" stroke="#598CFF" stroke-width="0.349733"/>
<rect x="18.2249" y="27.7727" width="2.4286" height="1.09155" fill="#598CFF" stroke="#598CFF" stroke-width="0.126668"/>
<rect x="35.3362" y="33.4934" width="2.36306" height="1.06754" transform="rotate(-0.095135 35.3362 33.4934)" fill="#598CFF" stroke="#598CFF" stroke-width="0.126668"/>
<ellipse cx="33.3963" cy="33.0139" rx="0.706744" ry="0.706744" fill="#598CFF"/>
<ellipse cx="15.2011" cy="33.0139" rx="0.706744" ry="0.706744" fill="#598CFF"/>
<g clip-path="url(#clip1_1320_12072)">
<path d="M26.0501 30.1893H25.759C25.4723 30.1998 25.2167 30.3829 25.0623 30.6145C25.024 30.6559 25.0465 30.7111 25.0782 30.7482C25.1741 30.879 25.2767 31.0046 25.3654 31.1406C25.4229 30.9931 25.4967 30.8357 25.6473 30.762C25.9076 30.6474 26.2557 30.7553 26.3771 31.0183C26.5046 31.2666 26.3842 31.6034 26.1263 31.7142C25.9019 31.8022 25.6228 31.7394 25.4752 31.5449C25.1429 31.1263 24.8331 30.6906 24.509 30.2654C24.3906 30.2459 24.2722 30.2245 24.1532 30.206C24.1298 30.3301 24.1048 30.4543 24.0799 30.5779C24.3676 30.9817 24.6615 31.3812 24.9568 31.7793C25.1582 32.0509 25.4512 32.2925 25.8103 32.2821H25.9067C26.4418 32.283 26.9217 31.815 26.9309 31.2847C26.9735 30.7705 26.589 30.2264 26.0501 30.1893Z" fill="#598CFF"/>
<path d="M23.2204 30.1895H22.9999C22.5965 30.2113 22.2396 30.5077 22.1042 30.8792C21.964 31.3078 22.0898 31.8316 22.4673 32.1008C22.6157 32.2155 22.7989 32.273 22.985 32.2825H23.1659C23.4874 32.2797 23.7903 32.0727 23.9372 31.7968C23.8683 31.6232 23.707 31.4914 23.6133 31.3264C23.5582 31.4596 23.4941 31.5999 23.3668 31.6793C23.0884 31.853 22.6664 31.695 22.575 31.3801C22.4913 31.128 22.6324 30.8221 22.8889 30.7365C23.12 30.6461 23.3893 30.7589 23.529 30.9525C23.8496 31.3663 24.1644 31.7849 24.4721 32.2088C24.4979 32.0989 24.5199 31.9881 24.5391 31.8768C24.6606 31.8777 24.7817 31.882 24.9027 31.8858C24.6735 31.569 24.4405 31.255 24.2094 30.9396C23.9668 30.6052 23.6822 30.1952 23.2204 30.1895Z" fill="#598CFF"/>
</g>
</g>
<mask id="path-9-inside-1_1320_12072" fill="white">
<rect x="17.9282" y="15.5933" width="13.2688" height="9.21211" rx="1.00145" transform="rotate(4.01055 17.9282 15.5933)"/>
</mask>
<rect x="17.9282" y="15.5933" width="13.2688" height="9.21211" rx="1.00145" transform="rotate(4.01055 17.9282 15.5933)" stroke="#598CFF" stroke-width="2.0984" mask="url(#path-9-inside-1_1320_12072)"/>
<path d="M26.8414 15.9015C26.8361 15.9772 26.8371 16.0533 26.8223 16.1283C26.7928 16.2783 26.6726 16.365 26.5181 16.3541C26.3605 16.3431 26.2541 16.2342 26.2493 16.0755C26.2465 15.9802 26.2597 15.8829 26.2634 15.7849C26.2694 15.5636 26.1792 15.4495 25.9585 15.434C25.0033 15.3639 24.0448 15.2967 23.0892 15.2329C22.8779 15.2181 22.7695 15.3182 22.7452 15.5288C22.7316 15.6324 22.7336 15.7403 22.7137 15.8434C22.6879 15.9842 22.5777 16.0652 22.4349 16.0679C22.2987 16.0678 22.1682 15.9858 22.1581 15.8583C22.1331 15.5366 22.1462 15.2143 22.3706 14.9512C22.5775 14.7122 22.8402 14.6261 23.1429 14.6473C23.6884 14.6855 24.2339 14.7238 24.7793 14.762C25.1609 14.7888 25.5424 14.8155 25.9239 14.8423C26.5766 14.888 26.8935 15.2493 26.8414 15.9015Z" fill="#598CFF" stroke="#598CFF" stroke-width="0.349733"/>
<path d="M18.3247 18.3804L24.3603 20.6566L30.6572 19.463" stroke="#598CFF" stroke-width="0.979251"/>
<rect x="23.5747" y="19.7356" width="1.7074" height="1.4701" rx="0.699465" transform="rotate(4.01055 23.5747 19.7356)" fill="#DBE8FF" stroke="#598CFF" stroke-width="0.616145"/>
<mask id="mask0_1320_12072" style="mask-type:alpha" maskUnits="userSpaceOnUse" x="6" y="8" width="25" height="20">
<path d="M11.2912 10.0477C11.192 9.81192 11.0931 9.59532 11.0069 9.37215C10.9076 9.12351 10.9817 8.91108 11.1857 8.82512C11.396 8.73909 11.5958 8.82622 11.7079 9.06828C11.8068 9.28487 11.8993 9.50156 11.9984 9.72456C12.4519 9.61615 12.8858 9.46954 13.3336 9.40606C16.4356 8.9493 18.9544 9.96119 20.8897 12.4353C21.1178 12.7272 21.0311 12.959 20.6615 13.124C18.7115 13.9631 16.7614 14.8022 14.8114 15.6414C14.7477 15.6678 14.684 15.7007 14.5948 15.7403C14.6279 15.8232 14.6546 15.9061 14.6877 15.9826C15.6523 18.2258 16.617 20.469 17.5753 22.7123C17.6612 22.9098 17.758 22.9599 17.9629 22.9508C20.3906 22.8681 22.8022 23.029 25.1802 23.5685C26.4978 23.8655 27.7909 24.2588 28.9413 25.0065C29.3226 25.2579 29.6538 25.5932 29.9975 25.9028C30.1401 26.0291 30.2192 26.2011 30.1257 26.401C30.0321 26.5944 29.8595 26.6287 29.6609 26.6313C27.508 26.6592 25.3616 26.687 23.2088 26.7149C18.0703 26.7815 12.9253 26.8483 7.78672 26.9149C7.71624 26.9158 7.63319 26.9361 7.5752 26.9112C7.4399 26.8553 7.25975 26.8 7.19426 26.6919C7.13527 26.5901 7.16448 26.3718 7.24661 26.2811C7.53719 25.9569 7.8405 25.6261 8.18965 25.3717C9.19268 24.6409 10.3408 24.2287 11.522 23.893C13.2203 23.4032 14.9537 23.1564 16.7078 23.0183C16.7462 23.0178 16.7846 23.0109 16.8678 23.0034C15.8701 20.6838 14.8789 18.3768 13.881 16.0443C13.4222 16.2425 12.9824 16.4277 12.5363 16.6193C10.9686 17.2933 9.40094 17.9672 7.82683 18.6413C7.39988 18.8263 7.19327 18.7072 7.1233 18.2531C6.60489 14.8442 8.14127 11.7547 11.164 10.1199C11.2022 10.1002 11.234 10.0805 11.2912 10.0477ZM8.455 26.0667C8.46157 26.0795 8.46814 26.0922 8.47472 26.1049C15.2471 26.0171 22.0195 25.9293 28.8304 25.841C28.0734 25.2869 27.2617 24.9578 26.4252 24.6931C24.7972 24.1759 23.1213 23.9156 21.4214 23.7839C18.5861 23.5643 15.7683 23.7098 12.9819 24.297C11.6718 24.5703 10.395 24.9458 9.21779 25.589C8.95052 25.7335 8.70929 25.9096 8.455 26.0667ZM17.2412 13.7451C17.2084 13.6878 17.1951 13.6495 17.169 13.6178C16.6986 12.919 16.1584 12.2788 15.5296 11.723C14.8814 11.1547 14.1768 10.6832 13.3156 10.4957C12.9943 10.423 12.6669 10.3824 12.3224 10.4958C12.9765 12.0189 13.624 13.5164 14.2715 15.0204C15.2721 14.5973 16.2406 14.1746 17.2412 13.7451ZM13.5641 15.3243C12.9098 13.7948 12.2624 12.2973 11.6147 10.7805C11.1575 11.1004 10.8747 11.5334 10.6888 12.0229C10.2174 13.2273 10.24 14.4767 10.4165 15.7304C10.4587 16.0182 10.52 16.2994 10.5816 16.6062C11.5886 16.1766 12.5636 15.7602 13.5641 15.3243ZM9.84973 12.053C8.51602 12.9803 7.42249 16.1217 7.84774 17.7823C8.51684 17.4917 9.18602 17.2074 9.86153 16.9167C9.49427 15.281 9.3645 13.6742 9.84973 12.053ZM14.4956 10.0639C15.9797 10.8521 17.0591 12.0556 17.9741 13.4344C18.6559 13.1372 19.3251 12.8529 20.0197 12.5491C18.5303 10.8574 16.706 10.0352 14.4956 10.0639Z" fill="#3E7BFA" stroke="black" stroke-width="0.489626"/>
</mask>
<g mask="url(#mask0_1320_12072)">
<path d="M22.2549 12.6284L18.8123 22.6819L16.6327 22.7756L14.4751 22.9154C12.5293 22.3698 8.54245 21.2149 8.16122 20.96C7.68469 20.6414 5.72449 17.5076 5.66201 17.2427C5.61202 17.0308 6.17416 14.2147 6.46147 12.8332L10.1123 7.47139L19.8469 9.08719L22.2549 12.6284Z" fill="#598CFF"/>
<rect x="17.6604" y="24.0391" width="2.57165" height="0.868205" fill="#598CFF"/>
<rect x="14.6565" y="18.1467" width="1.00669" height="7.78419" transform="rotate(-23.1769 14.6565 18.1467)" fill="#598CFF"/>
</g>
<rect x="17.4045" y="22.3486" width="2.64995" height="0.995188" transform="rotate(67.2897 17.4045 22.3486)" fill="#598CFF"/>
<defs>
<clipPath id="clip0_1320_12072">
<rect width="29.7564" height="11.7791" fill="white" transform="translate(9.17603 24.6311)"/>
</clipPath>
<clipPath id="clip1_1320_12072">
<rect width="4.88384" height="2.53706" fill="white" transform="matrix(-1 0 0 1 26.934 29.9675)"/>
</clipPath>
</defs>
</svg>
