<svg width="46" height="45" viewBox="0 0 46 45" fill="none" xmlns="http://www.w3.org/2000/svg">
<rect x="0.974609" y="0.0795898" width="44.0794" height="44.0794" rx="13.1048" fill="#DBE8FF"/>
<g clip-path="url(#clip0_1320_12054)">
<path d="M25.6819 17.0902H25.1829C24.6913 17.1081 24.2531 17.4221 23.9884 17.8192C23.9227 17.8902 23.9613 17.9848 24.0156 18.0484C24.18 18.2726 24.3559 18.4879 24.508 18.7211C24.6066 18.4683 24.7332 18.1984 24.9913 18.072C25.4377 17.8755 26.0345 18.0606 26.2425 18.5115C26.4612 18.9372 26.2548 19.5145 25.8126 19.7045C25.4278 19.8554 24.9494 19.7478 24.6962 19.4142C24.1265 18.6966 23.5955 17.9497 23.0398 17.2207C22.8367 17.1872 22.6337 17.1506 22.4298 17.1188C22.3896 17.3316 22.3468 17.5444 22.3041 17.7564C22.7973 18.4487 23.3012 19.1337 23.8076 19.8163C24.1528 20.2819 24.6551 20.6961 25.2708 20.6782H25.4361C26.3535 20.6798 27.1764 19.8774 27.192 18.9682C27.2651 18.0867 26.6058 17.1538 25.6819 17.0902Z" fill="#3E7BFA"/>
<path d="M20.8348 17.0902H20.4566C19.7651 17.1277 19.1531 17.6358 18.921 18.2728C18.6806 19.0076 18.8964 19.9056 19.5436 20.3672C19.7979 20.5637 20.1121 20.6624 20.4312 20.6787H20.7413C21.2925 20.6738 21.8118 20.3191 22.0636 19.846C21.9455 19.5484 21.669 19.3224 21.5083 19.0394C21.4139 19.2678 21.304 19.5084 21.0858 19.6446C20.6084 19.9423 19.8849 19.6715 19.7282 19.1316C19.5846 18.6993 19.8266 18.1749 20.2663 18.0281C20.6625 17.8732 21.1243 18.0665 21.3639 18.3984C21.9135 19.1079 22.4533 19.8256 22.9807 20.5523C23.025 20.3639 23.0627 20.1739 23.0956 19.9831C23.3039 19.9847 23.5115 19.992 23.719 19.9986C23.3261 19.4554 22.9266 18.9171 22.5304 18.3764C22.1145 17.803 21.6264 17.1 20.8348 17.0902Z" fill="#3E7BFA"/>
</g>
<path d="M21.0166 28.5635C20.9595 28.6941 20.9106 28.792 20.8699 28.89C19.8352 31.3222 18.8087 33.7545 17.7741 36.1867C17.5296 36.7499 17.0164 37.0029 16.5276 36.7581C16.3483 36.6683 16.1854 36.5051 16.0632 36.3337C15.7292 35.8603 15.4114 35.3787 15.1018 34.8808C14.9959 34.7013 14.89 34.6523 14.6863 34.7176C14.1649 34.8727 13.6272 34.9951 13.0977 35.1502C12.6903 35.2644 12.3319 35.2236 12.0386 34.8972C11.7534 34.5707 11.7616 34.2034 11.9245 33.8116C13.0488 31.1427 14.1731 28.4737 15.2974 25.7966C15.3463 25.6823 15.387 25.5681 15.4522 25.413C15.0937 25.3722 14.7597 25.3477 14.4256 25.2987C14.1975 25.2661 13.9613 25.2253 13.7413 25.1436C13.114 24.9151 12.8044 24.3927 12.9755 23.7398C13.1058 23.2501 13.3177 22.7848 13.5295 22.3196C13.9613 21.3483 13.9368 21.2667 13.0814 20.6464C12.7229 20.3934 12.3645 20.1404 12.0386 19.8465C11.3705 19.2344 11.3624 18.4917 12.0304 17.8877C12.4459 17.5122 12.9185 17.2102 13.3584 16.8674C13.8716 16.4675 13.9124 16.3369 13.6598 15.7329C13.4643 15.2514 13.2199 14.7943 13.057 14.3046C12.7229 13.3415 13.0814 12.7212 14.0835 12.5253C14.5886 12.4273 15.11 12.3947 15.6232 12.3376C16.2669 12.2641 16.3972 12.1335 16.4705 11.4887C16.5357 10.95 16.5602 10.4113 16.6661 9.88082C16.8534 8.96668 17.4726 8.5994 18.3606 8.8769C18.825 9.02382 19.2568 9.25235 19.7049 9.44824C20.5033 9.79104 20.6011 9.76655 21.1225 9.07279C21.432 8.65653 21.7172 8.21579 22.0757 7.84034C22.6459 7.22819 23.3547 7.24452 23.9495 7.84034C24.1043 7.99541 24.2509 8.17498 24.3813 8.35454C24.5931 8.64021 24.7886 8.93404 25.0086 9.2197C25.3915 9.72574 25.53 9.76655 26.1166 9.5217C26.4506 9.38294 26.7846 9.2197 27.1186 9.07279C27.3468 8.98301 27.5749 8.89323 27.8111 8.83609C28.5525 8.65653 29.1146 8.95852 29.302 9.70942C29.4324 10.2399 29.4731 10.795 29.5383 11.3336C29.6361 12.1743 29.7012 12.2478 30.5567 12.3457C31.0373 12.3947 31.5343 12.4273 32.0068 12.5335C32.9193 12.7212 33.2859 13.3496 32.9926 14.2393C32.8297 14.7535 32.5771 15.2351 32.3653 15.7248C32.0964 16.3614 32.1372 16.492 32.6912 16.9082C33.0741 17.1939 33.4733 17.4551 33.8399 17.7653C34.7035 18.4998 34.7035 19.2915 33.8236 20.0179C33.4651 20.3199 33.0741 20.573 32.6993 20.8505C32.1372 21.2749 32.1046 21.3973 32.3816 22.0584C32.5119 22.3767 32.6749 22.6869 32.8052 23.0052C32.903 23.2501 33.0008 23.5031 33.0578 23.7561C33.2044 24.4091 32.9193 24.9478 32.2838 25.1518C31.9172 25.2661 31.5262 25.2987 31.1514 25.364C30.9722 25.3967 30.7929 25.4048 30.5811 25.4212C31.0536 26.5393 31.5099 27.6249 31.9579 28.7104C32.6749 30.4163 33.3918 32.1221 34.1087 33.8279C34.2717 34.2197 34.2717 34.587 33.9865 34.9135C33.7177 35.2236 33.3674 35.2808 32.9845 35.1747C32.4549 35.0359 31.9254 34.9053 31.3958 34.7421C31.1595 34.6686 31.0373 34.7258 30.907 34.9298C30.63 35.3869 30.3123 35.8276 30.019 36.2847C29.7908 36.6438 29.4976 36.8887 29.0495 36.8479C28.6014 36.7989 28.3733 36.4969 28.2022 36.1051C27.192 33.6974 26.1654 31.2896 25.1471 28.89C25.1063 28.792 25.0575 28.6941 25.0004 28.5553C24.8375 28.7839 24.699 28.9879 24.5523 29.1838C24.4138 29.3715 24.2753 29.5674 24.1287 29.7388C23.4036 30.5958 22.5971 30.5958 21.8801 29.7225C21.5787 29.3552 21.3098 28.9634 21.0166 28.5635ZM32.2105 13.6843C32.0883 13.6027 31.9742 13.4639 31.852 13.4476C31.3551 13.366 30.85 13.3088 30.3448 13.2517C29.2043 13.1374 28.7236 12.6559 28.6177 11.5132C28.5688 11.0235 28.5199 10.5419 28.4384 10.0604C28.3733 9.6931 28.2592 9.6278 27.9089 9.75839C27.4853 9.91347 27.0698 10.1094 26.6461 10.2971C25.4567 10.8194 24.9027 10.6725 24.145 9.61148C23.8843 9.25235 23.6236 8.8769 23.3384 8.54226C23.0777 8.23211 22.9311 8.23211 22.6704 8.5341C22.3689 8.89323 22.1082 9.27684 21.8312 9.65229C21.1062 10.648 20.5522 10.8031 19.4197 10.3134C19.3057 10.2644 19.1998 10.2073 19.0857 10.1583C18.7598 10.0196 18.434 9.8645 18.0999 9.75023C17.7415 9.6278 17.6274 9.68494 17.5622 10.0522C17.4808 10.5256 17.4319 10.999 17.3911 11.4724C17.2934 12.664 16.8127 13.1538 15.6395 13.2599C15.167 13.3007 14.6863 13.3496 14.222 13.4313C13.8391 13.4966 13.7739 13.619 13.9124 13.9863C14.0672 14.4025 14.2546 14.8106 14.4419 15.2187C14.9715 16.4185 14.8248 16.9572 13.7739 17.7326C13.4073 18.002 13.0325 18.2631 12.6822 18.557C12.3889 18.8018 12.397 18.9487 12.6903 19.2018C13.0325 19.4874 13.3991 19.7486 13.7576 20.0098C14.833 20.7852 14.9796 21.332 14.4419 22.54C14.2627 22.9481 14.0753 23.3562 13.9124 23.7724C13.7739 24.1397 13.8391 24.254 14.2301 24.3193C14.6863 24.4009 15.1507 24.4499 15.6151 24.4907C16.829 24.6131 17.2689 25.0539 17.3911 26.2782C17.4319 26.6699 17.4645 27.0699 17.5133 27.4616C17.5867 28.0656 17.7252 28.1554 18.2873 27.9269C18.7191 27.7555 19.1346 27.5433 19.5745 27.3719C20.5685 26.9801 21.0654 27.1188 21.7253 27.9595C21.8964 28.188 22.0594 28.4247 22.2223 28.6533C22.3527 28.8328 22.483 29.0124 22.6378 29.1838C22.9392 29.5184 23.0777 29.5266 23.371 29.1756C23.6888 28.792 23.9658 28.3758 24.2672 27.9758C24.9352 27.1107 25.4485 26.9638 26.4669 27.3719C26.7113 27.4698 26.9476 27.5922 27.192 27.6983C27.4119 27.7963 27.6319 27.9024 27.86 27.984C28.2348 28.1146 28.3814 28.0493 28.4466 27.6657C28.5281 27.1923 28.5688 26.7189 28.6177 26.2455C28.7399 25.062 29.2043 24.5886 30.3937 24.4907C30.7766 24.458 31.1595 24.4172 31.5424 24.3683C32.1861 24.2866 32.2675 24.1642 32.0313 23.5684C31.9417 23.348 31.8439 23.144 31.7543 22.9236C31.6402 22.6543 31.5099 22.3849 31.4121 22.1074C31.1351 21.2994 31.2655 20.8097 31.9254 20.271C32.1942 20.0506 32.4793 19.8629 32.7563 19.6588C33.791 18.8916 33.8073 18.859 32.7401 18.0754C32.4549 17.8632 32.1616 17.6673 31.8846 17.4388C31.2736 16.9246 31.127 16.4349 31.3958 15.6758C31.5343 15.284 31.7298 14.9086 31.8846 14.525C31.9905 14.2801 32.0801 14.0189 32.2105 13.6843ZM33.2778 34.3013C32.072 31.4202 30.8825 28.588 29.7012 25.764C29.5953 25.968 29.5546 26.1639 29.5301 26.3679C29.4487 26.9393 29.4161 27.5269 29.2776 28.0819C29.0902 28.8084 28.5199 29.1267 27.803 28.9226C27.363 28.8002 26.9557 28.5961 26.5321 28.4247C26.3202 28.3431 26.1166 28.2452 25.8233 28.1228C26.9394 30.7672 28.023 33.3219 29.1309 35.9174C29.5138 35.3461 29.8642 34.8237 30.2145 34.3013C30.5811 33.7545 30.8825 33.6484 31.5099 33.8198C32.072 33.9749 32.6504 34.1299 33.2778 34.3013ZM20.1856 28.1391C19.9819 28.2125 19.8352 28.2697 19.6967 28.3268C19.2079 28.5227 18.7354 28.7675 18.2303 28.9145C17.4889 29.1267 16.9431 28.8165 16.7312 28.0656C16.6253 27.7065 16.6009 27.331 16.5439 26.9556C16.4868 26.5638 16.4461 26.1639 16.3972 25.764C16.3646 25.764 16.3402 25.764 16.3076 25.764C15.1181 28.588 13.9368 31.412 12.7229 34.285C13.4236 34.1055 14.059 33.9341 14.6945 33.7708C15.1018 33.6647 15.4359 33.8035 15.6884 34.1299C15.7943 34.2687 15.884 34.4156 15.9817 34.5625C16.275 35.0033 16.5602 35.444 16.8779 35.9174C17.9777 33.3137 19.0613 30.7672 20.1856 28.1391Z" fill="#3E7BFA" stroke="#3E7BFA" stroke-width="0.419679"/>
<path d="M22.9955 25.6902C19.2316 25.6739 16.1927 22.605 16.2172 18.8505C16.2335 15.0879 19.2723 12.0598 23.0199 12.0761C26.7838 12.0843 29.8226 15.1532 29.7982 18.9077C29.7738 22.6703 26.7268 25.6984 22.9955 25.6902ZM22.9955 24.7679C26.2461 24.7761 28.8694 22.1479 28.8776 18.8913C28.8857 15.6347 26.2624 13.0066 23.0118 12.9984C19.7611 12.9903 17.1378 15.6184 17.1296 18.875C17.1296 22.1235 19.7448 24.7598 22.9955 24.7679Z" fill="#3E7BFA" stroke="#3E7BFA" stroke-width="0.279786"/>
<defs>
<clipPath id="clip0_1320_12054">
<rect width="8.37324" height="4.34973" fill="white" transform="matrix(-1 0 0 1 27.1956 16.7089)"/>
</clipPath>
</defs>
</svg>
