<svg width="45" height="45" viewBox="0 0 45 45" fill="none" xmlns="http://www.w3.org/2000/svg">
<rect x="0.822266" y="0.260254" width="44.0794" height="44.0794" rx="13.1048" fill="#DBE8FF"/>
<path d="M36.0543 26.0995L36.0543 26.0995L36.0543 26.0995ZM36.0543 26.0995C36.5427 26.1692 36.816 26.5647 36.659 26.9775M36.0543 26.0995L36.659 26.9775M36.659 26.9775L36.0252 26.7365L36.659 26.9775ZM36.659 26.9775C36.6067 27.1055 36.5078 27.2276 36.409 27.3265L36.659 26.9775ZM30.4947 22.878C30.5091 22.8488 30.5219 22.8255 30.5331 22.8072C30.5437 22.8244 30.5558 22.8465 30.5692 22.8745L30.5692 22.8745L30.5704 22.8771C30.7601 23.2687 30.9489 23.6514 31.1365 24.0317C31.4012 24.5681 31.6636 25.0999 31.9227 25.6454C32.0046 25.8191 32.1256 25.9932 32.3152 26.1258C32.5011 26.2557 32.6971 26.3062 32.8588 26.3293L32.8588 26.3293L32.8641 26.33C33.8294 26.4602 34.79 26.6005 35.7593 26.7422C35.8249 26.7518 35.8905 26.7613 35.9562 26.7709L35.9583 26.7712C35.971 26.7731 35.9821 26.7753 35.9916 26.7777C35.9748 26.7986 35.9543 26.8213 35.9308 26.8449C35.1827 27.5814 34.4363 28.3105 33.6791 29.033C33.5733 29.1334 33.4596 29.2729 33.393 29.4632C33.3253 29.6565 33.3266 29.8438 33.3573 30.0078C33.519 30.9172 33.6763 31.8311 33.8333 32.7438C33.8564 32.878 33.8795 33.0122 33.9026 33.1463L33.9026 33.1463L33.9035 33.1513C33.9069 33.1701 33.909 33.1859 33.9103 33.1992C33.8959 33.1934 33.8787 33.1856 33.8584 33.1751C33.2258 32.8374 32.5916 32.5041 31.9596 32.1719C31.644 32.0061 31.3291 31.8406 31.0152 31.6749L31.0134 31.674C30.8897 31.6092 30.7266 31.5486 30.5299 31.5486C30.3331 31.5486 30.17 31.6092 30.0463 31.674L30.0463 31.674L30.0419 31.6764C29.0856 32.1864 28.1299 32.6903 27.1688 33.1882C27.263 32.6459 27.3527 32.1126 27.4422 31.5814C27.474 31.3985 27.5047 31.2182 27.5351 31.0393C27.5953 30.6857 27.6546 30.3374 27.7197 29.9852L27.7198 29.9852L27.721 29.9781C27.7476 29.8249 27.7481 29.6478 27.684 29.4634C27.6218 29.284 27.5171 29.1517 27.4218 29.0564L27.4219 29.0563L27.4126 29.0473C26.6358 28.2995 25.8645 27.5456 25.091 26.7896C25.0877 26.7864 25.0847 26.7832 25.0818 26.7802C25.1047 26.7746 25.1314 26.7692 25.1621 26.7642C26.2039 26.6079 27.2458 26.4574 28.2876 26.3127C28.4313 26.2942 28.6018 26.2475 28.7637 26.1329C28.9287 26.0161 29.033 25.8656 29.1009 25.7235L30.4947 22.878Z" stroke="#3E7BFA" stroke-width="1.35722"/>
<path d="M20.7125 26.0282L20.7125 26.0282L20.7125 26.0282ZM20.7125 26.0282C21.2009 26.0979 21.4742 26.4934 21.3172 26.9063M20.7125 26.0282L21.3172 26.9063M21.3172 26.9063L20.6834 26.6652L21.3172 26.9063ZM21.3172 26.9063C21.2649 27.0342 21.166 27.1563 21.0672 27.2552L21.3172 26.9063ZM15.1529 22.8067C15.1673 22.7775 15.1801 22.7542 15.1914 22.7359C15.2019 22.7531 15.214 22.7752 15.2274 22.8032L15.2274 22.8032L15.2286 22.8058C15.4183 23.1974 15.6071 23.5801 15.7947 23.9604C16.0594 24.4968 16.3218 25.0286 16.5809 25.5741C16.6628 25.7478 16.7838 25.922 16.9735 26.0545C17.1593 26.1844 17.3553 26.2349 17.517 26.258L17.517 26.258L17.5223 26.2587C18.4876 26.3889 19.4482 26.5292 20.4175 26.6709C20.4831 26.6805 20.5487 26.6901 20.6144 26.6997L20.6165 26.7C20.6292 26.7018 20.6403 26.704 20.6498 26.7064C20.633 26.7273 20.6125 26.75 20.589 26.7737C19.8409 27.5102 19.0945 28.2392 18.3373 28.9617C18.2315 29.0621 18.1178 29.2016 18.0512 29.3919C17.9835 29.5852 17.9848 29.7726 18.0155 29.9365C18.1772 30.8459 18.3345 31.7598 18.4916 32.6725C18.5146 32.8067 18.5377 32.9409 18.5608 33.075L18.5608 33.075L18.5617 33.08C18.5651 33.0988 18.5672 33.1146 18.5685 33.1279C18.5542 33.1221 18.5369 33.1143 18.5166 33.1038C17.884 32.7661 17.2498 32.4328 16.6178 32.1006C16.3023 31.9348 15.9873 31.7693 15.6734 31.6037L15.6716 31.6027C15.5479 31.5379 15.3848 31.4773 15.1881 31.4773C14.9913 31.4773 14.8283 31.5379 14.7045 31.6027L14.7045 31.6027L14.7001 31.6051C13.7438 32.1151 12.7881 32.619 11.827 33.117C11.9212 32.5746 12.0109 32.0414 12.1004 31.5101C12.1322 31.3272 12.1629 31.1469 12.1933 30.968C12.2535 30.6144 12.3128 30.2661 12.3779 29.9139L12.378 29.9139L12.3792 29.9068C12.4058 29.7536 12.4063 29.5765 12.3422 29.3921C12.28 29.2127 12.1753 29.0804 12.08 28.9851L12.0801 28.985L12.0708 28.976C11.294 28.2282 10.5227 27.4743 9.74924 26.7184C9.74594 26.7151 9.74287 26.7119 9.74002 26.7089C9.76294 26.7033 9.78961 26.6979 9.82026 26.6929C10.8621 26.5366 11.904 26.3862 12.9458 26.2414C13.0895 26.2229 13.26 26.1762 13.4219 26.0616C13.5869 25.9449 13.6912 25.7943 13.7591 25.6522L15.1529 22.8067Z" stroke="#3E7BFA" stroke-width="1.35722"/>
<path d="M28.3511 13.4729L28.3511 13.4729L28.3511 13.4729ZM28.3511 13.4729C28.8396 13.5426 29.1129 13.9381 28.9559 14.351M28.3511 13.4729L28.9559 14.351M28.9559 14.351L28.3221 14.1099L28.9559 14.351ZM28.9559 14.351C28.9036 14.4789 28.8047 14.601 28.7059 14.6999L28.9559 14.351ZM22.7916 10.2514C22.806 10.2222 22.8188 10.1989 22.83 10.1806C22.8405 10.1978 22.8526 10.2199 22.8661 10.2479L22.8661 10.2479L22.8673 10.2505C23.0569 10.6421 23.2457 11.0248 23.4334 11.4051C23.6981 11.9415 23.9604 12.4733 24.2196 13.0188C24.3015 13.1925 24.4225 13.3667 24.6121 13.4992C24.798 13.6291 24.994 13.6796 25.1557 13.7027L25.1557 13.7027L25.161 13.7034C26.1263 13.8336 27.0868 13.9739 28.0562 14.1156C28.1218 14.1252 28.1874 14.1348 28.2531 14.1444L28.2552 14.1447C28.2679 14.1465 28.279 14.1487 28.2885 14.1511C28.2717 14.172 28.2512 14.1947 28.2277 14.2184C27.4796 14.9549 26.7331 15.6839 25.9759 16.4064C25.8702 16.5068 25.7565 16.6463 25.6899 16.8366C25.6222 17.0299 25.6234 17.2173 25.6542 17.3812C25.8159 18.2906 25.9731 19.2045 26.1302 20.1172C26.1533 20.2514 26.1764 20.3856 26.1995 20.5197L26.1995 20.5197L26.2004 20.5247C26.2038 20.5435 26.2059 20.5593 26.2071 20.5726C26.1928 20.5668 26.1756 20.559 26.1553 20.5485C25.5227 20.2108 24.8884 19.8775 24.2564 19.5453C23.9409 19.3795 23.626 19.214 23.312 19.0484L23.3103 19.0474C23.1866 18.9826 23.0235 18.922 22.8267 18.922C22.63 18.922 22.4669 18.9826 22.3432 19.0474L22.3432 19.0474L22.3388 19.0498C21.3825 19.5598 20.4268 20.0637 19.4657 20.5617C19.5599 20.0193 19.6496 19.4861 19.739 18.9548C19.7708 18.7719 19.8015 18.5916 19.832 18.4127C19.8922 18.0591 19.9515 17.7108 20.0166 17.3586L20.0166 17.3586L20.0179 17.3515C20.0445 17.1983 20.0449 17.0212 19.9809 16.8368C19.9186 16.6574 19.8139 16.5251 19.7186 16.4298L19.7187 16.4297L19.7094 16.4207C18.9327 15.6729 18.1614 14.9191 17.3879 14.1631C17.3846 14.1598 17.3815 14.1566 17.3787 14.1536C17.4016 14.148 17.4283 14.1426 17.4589 14.1376C18.5008 13.9814 19.5426 13.8309 20.5845 13.6861C20.7282 13.6676 20.8987 13.6209 21.0606 13.5063C21.2256 13.3896 21.3299 13.239 21.3978 13.0969L22.7916 10.2514Z" stroke="#3E7BFA" stroke-width="1.35722"/>
</svg>
