<svg width="55" height="55" viewBox="0 0 55 55" fill="none" xmlns="http://www.w3.org/2000/svg">
<rect width="55" height="55" rx="16.0638" fill="#DBE8FF"/>
<path d="M9.13456 32.1407H5.18656V30.2607L8.94656 21.3683H11.2026V30.2607H12.1802V32.1407H11.2026V34.5283H9.13456V32.1407ZM9.13456 30.2607V25.1283H9.09696L7.06656 30.2607H9.13456ZM16.1919 34.7163C15.1767 34.7163 14.3996 34.4281 13.8607 33.8515C13.3218 33.275 13.0523 32.4603 13.0523 31.4075V24.4891C13.0523 23.4363 13.3218 22.6217 13.8607 22.0451C14.3996 21.4686 15.1767 21.1803 16.1919 21.1803C17.2071 21.1803 17.9842 21.4686 18.5231 22.0451C19.062 22.6217 19.3315 23.4363 19.3315 24.4891V31.4075C19.3315 32.4603 19.062 33.275 18.5231 33.8515C17.9842 34.4281 17.2071 34.7163 16.1919 34.7163ZM16.1919 32.8363C16.9063 32.8363 17.2635 32.4039 17.2635 31.5391V24.3575C17.2635 23.4927 16.9063 23.0603 16.1919 23.0603C15.4775 23.0603 15.1203 23.4927 15.1203 24.3575V31.5391C15.1203 32.4039 15.4775 32.8363 16.1919 32.8363ZM20.4293 27.0083H24.5653V28.8883H20.4293V27.0083ZM28.824 34.7163C27.8214 34.7163 27.0568 34.4343 26.5304 33.8703C26.004 33.2938 25.7408 32.4729 25.7408 31.4075V30.3735H27.696V31.5579C27.696 32.4102 28.0532 32.8363 28.7676 32.8363C29.482 32.8363 29.8392 32.4102 29.8392 31.5579V28.6063C29.8392 27.7415 29.482 27.3091 28.7676 27.3091C28.0532 27.3091 27.696 27.7415 27.696 28.6063V28.7191H25.7408L26.1168 21.3683H31.5688V23.2483H27.9592L27.79 26.3879H27.8276C28.2162 25.7487 28.8115 25.4291 29.6136 25.4291C30.3656 25.4291 30.9359 25.6861 31.3244 26.1999C31.713 26.7138 31.9072 27.4595 31.9072 28.4371V31.4075C31.9072 32.4729 31.644 33.2938 31.1176 33.8703C30.5912 34.4343 29.8267 34.7163 28.824 34.7163ZM36.3138 34.7163C35.2986 34.7163 34.5215 34.4281 33.9826 33.8515C33.4437 33.275 33.1742 32.4603 33.1742 31.4075V24.4891C33.1742 23.4363 33.4437 22.6217 33.9826 22.0451C34.5215 21.4686 35.2986 21.1803 36.3138 21.1803C37.329 21.1803 38.1061 21.4686 38.645 22.0451C39.1839 22.6217 39.4534 23.4363 39.4534 24.4891V31.4075C39.4534 32.4603 39.1839 33.275 38.645 33.8515C38.1061 34.4281 37.329 34.7163 36.3138 34.7163ZM36.3138 32.8363C37.0282 32.8363 37.3854 32.4039 37.3854 31.5391V24.3575C37.3854 23.4927 37.0282 23.0603 36.3138 23.0603C35.5994 23.0603 35.2422 23.4927 35.2422 24.3575V31.5391C35.2422 32.4039 35.5994 32.8363 36.3138 32.8363ZM42.7319 28.6815C42.0802 28.6815 41.5851 28.4998 41.2467 28.1363C40.9083 27.7729 40.7391 27.2527 40.7391 26.5759V23.2859C40.7391 22.6091 40.9083 22.089 41.2467 21.7255C41.5851 21.3621 42.0802 21.1803 42.7319 21.1803C43.3837 21.1803 43.8787 21.3621 44.2171 21.7255C44.5555 22.089 44.7247 22.6091 44.7247 23.2859V26.5759C44.7247 27.2527 44.5555 27.7729 44.2171 28.1363C43.8787 28.4998 43.3837 28.6815 42.7319 28.6815ZM47.5071 21.3683H48.8231L43.7283 34.5283H42.4123L47.5071 21.3683ZM42.7319 27.4971C43.1831 27.4971 43.4087 27.2214 43.4087 26.6699V23.1919C43.4087 22.6405 43.1831 22.3647 42.7319 22.3647C42.2807 22.3647 42.0551 22.6405 42.0551 23.1919V26.6699C42.0551 27.2214 42.2807 27.4971 42.7319 27.4971ZM48.5035 34.7163C47.8518 34.7163 47.3567 34.5346 47.0183 34.1711C46.6799 33.8077 46.5107 33.2875 46.5107 32.6107V29.3207C46.5107 28.6439 46.6799 28.1238 47.0183 27.7603C47.3567 27.3969 47.8518 27.2151 48.5035 27.2151C49.1553 27.2151 49.6503 27.3969 49.9887 27.7603C50.3271 28.1238 50.4963 28.6439 50.4963 29.3207V32.6107C50.4963 33.2875 50.3271 33.8077 49.9887 34.1711C49.6503 34.5346 49.1553 34.7163 48.5035 34.7163ZM48.5035 33.5319C48.9547 33.5319 49.1803 33.2562 49.1803 32.7047V29.2267C49.1803 28.6753 48.9547 28.3995 48.5035 28.3995C48.0523 28.3995 47.8267 28.6753 47.8267 29.2267V32.7047C47.8267 33.2562 48.0523 33.5319 48.5035 33.5319Z" fill="#3E7BFA"/>
</svg>
