<svg width="56" height="56" viewBox="0 0 56 56" fill="none" xmlns="http://www.w3.org/2000/svg">
<rect x="0.68335" y="0.275391" width="55" height="55" rx="16.0638" fill="#DBE8FF"/>
<g clip-path="url(#clip0_453_19044)">
<path d="M41.7176 27.7738C41.7176 20.2672 35.6456 14.1597 28.1826 14.1597C20.7196 14.1597 14.6476 20.2672 14.6476 27.7738C14.6476 31.7387 16.3427 35.3125 19.0408 37.8027L19.028 37.8141L19.467 38.1864C19.4956 38.2106 19.5266 38.2304 19.5551 38.2542C19.7884 38.4487 20.0301 38.6334 20.2762 38.8121C20.3559 38.87 20.4357 38.928 20.5169 38.9844C20.7797 39.1666 21.0494 39.3393 21.325 39.5032C21.3851 39.5389 21.4456 39.5735 21.5062 39.6082C21.8079 39.7809 22.116 39.9438 22.4315 40.0933C22.4546 40.1042 22.4782 40.1141 22.5013 40.125C23.5295 40.6057 24.6271 40.9587 25.7749 41.1671C25.8049 41.1725 25.8349 41.178 25.8654 41.1834C26.2218 41.2453 26.582 41.2948 26.9467 41.328C26.991 41.332 27.0353 41.3344 27.0801 41.3384C27.4434 41.3686 27.8105 41.3879 28.1826 41.3879C28.5513 41.3879 28.915 41.3686 29.2762 41.3394C29.322 41.3354 29.3678 41.3329 29.4136 41.329C29.7753 41.2958 30.1326 41.2478 30.4855 41.1869C30.516 41.1815 30.5471 41.176 30.5776 41.1701C31.7081 40.9661 32.7899 40.6211 33.8048 40.1527C33.8422 40.1354 33.8801 40.1191 33.9175 40.1012C34.2212 39.9577 34.518 39.8027 34.8089 39.6379C34.8812 39.5968 34.9531 39.5552 35.0249 39.5126C35.2897 39.3557 35.5501 39.1918 35.8031 39.0176C35.8941 38.9552 35.9832 38.8893 36.0733 38.824C36.2894 38.6676 36.5015 38.5062 36.7077 38.3373C36.7535 38.3002 36.8027 38.268 36.8475 38.2299L37.2978 37.8517L37.2845 37.8403C40.0063 35.3492 41.7176 31.759 41.7176 27.7738ZM15.6319 27.7738C15.6319 20.8128 21.262 15.1498 28.1826 15.1498C35.1032 15.1498 40.7333 20.8128 40.7333 27.7738C40.7333 31.5248 39.0968 34.8972 36.5059 37.2111C36.3612 37.1106 36.2155 37.0205 36.0664 36.9452L31.8991 34.8497C31.525 34.6615 31.2927 34.2833 31.2927 33.863V32.3991C31.3892 32.2793 31.4911 32.1437 31.5964 31.9947C32.1358 31.2283 32.5685 30.3758 32.8839 29.4585C33.5075 29.1604 33.9101 28.5357 33.9101 27.8302V26.0752C33.9101 25.646 33.7536 25.2297 33.4736 24.9024V22.592C33.4992 22.3351 33.5897 20.885 32.5468 19.689C31.6397 18.6474 30.1715 18.1201 28.1826 18.1201C26.1937 18.1201 24.7255 18.6474 23.8184 19.6885C22.7755 20.8845 22.8661 22.3346 22.8916 22.5915V24.9019C22.6121 25.2292 22.4551 25.6455 22.4551 26.0747V27.8297C22.4551 28.3748 22.6982 28.8832 23.1146 29.2263C23.5133 30.7971 24.3337 31.9862 24.6369 32.3892V33.8219C24.6369 34.2259 24.4179 34.5972 24.065 34.7912L20.1733 36.9264C20.0493 36.9943 19.9262 37.0735 19.8032 37.1621C17.2443 34.8492 15.6319 31.4976 15.6319 27.7738ZM35.5452 37.9878C35.3729 38.1136 35.1977 38.2354 35.02 38.3517C34.9383 38.4052 34.8571 38.4586 34.7739 38.5106C34.5416 38.6552 34.3054 38.7928 34.0642 38.9215C34.011 38.9497 33.9574 38.9765 33.9037 39.0042C33.3495 39.2898 32.7762 39.5354 32.187 39.7349C32.1663 39.7418 32.1457 39.7493 32.1245 39.7562C31.8159 39.8592 31.5034 39.9507 31.1874 40.0295C31.1864 40.0295 31.1854 40.03 31.1844 40.03C30.8655 40.1092 30.5426 40.175 30.2178 40.229C30.2089 40.2305 30.2001 40.2324 30.1912 40.2339C29.8856 40.2839 29.5775 40.3201 29.2684 40.3473C29.2137 40.3522 29.1591 40.3557 29.104 40.3597C28.7983 40.3829 28.4912 40.3978 28.1826 40.3978C27.8706 40.3978 27.5595 40.3824 27.2499 40.3592C27.1963 40.3552 27.1426 40.3517 27.0895 40.3468C26.7774 40.3191 26.4669 40.2819 26.1592 40.2314C26.1455 40.229 26.1317 40.2265 26.1179 40.224C25.4672 40.1146 24.8269 39.9537 24.2033 39.7433C24.1841 39.7369 24.1644 39.7299 24.1452 39.7235C23.8357 39.6176 23.5295 39.5002 23.2288 39.3705C23.2268 39.3695 23.2244 39.3686 23.2224 39.3676C22.9379 39.2443 22.6588 39.1077 22.3832 38.9636C22.3473 38.9448 22.3109 38.927 22.2754 38.9077C22.0239 38.7725 21.7778 38.6265 21.5352 38.474C21.4633 38.4284 21.392 38.3824 21.3211 38.3359C21.0976 38.1888 20.8771 38.0359 20.6625 37.874C20.6404 37.8571 20.6192 37.8393 20.5971 37.8225C20.6128 37.8136 20.6286 37.8047 20.6443 37.7958L24.536 35.6606C25.2054 35.2932 25.6213 34.5888 25.6213 33.8219L25.6208 32.0387L25.5076 31.9011C25.4968 31.8887 24.4327 30.5867 24.0306 28.8238L23.9858 28.6278L23.8179 28.5184C23.5812 28.3644 23.4394 28.107 23.4394 27.8292V26.0742C23.4394 25.844 23.5364 25.6297 23.7136 25.4688L23.876 25.3213V22.5638L23.8716 22.4989C23.8701 22.4871 23.7249 21.2964 24.5587 20.3405C25.2704 19.5246 26.49 19.1103 28.1826 19.1103C29.8688 19.1103 31.0845 19.5212 31.7982 20.3311C32.631 21.2771 32.4946 22.49 32.4936 22.4999L32.4892 25.3223L32.6516 25.4698C32.8283 25.6302 32.9258 25.845 32.9258 26.0752V27.8302C32.9258 28.1832 32.6871 28.5035 32.3445 28.6099L32.0999 28.6857L32.0211 28.9307C31.7308 29.8382 31.3173 30.6763 30.7927 31.4219C30.6637 31.605 30.5382 31.7674 30.4304 31.8917L30.3083 32.0318V33.863C30.3083 34.661 30.7493 35.3789 31.4591 35.7353L35.6264 37.8309C35.653 37.8443 35.679 37.8581 35.7051 37.872C35.6525 37.9121 35.5983 37.9492 35.5452 37.9878Z" fill="#3E7BFA" stroke="#3E7BFA" stroke-width="0.642772"/>
</g>
<defs>
<clipPath id="clip0_453_19044">
<rect width="27.6489" height="27.8105" fill="white" transform="translate(14.3594 13.8704)"/>
</clipPath>
</defs>
</svg>
