<svg width="56" height="56" viewBox="0 0 56 56" fill="none" xmlns="http://www.w3.org/2000/svg">
<rect x="0.89502" y="0.255371" width="55" height="55" rx="16.0638" fill="#DBE8FF"/>
<path d="M41.1975 27.9544C41.0008 28.3898 40.6566 28.5233 40.193 28.5163C39.287 28.4952 38.3738 28.5163 37.4678 28.5022C37.2992 28.5022 37.2289 28.5373 37.1798 28.7129C36.7302 30.2793 35.2341 31.3118 33.6186 31.1924C32.0102 31.073 30.6826 29.8227 30.4579 28.2142C30.212 26.4372 31.3921 24.7725 33.1761 24.3792C34.904 23.9999 36.6811 25.0675 37.1798 26.7954C37.2289 26.971 37.2992 27.0132 37.4678 27.0061C38.3738 26.9991 39.287 27.0202 40.193 26.9921C40.6566 26.978 41.0008 27.1185 41.1975 27.554C41.1975 27.6874 41.1975 27.8209 41.1975 27.9544ZM35.8031 27.7507C35.8031 26.683 34.9251 25.805 33.8715 25.8121C32.8039 25.8191 31.9399 26.6971 31.9399 27.7647C31.9469 28.8323 32.8249 29.7103 33.8785 29.7033C34.9462 29.6893 35.8031 28.8253 35.8031 27.7507Z" fill="#3E7BFA"/>
<path d="M41.1977 37.0574C41.001 37.4929 40.6568 37.6194 40.1933 37.6123C36.309 37.5983 32.4248 37.6053 28.5476 37.6053C28.4141 37.6053 28.2807 37.6053 28.1542 37.5702C27.796 37.4718 27.5713 37.1417 27.6064 36.7765C27.6415 36.4112 27.9295 36.1303 28.3018 36.1022C28.4001 36.0952 28.4984 36.0952 28.6038 36.0952C32.4669 36.0952 36.3371 36.1022 40.2003 36.0881C40.6639 36.0881 41.008 36.2146 41.2047 36.65C41.1977 36.7905 41.1977 36.924 41.1977 37.0574Z" fill="#3E7BFA"/>
<path d="M41.1985 18.8515C41.0018 19.287 40.6576 19.4134 40.194 19.4134C36.5627 19.3994 32.9313 19.4064 29.2999 19.4064C28.7801 19.4064 28.45 19.1184 28.443 18.6689C28.436 18.2685 28.724 17.9454 29.1243 17.9103C29.2227 17.9033 29.321 17.9033 29.4263 17.9033C33.0156 17.9033 36.6048 17.9103 40.194 17.8962C40.6576 17.8962 41.0018 18.0227 41.1985 18.4511C41.1985 18.5846 41.1985 18.718 41.1985 18.8515Z" fill="#3E7BFA"/>
<path d="M18.2925 17.903C18.9176 17.903 19.5428 17.896 20.1679 17.91C20.3365 17.91 20.4067 17.8749 20.4559 17.6993C20.9335 16.0135 22.5982 14.981 24.3612 15.262C26.0188 15.5289 27.255 17.0531 27.1989 18.7669C27.1427 20.4878 25.8784 21.8504 24.1154 22.0892C22.5279 22.3 20.9054 21.2112 20.4489 19.6168C20.3997 19.4412 20.3295 19.3991 20.1609 19.3991C18.9036 19.4061 17.6463 19.4061 16.389 19.3991C15.806 19.3991 15.4338 18.8653 15.6515 18.3595C15.785 18.0435 16.0449 17.896 16.389 17.896C17.0282 17.903 17.6604 17.903 18.2925 17.903ZM21.8396 18.6475C21.8396 19.7222 22.6895 20.5861 23.7642 20.5931C24.8177 20.6002 25.7028 19.7152 25.7028 18.6545C25.7028 17.5939 24.8318 16.7089 23.7712 16.7019C22.7106 16.7019 21.8396 17.5729 21.8396 18.6475Z" fill="#3E7BFA"/>
<path d="M17.8574 36.1023C18.3561 36.1023 18.8548 36.0953 19.3535 36.1023C19.501 36.1023 19.5642 36.0672 19.6064 35.9126C20.0629 34.3393 21.4888 33.3278 23.1253 33.4121C24.8813 33.4964 26.2861 34.9504 26.3563 36.7625C26.4266 38.4693 25.1201 40.0287 23.4203 40.2605C21.6714 40.4993 20.084 39.4738 19.5993 37.7951C19.5572 37.6475 19.501 37.5984 19.3465 37.5984C18.3631 37.6054 17.3798 37.6054 16.3964 37.5984C15.8134 37.5984 15.4482 37.1067 15.6308 36.594C15.7362 36.2919 15.9961 36.1023 16.3402 36.1023C16.853 36.0953 17.3587 36.1023 17.8574 36.1023ZM20.9971 36.8398C20.9971 37.9145 21.84 38.7784 22.9146 38.7925C23.9682 38.8065 24.8532 37.9215 24.8603 36.8609C24.8673 35.8003 24.0033 34.9223 22.9357 34.9082C21.8751 34.8942 20.9971 35.7722 20.9971 36.8398Z" fill="#3E7BFA"/>
<path d="M22.3737 28.5095C20.393 28.5095 18.4122 28.5095 16.4244 28.5095C15.8274 28.5095 15.4551 28.0108 15.6518 27.498C15.7642 27.21 15.9819 27.0485 16.291 27.0134C16.3823 27.0063 16.4736 27.0063 16.5649 27.0063C20.4562 27.0063 24.3474 27.0063 28.2317 27.0063C28.2878 27.0063 28.3511 27.0063 28.4073 27.0063C28.8708 27.0204 29.201 27.3365 29.1939 27.7649C29.1869 28.1864 28.8638 28.5024 28.4143 28.5095C27.9156 28.5165 27.4169 28.5095 26.9182 28.5095C25.401 28.5095 23.8909 28.5095 22.3737 28.5095Z" fill="#3E7BFA"/>
</svg>
