<svg width="24" height="24" viewBox="0 0 24 24" fill="none" xmlns="http://www.w3.org/2000/svg">
<path d="M12.2496 0.326294C13.2971 0.704066 14.0812 1.7687 14.1099 2.95925C14.1442 4.31008 14.127 5.66662 14.1328 7.01745C14.1328 7.41811 14.1385 7.82451 14.127 8.22517C14.1213 8.40261 14.1843 8.49419 14.3388 8.58005C17.0977 10.0854 19.8509 11.6022 22.6097 13.1076C23.1249 13.3881 23.4969 13.7716 23.6229 14.3554C23.6629 14.5443 23.6515 14.7503 23.6515 14.9449C23.6572 15.4257 23.6515 15.9008 23.6515 16.3816C23.6515 16.6735 23.5427 16.7708 23.2565 16.7193C22.1118 16.5247 20.967 16.3301 19.8222 16.1355C18.0536 15.8321 16.2906 15.5345 14.522 15.2311C14.4876 15.2254 14.4476 15.2197 14.3903 15.214C14.3274 15.9523 14.2587 16.6735 14.2129 17.4005C14.1728 18.0301 14.1671 18.6597 14.127 19.2893C14.1156 19.4782 14.1843 19.5755 14.356 19.6499C15.0085 19.9361 15.6553 20.2338 16.3078 20.5257C16.8916 20.7832 17.1836 21.2297 17.1721 21.8708C17.1664 22.3516 17.1721 22.8267 17.1721 23.3075C17.1721 23.6108 17.0347 23.7138 16.7371 23.6623C15.2031 23.4048 13.6691 23.1357 12.1294 22.9068C11.8261 22.861 11.4998 22.9526 11.185 23.0041C9.87423 23.2159 8.56348 23.4391 7.25272 23.6623C6.96081 23.7138 6.81771 23.5994 6.81771 23.3017C6.81199 22.798 6.81199 22.3001 6.81771 21.7964C6.82916 21.2183 7.1039 20.7947 7.63049 20.5543C8.31735 20.2338 9.01566 19.9304 9.70252 19.6041C9.77693 19.5698 9.86851 19.4553 9.86279 19.3809C9.78265 18.0072 9.69107 16.6392 9.59377 15.2655C9.59377 15.254 9.58232 15.2369 9.56515 15.214C8.66651 15.3685 7.76214 15.5231 6.85778 15.6776C4.83154 16.021 2.79959 16.3702 0.773352 16.7136C0.452817 16.7651 0.332617 16.6621 0.332617 16.3416C0.332617 15.855 0.338341 15.3685 0.332617 14.882C0.315446 14.0692 0.676047 13.4911 1.3858 13.1076C3.21743 12.1231 5.04905 11.1329 6.87495 10.1369C7.81366 9.62179 8.74092 9.08947 9.67962 8.57433C9.82272 8.49419 9.87996 8.40261 9.87996 8.23662C9.87423 6.63395 9.87996 5.02556 9.87423 3.42288C9.86851 2.61582 10.0917 1.88317 10.5325 1.20776C10.8301 0.749857 11.2193 0.452218 11.7516 0.326294C11.9119 0.326294 12.0836 0.326294 12.2496 0.326294ZM7.42444 23.0442C8.57493 22.8553 9.71397 22.6549 10.853 22.4775C11.3166 22.4031 11.7917 22.2886 12.2439 22.3401C13.2112 22.4432 14.1614 22.6435 15.123 22.8038C15.6038 22.8839 16.0903 22.964 16.594 23.0442C16.594 22.6435 16.5826 22.2714 16.594 21.9051C16.6112 21.4758 16.4108 21.2068 16.0273 21.0408C15.3806 20.7604 14.7395 20.4627 14.0927 20.1708C13.6462 19.9705 13.526 19.7987 13.5547 19.3065C13.6405 17.8584 13.7378 16.4102 13.8351 14.9621C13.858 14.6359 13.9725 14.5443 14.293 14.6015C16.7543 15.0194 19.2212 15.4429 21.6825 15.8608C22.1461 15.9409 22.604 16.0153 23.0905 16.1012C23.0905 15.7119 23.0791 15.3571 23.0905 15.0022C23.1192 14.3497 22.8444 13.9032 22.2606 13.5884C19.5303 12.1059 16.8115 10.6006 14.087 9.11809C13.6977 8.90631 13.5318 8.63729 13.5375 8.19083C13.5547 6.61106 13.5489 5.02556 13.5547 3.44578C13.5547 2.69023 13.3486 2.0091 12.8907 1.4081C12.3755 0.732686 11.5742 0.749857 11.0762 1.44244C10.6469 2.03772 10.4409 2.69023 10.4466 3.42288C10.4581 5.04273 10.4466 6.66257 10.4523 8.28241C10.4523 8.63729 10.3207 8.88914 10.0002 9.06085C9.57087 9.28981 9.15876 9.54738 8.72947 9.78205C6.38842 11.0585 4.0531 12.3349 1.70634 13.5998C1.15112 13.8975 0.87638 14.3268 0.905 14.9564C0.916447 15.2655 0.905 15.5803 0.910723 15.8894C0.910723 15.9523 0.922171 16.021 0.927895 16.0897C1.01948 16.0783 1.08816 16.0783 1.15112 16.0668C2.6107 15.815 4.07028 15.5631 5.52985 15.317C6.93219 15.0766 8.3288 14.8419 9.73114 14.6072C9.99443 14.5614 10.1146 14.6588 10.1433 14.9278C10.1661 15.1567 10.1948 15.38 10.2119 15.6089C10.2921 16.8853 10.3722 18.156 10.4466 19.4324C10.4638 19.7701 10.3035 20.0048 9.98299 20.1422C9.29613 20.4398 8.61499 20.7604 7.92813 21.0694C7.66484 21.1896 7.43588 21.3614 7.41871 21.6647C7.40154 22.1112 7.42444 22.5748 7.42444 23.0442Z" fill="black"/>
<path d="M7.13149 23.8397C7.00556 23.8397 6.90253 23.8054 6.8224 23.7367C6.71365 23.6451 6.65641 23.502 6.65641 23.3017C6.65069 22.8094 6.65069 22.3 6.65641 21.7906C6.66786 21.1552 6.98267 20.6744 7.56077 20.4054C7.87558 20.2566 8.20184 20.1135 8.51665 19.9704C8.88298 19.8044 9.26075 19.6327 9.6328 19.461C9.65569 19.4495 9.69004 19.4095 9.69576 19.3808C9.62708 18.1846 9.54122 16.9654 9.46681 15.7863L9.43819 15.3971L8.75705 15.5115C8.13316 15.6203 7.50926 15.7233 6.88536 15.8321L5.17394 16.124C3.71436 16.3701 2.26051 16.622 0.800936 16.8681C0.669288 16.891 0.474678 16.9081 0.331582 16.7879C0.188486 16.6677 0.171315 16.4731 0.171315 16.3358C0.171315 16.1469 0.171315 15.958 0.171315 15.7748C0.171315 15.4829 0.171315 15.1796 0.165591 14.8819C0.14842 14.0233 0.531916 13.3823 1.30463 12.9644C2.81572 12.1516 4.80761 11.0756 6.79378 9.99376C7.3261 9.70185 7.86414 9.40421 8.37928 9.11229C8.77995 8.88907 9.19206 8.65439 9.59846 8.43116C9.69004 8.37965 9.71293 8.33958 9.71293 8.23655C9.70721 7.46383 9.70721 6.67967 9.70721 5.9184C9.70721 5.09989 9.70721 4.25277 9.70148 3.42281C9.69576 2.58713 9.91899 1.83731 10.3883 1.12183C10.7203 0.612413 11.1496 0.303326 11.7048 0.171678L11.722 0.165955H12.2715L12.3001 0.177402C13.4277 0.583794 14.2348 1.72856 14.2691 2.95918C14.292 3.91506 14.292 4.89383 14.292 5.83254C14.292 6.22749 14.292 6.62815 14.292 7.0231C14.292 7.10896 14.292 7.19481 14.292 7.28639C14.292 7.6012 14.2977 7.92174 14.2863 8.24227C14.2805 8.35103 14.3034 8.39109 14.4122 8.44833C15.7802 9.19243 17.1425 9.94225 18.5105 10.6921C19.9013 11.4533 21.2922 12.2146 22.6888 12.9759C23.3013 13.3136 23.6619 13.7543 23.7821 14.3324C23.8164 14.5041 23.8164 14.6759 23.8164 14.8418C23.8164 14.8819 23.8164 14.9163 23.8164 14.9563C23.8222 15.3455 23.8164 15.7405 23.8164 16.1183V16.393C23.8164 16.5189 23.7993 16.7021 23.6676 16.8166C23.536 16.931 23.3585 16.9139 23.2383 16.891C22.3683 16.7422 21.4983 16.5991 20.634 16.4502L14.5438 15.3971C14.5324 15.563 14.5152 15.729 14.4981 15.9008C14.4523 16.3987 14.4122 16.9139 14.3779 17.4176C14.355 17.7495 14.3435 18.093 14.3321 18.4192C14.3206 18.7111 14.3092 19.0088 14.292 19.3064C14.2863 19.4266 14.3034 19.4552 14.4236 19.5068C14.8243 19.6785 15.2307 19.8674 15.6199 20.0448C15.8718 20.1593 16.1236 20.2738 16.3755 20.3882C17.0223 20.6744 17.3485 21.1781 17.3371 21.8821C17.3371 22.1397 17.3371 22.3973 17.3371 22.6491C17.3371 22.8724 17.3371 23.0956 17.3371 23.3188C17.3371 23.5192 17.2798 23.6565 17.1768 23.7481C17.068 23.8397 16.9192 23.8683 16.7132 23.834C16.3411 23.771 15.9691 23.7081 15.6028 23.6451C14.458 23.4505 13.2732 23.2501 12.1112 23.0784C11.9052 23.0498 11.6762 23.0899 11.4358 23.1357C11.3614 23.1471 11.2927 23.1643 11.2183 23.1757C10.2224 23.336 9.21496 23.5077 8.24191 23.6737L7.28603 23.834C7.23452 23.834 7.183 23.8397 7.13149 23.8397ZM9.65569 15.0365L9.71293 15.1395C9.71866 15.1452 9.71866 15.1509 9.72438 15.1509C9.73583 15.1738 9.75872 15.2082 9.76445 15.254L9.79879 15.7634C9.87892 16.9482 9.95906 18.1674 10.0335 19.3694C10.0449 19.5182 9.90754 19.6899 9.78162 19.7529C9.40957 19.9303 9.0318 20.102 8.65975 20.268C8.34494 20.4111 8.0244 20.5542 7.70959 20.703C7.24596 20.9205 6.99984 21.2926 6.99412 21.802C6.98267 22.3057 6.98839 22.8151 6.99412 23.3017C6.99412 23.399 7.01129 23.4619 7.04563 23.4905C7.07997 23.5192 7.14866 23.5249 7.24596 23.5077L8.20184 23.3474C9.18062 23.1815 10.188 23.0155 11.184 22.8495C11.2526 22.838 11.3213 22.8266 11.39 22.8094C11.6476 22.7579 11.9109 22.7121 12.1742 22.7464C13.3418 22.9182 14.5267 23.1185 15.6772 23.3131C16.0492 23.3761 16.4155 23.439 16.7876 23.502C16.8849 23.5192 16.9593 23.5134 16.9879 23.4905C17.0165 23.4676 17.0337 23.399 17.0337 23.3074C17.0337 23.0842 17.0337 22.8666 17.0337 22.6434C17.0337 22.3916 17.0337 22.1283 17.0337 21.8707C17.0394 21.304 16.7876 20.9091 16.261 20.6801C16.0091 20.5657 15.7573 20.4512 15.4997 20.3367C15.1105 20.1593 14.7041 19.9761 14.3092 19.8044C14.0688 19.7014 13.9715 19.5411 13.9829 19.2893C14.0001 18.9973 14.0115 18.6997 14.023 18.4078C14.0344 18.0758 14.0459 17.7324 14.0688 17.3947C14.1031 16.8852 14.1489 16.3701 14.189 15.8721C14.2061 15.6489 14.229 15.4257 14.2462 15.2024L14.2577 15.0365L14.4236 15.0536C14.4408 15.0536 14.458 15.0594 14.4752 15.0594C14.5095 15.0651 14.5381 15.0651 14.561 15.0708L20.6912 16.1183C21.5613 16.2671 22.4256 16.4159 23.2956 16.559C23.4272 16.5819 23.4616 16.559 23.4616 16.5533C23.4673 16.5475 23.4959 16.5189 23.4959 16.3816V16.1068C23.4959 15.729 23.4959 15.3341 23.4959 14.9449C23.4959 14.9048 23.4959 14.8647 23.4959 14.8304C23.4959 14.6759 23.4959 14.527 23.4673 14.3897C23.3643 13.9031 23.0723 13.5425 22.5343 13.2506C21.1434 12.4894 19.7525 11.7281 18.3559 10.9668C16.9879 10.217 15.6256 9.4729 14.2577 8.72307C14.0459 8.6086 13.9543 8.45406 13.96 8.21938C13.9715 7.90457 13.9657 7.58976 13.9657 7.28067C13.9657 7.19481 13.9657 7.10323 13.9657 7.01737C13.9657 6.62243 13.9657 6.22176 13.9657 5.82682C13.9657 4.88811 13.9657 3.91506 13.9428 2.95918C13.9142 1.87165 13.2045 0.858538 12.2142 0.486489H11.7621C11.2984 0.600965 10.9378 0.864261 10.6631 1.29355C10.2338 1.95179 10.0277 2.65009 10.0335 3.41709C10.0392 4.24704 10.0392 5.09417 10.0392 5.91268C10.0392 6.67394 10.0392 7.45811 10.0449 8.23083C10.0449 8.45405 9.95906 8.60287 9.76445 8.71163C9.35806 8.93486 8.94594 9.16953 8.551 9.39276C8.03013 9.68468 7.49209 9.98804 6.95977 10.28C4.9736 11.3618 2.98171 12.4378 1.47062 13.2506C0.795212 13.6112 0.474678 14.1435 0.491849 14.8819C0.497573 15.1853 0.497573 15.4886 0.497573 15.7863C0.497573 15.9752 0.497573 16.1583 0.497573 16.3472C0.497573 16.496 0.526192 16.5418 0.543364 16.5475C0.554811 16.559 0.600602 16.5819 0.749421 16.5533C2.209 16.3071 3.66285 16.0553 5.12242 15.8092L6.83385 15.5173C7.45775 15.4085 8.08164 15.3055 8.70554 15.1967L9.65569 15.0365ZM7.25741 23.2387V23.0498C7.25741 22.9067 7.25741 22.7693 7.25169 22.632C7.24596 22.3057 7.24024 21.9737 7.26314 21.6475C7.28031 21.3269 7.48064 21.0923 7.86414 20.9148C8.11599 20.8003 8.37356 20.6859 8.62541 20.5657C9.04897 20.3711 9.48398 20.1707 9.91899 19.9818C10.1823 19.8674 10.2968 19.6899 10.2853 19.4324C10.2109 18.1674 10.1308 16.8795 10.0506 15.6317V15.6088C10.0392 15.4314 10.0163 15.2425 9.99912 15.0651L9.98195 14.9334C9.9705 14.8476 9.95333 14.7903 9.92471 14.7674C9.89609 14.7445 9.83886 14.7445 9.75872 14.756C8.47086 14.9735 7.09714 15.2024 5.55744 15.4657C4.70459 15.6146 3.85173 15.7577 2.99316 15.9065C2.38644 16.0095 1.78543 16.1125 1.17871 16.2156C1.12719 16.227 1.07568 16.227 1.02416 16.2327C1.00127 16.2327 0.972651 16.2385 0.944031 16.2385L0.778041 16.2556L0.766593 16.0896C0.766593 16.0667 0.760869 16.0496 0.760869 16.0267C0.755145 15.9809 0.749421 15.9294 0.749421 15.8779C0.749421 15.7691 0.749421 15.6604 0.749421 15.5459C0.749421 15.3513 0.755145 15.1452 0.743698 14.9449C0.715078 14.2695 1.00699 13.7715 1.63089 13.4338C3.70864 12.3119 5.81501 11.1671 7.85269 10.051L8.65402 9.61027C8.84864 9.50151 9.04897 9.38704 9.23786 9.27829C9.46108 9.14664 9.69004 9.01499 9.92471 8.88907C10.1823 8.75169 10.291 8.56281 10.291 8.25944C10.291 7.53252 10.291 6.79987 10.291 6.08439C10.291 5.20292 10.291 4.29283 10.2853 3.39992C10.2796 2.6272 10.4971 1.94606 10.9436 1.32217C11.2183 0.944395 11.5846 0.732613 11.9738 0.726889C11.9796 0.726889 11.9853 0.726889 11.991 0.726889C12.3745 0.726889 12.7408 0.927223 13.0156 1.28782C13.4792 1.90027 13.7139 2.61575 13.7139 3.42854C13.7139 3.96085 13.7139 4.49317 13.7139 5.02548C13.7139 6.05577 13.7139 7.12613 13.7024 8.17359C13.6967 8.55136 13.8284 8.76886 14.1718 8.95203C15.4883 9.66751 16.8276 10.4002 18.1212 11.1099C19.5064 11.8712 20.9374 12.6553 22.3454 13.4223C22.9865 13.7715 23.2898 14.2809 23.2612 14.9849C23.2498 15.2253 23.2555 15.4657 23.2555 15.7176C23.2555 15.8378 23.2555 15.958 23.2555 16.0782V16.2728L22.6259 16.1698C22.2939 16.1125 21.9734 16.061 21.6528 16.0038L19.329 15.6088C17.6404 15.3226 15.9519 15.0307 14.2634 14.7445C14.1088 14.7159 14.063 14.7388 14.0459 14.7503C14.0344 14.7617 14.0001 14.8018 13.9886 14.9563C13.8856 16.496 13.794 17.8869 13.7082 19.3007C13.6853 19.7185 13.754 19.8273 14.1489 20.0105C14.3321 20.0906 14.5095 20.1764 14.6927 20.2566C15.1448 20.4626 15.6142 20.6744 16.0778 20.8748C16.5415 21.0751 16.759 21.4071 16.7418 21.8936C16.7303 22.1454 16.7361 22.3973 16.7361 22.6606C16.7361 22.7808 16.7361 22.901 16.7361 23.0269V23.2158L16.0836 23.107C15.7401 23.0498 15.4081 22.9983 15.0762 22.9411C14.79 22.8953 14.4981 22.838 14.2119 22.7922C13.5536 22.672 12.8782 22.5518 12.2028 22.4774C11.8651 22.4431 11.493 22.506 11.1382 22.569C11.0409 22.5862 10.9436 22.6034 10.852 22.6148C10.0392 22.7407 9.21496 22.8781 8.41935 23.0155C8.08737 23.0727 7.76111 23.1242 7.42913 23.1815L7.25741 23.2387ZM9.8503 14.424C9.96478 14.424 10.0564 14.4526 10.1308 14.5099C10.2338 14.59 10.2968 14.7159 10.3139 14.8991L10.3311 15.0307C10.354 15.2139 10.3712 15.4028 10.3883 15.5917V15.6146C10.4685 16.8624 10.5486 18.1502 10.623 19.4152C10.6459 19.8158 10.4513 20.1135 10.0621 20.2852C9.6328 20.4741 9.19206 20.6744 8.77422 20.8633C8.52238 20.9778 8.2648 21.098 8.01296 21.2125C7.74394 21.3327 7.61229 21.4758 7.60084 21.6646C7.58367 21.9795 7.58367 22.2943 7.58939 22.6262C7.58939 22.7064 7.58939 22.7808 7.58939 22.8609C7.85841 22.8151 8.12743 22.7693 8.39645 22.7236C9.19779 22.5919 10.022 22.4488 10.8348 22.3229C10.9264 22.3057 11.0237 22.2943 11.1153 22.2771C11.493 22.2084 11.888 22.1397 12.2715 22.1855C12.9526 22.2599 13.6395 22.3801 14.3034 22.5003C14.5839 22.5518 14.8758 22.6034 15.162 22.6491C15.494 22.7064 15.826 22.7579 16.1694 22.8151L16.4442 22.8609C16.4442 22.8037 16.4442 22.7464 16.4442 22.6892C16.4442 22.4202 16.4384 22.1626 16.4499 21.905C16.4613 21.5559 16.324 21.3441 15.9805 21.1953C15.5169 20.995 15.0418 20.7775 14.5896 20.5714C14.4065 20.4913 14.229 20.4054 14.0459 20.3253C13.5307 20.0906 13.3819 19.8559 13.4162 19.3007C13.5021 17.8869 13.5937 16.496 13.6967 14.9563C13.7082 14.8075 13.7368 14.6243 13.8742 14.5156C14.0115 14.4068 14.2004 14.4183 14.3435 14.4469C16.032 14.7331 17.7206 15.0193 19.4091 15.3112L21.733 15.7061C22.0535 15.7634 22.374 15.8149 22.7003 15.8721L22.9521 15.9122C22.9521 15.855 22.9521 15.8034 22.9521 15.7462C22.9521 15.4886 22.9464 15.2425 22.9579 14.9964C22.9808 14.4126 22.7518 14.0233 22.2138 13.7314C20.8 12.9644 19.369 12.1803 17.9839 11.419C16.6903 10.7092 15.3566 9.97659 14.0344 9.26111C13.588 9.02071 13.3934 8.68873 13.3991 8.19076C13.4105 7.1433 13.4105 6.07867 13.4105 5.04838C13.4105 4.51606 13.4105 3.98375 13.4105 3.45143C13.4105 2.70733 13.2045 2.07199 12.7809 1.51105C12.5691 1.23059 12.2944 1.08177 12.0139 1.08177C12.0082 1.08177 12.0082 1.08177 12.0025 1.08177C11.7163 1.08749 11.4415 1.24776 11.2297 1.5454C10.8234 2.11206 10.6287 2.73023 10.6287 3.43426C10.6345 4.32718 10.6345 5.23726 10.6345 6.11873C10.6345 6.82849 10.6345 7.56686 10.6345 8.29379C10.6345 8.71735 10.4628 9.02071 10.0964 9.21532C9.86748 9.33552 9.64425 9.46717 9.42102 9.59882C9.22641 9.7133 9.02607 9.82777 8.82574 9.93653L8.0244 10.3773C5.98672 11.4877 3.88035 12.6382 1.80261 13.76C1.28174 14.0405 1.05851 14.4126 1.08713 14.9678C1.09857 15.1738 1.09285 15.3799 1.09285 15.5859C1.09285 15.6947 1.09285 15.8034 1.09285 15.9122C1.09285 15.9179 1.09285 15.9294 1.09285 15.9351C1.11002 15.9351 1.12719 15.9294 1.14437 15.9294C1.75109 15.8263 2.35209 15.7233 2.95882 15.6203C3.81167 15.4715 4.66452 15.3284 5.52309 15.1796C7.0628 14.9163 8.43652 14.6816 9.72438 14.4698C9.75872 14.4297 9.80451 14.424 9.8503 14.424Z" fill="black"/>
<path d="M7.13246 23.8397C7.00654 23.8397 6.90351 23.8054 6.82338 23.7367C6.71462 23.6451 6.65739 23.502 6.65739 23.3017C6.65166 22.8094 6.65166 22.3 6.65739 21.7906C6.66883 21.1552 6.98364 20.6744 7.56175 20.4054C7.87656 20.2566 8.20282 20.1135 8.51763 19.9704C8.88395 19.8044 9.26173 19.6327 9.63378 19.461C9.65667 19.4495 9.69101 19.4095 9.69674 19.3808C9.62805 18.1846 9.54219 16.9654 9.46778 15.7863L9.43917 15.3971L8.75803 15.5115C8.13413 15.6203 7.51024 15.7233 6.88634 15.8321L5.17492 16.124C3.71534 16.3701 2.26149 16.622 0.801912 16.8681C0.670264 16.891 0.475654 16.9081 0.332559 16.7879C0.189463 16.6677 0.172292 16.4731 0.172292 16.3358C0.172292 16.1469 0.172292 15.958 0.172292 15.7748C0.172292 15.4829 0.172292 15.1796 0.166568 14.8819C0.149396 14.0233 0.532893 13.3823 1.30561 12.9644C2.8167 12.1516 4.80859 11.0756 6.79476 9.99376C7.32707 9.70185 7.86511 9.40421 8.38026 9.11229C8.78093 8.88907 9.19304 8.65439 9.59943 8.43116C9.69101 8.37965 9.71391 8.33958 9.71391 8.23655C9.70819 7.46383 9.70819 6.67967 9.70819 5.9184C9.70819 5.09989 9.70818 4.25277 9.70246 3.42281C9.69674 2.58713 9.91997 1.83731 10.3893 1.12183C10.7213 0.612413 11.1506 0.303326 11.7058 0.171678L11.723 0.165955H12.2725L12.3011 0.177402C13.4287 0.583794 14.2357 1.72856 14.2701 2.95918C14.293 3.91506 14.293 4.89383 14.293 5.83254C14.293 6.22749 14.293 6.62815 14.293 7.0231C14.293 7.10896 14.293 7.19481 14.293 7.28639C14.293 7.6012 14.2987 7.92174 14.2872 8.24227C14.2815 8.35103 14.3044 8.39109 14.4132 8.44833C15.7812 9.19243 17.1434 9.94225 18.5114 10.6921C19.9023 11.4533 21.2932 12.2146 22.6898 12.9759C23.3023 13.3136 23.6629 13.7543 23.7831 14.3324C23.8174 14.5041 23.8174 14.6759 23.8174 14.8418C23.8174 14.8819 23.8174 14.9163 23.8174 14.9563C23.8231 15.3455 23.8174 15.7405 23.8174 16.1183V16.393C23.8174 16.5189 23.8002 16.7021 23.6686 16.8166C23.5369 16.931 23.3595 16.9139 23.2393 16.891C22.3693 16.7422 21.4993 16.5991 20.635 16.4502L14.5448 15.3971C14.5334 15.563 14.5162 15.729 14.499 15.9008C14.4532 16.3987 14.4132 16.9139 14.3788 17.4176C14.3559 17.7495 14.3445 18.093 14.333 18.4192C14.3216 18.7111 14.3101 19.0088 14.293 19.3064C14.2872 19.4266 14.3044 19.4552 14.4246 19.5068C14.8253 19.6785 15.2317 19.8674 15.6209 20.0448C15.8727 20.1593 16.1246 20.2738 16.3764 20.3882C17.0232 20.6744 17.3495 21.1781 17.338 21.8821C17.338 22.1397 17.338 22.3973 17.338 22.6491C17.338 22.8724 17.338 23.0956 17.338 23.3188C17.338 23.5192 17.2808 23.6565 17.1778 23.7481C17.069 23.8397 16.9202 23.8683 16.7141 23.834C16.3421 23.771 15.9701 23.7081 15.6037 23.6451C14.459 23.4505 13.2741 23.2501 12.1122 23.0784C11.9061 23.0498 11.6772 23.0899 11.4368 23.1357C11.3624 23.1471 11.2937 23.1643 11.2193 23.1757C10.2233 23.336 9.21594 23.5077 8.24289 23.6737L7.28701 23.834C7.23549 23.834 7.18398 23.8397 7.13246 23.8397ZM9.65667 15.0365L9.71391 15.1395C9.71963 15.1452 9.71963 15.1509 9.72536 15.1509C9.7368 15.1738 9.7597 15.2082 9.76542 15.254L9.79977 15.7634C9.8799 16.9482 9.96003 18.1674 10.0344 19.3694C10.0459 19.5182 9.90852 19.6899 9.7826 19.7529C9.41055 19.9303 9.03277 20.102 8.66072 20.268C8.34591 20.4111 8.02538 20.5542 7.71057 20.703C7.24694 20.9205 7.00082 21.2926 6.99509 21.802C6.98364 22.3057 6.98937 22.8151 6.99509 23.3017C6.99509 23.399 7.01226 23.4619 7.04661 23.4905C7.08095 23.5192 7.14964 23.5249 7.24694 23.5077L8.20282 23.3474C9.18159 23.1815 10.189 23.0155 11.1849 22.8495C11.2536 22.838 11.3223 22.8266 11.391 22.8094C11.6486 22.7579 11.9119 22.7121 12.1752 22.7464C13.3428 22.9182 14.5276 23.1185 15.6781 23.3131C16.0502 23.3761 16.4165 23.439 16.7886 23.502C16.8859 23.5192 16.9603 23.5134 16.9889 23.4905C17.0175 23.4676 17.0347 23.399 17.0347 23.3074C17.0347 23.0842 17.0347 22.8666 17.0347 22.6434C17.0347 22.3916 17.0347 22.1283 17.0347 21.8707C17.0404 21.304 16.7886 20.9091 16.262 20.6801C16.0101 20.5657 15.7583 20.4512 15.5007 20.3367C15.1115 20.1593 14.7051 19.9761 14.3101 19.8044C14.0697 19.7014 13.9724 19.5411 13.9839 19.2893C14.0011 18.9973 14.0125 18.6997 14.0239 18.4078C14.0354 18.0758 14.0468 17.7324 14.0697 17.3947C14.1041 16.8852 14.1499 16.3701 14.1899 15.8721C14.2071 15.6489 14.23 15.4257 14.2472 15.2024L14.2586 15.0365L14.4246 15.0536C14.4418 15.0536 14.459 15.0594 14.4761 15.0594C14.5105 15.0651 14.5391 15.0651 14.562 15.0708L20.6922 16.1183C21.5622 16.2671 22.4265 16.4159 23.2965 16.559C23.4282 16.5819 23.4625 16.559 23.4625 16.5533C23.4683 16.5475 23.4969 16.5189 23.4969 16.3816V16.1068C23.4969 15.729 23.4969 15.3341 23.4969 14.9449C23.4969 14.9048 23.4969 14.8647 23.4969 14.8304C23.4969 14.6759 23.4969 14.527 23.4683 14.3897C23.3652 13.9031 23.0733 13.5425 22.5353 13.2506C21.1444 12.4894 19.7535 11.7281 18.3569 10.9668C16.9889 10.217 15.6266 9.4729 14.2586 8.72307C14.0468 8.6086 13.9553 8.45406 13.961 8.21938C13.9724 7.90457 13.9667 7.58976 13.9667 7.28067C13.9667 7.19481 13.9667 7.10323 13.9667 7.01737C13.9667 6.62243 13.9667 6.22176 13.9667 5.82682C13.9667 4.88811 13.9667 3.91506 13.9438 2.95918C13.9152 1.87165 13.2054 0.858538 12.2152 0.486489H11.763C11.2994 0.600965 10.9388 0.864261 10.6641 1.29355C10.2348 1.95179 10.0287 2.65009 10.0344 3.41709C10.0402 4.24704 10.0402 5.09417 10.0402 5.91268C10.0402 6.67394 10.0402 7.45811 10.0459 8.23083C10.0459 8.45405 9.96003 8.60287 9.76542 8.71163C9.35903 8.93486 8.94692 9.16953 8.55197 9.39276C8.0311 9.68468 7.49306 9.98804 6.96075 10.28C4.97458 11.3618 2.98269 12.4378 1.4716 13.2506C0.796189 13.6112 0.475654 14.1435 0.492826 14.8819C0.49855 15.1853 0.49855 15.4886 0.49855 15.7863C0.49855 15.9752 0.49855 16.1583 0.49855 16.3472C0.49855 16.496 0.527169 16.5418 0.54434 16.5475C0.555788 16.559 0.601578 16.5819 0.750398 16.5533C2.20997 16.3071 3.66383 16.0553 5.1234 15.8092L6.83483 15.5173C7.45872 15.4085 8.08262 15.3055 8.70652 15.1967L9.65667 15.0365ZM7.25839 23.2387V23.0498C7.25839 22.9067 7.25839 22.7693 7.25266 22.632C7.24694 22.3057 7.24122 21.9737 7.26411 21.6475C7.28128 21.3269 7.48162 21.0923 7.86511 20.9148C8.11696 20.8003 8.37453 20.6859 8.62638 20.5657C9.04995 20.3711 9.48496 20.1707 9.91997 19.9818C10.1833 19.8674 10.2977 19.6899 10.2863 19.4324C10.2119 18.1674 10.1317 16.8795 10.0516 15.6317V15.6088C10.0402 15.4314 10.0173 15.2425 10.0001 15.0651L9.98293 14.9334C9.97148 14.8476 9.95431 14.7903 9.92569 14.7674C9.89707 14.7445 9.83983 14.7445 9.7597 14.756C8.47184 14.9735 7.09812 15.2024 5.55841 15.4657C4.70556 15.6146 3.85271 15.7577 2.99414 15.9065C2.38741 16.0095 1.78641 16.1125 1.17968 16.2156C1.12817 16.227 1.07666 16.227 1.02514 16.2327C1.00225 16.2327 0.973627 16.2385 0.945008 16.2385L0.779017 16.2556L0.767569 16.0896C0.767569 16.0667 0.761846 16.0496 0.761846 16.0267C0.756122 15.9809 0.750398 15.9294 0.750398 15.8779C0.750398 15.7691 0.750398 15.6604 0.750398 15.5459C0.750398 15.3513 0.756122 15.1452 0.744674 14.9449C0.716055 14.2695 1.00797 13.7715 1.63187 13.4338C3.70962 12.3119 5.81598 11.1671 7.85367 10.051L8.655 9.61027C8.84961 9.50151 9.04995 9.38704 9.23883 9.27829C9.46206 9.14664 9.69101 9.01499 9.92569 8.88907C10.1833 8.75169 10.292 8.56281 10.292 8.25944C10.292 7.53252 10.292 6.79987 10.292 6.08439C10.292 5.20292 10.292 4.29283 10.2863 3.39992C10.2806 2.6272 10.4981 1.94606 10.9445 1.32217C11.2193 0.944395 11.5856 0.732613 11.9748 0.726889C11.9805 0.726889 11.9863 0.726889 11.992 0.726889C12.3755 0.726889 12.7418 0.927223 13.0166 1.28782C13.4802 1.90027 13.7149 2.61575 13.7149 3.42854C13.7149 3.96085 13.7149 4.49317 13.7149 5.02548C13.7149 6.05577 13.7149 7.12613 13.7034 8.17359C13.6977 8.55136 13.8293 8.76886 14.1728 8.95203C15.4892 9.66751 16.8286 10.4002 18.1222 11.1099C19.5074 11.8712 20.9383 12.6553 22.3464 13.4223C22.9875 13.7715 23.2908 14.2809 23.2622 14.9849C23.2508 15.2253 23.2565 15.4657 23.2565 15.7176C23.2565 15.8378 23.2565 15.958 23.2565 16.0782V16.2728L22.6269 16.1698C22.2949 16.1125 21.9743 16.061 21.6538 16.0038L19.3299 15.6088C17.6414 15.3226 15.9529 15.0307 14.2644 14.7445C14.1098 14.7159 14.064 14.7388 14.0468 14.7503C14.0354 14.7617 14.0011 14.8018 13.9896 14.9563C13.8866 16.496 13.795 17.8869 13.7091 19.3007C13.6862 19.7185 13.7549 19.8273 14.1499 20.0105C14.333 20.0906 14.5105 20.1764 14.6936 20.2566C15.1458 20.4626 15.6152 20.6744 16.0788 20.8748C16.5424 21.0751 16.7599 21.4071 16.7428 21.8936C16.7313 22.1454 16.737 22.3973 16.737 22.6606C16.737 22.7808 16.737 22.901 16.737 23.0269V23.2158L16.0845 23.107C15.7411 23.0498 15.4091 22.9983 15.0771 22.9411C14.7909 22.8953 14.499 22.838 14.2128 22.7922C13.5546 22.672 12.8792 22.5518 12.2038 22.4774C11.8661 22.4431 11.494 22.506 11.1391 22.569C11.0418 22.5862 10.9445 22.6034 10.853 22.6148C10.0402 22.7407 9.21594 22.8781 8.42032 23.0155C8.08834 23.0727 7.76208 23.1242 7.4301 23.1815L7.25839 23.2387ZM9.85128 14.424C9.96576 14.424 10.0573 14.4526 10.1317 14.5099C10.2348 14.59 10.2977 14.7159 10.3149 14.8991L10.3321 15.0307C10.355 15.2139 10.3721 15.4028 10.3893 15.5917V15.6146C10.4695 16.8624 10.5496 18.1502 10.624 19.4152C10.6469 19.8158 10.4523 20.1135 10.0631 20.2852C9.63378 20.4741 9.19304 20.6744 8.7752 20.8633C8.52335 20.9778 8.26578 21.098 8.01393 21.2125C7.74491 21.3327 7.61326 21.4758 7.60182 21.6646C7.58465 21.9795 7.58465 22.2943 7.59037 22.6262C7.59037 22.7064 7.59037 22.7808 7.59037 22.8609C7.85939 22.8151 8.12841 22.7693 8.39743 22.7236C9.19876 22.5919 10.023 22.4488 10.8358 22.3229C10.9274 22.3057 11.0247 22.2943 11.1162 22.2771C11.494 22.2084 11.889 22.1397 12.2725 22.1855C12.9536 22.2599 13.6405 22.3801 14.3044 22.5003C14.5849 22.5518 14.8768 22.6034 15.163 22.6491C15.495 22.7064 15.827 22.7579 16.1704 22.8151L16.4451 22.8609C16.4451 22.8037 16.4451 22.7464 16.4451 22.6892C16.4451 22.4202 16.4394 22.1626 16.4509 21.905C16.4623 21.5559 16.3249 21.3441 15.9815 21.1953C15.5179 20.995 15.0428 20.7775 14.5906 20.5714C14.4074 20.4913 14.23 20.4054 14.0468 20.3253C13.5317 20.0906 13.3829 19.8559 13.4172 19.3007C13.5031 17.8869 13.5947 16.496 13.6977 14.9563C13.7091 14.8075 13.7378 14.6243 13.8751 14.5156C14.0125 14.4068 14.2014 14.4183 14.3445 14.4469C16.033 14.7331 17.7215 15.0193 19.4101 15.3112L21.7339 15.7061C22.0545 15.7634 22.375 15.8149 22.7013 15.8721L22.9531 15.9122C22.9531 15.855 22.9531 15.8034 22.9531 15.7462C22.9531 15.4886 22.9474 15.2425 22.9588 14.9964C22.9817 14.4126 22.7528 14.0233 22.2147 13.7314C20.801 12.9644 19.37 12.1803 17.9848 11.419C16.6913 10.7092 15.3576 9.97659 14.0354 9.26111C13.5889 9.02071 13.3943 8.68873 13.4001 8.19076C13.4115 7.1433 13.4115 6.07867 13.4115 5.04838C13.4115 4.51606 13.4115 3.98375 13.4115 3.45143C13.4115 2.70733 13.2054 2.07199 12.7819 1.51105C12.5701 1.23059 12.2954 1.08177 12.0149 1.08177C12.0092 1.08177 12.0092 1.08177 12.0034 1.08177C11.7172 1.08749 11.4425 1.24776 11.2307 1.5454C10.8243 2.11206 10.6297 2.73023 10.6297 3.43426C10.6354 4.32718 10.6354 5.23726 10.6354 6.11873C10.6354 6.82849 10.6354 7.56686 10.6354 8.29379C10.6354 8.71735 10.4637 9.02071 10.0974 9.21532C9.86845 9.33552 9.64522 9.46717 9.42199 9.59882C9.22738 9.7133 9.02705 9.82777 8.82672 9.93653L8.02538 10.3773C5.9877 11.4877 3.88133 12.6382 1.80358 13.76C1.28271 14.0405 1.05948 14.4126 1.0881 14.9678C1.09955 15.1738 1.09383 15.3799 1.09383 15.5859C1.09383 15.6947 1.09383 15.8034 1.09383 15.9122C1.09383 15.9179 1.09383 15.9294 1.09383 15.9351C1.111 15.9351 1.12817 15.9294 1.14534 15.9294C1.75207 15.8263 2.35307 15.7233 2.95979 15.6203C3.81264 15.4715 4.6655 15.3284 5.52407 15.1796C7.06378 14.9163 8.4375 14.6816 9.72536 14.4698C9.7597 14.4297 9.80549 14.424 9.85128 14.424Z" fill="black"/>
</svg>
