<svg width="54" height="54" viewBox="0 0 54 54" fill="none" xmlns="http://www.w3.org/2000/svg">
<rect width="53.823" height="53.823" rx="16.0016" fill="#DBE8FF"/>
<path fill-rule="evenodd" clip-rule="evenodd" d="M32.7751 16.5348C33.3712 16.5842 33.7713 16.8887 33.9308 17.4181L33.9392 17.4703V17.8461L33.9252 17.8955C33.8189 18.2384 33.5838 18.4579 33.374 18.6389C33.2108 18.7788 33.0467 18.9193 32.8826 19.0597C32.5542 19.3408 32.2258 19.6219 31.9048 19.8981L31.8908 19.9091C31.4711 20.2712 31.0346 20.6443 30.6008 21.0147C30.6828 21.3672 30.7648 21.7203 30.8463 22.0712C30.9456 22.4985 31.0441 22.9225 31.1409 23.3383L31.1605 23.4179C31.2108 23.6343 31.2611 23.85 31.3114 24.0658C31.3618 24.2821 31.4123 24.4985 31.4627 24.7155C31.5746 25.1983 31.4291 25.6181 31.0513 25.8951C30.8471 26.0433 30.626 26.1174 30.3909 26.1174C30.1811 26.1174 29.9684 26.0543 29.7613 25.9335L29.0253 25.5028C28.8509 25.4005 28.6751 25.2975 28.4983 25.194C27.8216 24.7975 27.1303 24.3925 26.4425 23.9858C25.4299 24.5854 24.4053 25.1851 23.3618 25.7958L23.1265 25.9335C22.5836 26.249 21.9763 26.153 21.6153 25.6921C21.3999 25.4178 21.3299 25.0941 21.4139 24.7374L21.5902 23.9748C21.6635 23.6604 21.7372 23.3429 21.8112 23.0238C21.966 22.3568 22.1224 21.6826 22.2814 21.0147C21.5816 20.4181 20.8768 19.8114 20.1939 19.2236L20.1042 19.1465C19.858 18.9325 19.6089 18.7185 19.3599 18.5045C18.9849 18.1808 18.8562 17.7611 18.9989 17.3194C19.1444 16.875 19.4886 16.6034 19.9727 16.5595C20.2414 16.532 20.5044 16.5073 20.7535 16.4854L21.0921 16.4552C22.0015 16.3729 22.9418 16.2906 23.868 16.2111C23.9929 15.924 24.1178 15.6377 24.2417 15.3536C24.3676 15.0649 24.4924 14.7786 24.6152 14.4965C24.6847 14.3366 24.7549 14.1754 24.8255 14.0135C25.0104 13.5892 25.1976 13.1594 25.3819 12.7325C25.5862 12.2606 25.964 12 26.4453 12C26.9266 12 27.3044 12.2606 27.5114 12.738C27.6955 13.1661 27.8813 13.5926 28.0637 14.0114C28.1197 14.14 28.1754 14.2679 28.2306 14.395C28.4337 14.8594 28.6401 15.3355 28.8459 15.8103C28.904 15.9441 28.9619 16.0778 29.0198 16.2111C29.2882 16.2341 29.5586 16.2581 29.8268 16.2819C30.006 16.2978 30.1842 16.3136 30.3602 16.329H30.3686C30.5633 16.346 30.7595 16.3632 30.9567 16.3805C31.5588 16.4335 32.1702 16.4873 32.7751 16.5348ZM28.9778 21.1381C28.8714 20.6855 29.003 20.285 29.3584 19.9804C30.0607 19.3796 30.7911 18.7514 31.4375 18.1945L31.6306 18.0299L31.4067 18.0107C31.146 17.9877 30.8826 17.9642 30.6179 17.9406C29.9677 17.8826 29.309 17.8239 28.6588 17.7693C28.1691 17.7281 27.8081 17.4703 27.615 17.0258C27.2596 16.2028 26.8958 15.3661 26.5432 14.5596L26.4453 14.3373C26.4341 14.3593 26.4257 14.3785 26.4173 14.4004C26.3697 14.5115 26.3215 14.622 26.2732 14.7324C26.2249 14.8428 26.1766 14.9532 26.1291 15.0643L26.1179 15.089C25.9962 15.3697 25.8724 15.6541 25.7481 15.9397C25.5893 16.3044 25.4297 16.6709 25.2728 17.0341C25.0377 17.5827 24.618 17.7336 24.3101 17.7611C23.521 17.8324 22.7179 17.9037 21.94 17.9723H21.9344L21.2684 18.0299L21.3019 18.0601C22.0295 18.6883 22.7851 19.3385 23.5294 19.975C23.8876 20.2795 24.0191 20.6745 23.9184 21.1189C23.7925 21.6704 23.6637 22.2245 23.535 22.7759C23.5014 22.9227 23.4671 23.0702 23.4329 23.2176C23.3986 23.3651 23.3643 23.5125 23.3307 23.6593C23.3055 23.7773 23.2776 23.898 23.2496 24.0159L23.5014 23.8678C23.66 23.7749 23.8198 23.6813 23.9805 23.5873C24.5741 23.2399 25.1791 22.8859 25.7737 22.5318C26.2214 22.2657 26.6719 22.2657 27.1169 22.529C27.7974 22.9348 28.4918 23.3406 29.1686 23.7361C29.2377 23.7765 29.3065 23.8167 29.3751 23.8568L29.6466 24.0159L29.6158 23.887C29.5022 23.3993 29.3804 22.8739 29.2566 22.3401C29.1639 21.9401 29.0701 21.5353 28.9778 21.1381ZM25.9887 33.3005C25.8292 32.771 25.429 32.4665 24.8329 32.4171C24.228 32.3696 23.6167 32.3158 23.0146 32.2629C22.8174 32.2455 22.6211 32.2283 22.4264 32.2114H22.418C22.2419 32.196 22.0635 32.1801 21.8842 32.1642L21.8815 32.164C21.6143 32.1402 21.3449 32.1163 21.0776 32.0934L20.9037 31.6925C20.6979 31.2177 20.4915 30.7417 20.2884 30.2773L20.1215 29.8939C19.9392 29.475 19.7534 29.0485 19.5693 28.6203C19.3622 28.1429 18.9844 27.8823 18.5031 27.8823C18.0218 27.8823 17.644 28.1429 17.4397 28.6148C17.2555 29.0415 17.0683 29.4711 16.8835 29.8953L16.8834 29.8956L16.673 30.3788C16.5502 30.661 16.4254 30.9473 16.2994 31.2361C16.1756 31.5201 16.0507 31.8064 15.9258 32.0934C14.9996 32.173 14.0593 32.2552 13.1499 32.3376L12.8113 32.3677C12.5622 32.3897 12.2992 32.4144 12.0305 32.4418C11.5464 32.4857 11.2022 32.7573 11.0567 33.2017C10.914 33.6434 11.0427 34.0631 11.4177 34.3868L11.4177 34.3868C11.6668 34.6008 11.9158 34.8148 12.1621 35.0288L12.2513 35.1056L12.2519 35.1061C12.9348 35.6939 13.6396 36.3005 14.3392 36.897C14.1802 37.5649 14.0238 38.2391 13.8691 38.9059L13.8691 38.906C13.795 39.2252 13.7214 39.5427 13.648 39.8571L13.4717 40.6198C13.3877 40.9764 13.4577 41.3001 13.6732 41.5745C14.0342 42.0353 14.6414 42.1314 15.1843 41.8159L15.4197 41.6781L15.4204 41.6777C16.4637 41.0671 17.488 40.4676 18.5003 39.8681C19.1881 40.2748 19.8794 40.6798 20.556 41.0763L20.5562 41.0763L21.0832 41.3852L21.8191 41.8159C22.0262 41.9366 22.2389 41.9997 22.4488 41.9997C22.6838 41.9997 22.9049 41.9256 23.1092 41.7775C23.4869 41.5004 23.6325 41.0807 23.5205 40.5978C23.4702 40.3812 23.4199 40.1654 23.3695 39.9495C23.3191 39.7333 23.2687 39.5171 23.2183 39.3002L23.1987 39.2207C23.102 38.8052 23.0036 38.3815 22.9044 37.9545L22.9043 37.9541L22.6586 36.897C23.0924 36.5267 23.5289 36.1536 23.9487 35.7914L23.9627 35.7805C24.2833 35.5045 24.6114 35.2237 24.9394 34.9429L24.9401 34.9423C25.1043 34.8018 25.2685 34.6612 25.4318 34.5213C25.6417 34.3402 25.8767 34.1207 25.9831 33.7778L25.9971 33.7284V33.3526L25.9887 33.3005ZM21.4162 35.8628C21.0608 36.1673 20.9293 36.5678 21.0356 37.0205C21.1279 37.4178 21.2218 37.8226 21.3145 38.2227L21.3147 38.2234C21.4384 38.7569 21.5601 39.2819 21.6736 39.7693L21.7044 39.8983L21.433 39.7391L21.2264 39.6184C20.5496 39.2229 19.8552 38.8171 19.1747 38.4114C18.7298 38.148 18.2792 38.148 17.8315 38.4141C17.2368 38.7682 16.6317 39.1224 16.038 39.4698L15.5593 39.7501L15.3074 39.8983C15.3354 39.7803 15.3634 39.6596 15.3886 39.5416C15.4221 39.395 15.4564 39.2477 15.4906 39.1003L15.4907 39.1C15.525 38.9525 15.5593 38.805 15.5928 38.6583C15.7216 38.1068 15.8503 37.5527 15.9762 37.0013C16.0769 36.5568 15.9454 36.1618 15.5872 35.8573C14.8429 35.2208 14.0873 34.5707 13.3598 33.9424L13.3262 33.9122L13.9922 33.8546H13.9978C14.7757 33.786 15.5788 33.7147 16.368 33.6434C16.6758 33.616 17.0955 33.4651 17.3306 32.9164C17.4875 32.5534 17.647 32.187 17.8057 31.8224L17.8059 31.822L17.8062 31.8214C17.9304 31.5361 18.0541 31.2519 18.1757 30.9714L18.1869 30.9467C18.2345 30.8356 18.2827 30.7252 18.331 30.6148C18.3793 30.5043 18.4275 30.3939 18.4751 30.2828C18.4835 30.2608 18.4919 30.2416 18.5031 30.2197L18.601 30.4419C18.9536 31.2484 19.3174 32.0852 19.6728 32.9082C19.8659 33.3526 20.2269 33.6105 20.7166 33.6516C21.3667 33.7062 22.0253 33.7649 22.6753 33.8229L22.6822 33.8235C22.9448 33.8469 23.2059 33.8702 23.4646 33.893L23.6884 33.9122L23.4953 34.0768C22.8489 34.6337 22.1186 35.262 21.4162 35.8628ZM42.7563 33.3005C42.5968 32.771 42.1966 32.4665 41.6006 32.4171C40.9957 32.3696 40.3846 32.3159 39.7826 32.2629L39.7822 32.2629L39.7797 32.2627C39.5833 32.2454 39.3879 32.2282 39.194 32.2114H39.1856C39.0097 32.196 38.8314 32.1802 38.6522 32.1642L38.6499 32.164C38.3824 32.1403 38.1128 32.1164 37.8452 32.0934L37.6713 31.6924L37.671 31.6918C37.4653 31.2173 37.259 30.7414 37.0561 30.2773L36.8892 29.8939L36.889 29.8934C36.7067 29.4747 36.521 29.0483 36.3369 28.6203C36.1298 28.143 35.7521 27.8823 35.2707 27.8823C34.7894 27.8823 34.4117 28.143 34.2074 28.6148C34.0234 29.0409 33.8365 29.4699 33.652 29.8934L33.6512 29.8952L33.4406 30.3788C33.3179 30.6609 33.193 30.9472 33.0671 31.2359L33.0668 31.2367C32.943 31.5205 32.8183 31.8066 32.6935 32.0934C31.7672 32.173 30.827 32.2553 29.9175 32.3376L29.5789 32.3677C29.3299 32.3897 29.0668 32.4144 28.7982 32.4418C28.3141 32.4857 27.9699 32.7573 27.8244 33.2017C27.6817 33.6434 27.8104 34.0631 28.1854 34.3869C28.4344 34.6008 28.6835 34.8148 28.9297 35.0288L29.0203 35.1068L29.0207 35.1071C29.7032 35.6945 30.4076 36.3008 31.1068 36.897C30.9479 37.5649 30.7915 38.239 30.6368 38.9058C30.5627 39.2251 30.489 39.5427 30.4156 39.8571L30.2393 40.6198C30.1554 40.9764 30.2253 41.3001 30.4408 41.5745C30.8018 42.0353 31.409 42.1314 31.9519 41.8159L32.1882 41.6776L32.1884 41.6775C33.2315 41.067 34.2558 40.4676 35.2679 39.8681C35.9556 40.2748 36.6468 40.6797 37.3233 41.0761L37.3236 41.0762L37.8508 41.3852L38.5868 41.8159C38.7939 41.9366 39.0065 41.9997 39.2164 41.9997C39.4515 41.9997 39.6725 41.9256 39.8768 41.7775C40.2546 41.5004 40.4001 41.0807 40.2882 40.5978C40.2377 40.3808 40.1873 40.1645 40.1368 39.9481L40.1356 39.9426C40.0857 39.7287 40.0358 39.5148 39.9859 39.3002L39.9664 39.2207C39.8704 38.8086 39.7728 38.3884 39.6745 37.965L39.6722 37.9553L39.4263 36.897C39.86 36.5267 40.2966 36.1536 40.7163 35.7915L40.7303 35.7805C41.0508 35.5046 41.3787 35.2239 41.7067 34.9432L41.7083 34.9418C41.8723 34.8014 42.0363 34.6611 42.1994 34.5213C42.4093 34.3402 42.6444 34.1207 42.7507 33.7778L42.7647 33.7284V33.3526L42.7563 33.3005ZM38.1838 35.8628C37.8284 36.1673 37.6969 36.5678 37.8032 37.0205C37.8955 37.4176 37.9893 37.8223 38.0821 38.2222C38.2058 38.7561 38.3277 39.2815 38.4413 39.7693L38.472 39.8983L38.2006 39.7392L37.9939 39.6183L37.9938 39.6183C37.3171 39.2228 36.6228 38.8171 35.9423 38.4114C35.4974 38.148 35.0469 38.148 34.5991 38.4141C34.0046 38.7681 33.3997 39.1221 32.8063 39.4695L32.806 39.4696L32.3269 39.7501L32.075 39.8983C32.103 39.7803 32.131 39.6596 32.1562 39.5416C32.1897 39.3953 32.2238 39.2484 32.258 39.1014L32.2583 39.0999L32.2587 39.0985C32.2928 38.9515 32.327 38.8046 32.3605 38.6583C32.4892 38.1069 32.6179 37.5527 32.7438 37.0013C32.8446 36.5569 32.7131 36.1618 32.3549 35.8573C31.6105 35.2208 30.855 34.5707 30.1274 33.9424L30.0938 33.9122L30.7598 33.8546H30.7654C31.5434 33.7861 32.3465 33.7147 33.1356 33.6434C33.4434 33.616 33.8632 33.4651 34.0982 32.9164C34.255 32.5537 34.4144 32.1875 34.573 31.8232L34.5736 31.822C34.6979 31.5365 34.8217 31.2521 34.9433 30.9714L34.9545 30.9467C35.0021 30.8356 35.0504 30.7252 35.0986 30.6148L35.0989 30.6142C35.1471 30.504 35.1953 30.3937 35.2428 30.2828C35.2512 30.2608 35.2596 30.2416 35.2707 30.2197L35.3687 30.4419C35.7213 31.2484 36.0851 32.0852 36.4404 32.9082C36.6335 33.3526 36.9945 33.6105 37.4842 33.6516C38.1343 33.7062 38.7929 33.7649 39.4429 33.8229L39.4434 33.8229C39.7081 33.8465 39.9715 33.87 40.2322 33.893L40.4561 33.9122L40.263 34.0769C39.6166 34.6338 38.8862 35.262 38.1838 35.8628Z" fill="#3E7BFA"/>
</svg>
