<svg width="235" height="226" viewBox="0 0 235 226" fill="none" xmlns="http://www.w3.org/2000/svg">
<g clip-path="url(#clip0_1576_10003)">
<g opacity="0.59">
<path d="M69.2767 40.9106C63.7904 40.3242 58.8349 44.3233 58.2484 49.8105L42.5116 197.044C41.9251 202.531 45.9234 207.488 51.4098 208.074L140.289 217.574L142.382 197.995C143.306 189.347 151.074 183.118 159.677 184.038L181.359 186.355L194.398 64.3627C194.985 58.8754 190.986 53.9193 185.5 53.3329L69.2767 40.9106ZM159.774 142.845L75.5032 133.838L76.2351 126.99L160.506 135.997L159.774 142.845ZM162.34 118.833L78.0697 109.826L78.8016 102.978L163.072 111.985L162.34 118.833ZM164.902 94.8648L80.6315 85.8577L81.3681 78.9657L165.639 87.9728L164.902 94.8648Z" fill="#4256BB"/>
<path d="M148.088 198.604L146.399 214.407L176.497 191.561L159.117 189.704C153.586 189.112 148.675 193.116 148.088 198.604Z" fill="#3749A7"/>
</g>
</g>
<path d="M44.2052 135.136L26.547 133.249C27.0753 128.772 27.8554 124.969 28.8872 121.842C29.9682 118.719 31.483 115.966 33.4314 113.584C35.3851 111.153 37.9352 108.735 41.0816 106.331C43.5737 104.455 45.8064 102.676 47.7797 100.994C49.8075 99.2679 51.4491 97.4257 52.7046 95.4675C53.9654 93.4601 54.7379 91.1265 55.0222 88.4667C55.3433 85.4621 55.1193 82.8974 54.35 80.7726C53.63 78.6531 52.3894 76.9761 50.6282 75.7417C48.9216 74.4633 46.6891 73.6766 43.9308 73.3818C41.665 73.1396 39.4724 73.3786 37.3529 74.0986C35.2333 74.8186 33.4526 76.0979 32.0106 77.9365C30.5739 79.7259 29.6404 82.1669 29.2103 85.2594L9.63108 83.1667C10.4685 76.73 12.5693 71.5244 15.9334 67.5497C19.3028 63.5258 23.5635 60.7181 28.7154 59.1266C33.8726 57.4858 39.5051 56.9918 45.6128 57.6446C52.3609 58.3658 58.0027 60.1147 62.5384 62.8911C67.1285 65.6236 70.4506 69.2667 72.5046 73.8204C74.6079 78.3794 75.3358 83.6882 74.6882 89.7466C74.2249 94.0811 72.9717 97.8829 70.9285 101.152C68.8905 104.371 66.3344 107.312 63.2602 109.972C60.186 112.633 56.8875 115.294 53.3648 117.956C50.2887 120.168 48.1054 122.65 46.815 125.402C45.5245 128.153 44.6546 131.398 44.2052 135.136ZM22.244 156.029C22.5598 153.074 23.8082 150.716 25.989 148.957C28.2191 147.202 31.0334 146.507 34.4321 146.87C37.8307 147.233 40.4099 148.505 42.1695 150.686C43.9784 152.872 44.725 155.443 44.4091 158.398C44.1037 161.255 42.836 163.561 40.6059 165.315C38.4251 167.075 35.6354 167.773 32.2367 167.41C28.8381 167.047 26.2343 165.772 24.4254 163.586C22.6658 161.405 21.9386 158.886 22.244 156.029Z" fill="white"/>
<defs>
<clipPath id="clip0_1576_10003">
<rect x="59.3118" y="39.8516" width="175.858" height="168.115" rx="20" transform="rotate(6.1008 59.3118 39.8516)" fill="white"/>
</clipPath>
</defs>
</svg>
