<svg width="35" height="14" viewBox="0 0 35 14" fill="none" xmlns="http://www.w3.org/2000/svg">
<path fill-rule="evenodd" clip-rule="evenodd" d="M12.5771 6.75207C12.5771 5.25207 13.7069 3.94654 15.9665 2.83543L14.9108 0.835449C10.8731 2.87248 8.85426 5.6965 8.85426 9.3076C8.85426 10.5113 9.23395 11.5344 9.99334 12.377C10.7527 13.2196 11.651 13.6409 12.6882 13.6409C13.6143 13.6409 14.3829 13.3168 14.9942 12.6687C15.6054 12.0205 15.911 11.2243 15.911 10.2798C15.911 9.39093 15.5961 8.60854 14.9664 7.93261C14.3366 7.25669 13.5402 6.86318 12.5771 6.75207ZM4.57494 6.75207C4.57494 5.25207 5.714 3.94654 7.99217 2.83543L6.90865 0.835449C2.88945 2.87248 0.879883 5.6965 0.879883 9.3076C0.879883 10.5113 1.25494 11.5344 2.00507 12.377C2.7552 13.2196 3.64885 13.6409 4.68607 13.6409C5.61215 13.6409 6.38542 13.3168 7.00589 12.6687C7.62637 12.0205 7.9366 11.2243 7.9366 10.2798C7.9366 9.39093 7.62174 8.60854 6.992 7.93261C6.36226 7.25669 5.55658 6.86318 4.57494 6.75207ZM22.745 7.72449C22.745 9.22449 21.6152 10.53 19.3556 11.6411L20.4113 13.6411C24.4491 11.6041 26.4679 8.78006 26.4679 5.16896C26.4679 3.96526 26.0882 2.94213 25.3288 2.09954C24.5694 1.25695 23.6711 0.835663 22.6339 0.835663C21.7078 0.835663 20.9392 1.15973 20.328 1.80788C19.7168 2.45602 19.4112 3.25231 19.4112 4.19675C19.4112 5.08563 19.726 5.86803 20.3558 6.54395C20.9855 7.21987 21.7819 7.61338 22.745 7.72449ZM30.7472 7.72449C30.7472 9.22449 29.6081 10.53 27.33 11.6411L28.4135 13.6411C32.4327 11.6041 34.4423 8.78006 34.4423 5.16896C34.4423 3.96526 34.0672 2.94213 33.3171 2.09954C32.5669 1.25695 31.6733 0.835663 30.6361 0.835663C29.71 0.835663 28.9367 1.15973 28.3163 1.80788C27.6958 2.45602 27.3855 3.25231 27.3855 4.19675C27.3855 5.08563 27.7004 5.86803 28.3301 6.54395C28.9599 7.21987 29.7656 7.61338 30.7472 7.72449Z" fill="#3E7BFA"/>
</svg>
