<svg width="56" height="56" viewBox="0 0 56 56" fill="none" xmlns="http://www.w3.org/2000/svg">
<rect x="0.89502" y="0.602051" width="55" height="55" rx="16.0638" fill="#DBE8FF"/>
<path d="M29.1206 13.623C29.4108 13.6631 29.711 13.6831 30.0012 13.7331C34.2441 14.4236 37.1661 16.7652 38.7272 20.7679C39.6078 23.0094 39.6078 25.301 38.8673 27.6025C38.457 28.8734 37.8666 30.0442 37.1461 31.1549C34.7344 34.8274 32.3128 38.4899 29.8812 42.1424C29.701 42.4126 29.4609 42.6728 29.1907 42.8529C28.6503 43.2031 27.9398 43.053 27.4995 42.5627C27.3795 42.4226 27.2694 42.2825 27.1693 42.1324C24.7577 38.4799 22.346 34.8174 19.9244 31.165C18.8837 29.5839 18.1332 27.8727 17.803 26.0014C17.5128 24.3703 17.6829 22.7793 18.1832 21.2182C18.7836 19.3469 19.8143 17.7458 21.2853 16.435C22.9465 14.9439 24.8577 14.0533 27.0392 13.7431C27.3494 13.7031 27.6596 13.6631 27.9699 13.623C28.3501 13.623 28.7404 13.623 29.1206 13.623ZM28.5503 41.8122C28.6703 41.6521 28.7504 41.532 28.8304 41.4219C30.2514 39.2705 31.6824 37.119 33.0933 34.9575C34.2941 33.1263 35.505 31.305 36.6558 29.4338C37.4563 28.1329 37.9266 26.6919 38.0667 25.1609C38.2668 22.9594 37.7265 20.918 36.4556 19.1268C34.1841 15.9346 31.062 14.5437 27.1593 15.004C25.6383 15.1941 24.2473 15.7845 22.9865 16.6951C21.2753 17.916 20.0845 19.5371 19.4341 21.5384C19.0138 22.8193 18.8537 24.1302 19.0438 25.4711C19.294 27.2723 19.9945 28.8934 20.9851 30.3944C23.4168 34.1069 25.8684 37.8095 28.3201 41.512C28.3701 41.602 28.4502 41.6821 28.5503 41.8122Z" fill="#3E7BFA" stroke="#3E7BFA" stroke-width="0.654372"/>
<path d="M28.5515 30.2344C25.3794 30.2344 22.7976 27.6627 22.7976 24.4805C22.7976 21.3083 25.3894 18.7266 28.5615 18.7366C31.7237 18.7466 34.2954 21.3184 34.2954 24.4805C34.2954 27.6527 31.7237 30.2344 28.5515 30.2344ZM28.6116 20.0175C26.2099 19.9374 24.1385 21.9288 24.0685 24.4004C23.9984 26.8021 25.9598 28.8835 28.3714 28.9535C30.8731 29.0336 32.9245 27.1023 33.0145 24.5906C33.1046 22.1489 31.1333 20.0975 28.6116 20.0175Z" fill="#3E7BFA" stroke="#3E7BFA" stroke-width="0.654372"/>
</svg>
