<svg width="34" height="34" viewBox="0 0 34 34" fill="none" xmlns="http://www.w3.org/2000/svg">
<g clip-path="url(#clip0_453_96348)">
<path d="M19.0175 12.8699H18.5294C18.0486 12.8874 17.62 13.1945 17.3611 13.583C17.2967 13.6523 17.3345 13.7449 17.3876 13.8071C17.5484 14.0264 17.7205 14.237 17.8692 14.4651C17.9657 14.2179 18.0896 13.9538 18.342 13.8302C18.7787 13.638 19.3624 13.819 19.5659 14.2601C19.7797 14.6765 19.5779 15.2412 19.1453 15.4271C18.769 15.5746 18.301 15.4693 18.0534 15.1431C17.4961 14.4412 16.9767 13.7106 16.4331 12.9975C16.2345 12.9648 16.0359 12.9289 15.8365 12.8978C15.7971 13.106 15.7553 13.3142 15.7135 13.5215C16.1959 14.1987 16.6888 14.8687 17.1842 15.5363C17.5219 15.9918 18.0132 16.397 18.6154 16.3794H18.7771C19.6744 16.381 20.4793 15.5962 20.4946 14.7068C20.5661 13.8446 19.9213 12.9321 19.0175 12.8699Z" fill="#3E7BFA"/>
<path d="M14.2804 12.8699H13.9105C13.2341 12.9066 12.6355 13.4036 12.4084 14.0266C12.1733 14.7454 12.3843 15.6237 13.0174 16.0752C13.2662 16.2675 13.5735 16.364 13.8856 16.38H14.1889C14.7281 16.3752 15.236 16.0282 15.4824 15.5655C15.3668 15.2743 15.0964 15.0533 14.9391 14.7765C14.8469 14.9999 14.7393 15.2352 14.5259 15.3684C14.0589 15.6596 13.3512 15.3948 13.198 14.8666C13.0575 14.4438 13.2942 13.9309 13.7243 13.7873C14.1119 13.6357 14.5636 13.8248 14.7979 14.1495C15.3355 14.8435 15.8635 15.5455 16.3794 16.2563C16.4227 16.072 16.4597 15.8862 16.4918 15.6995C16.6956 15.7011 16.8986 15.7083 17.1016 15.7147C16.7172 15.1834 16.3265 14.6568 15.9389 14.1279C15.5321 13.5671 15.0547 12.8794 14.2804 12.8699Z" fill="#3E7BFA"/>
</g>
<path d="M14.4634 24.0925C14.4076 24.2203 14.3598 24.3161 14.3199 24.4119C13.3079 26.791 12.3038 29.1701 11.2917 31.5492C11.0527 32.1 10.5506 32.3475 10.0725 32.108C9.89716 32.0202 9.73778 31.8605 9.61825 31.6929C9.29152 31.2298 8.98073 30.7588 8.67791 30.2718C8.57432 30.0962 8.47072 30.0483 8.2715 30.1121C7.76148 30.2638 7.23553 30.3836 6.71755 30.5353C6.31911 30.647 5.96847 30.6071 5.68159 30.2878C5.40268 29.9684 5.41065 29.6092 5.57003 29.226C6.66974 26.6153 7.76945 24.0047 8.86917 21.3861C8.91698 21.2743 8.95683 21.1626 9.02058 21.0109C8.66994 20.971 8.34322 20.947 8.01649 20.8991C7.79336 20.8672 7.56226 20.8273 7.3471 20.7474C6.73349 20.5239 6.43067 20.0129 6.59802 19.3742C6.72552 18.8952 6.93272 18.4402 7.13991 17.9851C7.56226 17.0351 7.53835 16.9552 6.70162 16.3485C6.35098 16.101 6.00035 15.8535 5.68159 15.5661C5.02814 14.9673 5.02017 14.2408 5.67362 13.65C6.08004 13.2828 6.54224 12.9874 6.97256 12.6521C7.4746 12.2609 7.51445 12.1332 7.26741 11.5424C7.07616 11.0713 6.83709 10.6243 6.67771 10.1452C6.35098 9.20318 6.70162 8.59643 7.6818 8.40483C8.17587 8.30902 8.68588 8.27709 9.18792 8.2212C9.81747 8.14935 9.94497 8.02161 10.0167 7.39091C10.0804 6.864 10.1044 6.33708 10.2079 5.81815C10.3912 4.92399 10.9969 4.56473 11.8655 4.83617C12.3197 4.97988 12.7421 5.20342 13.1804 5.39502C13.9613 5.73033 14.0569 5.70638 14.567 5.02778C14.8698 4.62062 15.1487 4.1895 15.4993 3.82226C16.0571 3.22349 16.7504 3.23946 17.3322 3.82226C17.4836 3.97395 17.627 4.14958 17.7545 4.32522C17.9617 4.60465 18.153 4.89206 18.3681 5.17148C18.7427 5.66646 18.8782 5.70638 19.4519 5.46687C19.7786 5.33115 20.1054 5.17148 20.4321 5.02778C20.6552 4.93996 20.8784 4.85214 21.1095 4.79625C21.8346 4.62062 22.3845 4.91601 22.5678 5.6505C22.6953 6.16943 22.7351 6.71231 22.7989 7.23922C22.8945 8.06153 22.9582 8.13338 23.795 8.22919C24.2652 8.27709 24.7513 8.30902 25.2135 8.41281C26.106 8.59643 26.4646 9.21117 26.1777 10.0814C26.0183 10.5843 25.7713 11.0554 25.5641 11.5344C25.3011 12.1571 25.341 12.2848 25.8828 12.692C26.2574 12.9714 26.6479 13.2269 27.0065 13.5303C27.8512 14.2488 27.8512 15.0232 26.9905 15.7337C26.6399 16.0291 26.2574 16.2766 25.8908 16.5481C25.341 16.9632 25.3091 17.083 25.58 17.7296C25.7075 18.041 25.8669 18.3444 25.9944 18.6557C26.09 18.8952 26.1857 19.1427 26.2414 19.3902C26.3849 20.0289 26.106 20.5558 25.4844 20.7554C25.1258 20.8672 24.7433 20.8991 24.3767 20.963C24.2014 20.9949 24.0261 21.0029 23.8189 21.0189C24.2811 22.1126 24.7274 23.1744 25.1656 24.2362C25.8669 25.9048 26.5682 27.5734 27.2694 29.2419C27.4288 29.6251 27.4288 29.9844 27.1499 30.3037C26.8869 30.6071 26.5443 30.663 26.1697 30.5592C25.6517 30.4235 25.1338 30.2958 24.6158 30.1361C24.3847 30.0642 24.2652 30.1201 24.1376 30.3197C23.8667 30.7668 23.5559 31.1979 23.269 31.645C23.0459 31.9963 22.759 32.2358 22.3207 32.1959C21.8824 32.148 21.6593 31.8526 21.492 31.4693C20.5038 29.1142 19.4997 26.759 18.5036 24.4119C18.4638 24.3161 18.416 24.2203 18.3602 24.0845C18.2008 24.3081 18.0653 24.5077 17.9219 24.6993C17.7864 24.8829 17.6509 25.0745 17.5075 25.2422C16.7983 26.0804 16.0093 26.0804 15.3081 25.2262C15.0132 24.8669 14.7502 24.4837 14.4634 24.0925ZM25.4127 9.53849C25.2931 9.45866 25.1816 9.32294 25.062 9.30697C24.5759 9.22713 24.0819 9.17125 23.5878 9.11536C22.4721 9.00359 22.002 8.53256 21.8984 7.41486C21.8506 6.93585 21.8027 6.46482 21.7231 5.99379C21.6593 5.63453 21.5477 5.57066 21.2051 5.6984C20.7907 5.85008 20.3843 6.04169 19.9699 6.22531C18.8064 6.73626 18.2645 6.59256 17.5234 5.55469C17.2684 5.20342 17.0134 4.83617 16.7345 4.50885C16.4795 4.20547 16.3361 4.20547 16.0811 4.50086C15.7862 4.85214 15.5312 5.22737 15.2603 5.59461C14.551 6.56861 14.0091 6.72029 12.9014 6.24128C12.7899 6.19338 12.6863 6.13749 12.5747 6.08959C12.256 5.95387 11.9372 5.80218 11.6105 5.69041C11.2598 5.57066 11.1483 5.62654 11.0845 5.98581C11.0048 6.44885 10.957 6.9119 10.9172 7.37495C10.8216 8.54055 10.3514 9.01956 9.20386 9.12335C8.74166 9.16326 8.2715 9.21117 7.81727 9.291C7.44273 9.35487 7.37898 9.47462 7.51445 9.83388C7.66586 10.241 7.84914 10.6402 8.03243 11.0394C8.55041 12.213 8.40697 12.7399 7.37898 13.4983C7.02037 13.7618 6.6538 14.0173 6.31114 14.3047C6.02426 14.5442 6.03223 14.6879 6.31911 14.9354C6.6538 15.2148 7.0124 15.4703 7.36304 15.7258C8.41494 16.4842 8.55838 17.0191 8.03243 18.2007C7.85711 18.5998 7.67383 18.999 7.51445 19.4062C7.37898 19.7654 7.44273 19.8772 7.82524 19.9411C8.2715 20.0209 8.72573 20.0688 9.17996 20.1087C10.3673 20.2285 10.7976 20.6596 10.9172 21.8571C10.957 22.2403 10.9889 22.6315 11.0367 23.0148C11.1084 23.6055 11.2439 23.6934 11.7938 23.4698C12.2161 23.3022 12.6225 23.0946 13.0529 22.9269C14.0251 22.5437 14.5112 22.6794 15.1567 23.5017C15.324 23.7253 15.4834 23.9568 15.6428 24.1804C15.7703 24.356 15.8978 24.5316 16.0492 24.6993C16.344 25.0266 16.4795 25.0346 16.7664 24.6913C17.0772 24.3161 17.3481 23.9089 17.643 23.5177C18.2964 22.6715 18.7985 22.5278 19.7946 22.9269C20.0336 23.0227 20.2647 23.1425 20.5038 23.2463C20.719 23.3421 20.9341 23.4459 21.1573 23.5257C21.5238 23.6534 21.6673 23.5896 21.731 23.2143C21.8107 22.7513 21.8506 22.2882 21.8984 21.8252C22.0179 20.6676 22.4721 20.2045 23.6356 20.1087C24.0101 20.0768 24.3847 20.0369 24.7592 19.989C25.3888 19.9091 25.4685 19.7894 25.2374 19.2066C25.1497 18.991 25.0541 18.7914 24.9664 18.5759C24.8549 18.3124 24.7274 18.049 24.6317 17.7775C24.3608 16.9872 24.4883 16.5081 25.1338 15.9812C25.3967 15.7657 25.6757 15.5821 25.9466 15.3825C26.9587 14.632 26.9746 14.6001 25.9307 13.8337C25.6517 13.6261 25.3649 13.4345 25.0939 13.2109C24.4963 12.708 24.3528 12.229 24.6158 11.4865C24.7513 11.1033 24.9425 10.736 25.0939 10.3608C25.1975 10.1213 25.2852 9.86582 25.4127 9.53849ZM26.4566 29.705C25.2772 26.8868 24.1137 24.1165 22.9582 21.3542C22.8547 21.5538 22.8148 21.7454 22.7909 21.945C22.7112 22.5038 22.6793 23.0786 22.5439 23.6215C22.3606 24.332 21.8027 24.6434 21.1015 24.4438C20.6712 24.3241 20.2727 24.1245 19.8583 23.9568C19.6511 23.877 19.4519 23.7812 19.165 23.6614C20.2568 26.2481 21.3166 28.747 22.4004 31.2857C22.775 30.7269 23.1176 30.2159 23.4603 29.705C23.8189 29.1701 24.1137 29.0663 24.7274 29.2339C25.2772 29.3856 25.843 29.5373 26.4566 29.705ZM13.6505 23.6774C13.4513 23.7492 13.3079 23.8051 13.1724 23.861C12.6943 24.0526 12.2321 24.2921 11.738 24.4358C11.0128 24.6434 10.4789 24.34 10.2717 23.6055C10.1681 23.2543 10.1442 22.887 10.0884 22.5198C10.0326 22.1366 9.99279 21.7454 9.94497 21.3542C9.9131 21.3542 9.88919 21.3542 9.85731 21.3542C8.69385 24.1165 7.53835 26.8788 6.35098 29.689C7.03631 29.5134 7.65789 29.3457 8.27947 29.186C8.67791 29.0823 9.00464 29.218 9.25168 29.5373C9.35527 29.673 9.44293 29.8167 9.53856 29.9605C9.82544 30.3916 10.1044 30.8227 10.4151 31.2857C11.4909 28.739 12.5508 26.2481 13.6505 23.6774Z" fill="#3E7BFA" stroke="#3E7BFA" stroke-width="0.684179"/>
<path d="M16.4037 21.2827C12.7221 21.2668 9.74967 18.2649 9.77358 14.5925C9.78952 10.9121 12.7619 7.95016 16.4276 7.96613C20.1093 7.97411 23.0817 10.9759 23.0578 14.6484C23.0339 18.3288 20.0535 21.2907 16.4037 21.2827ZM16.4037 20.3806C19.5833 20.3886 22.1493 17.8178 22.1573 14.6324C22.1653 11.447 19.5993 8.87626 16.4197 8.86827C13.2401 8.86029 10.6741 11.431 10.6661 14.6164C10.6661 17.7939 13.2241 20.3726 16.4037 20.3806Z" fill="#3E7BFA" stroke="#3E7BFA" stroke-width="0.684179"/>
<defs>
<clipPath id="clip0_453_96348">
<rect width="8.19025" height="4.25467" fill="white" transform="matrix(-1 0 0 1 20.5039 12.4968)"/>
</clipPath>
</defs>
</svg>
