<svg width="121" height="25" viewBox="0 0 121 25" fill="none" xmlns="http://www.w3.org/2000/svg">
<path d="M38.2299 16.8848L35.8978 13.8777C37.4014 13.5248 38.4447 12.5429 38.4447 10.9319V10.9013C38.4447 10.0881 38.1532 9.36701 37.6469 8.86071C37.0025 8.21633 36.0052 7.83276 34.7471 7.83276H31.0496C30.6814 7.83276 30.3745 8.13961 30.3745 8.52318V17.3604C30.3745 17.744 30.6814 18.0509 31.0496 18.0509C31.4331 18.0509 31.74 17.744 31.74 17.3604V14.1385H34.3942L37.1405 17.7133C37.294 17.9128 37.4934 18.0662 37.7696 18.0662C38.1225 18.0662 38.46 17.7594 38.46 17.3911C38.4447 17.1917 38.3679 17.0383 38.2299 16.8848ZM37.0638 10.9473V10.978C37.0638 12.1747 36.0512 12.8804 34.6397 12.8804H31.7247V9.12153H34.6551C36.174 9.12153 37.0638 9.7966 37.0638 10.9473Z" fill="black"/>
<path d="M40.4395 17.2991C40.4395 17.6827 40.7463 17.9895 41.1145 17.9895H47.3282C47.6811 17.9895 47.9573 17.7134 47.9573 17.3605C47.9573 17.0076 47.6811 16.7314 47.3282 16.7314H41.8049V13.5095H46.6225C46.9754 13.5095 47.2515 13.2334 47.2515 12.8805C47.2515 12.5429 46.9754 12.2514 46.6225 12.2514H41.8049V9.10623H47.2669C47.6197 9.10623 47.8959 8.83006 47.8959 8.47719C47.8959 8.12431 47.6197 7.84814 47.2669 7.84814H41.1145C40.7463 7.84814 40.4395 8.15499 40.4395 8.53856V17.2991Z" fill="black"/>
<path d="M53.7262 18.0967H53.803C54.1712 18.0967 54.4013 17.8819 54.5547 17.5597L58.3904 8.70713C58.421 8.61508 58.4364 8.53836 58.4364 8.43097C58.4364 8.07809 58.1449 7.77124 57.7613 7.77124C57.4545 7.77124 57.209 8.00138 57.1016 8.23151C57.1016 8.23151 57.1016 8.23151 57.1016 8.24686L53.7876 16.1943L50.489 8.27754C50.3662 7.98604 50.1361 7.77124 49.7986 7.77124C49.415 7.77124 49.1082 8.10877 49.1082 8.44631C49.1082 8.56905 49.1235 8.64576 49.1849 8.75316L53.0051 17.5597C53.0972 17.8819 53.3427 18.0967 53.7262 18.0967Z" fill="black"/>
<path d="M60.2471 8.46165V17.3603C60.2471 17.7439 60.5539 18.0507 60.9221 18.0507C61.3057 18.0507 61.6126 17.7439 61.6126 17.3603V8.46165C61.6126 8.07809 61.3057 7.77124 60.9221 7.77124C60.5539 7.77124 60.2471 8.07809 60.2471 8.46165Z" fill="black"/>
<path d="M70.9553 7.84814H70.94H64.7876C64.4194 7.84814 64.1125 8.15499 64.1125 8.53856V17.2991C64.1125 17.6827 64.4194 17.9895 64.7876 17.9895H71.0013C71.3542 17.9895 71.6304 17.7134 71.6304 17.3605C71.6304 17.0076 71.3542 16.7314 71.0013 16.7314H65.478V13.5095H70.2956C70.6485 13.5095 70.9246 13.2334 70.9246 12.8805C70.9246 12.5429 70.6485 12.2514 70.2956 12.2514H65.478V9.10623H70.94C71.2928 9.10623 71.569 8.83006 71.569 8.47719C71.5843 8.12431 71.3082 7.84814 70.9553 7.84814Z" fill="black"/>
<path d="M83.0917 18.1121H83.2144C83.5366 18.1121 83.7821 17.8819 83.9048 17.5444L87.0654 8.75316C87.096 8.6611 87.1421 8.53836 87.1421 8.44631C87.1421 8.09343 86.8199 7.77124 86.4517 7.77124C86.1295 7.77124 85.8993 7.98604 85.7919 8.29288L83.1684 15.826L80.6982 8.29288C80.5908 7.98604 80.376 7.77124 80.0232 7.77124H79.9464C79.5936 7.77124 79.3788 7.98604 79.2714 8.29288L76.8012 15.826L74.193 8.32357C74.0856 8.01672 73.8401 7.77124 73.4872 7.77124C73.1037 7.77124 72.7815 8.09343 72.7815 8.46165C72.7815 8.55371 72.8122 8.6611 72.8429 8.75316L76.0034 17.5444C76.1262 17.8973 76.3563 18.0967 76.6938 18.1121H76.8166C77.1388 18.1121 77.3842 17.8819 77.4916 17.5444L79.9464 10.3028L82.4012 17.5597C82.524 17.8819 82.7541 18.1121 83.0917 18.1121Z" fill="black"/>
<path d="M94.2606 15.2889V15.3196C94.2606 16.2401 93.4321 16.8692 92.174 16.8692C90.9466 16.8692 90.0414 16.501 89.1362 15.7338C89.0441 15.6418 88.8907 15.5804 88.7066 15.5804C88.3384 15.5804 88.0469 15.8719 88.0469 16.2555C88.0469 16.4856 88.1543 16.6697 88.3077 16.7771C89.4277 17.667 90.6551 18.1273 92.128 18.1273C94.1685 18.1273 95.6261 16.9612 95.6261 15.1969V15.1662C95.6261 13.6012 94.5828 12.7421 92.2967 12.2511C90.2255 11.8062 89.7039 11.3459 89.7039 10.456V10.4253C89.7039 9.59684 90.4863 8.95246 91.683 8.95246C92.5729 8.95246 93.3554 9.19794 94.1685 9.7963C94.2913 9.88835 94.414 9.91904 94.5674 9.91904C94.9357 9.91904 95.2272 9.62753 95.2272 9.25931C95.2272 8.99849 95.0737 8.81438 94.9357 8.70698C94.0151 8.04725 93.0485 7.70972 91.7137 7.70972C89.7499 7.70972 88.3384 8.92177 88.3384 10.5327V10.5481C88.3384 12.2358 89.397 13.0182 91.7598 13.5245C93.7696 13.9541 94.2606 14.4144 94.2606 15.2889Z" fill="black"/>
<path d="M97.2064 16.6702C96.9302 16.6702 96.7461 16.8543 96.7461 17.1151V17.2685C96.7461 17.5293 96.9302 17.7288 97.2064 17.7288C97.4672 17.7288 97.6513 17.5293 97.6513 17.2685C97.6513 17.3146 97.6206 17.3452 97.5746 17.3452C97.5746 17.3452 97.6513 17.3299 97.6513 17.2685V17.1151C97.636 16.8543 97.4518 16.6702 97.2064 16.6702Z" fill="black"/>
<path d="M98.8175 13.8008V17.3449C98.8175 17.5597 98.9863 17.7284 99.2011 17.7284C99.4159 17.7284 99.5846 17.5597 99.5846 17.3449V13.8008C99.5846 13.586 99.4159 13.4172 99.2011 13.4172C98.9863 13.4172 98.8175 13.586 98.8175 13.8008ZM98.7715 12.3432C98.7715 12.5734 98.9556 12.7421 99.2011 12.7421C99.4466 12.7421 99.646 12.5734 99.646 12.3432V12.2358C99.646 11.9903 99.4619 11.8369 99.2011 11.8369C98.9556 11.8369 98.7715 11.9903 98.7715 12.2358V12.3432Z" fill="black"/>
<path fill-rule="evenodd" clip-rule="evenodd" d="M105 15.5804V15.5651C105 14.3684 104.064 13.3711 102.791 13.3711C101.517 13.3711 100.581 14.3837 100.581 15.5804V15.5958C100.581 16.7925 101.502 17.7897 102.775 17.7897C104.064 17.7897 105 16.7618 105 15.5804ZM104.233 15.5958V15.5804C104.233 14.7519 103.604 14.0615 102.791 14.0615C101.947 14.0615 101.379 14.7519 101.379 15.5651V15.5804C101.379 16.4089 101.993 17.0993 102.821 17.0993C103.65 17.084 104.233 16.4089 104.233 15.5958Z" fill="black"/>
<path fill-rule="evenodd" clip-rule="evenodd" d="M26.2477 8.61523L25.634 8.92208C26.8154 9.87332 27.3984 11.1161 27.5058 12.6043C27.4138 15.4887 26.0483 17.3451 23.7162 18.1429C21.0159 18.9561 19.2976 18.2963 17.6406 16.6087L17.5332 17.2531L18.2083 17.9588C20.571 20.4136 24.4527 20.4903 26.8921 18.1429C29.3316 15.8109 29.4083 11.9139 27.0762 9.47441L26.2477 8.61523Z" fill="#FEEF7C"/>
<path fill-rule="evenodd" clip-rule="evenodd" d="M17.2108 16.9002L17.6251 16.5474C15.922 14.1539 15.8607 10.6405 18.1774 8.70736C19.8957 7.28051 23.3018 6.52873 26.0174 8.9375L26.2169 8.58462L25.5571 7.89421C23.2097 5.43941 19.3281 5.3627 16.8886 7.7101C14.4492 10.0575 14.3571 13.9391 16.7045 16.3786L17.2108 16.9002Z" fill="#5CD3CB"/>
<path d="M15.7534 12.9414C15.7534 16.3321 18.4997 19.0937 21.9058 19.0937C25.2964 19.0937 28.0581 16.3474 28.0581 12.9414C28.0581 9.55071 25.3118 6.78906 21.9058 6.78906C18.4997 6.8044 15.7534 9.55071 15.7534 12.9414ZM20.0186 14.0614C20.08 13.862 20.0186 13.6318 19.8345 13.5091C19.3742 13.1715 18.4844 12.4965 17.886 12.0515C17.794 11.9902 17.7633 11.8674 17.794 11.7754C17.8247 11.668 17.9321 11.6066 18.0394 11.6066H20.3715C20.5863 11.6066 20.7858 11.4685 20.8471 11.2537C21.0312 10.7014 21.3995 9.59674 21.6449 8.8603C21.6756 8.7529 21.7677 8.69153 21.8904 8.69153C22.0132 8.69153 22.0899 8.76824 22.1359 8.8603C22.3814 9.59674 22.7496 10.7014 22.9337 11.2537C22.9951 11.4532 23.1945 11.5913 23.4093 11.5913C23.9617 11.5913 25.0203 11.5913 25.7567 11.5913C25.8641 11.5913 25.9562 11.668 26.0022 11.76C26.0482 11.8521 26.0022 11.9748 25.9101 12.0362C25.3118 12.4811 24.4066 13.1715 23.9617 13.5091C23.7929 13.6318 23.7162 13.862 23.7775 14.0614C23.9463 14.6137 24.2992 15.7337 24.5447 16.4855C24.5754 16.5929 24.5447 16.7003 24.4526 16.7617C24.3606 16.8231 24.2378 16.8231 24.1611 16.7617C23.5627 16.3014 22.6729 15.6263 22.2126 15.2735C22.0285 15.1354 21.783 15.1354 21.5989 15.2735C21.1386 15.6263 20.2795 16.3014 19.6811 16.7617C19.589 16.8231 19.4663 16.8384 19.3896 16.7617C19.2975 16.7003 19.2668 16.5776 19.2975 16.4855C19.497 15.7337 19.8499 14.6137 20.0186 14.0614Z" fill="black"/>
</svg>
