<svg width="121" height="25" viewBox="0 0 121 25" fill="none" xmlns="http://www.w3.org/2000/svg">
<path d="M21.9394 18.2803L19.7369 15.4403C21.1569 15.107 22.1423 14.1796 22.1423 12.6582V12.6292C22.1423 11.8612 21.867 11.1802 21.3888 10.702C20.7802 10.0935 19.8384 9.7312 18.6502 9.7312H15.1581C14.8103 9.7312 14.5205 10.021 14.5205 10.3833V18.7295C14.5205 19.0918 14.8103 19.3816 15.1581 19.3816C15.5203 19.3816 15.8101 19.0918 15.8101 18.7295V15.6866H18.3169L20.9106 19.0628C21.0555 19.2512 21.2439 19.3961 21.5047 19.3961C21.838 19.3961 22.1568 19.1063 22.1568 18.7585C22.1423 18.5701 22.0698 18.4252 21.9394 18.2803ZM20.8382 12.6727V12.7017C20.8382 13.8319 19.8818 14.4984 18.5487 14.4984H15.7956V10.9484H18.5632C19.9977 10.9484 20.8382 11.5859 20.8382 12.6727Z" fill="black"/>
<path d="M24.0259 18.6715C24.0259 19.0337 24.3157 19.3235 24.6634 19.3235H30.5319C30.8652 19.3235 31.126 19.0627 31.126 18.7294C31.126 18.3962 30.8652 18.1353 30.5319 18.1353H25.3155V15.0924H29.8654C30.1986 15.0924 30.4595 14.8316 30.4595 14.4983C30.4595 14.1796 30.1986 13.9042 29.8654 13.9042H25.3155V10.9338H30.4739C30.8072 10.9338 31.068 10.673 31.068 10.3397C31.068 10.0064 30.8072 9.74561 30.4739 9.74561H24.6634C24.3157 9.74561 24.0259 10.0354 24.0259 10.3977V18.6715Z" fill="black"/>
<path d="M36.5744 19.4246H36.6468C36.9946 19.4246 37.212 19.2218 37.3569 18.9175L40.9794 10.5567C41.0083 10.4698 41.0228 10.3974 41.0228 10.2959C41.0228 9.96265 40.7475 9.67285 40.3853 9.67285C40.0955 9.67285 39.8636 9.8902 39.7622 10.1076C39.7622 10.1076 39.7622 10.1076 39.7622 10.122L36.6324 17.6279L33.517 10.151C33.4011 9.87571 33.1837 9.67285 32.8649 9.67285C32.5027 9.67285 32.2129 9.99163 32.2129 10.3104C32.2129 10.4263 32.2274 10.4988 32.2853 10.6002L35.8934 18.9175C35.9803 19.2218 36.2121 19.4246 36.5744 19.4246Z" fill="black"/>
<path d="M42.7332 10.3249V18.7291C42.7332 19.0914 43.023 19.3812 43.3707 19.3812C43.733 19.3812 44.0228 19.0914 44.0228 18.7291V10.3249C44.0228 9.96265 43.733 9.67285 43.3707 9.67285C43.023 9.67285 42.7332 9.96265 42.7332 10.3249Z" fill="black"/>
<path d="M52.8466 9.74561H52.8321H47.0216C46.6738 9.74561 46.384 10.0354 46.384 10.3977V18.6715C46.384 19.0337 46.6738 19.3235 47.0216 19.3235H52.8901C53.2233 19.3235 53.4842 19.0627 53.4842 18.7294C53.4842 18.3962 53.2233 18.1353 52.8901 18.1353H47.6737V15.0924H52.2235C52.5568 15.0924 52.8176 14.8316 52.8176 14.4983C52.8176 14.1796 52.5568 13.9042 52.2235 13.9042H47.6737V10.9338H52.8321C53.1654 10.9338 53.4262 10.673 53.4262 10.3397C53.4407 10.0064 53.1799 9.74561 52.8466 9.74561Z" fill="black"/>
<path d="M64.3086 19.4391H64.4245C64.7288 19.4391 64.9606 19.2218 65.0766 18.903L68.0615 10.6002C68.0905 10.5133 68.134 10.3974 68.134 10.3104C68.134 9.97714 67.8297 9.67285 67.4819 9.67285C67.1776 9.67285 66.9603 9.87571 66.8588 10.1655L64.381 17.2801L62.0481 10.1655C61.9467 9.87571 61.7439 9.67285 61.4106 9.67285H61.3381C61.0049 9.67285 60.802 9.87571 60.7006 10.1655L58.3677 17.2801L55.9044 10.1945C55.8029 9.90469 55.5711 9.67285 55.2378 9.67285C54.8756 9.67285 54.5713 9.97714 54.5713 10.3249C54.5713 10.4118 54.6003 10.5133 54.6293 10.6002L57.6142 18.903C57.7301 19.2363 57.9475 19.4246 58.2662 19.4391H58.3822C58.6865 19.4391 58.9183 19.2218 59.0197 18.903L61.3381 12.0637L63.6565 18.9175C63.7725 19.2218 63.9898 19.4391 64.3086 19.4391Z" fill="black"/>
<path d="M74.8567 16.7728V16.8018C74.8567 17.6712 74.0743 18.2653 72.8861 18.2653C71.7269 18.2653 70.872 17.9175 70.0171 17.193C69.9301 17.1061 69.7852 17.0481 69.6114 17.0481C69.2636 17.0481 68.9883 17.3234 68.9883 17.6857C68.9883 17.903 69.0897 18.0769 69.2346 18.1784C70.2924 19.0188 71.4516 19.4535 72.8426 19.4535C74.7698 19.4535 76.1464 18.3522 76.1464 16.6859V16.6569C76.1464 15.1789 75.161 14.3675 73.002 13.9038C71.0459 13.4836 70.5532 13.0489 70.5532 12.2085V12.1795C70.5532 11.397 71.2922 10.7884 72.4224 10.7884C73.2628 10.7884 74.0018 11.0203 74.7698 11.5854C74.8857 11.6723 75.0016 11.7013 75.1465 11.7013C75.4943 11.7013 75.7696 11.426 75.7696 11.0782C75.7696 10.8319 75.6247 10.658 75.4943 10.5566C74.6249 9.93353 73.712 9.61475 72.4514 9.61475C70.5967 9.61475 69.2636 10.7595 69.2636 12.2809V12.2954C69.2636 13.8893 70.2634 14.6283 72.4949 15.1065C74.3931 15.5122 74.8567 15.9469 74.8567 16.7728Z" fill="black"/>
<path d="M77.6388 18.0771C77.378 18.0771 77.2041 18.251 77.2041 18.4974V18.6423C77.2041 18.8886 77.378 19.077 77.6388 19.077C77.8851 19.077 78.059 18.8886 78.059 18.6423C78.059 18.6857 78.03 18.7147 77.9866 18.7147C77.9866 18.7147 78.059 18.7002 78.059 18.6423V18.4974C78.0445 18.251 77.8706 18.0771 77.6388 18.0771Z" fill="black"/>
<path d="M79.1604 15.3674V18.7146C79.1604 18.9175 79.3198 19.0769 79.5227 19.0769C79.7255 19.0769 79.8849 18.9175 79.8849 18.7146V15.3674C79.8849 15.1646 79.7255 15.0052 79.5227 15.0052C79.3198 15.0052 79.1604 15.1646 79.1604 15.3674ZM79.1169 13.9909C79.1169 14.2082 79.2908 14.3676 79.5227 14.3676C79.7545 14.3676 79.9429 14.2082 79.9429 13.9909V13.8894C79.9429 13.6576 79.769 13.5127 79.5227 13.5127C79.2908 13.5127 79.1169 13.6576 79.1169 13.8894V13.9909Z" fill="black"/>
<path fill-rule="evenodd" clip-rule="evenodd" d="M84.9995 17.0482V17.0337C84.9995 15.9035 84.1157 14.9617 82.913 14.9617C81.7103 14.9617 80.8264 15.918 80.8264 17.0482V17.0627C80.8264 18.1929 81.6958 19.1348 82.8985 19.1348C84.1157 19.1348 84.9995 18.164 84.9995 17.0482ZM84.275 17.0627V17.0482C84.275 16.2658 83.681 15.6137 82.913 15.6137C82.116 15.6137 81.5799 16.2658 81.5799 17.0337V17.0482C81.5799 17.8307 82.1595 18.4827 82.942 18.4827C83.7244 18.4683 84.275 17.8307 84.275 17.0627Z" fill="black"/>
<path fill-rule="evenodd" clip-rule="evenodd" d="M10.6227 10.47L10.0431 10.7598C11.1588 11.6582 11.7094 12.8318 11.8109 14.2374C11.7239 16.9615 10.4343 18.7148 8.23182 19.4683C5.68157 20.2363 4.05869 19.6132 2.49376 18.0193L2.39233 18.6279L3.0299 19.2944C5.26136 21.6128 8.92734 21.6853 11.2313 19.4683C13.5352 17.2658 13.6076 13.5853 11.4051 11.2814L10.6227 10.47Z" fill="#FEEF7C"/>
<path fill-rule="evenodd" clip-rule="evenodd" d="M2.08798 18.2946L2.47921 17.9613C0.870813 15.7009 0.812853 12.3827 3.00085 10.5569C4.62373 9.20936 7.84052 8.49935 10.4053 10.7743L10.5936 10.441L9.97056 9.78896C7.75358 7.47056 4.0876 7.39811 1.78369 9.61508C-0.520231 11.8321 -0.607171 15.498 1.6098 17.802L2.08798 18.2946Z" fill="#5CD3CB"/>
<path d="M0.711426 14.5559C0.711426 17.7582 3.30514 20.3664 6.52193 20.3664C9.72423 20.3664 12.3324 17.7727 12.3324 14.5559C12.3324 11.3536 9.73872 8.74536 6.52193 8.74536C3.30514 8.75985 0.711426 11.3536 0.711426 14.5559ZM4.73966 15.6136C4.79762 15.4253 4.73966 15.2079 4.56578 15.092C4.13108 14.7732 3.29065 14.1357 2.72554 13.7154C2.6386 13.6575 2.60962 13.5416 2.6386 13.4546C2.66758 13.3532 2.76901 13.2952 2.87044 13.2952H5.07293C5.27579 13.2952 5.46416 13.1648 5.52212 12.962C5.696 12.4403 6.04376 11.397 6.2756 10.7015C6.30458 10.6001 6.39152 10.5421 6.50744 10.5421C6.62336 10.5421 6.69581 10.6146 6.73928 10.7015C6.97112 11.397 7.31888 12.4403 7.49277 12.962C7.55073 13.1503 7.7391 13.2807 7.94196 13.2807C8.4636 13.2807 9.46341 13.2807 10.1589 13.2807C10.2604 13.2807 10.3473 13.3532 10.3908 13.4401C10.4342 13.5271 10.3908 13.643 10.3038 13.701C9.73872 14.1212 8.88381 14.7732 8.4636 15.092C8.30421 15.2079 8.23176 15.4253 8.28972 15.6136C8.44911 16.1353 8.78238 17.1931 9.01422 17.9031C9.0432 18.0045 9.01422 18.1059 8.92728 18.1639C8.84034 18.2218 8.72442 18.2218 8.65197 18.1639C8.08686 17.7292 7.24643 17.0916 6.81173 16.7584C6.63785 16.6279 6.40601 16.6279 6.23213 16.7584C5.79743 17.0916 4.98599 17.7292 4.42088 18.1639C4.33394 18.2218 4.21802 18.2363 4.14557 18.1639C4.05863 18.1059 4.02965 17.99 4.05863 17.9031C4.247 17.1931 4.58027 16.1353 4.73966 15.6136Z" fill="black"/>
</svg>
