<svg width="174" height="23" viewBox="0 0 174 23" fill="none" xmlns="http://www.w3.org/2000/svg">
<g clip-path="url(#clip0_819_10721)">
<path d="M141.43 9.36598C139.911 8.03419 138.079 7.38303 135.96 7.38303C133.87 7.38303 132.037 8.03455 130.518 9.36598C129 10.6694 128.228 12.4823 128.228 14.8043C128.228 17.1277 129 18.9399 130.518 20.2717C132.037 21.5743 133.87 22.2266 135.96 22.2266C138.079 22.2266 139.911 21.574 141.43 20.2717C142.977 18.9399 143.748 17.1277 143.748 14.805C143.748 12.4823 142.976 10.6687 141.43 9.36598ZM133.098 17.7781C132.297 17.0141 131.893 16.0224 131.893 14.8043C131.893 13.5872 132.293 12.5952 133.098 11.8588C133.898 11.0947 134.845 10.7262 135.959 10.7262C137.074 10.7262 138.049 11.0947 138.85 11.8588C139.68 12.5952 140.083 13.5868 140.083 14.805C140.083 16.0232 139.683 17.0148 138.85 17.7789C138.05 18.5152 137.075 18.8831 135.959 18.8831C134.845 18.8831 133.9 18.5152 133.098 17.7789V17.7781ZM149.164 21.8282V2.39133H145.555V21.8282H149.164ZM160.81 7.77962V15.5349C160.81 17.4038 159.789 18.6422 157.845 18.6422C155.869 18.6422 154.874 17.4046 154.874 15.5349V7.77962H151.26V16.1296C151.26 19.3649 153.322 22.2248 157.845 22.2248H157.873C162.369 22.2248 164.427 19.3019 164.427 16.1296V7.77962H160.81ZM124.387 7.77962L120.779 17.2967L117.171 7.77962H113.334L119.091 21.8293H122.471L128.227 7.77962H124.387ZM113.352 14.408C113.352 12.3683 112.694 10.6978 111.405 9.36598C110.116 8.03419 108.457 7.38303 106.423 7.38303C104.334 7.38303 102.558 8.09172 101.096 9.47888C99.6627 10.8675 98.9492 12.6228 98.9492 14.8046C98.9492 16.986 99.6642 18.7702 101.068 20.1573C102.501 21.5459 104.219 22.2255 106.252 22.2255C109.375 22.2255 111.58 20.866 112.923 18.1183L110.232 16.5887C109.346 18.316 108.056 19.1664 106.309 19.1664C104.162 19.1664 102.644 17.8069 102.415 15.6539H113.351V14.4073L113.352 14.408ZM106.307 10.1024C108.34 10.1024 109.687 11.235 110.029 13.0486H102.413C102.958 11.3781 104.445 10.1024 106.307 10.1024ZM98.9492 21.8289L94.109 13.4448C97.1718 12.3399 98.6896 10.4141 98.6896 7.60955C98.6928 4.18191 95.9419 2.00049 91.5616 2.00049H82.9988V21.8282H86.779V13.7835H89.9873L94.6251 21.8285L98.9492 21.8289ZM91.5602 5.28683C93.7939 5.28683 94.9111 6.16486 94.9111 7.89217C94.9111 9.61947 93.7932 10.4975 91.5602 10.4975H86.7798V5.28755L91.5602 5.28683ZM170.544 22.2244C168.221 22.2244 166.338 20.3616 166.338 18.0611V3.98416H169.946V7.78502H173.039V10.674H169.946V17.8321C169.946 18.5062 170.498 19.0524 171.181 19.0524H173.039V22.2241L170.544 22.2244Z" fill="#F2F2F5"/>
</g>
<rect width="21.8171" height="21.8171" rx="6" fill="#3F3F51"/>
<path d="M12.7811 7.54053H9.02881V14.2834H12.7811V7.54053Z" fill="#FF5F00"/>
<path d="M9.26699 10.9123C9.2664 10.2629 9.41356 9.6219 9.69732 9.03779C9.98109 8.45369 10.394 7.94179 10.9049 7.54086C10.2723 7.04361 9.51251 6.73438 8.71247 6.64851C7.91242 6.56265 7.10436 6.7036 6.38064 7.05527C5.65691 7.40694 5.04673 7.95513 4.61983 8.63719C4.19294 9.31925 3.96655 10.1077 3.96655 10.9123C3.96655 11.7169 4.19294 12.5054 4.61983 13.1874C5.04673 13.8695 5.65691 14.4177 6.38064 14.7693C7.10436 15.121 7.91242 15.262 8.71247 15.1761C9.51251 15.0902 10.2723 14.781 10.9049 14.2837C10.394 13.8828 9.98109 13.3709 9.69733 12.7868C9.41356 12.2027 9.26641 11.5617 9.26699 10.9123Z" fill="#EB001B"/>
<path d="M17.8431 10.9123C17.8432 11.7169 17.6168 12.5053 17.1899 13.1874C16.7631 13.8695 16.1529 14.4177 15.4292 14.7693C14.7055 15.121 13.8974 15.262 13.0974 15.1761C12.2974 15.0902 11.5376 14.781 10.905 14.2837C11.4154 13.8824 11.828 13.3704 12.1118 12.7864C12.3955 12.2024 12.5429 11.5616 12.5429 10.9123C12.5429 10.263 12.3955 9.62221 12.1118 9.03819C11.828 8.45417 11.4154 7.94219 10.905 7.54086C11.5376 7.04361 12.2974 6.73438 13.0974 6.64851C13.8974 6.56265 14.7055 6.7036 15.4292 7.05528C16.1529 7.40695 16.7631 7.95515 17.1899 8.63721C17.6168 9.31927 17.8432 10.1077 17.8431 10.9123Z" fill="#F79E1B"/>
<path d="M17.434 13.5693V13.4312H17.4897V13.4031H17.3479V13.4312H17.4036V13.5693H17.434ZM17.7092 13.5693V13.4028H17.6658L17.6158 13.5173L17.5658 13.4028H17.5223V13.5693H17.553V13.4437L17.5999 13.552H17.6317L17.6786 13.4435V13.5693H17.7092Z" fill="#F79E1B"/>
<rect x="26.8171" width="21.8171" height="21.8171" rx="6" fill="#1434CB"/>
<path d="M37.6755 8.44381L36.6122 13.4149H35.3261L36.3895 8.44381H37.6755ZM43.0861 11.6537L43.7629 9.78696L44.1525 11.6537H43.0861ZM44.5214 13.4149H45.7106L44.6717 8.44381H43.5748C43.3276 8.44381 43.1191 8.58715 43.0269 8.8082L41.0972 13.4149H42.4479L42.716 12.6725H44.3657L44.5214 13.4149ZM41.1642 11.792C41.1698 10.4801 39.3506 10.4074 39.3628 9.82117C39.3667 9.64306 39.5366 9.45332 39.908 9.4048C40.0922 9.3811 40.6003 9.36187 41.1764 9.6273L41.4017 8.57273C41.0923 8.46081 40.6942 8.35303 40.1987 8.35303C38.9274 8.35303 38.033 9.02834 38.0259 9.99615C38.0177 10.7118 38.6647 11.1109 39.1512 11.3492C39.6528 11.5929 39.8208 11.7491 39.8184 11.9668C39.8149 12.3003 39.4184 12.448 39.0492 12.4536C38.4023 12.4636 38.0273 12.2787 37.7285 12.1394L37.495 13.2292C37.796 13.3669 38.3506 13.4868 38.9248 13.4929C40.2764 13.4929 41.1602 12.8255 41.1642 11.792ZM35.8378 8.44381L33.754 13.4149H32.3948L31.3693 9.44762C31.3071 9.20366 31.2529 9.11399 31.0638 9.0109C30.7546 8.84297 30.2441 8.68588 29.7952 8.58816L29.8256 8.44381H32.0139C32.2926 8.44381 32.5434 8.6293 32.6072 8.95041L33.1489 11.8272L34.4867 8.44381H35.8378Z" fill="white"/>
<g clip-path="url(#clip1_819_10721)">
<rect x="53.6343" width="21.8171" height="21.8171" rx="6" fill="#1434CB"/>
<g clip-path="url(#clip2_819_10721)">
<path d="M52.9487 -0.456543H75.801V11.8803L74.6693 13.6466L75.801 15.2205V22.3958H52.9487V10.7669L53.6566 9.95356L52.9487 9.17693V-0.456543Z" fill="#016FD0"/>
<path d="M57.3833 15.4675V11.8799H61.184L61.5918 12.4114L62.0133 11.8799H75.8003V15.2201C75.8003 15.2201 75.4406 15.4629 75.0237 15.4675H67.3879L66.9274 14.9017V15.4675H65.4223V14.503C65.4223 14.503 65.2161 14.6382 64.7716 14.6382H64.2585V15.4698H61.979L61.5712 14.9269L61.1588 15.4698H57.3833V15.4675Z" fill="white"/>
<path d="M52.9487 9.17789L53.8055 7.18018H55.2878L55.7735 8.29816V7.18018H57.6154L57.9041 7.98888L58.1836 7.18018H66.4516V7.58568C66.4516 7.58568 66.8869 7.18018 67.5994 7.18018L70.2821 7.18934L70.7609 8.29358V7.18018H72.3027L72.7266 7.81477V7.18018H74.2821V10.7678H72.7266L72.3211 10.1309V10.7678H70.0576L69.8308 10.2019H69.2214L68.9969 10.7678H67.4619C66.848 10.7678 66.4539 10.3692 66.4539 10.3692V10.7678H64.1355L63.675 10.2019V10.7678H55.0679L54.8411 10.2019H54.234L54.0072 10.7678H52.9487V9.17789Z" fill="white"/>
<path d="M54.1073 7.62207L52.9526 10.3094H53.7041L53.9171 9.77099H55.1565L55.3696 10.3094H56.1394L54.9847 7.62207H54.1073ZM54.5357 8.2475L54.9137 9.18679H54.1577L54.5357 8.2475Z" fill="#016FD0"/>
<path d="M56.2188 10.3094V7.62207L57.2886 7.62665L57.9095 9.35861L58.5166 7.62207H59.5773V10.3094H58.906V8.32998L58.1936 10.3094H57.6048L56.89 8.32998V10.3094H56.2188Z" fill="#016FD0"/>
<path d="M60.0364 10.3094V7.62207H62.2288V8.2223H60.7168V8.68278H62.1922V9.24865H60.7145V9.72517H62.2265V10.3094H60.0364Z" fill="#016FD0"/>
<path d="M62.6157 7.62207V10.3094H63.287V9.35403H63.5688L64.3752 10.3094H65.1953L64.311 9.31967C64.673 9.28989 65.0487 8.97832 65.0487 8.49492C65.0487 7.92906 64.6043 7.62436 64.1094 7.62436L62.6157 7.62207ZM63.287 8.22459H64.0544C64.2377 8.22459 64.3729 8.36892 64.3729 8.50638C64.3729 8.68507 64.1988 8.78817 64.0636 8.78817H63.287V8.22459Z" fill="#016FD0"/>
<path d="M66.009 10.3094H65.324V7.62207H66.009V10.3094Z" fill="#016FD0"/>
<path d="M67.6364 10.31H67.4875C66.7704 10.31 66.3374 9.74643 66.3374 8.97895C66.3374 8.19316 66.7681 7.625 67.6707 7.625H68.413V8.26189H67.6455C67.279 8.26189 67.0178 8.54826 67.0178 8.98583C67.0178 9.50588 67.3156 9.72352 67.7418 9.72352H67.9182L67.6364 10.31Z" fill="#016FD0"/>
<path d="M69.0987 7.62207L67.9441 10.3094H68.6955L68.9086 9.77099H70.148L70.3611 10.3094H71.1285L69.9739 7.62207H69.0987ZM69.5249 8.2475L69.9029 9.18679H69.1468L69.5249 8.2475Z" fill="#016FD0"/>
<path d="M71.2063 10.3094V7.62207H72.0608L73.1513 9.3105V7.62207H73.8226V10.3094H72.9955L71.8775 8.5774V10.3094H71.2063Z" fill="#016FD0"/>
<path d="M57.8464 15.0105V12.3232H60.0389V12.9235H58.5268V13.384H60.0045V13.9498H58.5268V14.4263H60.0389V15.0105H57.8464Z" fill="#016FD0"/>
<path d="M68.5811 15.0105V12.3232H70.7735V12.9235H69.2615V13.384H70.7323V13.9498H69.2615V14.4263H70.7735V15.0105H68.5811Z" fill="#016FD0"/>
<path d="M60.1207 15.0105L61.1882 13.6841L60.0955 12.3232H60.9408L61.5915 13.164L62.2444 12.3232H63.0577L61.9786 13.6657L63.0485 15.0082H62.2031L61.5708 14.1812L60.9546 15.0082L60.1207 15.0105Z" fill="#016FD0"/>
<path d="M63.1316 12.3232V15.0105H63.8212V14.1629H64.5291C65.127 14.1629 65.5806 13.8444 65.5806 13.2282C65.5806 12.7173 65.2255 12.3255 64.6161 12.3255H63.1316V12.3232ZM63.8212 12.9326H64.5657C64.7582 12.9326 64.8979 13.0518 64.8979 13.2419C64.8979 13.4206 64.7605 13.5512 64.5634 13.5512H63.8212V12.9326Z" fill="#016FD0"/>
<path d="M65.8672 12.3232V15.0105H66.5384V14.0552H66.8202L67.6266 15.0105H68.4468L67.5625 14.0208C67.9245 13.9911 68.3002 13.6795 68.3002 13.1961C68.3002 12.6302 67.8557 12.3255 67.3609 12.3255L65.8672 12.3232ZM66.5407 12.9258H67.3082C67.4915 12.9258 67.6266 13.0701 67.6266 13.2076C67.6266 13.3862 67.4525 13.4893 67.3174 13.4893H66.5407V12.9258Z" fill="#016FD0"/>
<path d="M71.0848 15.0097V14.4255H72.4296C72.6289 14.4255 72.7136 14.3178 72.7136 14.201C72.7136 14.0887 72.6289 13.9742 72.4296 13.9742H71.8225C71.2955 13.9742 71 13.6535 71 13.1701C71 12.7394 71.2703 12.3247 72.0538 12.3247H73.362L73.0802 12.9295H71.9485C71.7331 12.9295 71.6667 13.0441 71.6667 13.1517C71.6667 13.264 71.7491 13.3854 71.9141 13.3854H72.551C73.1398 13.3854 73.3941 13.7199 73.3941 14.1575C73.3941 14.6271 73.11 15.012 72.5189 15.012H71.0848V15.0097Z" fill="#016FD0"/>
<path d="M73.5491 15.0097V14.4255H74.8939C75.0932 14.4255 75.178 14.3178 75.178 14.201C75.178 14.0887 75.0932 13.9742 74.8939 13.9742H74.2868C73.7599 13.9742 73.4644 13.6535 73.4644 13.1701C73.4644 12.7394 73.7347 12.3247 74.5182 12.3247H75.8263L75.5445 12.9295H74.4128C74.1975 12.9295 74.131 13.0441 74.131 13.1517C74.131 13.264 74.2135 13.3854 74.3784 13.3854H75.0153C75.6041 13.3854 75.8584 13.7199 75.8584 14.1575C75.8584 14.6271 75.5743 15.012 74.9833 15.012H73.5491V15.0097Z" fill="#016FD0"/>
</g>
</g>
<defs>
<clipPath id="clip0_819_10721">
<rect width="90.0403" height="20.2264" fill="white" transform="translate(83 2)"/>
</clipPath>
<clipPath id="clip1_819_10721">
<rect x="53.6343" width="21.8171" height="21.8171" rx="6" fill="white"/>
</clipPath>
<clipPath id="clip2_819_10721">
<rect width="22.9096" height="22.8523" fill="white" transform="translate(52.9487 -0.456055)"/>
</clipPath>
</defs>
</svg>
