<svg width="62" height="25" viewBox="0 0 62 25" fill="none" xmlns="http://www.w3.org/2000/svg">
<path d="M26.2922 1.18848C28.585 1.18848 30.258 1.65838 31.3112 2.59818C32.3645 3.53799 32.8911 4.85452 32.8911 6.54779C32.8911 7.31745 32.7695 8.05066 32.5265 8.74741C32.2915 9.43606 31.9027 10.0477 31.3598 10.5825C30.817 11.1091 30.1 11.5263 29.2088 11.8342C28.3257 12.142 27.236 12.296 25.9398 12.296H24.044V18.9556H21.1273V1.18848H26.2922ZM26.0977 3.60685H24.044V9.86546H25.6359C26.5514 9.86546 27.3292 9.76013 27.9693 9.54949C28.6093 9.33074 29.0954 8.98642 29.4276 8.51651C29.7597 8.04661 29.9258 7.42683 29.9258 6.65716C29.9258 5.62824 29.6139 4.86262 28.9901 4.36031C28.3743 3.858 27.4102 3.60685 26.0977 3.60685Z" fill="white"/>
<path d="M41.4222 5.24746C43.1236 5.24746 44.4077 5.62419 45.2746 6.37765C46.1496 7.13111 46.5871 8.30587 46.5871 9.90191V18.9556H44.5576L44.0107 17.0477H43.9135C43.5327 17.5338 43.1398 17.9348 42.7347 18.2508C42.3296 18.5667 41.8597 18.8017 41.325 18.9556C40.7984 19.1177 40.1543 19.1987 39.3927 19.1987C38.5907 19.1987 37.8736 19.0528 37.2417 18.7612C36.6098 18.4614 36.1115 18.0077 35.7469 17.4001C35.3824 16.7925 35.2001 16.0228 35.2001 15.0911C35.2001 13.7057 35.7145 12.6646 36.7435 11.9679C37.7805 11.2711 39.3441 10.8863 41.4344 10.8134L43.7677 10.7283V10.0234C43.7677 9.09174 43.5489 8.42739 43.1114 8.03041C42.682 7.63342 42.0744 7.43493 41.2885 7.43493C40.6161 7.43493 39.9639 7.53215 39.332 7.72659C38.7 7.92103 38.0843 8.16004 37.4848 8.4436L36.5612 6.42626C37.2174 6.07789 37.9628 5.79432 38.7972 5.57558C39.6398 5.35683 40.5148 5.24746 41.4222 5.24746ZM43.7555 12.5269L42.0177 12.5876C40.5918 12.6363 39.5912 12.8793 39.016 13.3168C38.4408 13.7543 38.1532 14.3538 38.1532 15.1154C38.1532 15.7797 38.3517 16.2658 38.7486 16.5737C39.1456 16.8735 39.6682 17.0234 40.3163 17.0234C41.3047 17.0234 42.123 16.7438 42.7712 16.1848C43.4274 15.6177 43.7555 14.7873 43.7555 13.6935V12.5269Z" fill="white"/>
<path d="M48.5558 5.50266H51.6669L54.4255 13.1831C54.5471 13.5315 54.6564 13.8758 54.7537 14.2161C54.859 14.5483 54.9481 14.8764 55.021 15.2005C55.102 15.5245 55.1668 15.8486 55.2155 16.1727H55.2884C55.3694 15.7514 55.4828 15.2815 55.6286 14.763C55.7826 14.2364 55.9527 13.7097 56.1391 13.1831L58.7883 5.50266H61.8629L56.0904 20.8028C55.7583 21.6778 55.3491 22.4232 54.863 23.0389C54.385 23.6627 53.8179 24.1326 53.1617 24.4486C52.5054 24.7727 51.756 24.9347 50.9134 24.9347C50.5083 24.9347 50.1559 24.9104 49.8561 24.8618C49.5564 24.8213 49.3012 24.7767 49.0905 24.7281V22.4434C49.2607 22.4839 49.4754 22.5204 49.7346 22.5528C49.9939 22.5852 50.2612 22.6014 50.5367 22.6014C51.0471 22.6014 51.4886 22.5001 51.8613 22.2976C52.234 22.0951 52.55 21.8074 52.8092 21.4348C53.0685 21.0702 53.2832 20.6529 53.4533 20.183L53.9273 18.9192L48.5558 5.50266Z" fill="white"/>
<g clip-path="url(#clip0_452_13719)">
<path d="M15.6015 16.3077C15.9582 17.1169 15.6015 18.1365 14.8562 18.5492C14.4281 18.7839 13.9444 19.0024 13.4608 19.1319C12.66 19.3261 11.8434 19.4394 11.0188 19.4556C9.70272 19.4556 8.37867 18.6868 7.80782 17.7481C7.65718 18.0718 7.12598 18.7192 6.19835 19.0267C5.61165 19.2209 4.89809 19.4556 3.41547 19.4556C2.09143 19.4556 1.3303 18.8405 0.933876 18.3226C0.299602 17.5053 0.204461 16.4614 0.331316 15.7655L0.339244 15.7331C0.838735 13.1679 1.52058 8.50676 1.83772 6.17619V6.15191C1.92493 5.50454 2.01214 4.85716 2.05971 4.20168C2.09143 3.87799 2.10728 3.54621 2.11521 3.21443C2.11521 2.90693 2.09143 2.59133 2.09143 2.28382C2.09143 1.9925 2.139 1.69309 2.27378 1.43414C2.5037 1.01334 2.87634 0.689651 3.32033 0.535899C3.78811 0.374054 4.27174 0.309316 4.75538 0.25267C5.24694 0.196025 5.74643 0.147471 6.24592 0.10701C6.84848 0.0584564 7.45897 0.0341797 8.06153 0.0341797C9.10016 0.0341797 10.1467 0.0503642 11.1695 0.268855C12.216 0.487345 13.2705 0.908142 14.0871 1.64454C14.6501 2.14625 15.102 2.78554 15.435 3.48147C15.7283 4.09649 15.8472 4.73577 15.9186 5.2294C16.0455 6.11145 16.0137 7.01778 15.8235 7.89175C15.6728 8.53103 15.4191 9.13795 15.0703 9.68822C14.6818 10.3113 14.1743 10.8778 13.5321 11.4119C13.9286 12.561 14.9434 14.8187 15.6015 16.3077ZM3.93082 2.39711C3.95461 2.826 3.96254 3.25489 3.93875 3.69187C3.92289 4.12885 3.89118 4.56583 3.83568 5.00282C3.78811 5.4398 3.73261 5.87678 3.67711 6.30567L3.65333 6.45133C3.47097 7.81082 3.28069 9.16223 3.07455 10.5136C2.86048 11.9298 2.63056 13.354 2.38478 14.7702C2.27378 15.4337 2.028 16.2753 2.36892 16.9065C2.6702 17.4649 3.43926 17.5377 3.97839 17.4811C5.93671 17.2787 6.25385 16.8337 6.25385 16.8337C5.86536 16.3886 6.20628 14.3736 6.59477 11.6627H7.99018L9.44901 16.1701C9.44901 16.1701 9.87714 17.562 11.0743 17.4972C12.6045 17.4082 13.7304 17.0522 13.8969 16.858C13.4291 16.5909 12.0733 13.1436 11.3439 10.6188C11.7007 10.4003 12.0416 10.1576 12.3667 9.89053C12.8107 9.51829 13.2229 9.09749 13.5401 8.59577C13.77 8.23162 13.9365 7.8351 14.0396 7.4224C14.0871 7.19581 14.1189 6.96923 14.1347 6.74265C14.1664 6.33804 14.1585 5.94152 14.0951 5.5369C14.0396 5.15657 13.9603 4.72768 13.7938 4.38781C13.4846 3.74043 13.0406 3.18206 12.446 2.81791C11.439 2.21099 10.2736 2.0977 9.13187 2.03296C7.91089 1.95204 6.67406 1.9925 5.45308 2.14625C5.3183 2.16244 3.92289 2.29192 3.93082 2.39711ZM7.68097 4.14504C7.44312 5.83632 7.26076 7.25246 6.91984 9.46973C7.83161 9.45355 9.90886 9.8177 10.3687 6.79929C10.7493 4.27451 9.06052 4.03984 7.68097 4.14504Z" fill="#F2F2F5"/>
</g>
<defs>
<clipPath id="clip0_452_13719">
<rect width="15.7221" height="19.4214" fill="white" transform="translate(0.284424 0.0341797)"/>
</clipPath>
</defs>
</svg>
