<svg width="16" height="15" viewBox="0 0 16 15" fill="none" xmlns="http://www.w3.org/2000/svg">
<path d="M7.6916 1.13595C7.84547 0.700693 8.46101 0.700693 8.61488 1.13595L10.0653 5.2388C10.1339 5.433 10.3168 5.56346 10.5227 5.56522L15.0324 5.60369C15.5087 5.60776 15.6994 6.22062 15.3094 6.49416L11.7305 9.00449C11.5534 9.12874 11.4788 9.35452 11.547 9.55983L12.895 13.6139C13.0425 14.0575 12.5438 14.4358 12.1563 14.1742L8.42727 11.6557C8.2617 11.5439 8.04478 11.5439 7.8792 11.6557L4.15014 14.1742C3.76271 14.4358 3.26397 14.0575 3.41148 13.6139L4.75943 9.55983C4.8277 9.35452 4.75311 9.12874 4.57598 9.00449L0.997062 6.49416C0.607086 6.22062 0.797729 5.60776 1.27406 5.60369L5.78374 5.56522C5.98971 5.56346 6.17255 5.433 6.2412 5.2388L7.6916 1.13595Z" fill="#FDAC42"/>
</svg>
