<svg xmlns="http://www.w3.org/2000/svg" width="61" height="61" fill="none"><g filter="url(#a)"><circle cx="30.312" cy="28.1" r="26.541" fill="#598CFF"/><mask id="b" width="54" height="54" x="3" y="1" maskUnits="userSpaceOnUse" style="mask-type:alpha"><circle cx="30.312" cy="28.1" r="26.541" fill="#598CFF"/></mask><g mask="url(#b)"><path fill="#A5B6DD" d="m13.668 36.088 1.814 1.197 12.163-4.853-4.42-2.744-9.557 6.4Z"/><path fill="#E5E7EC" d="M23.468 32.283a1.325 1.325 0 0 1-1.665.492l-2.365-1.078 1.816-2.833 1.967 1.701a1.326 1.326 0 0 1 .247 1.718Z"/><path fill="#A5B6DD" d="M21.216 30.839c.501-.783.517-1.668.036-1.977-.482-.308-1.278.076-1.779.859-.5.782-.517 1.667-.035 1.976.481.308 1.277-.076 1.778-.858Z"/><path fill="#E5E7EC" d="M45.452 28.615c-.19 1.47-1.324 7.075-1.324 7.075H40.95l-1.551-3.106s2.522-2.39 3.858-4.59c.471-.776.909-1.11 1.263-1.152.4-.05.702.264.852.73.101.338.129.694.08 1.043Z"/><path fill="#fff" d="M45.366 27.572s-1.51 5.881-4.347 5.881a3.838 3.838 0 0 1-1.295-.207l-.325-.663s2.522-2.39 3.858-4.59c.471-.775.909-1.109 1.263-1.151l.846.73Z"/><path fill="#A5B6DD" d="M44.621 27.91c-.037.69-.138 1.376-.302 2.047-.422 1.723-1.698 3.698-3.054 3.927-.498.083-.934-.079-1.295-.208l-.332-.663s2.523-2.39 3.86-4.59c.47-.776.907-1.11 1.261-1.152l-.138.64Z"/><path fill="#fff" d="M44.616 37.57c-3.08.014-7.515-2.17-17.047-6.548-11.653-5.352-15.94-8.477-14.73-10.295.069-.108.147-.21.234-.303 1.291-1.364 3.65-.21 3.65-.21l25.593 13.938c2.54 1.529 2.494 2.84 2.3 3.418Z"/><path fill="#97ADDB" d="M42.424 29.193s.908-.757 1.68-.454c.772.303-.263 2.52-.263 2.52l.387.7 1.324-4.64-2.572 1.023-.556.851Z"/><path fill="#A5B6DD" d="m43.882 37.572-.076.209c-3.08.014-6.81-1.98-16.343-6.363-11.653-5.354-15.94-8.484-14.73-10.302.07-.107.148-.209.235-.303 1.291-1.363 3.65-.209 3.65-.209l25.593 13.938c2.544 1.538 1.864 2.451 1.67 3.03Z"/><path fill="#fff" d="M15.224 21.58a.416.416 0 1 0 0-.833.416.416 0 0 0 0 .832ZM16.646 22.336a.416.416 0 1 0 0-.833.416.416 0 0 0 0 .833ZM18.065 23.091a.416.416 0 1 0 0-.832.416.416 0 0 0 0 .832ZM19.484 23.848a.416.416 0 1 0 0-.833.416.416 0 0 0 0 .833ZM20.903 24.604a.416.416 0 1 0 0-.832.416.416 0 0 0 0 .832ZM22.323 25.36a.416.416 0 1 0 0-.833.416.416 0 0 0 0 .833ZM23.744 26.117a.416.416 0 1 0 0-.832.416.416 0 0 0 0 .832ZM25.163 26.873a.416.416 0 1 0 0-.833.416.416 0 0 0 0 .833ZM26.582 27.63a.416.416 0 1 0 0-.834.416.416 0 0 0 0 .833ZM28.002 28.386a.416.416 0 1 0-.001-.833.416.416 0 0 0 0 .832ZM29.423 29.142a.416.416 0 1 0 0-.833.416.416 0 0 0 0 .833ZM30.842 29.897a.416.416 0 1 0 0-.833.416.416 0 0 0 0 .833ZM32.261 30.653a.416.416 0 1 0 0-.833.416.416 0 0 0 0 .833ZM33.682 31.41a.416.416 0 1 0 0-.833.416.416 0 0 0 0 .833ZM35.102 32.166a.416.416 0 1 0 0-.833.416.416 0 0 0 0 .833ZM36.523 32.924a.416.416 0 1 0 0-.833.416.416 0 0 0 0 .833ZM37.941 33.68a.416.416 0 1 0 0-.833.416.416 0 0 0 0 .832ZM39.361 34.435a.416.416 0 1 0 0-.833.416.416 0 0 0 0 .833Z"/><path fill="#97ADDB" d="M36.404 32.496s-1.007-.606-1.305-1.082c-.32-.512.09-.89.832-.74l-1.157-.633-1.839.607 3.469 1.848Z"/><path fill="#fff" d="M20.47 30.382c.34-.485.46-.987.27-1.12-.19-.134-.62.151-.959.636-.34.485-.46.987-.27 1.12.19.134.62-.151.959-.636Z"/><path fill="#A5B6DD" d="m38.374 36.96-2.157 1.673 1.155.758 5.088-1.94-4.086-.492Z"/><path fill="#E5E7EC" d="M44.616 37.57a.64.64 0 0 1-.42.4c-3.211 1.004-7.34-1.097-18.674-6.304-11.652-5.352-15.94-8.484-14.729-10.302.578-.868 1.49-1.022 2.284-.947.554.06 1.094.21 1.6.443 0 0 23.964 12.84 24.5 13.116.535.278 1.475.618 1.815.188.34-.43-.77-1.157-.77-1.157l2.094 1.14c2.54 1.534 2.494 2.844 2.3 3.423Z"/><path fill="#fff" d="m53.328 26.041-.496.119L33.3 30.829l-1.804-.879-.091-.045v-3.432l20.012-1.701 1.91 1.27Z"/><path fill="#A5B6DD" d="M52.832 26.16 33.3 30.829l-1.804-.879v-2.968l20.01-1.703 1.326.88Z"/><path fill="#E5E7EC" d="M33.297 29.347a1.514 1.514 0 0 1-1.892.56l-2.688-1.226 2.062-3.218 2.235 1.93a1.515 1.515 0 0 1 .283 1.954Z"/><path fill="#A5B6DD" d="M30.737 27.705c.569-.89.587-1.894.04-2.245-.547-.35-1.451.086-2.02.975-.57.889-.587 1.894-.04 2.245.546.35 1.45-.086 2.02-.975Z"/><path fill="#fff" d="M29.894 27.163c.36-.562.473-1.132.253-1.274-.22-.14-.691.2-1.05.762-.36.563-.474 1.133-.254 1.274.22.142.691-.2 1.05-.762ZM52.706 34.666l-7.546 2.12a1.652 1.652 0 0 1-1.184-.111 1.46 1.46 0 0 1-.255-.152l-1.537-1.142a.37.37 0 0 1 .181-.664l9.009-.925.395.259.937.615Z"/><path fill="#A5B6DD" d="m52.707 34.666-7.6 2.12a1.677 1.677 0 0 1-1.194-.111l-1.406-1.04a.365.365 0 0 1-.02-.578.366.366 0 0 1 .203-.084l9.08-.925.937.618Z"/></g></g><defs><filter id="a" width="59.916" height="59.916" x=".354" y=".876" color-interpolation-filters="sRGB" filterUnits="userSpaceOnUse"><feFlood flood-opacity="0" result="BackgroundImageFix"/><feColorMatrix in="SourceAlpha" result="hardAlpha" values="0 0 0 0 0 0 0 0 0 0 0 0 0 0 0 0 0 0 127 0"/><feOffset dy="2.734"/><feGaussianBlur stdDeviation="1.709"/><feComposite in2="hardAlpha" operator="out"/><feColorMatrix values="0 0 0 0 0 0 0 0 0 0 0 0 0 0 0 0 0 0 0.04 0"/><feBlend in2="BackgroundImageFix" result="effect1_dropShadow_452_15891"/><feBlend in="SourceGraphic" in2="effect1_dropShadow_452_15891" result="shape"/></filter></defs></svg>