<svg xmlns="http://www.w3.org/2000/svg" width="61" height="61" fill="none"><g filter="url(#a)"><circle cx="30.317" cy="28.021" r="26.541" fill="#598CFF"/><mask id="b" width="54" height="54" x="3" y="1" maskUnits="userSpaceOnUse" style="mask-type:alpha"><circle cx="30.317" cy="28.021" r="26.541" fill="#598CFF"/></mask><g mask="url(#b)"><rect width="41.077" height="51.565" x="9.844" y="13.613" fill="#fff" rx="4.244"/></g><rect width="17.48" height="1.748" x="13.34" y="17.983" fill="#EBEBEB" rx=".849"/><rect width="29.715" height="1.748" x="13.34" y="24.975" fill="#EBEBEB" rx=".849"/><rect width="29.715" height="1.748" x="13.34" y="32.84" fill="#EBEBEB" rx=".849"/><rect width="29.715" height="1.748" x="13.34" y="40.706" fill="#EBEBEB" rx=".849"/><rect width="17.48" height="1.748" x="13.34" y="21.479" fill="#EBEBEB" rx=".849"/><rect width="29.715" height="1.748" x="13.34" y="28.471" fill="#EBEBEB" rx=".849"/><rect width="29.715" height="1.748" x="13.34" y="36.336" fill="#EBEBEB" rx=".849"/><rect width="19.227" height="1.748" x="13.34" y="44.203" fill="#EBEBEB" rx=".849"/></g><defs><filter id="a" width="59.916" height="59.916" x=".36" y=".797" color-interpolation-filters="sRGB" filterUnits="userSpaceOnUse"><feFlood flood-opacity="0" result="BackgroundImageFix"/><feColorMatrix in="SourceAlpha" result="hardAlpha" values="0 0 0 0 0 0 0 0 0 0 0 0 0 0 0 0 0 0 127 0"/><feOffset dy="2.734"/><feGaussianBlur stdDeviation="1.709"/><feComposite in2="hardAlpha" operator="out"/><feColorMatrix values="0 0 0 0 0 0 0 0 0 0 0 0 0 0 0 0 0 0 0.04 0"/><feBlend in2="BackgroundImageFix" result="effect1_dropShadow_452_16251"/><feBlend in="SourceGraphic" in2="effect1_dropShadow_452_16251" result="shape"/></filter></defs></svg>