<svg width="61" height="61" viewBox="0 0 61 61" fill="none" xmlns="http://www.w3.org/2000/svg">
<g filter="url(#filter0_d_1302_10833)">
<circle cx="26.5406" cy="26.5406" r="26.5406" transform="matrix(-1 0 0 1 56.7635 0.844849)" fill="#598CFF"/>
<mask id="mask0_1302_10833" style="mask-type:alpha" maskUnits="userSpaceOnUse" x="3" y="0" width="54" height="54">
<circle cx="26.5406" cy="26.5406" r="26.5406" transform="matrix(-1 0 0 1 56.7635 0.844849)" fill="#598CFF"/>
</mask>
<g mask="url(#mask0_1302_10833)">
<rect width="62.6102" height="8.10779" transform="matrix(-1 0 0 1 60.8464 29.8099)" fill="#598CFF"/>
<path d="M14.229 36.004C16.8006 36.004 18.8854 34.2511 18.8854 32.0889C18.8854 29.9267 16.8006 28.1739 14.229 28.1739C11.6574 28.1739 9.57263 29.9267 9.57263 32.0889C9.57263 34.2511 11.6574 36.004 14.229 36.004Z" fill="black"/>
<path d="M44.7393 36.004C47.3109 36.004 49.3956 34.2511 49.3956 32.0889C49.3956 29.9267 47.3109 28.1739 44.7393 28.1739C42.1676 28.1739 40.0829 29.9267 40.0829 32.0889C40.0829 34.2511 42.1676 36.004 44.7393 36.004Z" fill="black"/>
<path d="M17.2796 32.3582C17.2796 32.3887 17.2796 32.4192 17.2796 32.4497C17.251 33.379 16.8625 34.2606 16.1962 34.9078C15.53 35.555 14.6384 35.917 13.7104 35.917C12.7824 35.917 11.8908 35.555 11.2245 34.9078C10.5583 34.2606 10.1697 33.379 10.1412 32.4497C10.1412 32.4192 10.1412 32.3898 10.1412 32.3593C10.1328 31.8843 10.2189 31.4123 10.3945 30.9709C10.5702 30.5296 10.8318 30.1277 11.1642 29.7888C11.4966 29.4498 11.893 29.1806 12.3304 28.9968C12.7677 28.813 13.2372 28.7184 13.7115 28.7184C14.1858 28.7184 14.6553 28.813 15.0927 28.9968C15.53 29.1806 15.9265 29.4498 16.2589 29.7888C16.5912 30.1277 16.8529 30.5296 17.0285 30.9709C17.2042 31.4123 17.2903 31.8843 17.2819 32.3593L17.2796 32.3582Z" fill="#525252"/>
<path d="M54.1747 31.5254C54.1544 31.8314 54.0755 32.466 53.9493 32.7189C53.6551 33.3084 51.882 33.2926 50.0459 33.3807C49.8292 33.3912 49.6158 33.324 49.4442 33.1911C49.2725 33.0583 49.1537 32.8684 49.1092 32.6557C49.1146 32.5289 49.1127 32.4018 49.1035 32.2752C49.1165 32.0947 49.1165 31.9136 49.1035 31.7331C49.0293 30.7538 48.5952 29.8369 47.8851 29.1598C47.1749 28.4827 46.2394 28.0936 45.2594 28.0678C44.2794 28.0419 43.3246 28.3812 42.5799 29.0199C41.8352 29.6586 41.3535 30.5513 41.228 31.5254C41.2072 31.6936 41.1966 31.8629 41.1964 32.0324C41.1964 32.1171 41.1964 32.2006 41.2043 32.2842C41.2122 32.3678 40.9608 32.4807 40.9608 32.5631C40.9608 32.789 39.8066 32.9606 39.8438 33.1774C39.748 33.5162 40.8582 33.8007 40.4773 33.8188L40.3645 33.8245L18.0363 34.0221H18.0002C17.7861 34.0097 17.8943 33.8629 17.812 33.6833C17.9405 33.2666 17.7229 32.8398 17.706 32.3757C17.706 32.3407 17.706 32.3068 17.6993 32.2729C17.706 32.1972 17.7083 32.1205 17.7083 32.0471C17.7083 31.9929 17.7083 31.9341 17.7083 31.8833C17.6831 31.2094 17.4851 30.5533 17.1334 29.9783C16.6879 29.2333 16.0104 28.6554 15.2052 28.3337C14.3999 28.0119 13.5115 27.964 12.6764 28.1974C11.8414 28.4308 11.1059 28.9324 10.5832 29.6253C10.0605 30.3182 9.77937 31.1639 9.78312 32.0324C9.78312 32.0979 9.78311 32.169 9.79326 32.2447C9.7865 32.338 9.78312 32.4329 9.78312 32.5292C9.78312 32.7167 9.55768 32.9312 9.60277 33.165C9.49794 33.5117 9.41227 33.7895 9.01776 33.7578C8.21409 33.6935 7.21428 33.4033 6.96517 33.2598C6.88853 33.2158 7.15003 33.1808 7.11509 33.1243C7.14327 33.043 7.08127 32.9775 7.11509 32.8985C7.12861 32.8657 7.13763 32.8172 7.15116 32.7856C7.1985 32.6726 6.99335 32.5597 6.98095 32.4615C6.9722 32.3954 6.95826 32.33 6.93925 32.2661C6.87502 32.0614 6.82715 31.8518 6.7961 31.6394C6.77822 31.5011 6.78203 31.3609 6.80737 31.2238C6.83721 31.0703 6.88645 30.9212 6.9539 30.7801C7.0035 30.6718 7.06393 30.5689 7.13425 30.4729C7.13425 30.3035 7.12523 30.1432 7.12185 29.993C7.11509 29.7875 7.11171 29.5989 7.12185 29.4284C7.15905 28.604 7.46 28.0869 9.05158 27.5685C9.27701 27.4963 9.51485 27.4251 9.78537 27.3529C12.7442 26.5624 19.93 25.9458 19.93 25.9458C21.4516 25.5269 25.0586 22.6711 26.9466 22.0455C28.8347 21.4199 39.2892 21.1139 41.1491 21.8761L41.2392 21.9134C43.1791 22.7377 48.5242 25.8352 49.772 26.2801C49.8486 26.3049 49.9264 26.3275 50.0064 26.3478C50.3452 26.429 50.689 26.4879 51.0355 26.524C51.2305 26.5477 51.4255 26.568 51.6126 26.5895C52.3171 26.6674 52.9314 26.7555 53.1794 27.0525C53.2968 27.2278 53.3774 27.4253 53.4161 27.6329C53.4477 27.7628 53.477 27.905 53.5018 28.0541C53.5108 28.1083 53.5198 28.167 53.5277 28.219C53.5457 28.3319 53.5615 28.4516 53.5762 28.5713C53.6889 29.4747 53.7137 30.43 53.7295 30.4752C53.9121 31.0104 54.1375 30.9415 54.1747 31.5254Z" fill="#8F8F8F"/>
<path d="M54.1747 31.9308C54.1544 32.2368 54.0755 32.8715 53.9493 33.1244C53.6551 33.7139 51.882 33.698 50.0459 33.7861C49.8292 33.7967 49.6158 33.7295 49.4442 33.5966C49.2725 33.4637 49.1537 33.2739 49.1092 33.0612C49.1146 32.9343 49.1127 32.8072 49.1035 32.6806C49.1165 32.5002 49.1165 32.319 49.1035 32.1386C49.0293 31.1593 48.5952 30.2424 47.8851 29.5653C47.1749 28.8882 46.2394 28.4991 45.2594 28.4732C44.2794 28.4474 43.3246 28.7866 42.5799 29.4253C41.8352 30.064 41.3535 30.9568 41.228 31.9308C41.2072 32.099 41.1966 32.2683 41.1964 32.4378C41.1964 32.5225 41.1964 32.6061 41.2043 32.6896C41.2122 32.7732 41.1964 32.8523 41.1964 32.9347C41.1962 33.1587 41.2151 33.3824 41.2528 33.6032C41.2052 33.7753 41.1047 33.9281 40.9654 34.0396C40.8262 34.1511 40.6553 34.2157 40.4773 34.2243H40.3645L18.0295 34.4253H17.9935C17.8939 34.42 17.7977 34.3877 17.7151 34.3318C17.6325 34.2759 17.5666 34.1985 17.5246 34.108C17.6569 33.6791 17.716 33.2309 17.6993 32.7822C17.6993 32.7472 17.6993 32.7134 17.6925 32.6795C17.6993 32.6038 17.7015 32.527 17.7015 32.4536C17.7015 32.3994 17.7015 32.3407 17.7015 32.2899C17.6763 31.616 17.4784 30.9599 17.1267 30.3849C16.6798 29.6432 16.0027 29.0686 15.1989 28.7491C14.3952 28.4295 13.509 28.3826 12.6761 28.6154C11.8432 28.8483 11.1093 29.3481 10.5869 30.0384C10.0644 30.7287 9.78209 31.5715 9.78312 32.4378C9.78312 32.5033 9.78311 32.5745 9.79326 32.6501C9.7865 32.7442 9.78312 32.8391 9.78312 32.9347C9.78881 33.1563 9.8118 33.3772 9.85187 33.5953C9.79799 33.7706 9.68589 33.9222 9.53417 34.0249C9.38245 34.1276 9.20023 34.1752 9.01776 34.1599C8.21409 34.0955 7.21428 33.8053 6.96517 33.6619C6.89714 33.6274 6.83896 33.5761 6.7961 33.5129C6.82428 33.4316 6.85922 33.3491 6.89303 33.2701L6.93361 33.1741C6.97627 33.0777 6.99148 32.9714 6.97757 32.8669C6.96882 32.8008 6.95488 32.7355 6.93587 32.6716C6.87278 32.4667 6.82604 32.2571 6.7961 32.0449C6.77822 31.9066 6.78203 31.7664 6.80737 31.6293C6.83721 31.4757 6.88645 31.3266 6.9539 31.1855C7.00328 31.0781 7.06332 30.976 7.13312 30.8806C7.13312 30.7112 7.12411 30.5509 7.12072 30.4007C7.11396 30.1952 7.11058 30.0066 7.12072 29.8361C7.15792 29.0118 7.45888 28.4946 9.05045 27.9763C9.27589 27.904 9.51372 27.8328 9.78424 27.7606C12.7431 26.9701 19.9288 26.3536 19.9288 26.3536C21.4505 25.9346 25.0575 23.0788 26.9455 22.4532C28.8335 21.8276 39.2881 21.5216 41.1479 22.2838L41.2381 22.3211C43.178 23.1454 48.523 26.2429 49.7708 26.6878C49.8475 26.7126 49.9253 26.7352 50.0053 26.7556C50.3441 26.8368 50.6879 26.8956 51.0344 26.9317C51.9632 27.0446 52.8638 27.0842 53.176 27.4602C53.2935 27.6356 53.374 27.8331 53.4127 28.0406C53.4443 28.1705 53.4736 28.3128 53.4984 28.4618C53.5266 28.6278 53.5514 28.8006 53.5728 28.979C53.6855 29.8824 53.7103 30.8377 53.7261 30.8829C53.9121 31.4159 54.1375 31.347 54.1747 31.9308Z" fill="#0F0F0F"/>
<path d="M42.0181 30.021C41.5887 30.5788 41.3162 31.2417 41.229 31.9407C41.0194 31.9339 26.5543 31.489 17.7049 32.4601C17.7049 32.4059 17.7049 32.3472 17.7049 32.2964C17.6797 31.6225 17.4817 30.9664 17.13 30.3914C17.3058 30.3598 32.4652 28.9968 42.0181 30.021Z" fill="#171717"/>
<path d="M44.3553 26.7725C44.388 27.9017 40.1848 28.4257 39.4285 32.6693L31.3691 32.7416C31.3691 32.7416 30.9758 29.1936 31.51 25.6275L31.3015 25.6071C31.4584 24.4503 31.7748 23.3208 32.2416 22.2511C32.2416 22.2511 32.4467 22.2386 32.795 22.2274C34.1476 22.1844 37.6565 22.163 39.54 22.9715C41.4033 23.7721 43.2969 24.9691 44.033 25.9945C44.214 26.2167 44.3261 26.4872 44.3553 26.7725Z" stroke="black" stroke-width="0.453991" stroke-miterlimit="10"/>
<path d="M32.2432 22.2451C32.1406 22.6742 32.0538 23.1056 31.9738 23.5392C31.8937 23.9728 31.8193 24.4065 31.7483 24.8423C31.6198 25.7152 31.5229 26.5859 31.4553 27.4644C31.3876 28.3429 31.3482 29.2203 31.3538 30.0978C31.358 30.9775 31.4076 31.8565 31.5026 32.7311L31.5173 32.8734H31.373C29.5458 32.9355 27.7198 32.9773 25.8927 33.0315L23.1525 33.1072C22.2395 33.1331 21.3253 33.158 20.4123 33.176H20.2703L20.2455 33.0394C20.1328 32.4025 20.0516 31.7679 19.9964 31.1276C19.939 30.4857 19.9217 29.8408 19.9445 29.1966C19.9575 28.8721 19.9895 28.5486 20.0404 28.2278C20.0895 27.9013 20.1757 27.5815 20.2973 27.2747C20.3614 27.1163 20.4414 26.965 20.5363 26.823C20.5874 26.7526 20.6423 26.6851 20.7009 26.6209C20.761 26.5596 20.8246 26.5019 20.8914 26.4481C21.145 26.2437 21.4065 26.0563 21.6736 25.8835L21.6116 25.9964V25.9196L21.6736 25.8801C22.4683 25.3561 23.2889 24.8796 24.1275 24.4358C24.9661 23.992 25.8183 23.5765 26.6918 23.2083C27.1303 23.0265 27.5721 22.8526 28.0253 22.7104C28.4768 22.5582 28.9413 22.4475 29.4128 22.3795C29.8829 22.3264 30.354 22.2801 30.8263 22.2485C31.0615 22.2327 31.2978 22.2225 31.5353 22.218C31.7716 22.2112 32.0081 22.2203 32.2432 22.2451ZM32.2432 22.2451C32.0073 22.2312 31.7709 22.2331 31.5353 22.2508C31.3008 22.2643 31.0653 22.2858 30.8308 22.3083C30.3608 22.3546 29.893 22.4145 29.4252 22.4822C28.9641 22.5627 28.5113 22.6856 28.0726 22.8492L27.7423 22.9701L27.4143 23.1022C27.1957 23.1869 26.9815 23.2851 26.764 23.3766C25.9039 23.7583 25.0631 24.1874 24.2391 24.6425C23.4151 25.0975 22.6081 25.5876 21.8337 26.1184L21.8957 26.0054V26.0788L21.8326 26.1229C21.5733 26.3024 21.3163 26.4854 21.0762 26.6875C20.9616 26.7776 20.8613 26.8846 20.7787 27.0048C20.6962 27.1289 20.6271 27.2614 20.5724 27.4C20.3469 27.9646 20.2804 28.5981 20.2523 29.2226C20.2345 29.853 20.2555 30.484 20.3154 31.1118C20.374 31.7408 20.4574 32.372 20.5713 32.9886L20.4033 32.844C21.3174 32.8158 22.2305 32.7955 23.1446 32.7763L25.8848 32.7176C27.7119 32.6803 29.5391 32.6317 31.3662 32.6046L31.2366 32.7514C31.1587 31.8691 31.1263 30.9834 31.1397 30.0978C31.1509 29.2124 31.2039 28.3294 31.2896 27.4497C31.3752 26.5701 31.5082 25.6938 31.6615 24.8265C31.8148 23.9593 31.9997 23.0943 32.242 22.2451H32.2432Z" fill="black"/>
<path d="M45.1593 35.9359C47.1046 35.9359 48.6817 34.356 48.6817 32.4071C48.6817 30.4581 47.1046 28.8782 45.1593 28.8782C43.2139 28.8782 41.6368 30.4581 41.6368 32.4071C41.6368 34.356 43.2139 35.9359 45.1593 35.9359Z" fill="#525252"/>
<path d="M53.4161 28.035C52.4355 27.7628 49.4868 26.969 47.8817 26.812C45.9373 26.6223 37.391 26.6991 37.391 26.6991L26.2737 26.7827C26.2737 26.7827 21.3716 26.6878 17.7928 27.0085C13.097 27.4354 9.8868 28.4607 9.8868 28.4607L8.71228 28.5883L9.05043 27.9695C9.27587 27.8972 9.5137 27.8261 9.78423 27.7538C12.7431 26.9633 19.9288 26.3468 19.9288 26.3468C21.4505 25.9278 25.0575 23.072 26.9455 22.4464C28.8335 21.8208 39.2881 21.5148 41.1479 22.277L41.2381 22.3143C43.178 23.1386 48.523 26.2361 49.7708 26.681C50.9961 27.074 52.7195 26.9069 53.1805 27.4546C53.2976 27.63 53.3777 27.8275 53.4161 28.035Z" fill="#212121"/>
<path d="M9.52398 29.4299C9.29854 29.5959 9.05169 29.7596 8.81837 29.9053C8.25478 30.2621 7.74755 30.514 7.67541 30.4428C7.54353 30.3118 7.52888 29.7111 7.80503 29.1747C7.91573 28.9544 8.07398 28.7615 8.2683 28.6101C8.47063 28.4589 8.69492 28.3397 8.93334 28.2566C9.60964 28.0105 10.3773 28.0116 10.5644 28.3142C10.6771 28.4938 10.1541 28.9714 9.52398 29.4299Z" fill="#8A8A8A"/>
<path d="M9.55962 29.2644C9.33419 29.4304 9.08734 29.5941 8.85401 29.7398C8.29042 30.0966 7.78319 30.3484 7.71105 30.2773C7.57917 30.1463 7.56452 29.5456 7.84068 29.0092C7.95138 28.7889 8.10962 28.596 8.30395 28.4446C8.50627 28.2934 8.73056 28.1742 8.96898 28.0911C9.64529 27.8449 10.4129 27.8461 10.6 28.1487C10.7127 28.3271 10.1897 28.8059 9.55962 29.2644Z" fill="#C2D5FF"/>
<path d="M9.55974 29.2646C9.3771 29.175 9.22323 29.0358 9.11563 28.8629C9.00802 28.69 8.95101 28.4904 8.95106 28.2866C8.95076 28.2204 8.9568 28.1542 8.9691 28.089C9.6454 27.8429 10.413 27.844 10.6001 28.1466C10.7128 28.3273 10.1898 28.8061 9.55974 29.2646Z" fill="white"/>
<path d="M8.85401 29.7399C8.29042 30.0968 7.78319 30.3486 7.71105 30.2775C7.57917 30.1465 7.56452 29.5457 7.84068 29.0093C8.06415 29.0117 8.28144 29.0831 8.46283 29.2139C8.64422 29.3447 8.78084 29.5284 8.85401 29.7399Z" fill="white"/>
<path d="M18.8429 33.1831C20.6543 33.0148 22.4668 32.9042 24.2793 32.815C25.181 32.7653 26.0929 32.737 26.9991 32.702L29.7201 32.6219L32.4423 32.5778L33.8039 32.571C34.2548 32.571 34.7056 32.571 35.1655 32.571C35.6254 32.571 36.074 32.571 36.5272 32.5869L37.8899 32.6185C38.3408 32.6377 38.7917 32.649 39.2516 32.6761L39.9279 32.7167C40.1533 32.7359 40.3787 32.7619 40.6042 32.7833C40.3787 32.7901 40.1533 32.7935 39.9279 32.8025L39.2516 32.8319L37.8922 32.8963L35.1723 33.0092C34.2706 33.0498 33.3598 33.0736 32.4536 33.1063L29.7337 33.1808L27.0127 33.2294C26.1109 33.2373 25.1979 33.2531 24.2905 33.252C22.4758 33.2621 20.661 33.2497 18.8429 33.1831Z" fill="#363636"/>
<path d="M53.5026 28.4558C51.4477 27.0658 44.5325 27.0093 44.5325 27.0093C44.5325 27.0093 27.0015 27.1572 20.8618 27.1572C14.9103 27.1572 10.8299 28.239 10.5797 28.3068C14.7401 26.9088 20.9182 26.6231 20.9182 26.6231C20.9182 26.6231 30.3447 26.4074 38.0761 26.4074C43.1664 26.4074 47.5827 26.6095 50.005 26.7462C51.2054 27.0511 52.7463 26.9336 53.178 27.4508C53.2954 27.6262 53.3759 27.8237 53.4147 28.0312C53.4485 28.1645 53.4778 28.3068 53.5026 28.4558Z" fill="#363636"/>
<path d="M32.4056 25.5854C32.135 25.6247 31.8612 25.6356 31.5884 25.6181L31.3133 25.6057H31.3032L31.0778 25.5978C30.4522 25.5775 29.786 25.5741 29.1086 25.582C28.7332 25.582 28.3534 25.5956 27.9758 25.6069L27.5452 25.6215C27.3457 25.6283 27.1473 25.6362 26.9512 25.6453C24.1806 25.7649 21.7504 26.0032 21.7504 26.0032C23.5414 24.7859 26.0945 23.0842 27.3524 22.7499C28.4864 22.4473 30.5457 22.305 30.8613 22.2802C31.2074 22.2519 31.4745 22.2384 31.6774 22.2339C31.7687 22.2339 31.8465 22.2339 31.913 22.2339C32.0226 22.2317 32.1321 22.237 32.241 22.2497C32.241 22.2497 32.4461 22.2372 32.7944 22.226C33.3862 23.1937 34.3928 25.2783 32.4056 25.5854Z" fill="#C2D5FF"/>
<path d="M43.0177 24.8997C43.0892 24.958 43.1406 25.0373 43.1647 25.1264C43.1889 25.2155 43.1845 25.3099 43.1523 25.3964C43.1201 25.4829 43.0616 25.5571 42.9851 25.6086C42.9086 25.6601 42.8179 25.6862 42.7258 25.6834C40.5165 25.6179 37.0414 25.5524 34.4128 25.5705C33.6238 25.5705 32.9362 25.5817 32.4065 25.5897L31.5926 25.6043L31.3142 25.61H31.3041L31.2376 24.8557L31.082 23.0839L31.6817 22.237C31.773 22.237 31.8508 22.237 31.9173 22.237C32.0268 22.2348 32.1364 22.2401 32.2453 22.2528C32.2453 22.2528 32.4504 22.2404 32.7987 22.2291C33.0952 22.22 33.4942 22.211 33.9575 22.2121C35.6099 22.2121 38.0717 22.342 39.5437 22.9732C40.8941 23.5469 42.1487 24.1951 43.0177 24.8997Z" fill="#C2D5FF"/>
<path d="M21.7521 26.001C22.5163 25.4364 23.2918 24.8717 24.0898 24.3546C24.4874 24.0918 24.8924 23.8389 25.3049 23.5957C25.7164 23.3481 26.1404 23.1219 26.5753 22.9182C26.688 22.8696 26.7939 22.8177 26.9134 22.7759C26.9709 22.7556 27.0261 22.7319 27.0836 22.7115L27.2606 22.6573C27.4933 22.593 27.7292 22.5406 27.9673 22.5004C28.4396 22.4145 28.9153 22.3626 29.3898 22.3129C29.8644 22.2632 30.3412 22.2327 30.8168 22.2113C31.0547 22.2011 31.2948 22.1943 31.5326 22.1898C31.6521 22.1842 31.7715 22.1898 31.891 22.1898C32.0113 22.192 32.1314 22.2014 32.2506 22.2181C32.4355 22.2181 32.6203 22.2181 32.8052 22.2181C32.6214 22.2339 32.4366 22.2519 32.2528 22.2655C32.1354 22.2581 32.0175 22.2581 31.9 22.2655C31.7873 22.2655 31.6633 22.2745 31.545 22.2881L30.836 22.349C30.3626 22.3976 29.8903 22.445 29.4191 22.506C28.948 22.567 28.4791 22.6302 28.0158 22.7172C27.7848 22.758 27.556 22.8108 27.3305 22.8753L27.167 22.9272C27.1118 22.9464 27.0543 22.969 27.0036 22.9904C26.8909 23.03 26.7872 23.0785 26.6801 23.126C26.2518 23.3179 25.8358 23.5472 25.4222 23.7764C25.0085 24.0056 24.6016 24.2529 24.1947 24.4991C23.3662 24.9937 22.5636 25.5041 21.7521 26.001Z" fill="white"/>
<path d="M32.796 22.2218C33.7621 22.1493 34.7316 22.1327 35.6996 22.1721C36.673 22.2012 37.6412 22.3245 38.5908 22.5402C38.7092 22.5684 38.8275 22.6034 38.9459 22.6351C39.0642 22.6667 39.1792 22.7119 39.2953 22.748C39.4114 22.7841 39.5275 22.8372 39.6335 22.8858L39.9716 23.0326C40.4124 23.2336 40.8508 23.4425 41.278 23.6762C41.7067 23.9066 42.1184 24.1674 42.51 24.4565C42.7057 24.6027 42.8938 24.7587 43.0736 24.924C43.0983 24.9444 43.1206 24.9675 43.1401 24.9929C43.1588 25.0196 43.1726 25.0494 43.1807 25.081C43.1986 25.1413 43.2044 25.2047 43.1976 25.2673C43.1956 25.3289 43.1791 25.3893 43.1493 25.4432C43.1195 25.4972 43.0773 25.5434 43.0263 25.5778C43.0732 25.541 43.1109 25.4935 43.1361 25.4394C43.1614 25.3853 43.1736 25.3259 43.1717 25.2662C43.1776 25.2086 43.1687 25.1504 43.1458 25.0972C43.1229 25.044 43.0868 24.9976 43.0409 24.9624C42.852 24.8136 42.6556 24.6745 42.4525 24.5457C42.0479 24.2857 41.6287 24.0493 41.1969 23.8377C40.7674 23.622 40.3278 23.4255 39.886 23.2324L39.5546 23.089C39.4419 23.0416 39.3291 23.0021 39.2243 22.958C39.1195 22.914 38.9989 22.8835 38.8862 22.8451C38.7734 22.8067 38.6607 22.7785 38.5412 22.7502C37.6031 22.538 36.6494 22.4017 35.6895 22.3426C34.728 22.2692 33.7631 22.2297 32.796 22.2218Z" fill="white"/>
<path d="M34.4129 25.5649C33.6239 25.5649 32.9363 25.5762 32.4065 25.5841C32.136 25.6234 31.8621 25.6344 31.5893 25.6169L31.3143 25.6045H31.3042L31.0787 25.5966L31.2343 24.8501L31.8204 22.0621C31.8204 22.0621 33.4807 22.0621 33.944 22.0621L34.4129 25.5649Z" fill="#212121"/>
<path d="M30.5524 27.5507V27.9685H30.398C30.4003 27.9453 30.3974 27.9218 30.3896 27.8999C30.3817 27.8779 30.369 27.858 30.3525 27.8416C30.336 27.8251 30.316 27.8126 30.2941 27.8049C30.2721 27.7971 30.2487 27.7944 30.2255 27.7968H28.9766C28.954 27.7965 28.9316 27.8008 28.9107 27.8093C28.8898 27.8178 28.8708 27.8304 28.8548 27.8464C28.8388 27.8624 28.8262 27.8815 28.8177 27.9024C28.8092 27.9234 28.805 27.9459 28.8053 27.9685H28.6509V27.5507C28.6512 27.4957 28.6731 27.443 28.712 27.4041C28.7508 27.3652 28.8034 27.3432 28.8583 27.3429H30.3462C30.401 27.3432 30.4534 27.3652 30.4921 27.4042C30.5307 27.4431 30.5524 27.4958 30.5524 27.5507Z" fill="#474747"/>
<path d="M30.3631 27.3417H28.8414C28.7362 27.3417 28.6509 27.4269 28.6509 27.532C28.6509 27.6371 28.7362 27.7223 28.8414 27.7223H30.3631C30.4683 27.7223 30.5536 27.6371 30.5536 27.532C30.5536 27.4269 30.4683 27.3417 30.3631 27.3417Z" fill="#3F7BFE"/>
<path d="M42.091 27.5507V27.9685H41.9366C41.9389 27.9452 41.936 27.9216 41.9281 27.8996C41.9202 27.8775 41.9074 27.8576 41.8908 27.8411C41.8741 27.8246 41.854 27.8121 41.8319 27.8045C41.8098 27.7968 41.7863 27.7942 41.763 27.7968H40.5152C40.4927 27.7965 40.4702 27.8008 40.4493 27.8093C40.4284 27.8178 40.4094 27.8304 40.3934 27.8464C40.3774 27.8624 40.3648 27.8815 40.3563 27.9024C40.3478 27.9234 40.3436 27.9459 40.3439 27.9685H40.1884V27.5507C40.1889 27.4956 40.2111 27.4429 40.2502 27.404C40.2892 27.3651 40.3419 27.3432 40.3969 27.3429H41.8836C41.9385 27.3432 41.9911 27.3652 42.03 27.4041C42.0688 27.443 42.0907 27.4957 42.091 27.5507Z" fill="#474747"/>
<path d="M41.9005 27.3417H40.3788C40.2736 27.3417 40.1884 27.4269 40.1884 27.532C40.1884 27.6371 40.2736 27.7223 40.3788 27.7223H41.9005C42.0057 27.7223 42.091 27.6371 42.091 27.532C42.091 27.4269 42.0057 27.3417 41.9005 27.3417Z" fill="#3F7BFE"/>
<path opacity="0.3" d="M30.8636 22.2782L29.1154 25.5812C28.74 25.5812 28.3601 25.5947 27.9825 25.606L29.7116 22.3968C30.1659 22.3426 30.548 22.303 30.8636 22.2782Z" fill="white"/>
<path d="M10.3478 29.7128C10.3478 29.7128 11.5031 28.0901 13.5749 28.0054C15.6466 27.9207 17.1819 29.7128 17.1819 29.7128C17.1819 29.7128 13.7575 26.7463 10.3478 29.7128Z" fill="#363636"/>
<path d="M41.8524 29.6054C41.8524 29.6054 43.0078 27.9816 45.0795 27.8969C47.1513 27.8122 48.6865 29.6054 48.6865 29.6054C48.6865 29.6054 45.2633 26.6412 41.8524 29.6054Z" fill="#363636"/>
<path d="M6.93925 32.6715C6.87502 32.4667 6.82715 32.2571 6.7961 32.0448C6.77822 31.9065 6.78203 31.7663 6.80737 31.6292C6.83721 31.4756 6.88645 31.3265 6.9539 31.1854C6.98997 31.1922 7.71249 31.3243 7.80943 31.846C7.90637 32.3677 6.89529 32.4569 6.93925 32.6715Z" fill="black"/>
<path d="M8.56318 33.656C8.01532 33.4969 7.45916 33.368 6.89722 33.2698L6.9378 33.1738C6.98045 33.0775 6.99566 32.9712 6.98176 32.8667C6.98176 32.8667 8.46737 33.2292 9.12339 33.0813C9.77941 32.9333 9.90565 34.0321 8.56318 33.656Z" fill="black"/>
<path opacity="0.3" d="M27.5463 25.617L29.3261 22.4156C29.1469 22.4337 29.0297 22.4518 28.8324 22.4755L26.9523 25.6373L27.5463 25.617Z" fill="white"/>
<path opacity="0.5" d="M17.2796 32.3586C17.2796 32.3891 17.2796 32.4196 17.2796 32.4501C16.3234 31.559 15.0697 31.0577 13.7639 31.0442C11.6437 31.0442 10.1885 32.3992 10.1412 32.4489C10.1412 32.4184 10.1412 32.3891 10.1412 32.3586C10.1328 31.8835 10.2189 31.4115 10.3945 30.9702C10.5702 30.5288 10.8318 30.127 11.1642 29.788C11.4966 29.4491 11.893 29.1799 12.3304 28.9961C12.7677 28.8123 13.2372 28.7177 13.7115 28.7177C14.1858 28.7177 14.6553 28.8123 15.0927 28.9961C15.53 29.1799 15.9265 29.4491 16.2589 29.788C16.5912 30.127 16.8529 30.5288 17.0285 30.9702C17.2042 31.4115 17.2903 31.8835 17.2819 32.3586H17.2796Z" fill="black"/>
<path d="M16.1513 32.3587C16.151 32.8423 16.0075 33.315 15.7391 33.717C15.4706 34.119 15.0892 34.4322 14.6431 34.6171C14.3415 34.7419 14.018 34.8049 13.6917 34.8023C13.3654 34.7997 13.0429 34.7316 12.7433 34.602C12.4437 34.4724 12.1731 34.2839 11.9475 34.0478C11.7218 33.8116 11.5457 33.5325 11.4295 33.227C11.2168 32.665 11.2168 32.0444 11.4295 31.4824C11.4802 31.3488 11.5432 31.2202 11.6178 31.0984C11.8877 30.6449 12.2976 30.2918 12.7855 30.0923C13.3216 29.8733 13.918 29.8522 14.4681 30.0328C15.0183 30.2133 15.4866 30.5838 15.7895 31.0781C15.8693 31.2072 15.9365 31.3437 15.9901 31.4858C16.0968 31.7644 16.1514 32.0603 16.1513 32.3587Z" fill="#8A8A8A"/>
<path d="M16.0476 32.3586C16.0476 32.389 16.0476 32.4207 16.0476 32.4512C16.0303 32.8987 15.8851 33.3318 15.6294 33.6991C15.3736 34.0664 15.018 34.3524 14.6048 34.5233C14.3217 34.6402 14.0183 34.7001 13.7121 34.6994C13.4098 34.7005 13.1102 34.6418 12.8306 34.5267C12.4139 34.3581 12.0546 34.0726 11.7958 33.7044C11.5371 33.3362 11.3899 32.9011 11.3721 32.4512C11.3721 32.4207 11.3721 32.389 11.3721 32.3586C11.3722 31.8932 11.5105 31.4385 11.7694 31.0522C12.0284 30.6659 12.3962 30.3655 12.8261 30.1893C13.1814 30.0444 13.5667 29.9892 13.9483 30.0285C14.3299 30.0678 14.6959 30.2005 15.0142 30.4149C15.3326 30.6293 15.5934 30.9188 15.7738 31.2579C15.9542 31.5971 16.0486 31.9754 16.0487 32.3597L16.0476 32.3586Z" fill="white"/>
<path d="M16.0453 32.4513C16.028 32.8988 15.8829 33.3319 15.6271 33.6992C15.3714 34.0665 15.0158 34.3526 14.6026 34.5234C14.3194 34.6403 14.0161 34.7002 13.7098 34.6996C13.4075 34.7006 13.108 34.6419 12.8284 34.5268C12.412 34.3579 12.0532 34.0722 11.7949 33.7041C11.5366 33.3359 11.3898 32.9009 11.3721 32.4513C11.3721 32.4208 11.3721 32.3892 11.3777 32.3587C11.4114 31.926 11.5645 31.5112 11.8198 31.1607C12.0752 30.8101 12.4228 30.5376 12.8239 30.3735C13.1126 30.2557 13.4219 30.1968 13.7336 30.2004C14.0453 30.204 14.3532 30.27 14.6391 30.3944C14.925 30.5189 15.1833 30.6993 15.3986 30.9251C15.614 31.1509 15.7821 31.4175 15.8932 31.7094C15.9729 31.9164 16.0219 32.134 16.0386 32.3553V32.3643C16.0386 32.3926 16.0442 32.4219 16.0453 32.4513Z" fill="black"/>
<path d="M16.0393 32.3541V32.3632C16.0048 32.7932 15.8523 33.2054 15.5987 33.5541C15.3451 33.9029 15.0002 34.1746 14.6021 34.3393C14.319 34.4562 14.0157 34.5161 13.7094 34.5155C13.4071 34.5165 13.1076 34.4578 12.828 34.3427C12.5308 34.2218 12.2616 34.0409 12.0373 33.8113C11.8129 33.5816 11.6381 33.3082 11.5238 33.008C11.4439 32.7994 11.3949 32.5803 11.3784 32.3575C11.4121 31.9248 11.5652 31.5101 11.8205 31.1595C12.0759 30.8089 12.4235 30.5364 12.8246 30.3723C13.1133 30.2545 13.4226 30.1957 13.7343 30.1993C14.046 30.2028 14.3539 30.2688 14.6398 30.3932C14.9257 30.5177 15.184 30.6981 15.3993 30.9239C15.6147 31.1497 15.7828 31.4164 15.8939 31.7082C15.9736 31.9152 16.0226 32.1329 16.0393 32.3541Z" fill="#8F8F8F"/>
<path d="M14.5321 34.354C14.271 34.4613 13.9915 34.5165 13.7093 34.5167C13.4306 34.5171 13.1546 34.463 12.8966 34.3574L13.7161 32.361L12.8921 30.36C13.151 30.255 13.4277 30.201 13.707 30.2007C13.9894 30.2007 14.269 30.2564 14.5299 30.3645L13.7115 32.3587L14.5321 34.354Z" fill="#525252"/>
<path d="M11.698 31.5875L13.7145 32.3577L11.6969 33.1278C11.5083 32.6318 11.5083 32.0836 11.6969 31.5875H11.698Z" fill="#525252"/>
<path d="M15.8651 32.3584C15.8653 32.62 15.818 32.8794 15.7254 33.124L13.7145 32.3572L15.7242 31.5894C15.8178 31.8349 15.8656 32.0955 15.8651 32.3584Z" fill="#525252"/>
<path d="M13.71 32.9713C14.048 32.9713 14.322 32.6968 14.322 32.3582C14.322 32.0195 14.048 31.745 13.71 31.745C13.3719 31.745 13.0979 32.0195 13.0979 32.3582C13.0979 32.6968 13.3719 32.9713 13.71 32.9713Z" fill="#525252"/>
<path d="M13.7099 32.7864C13.9458 32.7864 14.1371 32.5948 14.1371 32.3584C14.1371 32.1221 13.9458 31.9305 13.7099 31.9305C13.474 31.9305 13.2827 32.1221 13.2827 32.3584C13.2827 32.5948 13.474 32.7864 13.7099 32.7864Z" fill="#8F8F8F"/>
<path opacity="0.3" d="M15.7906 31.0789L15.7331 31.1828C15.7331 31.1828 15.6677 31.1512 15.555 31.1026C15.1765 30.9415 14.7826 30.8193 14.3794 30.7379C14.1766 30.6978 13.9706 30.6767 13.7639 30.6746C13.5261 30.6773 13.2893 30.7049 13.0572 30.7571C12.6255 30.8528 12.2056 30.9956 11.8049 31.1828L11.7125 31.1421L11.6178 31.1003C11.8877 30.6468 12.2976 30.2937 12.7856 30.0942C13.3217 29.8752 13.918 29.8541 14.4681 30.0347C15.0183 30.2152 15.4866 30.5857 15.7895 31.08L15.7906 31.0789Z" fill="black"/>
<path d="M53.5282 28.2146L53.4696 28.2722C53.4696 28.2722 50.8624 27.1994 51.036 26.925C51.0927 26.8431 51.1676 26.7754 51.2548 26.7274C51.3421 26.6794 51.4393 26.6523 51.5387 26.6484L51.6131 26.5851C52.3176 26.6631 52.9319 26.7511 53.1799 27.0481C53.2973 27.2235 53.3779 27.421 53.4166 27.6286C53.4482 27.7584 53.4775 27.9007 53.5023 28.0498C53.5113 28.1017 53.5203 28.1604 53.5282 28.2146Z" fill="white"/>
<path opacity="0.5" d="M48.6885 32.4714C48.6885 32.5019 48.6885 32.5324 48.6885 32.5629C47.7479 31.6744 46.5083 31.1725 45.2156 31.157C43.1213 31.157 41.6831 32.5121 41.6368 32.5617C41.6368 32.5312 41.6368 32.5019 41.6368 32.4714C41.6368 31.5343 42.0084 30.6356 42.6699 29.9729C43.3313 29.3103 44.2284 28.938 45.1638 28.938C46.0992 28.938 46.9963 29.3103 47.6577 29.9729C48.3191 30.6356 48.6907 31.5343 48.6907 32.4714H48.6885Z" fill="black"/>
<path d="M47.6003 32.3588C47.5995 32.8425 47.4558 33.3151 47.1872 33.7171C46.9186 34.119 46.5371 34.4323 46.091 34.6172C45.7955 34.7385 45.4793 34.801 45.1599 34.8013C44.8441 34.8021 44.5312 34.7408 44.239 34.6206C43.929 34.4939 43.6483 34.3047 43.4143 34.0648C43.1802 33.8249 42.9979 33.5394 42.8785 33.226C42.6644 32.6642 42.6644 32.0431 42.8785 31.4814C42.9974 31.1695 43.1787 30.8852 43.4114 30.6462C43.644 30.4071 43.923 30.2183 44.2311 30.0913C44.6024 29.9388 45.0054 29.8803 45.4045 29.9209C45.8037 29.9615 46.1867 30.1 46.5198 30.3242C46.8528 30.5483 47.1256 30.8512 47.3141 31.2061C47.5025 31.5609 47.6008 31.9568 47.6003 32.3588Z" fill="#8A8A8A"/>
<path d="M47.4992 32.3588C47.4992 32.3893 47.4992 32.4209 47.4992 32.4514C47.4818 32.8989 47.3367 33.332 47.0809 33.6993C46.8252 34.0666 46.4696 34.3527 46.0564 34.5235C45.7733 34.6404 45.4699 34.7003 45.1637 34.6997C44.8614 34.7007 44.5618 34.642 44.2822 34.5269C43.8659 34.3577 43.5072 34.0718 43.2491 33.7035C42.9909 33.3351 42.8444 32.9 42.827 32.4502C42.827 32.4197 42.827 32.3881 42.827 32.3576C42.8271 31.8923 42.9655 31.4375 43.2244 31.0512C43.4833 30.6649 43.8512 30.3646 44.2811 30.1884C44.6361 30.0444 45.021 29.9899 45.4019 30.0297C45.7829 30.0695 46.1482 30.2024 46.4659 30.4167C46.7837 30.631 47.044 30.9201 47.2242 31.2587C47.4043 31.5973 47.4987 31.9751 47.4992 32.3588Z" fill="white"/>
<path d="M47.4965 32.4512C47.4792 32.8987 47.334 33.3319 47.0783 33.6992C46.8225 34.0665 46.4669 34.3525 46.0537 34.5234C45.7706 34.6403 45.4672 34.7002 45.161 34.6995C44.8587 34.7006 44.5591 34.6419 44.2795 34.5268C43.8632 34.3576 43.5045 34.0717 43.2464 33.7033C42.9883 33.335 42.8417 32.8998 42.8243 32.4501C42.8243 32.4196 42.8243 32.388 42.83 32.3575C42.8636 31.9248 43.0167 31.5101 43.2721 31.1595C43.5275 30.8089 43.8751 30.5364 44.2761 30.3723C44.5648 30.2545 44.8741 30.1957 45.1859 30.1993C45.4976 30.2028 45.8055 30.2688 46.0914 30.3932C46.3773 30.5177 46.6355 30.6981 46.8509 30.9239C47.0662 31.1497 47.2344 31.4164 47.3454 31.7082C47.4251 31.9152 47.4741 32.1329 47.4908 32.3541V32.3632C47.4942 32.3925 47.4954 32.4219 47.4965 32.4512Z" fill="black"/>
<path d="M47.4881 32.3544V32.3634C47.4536 32.7935 47.3011 33.2057 47.0475 33.5544C46.7939 33.9031 46.449 34.1749 46.0509 34.3396C45.7678 34.4565 45.4645 34.5164 45.1582 34.5157C44.8559 34.5168 44.5564 34.4581 44.2768 34.343C43.9809 34.2214 43.7132 34.0404 43.49 33.811C43.2669 33.5816 43.0931 33.3087 42.9794 33.0094C42.8995 32.8008 42.8505 32.5817 42.834 32.3589C42.8677 31.9262 43.0207 31.5115 43.2761 31.1609C43.5315 30.8103 43.8791 30.5378 44.2802 30.3737C44.5689 30.2559 44.8782 30.1971 45.1899 30.2007C45.5016 30.2042 45.8095 30.2702 46.0954 30.3946C46.3813 30.5191 46.6395 30.6995 46.8549 30.9253C47.0702 31.1511 47.2384 31.4178 47.3494 31.7096C47.4267 31.9166 47.4734 32.1339 47.4881 32.3544Z" fill="#8F8F8F"/>
<path d="M45.9819 34.354C45.7212 34.4613 45.4421 34.5165 45.1602 34.5167C44.8816 34.5171 44.6055 34.463 44.3475 34.3574L45.167 32.361L44.343 30.36C44.6019 30.2549 44.8786 30.2009 45.158 30.2007C45.44 30.2006 45.7192 30.2562 45.9797 30.3645L45.1625 32.3587L45.9819 34.354Z" fill="#525252"/>
<path d="M43.1462 31.5875L45.1638 32.3577L43.1462 33.1278C43.0517 32.8825 43.0036 32.6217 43.0042 32.3588C43.0041 32.0952 43.0523 31.8338 43.1462 31.5875Z" fill="#525252"/>
<path d="M47.3158 32.3584C47.316 32.62 47.2687 32.8794 47.176 33.124L45.1652 32.3572L47.1749 31.5894C47.2685 31.8349 47.3163 32.0955 47.3158 32.3584Z" fill="#525252"/>
<path d="M45.1602 32.9713C45.4982 32.9713 45.7722 32.6968 45.7722 32.3582C45.7722 32.0195 45.4982 31.745 45.1602 31.745C44.8221 31.745 44.5481 32.0195 44.5481 32.3582C44.5481 32.6968 44.8221 32.9713 45.1602 32.9713Z" fill="#525252"/>
<path d="M45.1609 32.7864C45.3969 32.7864 45.5881 32.5948 45.5881 32.3584C45.5881 32.1221 45.3969 31.9305 45.1609 31.9305C44.925 31.9305 44.7338 32.1221 44.7338 32.3584C44.7338 32.5948 44.925 32.7864 45.1609 32.7864Z" fill="#8F8F8F"/>
<path opacity="0.3" d="M47.3152 31.1826L47.2554 31.2955C47.2554 31.2955 47.1878 31.2616 47.0706 31.2086C46.68 31.0332 46.2719 30.9 45.8532 30.8111C45.4011 30.7125 44.9325 30.7198 44.4837 30.8325C44.0351 30.9371 43.5999 31.0924 43.1863 31.2955L43.0905 31.2515L42.9924 31.2063C43.2655 30.7185 43.6902 30.3334 44.2019 30.1098C44.5043 29.98 44.8299 29.9131 45.1589 29.9133C45.491 29.9129 45.8196 29.9818 46.1237 30.1155C46.6243 30.3348 47.0417 30.7087 47.3152 31.1826Z" fill="black"/>
<path d="M53.6032 28.9729C53.2481 28.3191 52.4489 28.1588 51.678 27.7455L51.6272 27.7184C50.9103 27.3209 50.9509 27.0725 51.0377 26.9279C51.9665 27.0408 52.8671 27.0804 53.1793 27.4564C53.2994 27.6351 53.3921 27.8307 53.4544 28.0368C53.4907 28.1691 53.5152 28.3044 53.5276 28.4411C53.557 28.6048 53.5818 28.7957 53.6032 28.9729Z" fill="#3F7BFE"/>
<path d="M53.5029 28.2728C53.0644 28.047 51.9248 27.7342 51.6272 27.7184C50.9103 27.3209 50.9509 27.0725 51.0377 26.9279C51.9665 27.0408 52.8671 27.0804 53.1794 27.4564C53.3498 27.6992 53.4607 27.979 53.5029 28.2728Z" fill="#C2D5FF"/>
<path d="M7.13441 30.4726L7.11524 30.004L7.10623 29.5353C7.10075 29.378 7.11171 29.2206 7.13891 29.0656C7.16295 28.9071 7.21485 28.7542 7.29221 28.6139C7.37156 28.4753 7.47239 28.3503 7.59091 28.2435C7.71075 28.1399 7.84021 28.048 7.97753 27.9691C8.25176 27.8146 8.5392 27.685 8.83644 27.5818C8.91084 27.5558 8.9841 27.5276 9.06188 27.5039L9.28731 27.435L9.73818 27.2972C10.0414 27.2193 10.3435 27.1357 10.6501 27.0714L11.1088 26.972L11.5687 26.8839C11.8753 26.8207 12.1842 26.771 12.4919 26.7202C13.7239 26.518 14.9615 26.3532 16.2003 26.2007C17.439 26.0483 18.6801 25.915 19.92 25.7953H19.8952C20.0487 25.7461 20.1992 25.6881 20.346 25.6214C20.4971 25.5582 20.6436 25.4814 20.7901 25.4046C21.0843 25.251 21.3729 25.0828 21.6592 24.9111C22.2318 24.5645 22.7954 24.2009 23.3624 23.8395C23.9293 23.4782 24.4929 23.1326 25.0768 22.7848C25.3687 22.6143 25.6629 22.446 25.9673 22.2936C26.1161 22.2123 26.2761 22.1468 26.4305 22.0678C26.5061 22.0305 26.5895 22.0023 26.6695 21.9706C26.7495 21.939 26.8307 21.9074 26.9141 21.8792C27.2468 21.785 27.5858 21.7152 27.9286 21.6703C28.2667 21.6206 28.5992 21.5799 28.9351 21.5461C29.6114 21.4772 30.2787 21.4264 30.9505 21.3846C32.2964 21.3093 33.6422 21.2683 34.9881 21.2615C36.3339 21.2558 37.6809 21.2739 39.029 21.3744C39.3671 21.4004 39.7053 21.4331 40.0434 21.476C40.3866 21.5165 40.7258 21.5849 41.0579 21.6804C41.1447 21.7098 41.2304 21.7391 41.3048 21.773L41.5381 21.878C41.6936 21.9458 41.8447 22.0215 41.998 22.0949C42.3023 22.2405 42.6021 22.3941 42.8997 22.5465C44.0934 23.171 45.2668 23.8214 46.4492 24.4662C47.0398 24.7869 47.6293 25.1088 48.2234 25.4216C48.5209 25.5774 48.8185 25.731 49.1183 25.8732C49.2682 25.9466 49.4193 26.0178 49.5692 26.0855L49.7946 26.1793L50.0291 26.2504L50.0674 26.2719C50.06 26.2646 50.0512 26.2588 50.0415 26.2549C50.0318 26.251 50.0215 26.2491 50.0111 26.2493H50.0313C50.4222 26.3455 50.8191 26.4149 51.2194 26.4571C51.6218 26.509 52.0276 26.5474 52.43 26.6321C52.6343 26.6763 52.8303 26.7529 53.0105 26.8591C53.057 26.8862 53.1011 26.9171 53.1424 26.9517C53.1828 26.9887 53.2187 27.0304 53.2494 27.0759C53.3045 27.166 53.3481 27.2628 53.3791 27.3638C53.4887 27.7586 53.5641 28.1621 53.6045 28.5698C53.6394 28.8872 53.662 29.2045 53.6811 29.5229L53.7048 29.9994C53.7138 30.1587 53.715 30.3179 53.7296 30.4771C53.7105 30.319 53.7037 30.1598 53.6902 30.0006L53.6518 29.5252C53.6248 29.2082 53.5902 28.892 53.5481 28.5766C53.4997 28.1752 53.4175 27.7785 53.3024 27.3909C53.2711 27.2981 53.2287 27.2093 53.1762 27.1267C53.1489 27.0887 53.1176 27.0538 53.0826 27.0228C53.0451 26.9933 53.0056 26.9665 52.9643 26.9426C52.7869 26.8533 52.5968 26.792 52.4007 26.7608C52.0073 26.6863 51.6015 26.6569 51.198 26.6151C50.7896 26.5808 50.3841 26.5189 49.984 26.43H50.0043C49.9815 26.43 49.9597 26.4211 49.9434 26.4051L49.9818 26.4266C49.8983 26.404 49.8149 26.3814 49.7327 26.3566L49.4926 26.2617C49.3359 26.1939 49.1826 26.1239 49.0293 26.0528C48.725 25.9071 48.424 25.7569 48.1275 25.6011C47.529 25.2951 46.9339 24.9823 46.3387 24.6684C45.1495 24.0416 43.9649 23.407 42.7678 22.8018L42.317 22.5759C42.167 22.5014 42.0171 22.4257 41.8661 22.3501C41.715 22.2744 41.5651 22.2044 41.4152 22.1389L41.1898 22.0373C41.1097 22.0023 41.0365 21.9785 40.9643 21.9548C40.6495 21.8662 40.3279 21.8035 40.0029 21.7674C39.6737 21.7256 39.3412 21.6951 39.0087 21.6714C37.6752 21.5788 36.3328 21.5664 34.9926 21.5777C33.6524 21.589 32.311 21.6375 30.9731 21.7188C30.3046 21.7572 29.6362 21.8046 28.9712 21.8701C28.6387 21.9029 28.3062 21.9413 27.977 21.9887C27.6527 22.0295 27.3318 22.0936 27.0167 22.1807C26.94 22.2066 26.8645 22.2371 26.7912 22.2654C26.718 22.2936 26.6391 22.3196 26.5658 22.3568C26.417 22.4268 26.2648 22.489 26.1149 22.568C25.8185 22.7159 25.5277 22.8797 25.238 23.0457C24.6609 23.3844 24.0928 23.739 23.5247 24.0981C22.9566 24.4572 22.3896 24.8186 21.8102 25.1652C21.5194 25.338 21.2275 25.504 20.9243 25.6643C20.7732 25.7423 20.6211 25.8202 20.461 25.8902C20.3014 25.9607 20.1377 26.0214 19.9707 26.072H19.9605H19.9459C18.7045 26.1736 17.4646 26.2914 16.2262 26.4254C14.9863 26.5598 13.7464 26.7077 12.5189 26.8929C11.9035 26.9901 11.2881 27.0815 10.6782 27.2057C10.3728 27.2611 10.0718 27.3367 9.76974 27.4079L9.31887 27.5343L9.09344 27.5976C9.01904 27.619 8.94578 27.645 8.868 27.6687C8.57335 27.7638 8.28778 27.8851 8.01473 28.0312C7.87965 28.1044 7.75204 28.1906 7.63375 28.2887C7.51819 28.3888 7.4186 28.5061 7.33843 28.6365C7.19286 28.9134 7.1225 29.2237 7.13441 29.5365V30.0051V30.4726Z" fill="white"/>
<path d="M23.8185 24.2904H21.9981C21.5262 24.2904 21.1437 24.6736 21.1437 25.1464C21.1437 25.6191 21.5262 26.0023 21.9981 26.0023H23.8185C24.2903 26.0023 24.6729 25.6191 24.6729 25.1464C24.6729 24.6736 24.2903 24.2904 23.8185 24.2904Z" fill="white"/>
<path d="M23.8463 24.5004H22.1364C21.6645 24.5004 21.282 24.8837 21.282 25.3564C21.282 25.8291 21.6645 26.2123 22.1364 26.2123H23.8463C24.3182 26.2123 24.7007 25.8291 24.7007 25.3564C24.7007 24.8837 24.3182 24.5004 23.8463 24.5004Z" fill="black"/>
<path d="M33.6753 24.0364C33.676 24.1111 33.6646 24.1855 33.6415 24.2566C33.6186 24.323 33.5842 24.3849 33.5401 24.4395C33.4935 24.4939 33.4368 24.5388 33.3732 24.5716C33.3027 24.6082 33.2265 24.6322 33.1478 24.6428C33.073 24.6556 32.9964 24.6537 32.9224 24.6371C32.8618 24.6241 32.8048 24.5979 32.7555 24.5604C32.7111 24.5264 32.6756 24.4823 32.6518 24.4316C32.6247 24.3792 32.6101 24.3213 32.609 24.2622C32.6089 24.2493 32.6137 24.2367 32.6225 24.2272C32.6306 24.2177 32.6418 24.2113 32.6541 24.2092L32.7589 24.1945C32.7826 24.1945 32.7984 24.2046 32.8051 24.234C32.8116 24.2671 32.823 24.2991 32.839 24.3289C32.854 24.3586 32.8761 24.3841 32.9032 24.4034C32.9329 24.4246 32.9667 24.4392 33.0024 24.4463C33.0482 24.4549 33.0952 24.4549 33.141 24.4463C33.1903 24.4438 33.2386 24.4312 33.2828 24.4093C33.327 24.3873 33.3662 24.3565 33.398 24.3187C33.4526 24.235 33.4794 24.1362 33.4747 24.0364V23.299L32.7623 23.4006C32.7553 23.4017 32.7482 23.4012 32.7414 23.3993C32.7346 23.3973 32.7282 23.3939 32.7229 23.3893C32.7178 23.3846 32.7138 23.3788 32.7111 23.3724C32.7084 23.3659 32.707 23.359 32.7071 23.3521V23.2764C32.7076 23.2611 32.7131 23.2464 32.7229 23.2346C32.7331 23.2231 32.747 23.2155 32.7623 23.2132L33.6145 23.0924C33.6214 23.091 33.6285 23.0912 33.6353 23.093C33.6422 23.0948 33.6485 23.0981 33.6539 23.1026C33.6593 23.1071 33.6637 23.1128 33.6666 23.1193C33.6695 23.1257 33.6709 23.1327 33.6708 23.1398L33.6753 24.0364Z" fill="#212121"/>
<path d="M30.2868 36.9113C41.491 36.9113 50.5738 36.7073 50.5738 36.4557C50.5738 36.204 41.491 36 30.2868 36C19.0827 36 9.99988 36.204 9.99988 36.4557C9.99988 36.7073 19.0827 36.9113 30.2868 36.9113Z" fill="#4478EB"/>
</g>
</g>
<defs>
<filter id="filter0_d_1302_10833" x="0.265151" y="0.161404" width="59.9156" height="59.9157" filterUnits="userSpaceOnUse" color-interpolation-filters="sRGB">
<feFlood flood-opacity="0" result="BackgroundImageFix"/>
<feColorMatrix in="SourceAlpha" type="matrix" values="0 0 0 0 0 0 0 0 0 0 0 0 0 0 0 0 0 0 127 0" result="hardAlpha"/>
<feOffset dy="2.73378"/>
<feGaussianBlur stdDeviation="1.70861"/>
<feComposite in2="hardAlpha" operator="out"/>
<feColorMatrix type="matrix" values="0 0 0 0 0 0 0 0 0 0 0 0 0 0 0 0 0 0 0.04 0"/>
<feBlend mode="normal" in2="BackgroundImageFix" result="effect1_dropShadow_1302_10833"/>
<feBlend mode="normal" in="SourceGraphic" in2="effect1_dropShadow_1302_10833" result="shape"/>
</filter>
</defs>
</svg>
