<svg xmlns="http://www.w3.org/2000/svg" width="61" height="61" fill="none"><g filter="url(#a)"><circle cx="30.312" cy="28.021" r="26.541" fill="#598CFF"/><mask id="b" width="54" height="54" x="3" y="1" maskUnits="userSpaceOnUse" style="mask-type:alpha"><circle cx="30.312" cy="28.021" r="26.541" fill="#598CFF"/></mask><g mask="url(#b)"><circle cx="29.22" cy="26.928" r="13.316" fill="#fff"/><g clip-path="url(#c)"><g fill="#598CFF" clip-path="url(#d)"><path d="M30.194 19.564c.278.047.556.084.833.14 2.675.508 4.905 2.808 5.377 5.488.625 3.553-1.624 6.751-4.868 7.704a6.522 6.522 0 0 1-4.327-.19c-.101-.04-.162-.018-.245.038-1.19.791-2.425.87-3.697.217-.306-.157-.407-.476-.236-.759.638-1.06.736-2.17.36-3.345a13.053 13.053 0 0 1-.425-1.676c-.208-1.221-.014-2.41.5-3.53.985-2.157 2.665-3.476 4.993-3.97.254-.056.509-.08.768-.117h.967ZM24.262 32.24a.137.137 0 0 1 .032.014c.032.01.065.019.102.028.81.167 1.536-.014 2.156-.565.232-.203.458-.245.74-.115 1.051.486 2.152.63 3.29.44 3.027-.51 5.355-3.374 4.776-6.678-.508-2.906-3.294-5.04-6.228-4.711-1.976.217-3.47 1.212-4.461 2.93-.616 1.063-.87 2.225-.671 3.447.097.592.287 1.175.453 1.753.195.695.283 1.393.158 2.106-.079.449-.222.889-.347 1.351Z"/><path d="M26.63 27.227a.824.824 0 0 1-.838-.828c0-.463.375-.838.833-.838.453 0 .828.37.833.824a.828.828 0 0 1-.828.842ZM29.696 27.227a.82.82 0 0 1-.829-.833.836.836 0 0 1 .824-.828.846.846 0 0 1 .842.833.833.833 0 0 1-.837.828ZM32.768 27.227a.83.83 0 1 1 .01-1.66.83.83 0 0 1 .818.832.816.816 0 0 1-.828.828Z"/></g></g><path fill="#FFD1AB" d="M44.721 26.409h5.625v8.713h-5.625v-8.713Z"/><path fill="#3F7BFE" d="m51.777 33.14-1.32-.717-4.506 1.467-1.824-1.467-.857.355-1.641 14.643 3.093 2.366 7.055-16.648Z"/><path fill="#474747" d="m45.95 33.89 1.504 2.04-1.503 1.22-.32 11.67-2.539 2.29-1.463-8.088 1.67-1.077 1.617-4.978-.823-1.215 1.858-1.861Z"/><path fill="#F4C095" d="M44.721 26.409v5.259c.328.074.664.11 1 .108 2.442 0 4.408-1.793 4.408-4.01v-.108c.07.047.142.09.217.126v-1.375h-5.625Z"/><path fill="#FFD0C0" d="M49.632 19.316h-8.004v7.877c0 1.063.421 2.083 1.172 2.835a3.998 3.998 0 0 0 5.66 0 4.014 4.014 0 0 0 1.172-2.835v-7.877Z"/><path fill="#232323" d="M49.429 24.306s.16-4.01-4.986-4.01c-5.145 0-6.054-5.253-1.858-6.445 4.197-1.191 5.243 2.463 7.29 2.624 3.573.286 4.242 3.14 1.67 7.493l-2.116.338Z"/><path fill="#FFD1AB" d="M50.744 27.457a1.849 1.849 0 0 1-1.847-1.85c0-1.022.827-1.85 1.847-1.85s1.846.828 1.846 1.85c0 1.022-.827 1.85-1.846 1.85Z"/><path fill="#181818" d="m38.558 62.214-1.504 7.585s4.957 5.442 17.77.722a32.901 32.901 0 0 0 0-8.456c-.618-4.268.103-11.171 1.383-12.89 1.281-1.718 3.679-11.756 3.679-11.756l-5.708-3.087-2.402-1.197s-4.602 5.78-6.98 10.884l-.12.264c-.086.189-.166.384-.252.573-.23.535-.432 1.082-.606 1.638-.046.132-.08.252-.114.378 0 0-.984-9.687-.51-13.594 0-.172.046-.338.075-.487h-.126a14.73 14.73 0 0 0-2.767.78 5.328 5.328 0 0 0-1.818 1.145c-1.36 1.432-6.289 15.25-6.506 17.896-.218 2.647 4.55 8.525 6.506 9.602Z"/><path fill="#202020" d="M41.914 40.18c-.143 1.433-1.24 2.149-1.189 2.767.052.62 2.807 3.392 3.047 4.772 0 0 4.1-3.7 5.146-4.307 1.046-.608-.166-1.994 0-3.329.137-1.111 4.002-4.583 5.283-5.728l-2.402-1.198s-4.602 5.78-6.98 10.885l-.12.263c-.086.19-.166.384-.252.573a25.615 25.615 0 0 0-.606 1.639c0-.235-.68-7.448-.623-13.21v-.442l-.057-.029a14.73 14.73 0 0 0-2.767.78l-.132.349s1.795 4.783 1.652 6.216ZM43.773 47.726c-.406 1.999-.687 4.01-.904 6.038a114.35 114.35 0 0 0-.474 6.078 67.935 67.935 0 0 0-.052 6.107c.019 2.047.274 4.084.76 6.072-.08-2.034.052-4.044.132-6.067l.303-6.06c.08-2.023.177-4.045.217-6.073.04-2.028.08-4.056.017-6.095ZM39.126 40.943a156.643 156.643 0 0 0 0 5.437c.028 1.804.04 3.609 0 5.402 0 .9 0 1.799-.029 2.698v1.346c-.029.447-.04.894-.052 1.346a82.648 82.648 0 0 1-.394 5.397 23.583 23.583 0 0 0 1.286-5.316c.23-1.813.348-3.638.355-5.466a54.22 54.22 0 0 0-.269-5.453 39.21 39.21 0 0 0-.897-5.391Z"/></g></g><defs><clipPath id="c"><path fill="#fff" d="M22.36 19.262h14.526v14.526H22.36z"/></clipPath><clipPath id="d"><path fill="#fff" d="M22.36 19.262h14.526v14.526H22.358z"/></clipPath><filter id="a" width="59.916" height="59.916" x=".354" y=".797" color-interpolation-filters="sRGB" filterUnits="userSpaceOnUse"><feFlood flood-opacity="0" result="BackgroundImageFix"/><feColorMatrix in="SourceAlpha" result="hardAlpha" values="0 0 0 0 0 0 0 0 0 0 0 0 0 0 0 0 0 0 127 0"/><feOffset dy="2.734"/><feGaussianBlur stdDeviation="1.709"/><feComposite in2="hardAlpha" operator="out"/><feColorMatrix values="0 0 0 0 0 0 0 0 0 0 0 0 0 0 0 0 0 0 0.04 0"/><feBlend in2="BackgroundImageFix" result="effect1_dropShadow_452_16106"/><feBlend in="SourceGraphic" in2="effect1_dropShadow_452_16106" result="shape"/></filter></defs></svg>