<svg xmlns="http://www.w3.org/2000/svg" width="61" height="61" fill="none"><g filter="url(#a)"><circle cx="30.317" cy="28.1" r="26.541" fill="#598CFF"/><mask id="b" width="54" height="54" x="3" y="1" maskUnits="userSpaceOnUse" style="mask-type:alpha"><circle cx="30.317" cy="28.1" r="26.541" fill="#598CFF"/></mask><g mask="url(#b)"><path fill="#4478EB" d="M30.893 41.88a67.627 67.627 0 0 1 3.862-.224c1.287-.042 2.574-.064 3.862-.065a105.27 105.27 0 0 1 3.863.063c1.289.046 2.575.105 3.862.225a68.84 68.84 0 0 1-3.862.225 116.56 116.56 0 0 1-7.725 0 72.322 72.322 0 0 1-3.862-.225ZM29.78 35.952c11.204 0 20.287-.204 20.287-.455 0-.252-9.083-.456-20.287-.456-11.204 0-20.287.204-20.287.456 0 .251 9.083.455 20.287.455Z"/><path fill="#000" d="M13.655 35.417c2.628 0 4.757-1.79 4.757-4 0-2.208-2.13-3.998-4.756-3.998-2.628 0-4.757 1.79-4.757 3.999s2.13 4 4.757 4ZM44.824 35.417c2.628 0 4.757-1.79 4.757-4 0-2.208-2.13-3.998-4.757-3.998s-4.756 1.79-4.756 3.999 2.13 4 4.756 4Z"/><path fill="#525252" d="M16.772 31.693v.094c-.03.95-.426 1.85-1.107 2.511a3.644 3.644 0 0 1-5.079 0 3.657 3.657 0 0 1-1.106-2.511v-.092a3.66 3.66 0 0 1 2.236-3.436 3.643 3.643 0 0 1 4.8 2.017c.179.451.267.933.258 1.419l-.002-.002Z"/><path fill="#8F8F8F" d="M54.464 30.842c-.021.312-.102.96-.23 1.219-.301.602-2.113.586-3.988.676a.93.93 0 0 1-.957-.74c.005-.13.003-.26-.006-.39.013-.184.013-.369 0-.553-.076-1-.52-1.937-1.245-2.629a4.042 4.042 0 0 0-6.833 2.935c0 .086 0 .171.009.257.008.085-.25.2-.25.285 0 .23-1.178.406-1.14.627-.098.346 1.036.637.647.655l-.115.006-22.81.202h-.037c-.219-.013-.108-.163-.192-.346.13-.426-.091-.862-.109-1.336 0-.036 0-.07-.007-.105.007-.077.01-.155.01-.23v-.168a4.017 4.017 0 0 0-.588-1.946 4.044 4.044 0 0 0-4.553-1.82 4.054 4.054 0 0 0-2.956 3.918c0 .067 0 .14.01.217-.006.096-.01.193-.01.291 0 .192-.23.41-.184.65-.107.354-.194.637-.597.605-.821-.066-1.843-.362-2.097-.508-.079-.045.189-.081.153-.139.029-.083-.035-.15 0-.23.014-.034.023-.084.037-.116.048-.115-.161-.23-.174-.331a1.299 1.299 0 0 0-.043-.2 4.136 4.136 0 0 1-.146-.64 1.37 1.37 0 0 1 .012-.424c.03-.157.08-.31.15-.454a1.8 1.8 0 0 1 .184-.313c0-.174-.01-.337-.013-.49a6.41 6.41 0 0 1 0-.578c.038-.842.345-1.37 1.971-1.9.23-.073.473-.146.75-.22 3.022-.807 10.363-1.437 10.363-1.437 1.555-.428 5.24-3.346 7.168-3.985 1.929-.639 12.61-.951 14.509-.173l.092.038c1.982.842 7.442 4.007 8.717 4.461.078.026.158.049.24.07a8.12 8.12 0 0 0 1.05.18c.2.024.4.044.59.066.72.08 1.348.17 1.6.473.12.18.203.381.243.593a6.022 6.022 0 0 1 .114.599c.018.115.034.238.05.36.114.923.14 1.899.156 1.945.186.547.417.476.455 1.073Z"/><path fill="#181818" d="M54.464 31.256c-.021.313-.102.961-.23 1.22-.301.602-2.113.586-3.988.676a.93.93 0 0 1-.957-.741c.005-.13.003-.26-.006-.389.013-.184.013-.37 0-.553-.076-1-.52-1.938-1.245-2.63a4.041 4.041 0 0 0-6.833 2.935c0 .087 0 .172.009.258.008.085-.009.166-.009.25 0 .229.02.457.058.683a.868.868 0 0 1-.792.634h-.115l-22.817.206h-.037a.56.56 0 0 1-.48-.325c.136-.438.197-.896.18-1.354 0-.036 0-.07-.008-.105.007-.077.01-.156.01-.23v-.168a4.017 4.017 0 0 0-.588-1.946 4.044 4.044 0 0 0-4.546-1.808 4.054 4.054 0 0 0-2.955 3.905c0 .067 0 .14.01.217-.007.096-.01.193-.01.29.005.227.029.453.07.676a.821.821 0 0 1-.852.576c-.821-.065-1.843-.362-2.097-.508a.461.461 0 0 1-.173-.152c.029-.084.065-.168.1-.249l.04-.098a.585.585 0 0 0 .045-.313 1.299 1.299 0 0 0-.042-.2 4.14 4.14 0 0 1-.143-.64 1.37 1.37 0 0 1 .012-.425c.03-.157.08-.309.15-.453.05-.11.111-.214.182-.312 0-.173-.009-.336-.012-.49a6.41 6.41 0 0 1 0-.577c.038-.842.345-1.37 1.971-1.9.23-.073.473-.146.75-.22 3.022-.807 10.363-1.437 10.363-1.437 1.555-.428 5.24-3.346 7.168-3.985 1.929-.639 12.609-.952 14.509-.173l.092.038c1.982.842 7.442 4.007 8.717 4.461.078.026.157.049.24.07.345.082.697.143 1.05.18.95.115 1.87.155 2.188.54.12.178.203.38.242.592.032.133.062.278.088.43.028.17.054.346.076.529.115.923.14 1.899.156 1.945.19.544.42.474.459 1.07Z"/><path fill="#171717" d="M42.044 29.305a4.034 4.034 0 0 0-.805 1.962c-.215-.007-14.992-.462-24.032.53v-.167a4.017 4.017 0 0 0-.587-1.946c.18-.033 15.666-1.425 25.424-.379Z"/><path stroke="#000" stroke-miterlimit="10" stroke-width=".435" d="M44.432 25.986c.033 1.154-4.26 1.69-5.033 6.024l-8.233.074s-.402-3.624.144-7.267l-.213-.021a12.91 12.91 0 0 1 .96-3.428s.21-.013.565-.025c1.382-.044 4.967-.066 6.89.76 1.904.818 3.839 2.041 4.59 3.089.186.227.3.503.33.794Z"/><path fill="#000" d="M32.059 21.361c-.105.439-.194.88-.275 1.322-.082.444-.158.886-.23 1.332-.132.891-.231 1.78-.3 2.678-.07.898-.11 1.794-.104 2.69.004.9.055 1.797.152 2.69l.015.146h-.147c-1.867.063-3.732.106-5.599.161l-2.8.078c-.932.026-1.866.052-2.798.07h-.145l-.026-.14a22.058 22.058 0 0 1-.254-1.952 15.86 15.86 0 0 1-.053-1.973c.013-.332.046-.662.098-.99.05-.333.138-.66.262-.973.066-.162.147-.317.244-.462.052-.072.109-.14.168-.206.062-.063.127-.122.195-.177.26-.209.526-.4.8-.577l-.064.116v-.079l.063-.04a30.228 30.228 0 0 1 2.507-1.476 33.04 33.04 0 0 1 2.62-1.253c.447-.186.899-.364 1.362-.51a8.034 8.034 0 0 1 1.417-.337c.48-.054.962-.102 1.444-.134.24-.016.482-.027.725-.031a5.39 5.39 0 0 1 .723.027Zm0 0a5.402 5.402 0 0 0-.723.006c-.24.014-.48.036-.72.06-.48.046-.958.108-1.436.177a7.776 7.776 0 0 0-1.382.375l-.337.123-.335.135c-.224.087-.442.187-.665.28-.878.39-1.737.829-2.579 1.294-.842.464-1.666.965-2.457 1.507l.063-.115v.075l-.064.045c-.265.183-.528.37-.773.577-.117.092-.22.201-.304.324a2.162 2.162 0 0 0-.21.404c-.231.576-.3 1.224-.328 1.861a15.68 15.68 0 0 0 .065 1.93c.06.643.145 1.288.261 1.918l-.172-.148c.934-.029 1.867-.05 2.8-.07l2.8-.06c1.867-.037 3.733-.087 5.6-.114l-.133.15a26.319 26.319 0 0 1-.099-2.711 32.13 32.13 0 0 1 .153-2.706c.088-.898.224-1.794.38-2.68.157-.885.346-1.769.594-2.637Z"/><path fill="#525252" d="M45.254 35.348a3.602 3.602 0 0 0 3.598-3.605 3.602 3.602 0 0 0-3.598-3.605 3.602 3.602 0 0 0-3.598 3.605 3.602 3.602 0 0 0 3.598 3.605Z"/><path fill="#181818" d="M53.689 27.276c-1.002-.278-4.014-1.089-5.654-1.25-1.986-.193-10.717-.115-10.717-.115l-11.357.086s-5.008-.097-8.664.23c-4.797.436-8.077 1.484-8.077 1.484l-1.2.13.346-.632c.23-.074.473-.146.75-.22 3.022-.808 10.363-1.438 10.363-1.438 1.555-.428 5.24-3.345 7.168-3.984 1.929-.64 12.609-.952 14.509-.173l.092.038c1.982.842 7.442 4.006 8.717 4.46 1.251.402 3.012.232 3.483.791.12.18.201.381.24.593Z"/><path fill="#8A8A8A" d="M8.848 28.7c-.23.17-.482.338-.72.486-.576.365-1.094.622-1.168.55-.135-.134-.15-.748.132-1.296.113-.225.275-.422.474-.577a2.52 2.52 0 0 1 .679-.36c.69-.252 1.475-.251 1.666.058.115.183-.419.671-1.063 1.14Z"/><path fill="#C2D5FF" d="M8.886 28.532c-.23.17-.482.337-.72.485-.577.365-1.095.622-1.168.55-.135-.134-.15-.748.132-1.296.113-.225.275-.422.473-.577.207-.154.436-.276.68-.36.69-.252 1.475-.251 1.666.058.115.182-.42.672-1.063 1.14Z"/><path fill="#fff" d="M8.887 28.532a1.11 1.11 0 0 1-.604-1.2c.691-.252 1.475-.251 1.667.058.115.185-.42.674-1.063 1.142ZM8.165 29.018c-.576.364-1.094.622-1.167.549-.135-.134-.15-.748.132-1.296a1.107 1.107 0 0 1 1.035.747Z"/><path fill="#363636" d="M18.37 32.535c1.85-.171 3.701-.284 5.553-.376.921-.05 1.853-.08 2.778-.115l2.78-.082 2.78-.045 1.392-.007h1.39c.47 0 .929 0 1.392.016l1.392.033c.46.02.921.03 1.391.058l.69.042c.231.02.462.046.692.068-.23.007-.46.01-.691.02l-.691.03-1.389.065-2.778.116c-.921.041-1.852.066-2.778.099l-2.778.076-2.78.05c-.921.008-1.854.024-2.78.023-1.855.01-3.708-.003-5.566-.07ZM53.776 27.706c-2.099-1.42-9.163-1.477-9.163-1.477s-17.91.15-24.182.15c-6.08 0-10.248 1.106-10.504 1.175 4.25-1.428 10.562-1.72 10.562-1.72s9.63-.22 17.528-.22c5.2 0 9.712.206 12.186.346 1.226.311 2.8.191 3.242.72.12.179.202.38.241.593.035.136.065.281.09.433Z"/><path fill="#C2D5FF" d="M32.224 24.774c-.276.04-.556.052-.834.034l-.281-.013h-.01l-.231-.008c-.64-.02-1.32-.024-2.012-.016-.383 0-.771.014-1.157.025l-.44.015a109.905 109.905 0 0 0-5.92.39c1.83-1.244 4.438-2.982 5.723-3.323 1.159-.31 3.262-.455 3.585-.48.353-.03.626-.043.834-.048h.24c.112-.002.224.003.335.016 0 0 .21-.012.566-.024.604.989 1.633 3.118-.398 3.432Z"/><path fill="#C2D5FF" d="M43.065 24.074a.451.451 0 0 1-.298.8 263.265 263.265 0 0 0-8.492-.115c-.806 0-1.509.011-2.05.02l-.831.015-.285.005h-.01l-.068-.77-.159-1.81.613-.865h.24c.112-.003.224.003.335.016 0 0 .21-.013.566-.024.303-.01.71-.019 1.184-.018 1.688 0 4.203.133 5.706.778 1.38.586 2.661 1.248 3.55 1.968Z"/><path fill="#fff" d="M21.34 25.2a47.816 47.816 0 0 1 2.389-1.683c.406-.268.82-.527 1.241-.775.42-.253.854-.484 1.298-.692.115-.05.223-.103.345-.146.059-.02.115-.044.174-.065l.18-.056c.239-.065.48-.119.723-.16.482-.088.968-.14 1.453-.192a24.716 24.716 0 0 1 2.19-.125c.121-.006.243 0 .365 0 .123.002.246.012.368.029h.566c-.188.016-.376.034-.564.048a2.89 2.89 0 0 0-.36 0c-.116 0-.242.01-.363.023l-.725.062c-.483.05-.966.099-1.447.16-.481.063-.96.128-1.434.216-.236.042-.47.096-.7.162l-.167.053c-.056.02-.115.043-.167.065-.115.04-.22.09-.33.138-.438.196-.863.43-1.285.665-.423.234-.838.486-1.254.738-.846.505-1.666 1.027-2.495 1.534Z"/><path fill="#fff" d="M32.623 21.338a25.686 25.686 0 0 1 2.967-.051c.994.03 1.983.155 2.953.376.121.029.242.064.363.097.121.032.238.078.357.115.119.037.237.091.346.14l.345.15c.45.206.898.42 1.334.658.438.236.859.502 1.26.798.199.149.391.308.575.477.025.021.048.045.068.07.019.028.033.058.041.09a.486.486 0 0 1 .017.19.399.399 0 0 1-.175.318.39.39 0 0 0 .149-.318.346.346 0 0 0-.134-.31 7.23 7.23 0 0 0-.6-.426 12.723 12.723 0 0 0-1.283-.724c-.44-.22-.888-.42-1.34-.618l-.338-.146c-.115-.049-.23-.09-.337-.134-.108-.045-.23-.076-.346-.116a3.755 3.755 0 0 0-.352-.096 18.303 18.303 0 0 0-2.914-.417 43.568 43.568 0 0 0-2.956-.123Z"/><path fill="#212121" d="M34.274 24.753c-.806 0-1.508.012-2.05.02-.276.04-.555.051-.834.033l-.281-.012h-.01l-.23-.009.158-.762.599-2.848h2.17l.478 3.578Z"/><path fill="#474747" d="M30.331 26.781v.427h-.158a.16.16 0 0 0-.176-.175h-1.276a.172.172 0 0 0-.175.175h-.158v-.427a.213.213 0 0 1 .212-.212h1.52a.212.212 0 0 1 .211.212Z"/><path fill="#3F7BFE" d="M30.137 26.568h-1.554a.195.195 0 1 0 0 .389h1.555a.194.194 0 1 0 0-.39Z"/><path fill="#474747" d="M42.12 26.781v.427h-.158a.16.16 0 0 0-.177-.175H40.51a.172.172 0 0 0-.175.175h-.159v-.427a.214.214 0 0 1 .213-.212h1.52a.213.213 0 0 1 .211.212Z"/><path fill="#3F7BFE" d="M41.925 26.568h-1.554a.195.195 0 1 0 0 .389h1.554a.194.194 0 1 0 0-.39Z"/><path fill="#fff" d="m30.649 21.395-1.786 3.374c-.383 0-.771.014-1.157.026l1.766-3.279c.464-.055.855-.096 1.177-.121Z" opacity=".3"/><path fill="#363636" d="M9.69 28.99s1.181-1.657 3.297-1.744c2.117-.086 3.685 1.744 3.685 1.744s-3.498-3.03-6.981 0ZM41.874 28.88s1.18-1.658 3.297-1.745c2.116-.086 3.685 1.746 3.685 1.746s-3.497-3.029-6.982 0Z"/><path fill="#000" d="M6.21 32.013a4.136 4.136 0 0 1-.147-.64 1.37 1.37 0 0 1 .012-.425c.03-.157.08-.31.15-.453.036.007.774.142.873.674.1.533-.934.625-.889.844ZM7.868 33.019a15.924 15.924 0 0 0-1.702-.395l.041-.098a.585.585 0 0 0 .045-.314s1.518.37 2.188.22c.67-.151.8.97-.572.587Z"/><path fill="#fff" d="m27.26 24.806 1.818-3.27c-.183.018-.302.037-.504.06l-1.92 3.23.606-.02Z" opacity=".3"/><path fill="#000" d="M16.772 31.694v.093a5.35 5.35 0 0 0-3.591-1.436c-2.166 0-3.653 1.384-3.701 1.435v-.092a3.66 3.66 0 0 1 2.236-3.435 3.64 3.64 0 0 1 4.013.809 3.656 3.656 0 0 1 1.045 2.626h-.002Z" opacity=".5"/><path fill="#8A8A8A" d="M15.62 31.693A2.502 2.502 0 0 1 14.08 34a2.492 2.492 0 0 1-3.283-1.42 2.518 2.518 0 0 1 0-1.782c.051-.136.116-.268.192-.392a2.48 2.48 0 0 1 2.912-1.089 2.496 2.496 0 0 1 1.72 2.376Z"/><path fill="#fff" d="M15.515 31.694v.094a2.394 2.394 0 0 1-1.474 2.117 2.376 2.376 0 0 1-1.812.004 2.385 2.385 0 0 1-1.49-2.12v-.095a2.398 2.398 0 0 1 1.485-2.216 2.386 2.386 0 0 1 3.011 1.091 2.4 2.4 0 0 1 .281 1.126l-.001-.001Z"/><path fill="#000" d="M15.513 31.787a2.394 2.394 0 0 1-1.474 2.117 2.378 2.378 0 0 1-1.813.004 2.385 2.385 0 0 1-1.488-2.12c0-.032 0-.064.006-.095a2.395 2.395 0 0 1 1.478-2.028 2.386 2.386 0 0 1 3.135 1.364c.082.212.132.434.149.66v.01c0 .028.005.058.007.088Z"/><path fill="#8F8F8F" d="M15.505 31.688v.01a2.393 2.393 0 0 1-1.468 2.018 2.377 2.377 0 0 1-1.812.004 2.388 2.388 0 0 1-1.481-2.028 2.394 2.394 0 0 1 1.477-2.028 2.385 2.385 0 0 1 2.63.563 2.397 2.397 0 0 1 .654 1.461Z"/><path fill="#525252" d="M13.967 33.731a2.218 2.218 0 0 1-1.671.004l.837-2.04-.842-2.044a2.22 2.22 0 0 1 1.673.005l-.836 2.037.839 2.038Z"/><path fill="#525252" d="m11.07 30.906 2.06.787-2.06.786a2.214 2.214 0 0 1 0-1.573ZM15.326 31.693c0 .267-.048.533-.142.782l-2.055-.783 2.053-.784c.096.25.145.517.144.785Z"/><path fill="#525252" d="M13.126 32.32a.626.626 0 1 0-.002-1.252.626.626 0 0 0 .002 1.252Z"/><path fill="#8F8F8F" d="M13.125 32.13a.437.437 0 1 0 0-.873.437.437 0 0 0 0 .874Z"/><path fill="#000" d="m15.251 30.387-.058.106s-.067-.032-.182-.082a6.195 6.195 0 0 0-1.201-.373 3.413 3.413 0 0 0-.629-.064 3.46 3.46 0 0 0-.722.084c-.441.098-.87.244-1.28.435l-.094-.042-.097-.042A2.481 2.481 0 0 1 13.9 29.32c.562.184 1.04.563 1.35 1.068l.001-.001Z" opacity=".3"/><path fill="#fff" d="m53.803 27.46-.06.058s-2.664-1.096-2.486-1.376a.657.657 0 0 1 .513-.282l.076-.065c.72.08 1.347.17 1.6.473.12.179.203.38.242.593a6.077 6.077 0 0 1 .114.598Z"/><path fill="#000" d="M48.857 31.808v.094a5.259 5.259 0 0 0-3.547-1.437c-2.14 0-3.61 1.385-3.656 1.436v-.093c0-.957.38-1.875 1.055-2.552a3.6 3.6 0 0 1 5.095 0 3.613 3.613 0 0 1 1.056 2.552h-.003Z" opacity=".5"/><path fill="#8A8A8A" d="M47.747 31.693A2.505 2.505 0 0 1 46.205 34a2.511 2.511 0 0 1-1.892.004 2.497 2.497 0 0 1-1.39-1.425 2.502 2.502 0 0 1 1.382-3.202 2.49 2.49 0 0 1 3.15 1.139c.192.362.293.767.292 1.177Z"/><path fill="#fff" d="M47.644 31.694v.094a2.393 2.393 0 0 1-1.474 2.117c-.29.12-.6.18-.912.18a2.385 2.385 0 0 1-2.387-2.298v-.095a2.4 2.4 0 0 1 1.485-2.216 2.386 2.386 0 0 1 3.007 1.094c.184.346.28.732.28 1.123Z"/><path fill="#000" d="M47.64 31.788a2.393 2.393 0 0 1-1.474 2.116c-.29.12-.6.181-.912.18a2.385 2.385 0 0 1-2.387-2.298c0-.03 0-.063.006-.094a2.394 2.394 0 0 1 1.477-2.028 2.385 2.385 0 0 1 2.63.563 2.397 2.397 0 0 1 .654 1.461v.01c.004.03.005.06.006.09Z"/><path fill="#8F8F8F" d="M47.632 31.688v.01a2.395 2.395 0 0 1-1.468 2.018c-.289.12-.599.18-.912.18a2.385 2.385 0 0 1-2.374-2.203 2.394 2.394 0 0 1 1.477-2.028 2.385 2.385 0 0 1 2.63.563 2.32 2.32 0 0 1 .647 1.46Z"/><path fill="#525252" d="M46.095 33.731a2.212 2.212 0 0 1-1.67.004l.837-2.04-.842-2.044a2.217 2.217 0 0 1 1.672.005l-.834 2.037.837 2.038Z"/><path fill="#525252" d="m43.198 30.906 2.061.787-2.06.786a2.21 2.21 0 0 1 0-1.574ZM47.456 31.693c0 .267-.048.533-.143.782l-2.054-.783 2.053-.784c.096.25.145.517.144.785Z"/><path fill="#525252" d="M45.254 32.32a.626.626 0 1 0-.001-1.252.626.626 0 0 0 0 1.252Z"/><path fill="#8F8F8F" d="M45.255 32.13a.437.437 0 1 0 0-.873.437.437 0 0 0 0 .874Z"/><path fill="#000" d="m47.456 30.493-.061.115s-.07-.034-.19-.088a6.156 6.156 0 0 0-1.243-.407c-.462-.1-.94-.093-1.399.022a6.196 6.196 0 0 0-1.325.473l-.098-.045-.1-.046a2.617 2.617 0 0 1 1.235-1.12 2.475 2.475 0 0 1 1.964.006c.511.224.938.606 1.217 1.09Z" opacity=".3"/><path fill="#3F7BFE" d="M53.879 28.235c-.363-.668-1.18-.832-1.967-1.254l-.052-.028c-.732-.406-.69-.66-.602-.807.949.115 1.87.156 2.188.54.123.182.217.382.281.593.037.135.062.273.075.413.03.167.055.362.077.543Z"/><path fill="#C2D5FF" d="M53.776 27.52c-.447-.23-1.612-.55-1.916-.567-.732-.406-.69-.66-.602-.807.949.115 1.87.156 2.188.54.174.248.287.534.33.834Z"/><path fill="#fff" d="m6.408 29.767-.02-.479-.009-.479c-.005-.16.006-.321.034-.48a1.386 1.386 0 0 1 .461-.84c.123-.105.255-.2.395-.28.28-.158.574-.29.878-.395.076-.027.15-.056.23-.08l.23-.07.461-.141c.31-.08.618-.165.932-.23l.468-.102.47-.09c.313-.065.629-.116.943-.168a95.183 95.183 0 0 1 3.788-.53c1.266-.156 2.534-.292 3.8-.415h-.025a5.859 5.859 0 0 0 .914-.4c.301-.155.596-.327.888-.503.585-.354 1.16-.725 1.74-1.095.58-.369 1.155-.722 1.752-1.077.298-.174.598-.346.91-.502.151-.083.315-.15.473-.23.077-.039.162-.067.244-.1a5.38 5.38 0 0 1 .25-.093c.34-.096.686-.168 1.036-.213.345-.051.685-.093 1.028-.127.691-.07 1.373-.123 2.059-.165a81.134 81.134 0 0 1 4.125-.126c1.374-.006 2.75.013 4.128.115.345.027.69.06 1.036.104.35.041.697.111 1.036.209.089.03.176.06.252.095l.239.107c.159.069.313.146.47.221.31.15.617.306.92.462 1.22.638 2.419 1.302 3.627 1.96.603.328 1.206.657 1.812.977a26.004 26.004 0 0 0 1.375.678l.23.096.24.072.04.022a.079.079 0 0 0-.058-.023h.02c.4.098.805.17 1.214.212.411.054.826.093 1.237.18.209.044.409.123.593.231.047.028.092.06.134.095a.72.72 0 0 1 .11.127c.056.092.1.19.132.294.112.403.19.815.23 1.232.036.324.06.648.079.974l.024.486c.01.163.01.326.025.488-.02-.161-.026-.324-.04-.486l-.039-.486a20.621 20.621 0 0 0-.106-.97 7.334 7.334 0 0 0-.251-1.21 1.245 1.245 0 0 0-.129-.27.641.641 0 0 0-.096-.107 1.006 1.006 0 0 0-.12-.081 1.965 1.965 0 0 0-.576-.186c-.402-.076-.817-.106-1.229-.149a9.338 9.338 0 0 1-1.24-.19h.02a.089.089 0 0 1-.061-.024l.039.021c-.086-.023-.17-.046-.255-.071l-.245-.097a19.8 19.8 0 0 1-.473-.213c-.311-.15-.619-.303-.922-.462-.61-.313-1.219-.632-1.827-.953-1.215-.64-2.425-1.288-3.648-1.907l-.46-.23c-.154-.076-.307-.154-.461-.231a9.682 9.682 0 0 0-.46-.216l-.23-.104c-.083-.035-.157-.06-.231-.084a6.115 6.115 0 0 0-.982-.191 18.53 18.53 0 0 0-1.016-.098c-1.362-.095-2.734-.108-4.103-.096-1.369.011-2.74.061-4.106.144-.683.04-1.366.088-2.045.155-.34.033-.68.072-1.016.12-.331.043-.659.108-.98.197-.08.027-.156.058-.231.086-.075.03-.155.056-.23.094-.152.071-.308.135-.46.216-.304.15-.6.318-.897.488-.59.346-1.17.708-1.75 1.075-.58.367-1.16.736-1.752 1.09-.297.176-.595.346-.905.51-.154.08-.31.159-.473.23-.163.072-.33.134-.5.186h-.026c-1.268.104-2.535.224-3.8.361a91.533 91.533 0 0 0-3.787.478c-.629.099-1.258.192-1.88.32-.313.056-.62.133-.929.206l-.46.13-.23.064c-.077.022-.151.048-.23.072a5.303 5.303 0 0 0-.873.37 2.407 2.407 0 0 0-.389.264c-.118.102-.22.222-.301.355-.15.283-.221.6-.209.92v.956Z"/><path fill="#fff" d="M23.453 23.45h-1.86a.874.874 0 0 0 0 1.75h1.86a.874.874 0 0 0 0-1.75Z"/><path fill="#000" d="M23.48 23.666h-1.747a.874.874 0 0 0 0 1.748h1.747a.874.874 0 0 0 0-1.748Z"/><path fill="#363636" d="M36.44 41.411h-.884s-.282-4.268-1.253-7.337a26.595 26.595 0 0 1-1-4.464c-.086-.652-.108-1.038-.108-1.038l1.974-1.258.37-.23a.808.808 0 0 0-.074.291 4.054 4.054 0 0 0 0 .828c.02.275.062.616.132 1.032.09.52.23 1.16.43 1.946.066.254.127.527.182.807.695 3.626.231 9.423.231 9.423Z"/><path fill="#6E6E6E" d="M41.425 41.617h-.702s-1.19-3.961-3.186-7.094a18.29 18.29 0 0 1-1.334-2.528 20.232 20.232 0 0 1-.97-2.782c-.173-.65-.24-1.044-.24-1.044l.466.036 2.846.221s.178.742.444 1.756c.399 1.525.995 3.664 1.479 4.822.802 1.929 1.197 6.613 1.197 6.613Z"/><path fill="#363636" d="M38.745 30.182s-.914-.637-2.829-.908c-.115-.015-.22-.029-.323-.04a5.096 5.096 0 0 0-.358-.024c-1.402-.06-1.931.4-1.931.4-.087-.652-.109-1.039-.109-1.039l1.974-1.257.296.056a4.054 4.054 0 0 0 0 .828l2.84.228s.175.742.44 1.756Z"/><path fill="#FFB171" d="M28.03 25.911s-.443-.037-.64-.149c-.197-.111-.073.26.074.358.147.098-.997.21-1.194.383-.197.173.576.395.576.395s.828-.044 1.343-.306c.516-.262-.159-.68-.159-.68Z"/><path fill="#6E6E6E" d="M41.63 23.775c-.663.836-3.153-.563-3.153-.563l.014-1.254 1.009.23c-.188-.36-1.01-1.226-1.253-1.053-.18.127-.281 1.808-.295 3.32 0 .46 0 .906.013 1.287 0 .068.005.132.008.196.072 1.586.706 3.1.706 3.1s-2.088.03-2.837 0c-.748-.03-.978-1.14-.978-1.14s.044.766-.244.851c-.288.085-1.426 0-1.426 0-.173-.632-.02-2.256.082-3.15.042-.368.077-.613.077-.613a.97.97 0 0 1-.077.077c-1.002.923-5.033 1.755-5.033 1.755l-.216-.91s3.196-1.153 3.958-2.408 1.612-4.845 1.612-4.845l1.058-.503.64-.303 1.496-.564.849.435c2.924 1.311 4.65 5.218 3.99 6.055Z"/><path fill="#363636" d="M37.643 17.719s.883.326.605.701c-.28.375-.97.23-1.075.443-.105.212.441.22.47.413.029.193-1.41 1.317-2.378 2.274l-.609-.038s-.746-1.722-.89-1.877c-.144-.156.432-.36.46-.484.03-.124-.438-.125-.483-.25-.045-.125.448-.528.913-.75.465-.221 2.138-.867 2.138-.867l.849.435Z"/><path fill="#3F7BFE" d="M37.643 17.718c-.632.522-1.163 1.462-1.6 2.32-.697 1.372-1.152 2.538-1.382 1.473a7.468 7.468 0 0 1-.167-1.485 8.356 8.356 0 0 1 .167-1.874l.639-.303 1.497-.564.846.433Z"/><path fill="#fff" d="M28.028 25.91a18.067 18.067 0 0 0 2.204-1.06c.352-.2.69-.425 1.012-.673.323-.236.587-.543.771-.899.178-.363.331-.738.46-1.121.135-.384.261-.772.38-1.163.23-.78.444-1.571.633-2.363l.011-.052.049-.024 1.056-.506-.066.104v-.073l.066-.03.64-.302 1.497-.558.045-.018.041.022c.322.165.638.334.964.495.33.16.646.35.943.567.587.439 1.11.958 1.553 1.542.45.576.821 1.208 1.106 1.88.143.334.252.682.326 1.038.037.18.053.361.048.544a.892.892 0 0 1-.152.515.879.879 0 0 0 .126-.515 2.514 2.514 0 0 0-.072-.533 5.301 5.301 0 0 0-.359-1.016 8.871 8.871 0 0 0-1.14-1.824 7.973 7.973 0 0 0-1.551-1.476 5.981 5.981 0 0 0-.921-.543c-.323-.157-.646-.326-.97-.49h.087l-1.497.57h.009l-.638.305.066-.104v.082l-.066.03-1.06.5.06-.075a43.313 43.313 0 0 1-.655 2.373c-.24.785-.487 1.556-.875 2.297a2.194 2.194 0 0 1-.365.515c-.145.149-.301.287-.467.412-.33.246-.68.465-1.046.655-.726.38-1.479.705-2.253.972Z"/><path fill="#363636" d="M36.042 20.039c-.697 1.371-1.152 2.538-1.382 1.473a7.47 7.47 0 0 1-.167-1.486c.247-.302.563-.539.921-.692l.628.705ZM35.195 18.555h.702s-.16.779-.49.779c-.33 0-.212-.779-.212-.779ZM38.19 23.09l.287.122v-.706l-.316-.086.029.67Z"/><path fill="#FFB171" d="M36.94 16.146v1.06a1.216 1.216 0 0 1-1.213 1.214.41.41 0 0 1-.411-.412v-1.861h1.623Z"/><path fill="#FF621F" d="M36.94 16.146v.57c-.102 0-.214.547-.498.923-.3.394-1.126.43-1.126.43V16.18l.039-.035h1.584Z"/><path fill="#FFB171" d="M35.611 17.732a1.291 1.291 0 0 1-1.49-1.063l-.42-2.508 2.55-.43.42 2.508a1.298 1.298 0 0 1-1.06 1.492Z"/><path fill="#212121" d="M36.453 15.327s-.165-1.293-1.804-1.017-2.209-1.348-.937-1.953c1.27-.606 1.803.503 2.463.445 1.151-.1 1.52.772.933 2.296l-.655.23Z"/><path fill="#FFB171" d="M36.94 16.269a.597.597 0 1 0 0-1.194.597.597 0 0 0 0 1.194Z"/><path fill="#363636" d="M34.9 21.922c.022.503.023 1.003.02 1.5 0 .25-.008.497-.01.746 0 .25-.01.496-.013.745-.007.495-.024.991-.029 1.488-.004.496-.008.99 0 1.5a7.385 7.385 0 0 1-.266-1.485c-.043-.501-.058-1.004-.046-1.506.012-.502.043-1.001.1-1.5.049-.5.13-.997.244-1.488Z"/><path fill="#363636" d="M37.981 26.088c-1.855-.993-4.743-.148-4.743-.148l.07-.608c-.024.027-.032-.73-.032-.73l4.165-.48s.242.3.511.679c-.004.467.016.906.029 1.287Z"/><path fill="gray" d="M38.205 20.897v3.461a.428.428 0 0 1-.373.425l-2.563.309-.846.102-.55.067-.448.053-.927.116a.423.423 0 0 1-.474-.424v-3.46a.426.426 0 0 1 .373-.424l1.957-.236.448-.055.55-.066.845-.102 1.532-.19a.423.423 0 0 1 .476.424Z"/><path fill="#EDEDED" d="M38.05 20.775v3.461a.429.429 0 0 1-.373.426l-2.563.308-.845.102-.55.067-.448.053-.922.116a.423.423 0 0 1-.474-.424v-3.46a.426.426 0 0 1 .373-.425l1.958-.236.448-.055.55-.067.844-.101 1.53-.186a.425.425 0 0 1 .472.421Z"/><path fill="#fff" d="m36.046 20.537-.931 4.431-.846.103.933-4.432.844-.102ZM34.652 20.706l-.932 4.432-.449.053.933-4.431.448-.054Z"/><path fill="#212121" d="M33.521 23.191a.617.617 0 0 1-.138.412.568.568 0 0 1-.17.135.703.703 0 0 1-.23.073.595.595 0 0 1-.231-.006.43.43 0 0 1-.17-.078.355.355 0 0 1-.107-.132.392.392 0 0 1-.043-.173c0-.013.005-.026.014-.036a.053.053 0 0 1 .032-.018l.107-.015c.024 0 .04.01.047.04a.347.347 0 0 0 .035.097.21.21 0 0 0 .065.076c.03.022.065.037.102.044a.383.383 0 0 0 .141 0 .367.367 0 0 0 .263-.13.487.487 0 0 0 .078-.289v-.753l-.728.104a.05.05 0 0 1-.04-.012.054.054 0 0 1-.016-.038v-.077c0-.016.006-.03.016-.043a.067.067 0 0 1 .04-.022l.87-.123a.048.048 0 0 1 .054.027.047.047 0 0 1 .004.021l.005.916ZM34.298 22.47a.505.505 0 0 1 .202.006.364.364 0 0 1 .252.211c.025.06.041.123.046.187V23.078a.786.786 0 0 1-.047.201.532.532 0 0 1-.1.163.607.607 0 0 1-.353.179.51.51 0 0 1-.203-.006.377.377 0 0 1-.151-.076.356.356 0 0 1-.1-.134.557.557 0 0 1-.046-.231v-.111a.674.674 0 0 1 .045-.246.526.526 0 0 1 .252-.279.606.606 0 0 1 .203-.068Zm.308.621v-.179a.436.436 0 0 0-.028-.115.231.231 0 0 0-.059-.088.23.23 0 0 0-.093-.05.306.306 0 0 0-.128 0 .362.362 0 0 0-.222.118.347.347 0 0 0-.059.105.522.522 0 0 0-.027.122v.179c.003.04.013.079.027.116a.23.23 0 0 0 .059.087.23.23 0 0 0 .093.051c.043.01.087.01.13 0a.355.355 0 0 0 .22-.118.345.345 0 0 0 .059-.105.527.527 0 0 0 .028-.123ZM36.038 23.294a.063.063 0 0 1-.017.042.065.065 0 0 1-.04.023l-.077.01a.049.049 0 0 1-.04-.01.05.05 0 0 1-.017-.038v-.563a.3.3 0 0 0-.078-.23.26.26 0 0 0-.218-.051.336.336 0 0 0-.214.115.373.373 0 0 0-.08.256v.562a.064.064 0 0 1-.018.043.065.065 0 0 1-.04.023l-.078.01a.047.047 0 0 1-.04-.01.05.05 0 0 1-.017-.038v-1.4a.071.071 0 0 1 .057-.066l.078-.01a.05.05 0 0 1 .04.01.05.05 0 0 1 .018.039v.47a.475.475 0 0 1 .115-.116.461.461 0 0 1 .207-.075.46.46 0 0 1 .184.007.33.33 0 0 1 .239.21.534.534 0 0 1 .033.195l.003.592ZM37.318 23.112c0 .015-.006.03-.016.042a.063.063 0 0 1-.04.023l-.079.012a.05.05 0 0 1-.04-.012.051.051 0 0 1-.016-.038v-.561a.306.306 0 0 0-.079-.231.257.257 0 0 0-.217-.05.345.345 0 0 0-.214.116.377.377 0 0 0-.08.256v.563a.066.066 0 0 1-.018.042.06.06 0 0 1-.04.022l-.078.012a.049.049 0 0 1-.053-.029.05.05 0 0 1-.004-.02v-.993c0-.016.006-.031.017-.042a.065.065 0 0 1 .04-.024l.079-.01a.044.044 0 0 1 .039.012.046.046 0 0 1 .017.038v.065a.494.494 0 0 1 .115-.115.469.469 0 0 1 .209-.075.482.482 0 0 1 .183.007.344.344 0 0 1 .145.074.358.358 0 0 1 .093.136.52.52 0 0 1 .034.196l.003.584Z"/><path fill="#FFB171" d="m38.491 21.958-.673-.214a.142.142 0 0 0-.044-.007h-.553a.144.144 0 0 0-.131.203l.131.297a.142.142 0 0 0 .132.087h.482a.14.14 0 0 1 .071.018l.576.328.01-.712Z"/><path fill="#363636" d="M36.128 26.32c.128-.013.257-.006.383.021.119.026.234.065.345.115.11.048.216.108.313.178.106.074.199.165.274.269a1.127 1.127 0 0 1-.382-.02 1.748 1.748 0 0 1-.656-.29 1.161 1.161 0 0 1-.277-.273ZM33.037 26.797a.65.65 0 0 1 .171-.219.808.808 0 0 1 .448-.188.663.663 0 0 1 .277.031c-.041.085-.1.16-.172.22a.821.821 0 0 1-.448.188.68.68 0 0 1-.276-.032ZM36.328 41.355h-1.833a.263.263 0 0 0 0 .526h1.833a.263.263 0 0 0 0-.526ZM41.54 41.355h-.988a.263.263 0 0 0 0 .526h.987a.263.263 0 0 0 0-.526Z"/><path fill="url(#c)" d="M33.985 23.767c1.12 0 2.026-.909 2.026-2.03 0-1.121-.907-2.03-2.026-2.03-1.12 0-2.027.909-2.027 2.03 0 1.121.908 2.03 2.027 2.03Z"/></g></g><defs><radialGradient id="c" cx="0" cy="0" r="1" gradientTransform="matrix(2.02662 0 0 2.03031 33.985 21.737)" gradientUnits="userSpaceOnUse"><stop stop-color="#fff"/><stop offset="1" stop-color="#fff" stop-opacity="0"/></radialGradient><filter id="a" width="59.916" height="59.916" x=".36" y=".876" color-interpolation-filters="sRGB" filterUnits="userSpaceOnUse"><feFlood flood-opacity="0" result="BackgroundImageFix"/><feColorMatrix in="SourceAlpha" result="hardAlpha" values="0 0 0 0 0 0 0 0 0 0 0 0 0 0 0 0 0 0 127 0"/><feOffset dy="2.734"/><feGaussianBlur stdDeviation="1.709"/><feComposite in2="hardAlpha" operator="out"/><feColorMatrix values="0 0 0 0 0 0 0 0 0 0 0 0 0 0 0 0 0 0 0.04 0"/><feBlend in2="BackgroundImageFix" result="effect1_dropShadow_452_15936"/><feBlend in="SourceGraphic" in2="effect1_dropShadow_452_15936" result="shape"/></filter></defs></svg>