<svg width="37" height="37" viewBox="0 0 37 37" fill="none" xmlns="http://www.w3.org/2000/svg">
<path d="M19.3058 33.5247C18.695 33.5247 18.0834 33.5247 17.4726 33.5247C17.3864 33.5088 17.3003 33.4842 17.2134 33.477C14.7006 33.2896 12.3815 32.5131 10.2543 31.1544C10.007 30.9964 9.76439 30.8305 9.52733 30.6732C8.38395 31.3577 7.24609 31.2799 6.3769 30.4692C5.48084 29.633 5.36626 28.5166 6.04107 27.154C5.99998 27.0913 5.9589 27.0246 5.91386 26.9594C4.64562 25.1149 3.80725 23.0932 3.44376 20.877C3.35368 20.3307 3.29205 19.7804 3.21777 19.2317C3.21777 18.5965 3.21777 17.9612 3.21777 17.326C3.23595 17.2291 3.26281 17.1338 3.27072 17.0362C3.4809 14.4325 4.30743 12.0431 5.73449 9.86347C5.96127 9.51647 6.29551 9.42674 6.59262 9.62128C6.88419 9.81265 6.93634 10.1581 6.72616 10.5098C6.52308 10.8497 6.30578 11.1816 6.1193 11.5302C5.902 11.9344 5.71078 12.3528 5.49111 12.7999C7.42783 12.7999 9.30055 12.8023 11.1733 12.7919C11.2444 12.7919 11.3519 12.6911 11.3811 12.6141C11.7327 11.6842 12.3791 11.107 13.3565 10.9354C13.5438 10.9029 13.5928 10.81 13.6244 10.6504C13.6947 10.2907 13.7714 9.93176 13.8575 9.57602C14.2905 7.78543 14.8484 6.04645 15.9191 4.51869C15.9254 4.50996 15.9104 4.48534 15.9009 4.45041C15.8061 4.46549 15.7097 4.4782 15.6149 4.49726C13.7153 4.8792 11.9745 5.63355 10.3823 6.74363C10.0433 6.98026 9.69801 6.92944 9.49731 6.63723C9.2966 6.34422 9.37562 6.00199 9.71223 5.76615C11.5344 4.4909 13.5351 3.64841 15.7239 3.26965C16.2849 3.17277 16.8515 3.11084 17.4149 3.03223C18.0454 3.03223 18.6768 3.03223 19.3073 3.03223C19.3832 3.0489 19.4575 3.07511 19.5341 3.08066C22.1117 3.27441 24.4783 4.09467 26.641 5.51444C26.829 5.63752 27.0139 5.76536 27.1909 5.88526C28.3217 5.20396 29.454 5.27384 30.3232 6.07028C30.7214 6.43475 30.9727 6.88577 31.0833 7.41778C31.2327 8.1372 31.0604 8.78991 30.6685 9.38783C30.7222 9.46962 30.7649 9.53632 30.8092 9.60223C33.318 13.3375 34.0781 17.4141 33.0888 21.8013C31.7629 27.6804 26.8733 32.2971 20.9699 33.2928C20.4175 33.3865 19.8605 33.4484 19.3058 33.5247ZM23.6091 14.0053C23.6557 14.7231 23.73 15.4052 23.7387 16.0888C23.7576 17.5666 23.7474 19.0443 23.7355 20.5228C23.7339 20.7206 23.7805 20.8206 23.9678 20.8992C24.3969 21.0787 24.743 21.3765 24.9879 21.7727C25.1412 22.0204 25.2534 22.2952 25.3838 22.5556C27.4715 22.5556 29.5599 22.5556 31.6578 22.5556C32.5373 19.6978 32.5381 16.8527 31.6649 14.006C28.9736 14.0053 26.3052 14.0053 23.6091 14.0053ZM5.06047 13.991C4.18337 16.8575 4.17942 19.7026 5.05177 22.5469C7.74627 22.5469 10.4226 22.5469 13.1132 22.5469C13.1029 22.3682 13.0926 22.211 13.0855 22.053C13.0294 20.8047 12.9551 19.5573 12.9251 18.309C12.9069 17.5467 12.9559 16.7821 12.9796 16.019C12.9844 15.8689 12.9701 15.7728 12.801 15.7021C12.0994 15.4083 11.6316 14.8859 11.3748 14.1633C11.3487 14.0894 11.2317 13.9989 11.1567 13.9989C9.13778 13.9894 7.11808 13.991 5.06047 13.991ZM20.5139 22.558C20.8158 21.5908 21.4211 20.9667 22.3835 20.7293C22.5668 20.684 22.5597 20.58 22.5597 20.4498C22.5581 18.9331 22.57 17.4165 22.5487 15.9007C22.54 15.2694 22.4594 14.6397 22.4127 14.0259C22.3661 14.0092 22.3566 14.0029 22.3472 14.0029C20.3385 13.9989 18.3291 13.9925 16.3205 14.0005C16.2454 14.0005 16.1348 14.118 16.1024 14.2046C15.8938 14.7501 15.5722 15.2051 15.0688 15.5012C14.7931 15.6632 14.4857 15.7704 14.1712 15.9126C14.04 18.1145 14.0906 20.3354 14.3182 22.5588C16.4027 22.558 18.4492 22.558 20.5139 22.558ZM22.2658 12.7999C22.2026 12.3925 22.1504 12.0122 22.0832 11.6342C21.7735 9.88332 21.3626 8.16181 20.608 6.54274C20.2801 5.83921 19.9024 5.16426 19.3089 4.64654C18.6649 4.08514 18.0502 4.05417 17.4378 4.64257C17.038 5.0261 16.6863 5.48744 16.4114 5.97022C15.5327 7.50989 15.117 9.21632 14.7725 10.9394C14.7583 11.0125 14.8531 11.1467 14.9314 11.1927C15.4718 11.5103 15.874 11.9487 16.0708 12.5458C16.1427 12.7626 16.2462 12.8046 16.4493 12.8038C18.2825 12.7967 20.1157 12.7999 21.9481 12.7999C22.0445 12.7999 22.1417 12.7999 22.2658 12.7999ZM14.4454 23.7713C14.5497 24.3835 14.639 24.9807 14.7551 25.5714C15.0775 27.2072 15.4995 28.8136 16.2557 30.3103C16.5828 30.9583 16.9589 31.5761 17.55 32.0223C18.0944 32.4336 18.6254 32.4622 19.1446 32.0239C19.5009 31.723 19.8297 31.3601 20.0801 30.967C21.1176 29.3368 21.5625 27.4859 21.9513 25.6199C21.9631 25.5619 21.9244 25.4515 21.8778 25.4277C21.1777 25.0759 20.736 24.5106 20.5155 23.7697C18.4871 23.7713 16.4809 23.7713 14.4454 23.7713ZM31.1821 23.7745C29.2249 23.7745 27.2881 23.7745 25.3506 23.7745C25.0701 24.6718 24.5273 25.3229 23.6217 25.5413C23.2029 25.6421 23.0536 25.839 23.0354 26.2218C23.0346 26.2313 23.0338 26.2416 23.0315 26.2511C22.5779 28.2903 22.02 30.2889 20.8055 32.0311C20.7976 32.043 20.8071 32.0668 20.8095 32.0859C25.0764 31.4649 29.4066 28.2021 31.1821 23.7745ZM20.7676 4.43532C22.4696 6.99376 23.0085 9.87935 23.4668 12.7776C26.0547 12.7776 28.6172 12.7776 31.273 12.7776C30.7625 11.8629 30.2845 11.0053 29.8056 10.1477C28.6891 10.6075 27.7132 10.4916 26.9033 9.67766C26.0855 8.85582 25.9796 7.86166 26.4126 6.79842C24.7043 5.59146 22.8521 4.79979 20.7676 4.43532ZM10.3041 29.7561C12.0022 30.9607 13.8591 31.7539 15.9491 32.1208C14.2494 29.56 13.7089 26.6752 13.2522 23.7808C10.6628 23.7808 8.10027 23.7808 5.44607 23.7808C5.95732 24.6964 6.43616 25.554 6.91343 26.4092C8.02047 25.9534 8.98922 26.0622 9.79678 26.861C10.6233 27.6781 10.7442 28.6682 10.3041 29.7561ZM29.9518 7.93709C29.9613 7.21927 29.3892 6.62055 28.6796 6.60706C27.9661 6.59356 27.3679 7.16766 27.3521 7.88072C27.3355 8.61125 27.9171 9.21949 28.6393 9.22584C29.3497 9.2322 29.9415 8.65095 29.9518 7.93709ZM15.0459 13.4057C15.0507 12.6887 14.4738 12.0948 13.7635 12.086C13.0507 12.0773 12.4573 12.6554 12.4455 13.3692C12.4336 14.0997 13.0191 14.7024 13.7421 14.704C14.4533 14.7064 15.0412 14.1212 15.0459 13.4057ZM6.76804 28.6111C6.75381 29.3289 7.32274 29.9316 8.03074 29.9506C8.75533 29.9697 9.36061 29.3837 9.36851 28.6563C9.37562 27.9393 8.80037 27.343 8.09079 27.3319C7.37726 27.3207 6.78147 27.8972 6.76804 28.6111ZM24.227 23.179C24.2341 22.4516 23.6715 21.864 22.9572 21.8529C22.2342 21.8418 21.632 22.4349 21.6297 23.1599C21.6281 23.8714 22.2152 24.4669 22.9232 24.4717C23.6407 24.4764 24.2207 23.9007 24.227 23.179Z" fill="#3E7BFA" stroke="#3E7BFA" stroke-width="0.432701"/>
<path d="M8.54066 8.0243C8.54856 8.35701 8.28306 8.63016 7.95277 8.63016C7.63748 8.63016 7.3712 8.36971 7.3625 8.05289C7.35381 7.72971 7.63116 7.44385 7.95356 7.44385C8.26884 7.44464 8.53355 7.70589 8.54066 8.0243Z" fill="#3E7BFA"/>
<mask id="mask0_453_96434" style="mask-type:alpha" maskUnits="userSpaceOnUse" x="3" y="2" width="31" height="32">
<path d="M32.9066 18.2873C32.9066 26.3888 26.3884 32.9463 18.3603 32.9463C10.3321 32.9463 3.81392 26.3888 3.81392 18.2873C3.81392 10.1858 10.3321 3.62838 18.3603 3.62838C26.3884 3.62838 32.9066 10.1858 32.9066 18.2873Z" stroke="#2957B7" stroke-width="1.61417"/>
</mask>
<g mask="url(#mask0_453_96434)">
<rect x="1.2959" y="-0.816406" width="18.9433" height="17.3225" fill="#3E7BFA"/>
</g>
</svg>
