<svg width="142" height="31" viewBox="0 0 142 31" fill="none" xmlns="http://www.w3.org/2000/svg">
<path d="M141.086 20.7731C140.647 20.7731 140.288 21.1321 140.288 21.5713C140.288 22.0105 140.642 22.3694 141.086 22.3694C141.525 22.3694 141.884 22.0105 141.884 21.5713C141.88 21.1279 141.525 20.7731 141.086 20.7731ZM141.086 22.2385C140.714 22.2385 140.414 21.9387 140.414 21.5671C140.414 21.1954 140.714 20.8956 141.086 20.8956C141.457 20.8956 141.757 21.1954 141.757 21.5671C141.757 21.9387 141.453 22.2385 141.086 22.2385ZM141.343 21.4319C141.343 21.2883 141.242 21.1997 141.09 21.1997H140.837V21.926H140.959V21.6642H141.094L141.225 21.926H141.36L141.217 21.6346C141.293 21.6008 141.343 21.5291 141.343 21.4319ZM141.086 21.5502H140.963V21.3095H141.086C141.17 21.3095 141.221 21.3517 141.221 21.4277C141.217 21.5079 141.166 21.5502 141.086 21.5502ZM45.1482 12.7157V10.79H42.1964V22.247H45.1482V15.3762C45.1482 14.1304 45.9464 13.5223 47.1922 13.5223H48.8096V10.79H47.4286C46.3433 10.79 45.4058 11.3517 45.1482 12.7157ZM51.5714 6.25879C50.5621 6.25879 49.7851 7.05693 49.7851 8.06622C49.7851 9.0544 50.5579 9.85254 51.5714 9.85254C52.5849 9.85254 53.3577 9.0544 53.3577 8.06622C53.3577 7.05271 52.5807 6.25879 51.5714 6.25879ZM50.0976 22.2427H53.0452V10.79H50.0976V22.2427ZM67.0781 16.5164C67.0781 19.785 64.4261 22.437 61.1575 22.437C59.8357 22.437 58.6406 22.0063 57.682 21.2757V25.6084H54.7344V10.79H57.682V11.7613C58.6406 11.0307 59.84 10.6 61.1575 10.6C64.4261 10.5958 67.0781 13.2478 67.0781 16.5164ZM64.1136 16.5164C64.1136 14.7385 62.6736 13.2985 60.8957 13.2985C59.1178 13.2985 57.6778 14.7385 57.6778 16.5164C57.6778 18.2943 59.1178 19.7343 60.8957 19.7343C62.6736 19.7343 64.1136 18.2943 64.1136 16.5164ZM118.277 15.5113L116.559 15.0383C115.427 14.7427 114.988 14.3965 114.988 13.801C114.988 13.2182 115.609 12.8128 116.491 12.8128C117.336 12.8128 117.995 13.3661 117.995 14.0713V14.1389H120.71V14.0713C120.71 11.9936 119.016 10.5958 116.491 10.5958C113.991 10.5958 112.175 11.9894 112.175 13.915C112.175 15.41 113.168 16.5375 114.899 17.0063L116.546 17.4539C117.796 17.8002 118.261 18.1845 118.261 18.8728C118.261 19.5992 117.589 20.0848 116.588 20.0848C115.545 20.0848 114.844 19.426 114.844 18.4463V18.3787H111.964V18.4463C111.964 20.7943 113.856 22.437 116.567 22.437C119.177 22.437 121.073 20.8323 121.073 18.6237C121.069 17.5468 120.583 16.1279 118.277 15.5113ZM77.5258 10.79H80.4734V22.247H77.5258V21.2757C76.5672 22.0063 75.3678 22.437 74.0503 22.437C70.7817 22.437 68.1297 19.785 68.1297 16.5164C68.1297 13.2478 70.7817 10.5958 74.0503 10.5958C75.3721 10.5958 76.5672 11.0265 77.5258 11.7571V10.79ZM77.5258 16.5164C77.5258 14.7385 76.0857 13.2985 74.3079 13.2985C72.53 13.2985 71.09 14.7385 71.09 16.5164C71.09 18.2943 72.53 19.7343 74.3079 19.7343C76.0857 19.7343 77.5258 18.2943 77.5258 16.5164ZM91.1069 6.71065H94.0545V22.247H91.1069V21.2757C90.1482 22.0063 88.9489 22.437 87.6313 22.437C84.3628 22.437 81.7107 19.785 81.7107 16.5164C81.7107 13.2478 84.3628 10.5958 87.6313 10.5958C88.9531 10.5958 90.1482 11.0265 91.1069 11.7571V6.71065ZM91.1069 16.5164C91.1069 14.7385 89.6668 13.2985 87.889 13.2985C86.1111 13.2985 84.671 14.7385 84.671 16.5164C84.671 18.2943 86.1111 19.7343 87.889 19.7343C89.6668 19.7343 91.1069 18.2943 91.1069 16.5164ZM107.733 22.2427H110.68V10.79H107.733V22.2427ZM109.202 6.25879C108.193 6.25879 107.416 7.05693 107.416 8.06622C107.416 9.0544 108.189 9.85254 109.202 9.85254C110.216 9.85254 110.989 9.0544 110.989 8.06622C110.989 7.05271 110.216 6.25879 109.202 6.25879ZM133.801 16.5164C133.801 19.785 131.149 22.437 127.881 22.437C124.612 22.437 121.96 19.785 121.96 16.5164C121.96 13.2478 124.612 10.5958 127.881 10.5958C131.149 10.5958 133.801 13.2478 133.801 16.5164ZM131.098 16.5164C131.098 14.7385 129.658 13.2985 127.881 13.2985C126.103 13.2985 124.663 14.7385 124.663 16.5164C124.663 18.2943 126.103 19.7343 127.881 19.7343C129.654 19.7343 131.098 18.2943 131.098 16.5164ZM43.6406 6.71065H32.34V9.33734H36.5249V22.2427H39.4599V9.33734H43.6449L43.6406 6.71065ZM100.786 19.1051L98.1634 10.7858H95.068L98.9996 22.2427H102.543L106.495 10.7858H103.4L100.786 19.1051ZM138.117 12.7157V10.79H135.165V22.247H138.117V15.3762C138.117 14.1304 138.915 13.5223 140.161 13.5223H141.778V10.79H140.397C139.316 10.79 138.379 11.3517 138.117 12.7157Z" fill="black"/>
<path d="M15.2975 30.7649C23.6167 30.7649 30.3608 24.0208 30.3608 15.7015C30.3608 7.38227 23.6167 0.638184 15.2975 0.638184C6.97822 0.638184 0.234131 7.38227 0.234131 15.7015C0.234131 24.0208 6.97822 30.7649 15.2975 30.7649Z" fill="#34E0A1"/>
<path d="M24.6061 12.7661L26.422 10.7897H22.389C20.3704 9.41303 17.9338 8.60645 15.2987 8.60645C12.6677 8.60645 10.2353 9.41303 8.22095 10.7897H4.17957L5.99544 12.7661C4.88058 13.7838 4.18379 15.2492 4.18379 16.875C4.18379 19.9451 6.67112 22.4325 9.74122 22.4325C11.1981 22.4325 12.5284 21.8708 13.5166 20.9502L15.2987 22.8885L17.0807 20.9502C18.0731 21.8708 19.3992 22.4282 20.8561 22.4282C23.9262 22.4282 26.4177 19.9409 26.4177 16.8708C26.4177 15.245 25.7209 13.7796 24.6061 12.7661ZM9.74544 20.6335C7.66774 20.6335 5.987 18.9485 5.987 16.875C5.987 14.8015 7.67196 13.1166 9.74544 13.1166C11.8189 13.1166 13.5039 14.8015 13.5039 16.875C13.5039 18.9485 11.8231 20.6335 9.74544 20.6335ZM15.3029 16.761C15.3029 14.2863 13.5039 12.1622 11.1264 11.2542C12.4101 10.7179 13.8206 10.4181 15.2987 10.4181C16.7767 10.4181 18.1872 10.7179 19.4752 11.2542C17.1019 12.1664 15.3029 14.2863 15.3029 16.761ZM20.8603 20.6335C18.7826 20.6335 17.1019 18.9485 17.1019 16.875C17.1019 14.8015 18.7868 13.1166 20.8603 13.1166C22.9338 13.1166 24.6188 14.8015 24.6188 16.875C24.6188 18.9485 22.938 20.6335 20.8603 20.6335ZM20.8603 14.8987C19.7708 14.8987 18.8882 15.7813 18.8882 16.8708C18.8882 17.9603 19.7708 18.8429 20.8603 18.8429C21.9498 18.8429 22.8324 17.9603 22.8324 16.8708C22.8282 15.7813 21.9498 14.8987 20.8603 14.8987ZM11.7133 16.8708C11.7133 17.9603 10.8307 18.8429 9.74122 18.8429C8.65169 18.8429 7.76909 17.9603 7.76909 16.8708C7.76909 15.7813 8.65169 14.8987 9.74122 14.8987C10.835 14.8987 11.7133 15.7813 11.7133 16.8708Z" fill="black"/>
</svg>
