<svg width="121" height="25" viewBox="0 0 121 25" fill="none" xmlns="http://www.w3.org/2000/svg">
<g clip-path="url(#clip0_823_10751)">
<path d="M38.6544 9.09424H47.7594V10.7892H44.1744V20.3442H42.2094V10.7892H38.6394L38.6544 9.09424ZM47.3694 12.1992H49.0494V13.7742H49.0794C49.1394 13.5492 49.2444 13.3392 49.3944 13.1292C49.5444 12.9192 49.7244 12.7242 49.9494 12.5592C50.1594 12.3792 50.3994 12.2442 50.6694 12.1392C50.9244 12.0342 51.1944 11.9742 51.4644 11.9742C51.6744 11.9742 51.8244 11.9892 51.8994 11.9892C51.9744 12.0042 52.0644 12.0192 52.1394 12.0192V13.7442C52.0194 13.7142 51.8844 13.6992 51.7494 13.6842C51.6144 13.6692 51.4944 13.6542 51.3594 13.6542C51.0594 13.6542 50.7744 13.7142 50.5044 13.8342C50.2344 13.9542 50.0094 14.1342 49.7994 14.3592C49.6044 14.5992 49.4394 14.8842 49.3194 15.2292C49.1994 15.5742 49.1394 15.9792 49.1394 16.4292V20.2992H47.3394L47.3694 12.1992ZM60.3894 20.3442H58.6194V19.2042H58.5894C58.3644 19.6242 58.0344 19.9392 57.5994 20.1942C57.1644 20.4492 56.7144 20.5692 56.2644 20.5692C55.1994 20.5692 54.4194 20.3142 53.9394 19.7742C53.4594 19.2492 53.2194 18.4392 53.2194 17.3742V12.1992H55.0194V17.1942C55.0194 17.9142 55.1544 18.4242 55.4394 18.7092C55.7094 19.0092 56.0994 19.1592 56.5944 19.1592C56.9694 19.1592 57.2844 19.0992 57.5394 18.9792C57.7944 18.8592 58.0044 18.7092 58.1544 18.5142C58.3194 18.3192 58.4244 18.0792 58.4994 17.8092C58.5744 17.5392 58.6044 17.2392 58.6044 16.9242V12.1992H60.4044V20.3442H60.3894ZM63.4494 17.7342C63.5094 18.2592 63.7044 18.6192 64.0494 18.8442C64.3944 19.0542 64.8144 19.1592 65.2944 19.1592C65.4594 19.1592 65.6544 19.1442 65.8644 19.1142C66.0744 19.0842 66.2844 19.0392 66.4644 18.9642C66.6594 18.8892 66.8094 18.7842 66.9294 18.6342C67.0494 18.4842 67.1094 18.3042 67.0944 18.0792C67.0794 17.8542 67.0044 17.6592 66.8394 17.5092C66.6744 17.3592 66.4794 17.2542 66.2394 17.1492C65.9994 17.0592 65.7144 16.9842 65.3994 16.9242C65.0844 16.8642 64.7694 16.7892 64.4394 16.7142C64.1094 16.6392 63.7794 16.5492 63.4644 16.4442C63.1494 16.3392 62.8794 16.2042 62.6244 16.0092C62.3844 15.8292 62.1744 15.6042 62.0394 15.3192C61.8894 15.0342 61.8144 14.7042 61.8144 14.2842C61.8144 13.8342 61.9194 13.4742 62.1444 13.1742C62.3544 12.8742 62.6394 12.6342 62.9694 12.4542C63.2994 12.2742 63.6744 12.1392 64.0794 12.0642C64.4844 11.9892 64.8744 11.9592 65.2344 11.9592C65.6544 11.9592 66.0594 12.0042 66.4344 12.0942C66.8094 12.1842 67.1694 12.3192 67.4694 12.5292C67.7844 12.7242 68.0394 12.9942 68.2344 13.3092C68.4444 13.6242 68.5644 14.0142 68.6244 14.4642H66.7494C66.6594 14.0292 66.4644 13.7442 66.1644 13.5942C65.8494 13.4442 65.5044 13.3692 65.0994 13.3692C64.9794 13.3692 64.8144 13.3842 64.6494 13.3992C64.4694 13.4292 64.3194 13.4592 64.1544 13.5192C64.0044 13.5792 63.8694 13.6692 63.7644 13.7742C63.6594 13.8792 63.5994 14.0292 63.5994 14.2092C63.5994 14.4342 63.6744 14.5992 63.8244 14.7342C63.9744 14.8692 64.1694 14.9742 64.4244 15.0792C64.6644 15.1692 64.9494 15.2442 65.2644 15.3042C65.5794 15.3642 65.9094 15.4392 66.2394 15.5142C66.5694 15.5892 66.8844 15.6792 67.1994 15.7842C67.5144 15.8892 67.7994 16.0242 68.0394 16.2192C68.2794 16.3992 68.4894 16.6242 68.6394 16.8942C68.7894 17.1642 68.8644 17.5092 68.8644 17.8992C68.8644 18.3792 68.7594 18.7842 68.5344 19.1292C68.3094 19.4592 68.0244 19.7442 67.6794 19.9542C67.3344 20.1642 66.9294 20.3142 66.5094 20.4192C66.0744 20.5092 65.6544 20.5692 65.2344 20.5692C64.7244 20.5692 64.2444 20.5092 63.8094 20.3892C63.3744 20.2692 62.9844 20.0892 62.6694 19.8642C62.3544 19.6242 62.0994 19.3392 61.9194 18.9792C61.7394 18.6342 61.6344 18.2142 61.6194 17.7192H63.4344V17.7342H63.4494ZM69.3744 12.1992H70.7394V9.73924H72.5394V12.1842H74.1594V13.5192H72.5394V17.8692C72.5394 18.0642 72.5544 18.2142 72.5694 18.3642C72.5844 18.4992 72.6294 18.6192 72.6744 18.7092C72.7344 18.7992 72.8244 18.8742 72.9294 18.9192C73.0494 18.9642 73.1994 18.9942 73.4094 18.9942C73.5294 18.9942 73.6644 18.9942 73.7844 18.9792C73.9044 18.9642 74.0394 18.9492 74.1594 18.9192V20.3142C73.9644 20.3442 73.7694 20.3592 73.5744 20.3742C73.3794 20.4042 73.1994 20.4042 72.9894 20.4042C72.5094 20.4042 72.1344 20.3592 71.8494 20.2692C71.5644 20.1792 71.3394 20.0442 71.1744 19.8792C71.0094 19.6992 70.9044 19.4892 70.8444 19.2342C70.7844 18.9792 70.7544 18.6642 70.7394 18.3342V13.5342H69.3744V12.1692V12.1992ZM75.4194 12.1992H77.1144V13.3092H77.1444C77.3994 12.8292 77.7444 12.4992 78.1944 12.2892C78.6444 12.0792 79.1244 11.9742 79.6644 11.9742C80.3094 11.9742 80.8644 12.0792 81.3444 12.3192C81.8244 12.5442 82.2144 12.8442 82.5294 13.2492C82.8444 13.6392 83.0844 14.1042 83.2344 14.6292C83.3844 15.1542 83.4744 15.7242 83.4744 16.3092C83.4744 16.8642 83.3994 17.3892 83.2644 17.8992C83.1144 18.4092 82.9044 18.8742 82.6194 19.2642C82.3344 19.6542 81.9744 19.9692 81.5244 20.2092C81.0744 20.4492 80.5644 20.5692 79.9644 20.5692C79.7094 20.5692 79.4394 20.5392 79.1844 20.4942C78.9294 20.4492 78.6744 20.3742 78.4344 20.2692C78.1944 20.1642 77.9694 20.0292 77.7744 19.8642C77.5644 19.6992 77.3994 19.5042 77.2644 19.2942H77.2344V23.3592H75.4344V12.1992H75.4194ZM81.7044 16.2792C81.7044 15.9192 81.6594 15.5592 81.5544 15.2142C81.4644 14.8692 81.3144 14.5692 81.1194 14.2992C80.9244 14.0292 80.6844 13.8192 80.4144 13.6542C80.1294 13.4892 79.7994 13.4142 79.4394 13.4142C78.6894 13.4142 78.1194 13.6692 77.7294 14.1942C77.3544 14.7192 77.1594 15.4242 77.1594 16.2942C77.1594 16.7142 77.2044 17.0892 77.3094 17.4342C77.4144 17.7792 77.5494 18.0792 77.7594 18.3342C77.9544 18.5892 78.1944 18.7842 78.4794 18.9342C78.7644 19.0842 79.0794 19.1592 79.4544 19.1592C79.8744 19.1592 80.2044 19.0692 80.4894 18.9042C80.7744 18.7392 80.9994 18.5142 81.1944 18.2592C81.3744 17.9892 81.5094 17.6892 81.5844 17.3442C81.6594 16.9842 81.7044 16.6392 81.7044 16.2792ZM84.8694 9.09424H86.6694V10.7892H84.8694V9.09424ZM84.8694 12.1992H86.6694V20.3442H84.8694V12.1992ZM88.2744 9.09424H90.0744V20.3442H88.2744V9.09424ZM95.5644 20.5692C94.9194 20.5692 94.3344 20.4642 93.8244 20.2392C93.3144 20.0142 92.8944 19.7292 92.5344 19.3542C92.1894 18.9792 91.9194 18.5142 91.7394 17.9892C91.5594 17.4642 91.4544 16.8792 91.4544 16.2642C91.4544 15.6492 91.5444 15.0792 91.7394 14.5542C91.9194 14.0292 92.1894 13.5792 92.5344 13.1892C92.8794 12.8142 93.3144 12.5142 93.8244 12.3042C94.3344 12.0942 94.9194 11.9742 95.5644 11.9742C96.2094 11.9742 96.7944 12.0792 97.3044 12.3042C97.8144 12.5142 98.2344 12.8142 98.5944 13.1892C98.9394 13.5642 99.2094 14.0292 99.3894 14.5542C99.5694 15.0792 99.6744 15.6492 99.6744 16.2642C99.6744 16.8942 99.5844 17.4642 99.3894 17.9892C99.1944 18.5142 98.9394 18.9642 98.5944 19.3542C98.2494 19.7292 97.8144 20.0292 97.3044 20.2392C96.7944 20.4492 96.2244 20.5692 95.5644 20.5692ZM95.5644 19.1442C95.9544 19.1442 96.3144 19.0542 96.5994 18.8892C96.8994 18.7242 97.1244 18.4992 97.3194 18.2292C97.5144 17.9592 97.6494 17.6442 97.7394 17.3142C97.8294 16.9692 97.8744 16.6242 97.8744 16.2642C97.8744 15.9192 97.8294 15.5742 97.7394 15.2292C97.6494 14.8842 97.5144 14.5842 97.3194 14.3142C97.1244 14.0442 96.8844 13.8342 96.5994 13.6692C96.2994 13.5042 95.9544 13.4142 95.5644 13.4142C95.1744 13.4142 94.8144 13.5042 94.5294 13.6692C94.2294 13.8342 94.0044 14.0592 93.8094 14.3142C93.6144 14.5842 93.4794 14.8842 93.3894 15.2292C93.2994 15.5742 93.2544 15.9192 93.2544 16.2642C93.2544 16.6242 93.2994 16.9692 93.3894 17.3142C93.4794 17.6592 93.6144 17.9592 93.8094 18.2292C94.0044 18.4992 94.2444 18.7242 94.5294 18.8892C94.8294 19.0692 95.1744 19.1442 95.5644 19.1442ZM100.214 12.1992H101.579V9.73924H103.379V12.1842H104.999V13.5192H103.379V17.8692C103.379 18.0642 103.394 18.2142 103.409 18.3642C103.424 18.4992 103.469 18.6192 103.514 18.7092C103.574 18.7992 103.664 18.8742 103.769 18.9192C103.889 18.9642 104.039 18.9942 104.249 18.9942C104.369 18.9942 104.504 18.9942 104.624 18.9792C104.744 18.9642 104.879 18.9492 104.999 18.9192V20.3142C104.804 20.3442 104.609 20.3592 104.414 20.3742C104.219 20.4042 104.039 20.4042 103.829 20.4042C103.349 20.4042 102.974 20.3592 102.689 20.2692C102.404 20.1792 102.179 20.0442 102.014 19.8792C101.849 19.6992 101.744 19.4892 101.684 19.2342C101.624 18.9792 101.594 18.6642 101.579 18.3342V13.5342H100.214V12.1692V12.1992Z" fill="black"/>
<path d="M36.555 9.09343H28.32L25.785 1.26343L23.235 9.09343L15 9.07843L21.66 13.9234L19.11 21.7534L25.77 16.9084L32.43 21.7534L29.895 13.9234L36.555 9.09343Z" fill="#00B67A"/>
<path d="M30.4654 15.6936L29.8954 13.9236L25.7854 16.9086L30.4654 15.6936Z" fill="#005128"/>
</g>
<defs>
<clipPath id="clip0_823_10751">
<rect width="90" height="22.095" fill="white" transform="translate(15 1.26343)"/>
</clipPath>
</defs>
</svg>
