<svg width="65" height="65" viewBox="0 0 65 65" fill="none" xmlns="http://www.w3.org/2000/svg">
<rect width="65" height="65" rx="19.6877" fill="#DBE8FF"/>
<path d="M31.0117 51.2509V47.1533C29.5158 47.1273 28.0849 46.9972 26.719 46.7631C25.3661 46.5289 24.2604 46.2232 23.4019 45.846V42.685C24.2995 43.1012 25.4507 43.4655 26.8556 43.7777C28.2605 44.0899 29.6459 44.259 31.0117 44.285V35.6995C29.2946 35.2182 27.8702 34.6719 26.7385 34.0605C25.6198 33.4361 24.7808 32.6751 24.2214 31.7775C23.6621 30.88 23.3824 29.7938 23.3824 28.519C23.3824 27.1921 23.6946 26.0604 24.319 25.1238C24.9564 24.1742 25.8474 23.4327 26.9922 22.8994C28.1369 22.366 29.4768 22.0603 31.0117 21.9823V18.6066H33.3923V21.9433C34.7841 21.9823 36.0524 22.1384 37.1972 22.4116C38.3419 22.6717 39.4021 23.0099 40.3777 23.4262L39.3631 26.1384C38.4785 25.7872 37.5224 25.488 36.4947 25.2409C35.4671 24.9937 34.4329 24.8246 33.3923 24.7335V33.2605C35.1354 33.7678 36.5923 34.3076 37.763 34.88C38.9468 35.4524 39.8379 36.1613 40.4362 37.0069C41.0346 37.8524 41.3338 38.9451 41.3338 40.2849C41.3338 42.1842 40.6379 43.7191 39.246 44.8899C37.8541 46.0476 35.9029 46.7501 33.3923 46.9972V51.2509H31.0117ZM33.3923 44.1094C34.9923 43.9533 36.1825 43.5695 36.963 42.9582C37.7565 42.3338 38.1533 41.5142 38.1533 40.4996C38.1533 39.7711 37.9972 39.1727 37.685 38.7044C37.3858 38.2361 36.8915 37.8329 36.202 37.4947C35.5126 37.1434 34.576 36.8117 33.3923 36.4995V44.1094ZM31.0117 32.441V24.8116C30.0361 24.8766 29.2166 25.0587 28.5532 25.3579C27.8897 25.6571 27.3889 26.0474 27.0507 26.5287C26.7255 27.01 26.5629 27.5824 26.5629 28.2458C26.5629 29.0133 26.706 29.6572 26.9922 30.1775C27.2914 30.6848 27.7662 31.1206 28.4166 31.4848C29.08 31.8361 29.9451 32.1548 31.0117 32.441Z" fill="#3E7BFA"/>
</svg>
