<svg width="65" height="65" viewBox="0 0 65 65" fill="none" xmlns="http://www.w3.org/2000/svg">
<rect width="65" height="65" rx="19.6877" fill="#DBE8FF"/>
<rect x="18.4914" y="20.5168" width="28.7191" height="26.597" rx="2.79903" stroke="#3E7BFA" stroke-width="1.69768"/>
<rect x="18.7031" y="25.3271" width="28.8605" height="1.69768" fill="#3E7BFA"/>
<rect width="1.06944" height="2.84436" rx="0.53472" transform="matrix(0.714508 -0.699628 0.709133 0.705074 37.8928 32.2947)" fill="#3E7BFA" stroke="#3E7BFA" stroke-width="0.236897"/>
<rect width="1.00383" height="4.89716" rx="0.501917" transform="matrix(-0.714508 -0.699628 -0.709133 0.705074 43.428 30.8086)" fill="#3E7BFA" stroke="#3E7BFA" stroke-width="0.236897"/>
<rect x="22.1866" y="38.4092" width="4.95618" height="4.88983" rx="1.27804" stroke="#3E7BFA" stroke-width="1.47064"/>
<rect x="22.1866" y="30.1109" width="4.95618" height="4.88983" rx="1.27804" stroke="#3E7BFA" stroke-width="1.47064"/>
<rect x="30.378" y="38.4092" width="4.95618" height="4.88983" rx="1.27804" stroke="#3E7BFA" stroke-width="1.47064"/>
<rect x="30.378" y="30.1109" width="4.95618" height="4.88983" rx="1.27804" stroke="#3E7BFA" stroke-width="1.47064"/>
<rect x="38.5537" y="38.4092" width="4.95618" height="4.88983" rx="1.27804" stroke="#3E7BFA" stroke-width="1.47064"/>
<rect x="29.4551" y="17.4756" width="1.69768" height="5.09304" rx="0.848839" fill="#3E7BFA"/>
<rect x="24.3652" y="17.4756" width="1.69768" height="5.09304" rx="0.848839" fill="#3E7BFA"/>
<rect x="34.5488" y="17.4756" width="1.69768" height="5.09304" rx="0.848839" fill="#3E7BFA"/>
<rect x="39.6406" y="17.4756" width="1.69768" height="5.09304" rx="0.848839" fill="#3E7BFA"/>
</svg>
